<?xml version="1.0" encoding="UTF-8"?><svg id="a" xmlns="http://www.w3.org/2000/svg" viewBox="0 0 850.39 850.39"><defs><style>.b{fill:#231f20;}</style></defs><path class="b" d="M442.73,451.47c5.03-4.58,10.1-8.04,14.85-5.26,12.23,7.13,3.83,40.21,16.06,47.35,12.23,7.13,20.63-25.95,32.86-18.82,12.22,7.12,3.82,40.21,16.05,47.34,12.23,7.13,20.63-25.95,32.86-18.82,12.23,7.13,3.83,40.21,16.05,47.34,12.23,7.13,20.63-25.96,32.85-18.83,12.23,7.13,3.82,40.21,16.05,47.33,12.23,7.13,20.63-25.95,32.86-18.82,12.23,7.12,3.82,40.21,16.05,47.33,12.22,7.13,20.62-25.95,32.85-18.83,12.22,7.13,3.82,40.21,16.05,47.34,12.23,7.13,20.63-25.96,32.85-18.83,12.23,7.12,3.82,40.21,16.05,47.34,12.23,7.13,20.63-25.96,32.85-18.83,12.23,7.12,3.82,40.21,16.05,47.34,12.23,7.13,20.63-25.96,32.85-18.83,.57,.33,1.08,.72,1.56,1.16v114.82c-3.21,1.86-6.41,2.37-9.59-.08-11.64-8.96,.26-39.69-11.38-48.65-11.64-8.97-23.54,21.76-35.18,12.8-11.64-8.97,.26-39.7-11.38-48.66-11.64-8.97-23.54,21.76-35.18,12.8-11.64-8.96,.26-39.69-11.38-48.65-11.64-8.97-23.54,21.76-35.18,12.8-11.64-8.97,.26-39.69-11.38-48.66-11.64-8.96-23.53,21.76-35.17,12.8-11.64-8.96,.26-39.69-11.38-48.65-11.64-8.96-23.54,21.77-35.18,12.8-11.64-8.97,.26-39.69-11.38-48.66-11.64-8.96-23.54,21.76-35.18,12.8-11.64-8.96,.26-39.68-11.38-48.65-11.64-8.96-23.54,21.76-35.17,12.79-11.64-8.96,.26-39.68-11.38-48.65-11.64-8.96-23.54,21.77-35.17,12.8-11.64-8.96,.26-39.69-11.38-48.65-5.48-4.23-10.92,.04-16.41,4.96,5.67-2.57,11.17-4.04,15.29,.41,10.58,11.43-3.33,40.31,7.25,51.73,10.58,11.42,24.49-17.46,35.07-6.03,10.57,11.41-3.34,40.3,7.24,51.71,10.58,11.43,24.49-17.46,35.07-6.03,10.58,11.42-3.33,40.31,7.24,51.73,10.58,11.42,24.49-17.46,35.07-6.04,10.58,11.43-3.34,40.3,7.24,51.73,10.58,11.43,24.49-17.46,35.07-6.03,10.57,11.41-3.34,40.3,7.24,51.72,10.58,11.42,24.49-17.46,35.06-6.04,10.57,11.41-3.34,40.3,7.24,51.71,10.58,11.43,24.49-17.46,35.06-6.03,10.58,11.42-3.34,40.3,7.24,51.72,10.58,11.42,24.49-17.46,35.07-6.03,10.58,11.41-3.33,40.3,7.24,51.72,10.58,11.42,24.49-17.46,35.06-6.04,5.11,5.51,4.51,15.09,3.71,24.81h-70.56c1.09-7.18,1.26-13.93-2.44-18.88-9.69-12.98-26.57,12.33-36.26-.65-9.69-12.98,7.19-38.29-2.49-51.27-9.69-12.98-26.57,12.33-36.26-.65-9.69-12.98,7.19-38.28-2.49-51.26-9.69-12.98-26.57,12.33-36.25-.65-9.69-12.98,7.19-38.28-2.49-51.26-9.69-12.98-26.57,12.32-36.26-.65-9.69-12.98,7.19-38.29-2.49-51.27-9.69-12.98-26.57,12.33-36.26-.65-9.69-12.98,7.19-38.28-2.5-51.27-9.69-12.98-26.57,12.33-36.26-.65-9.69-12.98,7.19-38.28-2.49-51.26-9.69-12.98-26.57,12.33-36.26-.65-9.69-12.98,7.19-38.29-2.49-51.26-4.87-6.52-11.37-3.68-17.96-.73,6.22-.27,12.14,.34,15.38,6.53,7.99,15.25-10.88,37.39-2.89,52.63,7.99,15.24,26.86-6.9,34.85,8.34,7.99,15.23-10.88,37.38-2.89,52.61,7.99,15.24,26.86-6.91,34.84,8.33,7.99,15.24-10.88,37.38-2.89,52.62,7.99,15.24,26.86-6.9,34.84,8.34,7.99,15.24-10.88,37.37-2.89,52.62,7.99,15.24,26.85-6.91,34.84,8.33,7.99,15.24-10.88,37.38-2.89,52.62,7.99,15.23,26.85-6.91,34.84,8.32,7.99,15.24-10.88,37.38-2.89,52.61,7.99,15.24,26.86-6.9,34.84,8.33,1.74,3.32,2.18,6.97,1.93,10.81h-69.13c.66-13.96,14.43-28.46,8.71-42.16-6.84-16.37-27.88,1.14-34.71-15.23-6.84-16.38,14.2-33.89,7.37-50.26-6.84-16.38-27.88,1.14-34.72-15.24-6.84-16.38,14.2-33.89,7.36-50.27-6.84-16.38-27.88,1.14-34.72-15.24-6.84-16.37,14.2-33.89,7.36-50.27-6.84-16.37-27.88,1.14-34.71-15.24-6.84-16.37,14.2-33.89,7.36-50.27-6.84-16.37-27.88,1.14-34.71-15.23-6.84-16.38,14.2-33.89,7.36-50.27-3.74-8.97-11.47-8.04-18.97-7.9,6.49,2.6,12.72,5.73,14.64,13.63,4.4,18.07-18.22,30.75-13.82,48.82,4.4,18.07,27.02,5.38,31.42,23.46,4.4,18.06-18.22,30.74-13.82,48.8,4.4,18.07,27.02,5.39,31.42,23.46,4.4,18.06-18.22,30.74-13.82,48.81,4.4,18.06,27.02,5.38,31.42,23.44,4.4,18.06-18.22,30.74-13.82,48.81,4.4,18.06,27.02,5.38,31.42,23.44,4.4,18.06-18.22,30.74-13.82,48.81,4.4,18.05,27.02,5.38,31.42,23.43,.22,.9,.35,1.78,.44,2.66h-43.92c-7.55-3.41-16.11-5.57-17.87-16.26-3.06-18.63,20.65-25.93,17.58-44.57-3.06-18.63-26.78-11.33-29.84-29.96-3.06-18.64,20.65-25.95,17.59-44.58-3.07-18.64-26.78-11.34-29.84-29.97-3.06-18.64,20.65-25.94,17.58-44.57-3.06-18.63-26.78-11.33-29.84-29.97-3.06-18.63,20.65-25.94,17.58-44.57-3.06-18.63-26.78-11.33-29.84-29.97-3.06-18.63,20.65-25.94,17.58-44.57-1.58-9.6-8.35-12.43-15.11-15.4,5.4,4.96,10.28,10.38,10.58,18.34,.71,19.14-23.45,22-22.74,41.14,.71,19.14,24.87,16.28,25.58,35.43,.71,19.13-23.45,21.99-22.74,41.12,.71,19.14,24.87,16.28,25.58,35.42,.71,19.13-23.45,21.99-22.74,41.12,.71,19.14,24.87,16.28,25.58,35.42,.71,19.13-23.45,21.99-22.74,41.13,.71,19.13,24.87,16.28,25.58,35.41,.71,19.14-23.45,22-22.74,41.13,.13,3.58,1.09,6.38,2.56,8.71h-29.92c-2.09-3.2-3.42-6.9-3.26-11.59,.68-19.14,24.85-16.39,25.53-35.52,.68-19.14-23.48-21.89-22.8-41.03,.68-19.13,24.85-16.38,25.53-35.52,.68-19.13-23.48-21.88-22.8-41.02,.68-19.14,24.85-16.39,25.53-35.52,.68-19.13-23.48-21.89-22.8-41.02,.68-19.13,24.85-16.38,25.53-35.52,.68-19.13-23.48-21.89-22.8-41.02,.68-19.14,24.85-16.39,25.53-35.52,.32-9.02-4.63-14.39-10-19.55,3.99,6.4,7.22,13.03,6.19,20.34-2.66,18.78-26.53,12.59-29.19,31.36-2.66,18.78,21.2,24.96,18.54,43.73-2.66,18.77-26.53,12.58-29.19,31.35-2.66,18.77,21.2,24.96,18.54,43.72-2.66,18.77-26.53,12.58-29.19,31.35-2.66,18.77,21.2,24.96,18.54,43.72-2.66,18.76-26.53,12.58-29.19,31.35-2.66,18.77,21.2,24.96,18.54,43.72-2.66,18.76-26.53,12.58-29.19,31.34-1.26,8.86,3.4,14.92,8.39,20.82h-24.03c-4.7-11.59-16.42-21.46-13.46-34.94,4.01-18.25,26.89-6.64,30.9-24.89,4.01-18.25-18.88-29.86-14.87-48.11,4.01-18.26,26.9-6.65,30.9-24.89,4.01-18.26-18.88-29.87-14.87-48.12,4.01-18.25,26.9-6.65,30.9-24.89,4.01-18.25-18.88-29.86-14.87-48.12,4.01-18.25,26.89-6.64,30.9-24.89,4.01-18.25-18.88-29.86-14.87-48.11,4.01-18.25,26.9-6.64,30.9-24.89,1.89-8.6-1.96-15.63-6.25-22.62,2.74,7.66,4.7,15.28,2.42,21.97-5.86,17.16-27.85,2.34-33.72,19.51-5.86,17.17,16.14,31.99,10.28,49.15-5.86,17.16-27.85,2.34-33.71,19.51-5.86,17.16,16.14,31.99,10.28,49.15-5.86,17.16-27.86,2.35-33.71,19.51-5.86,17.16,16.14,31.98,10.28,49.14-5.86,17.17-27.85,2.35-33.71,19.51-5.86,17.17,16.14,31.99,10.28,49.15-5.86,17.16-27.85,2.34-33.71,19.5-5.86,17.16,16.14,31.98,10.28,49.15-2.22,6.51-6.76,8.42-11.86,9.22h-52.08c-1.89-6.28-2.78-12.43-.29-18.14,7.07-16.16,27.17,3.54,34.24-12.63,7.07-16.16-13.03-35.87-5.97-52.03,7.07-16.17,27.17,3.53,34.24-12.63,7.07-16.17-13.03-35.87-5.96-52.03,7.07-16.17,27.17,3.53,34.24-12.63,7.07-16.17-13.03-35.87-5.96-52.04,7.07-16.17,27.17,3.53,34.24-12.63,7.07-16.16-13.03-35.87-5.96-52.03,7.07-16.16,27.17,3.54,34.24-12.63,7.07-16.16-13.03-35.87-5.97-52.03,7.07-16.17,27.17,3.53,34.24-12.63,3.33-7.62,.84-15.84-2.09-24.18,1.31,8.42,1.88,16.52-1.5,22.14-8.67,14.43-27.35-8.05-36.02,6.38-8.67,14.44,10.01,36.91,1.34,51.35-8.67,14.43-27.35-8.05-36.01,6.38-8.67,14.43,10.01,36.91,1.34,51.34-8.67,14.43-27.35-8.05-36.02,6.38-8.67,14.43,10.01,36.91,1.34,51.34-8.67,14.43-27.35-8.05-36.01,6.38-8.67,14.43,10.01,36.91,1.34,51.34-8.67,14.43-27.35-8.05-36.01,6.38-8.67,14.43,10.01,36.91,1.35,51.33-8.67,14.42-27.34-8.06-36.01,6.37-8.67,14.44,10.01,36.91,1.34,51.34-8.67,14.43-27.35-8.05-36.01,6.38-.66,1.1-1.16,2.26-1.53,3.45h-28.07c4.23-13.93-7.56-36.27,1.06-47.89,9.66-13.02,25.66,13.48,35.32,.47,9.67-13.02-6.33-39.51,3.34-52.53,9.66-13.02,25.66,13.48,35.32,.47,9.66-13.02-6.33-39.51,3.33-52.53,9.66-13.02,25.66,13.48,35.32,.47,9.66-13.02-6.33-39.52,3.34-52.53,9.66-13.02,25.66,13.48,35.32,.46,9.67-13.02-6.33-39.51,3.34-52.53,9.66-13.02,25.66,13.48,35.32,.47,9.66-13.01-6.33-39.51,3.33-52.53,9.66-13.01,25.66,13.49,35.32,.47,9.66-13.01-6.33-39.51,3.33-52.53,9.66-13.02,25.66,13.48,35.32,.47,4.55-6.14,3.58-15.01,2.21-24.16-.21,8.62-1.08,16.67-5.33,20.85-10.91,10.75-25.04-17.91-35.95-7.15-10.91,10.74,3.22,39.4-7.69,50.14-10.91,10.75-25.04-17.91-35.94-7.17-10.91,10.75,3.22,39.4-7.69,50.15-10.91,10.74-25.04-17.91-35.95-7.17-10.91,10.74,3.22,39.4-7.68,50.15-10.91,10.74-25.04-17.92-35.94-7.17-10.91,10.75,3.22,39.4-7.68,50.15-10.91,10.74-25.04-17.91-35.94-7.17-10.9,10.74,3.23,39.4-7.68,50.14-10.9,10.74-25.04-17.92-35.94-7.17-10.91,10.74,3.22,39.4-7.68,50.15-10.91,10.74-25.04-17.91-35.94-7.17-10.91,10.75,3.22,39.4-7.68,50.15-10.9,10.74-25.04-17.91-35.94-7.17-10.9,10.74,3.23,39.4-7.68,50.14-10.91,10.74-25.04-17.91-35.94-7.17-5.71,5.63-4.56,16.17-3.73,26.48H0v-90.65c6.84,6.27,13.61,15.77,20.67,10.29,11.63-9.01,.79-40.56,12.42-49.57,11.62-9.01,22.45,22.54,34.08,13.53,11.62-9.01,.79-40.56,12.42-49.57,11.62-9.01,22.45,22.54,34.08,13.53,11.62-9.01,.79-40.57,12.42-49.57,11.62-9.01,22.45,22.54,34.08,13.53,11.62-9.01,.79-40.55,12.41-49.56,11.62-9.01,22.45,22.54,34.07,13.53,11.62-9.01,.79-40.55,12.42-49.57,11.62-9.01,22.45,22.54,34.08,13.53,11.62-9.01,.79-40.56,12.42-49.57,11.62-9.01,22.45,22.54,34.08,13.53,11.62-9.01,.79-40.55,12.41-49.56,11.62-9.01,22.45,22.54,34.08,13.54,11.62-9.01,.79-40.56,12.41-49.57,11.62-9.01,22.45,22.54,34.08,13.53,5.48-4.24,6.09-13.18,6.37-22.55-1.71,8.27-3.96,15.72-8.8,18.19-12.43,6.35-21.08-26.59-33.51-20.24-12.43,6.35-3.78,39.3-16.21,45.65-12.42,6.35-21.08-26.59-33.5-20.24-12.43,6.35-3.78,39.3-16.2,45.65-12.43,6.36-21.08-26.6-33.51-20.24-12.43,6.35-3.77,39.3-16.2,45.64-12.43,6.35-21.08-26.59-33.5-20.24-12.43,6.35-3.78,39.3-16.2,45.64-12.43,6.35-21.08-26.59-33.5-20.24-12.43,6.35-3.77,39.3-16.2,45.64-12.42,6.35-21.08-26.59-33.5-20.25-12.43,6.35-3.77,39.3-16.2,45.65-12.43,6.35-21.08-26.59-33.51-20.24-12.43,6.35-3.77,39.3-16.2,45.65-12.43,6.35-21.08-26.6-33.51-20.25-7.46,3.81-7.33,17.2-8.72,28.67v-95.93c10.93,.72,16.05,30.17,27.95,26.08,12.82-4.41,7.86-38.93,20.68-43.34,12.82-4.41,17.77,30.12,30.59,25.71,12.82-4.41,7.86-38.93,20.68-43.34,12.82-4.41,17.77,30.11,30.59,25.71,12.81-4.41,7.86-38.93,20.67-43.33,12.81-4.41,17.77,30.11,30.58,25.71,12.82-4.41,7.86-38.93,20.68-43.34,12.82-4.41,17.77,30.11,30.59,25.71,12.82-4.41,7.86-38.93,20.68-43.34,12.82-4.41,17.77,30.11,30.59,25.71,12.82-4.41,7.86-38.93,20.68-43.34,12.82-4.41,17.77,30.12,30.59,25.71,12.82-4.41,7.86-38.93,20.68-43.34,12.82-4.4,17.77,30.12,30.59,25.71,6.04-2.07,8.2-10.49,10.1-19.45-3.1,7.36-6.58,13.74-11.69,14.34-13.13,1.54-15.74-33.53-28.87-31.99-13.13,1.54-10.53,36.61-23.66,38.15-13.13,1.54-15.73-33.53-28.86-31.99-13.13,1.54-10.53,36.61-23.66,38.14-13.13,1.54-15.73-33.52-28.86-31.98-13.13,1.54-10.53,36.61-23.65,38.14-13.13,1.54-15.73-33.52-28.86-31.99-13.13,1.54-10.53,36.61-23.65,38.14-13.13,1.54-15.73-33.53-28.86-31.98-13.13,1.54-10.52,36.6-23.65,38.14-13.13,1.54-15.73-33.53-28.86-31.98-13.13,1.54-10.53,36.6-23.65,38.14-13.13,1.54-15.73-33.53-28.86-31.99-13.13,1.54-10.52,36.61-23.65,38.14-8.29,.97-12.39-12.65-17.6-22.44v-66.1c3.84,10.37,6.52,23.55,14.54,23.85,13.16,.48,14.41-34.73,27.58-34.25,13.16,.49,11.92,35.7,25.08,36.19,13.17,.48,14.42-34.73,27.58-34.25,13.16,.48,11.92,35.7,25.08,36.19,13.16,.48,14.41-34.73,27.57-34.25,13.16,.48,11.91,35.7,25.08,36.19,13.17,.48,14.41-34.73,27.58-34.25,13.17,.48,11.92,35.7,25.08,36.19,13.17,.48,14.41-34.73,27.58-34.25,13.17,.48,11.92,35.7,25.08,36.19,13.17,.48,14.41-34.73,27.58-34.25,13.16,.49,11.92,35.7,25.08,36.19,13.17,.48,14.41-34.74,27.58-34.25,13.16,.48,11.92,35.7,25.08,36.19,6.2,.22,9.77-7.12,13.17-15.07-4.29,5.97-8.77,10.85-13.82,9.53-12.97-3.37-9.35-38.24-22.32-41.62-12.97-3.37-16.58,31.5-29.55,28.13-12.96-3.38-9.35-38.25-22.31-41.62-12.97-3.37-16.58,31.49-29.55,28.13-12.97-3.38-9.35-38.25-22.32-41.62-12.97-3.37-16.58,31.5-29.55,28.12-12.96-3.36-9.35-38.24-22.31-41.62-12.97-3.37-16.58,31.5-29.55,28.13-12.96-3.37-9.35-38.24-22.31-41.62-12.96-3.37-16.58,31.5-29.54,28.13-12.96-3.37-9.35-38.25-22.31-41.62-12.97-3.38-16.58,31.5-29.55,28.13-12.96-3.37-9.35-38.25-22.31-41.62-12.97-3.38-16.58,31.5-29.55,28.13-11.91-3.1-9.84-32.76-19.47-40.19v-64.54c3.03-3.08,6.25-4.8,9.9-3.25,12.65,5.35,5.28,38.94,17.93,44.29,12.65,5.34,20.01-28.25,32.66-22.91,12.65,5.35,5.28,38.94,17.92,44.29,12.65,5.35,20.02-28.25,32.67-22.91,12.65,5.34,5.28,38.94,17.92,44.28,12.65,5.34,20.01-28.25,32.66-22.91,12.64,5.34,5.28,38.94,17.92,44.28,12.65,5.35,20.01-28.25,32.66-22.91,12.65,5.35,5.28,38.94,17.92,44.28,12.65,5.35,20.02-28.25,32.66-22.91,12.65,5.34,5.28,38.94,17.93,44.29,12.65,5.34,20.01-28.26,32.66-22.91,12.65,5.34,5.28,38.94,17.92,44.28,12.65,5.35,20.01-28.25,32.66-22.91,12.65,5.34,5.28,38.94,17.92,44.29,5.96,2.51,10.69-3.27,15.37-9.69-5.19,4.18-10.37,7.25-15.03,4.1-11.95-8.06-2.35-40.45-14.3-48.52-11.95-8.07-21.55,24.32-33.5,16.26-11.95-8.07-2.35-40.46-14.3-48.52-11.95-8.07-21.55,24.32-33.5,16.26-11.95-8.07-2.35-40.45-14.3-48.52-11.95-8.07-21.55,24.32-33.49,16.26-11.95-8.06-2.35-40.45-14.3-48.51-11.95-8.07-21.55,24.32-33.5,16.26-11.95-8.07-2.35-40.45-14.3-48.52-11.95-8.06-21.54,24.33-33.49,16.26-11.95-8.06-2.35-40.45-14.3-48.51-11.95-8.06-21.55,24.32-33.49,16.26-11.95-8.06-2.35-40.45-14.3-48.51-11.95-8.07-21.55,24.32-33.5,16.26-11.95-8.06-2.35-40.45-14.3-48.51-11.92-8.05-21.51,24.19-33.42,16.3V65.17c4.17-2.78,8.27-4.1,12.17-.7,11.3,9.85-1.71,39.61,9.59,49.46,11.3,9.86,24.3-19.91,35.6-10.06,11.29,9.85-1.71,39.61,9.59,49.47,11.3,9.85,24.3-19.91,35.6-10.06,11.3,9.86-1.71,39.61,9.59,49.47,11.3,9.85,24.3-19.91,35.6-10.06,11.3,9.85-1.71,39.61,9.59,49.47,11.29,9.85,24.3-19.91,35.59-10.06,11.29,9.85-1.71,39.61,9.58,49.46,11.3,9.85,24.3-19.91,35.6-10.06,11.3,9.85-1.71,39.61,9.59,49.47,11.3,9.85,24.3-19.91,35.6-10.06,11.3,9.86-1.71,39.62,9.59,49.47,11.3,9.85,24.3-19.91,35.59-10.06,11.3,9.85-1.71,39.61,9.59,49.46,11.3,9.85,24.3-19.91,35.59-10.06,11.3,9.85-1.71,39.61,9.59,49.47,5.32,4.64,10.91,.8,16.56-3.68-5.75,2.13-11.3,3.17-15.25-1.59-10.15-12.23,4.8-39.99-5.35-52.22-10.15-12.23-25.09,15.54-35.24,3.32-10.14-12.23,4.8-39.99-5.34-52.21-10.15-12.22-25.09,15.54-35.24,3.32-10.15-12.22,4.8-39.99-5.34-52.21-10.15-12.22-25.09,15.54-35.24,3.32-10.14-12.23,4.8-39.99-5.34-52.21-10.15-12.23-25.09,15.54-35.24,3.31-10.14-12.22,4.8-39.99-5.34-52.21-10.14-12.22-25.09,15.55-35.23,3.32-10.14-12.22,4.81-39.99-5.34-52.21-10.15-12.22-25.09,15.54-35.24,3.32-10.14-12.23,4.8-39.99-5.34-52.21-10.15-12.22-25.09,15.54-35.24,3.32-10.14-12.22,4.8-39.99-5.34-52.21-10.14-12.22-25.09,15.54-35.24,3.32-6.21-7.48-3.03-20.77-1.95-32.76h72.43c-2.19,11.43-6.75,23.76-1.08,32.2,9.2,13.71,26.98-10.25,36.18,3.46,9.2,13.71-8.58,37.68,.62,51.39,9.2,13.71,26.98-10.25,36.18,3.46,9.2,13.71-8.58,37.67,.62,51.39,9.2,13.7,26.98-10.26,36.18,3.45,9.2,13.71-8.58,37.67,.62,51.38,9.2,13.71,26.98-10.26,36.18,3.46,9.2,13.71-8.58,37.68,.62,51.39,9.2,13.71,26.98-10.25,36.18,3.46,9.2,13.71-8.58,37.68,.62,51.39,9.2,13.71,26.98-10.26,36.18,3.45,9.2,13.71-8.58,37.67,.62,51.39,9.2,13.71,26.98-10.26,36.18,3.45,9.2,13.71-8.58,37.68,.62,51.39,4.34,6.46,10.41,4.81,16.66,2.57-5.93-.07-11.48-1.13-14.47-7.19-7.67-15.58,11.64-36.9,3.96-52.48-7.67-15.58-26.99,5.73-34.66-9.85-7.67-15.57,11.64-36.89,3.97-52.46-7.67-15.58-26.99,5.73-34.66-9.84-7.67-15.58,11.64-36.89,3.97-52.47-7.67-15.58-26.98,5.73-34.66-9.84-7.67-15.58,11.64-36.89,3.97-52.47-7.67-15.57-26.98,5.74-34.66-9.84-7.67-15.57,11.64-36.89,3.97-52.47-7.67-15.57-26.98,5.74-34.65-9.83-7.67-15.57,11.64-36.89,3.97-52.46-7.67-15.58-26.98,5.74-34.66-9.84-5.43-11.02,2.64-24.9,5.11-37.6h25.59c.15,1.6,.51,3.21,1.14,4.81,6.5,16.67,27.89,.07,34.39,16.74,6.5,16.66-14.89,33.26-8.39,49.92,6.5,16.66,27.89,.07,34.38,16.74,6.5,16.66-14.89,33.25-8.39,49.92,6.5,16.66,27.89,.07,34.39,16.74,6.5,16.66-14.89,33.26-8.39,49.92,6.5,16.67,27.89,.07,34.39,16.74,6.5,16.66-14.89,33.26-8.39,49.92,6.5,16.66,27.89,.07,34.39,16.74,6.5,16.66-14.89,33.25-8.39,49.92,6.5,16.66,27.89,.07,34.39,16.74,6.5,16.66-14.89,33.26-8.39,49.92,3.06,7.85,9.23,8.51,15.66,8.65-5.73-2.27-10.91-5.34-12.74-12.31-4.7-17.91,17.71-31.37,13.01-49.28-4.69-17.91-27.1-4.45-31.8-22.36-4.69-17.91,17.71-31.37,13.02-49.27-4.7-17.91-27.1-4.44-31.8-22.35-4.69-17.91,17.71-31.37,13.02-49.27-4.69-17.91-27.1-4.44-31.79-22.35-4.69-17.9,17.71-31.36,13.02-49.27-4.69-17.91-27.1-4.45-31.79-22.36-4.69-17.9,17.71-31.36,13.02-49.27-4.69-17.9-27.1-4.44-31.79-22.34-4.13-15.75,12.7-28.07,13.61-43h28.26c-5.63,7.72-12.58,14.93-10.64,25.56,3.37,18.52,26.96,10.4,30.32,28.92,3.37,18.52-20.22,26.65-16.85,45.17,3.37,18.52,26.96,10.4,30.33,28.92,3.37,18.52-20.22,26.65-16.85,45.17,3.37,18.53,26.95,10.4,30.32,28.93,3.37,18.52-20.22,26.65-16.85,45.17,3.37,18.53,26.96,10.4,30.32,28.92,3.37,18.52-20.22,26.65-16.85,45.17,3.37,18.52,26.96,10.4,30.32,28.92,3.37,18.52-20.22,26.65-16.85,45.17,1.59,8.73,7.43,11.64,13.63,14.18-5.14-4.31-9.62-9.21-10.16-16.62-1.41-19.06,22.61-23.78,21.21-42.84-1.41-19.06-25.43-14.34-26.84-33.4-1.41-19.05,22.62-23.77,21.21-42.82-1.41-19.06-25.43-14.34-26.84-33.4-1.41-19.06,22.62-23.77,21.21-42.83-1.41-19.05-25.43-14.33-26.84-33.38-1.41-19.06,22.62-23.77,21.21-42.83-1.41-19.06-25.43-14.33-26.84-33.39-1.41-19.05,22.62-23.77,21.21-42.83-1.41-19.05-25.43-14.33-26.84-33.38-.37-4.96,1-8.95,3.18-12.47h31.46c-.87,2.05-1.39,4.39-1.39,7.17,.02,19.16,24.25,20.03,24.27,39.2,.02,19.16-24.21,18.28-24.2,37.44,.02,19.16,24.25,20.04,24.26,39.2,.02,19.16-24.21,18.28-24.2,37.44,.02,19.16,24.25,20.04,24.26,39.2,.02,19.16-24.21,18.28-24.2,37.45,.02,19.16,24.25,20.04,24.27,39.2,.02,19.16-24.21,18.28-24.2,37.44,.02,19.16,24.25,20.04,24.27,39.2,.02,19.16-24.21,18.28-24.2,37.44,0,9.03,5.15,14.01,10.7,18.75-4.22-6.08-7.69-12.46-6.92-19.84,1.97-18.95,26.03-14.62,28.01-33.58,1.97-18.95-22.08-23.28-20.11-42.23,1.97-18.95,26.03-14.62,28-33.56,1.97-18.95-22.08-23.28-20.11-42.24,1.97-18.95,26.03-14.61,28-33.56,1.97-18.95-22.08-23.28-20.11-42.23,1.97-18.95,26.03-14.62,28-33.56,1.97-18.95-22.08-23.28-20.11-42.23,1.97-18.95,26.03-14.62,28-33.56,1.97-18.95-22.08-23.27-20.11-42.22,.48-4.59,2.26-7.81,4.7-10.33h52.29c-8.15,5.58-21.45,3.84-23.91,17.51-3.33,18.53,19.95,28.36,16.61,46.89-3.34,18.54-26.61,8.71-29.95,27.25-3.34,18.54,19.94,28.36,16.61,46.9-3.33,18.54-26.62,8.72-29.95,27.25-3.33,18.54,19.94,28.36,16.61,46.9-3.34,18.54-26.62,8.72-29.95,27.25-3.33,18.54,19.95,28.36,16.61,46.9-3.34,18.53-26.62,8.71-29.95,27.25-3.33,18.53,19.95,28.36,16.61,46.9-3.33,18.53-26.61,8.71-29.95,27.25-1.57,8.73,2.53,15.46,7.07,22.1-3.02-7.44-5.26-14.9-3.22-21.75,5.23-17.6,27.73-4.5,32.96-22.1,5.22-17.59-17.28-30.69-12.06-48.29,5.22-17.59,27.73-4.49,32.95-22.08,5.22-17.6-17.29-30.7-12.06-48.29,5.22-17.59,27.73-4.49,32.95-22.09,5.22-17.59-17.29-30.69-12.06-48.28,5.22-17.59,27.73-4.49,32.95-22.09,5.22-17.59-17.28-30.69-12.06-48.28,5.22-17.59,27.73-4.49,32.95-22.09,5.22-17.59-17.28-30.69-12.06-48.28,5.22-17.59,27.73-4.49,32.95-22.08,1.54-5.19,.66-9.99-1.2-14.63h23.93c2.11,13.51,13.88,27.52,8.79,40.65-6.47,16.69-27.26-1.43-33.73,15.26-6.47,16.69,14.33,34.81,7.86,51.5-6.47,16.69-27.26-1.44-33.73,15.25-6.47,16.69,14.32,34.81,7.86,51.51-6.47,16.69-27.26-1.43-33.73,15.26-6.47,16.69,14.32,34.82,7.86,51.51-6.47,16.69-27.26-1.43-33.73,15.26-6.47,16.69,14.33,34.81,7.86,51.5-6.47,16.69-27.26-1.43-33.73,15.26-6.47,16.69,14.33,34.81,7.86,51.5-6.47,16.69-27.26-1.43-33.73,15.26-3.05,7.87-.26,15.89,2.97,23.99-1.61-8.31-2.48-16.35,.69-22.23,8.13-15.08,27.6,5.92,35.74-9.16,8.13-15.08-11.34-36.09-3.21-51.17,8.13-15.08,27.6,5.92,35.73-9.15,8.13-15.09-11.35-36.09-3.22-51.17,8.13-15.08,27.6,5.92,35.73-9.16,8.13-15.08-11.34-36.08-3.22-51.16,8.13-15.08,27.6,5.92,35.73-9.16,8.13-15.08-11.35-36.08-3.22-51.16,8.13-15.08,27.6,5.92,35.73-9.16,8.13-15.08-11.35-36.08-3.22-51.15,8.13-15.08,27.6,5.92,35.73-9.16,8.13-15.08-11.34-36.08-3.22-51.16,8.13-15.08,27.6,5.92,35.73-9.16,3.29-6.09,2.06-13.16-.03-20.41h69.48c-.33,2.77-1.13,5.34-2.63,7.6-9.18,13.74-26.12-11.48-35.29,2.27-9.18,13.75,7.76,38.97-1.41,52.72-9.17,13.74-26.11-11.48-35.29,2.26-9.18,13.75,7.76,38.97-1.41,52.72-9.17,13.75-26.11-11.48-35.29,2.27-9.18,13.74,7.76,38.97-1.41,52.71-9.17,13.74-26.11-11.48-35.28,2.26-9.18,13.75,7.76,38.97-1.41,52.72-9.18,13.74-26.12-11.48-35.29,2.26-9.18,13.75,7.76,38.97-1.41,52.72-9.18,13.75-26.11-11.48-35.29,2.27-9.18,13.74,7.76,38.97-1.41,52.71-9.17,13.74-26.11-11.48-35.29,2.26-9.17,13.75,7.76,38.97-1.41,52.71-9.17,13.75-26.11-11.48-35.29,2.27-4.32,6.48-3.03,15.27-1.32,24.3-.11-8.64,.47-16.73,4.55-21.24,10.5-11.58,25.66,15.94,36.16,4.37,10.5-11.58-4.66-39.1,5.84-50.67,10.5-11.57,25.65,15.95,36.15,4.38,10.5-11.57-4.66-39.09,5.84-50.67,10.5-11.57,25.66,15.95,36.16,4.38,10.5-11.57-4.66-39.09,5.84-50.67s25.66,15.95,36.16,4.38c10.5-11.58-4.66-39.09,5.84-50.67,10.5-11.57,25.66,15.95,36.15,4.38,10.5-11.57-4.66-39.09,5.84-50.66,10.5-11.57,25.66,15.95,36.15,4.38,10.5-11.57-4.66-39.09,5.84-50.67,10.5-11.57,25.66,15.95,36.16,4.38,10.5-11.57-4.66-39.09,5.84-50.67,10.5-11.58,25.66,15.95,36.16,4.38,10.5-11.57-4.66-39.09,5.84-50.67,10.5-11.57,25.66,15.95,36.16,4.38,6.42-7.08,3.25-20.14,2.22-31.86h35.09V48.08c-9.05,11.07,1.49,39.63-9.33,49.12-11.28,9.89-23.25-20.77-34.52-10.88-11.28,9.9,.69,40.56-10.59,50.46-11.28,9.89-23.25-20.77-34.53-10.88-11.28,9.9,.69,40.57-10.59,50.46-11.28,9.89-23.24-20.77-34.52-10.88-11.28,9.9,.69,40.57-10.59,50.46-11.28,9.89-23.25-20.77-34.52-10.88-11.28,9.89,.69,40.56-10.58,50.45-11.28,9.89-23.24-20.77-34.52-10.88-11.28,9.9,.69,40.57-10.59,50.46-11.28,9.89-23.24-20.77-34.52-10.88-11.28,9.9,.69,40.56-10.59,50.46-11.28,9.89-23.25-20.77-34.52-10.88-11.28,9.89,.69,40.56-10.58,50.45-11.28,9.9-23.25-20.77-34.52-10.88-11.28,9.89,.69,40.56-10.59,50.46-11.28,9.89-23.24-20.78-34.52-10.88-5.31,4.67-5.6,13.64-5.53,23.02,1.4-8.39,3.38-16.01,8.12-18.85,12.18-7.3,22.02,24.93,34.21,17.62,12.18-7.31,2.33-39.54,14.52-46.84,12.18-7.3,22.02,24.93,34.2,17.62,12.18-7.3,2.34-39.53,14.52-46.84,12.18-7.3,22.02,24.93,34.2,17.63,12.18-7.3,2.33-39.53,14.51-46.84,12.18-7.3,22.02,24.93,34.2,17.63,12.18-7.3,2.33-39.53,14.51-46.83,12.18-7.3,22.02,24.93,34.2,17.63,12.17-7.3,2.33-39.53,14.51-46.84,12.17-7.3,22.02,24.93,34.19,17.63,12.18-7.3,2.33-39.53,14.51-46.84,12.18-7.3,22.02,24.93,34.2,17.63,12.18-7.3,2.33-39.53,14.51-46.84,12.18-7.3,22.02,24.93,34.2,17.63,12.18-7.3,2.33-39.53,14.51-46.83,4.39-2.63,8.47-.13,12.47,3.8v70.91c-4.96,11.82-3.25,33.81-13.19,38.05-12.64,5.39-18.85-28.7-31.49-23.31-12.64,5.39-6.43,39.48-19.07,44.87-12.64,5.4-18.84-28.69-31.48-23.3-12.64,5.39-6.43,39.48-19.07,44.88-12.64,5.39-18.84-28.7-31.48-23.31-12.64,5.39-6.43,39.48-19.06,44.88-12.64,5.39-18.84-28.7-31.48-23.31-12.64,5.39-6.43,39.48-19.07,44.87-12.64,5.39-18.85-28.7-31.48-23.31-12.64,5.4-6.43,39.48-19.07,44.88-12.64,5.4-18.84-28.7-31.48-23.31-12.64,5.39-6.43,39.48-19.06,44.87-12.64,5.4-18.85-28.69-31.48-23.3-12.64,5.39-6.43,39.48-19.07,44.87-12.64,5.39-18.84-28.7-31.48-23.31-5.95,2.54-7.8,11.12-9.38,20.2,2.83-7.59,6.07-14.23,11.15-15.22,13.06-2.56,16.94,32.26,30,29.7,13.06-2.55,9.18-37.36,22.23-39.91,13.05-2.55,16.94,32.26,29.99,29.71,13.06-2.56,9.17-37.37,22.23-39.92,13.06-2.56,16.94,32.26,29.99,29.7,13.05-2.55,9.17-37.36,22.23-39.91,13.05-2.56,16.93,32.26,29.99,29.71,13.05-2.56,9.17-37.37,22.23-39.92,13.05-2.55,16.93,32.26,29.99,29.71,13.05-2.55,9.17-37.36,22.22-39.91,13.05-2.55,16.93,32.26,29.99,29.71,13.05-2.55,9.17-37.36,22.23-39.92,13.05-2.55,16.94,32.26,29.99,29.71,13.05-2.56,9.17-37.37,22.23-39.92,13.05-2.55,16.93,32.26,29.99,29.71,.43-.08,.84-.21,1.23-.36v69.19c-12.59-.51-12.83-34.7-25.8-34.17-13.17,.54-13.12,35.8-26.29,36.34-13.16,.53-13.2-34.73-26.37-34.2-13.17,.53-13.13,35.8-26.29,36.33-13.16,.53-13.2-34.73-26.37-34.2-13.16,.53-13.12,35.8-26.28,36.33-13.16,.53-13.2-34.73-26.37-34.2-13.17,.54-13.12,35.8-26.29,36.34-13.16,.53-13.2-34.73-26.37-34.2-13.17,.53-13.12,35.8-26.29,36.33-13.16,.54-13.21-34.73-26.37-34.19-13.16,.53-13.12,35.8-26.29,36.33-13.16,.54-13.2-34.73-26.37-34.19-13.16,.53-13.12,35.8-26.28,36.33-13.16,.54-13.21-34.73-26.37-34.19-6.2,.25-9.49,7.86-12.6,16.06,4.06-6.29,8.36-11.51,13.45-10.59,13.08,2.37,10.74,37.47,23.81,39.84,13.07,2.36,15.41-32.74,28.48-30.37,13.07,2.37,10.73,37.47,23.8,39.83,13.07,2.37,15.41-32.74,28.48-30.37,13.07,2.37,10.73,37.47,23.8,39.83,13.07,2.37,15.41-32.73,28.48-30.37,13.07,2.37,10.73,37.46,23.8,39.83,13.07,2.37,15.41-32.74,28.48-30.37,13.07,2.37,10.73,37.47,23.8,39.84,13.07,2.37,15.4-32.75,28.47-30.38,13.07,2.37,10.73,37.47,23.8,39.84,13.07,2.37,15.41-32.74,28.48-30.37,13.07,2.37,10.73,37.47,23.8,39.84,13.07,2.36,15.41-32.74,28.48-30.37,13.07,2.36,10.73,37.46,23.8,39.83,1.37,.25,2.61,.07,3.77-.41v57.79c-4.16,6.35-8.48,11.77-14.07,9.87-12.82-4.36-6.7-38.48-19.52-42.84-12.82-4.36-18.95,29.76-31.78,25.41-12.82-4.36-6.69-38.48-19.52-42.84-12.82-4.36-18.95,29.76-31.78,25.4-12.82-4.36-6.69-38.48-19.52-42.84-12.82-4.36-18.95,29.76-31.78,25.41-12.82-4.36-6.69-38.48-19.51-42.84-12.83-4.36-18.96,29.76-31.78,25.4-12.82-4.36-6.69-38.48-19.52-42.84-12.83-4.36-18.96,29.76-31.78,25.41-12.82-4.36-6.69-38.48-19.52-42.84-12.83-4.36-18.95,29.76-31.78,25.4-12.82-4.36-6.69-38.48-19.52-42.83-12.82-4.36-18.95,29.76-31.78,25.4-12.82-4.36-6.69-38.48-19.52-42.84-6.04-2.05-10.55,4.09-15,10.87Z"/></svg>