<?xml version="1.0" encoding="UTF-8"?><svg id="a" xmlns="http://www.w3.org/2000/svg" viewBox="0 0 850.39 850.39"><defs><style>.b{fill:none;}.c{fill:#231f20;fill-rule:evenodd;}</style></defs><g><path class="c" d="M777.76,571.67l-122.77-51.04,3.05-7.73c.8-1.92,1.44-3.9,1.94-5.37,.5-1.48,.83-2.46,.83-2.46l125.92,42.67s1-2.98,2.49-7.44c1.44-4.48,3.1-10.54,4.81-16.58,.88-3.01,1.57-6.08,2.24-8.94,.66-2.87,1.28-5.54,1.81-7.83,.51-2.3,.97-4.21,1.22-5.55,.25-1.35,.39-2.12,.39-2.12l-130.44-25.7,1.41-7.88c.17-.99,.37-1.97,.5-2.9,.12-.93,.23-1.8,.32-2.54,.19-1.49,.32-2.48,.32-2.48l131.83,17.24s.39-3.11,.97-7.77c.32-2.33,.55-5.05,.78-7.97,.22-2.92,.46-6.03,.7-9.15,.11-1.56,.22-3.12,.33-4.65,.1-1.53,.12-3.04,.17-4.5,.08-2.92,.15-5.64,.22-7.98,.09-4.67,.16-7.78,.16-7.78h-166.2s-.05,1.77-.13,4.87c-.04,1.55-.08,3.43-.13,5.59-.1,2.16-.34,4.58-.52,7.22-.82,10.58-2.87,24.61-6.58,38.25-3.63,13.65-8.77,26.86-13.38,36.4-1.1,2.41-2.3,4.53-3.25,6.46-1.01,1.9-1.77,3.62-2.59,4.94-1.54,2.68-2.43,4.21-2.43,4.21l28.76,16.69-114.47-66.41-1.16,2.09c-.81,1.19-1.85,2.79-2.85,4.42-1.1,1.57-2.25,3.1-3.05,4.3-.38,.61-.79,1.05-1.05,1.38l-.41,.51,104.82,80.79-4.95,6.3c-2.62,3.03-5.24,6.07-5.24,6.07l-99.42-87.34-.43,.5c-.28,.31-.62,.81-1.14,1.31-1.02,1.02-2.35,2.41-3.65,3.83-1.43,1.29-2.81,2.62-3.83,3.65-.52,.5-1.01,.85-1.32,1.13l-.5,.43,87.22,99.53-1.96,1.7c-1.19,1.01-2.72,2.42-4.35,3.71-3.27,2.57-6.54,5.14-6.54,5.14l-80.41-105.11s-.18,.15-.5,.41c-.31,.28-.79,.62-1.38,1.01-1.18,.77-2.66,1.94-4.22,2.98-1.61,.97-3.16,2.02-4.34,2.79-1.23,.68-2.04,1.14-2.04,1.14l66.27,114.55,16.64,28.76,5.48-3.18c1.7-1.09,3.76-2.4,6.12-3.91,2.35-1.53,5.06-3.18,7.84-5.22,2.81-2.01,5.89-4.13,9.05-6.5,3.11-2.44,6.39-5.02,9.78-7.69,3.26-2.82,6.63-5.74,10.06-8.7,3.31-3.09,6.62-6.28,9.95-9.46,3.18-3.33,6.35-6.66,9.48-9.93,2.97-3.42,5.88-6.79,8.71-10.05,2.67-3.39,5.25-6.67,7.7-9.77,2.39-3.15,4.5-6.24,6.51-9.05,2.04-2.78,3.72-5.47,5.23-7.83,1.51-2.36,2.83-4.42,3.91-6.12,1.05-1.72,1.81-3.11,2.36-4.04l.83-1.43-28.74-16.67,115,66.71s1.55-2.72,3.89-6.79c1.19-2.02,2.44-4.46,3.79-7.07,1.34-2.61,2.76-5.4,4.19-8.19,.7-1.4,1.43-2.79,2.09-4.18,.64-1.4,1.28-2.78,1.89-4.12,1.21-2.68,2.34-5.18,3.31-7.32,.95-2.15,1.75-3.94,2.3-5.19,.51-1.27,.81-2,.81-2Zm-203.06,112.39s2.11-1.23,5.81-3.37c1.8-1.15,3.98-2.54,6.49-4.15,2.49-1.62,5.36-3.37,8.31-5.54,2.98-2.13,6.24-4.38,9.6-6.89,3.3-2.59,6.77-5.32,10.36-8.15,3.46-2.99,7.03-6.08,10.66-9.22,3.51-3.27,7.02-6.66,10.54-10.03,3.37-3.53,6.73-7.06,10.05-10.53,3.14-3.63,6.24-7.2,9.23-10.65,2.83-3.59,5.56-7.06,8.16-10.36,2.53-3.34,4.77-6.61,6.9-9.59,2.16-2.95,3.94-5.8,5.55-8.3,1.6-2.51,3-4.69,4.15-6.49,1.12-1.82,1.92-3.29,2.51-4.28l.88-1.52,28.75,16.68s-.34,.59-.97,1.69c-.65,1.09-1.55,2.73-2.79,4.75-1.28,2-2.83,4.43-4.6,7.21-1.79,2.78-3.77,5.94-6.17,9.22-2.37,3.3-4.86,6.94-7.67,10.65-2.86,3.67-5.89,7.54-9.06,11.5-3.3,3.86-6.74,7.82-10.25,11.83-3.65,3.88-7.39,7.81-11.16,11.69-3.9,3.75-7.81,7.51-11.71,11.14-4.01,3.51-7.97,6.95-11.84,10.24-3.99,3.14-7.85,6.17-11.51,9.05-3.73,2.79-7.35,5.3-10.66,7.66-3.29,2.4-6.46,4.35-9.23,6.15-2.79,1.78-5.22,3.32-7.22,4.6-4.1,2.39-6.45,3.75-6.45,3.75l-16.65-28.77Zm24.81,42.89s2.46-1.43,6.76-3.94c2.1-1.34,4.65-2.96,7.57-4.82,2.91-1.89,6.24-3.95,9.68-6.45,3.47-2.47,7.27-5.11,11.18-8.04,3.86-2.99,7.91-6.18,12.07-9.5,4.06-3.45,8.21-7.06,12.42-10.74,4.09-3.81,8.19-7.74,12.28-11.68,3.96-4.07,7.87-8.19,11.7-12.26,3.69-4.2,7.29-8.36,10.75-12.41,3.33-4.16,6.51-8.21,9.51-12.07,2.95-3.89,5.57-7.7,8.05-11.17,2.51-3.45,4.59-6.76,6.47-9.67,1.86-2.92,3.49-5.47,4.83-7.57,1.3-2.12,2.25-3.83,2.93-4.98l1.02-1.77,28.75,16.68s-.39,.67-1.12,1.94c-.74,1.26-1.79,3.13-3.21,5.46-1.46,2.3-3.24,5.09-5.28,8.29-2.06,3.19-4.35,6.81-7.09,10.6-2.71,3.8-5.59,7.97-8.82,12.23-3.28,4.22-6.76,8.67-10.41,13.21-3.78,4.44-7.73,9-11.77,13.59-4.19,4.47-8.47,8.97-12.81,13.43-4.47,4.32-8.96,8.63-13.45,12.79-4.6,4.04-9.15,7.99-13.6,11.76-4.56,3.64-8.99,7.13-13.22,10.4-4.28,3.21-8.43,6.1-12.24,8.8-3.78,2.74-7.42,5.01-10.61,7.07-3.2,2.04-6,3.81-8.3,5.28-4.71,2.75-7.41,4.32-7.41,4.32l-16.65-28.77Zm24.93-301.74s-.05,1.64-.13,4.51c-.03,1.43-.07,3.18-.12,5.18-.09,1.99-.32,4.23-.49,6.68-.76,9.78-2.65,22.75-6.08,35.35-3.36,12.61-8.09,24.81-12.36,33.63-1.01,2.23-2.13,4.18-3,5.97-.93,1.76-1.63,3.35-2.39,4.56-1.43,2.48-2.25,3.89-2.25,3.89l-28.74-16.67s.68-1.18,1.88-3.24c.64-1.01,1.2-2.34,1.98-3.8,.72-1.49,1.67-3.11,2.51-4.96,3.55-7.33,7.48-17.49,10.27-27.97,2.85-10.47,4.42-21.27,5.05-29.43,.13-2.05,.34-3.91,.42-5.58,.03-1.67,.06-3.13,.09-4.33,.08-2.4,.12-3.77,.12-3.77h33.23Zm-50.18,0s-.04,1.23-.12,3.4c-.02,1.08-.05,2.39-.07,3.9-.07,1.5-.27,3.18-.38,5.02-.57,7.34-1.98,17.03-4.53,26.42-2.51,9.4-6.02,18.5-9.21,25.08-.74,1.67-1.61,3.11-2.25,4.45-.7,1.31-1.19,2.52-1.77,3.42-1.07,1.85-1.69,2.9-1.69,2.9l-28.21-16.36s.48-.82,1.33-2.26c.47-.69,.83-1.65,1.38-2.67,.5-1.05,1.19-2.16,1.77-3.47,2.49-5.13,5.21-12.22,7.17-19.53,1.99-7.31,3.08-14.86,3.53-20.62,.08-1.44,.26-2.75,.31-3.93,0-1.19,.02-2.22,.04-3.07,.07-1.7,.11-2.67,.11-2.67h32.61Z"/><path class="c" d="M474.51,803.69l-17.07-131.85s1.03-.13,2.58-.33c.77-.1,1.68-.21,2.64-.34,.97-.13,1.98-.34,3.01-.52,4.09-.73,8.18-1.46,8.18-1.46l25.86,130.41,2.12-.39c1.34-.3,3.25-.73,5.55-1.24,2.29-.53,4.97-1.15,7.83-1.81,2.87-.66,5.92-1.38,8.93-2.26,6.04-1.71,12.1-3.36,16.57-4.83,4.46-1.5,7.44-2.49,7.44-2.49l-42.82-125.87s.95-.32,2.37-.8c1.42-.48,3.33-1.1,5.18-1.87,3.72-1.47,7.45-2.94,7.45-2.94l50.89,122.83s.73-.29,2-.81c1.27-.52,3.05-1.34,5.2-2.29,2.14-.97,4.65-2.1,7.33-3.31,2.68-1.22,5.53-2.51,8.31-3.96,2.79-1.43,5.58-2.85,8.2-4.19,2.61-1.36,5.06-2.59,7.09-3.78,4.08-2.33,6.8-3.89,6.8-3.89l-66.58-115.08-16.65-28.78s-1.53,.88-4.21,2.43c-1.33,.79-3.04,1.57-4.94,2.58-.96,.49-1.98,1.01-3.05,1.57-1.07,.55-2.19,1.16-3.41,1.67-9.54,4.62-22.76,9.72-36.42,13.34-13.64,3.69-27.68,5.72-38.26,6.53-2.65,.18-5.07,.44-7.23,.51-2.16,.05-4.04,.1-5.59,.13-1.55,.04-2.77,.08-3.6,.1-.83,.03-1.27,.02-1.27,.02l-.04,33.25,.15-132.34-2.43-.1c-1.45-.08-3.42,.04-5.32-.22-.96-.08-1.92-.15-2.82-.21-.45-.02-.89-.05-1.3-.07l-1.15-.17c-1.42-.19-2.37-.32-2.37-.32l-17.31,131.2s-.99-.13-2.48-.32c-.75-.09-1.61-.21-2.55-.32-.92-.16-1.91-.34-2.9-.52-3.94-.7-7.89-1.41-7.89-1.41l25.74-129.81-.65-.1c-.4-.1-.98-.24-1.67-.42-.69-.16-1.5-.35-2.37-.55-.87-.18-1.8-.36-2.7-.67-1.8-.58-3.66-.97-5-1.44-1.34-.47-2.23-.78-2.23-.78l-42.62,125.29s-.98-.33-2.46-.83c-.74-.25-1.6-.54-2.52-.85-.92-.32-1.88-.73-2.85-1.1-3.87-1.53-7.74-3.05-7.74-3.05l50.96-122.14s-.22-.08-.6-.23c-.37-.17-.89-.42-1.53-.72-.64-.29-1.38-.62-2.18-.98-.4-.17-.82-.35-1.24-.53-.41-.2-.82-.44-1.23-.65-.82-.44-1.65-.86-2.44-1.25-.78-.39-1.53-.72-2.12-1.11-1.21-.71-2.02-1.18-2.02-1.18l-66.27,114.55-16.64,28.76s2,1.15,5.49,3.15c1.74,1.02,3.95,2.07,6.44,3.37,1.25,.64,2.58,1.32,3.98,2.04,1.4,.71,2.87,1.49,4.45,2.18,12.44,6.01,29.7,12.71,47.52,17.45,2.21,.66,4.45,1.18,6.69,1.69,2.24,.52,4.46,1.03,6.67,1.54,1.11,.25,2.2,.52,3.31,.74,1.11,.2,2.21,.4,3.3,.6,2.19,.39,4.35,.78,6.47,1.16,4.24,.84,8.4,1.23,12.32,1.76,1.96,.24,3.87,.48,5.72,.71,1.85,.14,3.65,.28,5.37,.42,3.44,.25,6.59,.52,9.39,.68,2.8,.07,5.24,.14,7.25,.19,4.02,.1,6.32,.15,6.32,.15l.04-33.23-.15,132.95s.78,0,2.14-.02c1.36-.03,3.31-.07,5.64-.12,2.33-.06,5.05-.13,7.97-.21,1.46-.05,2.96-.1,4.49-.15,1.53-.11,3.09-.21,4.65-.32,3.11-.24,6.22-.47,9.14-.69,2.92-.23,5.64-.44,7.97-.76,4.66-.58,7.76-.96,7.76-.96Zm-198.82-119.64s2.12,1.21,5.82,3.34c1.85,1.08,4.19,2.2,6.82,3.58,1.32,.68,2.74,1.4,4.22,2.16,1.49,.75,3.04,1.58,4.72,2.31,13.2,6.37,31.49,13.48,50.39,18.51,2.34,.7,4.72,1.25,7.1,1.79,2.37,.55,4.73,1.09,7.08,1.63,1.17,.26,2.34,.55,3.51,.78,1.17,.21,2.34,.42,3.5,.64,2.32,.41,4.61,.82,6.86,1.23,4.5,.88,8.9,1.31,13.06,1.87,2.08,.26,4.11,.51,6.06,.75,1.96,.15,3.86,.3,5.69,.45,3.65,.27,6.99,.55,9.95,.71,2.97,.08,5.55,.15,7.68,.21,4.26,.1,6.69,.15,6.69,.15l-.04,33.24s-2.7-.06-7.43-.16c-2.36-.07-5.23-.15-8.52-.24-3.29-.17-7-.48-11.05-.78-2.02-.16-4.13-.33-6.31-.5-2.18-.27-4.43-.54-6.74-.82-4.62-.62-9.51-1.11-14.51-2.08-2.51-.45-5.05-.9-7.63-1.36-1.29-.24-2.58-.47-3.89-.71-1.3-.26-2.59-.57-3.9-.86-2.61-.6-5.23-1.21-7.87-1.81-2.64-.61-5.28-1.22-7.89-1.99-21.02-5.58-41.36-13.5-56.02-20.58-1.87-.82-3.59-1.73-5.25-2.57-1.65-.84-3.22-1.64-4.69-2.4-2.93-1.53-5.53-2.79-7.58-3.98-4.12-2.36-6.48-3.7-6.48-3.7l16.65-28.77Zm-24.81,42.89s2.47,1.41,6.79,3.88c2.16,1.25,4.88,2.57,7.95,4.18,1.55,.79,3.19,1.63,4.92,2.51,1.74,.88,3.55,1.83,5.51,2.69,15.39,7.42,36.73,15.73,58.79,21.59,2.74,.81,5.51,1.45,8.28,2.09,2.77,.64,5.52,1.27,8.26,1.9,1.37,.3,2.73,.63,4.09,.9,1.37,.25,2.73,.5,4.08,.75,2.71,.48,5.38,.96,8.01,1.43,5.25,1.01,10.38,1.53,15.23,2.18,2.43,.3,4.79,.58,7.07,.86,2.29,.18,4.5,.36,6.62,.53,4.25,.32,8.14,.64,11.59,.82,3.45,.1,6.46,.18,8.93,.25,4.95,.11,7.79,.17,7.79,.17l-.04,33.24s-3.1-.06-8.52-.18c-2.71-.08-6-.17-9.78-.28-3.78-.2-8.04-.54-12.69-.89-2.32-.19-4.74-.39-7.25-.59-2.5-.3-5.09-.61-7.74-.94-5.31-.7-10.92-1.3-16.68-2.39-2.88-.51-5.81-1.04-8.77-1.57-1.48-.27-2.97-.55-4.47-.83-1.49-.3-2.98-.65-4.48-.99-3-.69-6.02-1.38-9.05-2.08-3.03-.7-6.07-1.42-9.07-2.3-24.17-6.42-47.56-15.54-64.42-23.66-2.14-.95-4.13-1.99-6.03-2.95-1.9-.97-3.7-1.89-5.4-2.75-3.37-1.76-6.35-3.22-8.71-4.58-4.74-2.71-7.45-4.25-7.45-4.25l16.65-28.77Zm273.87-129.2s-1.41,.82-3.89,2.25c-1.23,.73-2.81,1.45-4.57,2.38-.88,.45-1.83,.94-2.82,1.45-.99,.51-2.02,1.07-3.15,1.55-8.81,4.27-21.03,8.98-33.64,12.33-12.6,3.41-25.57,5.29-35.35,6.03-2.45,.16-4.69,.42-6.68,.48-2,.05-3.74,.09-5.18,.12-1.43,.04-2.56,.07-3.33,.09-.77,.03-1.18,.02-1.18,.02l.04-33.23s.34,0,.99-.02c.64-.02,1.59-.05,2.79-.09,1.2-.03,2.66-.06,4.33-.09,1.67-.04,3.53-.28,5.58-.41,8.17-.62,18.97-2.18,29.44-5.01,10.48-2.79,20.65-6.68,27.98-10.25,.94-.38,1.8-.86,2.62-1.29,.83-.43,1.61-.83,2.34-1.21,1.46-.77,2.79-1.35,3.81-1.97,2.06-1.2,3.24-1.88,3.24-1.88l16.64,28.76Zm-25.13-43.43s-1.06,.61-2.9,1.69c-.91,.56-2.11,1.07-3.42,1.76-.66,.34-1.36,.7-2.1,1.09-.74,.39-1.5,.82-2.35,1.16-6.57,3.2-15.69,6.69-25.09,9.19-9.39,2.54-19.08,3.94-26.43,4.5-1.84,.11-3.51,.33-5.02,.37-1.51,.03-2.82,.06-3.9,.08-1.08,.04-1.93,.06-2.51,.08-.58,.03-.89,.02-.89,.02l.04-32.61s.24,0,.7-.02c.46-.02,1.12-.04,1.97-.08,.85-.03,1.88-.05,3.07-.05,1.18-.02,2.49-.22,3.93-.3,5.76-.44,13.31-1.52,20.62-3.5,7.31-1.95,14.42-4.65,19.54-7.16,.67-.25,1.26-.6,1.83-.91,.58-.3,1.12-.58,1.64-.85,1.02-.55,1.97-.92,2.67-1.37,1.44-.85,2.26-1.33,2.26-1.33l16.33,28.22Z"/><path class="c" d="M122.21,657.35l105.5-80.91s2.57,3.27,5.14,6.54c1.32,1.61,2.71,3.15,3.72,4.34,1.02,1.18,1.7,1.96,1.7,1.96l-99.89,87.75s.51,.59,1.41,1.62c.91,1.02,2.16,2.53,3.77,4.23,3.21,3.41,7.51,7.95,11.87,12.42,4.48,4.35,9.01,8.65,12.43,11.86,1.72,1.59,3.22,2.85,4.24,3.75,1.03,.9,1.62,1.41,1.62,1.41l87.63-99.99s.76,.66,1.89,1.64c1.14,.97,2.63,2.32,4.18,3.58l6.3,4.95-81.05,105.4s.62,.48,1.7,1.32c1.08,.84,2.62,2.05,4.53,3.4,3.82,2.73,8.88,6.41,14.07,9.9,5.25,3.41,10.52,6.79,14.51,9.27,4.06,2.36,6.77,3.93,6.77,3.93l66.58-115.08,16.65-28.78s-1.53-.88-4.21-2.42c-1.3-.84-2.88-1.85-4.69-3.02-1.81-1.17-3.9-2.42-6.02-4.01-2.15-1.56-4.53-3.17-6.96-4.99-2.39-1.88-4.91-3.86-7.52-5.91-2.51-2.17-5.1-4.42-7.73-6.7-2.52-2.4-5.08-4.85-7.64-7.29-10.03-10-18.91-21.09-24.85-29.87-1.59-2.12-2.82-4.23-4-6.03-1.17-1.81-2.18-3.39-3.02-4.69-1.54-2.68-2.41-4.22-2.41-4.22l-28.8,16.62,114.63-66.14s-.48-.82-1.21-2.06c-.72-1.24-1.48-2.98-2.4-4.65-.49-.82-.82-1.72-1.18-2.53-.37-.81-.71-1.57-1.01-2.21-.65-1.27-.94-2.18-.94-2.18l-122.32,50.51s-1.47-3.73-2.94-7.45c-.78-1.85-1.37-3.76-1.86-5.18-.48-1.42-.8-2.37-.8-2.37l125.34-42.47s-.31-.89-.78-2.23c-.44-1.35-.86-3.2-1.44-5-.32-.89-.47-1.84-.66-2.7-.2-.87-.39-1.67-.55-2.36-.16-.69-.34-1.26-.4-1.67-.06-.41-.1-.65-.1-.65l-129.84,25.58s-.73-4.09-1.46-8.19c-.41-2.04-.64-4.11-.84-5.65-.2-1.55-.33-2.58-.33-2.58l131.27-16.83s-.13-.93-.32-2.32c-.14-.69-.14-1.52-.2-2.41-.07-.88-.14-1.82-.21-2.77-.05-.47-.09-.94-.14-1.4-.02-.47,0-.93-.01-1.38-.02-.89-.03-1.73-.05-2.44-.06-1.43-.1-2.38-.1-2.38H143.18s.05,2.3,.15,6.32c.05,2.01,.12,4.45,.19,7.25,.12,2.8,.41,5.95,.66,9.39,.13,1.72,.27,3.51,.42,5.37,.19,1.85,.46,3.76,.69,5.72,.25,1.96,.51,3.98,.77,6.04,.14,1.03,.25,2.07,.42,3.12,.18,1.04,.37,2.1,.56,3.16,.38,2.13,.77,4.29,1.16,6.47,.39,2.19,.77,4.4,1.32,6.61,.51,2.21,1.02,4.44,1.54,6.67,.52,2.23,1.01,4.49,1.67,6.7,4.72,17.82,11.39,35.09,17.4,47.53,.69,1.59,1.44,3.06,2.17,4.46,.72,1.4,1.4,2.73,2.04,3.98,1.3,2.49,2.37,4.69,3.36,6.45,2,3.5,3.15,5.49,3.15,5.49l28.78-16.61-115.16,66.45s1.57,2.71,3.93,6.77c2.45,4,5.84,9.26,9.24,14.51,3.47,5.2,7.16,10.25,9.88,14.07,.69,.95,1.32,1.82,1.87,2.59,.58,.75,1.09,1.41,1.51,1.95,.84,1.08,1.32,1.7,1.32,1.7Zm4.03-232.16s.06,2.43,.15,6.69c.06,2.13,.13,4.71,.21,7.68,.13,2.96,.43,6.31,.7,9.95,.14,1.82,.29,3.72,.45,5.69,.2,1.96,.48,3.98,.73,6.06,.27,2.08,.54,4.22,.82,6.4,.15,1.09,.27,2.2,.45,3.31,.19,1.11,.39,2.23,.59,3.35,.4,2.25,.81,4.55,1.22,6.87,.41,2.32,.83,4.67,1.4,7.01,.54,2.34,1.08,4.71,1.63,7.08,.56,2.37,1.07,4.76,1.78,7.1,5.01,18.9,12.08,37.21,18.45,50.41,.73,1.68,1.53,3.24,2.3,4.73,.76,1.49,1.48,2.9,2.16,4.22,1.37,2.64,2.51,4.97,3.56,6.83,2.12,3.71,3.34,5.82,3.34,5.82l-28.79,16.61s-1.35-2.36-3.7-6.48c-1.16-2.07-2.44-4.66-3.97-7.59-.75-1.47-1.55-3.04-2.39-4.69-.85-1.65-1.73-3.39-2.55-5.26-7.08-14.67-14.95-35.02-20.52-56.05-.77-2.61-1.36-5.26-1.98-7.89-.61-2.64-1.21-5.26-1.81-7.87-.63-2.6-1.1-5.21-1.56-7.79-.46-2.58-.91-5.13-1.36-7.63-.22-1.25-.43-2.5-.65-3.73-.19-1.23-.34-2.46-.5-3.67-.31-2.43-.62-4.8-.91-7.11-.28-2.31-.59-4.56-.81-6.74-.17-2.18-.34-4.29-.5-6.31-.29-4.05-.62-7.76-.77-11.05-.09-3.29-.17-6.16-.24-8.52-.1-4.73-.16-7.43-.16-7.43h33.24Zm-49.55,0l.17,7.79c.07,2.48,.15,5.48,.25,8.93,.15,3.45,.49,7.34,.8,11.59,.17,2.12,.35,4.33,.53,6.62,.23,2.29,.55,4.64,.84,7.07,.31,2.42,.63,4.92,.96,7.46,.17,1.27,.33,2.56,.53,3.85,.22,1.29,.45,2.6,.68,3.91,.47,2.63,.95,5.3,1.43,8.01,.48,2.71,.98,5.44,1.64,8.17,.63,2.73,1.26,5.49,1.9,8.26,.65,2.76,1.27,5.55,2.08,8.28,5.84,22.06,14.11,43.42,21.53,58.81,.86,1.96,1.79,3.78,2.68,5.51,.88,1.73,1.72,3.38,2.51,4.93,1.6,3.08,2.94,5.79,4.16,7.96,2.47,4.32,3.88,6.8,3.88,6.8l-28.79,16.61s-1.54-2.71-4.25-7.45c-1.33-2.38-2.82-5.35-4.57-8.72-.86-1.69-1.78-3.5-2.75-5.4-.97-1.9-1.98-3.9-2.93-6.04-8.13-16.87-17.2-40.27-23.6-64.45-.88-3-1.56-6.05-2.28-9.08-.7-3.03-1.39-6.05-2.08-9.05-.71-2.99-1.26-5.99-1.79-8.95-.53-2.96-1.05-5.89-1.56-8.77-.25-1.44-.49-2.87-.74-4.29-.22-1.42-.39-2.83-.58-4.22-.36-2.79-.71-5.52-1.05-8.17-.32-2.66-.67-5.24-.92-7.74-.2-2.51-.4-4.93-.59-7.25-.34-4.65-.7-8.91-.87-12.69-.11-3.78-.2-7.07-.28-9.78l-.17-8.52h33.24Zm248.94,172.54s-1.42-.81-3.89-2.24c-1.2-.77-2.66-1.72-4.33-2.79-1.67-1.08-3.61-2.23-5.57-3.71-1.98-1.44-4.19-2.93-6.43-4.61-2.21-1.74-4.54-3.57-6.95-5.46-2.32-2.01-4.71-4.08-7.15-6.19-2.33-2.22-4.7-4.48-7.07-6.74-9.27-9.25-17.49-19.5-22.98-27.63-1.48-1.96-2.6-3.91-3.7-5.57-1.08-1.67-2.02-3.13-2.79-4.33-1.42-2.48-2.23-3.9-2.23-3.9l28.78-16.61s.67,1.18,1.84,3.26c.65,1,1.44,2.21,2.34,3.61,.92,1.38,1.83,3.02,3.08,4.65,4.56,6.78,11.43,15.33,19.16,23.05,7.7,7.76,16.27,14.61,23.03,19.19,1.63,1.24,3.25,2.18,4.64,3.09,1.39,.9,2.61,1.69,3.61,2.34,2.07,1.18,3.25,1.85,3.25,1.85l-16.64,28.76Zm25.13-43.43l-2.92-1.66c-.9-.58-1.99-1.29-3.24-2.11-1.25-.81-2.71-1.64-4.17-2.77-6.08-4.11-13.78-10.26-20.7-17.24-6.95-6.94-13.13-14.62-17.22-20.72-1.13-1.45-1.94-2.93-2.76-4.18-.81-1.25-1.52-2.34-2.11-3.23-1.05-1.86-1.65-2.93-1.65-2.93l28.24-16.3s.46,.83,1.27,2.29c.47,.69,1.03,1.54,1.66,2.52,.65,.97,1.25,2.14,2.16,3.27,3.19,4.77,8.03,10.79,13.47,16.23,5.42,5.47,11.45,10.29,16.22,13.49,1.13,.9,2.29,1.53,3.26,2.16,.98,.63,1.83,1.19,2.52,1.66,1.46,.82,2.29,1.28,2.29,1.28l-16.33,28.22Z"/><path class="c" d="M72.64,278.73l122.77,51.04s-1.52,3.87-3.05,7.73c-.8,1.92-1.44,3.9-1.94,5.37-.5,1.48-.83,2.46-.83,2.46l-125.92-42.67-2.49,7.44c-1.44,4.48-3.1,10.54-4.81,16.58-.88,3.01-1.57,6.08-2.24,8.94-.66,2.87-1.28,5.54-1.81,7.83-.51,2.3-.97,4.21-1.22,5.55-.25,1.35-.39,2.12-.39,2.12l130.44,25.7-1.41,7.88c-.17,.99-.37,1.97-.5,2.9-.12,.93-.23,1.8-.32,2.54-.19,1.49-.32,2.48-.32,2.48l-131.83-17.24s-.39,3.11-.97,7.77c-.32,2.33-.55,5.05-.78,7.97-.22,2.92-.46,6.03-.7,9.15-.11,1.56-.22,3.12-.33,4.65-.1,1.53-.12,3.04-.17,4.5-.08,2.92-.15,5.64-.22,7.98-.09,4.67-.16,7.78-.16,7.78H209.66s.05-1.77,.13-4.87c.04-1.55,.08-3.43,.13-5.59,.1-2.16,.34-4.58,.52-7.22,.82-10.58,2.87-24.61,6.58-38.25,3.63-13.65,8.77-26.86,13.38-36.4,1.1-2.41,2.3-4.53,3.25-6.46,1.01-1.9,1.77-3.62,2.59-4.94,1.54-2.68,2.43-4.21,2.43-4.21l-28.76-16.69,114.47,66.41,1.16-2.09c.81-1.19,1.85-2.79,2.85-4.42,1.1-1.57,2.25-3.1,3.05-4.3,.38-.61,.79-1.05,1.05-1.38l.41-.51-104.82-80.79s2.48-3.15,4.95-6.3c2.62-3.03,5.24-6.07,5.24-6.07l99.42,87.34s.16-.18,.43-.5c.28-.31,.62-.81,1.14-1.31,1.02-1.02,2.35-2.41,3.65-3.83,1.43-1.29,2.81-2.62,3.83-3.65,.52-.5,1.01-.85,1.32-1.13,.32-.27,.5-.43,.5-.43l-87.22-99.53s.79-.68,1.96-1.7c1.19-1.01,2.72-2.42,4.35-3.71l6.54-5.14,80.41,105.11s.18-.15,.5-.41c.31-.28,.79-.62,1.38-1.01,1.18-.77,2.66-1.94,4.22-2.98,1.61-.97,3.16-2.02,4.34-2.79,1.23-.68,2.04-1.14,2.04-1.14l-66.27-114.55-16.64-28.76s-1.99,1.15-5.48,3.18c-1.7,1.09-3.76,2.4-6.12,3.91-2.35,1.53-5.06,3.18-7.84,5.22-2.81,2.01-5.89,4.13-9.05,6.5-3.11,2.44-6.39,5.02-9.78,7.69-3.26,2.82-6.63,5.74-10.06,8.7-3.31,3.09-6.62,6.28-9.95,9.46-3.18,3.33-6.35,6.66-9.48,9.93-2.97,3.42-5.88,6.79-8.71,10.05-2.67,3.39-5.25,6.67-7.7,9.77-2.39,3.15-4.5,6.24-6.51,9.05-2.04,2.78-3.72,5.47-5.23,7.83-1.51,2.36-2.83,4.42-3.91,6.12-1.05,1.72-1.81,3.11-2.36,4.04l-.83,1.43,28.74,16.67-115-66.71s-1.55,2.72-3.89,6.79c-1.19,2.02-2.44,4.46-3.79,7.07-1.34,2.61-2.76,5.4-4.19,8.19-.7,1.4-1.43,2.79-2.09,4.18-.64,1.4-1.28,2.78-1.89,4.12-1.21,2.68-2.34,5.18-3.31,7.32-.95,2.15-1.75,3.94-2.3,5.19-.51,1.27-.81,2-.81,2Zm203.06-112.39s-2.11,1.23-5.81,3.37c-1.8,1.15-3.98,2.54-6.49,4.15-2.49,1.62-5.36,3.37-8.31,5.54-2.98,2.13-6.24,4.38-9.6,6.89-3.3,2.59-6.77,5.32-10.36,8.15-3.46,2.99-7.03,6.08-10.66,9.22-3.51,3.27-7.02,6.66-10.54,10.03-3.37,3.53-6.73,7.06-10.05,10.53-3.14,3.63-6.24,7.2-9.23,10.65-2.83,3.59-5.56,7.06-8.16,10.36-2.53,3.34-4.77,6.61-6.9,9.59-2.16,2.95-3.94,5.8-5.55,8.3-1.6,2.51-3,4.69-4.15,6.49-1.12,1.82-1.92,3.29-2.51,4.28-.57,.99-.88,1.52-.88,1.52l-28.75-16.68s.34-.59,.97-1.69c.65-1.09,1.55-2.73,2.79-4.75,1.28-2,2.83-4.43,4.6-7.21,1.79-2.78,3.77-5.94,6.17-9.22,2.37-3.3,4.86-6.94,7.67-10.65,2.86-3.67,5.89-7.54,9.06-11.5,3.3-3.86,6.74-7.82,10.25-11.83,3.65-3.88,7.39-7.81,11.16-11.69,3.9-3.75,7.81-7.51,11.71-11.14,4.01-3.51,7.97-6.95,11.84-10.24,3.99-3.14,7.85-6.17,11.51-9.05,3.73-2.79,7.35-5.3,10.66-7.66,3.29-2.4,6.46-4.35,9.23-6.15,2.79-1.78,5.22-3.32,7.22-4.6,4.1-2.39,6.45-3.75,6.45-3.75l16.65,28.77Zm-24.81-42.88s-2.46,1.43-6.76,3.94c-2.1,1.34-4.65,2.96-7.57,4.82-2.91,1.89-6.24,3.95-9.68,6.45-3.47,2.47-7.27,5.11-11.18,8.04-3.86,2.99-7.91,6.18-12.07,9.5-4.06,3.45-8.21,7.06-12.42,10.74-4.09,3.81-8.19,7.74-12.28,11.68-3.96,4.07-7.87,8.19-11.7,12.26-3.69,4.2-7.29,8.36-10.75,12.41-3.33,4.16-6.51,8.21-9.51,12.07-2.95,3.89-5.57,7.7-8.05,11.17-2.51,3.45-4.59,6.76-6.47,9.67-1.86,2.92-3.49,5.47-4.83,7.57-1.3,2.12-2.25,3.83-2.93,4.98-.67,1.16-1.02,1.77-1.02,1.77l-28.75-16.68,1.12-1.94c.74-1.26,1.79-3.13,3.21-5.46,1.46-2.3,3.24-5.09,5.28-8.29,2.06-3.19,4.35-6.81,7.09-10.6,2.71-3.8,5.59-7.97,8.82-12.23,3.28-4.22,6.76-8.67,10.41-13.21,3.78-4.44,7.73-9,11.77-13.59,4.19-4.47,8.47-8.97,12.81-13.43,4.47-4.32,8.96-8.63,13.45-12.79,4.6-4.04,9.15-7.99,13.6-11.76,4.56-3.64,8.99-7.13,13.22-10.4,4.28-3.21,8.43-6.1,12.24-8.8,3.78-2.74,7.42-5.01,10.61-7.07,3.2-2.04,6-3.81,8.3-5.28,4.71-2.75,7.41-4.32,7.41-4.32l16.65,28.77Zm-24.93,301.74s.05-1.64,.13-4.51c.03-1.43,.07-3.18,.12-5.18,.09-1.99,.32-4.23,.49-6.68,.76-9.78,2.65-22.75,6.08-35.35,3.36-12.61,8.09-24.81,12.36-33.63,1.01-2.23,2.13-4.18,3-5.97,.93-1.76,1.63-3.35,2.39-4.56,1.43-2.48,2.25-3.89,2.25-3.89l28.74,16.67s-.68,1.18-1.88,3.24c-.64,1.01-1.2,2.34-1.98,3.8-.72,1.49-1.67,3.11-2.51,4.96-3.55,7.33-7.48,17.49-10.27,27.97-2.85,10.47-4.42,21.27-5.05,29.43-.13,2.05-.34,3.91-.42,5.58-.03,1.67-.06,3.13-.09,4.33-.08,2.4-.12,3.77-.12,3.77h-33.23Zm50.18,0s.04-1.23,.12-3.4c.02-1.08,.05-2.39,.07-3.9,.07-1.5,.27-3.18,.38-5.02,.57-7.34,1.98-17.03,4.53-26.42,2.51-9.4,6.02-18.5,9.21-25.08,.74-1.67,1.61-3.11,2.25-4.45,.7-1.31,1.19-2.52,1.77-3.42,1.07-1.85,1.69-2.9,1.69-2.9l28.21,16.36s-.48,.82-1.33,2.26c-.47,.69-.83,1.65-1.38,2.67-.5,1.05-1.19,2.16-1.77,3.47-2.49,5.13-5.21,12.22-7.17,19.53-1.99,7.31-3.08,14.86-3.53,20.62-.08,1.44-.26,2.75-.31,3.93,0,1.19-.02,2.22-.05,3.07-.07,1.7-.11,2.67-.11,2.67h-32.61Z"/><path class="c" d="M375.88,46.7l17.07,131.85s-1.03,.13-2.58,.33c-.77,.1-1.68,.21-2.64,.34-.97,.13-1.98,.34-3.01,.52-4.09,.73-8.18,1.46-8.18,1.46l-25.86-130.41-2.12,.39c-1.34,.3-3.25,.73-5.55,1.24-2.29,.53-4.97,1.15-7.83,1.81-2.87,.66-5.92,1.38-8.93,2.26-6.04,1.71-12.1,3.36-16.57,4.83-4.46,1.5-7.44,2.49-7.44,2.49l42.82,125.87-2.37,.8c-1.42,.48-3.33,1.1-5.18,1.87-3.72,1.47-7.45,2.94-7.45,2.94l-50.89-122.83s-.73,.29-2,.81c-1.27,.52-3.05,1.34-5.2,2.29-2.14,.97-4.65,2.1-7.33,3.31-2.68,1.22-5.53,2.51-8.31,3.96-2.79,1.43-5.58,2.85-8.2,4.19-2.61,1.36-5.06,2.59-7.09,3.78l-6.8,3.89,66.58,115.08,16.65,28.78s1.53-.88,4.21-2.43c1.33-.79,3.04-1.57,4.94-2.58,.96-.49,1.98-1.01,3.05-1.57,1.07-.55,2.19-1.16,3.41-1.67,9.54-4.62,22.76-9.72,36.42-13.34,13.64-3.69,27.68-5.72,38.26-6.53,2.65-.18,5.07-.44,7.23-.51,2.16-.05,4.04-.1,5.59-.13,1.55-.04,2.77-.08,3.6-.1,.83-.03,1.27-.02,1.27-.02l.04-33.25-.15,132.34,2.43,.1c1.45,.08,3.42-.04,5.32,.22,.96,.08,1.92,.15,2.82,.21,.45,.02,.89,.05,1.3,.07,.41,.06,.79,.12,1.15,.17,1.42,.19,2.37,.32,2.37,.32l17.31-131.2,2.48,.32c.75,.09,1.61,.21,2.55,.32,.92,.16,1.91,.34,2.9,.52,3.94,.7,7.89,1.41,7.89,1.41l-25.74,129.81s.24,.04,.65,.1c.4,.1,.98,.24,1.67,.42,.69,.16,1.5,.35,2.37,.55,.87,.18,1.8,.36,2.7,.67,1.8,.58,3.66,.97,5,1.44,1.34,.47,2.23,.78,2.23,.78l42.62-125.29,2.46,.83c.74,.25,1.6,.54,2.52,.85,.92,.32,1.88,.73,2.85,1.1,3.87,1.53,7.74,3.05,7.74,3.05l-50.96,122.14s.22,.08,.6,.23l1.53,.72c.64,.29,1.38,.62,2.18,.98,.4,.17,.82,.35,1.24,.53,.41,.2,.82,.44,1.23,.65,.82,.44,1.65,.86,2.44,1.25,.78,.39,1.53,.72,2.12,1.11,1.21,.71,2.02,1.18,2.02,1.18l66.27-114.55,16.64-28.76s-2-1.15-5.49-3.15c-1.74-1.02-3.95-2.07-6.44-3.37-1.25-.64-2.58-1.32-3.98-2.04-1.4-.71-2.87-1.49-4.45-2.18-12.44-6.01-29.7-12.71-47.52-17.45-2.21-.66-4.45-1.18-6.69-1.69-2.24-.52-4.46-1.03-6.67-1.54-1.11-.25-2.2-.52-3.31-.74-1.11-.2-2.21-.4-3.3-.6-2.19-.39-4.35-.78-6.47-1.16-4.24-.84-8.4-1.23-12.32-1.76-1.96-.24-3.87-.48-5.72-.71-1.85-.14-3.65-.28-5.37-.42-3.44-.25-6.59-.52-9.39-.68-2.8-.07-5.24-.14-7.25-.19-4.02-.1-6.32-.15-6.32-.15l-.04,33.23,.15-132.95s-.78,0-2.14,.02c-1.36,.03-3.31,.07-5.64,.12-2.33,.06-5.05,.13-7.97,.21-1.46,.05-2.96,.1-4.49,.15-1.53,.11-3.09,.22-4.65,.32-3.11,.24-6.22,.47-9.14,.69-2.92,.23-5.64,.44-7.97,.76-4.66,.58-7.76,.96-7.76,.96Zm198.82,119.64s-2.12-1.21-5.82-3.34c-1.85-1.08-4.19-2.2-6.82-3.58-1.32-.68-2.74-1.4-4.22-2.16-1.49-.75-3.04-1.58-4.72-2.31-13.2-6.37-31.49-13.48-50.39-18.51-2.34-.7-4.72-1.25-7.1-1.79-2.37-.55-4.73-1.09-7.08-1.63-1.17-.26-2.34-.55-3.51-.78-1.17-.21-2.34-.42-3.5-.64-2.32-.41-4.61-.82-6.86-1.23-4.5-.88-8.9-1.31-13.06-1.87-2.08-.26-4.11-.51-6.06-.75-1.96-.15-3.86-.3-5.69-.45-3.65-.27-6.99-.55-9.95-.71-2.97-.08-5.55-.15-7.68-.21-4.26-.1-6.69-.15-6.69-.15l.04-33.24s2.7,.06,7.43,.16c2.36,.07,5.23,.15,8.52,.24,3.29,.17,7,.48,11.05,.78,2.02,.16,4.13,.33,6.31,.5,2.18,.27,4.43,.54,6.74,.82,4.62,.62,9.51,1.11,14.51,2.08,2.51,.45,5.05,.9,7.63,1.36,1.29,.24,2.58,.47,3.89,.71,1.3,.26,2.59,.57,3.9,.86,2.61,.6,5.23,1.2,7.87,1.81,2.64,.61,5.28,1.22,7.89,1.99,21.02,5.58,41.36,13.5,56.02,20.58,1.87,.82,3.59,1.73,5.25,2.57,1.65,.84,3.22,1.64,4.69,2.4,2.93,1.53,5.53,2.79,7.58,3.98,4.12,2.36,6.48,3.7,6.48,3.7l-16.65,28.77Zm24.81-42.88s-2.47-1.41-6.79-3.88c-2.16-1.25-4.88-2.57-7.95-4.18-1.55-.79-3.19-1.63-4.92-2.51-1.74-.88-3.55-1.83-5.51-2.69-15.39-7.42-36.73-15.73-58.79-21.59-2.74-.81-5.51-1.45-8.28-2.09-2.77-.64-5.52-1.27-8.26-1.9-1.37-.3-2.73-.63-4.09-.9-1.37-.25-2.73-.5-4.08-.75-2.71-.48-5.38-.96-8.01-1.43-5.25-1.01-10.38-1.53-15.23-2.18-2.43-.3-4.79-.58-7.07-.86-2.29-.18-4.5-.36-6.62-.53-4.25-.32-8.14-.64-11.59-.82-3.45-.1-6.46-.18-8.93-.25-4.95-.11-7.79-.17-7.79-.17l.04-33.24s3.1,.06,8.52,.18c2.71,.08,6,.17,9.78,.28,3.78,.2,8.04,.54,12.69,.89,2.32,.19,4.74,.39,7.25,.59,2.5,.3,5.09,.61,7.74,.94,5.31,.7,10.92,1.3,16.68,2.39,2.88,.51,5.81,1.04,8.77,1.57,1.48,.27,2.97,.55,4.47,.83,1.49,.3,2.98,.65,4.48,.99,3,.69,6.02,1.38,9.05,2.08,3.03,.7,6.07,1.42,9.07,2.3,24.17,6.42,47.56,15.54,64.42,23.66,2.14,.95,4.13,1.99,6.03,2.95,1.9,.97,3.7,1.89,5.4,2.75,3.37,1.76,6.35,3.22,8.71,4.58,4.74,2.71,7.45,4.25,7.45,4.25l-16.65,28.77ZM325.64,252.65s1.41-.82,3.89-2.25c1.23-.73,2.81-1.45,4.57-2.38,.88-.45,1.83-.94,2.82-1.45,.99-.51,2.02-1.07,3.15-1.55,8.81-4.27,21.03-8.98,33.64-12.33,12.6-3.41,25.57-5.29,35.35-6.03,2.45-.16,4.69-.42,6.68-.48,2-.05,3.74-.09,5.18-.12,1.43-.04,2.56-.07,3.33-.09,.77-.03,1.18-.02,1.18-.02l-.04,33.23s-.34,0-.99,.02c-.64,.02-1.59,.05-2.79,.09-1.2,.03-2.66,.06-4.33,.09-1.67,.04-3.53,.28-5.58,.41-8.17,.62-18.97,2.18-29.44,5.01-10.48,2.79-20.65,6.68-27.98,10.25-.94,.38-1.8,.86-2.62,1.29-.83,.43-1.61,.83-2.34,1.21-1.46,.77-2.79,1.35-3.81,1.97-2.06,1.2-3.24,1.88-3.24,1.88l-16.64-28.76Zm25.13,43.43l2.9-1.69c.91-.56,2.11-1.07,3.42-1.76,.66-.34,1.36-.7,2.1-1.09,.74-.39,1.5-.82,2.35-1.16,6.57-3.2,15.69-6.69,25.09-9.19,9.39-2.54,19.08-3.94,26.43-4.5,1.84-.11,3.51-.33,5.02-.37,1.51-.03,2.82-.06,3.9-.08,1.08-.04,1.93-.06,2.51-.08,.58-.03,.89-.02,.89-.02l-.04,32.61s-.24,0-.7,.02c-.46,.02-1.12,.04-1.97,.08-.85,.03-1.88,.05-3.07,.05-1.18,.02-2.49,.22-3.93,.3-5.76,.44-13.31,1.52-20.62,3.5-7.31,1.95-14.42,4.65-19.54,7.16-.67,.25-1.26,.6-1.83,.91-.58,.3-1.12,.58-1.64,.85-1.02,.55-1.97,.92-2.67,1.37-1.44,.85-2.26,1.33-2.26,1.33l-16.33-28.22Z"/><path class="c" d="M728.18,193.04l-105.5,80.91s-2.57-3.27-5.14-6.54c-1.32-1.61-2.71-3.15-3.72-4.34-1.02-1.18-1.7-1.96-1.7-1.96l99.89-87.75s-.51-.59-1.41-1.62c-.91-1.02-2.16-2.53-3.77-4.23-3.21-3.41-7.51-7.95-11.87-12.42-4.48-4.35-9.01-8.65-12.43-11.86-1.72-1.59-3.22-2.85-4.24-3.75-1.03-.9-1.62-1.41-1.62-1.41l-87.63,99.99s-.76-.66-1.89-1.64c-1.14-.97-2.63-2.32-4.18-3.58l-6.3-4.95,81.05-105.4s-.62-.48-1.7-1.32c-1.08-.84-2.62-2.05-4.53-3.4-3.82-2.73-8.88-6.41-14.07-9.9-5.25-3.41-10.52-6.79-14.51-9.27-4.06-2.36-6.77-3.93-6.77-3.93l-66.58,115.08-16.65,28.78s1.53,.88,4.21,2.42c1.3,.84,2.88,1.85,4.69,3.02,1.81,1.17,3.9,2.42,6.02,4.01,2.15,1.56,4.53,3.17,6.96,4.99,2.39,1.88,4.91,3.86,7.52,5.91,2.51,2.17,5.1,4.42,7.73,6.7,2.52,2.4,5.08,4.85,7.64,7.29,10.03,10,18.91,21.09,24.85,29.87,1.59,2.12,2.82,4.23,4,6.03,1.17,1.81,2.18,3.39,3.02,4.69,1.54,2.68,2.41,4.22,2.41,4.22l28.8-16.62-114.63,66.14s.48,.82,1.21,2.06c.72,1.24,1.48,2.98,2.4,4.65,.49,.82,.82,1.72,1.18,2.53,.37,.81,.71,1.57,1.01,2.21,.65,1.27,.94,2.18,.94,2.18l122.32-50.51,2.94,7.45c.78,1.85,1.37,3.76,1.86,5.18,.48,1.42,.8,2.37,.8,2.37l-125.34,42.47s.31,.89,.78,2.23c.44,1.35,.86,3.2,1.44,5,.32,.89,.47,1.84,.66,2.7,.2,.87,.39,1.67,.55,2.36,.16,.69,.34,1.26,.4,1.67,.06,.41,.1,.65,.1,.65l129.84-25.58s.73,4.09,1.46,8.19c.41,2.04,.64,4.11,.84,5.65,.2,1.55,.33,2.58,.33,2.58l-131.27,16.83s.13,.93,.32,2.32c.14,.69,.14,1.52,.2,2.41,.07,.88,.14,1.82,.21,2.77,.05,.47,.09,.94,.14,1.4,.02,.47,0,.93,.01,1.38,.02,.89,.03,1.73,.05,2.44,.06,1.43,.1,2.38,.1,2.38h165.57s-.05-2.3-.15-6.32c-.05-2.01-.12-4.45-.19-7.25-.12-2.8-.41-5.95-.66-9.39-.13-1.72-.27-3.51-.42-5.37-.19-1.85-.46-3.76-.69-5.72-.25-1.96-.51-3.98-.77-6.04-.14-1.03-.25-2.07-.42-3.12-.18-1.04-.37-2.1-.56-3.16-.38-2.13-.76-4.29-1.16-6.47-.39-2.19-.77-4.4-1.32-6.61-.51-2.21-1.02-4.44-1.54-6.67-.52-2.23-1.01-4.49-1.67-6.7-4.72-17.82-11.39-35.09-17.4-47.53-.69-1.59-1.44-3.06-2.17-4.46-.72-1.4-1.4-2.73-2.04-3.98-1.3-2.49-2.37-4.69-3.36-6.45-2-3.5-3.15-5.49-3.15-5.49l-28.78,16.61,115.16-66.45s-1.57-2.71-3.93-6.77c-2.45-4-5.84-9.26-9.24-14.51-3.47-5.2-7.16-10.25-9.88-14.07-.69-.95-1.32-1.82-1.87-2.59-.58-.75-1.09-1.41-1.51-1.95-.84-1.08-1.32-1.7-1.32-1.7Zm-4.03,232.16s-.06-2.43-.15-6.69c-.06-2.13-.13-4.71-.21-7.68-.13-2.96-.43-6.31-.7-9.95-.14-1.82-.29-3.72-.45-5.69-.2-1.96-.48-3.98-.73-6.06-.27-2.08-.54-4.22-.82-6.4-.15-1.09-.27-2.2-.45-3.31-.19-1.11-.39-2.23-.59-3.35-.4-2.25-.81-4.55-1.22-6.87-.41-2.32-.83-4.67-1.4-7.01-.54-2.34-1.08-4.71-1.63-7.08-.56-2.37-1.07-4.76-1.78-7.1-5.01-18.9-12.08-37.21-18.46-50.41-.73-1.68-1.53-3.24-2.3-4.73-.76-1.49-1.48-2.9-2.16-4.22-1.37-2.64-2.51-4.97-3.56-6.83-2.12-3.71-3.34-5.82-3.34-5.82l28.79-16.61s1.35,2.36,3.7,6.48c1.16,2.07,2.44,4.66,3.97,7.59,.75,1.47,1.55,3.04,2.39,4.69,.85,1.65,1.73,3.39,2.55,5.26,7.08,14.67,14.95,35.02,20.52,56.05,.77,2.61,1.36,5.26,1.98,7.89,.61,2.64,1.21,5.26,1.81,7.87,.63,2.6,1.1,5.21,1.56,7.79,.46,2.58,.91,5.13,1.36,7.63,.22,1.25,.43,2.5,.65,3.73,.19,1.23,.34,2.46,.5,3.67,.31,2.43,.62,4.8,.91,7.11,.28,2.31,.59,4.56,.81,6.74,.17,2.18,.34,4.29,.5,6.31,.29,4.05,.62,7.76,.77,11.05,.09,3.29,.17,6.16,.24,8.52,.1,4.73,.16,7.43,.16,7.43h-33.24Zm49.55,0l-.17-7.79c-.07-2.48-.15-5.48-.25-8.93-.15-3.45-.49-7.34-.8-11.59-.17-2.12-.35-4.33-.53-6.62-.23-2.29-.55-4.64-.84-7.07-.31-2.42-.63-4.92-.96-7.46-.17-1.27-.33-2.56-.53-3.85-.22-1.29-.45-2.6-.68-3.91-.47-2.63-.95-5.3-1.43-8.01-.48-2.71-.98-5.44-1.64-8.17-.63-2.73-1.26-5.49-1.9-8.26-.65-2.76-1.27-5.55-2.08-8.28-5.84-22.06-14.11-43.42-21.53-58.81-.86-1.96-1.79-3.78-2.68-5.51-.88-1.73-1.72-3.38-2.51-4.93-1.6-3.08-2.94-5.79-4.16-7.96-2.47-4.32-3.88-6.8-3.88-6.8l28.79-16.61s1.55,2.71,4.25,7.45c1.33,2.38,2.82,5.35,4.57,8.72,.86,1.69,1.78,3.5,2.75,5.4,.97,1.9,1.98,3.9,2.93,6.04,8.13,16.87,17.2,40.27,23.6,64.45,.88,3,1.56,6.05,2.28,9.08,.7,3.03,1.39,6.05,2.08,9.05,.71,2.99,1.26,5.99,1.79,8.95,.53,2.96,1.05,5.89,1.56,8.77,.25,1.44,.49,2.87,.74,4.29,.22,1.42,.39,2.83,.58,4.22,.36,2.79,.71,5.52,1.05,8.17,.32,2.66,.67,5.24,.92,7.74,.2,2.51,.4,4.93,.59,7.25,.34,4.65,.7,8.91,.87,12.69,.11,3.78,.2,7.07,.28,9.78l.17,8.52h-33.24Zm-248.94-172.54s1.42,.81,3.89,2.24c1.2,.77,2.66,1.72,4.33,2.79,1.67,1.08,3.61,2.23,5.57,3.71,1.98,1.44,4.19,2.93,6.43,4.61,2.21,1.74,4.54,3.57,6.95,5.46,2.32,2.01,4.71,4.08,7.15,6.19,2.33,2.22,4.7,4.48,7.07,6.74,9.27,9.25,17.49,19.5,22.98,27.63,1.48,1.96,2.6,3.91,3.7,5.57,1.08,1.67,2.02,3.13,2.79,4.33,1.42,2.48,2.23,3.9,2.23,3.9l-28.78,16.61s-.67-1.18-1.84-3.26c-.65-1-1.44-2.21-2.34-3.61-.92-1.38-1.83-3.02-3.08-4.65-4.56-6.78-11.43-15.33-19.16-23.05-7.7-7.76-16.27-14.61-23.03-19.19-1.63-1.24-3.25-2.18-4.64-3.09-1.39-.9-2.61-1.69-3.61-2.34-2.07-1.18-3.25-1.85-3.25-1.85l16.64-28.76Zm-25.13,43.43s1.06,.6,2.92,1.66c.9,.58,1.99,1.29,3.24,2.11,1.25,.81,2.71,1.64,4.17,2.77,6.08,4.11,13.78,10.26,20.7,17.24,6.95,6.94,13.13,14.62,17.22,20.72,1.13,1.45,1.94,2.93,2.76,4.18,.81,1.25,1.52,2.34,2.11,3.23,1.05,1.86,1.65,2.93,1.65,2.93l-28.24,16.3s-.46-.83-1.27-2.29c-.47-.69-1.03-1.54-1.66-2.52-.65-.97-1.25-2.14-2.16-3.27-3.19-4.77-8.03-10.79-13.47-16.23-5.42-5.47-11.45-10.29-16.22-13.49-1.13-.9-2.29-1.53-3.26-2.16-.98-.63-1.83-1.19-2.52-1.66-1.46-.82-2.29-1.28-2.29-1.28l16.33-28.22Z"/></g><rect class="b" x="0" y="0" width="850.39" height="850.39"/></svg>