<?xml version="1.0" encoding="UTF-8"?><svg id="a" xmlns="http://www.w3.org/2000/svg" viewBox="0 0 850.39 850.39"><defs><style>.b{fill:none;}</style></defs><path d="M757.77,353.89l-153.83-153.83c-39.38-39.38-103.24-39.38-142.62,0l-36.12,36.12-36.12-36.12c-39.38-39.38-103.24-39.38-142.62,0L92.62,353.89c-39.38,39.38-39.38,103.24,0,142.62l153.83,153.83c39.38,39.38,103.24,39.38,142.62,0l36.12-36.12,36.12,36.12c39.38,39.38,103.24,39.38,142.62,0l153.83-153.83c39.39-39.38,39.39-103.24,0-142.62Zm-47.15,95.47l-153.83,153.83c-13.34,13.34-34.97,13.34-48.32,0l-36.12-36.12,70.56-70.55c39.39-39.38,39.39-103.24,0-142.62l-70.56-70.56,36.12-36.12c13.34-13.34,34.98-13.34,48.32,0l153.83,153.83c13.34,13.34,13.34,34.97,0,48.32Z"/><rect class="b" x="0" y="0" width="850.39" height="850.39"/></svg>