<?xml version="1.0" encoding="utf-8"?>
<!-- Generator: Adobe Illustrator 26.3.1, SVG Export Plug-In . SVG Version: 6.00 Build 0)  -->
<svg version="1.1" id="Camada_1" xmlns="http://www.w3.org/2000/svg" xmlns:xlink="http://www.w3.org/1999/xlink" x="0px" y="0px"
	 viewBox="0 0 850.39 850.39" style="enable-background:new 0 0 850.39 850.39;" xml:space="preserve">
<style type="text/css">
	.st0{fill:#FFFFFF;}
	.st1{fill:none;}
</style>
<g>
	<path class="st0" d="M774.83,661.85c0.25,0.43,0.49,0.85,0.72,1.27C775.32,662.7,775.09,662.28,774.83,661.85z"/>
	<path class="st0" d="M611.86,594.8c0.3,0.1,0.6,0.21,0.91,0.31C612.47,595.01,612.17,594.91,611.86,594.8z"/>
	<path class="st0" d="M825.92,829.01c0.09,0.96,0.17,1.95,0.23,2.97C826.09,830.96,826.01,829.96,825.92,829.01z"/>
	<path class="st0" d="M820.45,801.25c0.04,0.13,0.07,0.27,0.11,0.4C820.52,801.52,820.48,801.39,820.45,801.25z"/>
	<path class="st0" d="M608.91,593.8c0.29,0.1,0.59,0.2,0.89,0.3C609.5,594,609.2,593.9,608.91,593.8z"/>
	<path class="st0" d="M313.05,557.32c0.03-0.02,0.06-0.03,0.09-0.05C313.12,557.28,313.09,557.3,313.05,557.32z"/>
	<path class="st0" d="M605.45,592.62c0.27,0.09,0.54,0.18,0.81,0.27C605.99,592.8,605.72,592.71,605.45,592.62z"/>
	<path class="st0" d="M600.01,590.77c0.03,0.01,0.06,0.02,0.09,0.03C600.07,590.79,600.04,590.78,600.01,590.77z"/>
	<path class="st0" d="M826.22,833.36c0.03,0.57,0.06,1.13,0.08,1.72C826.28,834.49,826.25,833.93,826.22,833.36z"/>
	<path class="st0" d="M602.59,591.65c0.29,0.1,0.58,0.2,0.87,0.29C603.17,591.84,602.88,591.75,602.59,591.65z"/>
	<path class="st0" d="M826.35,837.08c0.01,0.4,0.02,0.79,0.02,1.2C826.37,837.87,826.35,837.48,826.35,837.08z"/>
	<path class="st0" d="M216.96,739.55c-2.62-9.13-4.85-18.07-6.46-26.55c-0.3-1.64-0.6-3.31-0.91-5.01
		c-0.27-1.71-0.54-3.46-0.82-5.27c-0.37-3.05-0.75-6.18-1.14-9.44c-0.39-3.68-0.78-7.49-1.2-11.46c3.13,2.8,6.22,5.66,9.41,8.42
		c1.58,1.38,3.17,2.77,4.77,4.17c0.8,0.65,1.61,1.3,2.41,1.96c1.7,1.36,3.44,2.7,5.21,4c0-0.04,0.01-0.08,0.01-0.12
		c0.14-1.14,0.31-2.45,0.49-3.9c0.8-5.79,2.26-13.86,4.5-22.91c2.25-9.04,5.18-19.08,8.51-28.89c1.65-4.91,3.4-9.77,5.15-14.44
		c1.77-4.67,3.5-9.14,5.31-13.34c3.62-8.35,8.52-17.76,15.2-26.13c1.99-2.5,4.14-4.87,6.37-7.1c-7.42,3.2-21.23,9.13-37.74,16.11
		c-12.43,5.21-26.37,11.04-40.21,16.84l-2.55,1.08l-2.58,1.13c-1.74,0.73-3.47,1.45-5.19,2.18c-3.44,1.41-6.85,2.8-10.2,4.17
		c-6.71,2.71-13.22,5.29-19.31,7.64c-11.21,4.32-23.94,9-36.88,13.62l-4.89,1.73c-1.72,0.6-3.33,1.08-4.96,1.61
		c-3.26,1.04-6.49,2.09-9.67,3.17c-3.18,1.08-6.31,2.19-9.31,3.38c-1.5,0.59-2.97,1.21-4.36,1.87c-0.69,0.33-1.37,0.67-1.97,1.02
		c-0.61,0.34-1.17,0.74-1.34,0.95c-0.61,0.75-1.33,1.63-2.33,2.38c-0.51,0.38-0.56,0.39-0.79,0.63c-0.21,0.22-0.46,0.57-0.7,0.91
		c-0.48,0.7-0.96,1.46-1.42,2.23c-0.26,0.43-0.38,0.65-0.53,0.97c-0.14,0.32-0.25,0.67-0.36,1.04c-0.4,1.5-0.55,3.2-0.63,4.85
		c-0.08,1.66-0.07,3.31-0.03,4.92c0.18,6.46,0.7,12.31,0.97,17.2c0.3,4.89,0.43,8.84,0.42,11.56c0,2.72-0.09,4.21-0.09,4.21
		s-0.05-1.49-0.29-4.2c-0.23-2.7-0.69-6.61-1.39-11.44c-0.67-4.84-1.65-10.6-2.33-17.17c-0.16-1.65-0.3-3.34-0.35-5.11
		c-0.04-1.77-0.03-3.6,0.34-5.59c0.1-0.5,0.23-1.01,0.41-1.54c0.15-0.43,0.37-0.9,0.55-1.25c-0.16-0.09-0.33-0.18-0.52-0.27
		c-0.34-0.2-0.76-0.29-1.19-0.46c-0.46-0.07-0.94-0.22-1.48-0.18c-0.53-0.05-1.09,0.11-1.67,0.21c-0.28,0.1-0.57,0.23-0.86,0.35
		c-0.14,0.06-0.29,0.11-0.44,0.19c-0.14,0.09-0.28,0.18-0.42,0.28c-2.28,1.44-4.24,4.22-5.86,7.58c-1.62,3.39-3.02,7.32-4.18,11.69
		c-2.41,8.67-4.5,18.64-6.49,28.53c-1.95,9.91-3.89,19.76-5.58,28.39c-1.72,8.62-3.87,18.45-5.78,28.31
		c-0.89,4.97-1.79,9.95-2.66,14.81c-0.91,4.89-1.79,9.65-2.63,14.14c-0.42,2.24-0.84,4.41-1.24,6.49
		c-0.15,7.95-0.39,17.58-1.09,25.07c-0.6,6.22-1.79,13.8-2.8,20.67h90.87c-0.91-1.57-1.95-3.33-2.98-5.31
		c-1.34-2.57-2.84-5.41-4.42-8.44c-6.18-12.21-12.93-27.88-16.99-40.51c-4.13-12.61-7.95-29.21-10.3-42.68
		c-1.2-6.73-2.06-12.68-2.63-16.93c-0.55-4.26-0.81-6.84-0.81-6.84s0.74,2.48,1.96,6.59c1.26,4.1,3.04,9.81,5.14,16.27
		c4.16,12.94,9.73,28.82,13.81,41.26c4.01,12.46,8.89,28.53,13.3,41.38c1.12,3.21,2.18,6.22,3.13,8.93c0.8,2.38,1.63,4.46,2.32,6.29
		h120.85c-5.58-21.47-18.78-76.95-24.3-106.95C217.73,742.14,217.33,740.84,216.96,739.55z"/>
	<path class="st0" d="M24.09,844.75c0-0.12,0-0.23-0.01-0.35C24.09,844.51,24.09,844.63,24.09,844.75z"/>
	<path class="st0" d="M252.94,589.91c0.25-0.08,0.49-0.16,0.73-0.25C253.43,589.75,253.18,589.83,252.94,589.91z"/>
	<path class="st0" d="M276.19,581.19c0.73-0.67,1.45-1.34,2.19-1.98C277.65,579.85,276.92,580.51,276.19,581.19z"/>
	<path class="st0" d="M311.69,558.01c0.13-0.06,0.25-0.13,0.37-0.19C311.94,557.88,311.82,557.95,311.69,558.01z"/>
	<path class="st0" d="M826.37,840.78c0,0.24,0,0.48,0,0.72C826.37,841.26,826.37,841.03,826.37,840.78z"/>
	<path class="st0" d="M24.22,847.95c0-0.03,0-0.05,0-0.08C24.22,847.9,24.22,847.93,24.22,847.95z"/>
	<path class="st0" d="M826.31,844.4c0,0.12,0,0.23-0.01,0.35C826.3,844.63,826.31,844.51,826.31,844.4z"/>
	<path class="st0" d="M596.65,589.64c0.28,0.09,0.56,0.19,0.85,0.29C597.21,589.83,596.93,589.73,596.65,589.64z"/>
	<path class="st0" d="M826.17,847.88c0,0.03,0,0.05,0,0.08C826.17,847.93,826.17,847.9,826.17,847.88z"/>
	<path class="st0" d="M588.98,587.06c0.21,0.07,0.42,0.14,0.63,0.21C589.4,587.2,589.19,587.13,588.98,587.06z"/>
	<path class="st0" d="M532.58,554.93c0.03,0.01,0.06,0.03,0.09,0.05C532.64,554.96,532.61,554.94,532.58,554.93z"/>
	<path class="st0" d="M530.97,554.05c0.08,0.04,0.15,0.08,0.23,0.12C531.13,554.13,531.05,554.09,530.97,554.05z"/>
	<path class="st0" d="M534.9,556.08c0.07,0.04,0.14,0.07,0.22,0.11C535.04,556.16,534.97,556.12,534.9,556.08z"/>
	<path class="st0" d="M533.96,555.61c0.07,0.04,0.14,0.07,0.22,0.11C534.1,555.68,534.03,555.65,533.96,555.61z"/>
	<path class="st0" d="M315.17,556.25c0.06-0.03,0.13-0.06,0.19-0.1C315.3,556.18,315.24,556.21,315.17,556.25z"/>
	<path class="st0" d="M533.22,555.25c0.05,0.03,0.11,0.05,0.16,0.08C533.33,555.3,533.28,555.27,533.22,555.25z"/>
	<path class="st0" d="M316.92,555.37c0.04-0.02,0.08-0.04,0.12-0.06C317.01,555.33,316.97,555.35,316.92,555.37z"/>
	<path class="st0" d="M316.16,555.75c0.06-0.03,0.12-0.06,0.18-0.09C316.27,555.7,316.22,555.72,316.16,555.75z"/>
	<path class="st0" d="M319.02,554.17c0.18-0.12,0.35-0.23,0.53-0.34C319.37,553.94,319.19,554.06,319.02,554.17z"/>
	<path class="st0" d="M314.16,556.75c0.09-0.05,0.19-0.09,0.28-0.14C314.35,556.66,314.26,556.71,314.16,556.75z"/>
	<path class="st0" d="M319.77,553.7c0.24-0.14,0.48-0.27,0.72-0.38C320.24,553.43,320,553.56,319.77,553.7z"/>
	<path class="st0" d="M584.24,585.47c0.23,0.08,0.45,0.15,0.69,0.23C584.7,585.62,584.47,585.55,584.24,585.47z"/>
	<path class="st0" d="M317.64,555.02c0.02-0.01,0.04-0.02,0.06-0.03C317.68,555,317.66,555,317.64,555.02z"/>
	<path class="st0" d="M324.25,716.34c-1.94-13.64-3.6-29.05-4.79-44.8c-1.16,1.87-2.59,4.16-4.29,6.83
		c-4.92,7.74-12.02,18.56-20.74,30.77c-2.18,3.05-4.45,6.2-6.82,9.4c-1.19,1.6-2.4,3.22-3.61,4.85c-0.62,0.81-1.24,1.63-1.86,2.45
		l-1.01,1.33c-0.5,0.65-1.04,1.27-1.73,1.69c-0.68,0.43-1.51,0.61-2.31,0.57c-0.41-0.02-0.81-0.08-1.22-0.17l-0.6-0.15l-0.47-0.13
		c-1.03-0.27-2.06-0.55-3.09-0.82c-2.06-0.57-4.13-1.19-6.2-1.85c-4.14-1.32-8.26-2.87-12.36-4.55
		c-8.16-3.44-16.16-7.55-23.63-12.31c-3.75-2.35-7.36-4.89-10.82-7.51c-0.86-0.66-1.72-1.32-2.57-1.98
		c-0.01,0.01-0.08-0.04-0.11-0.04c-0.07-0.03-0.1-0.03-0.12-0.03c0,0.03,0.02,0.08,0.03,0.11c0.01,0.06,0.01,0,0.04,0.13
		c0.08,0.52,0.16,1.02,0.24,1.5c0.28,1.75,0.56,3.44,0.83,5.1c0.3,1.65,0.6,3.27,0.89,4.87c1.56,8.24,3.63,17.01,6.01,26.04
		c2.38,9.04,5.13,18.34,7.94,27.68c5.7,18.69,11.26,37.55,16.81,54.15c3.88,11.66,7.78,22.2,11.3,30.94h92.25
		c-2.22-8.87-4.89-19.73-7.74-31.72C336.91,787.12,328.64,747.57,324.25,716.34z M283.76,799.77c-2.09-7.91-4.45-20.54-4.45-20.54
		s4.18,12.13,6.28,20.06c2.09,7.92,4.45,20.54,4.45,20.54S285.85,807.68,283.76,799.77z M288.08,799.58
		c-1.42-4.45-3.02-10.03-4.02-14.45c-1-4.42-1.95-10.15-2.58-14.78c-0.63-4.63-0.98-8.15-0.98-8.15s3.3,13.76,5.4,22.51
		c1.86,8.8,4.8,22.65,4.8,22.65S289.49,804.03,288.08,799.58z"/>
	<path class="st0" d="M594.18,588.81c0.25,0.09,0.51,0.17,0.77,0.26C594.69,588.98,594.43,588.89,594.18,588.81z"/>
	<path class="st0" d="M580.54,584.24c0.03,0.01,0.06,0.02,0.09,0.03C580.6,584.26,580.57,584.25,580.54,584.24z"/>
	<path class="st0" d="M582.46,584.88c0.11,0.04,0.23,0.08,0.34,0.11C582.69,584.95,582.58,584.92,582.46,584.88z"/>
	<path class="st0" d="M538.34,557.83c0.1,0.05,0.2,0.1,0.3,0.16C538.54,557.93,538.44,557.88,538.34,557.83z"/>
	<path class="st0" d="M572.01,579.21c0.74,0.64,1.46,1.31,2.19,1.98C573.48,580.51,572.75,579.85,572.01,579.21z"/>
	<path class="st0" d="M535.89,556.58c0.09,0.05,0.19,0.09,0.28,0.14C536.07,556.68,535.98,556.63,535.89,556.58z"/>
	<path class="st0" d="M591.49,587.9c0.14,0.05,0.27,0.09,0.41,0.14C591.76,587.99,591.62,587.95,591.49,587.9z"/>
	<path class="st0" d="M271.42,583.71c0.09-0.03,0.18-0.06,0.27-0.09C271.6,583.65,271.51,583.68,271.42,583.71z"/>
	<path class="st0" d="M260.82,587.26c0.18-0.06,0.37-0.12,0.55-0.18C261.19,587.13,261.01,587.19,260.82,587.26z"/>
	<path class="st0" d="M258.42,588.06c0.22-0.08,0.44-0.15,0.66-0.22C258.86,587.92,258.64,587.99,258.42,588.06z"/>
	<path class="st0" d="M269.66,584.3c0.16-0.05,0.31-0.1,0.47-0.16C269.97,584.2,269.82,584.25,269.66,584.3z"/>
	<path class="st0" d="M74.21,664.33c-0.01,0.01-0.01,0.02-0.02,0.03l0,0C74.2,664.35,74.21,664.34,74.21,664.33z"/>
	<path class="st0" d="M274.67,582.63C274.67,582.63,274.67,582.63,274.67,582.63c-0.01,0.01-0.03,0.01-0.05,0.02
		C274.64,582.64,274.66,582.64,274.67,582.63C274.67,582.63,274.67,582.63,274.67,582.63z"/>
	<path class="st0" d="M24.09,835.08c0.02-0.58,0.05-1.15,0.08-1.72C24.14,833.93,24.11,834.49,24.09,835.08z"/>
	<path class="st0" d="M24.02,840.77c0,0.25,0,0.5,0,0.75C24.02,841.26,24.02,841.01,24.02,840.77z"/>
	<path class="st0" d="M255.54,589.03c0.21-0.07,0.43-0.15,0.64-0.22C255.97,588.89,255.75,588.96,255.54,589.03z"/>
	<path class="st0" d="M259.12,619.76c-6.91,16.37-16.1,37.42-22.27,54.76c-3.12,8.67-5.48,16.43-6.96,22.05
		c-0.36,1.41-0.68,2.68-0.96,3.79c-0.04,0.15-0.07,0.29-0.1,0.43c1.42,1.04,2.87,2.06,4.34,3.06c7.01,4.8,14.54,9.04,22.26,12.69
		c3.88,1.79,7.79,3.46,11.74,4.93c1.97,0.73,3.95,1.43,5.92,2.08c0.99,0.32,1.98,0.63,2.96,0.94l0.43,0.15
		c0.1,0.03,0.2,0.06,0.3,0.09c0.2,0.05,0.43,0.03,0.6-0.08c0.18-0.11,0.31-0.27,0.46-0.43l0.92-1.09c0.66-0.78,1.32-1.56,1.97-2.34
		c1.3-1.56,2.58-3.1,3.84-4.63c2.53-3.05,4.96-6.06,7.3-8.97c9.35-11.65,17.09-21.98,22.5-29.38c2.02-2.76,3.71-5.11,5.05-6.98
		c-1.5-20.05-2.24-40.61-1.87-58.71c0.26-16.27,1.15-30.53,2.03-40.7c0.23-2.29,0.43-4.36,0.61-6.21c-0.89-2.29-1.61-4.59-2.15-6.83
		c-0.24-1.02-0.45-2.02-0.63-3.01c-1.31,0.88-3.48,2.34-6.31,4.25c-4.8,3.28-11.54,7.86-18.63,13.66
		c-7.08,5.79-14.39,12.94-19.97,21.14C266.85,602.61,262.62,611.68,259.12,619.76z M293.2,585.6c0.79-1.62,1.26-2.59,1.26-2.59
		s-0.37,1.02-0.99,2.7c-0.61,1.69-1.44,4.06-2.32,6.76c-1.79,5.41-3.66,12.22-5.05,17.54c-1.39,5.32-3.09,12.17-4.17,17.77
		c-0.55,2.79-0.99,5.26-1.28,7.03c-0.29,1.77-0.46,2.84-0.46,2.84s0.06-1.08,0.17-2.88c0.12-1.79,0.32-4.3,0.64-7.15
		c0.62-5.69,1.87-12.72,3.28-18.1c1.4-5.38,3.75-12.12,5.99-17.39C291.38,589.51,292.42,587.22,293.2,585.6z M280.87,613.69
		c1.02-3.7,1.99-6.93,2.69-9.24c0.72-2.3,1.15-3.69,1.15-3.69s-0.33,1.42-0.86,3.77c-0.53,2.35-1.27,5.64-2.06,9.38
		c-1.6,7.49-3.35,16.83-4.7,24.12c-1.36,7.28-3.1,16.63-4.3,24.19c-0.61,3.78-1.11,7.11-1.46,9.5c-0.34,2.39-0.55,3.82-0.55,3.82
		s0.1-1.45,0.26-3.86c0.17-2.41,0.44-5.77,0.82-9.59c0.74-7.64,2.02-17.1,3.38-24.42C276.59,630.37,278.81,621.08,280.87,613.69z"/>
	<path class="st0" d="M320.75,571.49c-0.13,7.78-0.13,17.91,0.18,29.46c2.82,2.79,5.64,5.58,8.06,8.03
		c4.52,4.6,10.19,10.65,14.91,15.4c2.37,2.37,4.46,4.45,5.95,5.95c1.51,1.48,2.42,2.38,2.42,2.38s-1.05-0.72-2.79-1.92
		c-1.73-1.21-4.14-2.94-6.82-4.98c-5.37-4.07-11.77-9.51-16.35-14.17c-1.68-1.7-3.45-3.65-5.22-5.7c0.07,2.01,0.14,4.06,0.23,6.14
		c0.22,5.97,0.57,12.2,1.01,18.58c0.38,0.56,0.77,1.16,1.2,1.8c2.91,4.3,7.1,10.21,12.27,16.58c5.14,6.39,11.25,13.23,17.65,19.65
		c3.18,3.23,6.48,6.31,9.68,9.27c1.54,1.36,3.49,3.29,4.12,3.5c0.16,0.07,0.2,0.06,0.19,0.06c0.02-0.02-0.01-0.01,0.03-0.02
		c0.06-0.02,0.45-0.24,0.87-0.71c0.43-0.46,0.9-1.11,1.37-1.86c0.54-0.87,1.08-1.75,1.64-2.65c1.13-1.84,2.36-3.68,3.62-5.55
		c2.52-3.73,5.29-7.47,8.19-11.13c5.78-7.33,12.18-14.21,18.17-20c6.04-5.76,11.57-10.5,15.78-13.67c2.12-1.56,3.97-2.6,5.28-3.21
		c0.11-0.05,0.2-0.09,0.3-0.13c0.34-0.53,0.89-1.19,0.89-1.19c-1.38-0.01-3.38-0.04-5.88-0.17c-5-0.26-12.01-0.95-19.88-2.61
		c-7.86-1.63-16.57-4.31-24.82-7.93c-8.26-3.59-16.06-8-22.55-12.32c-3.24-2.16-6.62-4.57-10.05-7.29
		c-3.41-2.72-6.83-5.77-9.93-9.21c-3.1-3.42-5.85-7.29-7.92-11.32c-0.62-1.2-1.18-2.42-1.7-3.64
		C320.84,568.33,320.79,569.86,320.75,571.49z"/>
	<path class="st0" d="M265.5,585.69c0.21-0.07,0.41-0.14,0.61-0.2C265.91,585.55,265.71,585.62,265.5,585.69z"/>
	<path class="st0" d="M267.42,585.05c0.2-0.07,0.41-0.14,0.61-0.2C267.83,584.91,267.62,584.98,267.42,585.05z"/>
	<path class="st0" d="M776.2,664.36C776.2,664.37,776.2,664.37,776.2,664.36c-0.01-0.01-0.01-0.02-0.01-0.03
		C776.19,664.35,776.2,664.36,776.2,664.36C776.2,664.37,776.2,664.37,776.2,664.36z"/>
	<path class="st0" d="M532.16,554.72c-0.01,0-0.02-0.01-0.03-0.01c0,0,0,0,0,0c0,0,0,0,0,0
		C532.14,554.71,532.15,554.72,532.16,554.72z"/>
	<path class="st0" d="M263.24,586.45c0.1-0.03,0.21-0.07,0.31-0.1C263.45,586.38,263.34,586.41,263.24,586.45z"/>
	<path class="st0" d="M618.54,765.3c2.81-9.34,5.56-18.64,7.94-27.68c2.38-9.04,4.45-17.8,6.01-26.04c0.29-1.6,0.59-3.21,0.89-4.87
		c0.27-1.66,0.55-3.35,0.83-5.1c0.08-0.48,0.16-0.98,0.24-1.5c0.02-0.13,0.02-0.07,0.04-0.13c0.01-0.03,0.03-0.08,0.03-0.11
		c-0.02-0.01-0.05,0-0.12,0.03c-0.03,0.01-0.1,0.05-0.11,0.04c-0.86,0.66-1.71,1.32-2.57,1.98c-3.47,2.62-7.07,5.16-10.82,7.51
		c-7.47,4.76-15.47,8.88-23.63,12.31c-4.1,1.68-8.22,3.23-12.36,4.55c-2.07,0.66-4.14,1.28-6.2,1.85c-1.04,0.27-2.07,0.55-3.09,0.82
		l-0.47,0.13l-0.6,0.15c-0.41,0.09-0.82,0.16-1.22,0.17c-0.81,0.04-1.63-0.15-2.31-0.57c-0.69-0.42-1.23-1.03-1.73-1.69l-1.01-1.33
		c-0.62-0.82-1.24-1.64-1.86-2.45c-1.22-1.64-2.42-3.25-3.61-4.85c-2.37-3.2-4.64-6.35-6.82-9.4
		c-8.72-12.21-15.81-23.03-20.74-30.77c-1.69-2.67-3.13-4.96-4.29-6.83c-1.19,15.74-2.84,31.15-4.79,44.8
		c-4.39,31.24-12.66,70.78-20.23,102.34c-2.85,11.99-5.53,22.85-7.74,31.72h92.25c3.53-8.74,7.42-19.28,11.3-30.94
		C607.27,802.85,612.84,783.99,618.54,765.3z M564.5,784.71c2.1-8.75,5.4-22.51,5.4-22.51s-0.35,3.52-0.98,8.15
		c-0.63,4.63-1.58,10.36-2.58,14.78c-1,4.42-2.6,10-4.02,14.45c-1.42,4.45-2.62,7.78-2.62,7.78S562.63,793.51,564.5,784.71z
		 M566.63,799.77c-2.09,7.91-6.28,20.06-6.28,20.06s2.36-12.61,4.45-20.54s6.28-20.06,6.28-20.06S568.73,791.86,566.63,799.77z"/>
	<path class="st0" d="M318.8,554.32c-0.21,0.14-0.42,0.29-0.63,0.43c0,0,0,0,0,0c0,0,0,0,0,0
		C318.38,554.61,318.59,554.46,318.8,554.32z"/>
	<path class="st0" d="M819.98,799.53C819.98,799.52,819.98,799.52,819.98,799.53c0-0.02,0-0.03,0-0.03
		C819.98,799.5,819.98,799.51,819.98,799.53C819.98,799.52,819.98,799.52,819.98,799.53z"/>
	<path class="st0" d="M817.32,804.65c-0.4-2.08-0.82-4.25-1.24-6.49c-0.83-4.49-1.72-9.25-2.63-14.14
		c-0.87-4.86-1.77-9.84-2.66-14.81c-1.91-9.86-4.07-19.69-5.78-28.31c-1.7-8.63-3.63-18.47-5.58-28.39
		c-2-9.89-4.08-19.86-6.49-28.53c-1.16-4.36-2.56-8.3-4.18-11.69c-1.62-3.37-3.58-6.15-5.86-7.58c-0.14-0.09-0.28-0.19-0.42-0.28
		c-0.14-0.07-0.29-0.13-0.44-0.19c-0.29-0.12-0.57-0.25-0.86-0.35c-0.58-0.1-1.14-0.27-1.67-0.21c-0.54-0.04-1.02,0.11-1.48,0.18
		c-0.43,0.16-0.86,0.26-1.19,0.46c-0.19,0.09-0.36,0.17-0.52,0.27c0.18,0.35,0.4,0.83,0.55,1.25c0.18,0.53,0.31,1.04,0.41,1.54
		c0.37,1.99,0.38,3.82,0.34,5.59c-0.05,1.77-0.19,3.47-0.35,5.11c-0.69,6.57-1.66,12.32-2.33,17.17c-0.7,4.84-1.16,8.74-1.39,11.44
		c-0.24,2.7-0.29,4.2-0.29,4.2s-0.08-1.49-0.09-4.21c-0.01-2.72,0.12-6.67,0.42-11.56c0.27-4.89,0.79-10.74,0.97-17.2
		c0.04-1.61,0.05-3.26-0.03-4.92c-0.08-1.65-0.24-3.34-0.63-4.85c-0.1-0.37-0.22-0.72-0.36-1.04c-0.14-0.32-0.26-0.53-0.53-0.97
		c-0.46-0.77-0.94-1.52-1.42-2.23c-0.24-0.34-0.49-0.69-0.7-0.91c-0.23-0.24-0.27-0.25-0.79-0.63c-1-0.76-1.72-1.64-2.33-2.38
		c-0.17-0.2-0.73-0.6-1.34-0.95c-0.6-0.35-1.28-0.69-1.97-1.02c-1.39-0.66-2.86-1.27-4.36-1.87c-3-1.19-6.13-2.3-9.31-3.38
		c-3.18-1.08-6.41-2.13-9.67-3.17c-1.63-0.53-3.25-1.01-4.96-1.61l-4.89-1.73c-12.94-4.62-25.67-9.3-36.88-13.62
		c-6.1-2.35-12.6-4.92-19.31-7.64c-3.35-1.37-6.76-2.76-10.2-4.17c-1.72-0.72-3.46-1.45-5.19-2.18l-2.58-1.13l-2.55-1.08
		c-13.84-5.8-27.78-11.63-40.21-16.84c-16.51-6.98-30.32-12.91-37.74-16.11c2.23,2.24,4.39,4.6,6.37,7.1
		c6.68,8.37,11.58,17.79,15.2,26.13c1.81,4.2,3.54,8.67,5.31,13.34c1.75,4.67,3.5,9.53,5.15,14.44c3.33,9.81,6.26,19.85,8.51,28.89
		c2.25,9.05,3.71,17.11,4.5,22.91c0.18,1.45,0.35,2.76,0.49,3.9c0,0.04,0.01,0.08,0.01,0.12c1.77-1.31,3.51-2.65,5.21-4
		c0.81-0.65,1.61-1.31,2.41-1.96c1.6-1.39,3.19-2.78,4.77-4.17c3.19-2.76,6.28-5.62,9.41-8.42c-0.42,3.97-0.81,7.78-1.2,11.46
		c-0.39,3.25-0.77,6.39-1.14,9.44c-0.28,1.8-0.55,3.56-0.82,5.27c-0.31,1.7-0.61,3.37-0.91,5.01c-1.61,8.48-3.84,17.42-6.46,26.55
		c-0.37,1.29-0.77,2.59-1.16,3.89c-5.53,30-18.72,85.49-24.3,106.95h120.85c0.68-1.83,1.52-3.91,2.32-6.29
		c0.95-2.71,2.01-5.73,3.13-8.93c4.4-12.85,9.28-28.92,13.3-41.38c4.08-12.44,9.65-28.31,13.81-41.26
		c2.1-6.46,3.88-12.17,5.14-16.27c1.22-4.11,1.96-6.59,1.96-6.59s-0.25,2.57-0.81,6.84c-0.57,4.26-1.43,10.2-2.63,16.93
		c-2.35,13.47-6.16,30.07-10.3,42.68c-4.07,12.63-10.81,28.3-16.99,40.51c-1.59,3.03-3.08,5.88-4.42,8.44
		c-1.03,1.99-2.07,3.75-2.98,5.31h90.87c-1.01-6.88-2.2-14.45-2.8-20.67C817.72,822.23,817.48,812.59,817.32,804.65z"/>
	<path class="st0" d="M24.02,838.28c0-0.4,0.02-0.8,0.02-1.2C24.04,837.48,24.03,837.87,24.02,838.28z"/>
	<path class="st0" d="M240.67,594.07c0.26-0.09,0.53-0.18,0.79-0.27C241.19,593.89,240.93,593.99,240.67,594.07z"/>
	<path class="st0" d="M244.14,592.89c0.27-0.09,0.54-0.18,0.8-0.27C244.67,592.71,244.41,592.8,244.14,592.89z"/>
	<path class="st0" d="M237.62,595.11c0.3-0.1,0.6-0.21,0.9-0.31C238.22,594.91,237.92,595.01,237.62,595.11z"/>
	<path class="st0" d="M29.84,801.65c0.04-0.13,0.07-0.26,0.1-0.39C29.91,801.39,29.88,801.52,29.84,801.65z"/>
	<path class="st0" d="M250.3,590.8c0.03-0.01,0.06-0.02,0.09-0.03C250.36,590.78,250.33,590.79,250.3,590.8z"/>
	<path class="st0" d="M246.94,591.94c0.29-0.1,0.58-0.2,0.87-0.29C247.52,591.75,247.23,591.84,246.94,591.94z"/>
	<path class="st0" d="M74.84,663.12c0.23-0.42,0.46-0.84,0.72-1.27C75.31,662.28,75.07,662.7,74.84,663.12z"/>
	<path class="st0" d="M24.24,831.97c0.06-1.02,0.14-2.01,0.23-2.97C24.38,829.96,24.3,830.96,24.24,831.97z"/>
	<path class="st0" d="M431.58,619.13c0.01-0.05,0.02-0.08,0.03-0.08C431.6,619.05,431.59,619.08,431.58,619.13z"/>
	<path class="st0" d="M423.72,668.86c0.24-9.05,0.51-17.83,0.78-25.85c0.27-7.24,0.52-13.88,0.74-19.62
		c-0.77-0.24-2.01-0.44-2.61-0.21c-0.17,0.06-0.21,0.01-0.19-0.1c-1.19,0.78-2.78,2.01-4.58,3.75c-3.66,3.62-8.53,9.04-13.77,15.33
		c-5.22,6.34-10.75,13.66-15.81,21.19c-2.53,3.76-4.99,7.56-7.26,11.28c-1.13,1.87-2.26,3.69-3.3,5.5
		c-0.55,0.92-1.09,1.84-1.62,2.73c-0.61,1-1.31,2.03-2.24,3.04c-0.93,0.99-2.18,2.1-4.09,2.73c-0.95,0.3-2.02,0.42-3.05,0.32
		c-1.05-0.11-2.04-0.45-2.82-0.86c-1.59-0.83-2.57-1.83-3.38-2.6c-0.79-0.78-1.58-1.56-2.39-2.35c-3.17-3.21-6.36-6.6-9.37-10.17
		c-6.07-7.1-11.58-14.71-16.04-21.77c-4.49-7.03-7.91-13.51-10.22-18.18c0-0.01-0.01-0.01-0.01-0.02c2,27.55,5.72,57.69,9.22,82.25
		c4.35,31.01,10.74,70.71,16.46,102.63c2.2,12.29,4.19,23.43,5.81,32.48h72.16c-1.05-26.25-3.22-85.97-3.22-127.78
		C422.92,706.18,423.25,686.97,423.72,668.86z"/>
	<path class="st0" d="M431.61,619.05c0.01,0,0.02,0.03,0.03,0.07C431.63,619.08,431.62,619.05,431.61,619.05z"/>
	<path class="st0" d="M431.55,619.32c-0.17,0.04-0.34,0.07-0.51,0.11C431.21,619.39,431.38,619.36,431.55,619.32L431.55,619.32z"/>
	<path class="st0" d="M529.22,555.56c0-0.08,0-0.15-0.01-0.2C529.22,555.41,529.22,555.48,529.22,555.56z"/>
	<path class="st0" d="M532.85,612.13c0.37,18.1-0.37,38.66-1.87,58.71c1.33,1.86,3.03,4.21,5.05,6.98
		c5.41,7.4,13.15,17.72,22.5,29.38c2.34,2.91,4.77,5.91,7.3,8.97c1.27,1.52,2.55,3.07,3.84,4.63c0.65,0.78,1.31,1.56,1.97,2.34
		l0.92,1.09c0.14,0.16,0.28,0.32,0.46,0.43c0.18,0.12,0.4,0.13,0.6,0.08c0.1-0.02,0.2-0.05,0.3-0.09l0.43-0.15
		c0.98-0.31,1.97-0.63,2.96-0.94c1.97-0.65,3.95-1.35,5.92-2.08c3.94-1.47,7.86-3.14,11.74-4.93c7.72-3.65,15.26-7.89,22.26-12.69
		c1.47-0.99,2.92-2.02,4.34-3.06c-0.03-0.14-0.07-0.28-0.1-0.43c-0.28-1.11-0.6-2.38-0.96-3.79c-1.48-5.62-3.84-13.38-6.96-22.05
		c-6.18-17.34-15.36-38.39-22.27-54.76c-3.51-8.08-7.73-17.15-13.39-25.34c-5.58-8.21-12.9-15.35-19.97-21.14
		c-7.08-5.8-13.82-10.37-18.63-13.66c-2.83-1.91-5-3.37-6.31-4.25c-0.18,0.99-0.38,1.99-0.63,3.01c-0.54,2.24-1.26,4.54-2.15,6.83
		c0.18,1.85,0.39,3.93,0.61,6.21C531.7,581.6,532.59,595.86,532.85,612.13z M566.83,604.45c0.71,2.31,1.67,5.54,2.69,9.24
		c2.06,7.39,4.28,16.68,5.64,23.99c1.37,7.32,2.65,16.78,3.38,24.42c0.38,3.82,0.65,7.18,0.82,9.59c0.16,2.41,0.26,3.86,0.26,3.86
		s-0.21-1.44-0.55-3.82c-0.35-2.39-0.85-5.71-1.46-9.5c-1.2-7.56-2.94-16.91-4.3-24.19c-1.36-7.28-3.1-16.63-4.7-24.12
		c-0.79-3.75-1.53-7.03-2.06-9.38c-0.54-2.35-0.86-3.77-0.86-3.77S566.11,602.15,566.83,604.45z M557.2,585.6
		c0.77,1.62,1.82,3.91,2.93,6.55c2.24,5.27,4.59,12.01,5.99,17.39c1.41,5.38,2.66,12.41,3.28,18.1c0.32,2.85,0.52,5.35,0.64,7.15
		c0.1,1.79,0.17,2.88,0.17,2.88s-0.17-1.07-0.46-2.84c-0.29-1.77-0.73-4.24-1.28-7.03c-1.08-5.59-2.78-12.45-4.17-17.77
		c-1.39-5.32-3.26-12.13-5.05-17.54c-0.88-2.71-1.71-5.07-2.32-6.76c-0.62-1.69-0.99-2.7-0.99-2.7S556.41,583.99,557.2,585.6z"/>
	<path class="st0" d="M434.21,621.13c-0.39,0.14-1.34,0.46-2.48,0.84c-0.04,0.44-0.08,0.85-0.12,0.85c-0.03,0-0.08-0.37-0.11-0.78
		c-0.96,0.32-2.02,0.66-2.98,0.94c1.26,0.62,2.9,1.57,4.76,2.95c4.21,3.16,9.74,7.9,15.78,13.67c6,5.79,12.39,12.67,18.17,20
		c2.89,3.66,5.67,7.4,8.19,11.13c1.26,1.87,2.49,3.71,3.62,5.55c0.55,0.9,1.1,1.78,1.64,2.65c0.47,0.75,0.95,1.4,1.37,1.86
		c0.42,0.47,0.81,0.69,0.87,0.71c0.04,0.01,0.01,0.01,0.03,0.02c-0.01,0,0.03,0.02,0.19-0.06c0.63-0.21,2.58-2.14,4.12-3.5
		c3.21-2.95,6.5-6.04,9.68-9.27c6.4-6.42,12.51-13.26,17.65-19.65c5.17-6.37,9.36-12.28,12.27-16.58c0.43-0.64,0.83-1.23,1.2-1.8
		c0.44-6.38,0.79-12.61,1.01-18.58c0.09-2.08,0.16-4.13,0.23-6.15c-1.77,2.05-3.55,4-5.22,5.7c-4.58,4.66-10.98,10.1-16.35,14.17
		c-2.68,2.04-5.08,3.77-6.82,4.98c-1.74,1.2-2.79,1.92-2.79,1.92s0.91-0.89,2.42-2.38c1.49-1.49,3.58-3.58,5.95-5.95
		c4.72-4.76,10.39-10.8,14.91-15.4c2.42-2.45,5.24-5.24,8.06-8.03c0.31-11.55,0.31-21.68,0.18-29.46c-0.04-1.64-0.08-3.16-0.12-4.58
		c-0.52,1.22-1.07,2.43-1.7,3.64c-2.07,4.03-4.81,7.9-7.92,11.32c-3.1,3.44-6.52,6.49-9.93,9.21c-3.43,2.72-6.81,5.13-10.05,7.29
		c-6.48,4.32-14.28,8.73-22.55,12.32c-8.26,3.62-16.96,6.29-24.82,7.93C445.46,620.11,439.07,620.82,434.21,621.13z"/>
	<path class="st0" d="M529.95,553.57c-0.21,0.73-0.44,1.46-0.68,2.2l0,0C529.51,555.03,529.74,554.3,529.95,553.57z"/>
	<path class="st0" d="M443.34,616.84c1.95-0.4,3.78-0.78,5.48-1.13C447.11,616.06,445.29,616.44,443.34,616.84z"/>
	<path class="st0" d="M529.21,555.16c0,0,0.01,0.09,0.03,0.25C529.22,555.25,529.21,555.16,529.21,555.16z"/>
	<path class="st0" d="M518.68,715.28c3.49-24.57,7.22-54.7,9.22-82.25c0,0.01-0.01,0.01-0.01,0.02
		c-2.32,4.67-5.73,11.15-10.22,18.18c-4.45,7.05-9.97,14.67-16.04,21.77c-3.01,3.57-6.2,6.97-9.37,10.17
		c-0.8,0.79-1.6,1.58-2.39,2.35c-0.8,0.76-1.79,1.76-3.38,2.6c-0.79,0.41-1.77,0.75-2.82,0.86c-1.03,0.1-2.1-0.02-3.05-0.32
		c-1.91-0.63-3.16-1.74-4.09-2.73c-0.93-1.01-1.63-2.04-2.24-3.04c-0.53-0.9-1.07-1.81-1.62-2.73c-1.05-1.81-2.17-3.64-3.3-5.5
		c-2.27-3.73-4.72-7.52-7.26-11.28c-5.06-7.54-10.59-14.86-15.81-21.19c-5.25-6.29-10.12-11.71-13.77-15.33
		c-1.74-1.69-3.29-2.89-4.46-3.67c0.13,1.68,0.25,5.29,0.38,8.46c0.13,3.57,0.27,7.39,0.42,11.4c0.28,8.02,0.55,16.79,0.78,25.85
		c0.47,18.11,0.81,37.32,0.81,53.76c0,41.81-2.18,101.52-3.22,127.78h69.18c1.62-9.06,3.61-20.19,5.81-32.48
		C507.94,785.99,514.32,746.29,518.68,715.28z"/>
	<path class="st0" d="M432.59,619.1c0.96-0.2,1.92-0.41,2.84-0.6C434.5,618.7,433.55,618.9,432.59,619.1z"/>
	<path d="M559.24,592.48c1.79,5.41,3.66,12.22,5.05,17.54c1.39,5.32,3.09,12.17,4.17,17.77c0.55,2.79,0.99,5.26,1.28,7.03
		c0.29,1.77,0.46,2.84,0.46,2.84s-0.06-1.08-0.17-2.88c-0.12-1.79-0.32-4.3-0.64-7.15c-0.62-5.69-1.87-12.72-3.28-18.1
		c-1.4-5.38-3.75-12.12-5.99-17.39c-1.11-2.64-2.16-4.92-2.93-6.55c-0.79-1.62-1.26-2.59-1.26-2.59s0.37,1.02,0.99,2.7
		C557.53,587.4,558.36,589.77,559.24,592.48z"/>
	<path d="M568.6,613.91c1.6,7.49,3.35,16.83,4.7,24.12c1.36,7.28,3.1,16.63,4.3,24.19c0.61,3.78,1.11,7.11,1.46,9.5
		c0.34,2.39,0.55,3.82,0.55,3.82s-0.1-1.45-0.26-3.86c-0.17-2.41-0.44-5.77-0.82-9.59c-0.74-7.64-2.02-17.1-3.38-24.42
		c-1.36-7.32-3.58-16.6-5.64-23.99c-1.02-3.7-1.99-6.93-2.69-9.24c-0.72-2.3-1.15-3.69-1.15-3.69s0.33,1.42,0.86,3.77
		C567.08,606.88,567.81,610.17,568.6,613.91z"/>
	<path d="M566.34,785.12c1-4.42,1.95-10.15,2.58-14.78c0.63-4.63,0.98-8.15,0.98-8.15s-3.3,13.76-5.4,22.51
		c-1.86,8.8-4.8,22.65-4.8,22.65s1.2-3.33,2.62-7.78C563.74,795.13,565.34,789.54,566.34,785.12z"/>
	<path d="M560.36,819.83c0,0,4.19-12.15,6.28-20.06c2.09-7.91,4.45-20.54,4.45-20.54s-4.18,12.13-6.28,20.06
		S560.36,819.83,560.36,819.83z"/>
	<path d="M737.75,836.64c6.18-12.21,12.93-27.88,16.99-40.51c4.13-12.61,7.95-29.21,10.3-42.68c1.2-6.73,2.06-12.68,2.63-16.93
		c0.55-4.26,0.81-6.84,0.81-6.84s-0.74,2.48-1.96,6.59c-1.26,4.1-3.04,9.81-5.14,16.27c-4.16,12.94-9.73,28.82-13.81,41.26
		c-4.01,12.46-8.89,28.53-13.3,41.38c-1.12,3.21-2.18,6.22-3.13,8.93c-0.8,2.38-1.63,4.46-2.32,6.29h1.52
		c0.91-1.57,1.95-3.33,2.98-5.31C734.67,842.51,736.16,839.67,737.75,836.64z"/>
	<path d="M281,627.64c-0.32,2.85-0.52,5.35-0.64,7.15c-0.1,1.79-0.17,2.88-0.17,2.88s0.17-1.07,0.46-2.84
		c0.29-1.77,0.73-4.24,1.28-7.03c1.08-5.59,2.78-12.45,4.17-17.77c1.39-5.32,3.26-12.13,5.05-17.54c0.88-2.71,1.71-5.07,2.32-6.76
		c0.62-1.69,0.99-2.7,0.99-2.7s-0.47,0.97-1.26,2.59c-0.77,1.62-1.82,3.91-2.93,6.55c-2.24,5.27-4.59,12.01-5.99,17.39
		C282.87,614.92,281.62,621.95,281,627.64z"/>
	<path d="M271.03,671.69c-0.16,2.41-0.26,3.86-0.26,3.86s0.21-1.44,0.55-3.82c0.35-2.39,0.85-5.71,1.46-9.5
		c1.2-7.56,2.94-16.91,4.3-24.19c1.36-7.28,3.1-16.63,4.7-24.12c0.79-3.75,1.53-7.03,2.06-9.38c0.54-2.35,0.86-3.77,0.86-3.77
		s-0.43,1.39-1.15,3.69c-0.71,2.31-1.67,5.54-2.69,9.24c-2.06,7.39-4.28,16.68-5.64,23.99c-1.37,7.32-2.65,16.78-3.38,24.42
		C271.47,665.92,271.2,669.28,271.03,671.69z"/>
	<path d="M280.5,762.2c0,0,0.35,3.52,0.98,8.15c0.63,4.63,1.58,10.36,2.58,14.78c1,4.42,2.6,10,4.02,14.45
		c1.42,4.45,2.62,7.78,2.62,7.78s-2.93-13.85-4.8-22.65C283.8,775.96,280.5,762.2,280.5,762.2z"/>
	<path d="M279.3,779.23c0,0,2.36,12.63,4.45,20.54c2.09,7.91,6.28,20.06,6.28,20.06s-2.36-12.61-4.45-20.54
		C283.49,791.36,279.3,779.23,279.3,779.23z"/>
	<path d="M24.08,844.4c0,0.12,0,0.23,0.01,0.35c0.03,1.05,0.08,2.09,0.13,3.13c0,0.03,0,0.05,0,0.08c0.04,0.82,0.09,1.63,0.14,2.44
		h4.81c1.01-6.88,2.2-14.45,2.8-20.67c0.7-7.49,0.94-17.13,1.09-25.07c0.4-2.08,0.82-4.25,1.24-6.49c0.83-4.49,1.72-9.25,2.63-14.14
		c0.87-4.86,1.77-9.84,2.66-14.81c1.91-9.86,4.07-19.69,5.78-28.31c1.7-8.63,3.63-18.47,5.58-28.39c2-9.89,4.08-19.86,6.49-28.53
		c1.16-4.36,2.56-8.3,4.18-11.69c1.62-3.37,3.58-6.15,5.86-7.58c0.14-0.09,0.28-0.19,0.42-0.28c0.14-0.07,0.29-0.13,0.44-0.19
		c0.29-0.12,0.57-0.25,0.86-0.35c0.58-0.1,1.14-0.27,1.67-0.21c0.54-0.04,1.02,0.11,1.48,0.18c0.43,0.16,0.86,0.26,1.19,0.46
		c0.19,0.09,0.36,0.17,0.52,0.27c-0.18,0.35-0.4,0.83-0.55,1.25c-0.18,0.53-0.31,1.04-0.41,1.54c-0.37,1.99-0.38,3.82-0.34,5.59
		c0.05,1.77,0.19,3.47,0.35,5.11c0.69,6.57,1.66,12.32,2.33,17.17c0.7,4.84,1.16,8.74,1.39,11.44c0.24,2.7,0.29,4.2,0.29,4.2
		s0.08-1.49,0.09-4.21c0.01-2.72-0.12-6.67-0.42-11.56c-0.27-4.89-0.79-10.74-0.97-17.2c-0.04-1.61-0.05-3.26,0.03-4.92
		c0.08-1.65,0.24-3.34,0.63-4.85c0.1-0.37,0.22-0.72,0.36-1.04c0.14-0.32,0.26-0.53,0.53-0.97c0.46-0.77,0.94-1.52,1.42-2.23
		c0.24-0.34,0.49-0.69,0.7-0.91c0.23-0.24,0.27-0.25,0.79-0.63c1-0.76,1.72-1.64,2.33-2.38c0.17-0.2,0.73-0.6,1.34-0.95
		c0.6-0.35,1.28-0.69,1.97-1.02c1.39-0.66,2.86-1.27,4.36-1.87c3-1.19,6.13-2.3,9.31-3.38c3.18-1.08,6.41-2.13,9.67-3.17
		c1.63-0.53,3.25-1.01,4.96-1.61l4.89-1.73c12.94-4.62,25.67-9.3,36.88-13.62c6.1-2.35,12.6-4.92,19.31-7.64
		c3.35-1.37,6.76-2.76,10.2-4.17c1.72-0.72,3.46-1.45,5.19-2.18l2.58-1.13l2.55-1.08c13.84-5.8,27.78-11.63,40.21-16.84
		c16.51-6.98,30.32-12.91,37.74-16.11c-2.23,2.24-4.39,4.6-6.37,7.1c-6.68,8.37-11.58,17.79-15.2,26.13
		c-1.81,4.2-3.54,8.67-5.31,13.34c-1.75,4.67-3.5,9.53-5.15,14.44c-3.33,9.81-6.26,19.85-8.51,28.89
		c-2.25,9.05-3.71,17.11-4.5,22.91c-0.18,1.45-0.35,2.76-0.49,3.9c0,0.04-0.01,0.08-0.01,0.12c-1.77-1.31-3.51-2.65-5.21-4
		c-0.81-0.65-1.61-1.31-2.41-1.96c-1.6-1.39-3.19-2.78-4.77-4.17c-3.19-2.76-6.28-5.62-9.41-8.42c0.42,3.97,0.81,7.78,1.2,11.46
		c0.39,3.25,0.77,6.39,1.14,9.44c0.28,1.8,0.55,3.56,0.82,5.27c0.31,1.7,0.61,3.37,0.91,5.01c1.61,8.48,3.84,17.42,6.46,26.55
		c0.37,1.29,0.77,2.59,1.16,3.89c5.53,30,18.72,85.49,24.3,106.95h17.56c-3.53-8.74-7.42-19.28-11.3-30.94
		c-5.55-16.6-11.12-35.47-16.81-54.15c-2.81-9.34-5.56-18.64-7.94-27.68c-2.38-9.04-4.45-17.8-6.01-26.04
		c-0.29-1.6-0.59-3.21-0.89-4.87c-0.27-1.66-0.55-3.35-0.83-5.1c-0.08-0.48-0.16-0.98-0.24-1.5c-0.02-0.13-0.02-0.07-0.04-0.13
		c-0.01-0.03-0.03-0.08-0.03-0.11c0.02-0.01,0.05,0,0.12,0.03c0.03,0.01,0.1,0.05,0.11,0.04c0.86,0.66,1.71,1.32,2.57,1.98
		c3.47,2.62,7.07,5.16,10.82,7.51c7.47,4.76,15.47,8.88,23.63,12.31c4.1,1.68,8.22,3.23,12.36,4.55c2.07,0.66,4.14,1.28,6.2,1.85
		c1.04,0.27,2.07,0.55,3.09,0.82l0.47,0.13l0.6,0.15c0.41,0.09,0.82,0.16,1.22,0.17c0.81,0.04,1.63-0.15,2.31-0.57
		c0.69-0.42,1.23-1.03,1.73-1.69l1.01-1.33c0.62-0.82,1.24-1.64,1.86-2.45c1.22-1.64,2.42-3.25,3.61-4.85
		c2.37-3.2,4.64-6.35,6.82-9.4c8.72-12.21,15.81-23.03,20.74-30.77c1.69-2.67,3.13-4.96,4.29-6.83c1.19,15.74,2.84,31.15,4.79,44.8
		c4.39,31.24,12.66,70.78,20.23,102.34c2.85,11.99,5.53,22.85,7.74,31.72h1.76c-1.62-9.06-3.61-20.19-5.81-32.48
		c-5.72-31.92-12.1-71.62-16.46-102.63c-3.49-24.57-7.22-54.7-9.22-82.25c0,0.01,0.01,0.01,0.01,0.02
		c2.32,4.67,5.73,11.15,10.22,18.18c4.45,7.05,9.97,14.67,16.04,21.77c3.01,3.57,6.2,6.97,9.37,10.17c0.8,0.79,1.6,1.58,2.39,2.35
		c0.8,0.76,1.79,1.76,3.38,2.6c0.79,0.41,1.77,0.75,2.82,0.86c1.03,0.1,2.1-0.02,3.05-0.32c1.91-0.63,3.16-1.74,4.09-2.73
		c0.93-1.01,1.63-2.04,2.24-3.04c0.53-0.9,1.07-1.81,1.62-2.73c1.05-1.81,2.17-3.64,3.3-5.5c2.27-3.73,4.72-7.52,7.26-11.28
		c5.06-7.54,10.59-14.86,15.81-21.19c5.25-6.29,10.12-11.71,13.77-15.33c1.79-1.75,3.39-2.97,4.58-3.75
		c-0.03,0.11,0.02,0.17,0.19,0.1c0.6-0.23,1.84-0.03,2.61,0.21c-0.21,5.74-0.46,12.38-0.74,19.62c-0.28,8.02-0.55,16.79-0.78,25.85
		c-0.47,18.11-0.81,37.32-0.81,53.76c0,41.81,2.18,101.52,3.22,127.78h1.1c1.05-26.25,3.22-85.97,3.22-127.78
		c0-16.44-0.34-35.65-0.81-53.76c-0.24-9.05-0.51-17.83-0.78-25.85c-0.15-4.01-0.29-7.83-0.42-11.4c-0.13-3.17-0.26-6.78-0.38-8.46
		c1.18,0.78,2.72,1.98,4.46,3.67c3.66,3.62,8.53,9.04,13.77,15.33c5.22,6.34,10.75,13.66,15.81,21.19
		c2.53,3.76,4.99,7.56,7.26,11.28c1.13,1.87,2.26,3.69,3.3,5.5c0.55,0.92,1.09,1.84,1.62,2.73c0.61,1,1.31,2.03,2.24,3.04
		c0.93,0.99,2.18,2.1,4.09,2.73c0.95,0.3,2.02,0.42,3.05,0.32c1.05-0.11,2.04-0.45,2.82-0.86c1.59-0.83,2.57-1.83,3.38-2.6
		c0.79-0.78,1.58-1.56,2.39-2.35c3.17-3.21,6.36-6.6,9.37-10.17c6.07-7.1,11.58-14.71,16.04-21.77c4.49-7.03,7.91-13.51,10.22-18.18
		c0-0.01,0.01-0.01,0.01-0.02c-2,27.55-5.72,57.69-9.22,82.25c-4.35,31.01-10.74,70.71-16.46,102.63
		c-2.2,12.29-4.19,23.43-5.81,32.48h1.76c2.22-8.87,4.89-19.73,7.74-31.72c7.57-31.55,15.85-71.1,20.23-102.34
		c1.94-13.64,3.6-29.05,4.79-44.8c1.16,1.87,2.59,4.16,4.29,6.83c4.92,7.74,12.02,18.56,20.74,30.77c2.18,3.05,4.45,6.2,6.82,9.4
		c1.19,1.6,2.4,3.22,3.61,4.85c0.62,0.81,1.24,1.63,1.86,2.45l1.01,1.33c0.5,0.65,1.04,1.27,1.73,1.69
		c0.68,0.43,1.51,0.61,2.31,0.57c0.41-0.02,0.81-0.08,1.22-0.17l0.6-0.15l0.47-0.13c1.03-0.27,2.06-0.55,3.09-0.82
		c2.06-0.57,4.13-1.19,6.2-1.85c4.14-1.32,8.26-2.87,12.36-4.55c8.16-3.44,16.16-7.55,23.63-12.31c3.75-2.35,7.36-4.89,10.82-7.51
		c0.86-0.66,1.72-1.32,2.57-1.98c0.01,0.01,0.08-0.04,0.11-0.04c0.07-0.03,0.1-0.03,0.12-0.03c0,0.03-0.02,0.08-0.03,0.11
		c-0.01,0.06-0.01,0-0.04,0.13c-0.08,0.52-0.16,1.02-0.24,1.5c-0.28,1.75-0.56,3.44-0.83,5.1c-0.3,1.65-0.6,3.27-0.89,4.87
		c-1.56,8.24-3.63,17.01-6.01,26.04c-2.38,9.04-5.13,18.34-7.94,27.68c-5.7,18.69-11.26,37.55-16.81,54.15
		c-3.88,11.66-7.78,22.2-11.3,30.94h17.56c5.58-21.47,18.78-76.95,24.3-106.95c0.39-1.3,0.79-2.6,1.16-3.89
		c2.62-9.13,4.85-18.07,6.46-26.55c0.3-1.64,0.6-3.31,0.91-5.01c0.27-1.71,0.54-3.46,0.82-5.27c0.37-3.05,0.75-6.18,1.14-9.44
		c0.38-3.68,0.78-7.49,1.2-11.46c-3.13,2.8-6.22,5.66-9.41,8.42c-1.58,1.38-3.17,2.77-4.77,4.17c-0.8,0.65-1.61,1.3-2.41,1.96
		c-1.7,1.36-3.44,2.7-5.21,4c0-0.04-0.01-0.08-0.01-0.12c-0.14-1.14-0.31-2.45-0.49-3.9c-0.8-5.79-2.26-13.86-4.5-22.91
		c-2.25-9.04-5.18-19.08-8.51-28.89c-1.65-4.91-3.4-9.77-5.15-14.44c-1.77-4.67-3.5-9.14-5.31-13.34
		c-3.62-8.35-8.52-17.76-15.2-26.13c-1.99-2.5-4.14-4.87-6.37-7.1c7.42,3.2,21.23,9.13,37.74,16.11
		c12.43,5.21,26.37,11.04,40.21,16.84l2.55,1.08l2.58,1.13c1.74,0.73,3.47,1.45,5.19,2.18c3.44,1.41,6.85,2.8,10.2,4.17
		c6.71,2.71,13.22,5.29,19.31,7.64c11.21,4.32,23.94,9,36.88,13.62l4.89,1.73c1.72,0.6,3.33,1.08,4.96,1.61
		c3.26,1.04,6.49,2.09,9.67,3.17c3.18,1.08,6.31,2.19,9.31,3.38c1.5,0.59,2.97,1.21,4.36,1.87c0.69,0.33,1.37,0.67,1.97,1.02
		c0.61,0.34,1.17,0.74,1.34,0.95c0.61,0.75,1.33,1.63,2.33,2.38c0.51,0.38,0.56,0.39,0.79,0.63c0.21,0.22,0.46,0.57,0.7,0.91
		c0.48,0.7,0.96,1.46,1.42,2.23c0.26,0.43,0.38,0.65,0.53,0.97c0.14,0.32,0.25,0.67,0.36,1.04c0.4,1.5,0.55,3.2,0.63,4.85
		c0.08,1.66,0.07,3.31,0.03,4.92c-0.19,6.46-0.7,12.31-0.97,17.2c-0.3,4.89-0.43,8.84-0.42,11.56c0,2.72,0.09,4.21,0.09,4.21
		s0.05-1.49,0.29-4.2c0.23-2.7,0.69-6.61,1.39-11.44c0.67-4.84,1.65-10.6,2.33-17.17c0.16-1.65,0.3-3.34,0.35-5.11
		c0.04-1.77,0.03-3.6-0.34-5.59c-0.1-0.5-0.23-1.01-0.41-1.54c-0.15-0.43-0.37-0.9-0.55-1.25c0.16-0.09,0.33-0.18,0.52-0.27
		c0.34-0.2,0.76-0.29,1.19-0.46c0.46-0.07,0.94-0.22,1.48-0.18c0.53-0.05,1.09,0.11,1.67,0.21c0.28,0.1,0.57,0.23,0.86,0.35
		c0.14,0.06,0.29,0.11,0.44,0.19c0.14,0.09,0.28,0.18,0.42,0.28c2.28,1.44,4.24,4.22,5.86,7.58c1.62,3.39,3.02,7.32,4.18,11.69
		c2.41,8.67,4.5,18.64,6.49,28.53c1.95,9.91,3.88,19.76,5.58,28.39c1.72,8.62,3.87,18.45,5.78,28.31c0.89,4.97,1.79,9.95,2.66,14.81
		c0.91,4.89,1.79,9.65,2.63,14.14c0.42,2.24,0.84,4.41,1.24,6.49c0.15,7.95,0.39,17.58,1.09,25.07c0.6,6.22,1.79,13.8,2.8,20.67
		h4.81c0.05-0.81,0.1-1.62,0.14-2.44c0-0.03,0-0.05,0-0.08c0.05-1.04,0.1-2.08,0.13-3.13c0-0.12,0-0.23,0.01-0.35
		c0.03-0.96,0.05-1.93,0.06-2.89c0-0.24,0-0.48,0-0.72c0.01-0.84,0.01-1.68,0-2.51c0-0.4-0.02-0.8-0.02-1.2
		c-0.01-0.67-0.02-1.34-0.05-2c-0.02-0.58-0.05-1.15-0.08-1.72c-0.02-0.46-0.04-0.93-0.07-1.39c-0.06-1.02-0.14-2.01-0.23-2.97
		c-0.73-7.8-2.85-17.63-4.87-25.46c-0.17-0.64-0.33-1.27-0.49-1.89c-0.04-0.14-0.07-0.27-0.11-0.4c-0.16-0.59-0.31-1.17-0.47-1.73
		c0,0,0-0.01,0-0.01c0-0.01,0-0.02,0-0.03c-0.05-0.6-0.1-1.2-0.15-1.81c-0.4-4.54-0.82-9.35-1.25-14.29
		c-0.47-4.94-0.89-9.96-1.49-15.15c-1.25-10.18-2.95-20.12-4.68-28.82c-1.75-8.69-4.09-18.53-6.78-28.37
		c-2.71-9.83-5.73-19.67-9.11-28.27c-1.64-4.31-3.57-8.3-5.68-11.65c-2.11-3.34-4.59-6.13-7.38-7.45c-0.17-0.08-0.34-0.17-0.5-0.25
		c-0.17-0.07-0.36-0.11-0.53-0.16c-0.35-0.09-0.69-0.2-1.03-0.27c-0.69-0.05-1.33-0.13-1.93,0c-0.6,0.04-1.11,0.27-1.59,0.41
		c-0.44,0.23-0.87,0.39-1.19,0.64c-0.17,0.11-0.33,0.22-0.47,0.32c0,0,0,0,0,0c0-0.01-0.01-0.02-0.01-0.03
		c-0.21-0.4-0.42-0.81-0.64-1.22c-0.23-0.42-0.46-0.84-0.72-1.27c-0.27-0.44-0.52-0.87-0.92-1.36c-0.36-0.49-1.05-1.06-1.29-1.25
		c-0.48-0.41-0.95-1.03-1.49-1.8c-0.81-1.05-1.6-1.56-2.33-2.07c-0.75-0.51-1.49-0.94-2.23-1.36c-1.49-0.83-2.99-1.57-4.52-2.29
		c-3.05-1.43-6.17-2.76-9.33-4.04c-3.17-1.28-6.38-2.53-9.6-3.74c-1.6-0.61-3.26-1.2-4.76-1.81l-4.75-1.93
		c-12.71-5.18-25.29-10.24-36.49-14.55c-6.09-2.35-12.64-4.81-19.41-7.33c-3.39-1.25-6.84-2.53-10.31-3.82
		c-3.48-1.3-6.98-2.62-10.5-3.93c-14.15-5.13-28.42-10.06-41.19-14.44c-0.99-0.34-1.97-0.67-2.94-1c-0.3-0.1-0.61-0.21-0.91-0.31
		c-0.7-0.24-1.39-0.47-2.07-0.71c-0.29-0.1-0.59-0.2-0.89-0.3c-0.89-0.3-1.78-0.6-2.65-0.9c-0.27-0.09-0.54-0.18-0.81-0.27
		c-0.67-0.23-1.34-0.45-1.99-0.68c-0.29-0.1-0.58-0.2-0.87-0.29c-0.84-0.29-1.67-0.57-2.49-0.84c-0.03-0.01-0.06-0.02-0.09-0.03
		c-0.85-0.29-1.68-0.57-2.51-0.85c-0.28-0.1-0.56-0.19-0.85-0.29c-0.57-0.19-1.14-0.38-1.7-0.57c-0.26-0.09-0.52-0.17-0.77-0.26
		c-0.78-0.26-1.54-0.52-2.28-0.77c-0.14-0.05-0.27-0.09-0.41-0.14c-0.64-0.21-1.26-0.42-1.87-0.63c-0.21-0.07-0.42-0.14-0.63-0.21
		c-1.42-0.48-2.77-0.93-4.05-1.36c-0.23-0.08-0.46-0.15-0.69-0.23c-0.49-0.16-0.97-0.33-1.44-0.48c-0.11-0.04-0.23-0.08-0.34-0.11
		c-0.63-0.21-1.24-0.42-1.83-0.61c-0.03-0.01-0.06-0.02-0.09-0.03c-1.85-0.62-3.46-1.15-4.82-1.6c-0.5-0.49-1.01-0.97-1.52-1.45
		c-0.72-0.67-1.45-1.34-2.19-1.98c-3.91-3.39-7.95-6.36-11.85-8.95c-7.83-5.17-15.09-8.95-20.27-11.64
		c-0.43-0.22-0.84-0.43-1.25-0.64c-0.1-0.05-0.2-0.1-0.3-0.16c-0.78-0.4-1.51-0.77-2.17-1.1c-0.09-0.05-0.19-0.09-0.28-0.14
		c-0.27-0.14-0.53-0.27-0.77-0.39c-0.07-0.04-0.15-0.07-0.22-0.11c-0.26-0.13-0.5-0.25-0.72-0.36c-0.07-0.04-0.15-0.07-0.22-0.11
		c-0.2-0.1-0.39-0.2-0.57-0.28c-0.05-0.03-0.11-0.06-0.16-0.08c-0.2-0.1-0.38-0.19-0.55-0.27c-0.03-0.02-0.06-0.03-0.09-0.05
		c-0.16-0.08-0.3-0.15-0.42-0.21c-0.01,0-0.02-0.01-0.03-0.01c0,0,0,0,0,0c-0.31-0.19-0.62-0.37-0.93-0.54
		c-0.08-0.04-0.15-0.08-0.23-0.12c-0.33-0.17-0.67-0.34-1.02-0.48c-0.21,0.73-0.44,1.46-0.68,2.2l0,0
		c-0.01-0.15-0.03-0.27-0.04-0.36c-0.02-0.16-0.03-0.25-0.03-0.25s0,0.08,0.01,0.2c0,0.06,0,0.12,0.01,0.2c0,0.1,0.01,0.2,0.01,0.33
		c-0.16,0.47-0.31,0.94-0.49,1.41c-1.33,3.59-3.12,7.22-5.37,10.65c-2.24,3.44-4.96,6.6-8.02,9.48c-6.1,5.75-13.33,10.43-19.6,14.66
		c-6.28,4.18-13.51,8.81-21.13,12.87c-7.6,4.08-15.63,7.53-23.05,10.02c-0.45,0.15-0.89,0.29-1.34,0.44
		c-0.46,0.1-0.93,0.19-1.41,0.29c-1.7,0.35-3.53,0.73-5.48,1.13c-2.44,0.51-5.08,1.07-7.91,1.66c-0.92,0.2-1.87,0.4-2.84,0.6
		c-0.3,0.06-0.61,0.13-0.92,0.19c-0.01-0.07-0.02-0.13-0.03-0.17c-0.01-0.04-0.02-0.07-0.03-0.07c-0.01,0-0.02,0.03-0.03,0.08
		c-0.01,0.05-0.02,0.11-0.03,0.19l0,0c-0.17,0.04-0.34,0.07-0.51,0.11c-0.06,0.01-0.12,0.03-0.19,0.04
		c-4.26,0.38-12.99,0.58-12.99,0.58c-4.87-0.95-11.62-2.56-19.03-5.08c-7.42-2.49-15.45-5.94-23.05-10.02
		c-7.62-4.07-14.86-8.69-21.13-12.87c-6.27-4.23-13.5-8.9-19.6-14.66c-3.06-2.88-5.79-6.04-8.02-9.48
		c-2.25-3.43-4.04-7.06-5.37-10.65c-0.4-1.08-0.85-2.91-1.17-3.98c-0.24,0.11-0.48,0.24-0.72,0.38c-0.07,0.04-0.15,0.09-0.22,0.13
		c-0.18,0.11-0.35,0.22-0.53,0.34c-0.07,0.05-0.14,0.09-0.22,0.14c-0.21,0.14-0.42,0.29-0.63,0.43c0,0,0,0,0,0
		c-0.14,0.07-0.29,0.15-0.47,0.23c-0.02,0.01-0.04,0.02-0.06,0.03c-0.18,0.09-0.37,0.19-0.59,0.29c-0.04,0.02-0.08,0.04-0.12,0.06
		c-0.19,0.09-0.38,0.19-0.59,0.3c-0.06,0.03-0.11,0.06-0.18,0.09c-0.25,0.12-0.51,0.26-0.79,0.4c-0.06,0.03-0.13,0.06-0.19,0.1
		c-0.23,0.12-0.48,0.24-0.73,0.37c-0.09,0.05-0.18,0.09-0.28,0.14c-0.32,0.16-0.66,0.33-1.02,0.51c-0.03,0.02-0.06,0.03-0.09,0.05
		c-0.32,0.16-0.65,0.33-0.99,0.5c-0.12,0.06-0.25,0.13-0.37,0.19c-0.39,0.2-0.78,0.4-1.19,0.61c-5.18,2.68-12.43,6.46-20.27,11.64
		c-3.91,2.6-7.95,5.56-11.85,8.95c-0.74,0.64-1.46,1.31-2.19,1.98c-0.51,0.47-1.02,0.96-1.52,1.44c0,0,0,0,0,0
		c-0.02,0.01-0.03,0.01-0.05,0.02c-0.88,0.29-1.86,0.62-2.94,0.98c-0.09,0.03-0.18,0.06-0.27,0.09c-0.42,0.14-0.85,0.28-1.29,0.43
		c-0.16,0.05-0.31,0.1-0.47,0.16c-0.53,0.18-1.07,0.36-1.63,0.54c-0.2,0.07-0.41,0.14-0.61,0.2c-0.43,0.14-0.86,0.29-1.31,0.44
		c-0.2,0.07-0.4,0.13-0.61,0.2c-0.63,0.21-1.28,0.43-1.95,0.65c-0.1,0.03-0.21,0.07-0.31,0.1c-0.61,0.2-1.23,0.41-1.87,0.63
		c-0.18,0.06-0.36,0.12-0.55,0.18c-0.57,0.19-1.15,0.39-1.75,0.59c-0.22,0.07-0.44,0.15-0.66,0.22c-0.73,0.25-1.48,0.5-2.24,0.75
		c-0.21,0.07-0.43,0.14-0.64,0.22c-0.61,0.21-1.24,0.42-1.87,0.63c-0.24,0.08-0.49,0.16-0.73,0.25c-0.84,0.28-1.69,0.57-2.55,0.86
		c-0.03,0.01-0.06,0.02-0.09,0.03c-0.82,0.28-1.65,0.56-2.49,0.84c-0.29,0.1-0.58,0.2-0.87,0.29c-0.66,0.22-1.32,0.45-1.99,0.68
		c-0.27,0.09-0.53,0.18-0.8,0.27c-0.88,0.3-1.78,0.61-2.68,0.91c-0.26,0.09-0.52,0.18-0.79,0.27c-0.71,0.24-1.43,0.49-2.15,0.73
		c-0.3,0.1-0.6,0.2-0.9,0.31c-0.97,0.33-1.95,0.67-2.94,1c-12.76,4.38-27.04,9.31-41.19,14.44c-3.51,1.32-7.02,2.63-10.5,3.93
		c-3.48,1.29-6.92,2.56-10.31,3.82c-6.78,2.52-13.32,4.98-19.41,7.33c-11.2,4.32-23.79,9.37-36.49,14.55l-4.75,1.93
		c-1.5,0.61-3.16,1.2-4.76,1.81c-3.22,1.21-6.44,2.45-9.6,3.74c-3.17,1.29-6.29,2.61-9.33,4.04c-1.52,0.72-3.03,1.46-4.52,2.29
		c-0.74,0.42-1.48,0.85-2.23,1.36c-0.73,0.52-1.52,1.02-2.33,2.07c-0.54,0.77-1.01,1.39-1.49,1.8c-0.24,0.19-0.94,0.76-1.29,1.25
		c-0.39,0.49-0.65,0.93-0.92,1.36c-0.25,0.43-0.49,0.85-0.72,1.27c-0.22,0.41-0.43,0.81-0.63,1.21c-0.01,0.01-0.01,0.02-0.02,0.03
		l0,0c-0.14-0.11-0.3-0.22-0.47-0.32c-0.32-0.25-0.75-0.41-1.19-0.64c-0.48-0.14-0.99-0.37-1.59-0.41c-0.59-0.13-1.23-0.04-1.93,0
		c-0.33,0.07-0.67,0.18-1.03,0.27c-0.17,0.05-0.36,0.09-0.53,0.16c-0.17,0.08-0.33,0.16-0.5,0.25c-2.8,1.32-5.27,4.11-7.38,7.45
		c-2.11,3.35-4.04,7.35-5.68,11.65c-3.38,8.6-6.4,18.44-9.11,28.27c-2.7,9.84-5.04,19.68-6.78,28.37
		c-1.73,8.7-3.43,18.65-4.68,28.82c-0.6,5.19-1.02,10.21-1.49,15.15c-0.43,4.94-0.85,9.75-1.25,14.29c-0.05,0.62-0.1,1.23-0.15,1.84
		c-0.15,0.56-0.31,1.15-0.47,1.74c-0.03,0.13-0.07,0.26-0.1,0.39c-0.16,0.62-0.33,1.24-0.5,1.89c-2.02,7.83-4.15,17.67-4.87,25.46
		c-0.09,0.96-0.17,1.95-0.23,2.97c-0.03,0.45-0.04,0.92-0.07,1.39c-0.03,0.57-0.06,1.13-0.08,1.72c-0.02,0.66-0.03,1.33-0.05,2
		c-0.01,0.4-0.02,0.79-0.02,1.2c-0.01,0.82,0,1.66,0,2.49c0,0.25,0,0.5,0,0.75C24.03,842.47,24.06,843.43,24.08,844.4z
		 M532.35,558.39c0.24-1.02,0.45-2.02,0.63-3.01c1.31,0.88,3.48,2.34,6.31,4.25c4.8,3.28,11.54,7.86,18.63,13.66
		c7.08,5.79,14.39,12.94,19.97,21.14c5.66,8.19,9.88,17.25,13.39,25.34c6.91,16.37,16.1,37.42,22.27,54.76
		c3.12,8.67,5.47,16.43,6.96,22.05c0.36,1.41,0.68,2.68,0.96,3.79c0.04,0.15,0.07,0.29,0.1,0.43c-1.42,1.04-2.87,2.06-4.34,3.06
		c-7.01,4.8-14.54,9.04-22.26,12.69c-3.88,1.79-7.79,3.46-11.74,4.93c-1.97,0.73-3.95,1.43-5.92,2.08
		c-0.99,0.32-1.98,0.63-2.96,0.94l-0.43,0.15c-0.1,0.03-0.2,0.06-0.3,0.09c-0.2,0.05-0.43,0.03-0.6-0.08
		c-0.18-0.11-0.31-0.27-0.46-0.43l-0.92-1.09c-0.66-0.78-1.32-1.56-1.97-2.34c-1.3-1.56-2.58-3.1-3.84-4.63
		c-2.53-3.05-4.96-6.06-7.3-8.97c-9.35-11.65-17.09-21.98-22.5-29.38c-2.02-2.76-3.71-5.11-5.05-6.98
		c1.5-20.05,2.24-40.61,1.87-58.71c-0.26-16.27-1.15-30.53-2.03-40.7c-0.23-2.29-0.43-4.36-0.61-6.21
		C531.09,562.92,531.81,560.63,532.35,558.39z M477.38,610.69c8.26-3.59,16.06-8,22.55-12.32c3.24-2.16,6.62-4.57,10.05-7.29
		c3.41-2.72,6.83-5.77,9.93-9.21c3.1-3.42,5.85-7.29,7.92-11.32c0.62-1.2,1.18-2.42,1.7-3.64c0.04,1.42,0.08,2.94,0.12,4.58
		c0.13,7.78,0.13,17.91-0.18,29.46c-2.82,2.79-5.64,5.58-8.06,8.03c-4.52,4.6-10.19,10.65-14.91,15.4
		c-2.37,2.37-4.46,4.45-5.95,5.95c-1.51,1.48-2.42,2.38-2.42,2.38s1.05-0.72,2.79-1.92c1.73-1.21,4.14-2.94,6.82-4.98
		c5.37-4.07,11.77-9.51,16.35-14.17c1.68-1.7,3.45-3.66,5.22-5.7c-0.07,2.01-0.14,4.06-0.23,6.15c-0.22,5.97-0.57,12.2-1.01,18.58
		c-0.38,0.56-0.77,1.16-1.2,1.8c-2.91,4.3-7.1,10.21-12.27,16.58c-5.14,6.39-11.25,13.23-17.65,19.65
		c-3.18,3.23-6.48,6.31-9.68,9.27c-1.54,1.36-3.49,3.29-4.12,3.5c-0.16,0.07-0.2,0.06-0.19,0.06c-0.02-0.02,0.01-0.01-0.03-0.02
		c-0.06-0.02-0.45-0.24-0.87-0.71c-0.43-0.46-0.9-1.11-1.37-1.86c-0.54-0.87-1.08-1.75-1.64-2.65c-1.13-1.84-2.36-3.68-3.62-5.55
		c-2.52-3.73-5.29-7.47-8.19-11.13c-5.78-7.33-12.18-14.21-18.17-20c-6.04-5.76-11.57-10.5-15.78-13.67
		c-1.86-1.37-3.49-2.32-4.76-2.95c0.95-0.28,2.01-0.62,2.98-0.94c0.04,0.41,0.08,0.78,0.11,0.78c0.04,0,0.08-0.41,0.12-0.85
		c1.14-0.38,2.09-0.7,2.48-0.84c4.86-0.31,11.24-1.02,18.34-2.52C460.42,616.98,469.12,614.3,477.38,610.69z M322.57,570.55
		c2.07,4.03,4.81,7.9,7.92,11.32c3.1,3.44,6.52,6.49,9.93,9.21c3.43,2.72,6.81,5.13,10.05,7.29c6.48,4.32,14.28,8.73,22.55,12.32
		c8.26,3.62,16.96,6.29,24.82,7.93c7.87,1.66,14.88,2.35,19.88,2.61c2.5,0.13,4.51,0.17,5.88,0.17c0,0-0.55,0.67-0.89,1.19
		c-0.1,0.04-0.2,0.09-0.3,0.13c-1.31,0.6-3.16,1.64-5.28,3.21c-4.21,3.16-9.74,7.9-15.78,13.67c-6,5.79-12.39,12.67-18.17,20
		c-2.89,3.66-5.67,7.4-8.19,11.13c-1.26,1.87-2.49,3.71-3.62,5.55c-0.55,0.9-1.1,1.78-1.64,2.65c-0.47,0.75-0.95,1.4-1.37,1.86
		c-0.42,0.47-0.81,0.69-0.87,0.71c-0.04,0.01-0.01,0.01-0.03,0.02c0.01,0-0.03,0.02-0.19-0.06c-0.63-0.21-2.58-2.14-4.12-3.5
		c-3.21-2.95-6.5-6.04-9.68-9.27c-6.4-6.42-12.51-13.26-17.65-19.65c-5.17-6.37-9.36-12.28-12.27-16.58
		c-0.43-0.64-0.83-1.23-1.2-1.8c-0.44-6.38-0.79-12.61-1.01-18.58c-0.09-2.08-0.16-4.13-0.23-6.14c1.77,2.05,3.55,4,5.22,5.7
		c4.58,4.66,10.98,10.1,16.35,14.17c2.68,2.04,5.08,3.77,6.82,4.98c1.74,1.2,2.79,1.92,2.79,1.92s-0.91-0.89-2.42-2.38
		c-1.49-1.49-3.58-3.58-5.95-5.95c-4.72-4.76-10.39-10.8-14.91-15.4c-2.42-2.45-5.24-5.24-8.06-8.03
		c-0.31-11.55-0.31-21.68-0.18-29.46c0.04-1.64,0.08-3.16,0.12-4.58C321.39,568.13,321.95,569.35,322.57,570.55z M292.48,573.29
		c7.08-5.8,13.82-10.37,18.63-13.66c2.83-1.91,5-3.37,6.31-4.25c0.18,0.99,0.38,1.99,0.63,3.01c0.54,2.24,1.26,4.54,2.15,6.83
		c-0.18,1.85-0.39,3.93-0.61,6.21c-0.88,10.17-1.77,24.43-2.03,40.7c-0.37,18.1,0.37,38.66,1.87,58.71
		c-1.33,1.86-3.03,4.21-5.05,6.98c-5.41,7.4-13.15,17.72-22.5,29.38c-2.34,2.91-4.77,5.91-7.3,8.97c-1.27,1.52-2.55,3.07-3.84,4.63
		c-0.65,0.78-1.31,1.56-1.97,2.34l-0.92,1.09c-0.14,0.16-0.28,0.32-0.46,0.43c-0.18,0.12-0.4,0.13-0.6,0.08
		c-0.1-0.02-0.2-0.05-0.3-0.09l-0.43-0.15c-0.98-0.31-1.97-0.63-2.96-0.94c-1.97-0.65-3.95-1.35-5.92-2.08
		c-3.94-1.47-7.86-3.14-11.74-4.93c-7.72-3.65-15.26-7.89-22.26-12.69c-1.47-0.99-2.92-2.02-4.34-3.06c0.03-0.14,0.07-0.28,0.1-0.43
		c0.28-1.11,0.6-2.38,0.96-3.79c1.48-5.62,3.84-13.38,6.96-22.05c6.18-17.34,15.36-38.39,22.27-54.76
		c3.51-8.08,7.73-17.15,13.39-25.34C278.09,586.22,285.4,579.08,292.48,573.29z"/>
	<path d="M116.12,835.17c-4.4-12.85-9.28-28.92-13.3-41.38c-4.08-12.44-9.65-28.31-13.81-41.26c-2.1-6.46-3.88-12.17-5.14-16.27
		c-1.22-4.11-1.96-6.59-1.96-6.59s0.25,2.57,0.81,6.84c0.57,4.26,1.43,10.2,2.63,16.93c2.35,13.47,6.16,30.07,10.3,42.68
		c4.07,12.63,10.81,28.3,16.99,40.51c1.59,3.03,3.08,5.88,4.42,8.44c1.03,1.99,2.07,3.75,2.98,5.31h1.52
		c-0.68-1.83-1.52-3.91-2.32-6.29C118.3,841.39,117.24,838.38,116.12,835.17z"/>
</g>
<rect class="st1" width="850.39" height="850.39"/>
</svg>
