<svg id="a" fill="{{fill1}}" xmlns="http://www.w3.org/2000/svg" viewBox="0 0 850.39 850.39">
    <defs>
        <style>
            .b{ fill: {{fill1}} ;}
            .c{ fill: {{fill2}} ;}
        </style>
    </defs>
    <g>
        <path class="c" d="M399.69,668.17l.03-.12c.61-2.4,1.53-4.68,2.73-6.8l.37-.65-6.18,6.53,.17,.03c.99,.14,1.92,.46,2.77,.95l.1,.06Z" />
        <path class="c" d="M453.58,682.88c-.99-.14-1.92-.46-2.77-.95l-.1-.06-.03,.12c-.61,2.4-1.53,4.68-2.73,6.8l-.37,.65,6.18-6.53-.17-.03Z" />
        <path class="c" d="M419.12,652.73l.24,.09s.07,.03,.11,.04c.05,.02,.1,.03,.15,.05,1.8,.72,3.36,1.82,4.62,3.26,.24,.27,.58,.43,.95,.43s.71-.16,.95-.43c1.26-1.45,2.82-2.55,4.62-3.27,.05-.02,.1-.04,.14-.05,.04-.01,.08-.03,.12-.04l.24-.09-.24-.08c-1.5-.51-2.58-1.65-3.05-3.21-.13-.43-.19-.9-.19-1.42v-17.11l-2.59,2.59-2.59-2.59v17.11c0,.52-.06,.99-.19,1.42-.47,1.56-1.55,2.7-3.05,3.21l-.24,.08Z" />
        <path class="c" d="M450.7,668.17l.1-.06c.85-.49,1.79-.81,2.77-.95l.17-.03-6.18-6.53,.37,.65c1.2,2.12,2.11,4.4,2.73,6.8l.03,.12Z" />
        <path class="c" d="M402.45,688.78c-1.2-2.12-2.11-4.4-2.73-6.8l-.03-.12-.1,.06c-.85,.49-1.79,.81-2.77,.95l-.17,.03,6.18,6.53-.37-.65Z" />
        <path class="c" d="M431.03,697.23s-.07-.03-.11-.04c-.05-.02-.1-.03-.15-.05-1.8-.72-3.36-1.82-4.62-3.27-.24-.27-.58-.43-.95-.43s-.71,.16-.95,.43c-1.26,1.45-2.82,2.55-4.62,3.27-.05,.02-.1,.04-.15,.05-.04,.01-.08,.03-.12,.04l-.24,.09,.24,.08c1.5,.51,2.58,1.65,3.05,3.21,.13,.43,.19,.9,.19,1.42v17.11l2.59-2.59,2.59,2.59v-17.12c0-.51,.06-.99,.19-1.42,.47-1.56,1.55-2.7,3.05-3.21l.24-.08-.24-.09Z" />
        <circle class="c" cx="395.67" cy="675.02" r="4.48" transform="translate(-228.2 202.8) rotate(-22.5)" />
        <path class="c" d="M465.85,664.33v-9.95l-.23,.06c-5.3,1.37-10.89-.31-14.61-4.36l-18.07-19.74c-.18-.2-.44-.32-.72-.32-.54,0-.97,.44-.97,.97v17.13c0,.38,.17,.74,.46,.99,.29,.25,.68,.36,1.06,.29,4.86-.81,9.79,.85,13.19,4.45l12.63,13.35c.79,.83,1.9,1.31,3.05,1.31,2.31,0,4.2-1.88,4.2-4.2Z" />
        <path class="c" d="M418.67,700.92c-.29-.25-.68-.36-1.06-.29-4.86,.81-9.79-.85-13.19-4.45l-12.63-13.35c-.79-.83-1.9-1.31-3.05-1.31-2.31,0-4.2,1.88-4.2,4.2v9.95l.23-.06c5.3-1.37,10.89,.31,14.61,4.36l18.07,19.74c.18,.2,.44,.32,.72,.32,.54,0,.97-.44,.97-.97v-17.13c0-.38-.17-.75-.46-.99Z" />
        <path class="c" d="M461.65,681.51c-1.15,0-2.26,.48-3.05,1.31l-12.63,13.35c-3.4,3.6-8.34,5.26-13.19,4.45-.38-.06-.77,.04-1.06,.29-.29,.25-.46,.61-.46,.99v17.13c0,.54,.44,.97,.97,.97,.27,0,.53-.11,.72-.32l18.07-19.74c3.71-4.06,9.31-5.73,14.61-4.36l.23,.06v-9.95c0-2.31-1.88-4.2-4.2-4.2Z" />
        <path class="c" d="M464.25,672.2c-1.56,0-2.82,1.27-2.82,2.82s1.27,2.82,2.82,2.82,2.82-1.27,2.82-2.82-1.27-2.82-2.82-2.82Z" />
        <path class="c" d="M388.97,675.02c0-1.56-1.27-2.82-2.82-2.82s-2.82,1.27-2.82,2.82,1.27,2.82,2.82,2.82,2.82-1.27,2.82-2.82Z" />
        <path class="c" d="M459.2,675.02c0-2.47-2.01-4.48-4.48-4.48s-4.48,2.01-4.48,4.48,2.01,4.48,4.48,4.48,4.48-2.01,4.48-4.48Z" />
        <path class="c" d="M418.16,630.03c-.27,0-.53,.12-.72,.32l-18.07,19.74c-3.71,4.06-9.31,5.73-14.61,4.36l-.23-.06v9.95c0,2.31,1.88,4.2,4.2,4.2,1.15,0,2.26-.48,3.05-1.31l12.63-13.35c3.4-3.6,8.34-5.26,13.19-4.45,.38,.06,.77-.04,1.06-.29,.29-.25,.46-.61,.46-.99v-17.13c0-.54-.44-.97-.97-.97Z" />
        <path class="c" d="M425.2,721.46l-4.06,4.06c-.98,.98-1.52,2.28-1.52,3.66s.54,2.68,1.52,3.66l4.06,4.06,4.06-4.06c2.02-2.02,2.02-5.3,0-7.32l-4.06-4.06Z" />
        <path class="c" d="M429.26,624.52c2.02-2.02,2.02-5.3,0-7.32l-4.06-4.06-4.06,4.06c-.98,.98-1.52,2.28-1.52,3.66s.54,2.68,1.52,3.66l4.06,4.06,4.06-4.06Z" />
        <path class="c" d="M418.24,693.95c2.65-1.02,4.55-3.15,5.21-5.84,.2-.79,.91-1.34,1.74-1.34h0c.83,0,1.54,.55,1.74,1.34,.67,2.69,2.57,4.82,5.21,5.84,3.24,1.25,7.06,.29,9.51-2.39,4.14-4.52,6.42-10.39,6.42-16.54,0-6.14-2.28-12.02-6.42-16.54-2.45-2.68-6.27-3.63-9.51-2.39-2.65,1.02-4.55,3.15-5.21,5.84-.2,.79-.91,1.34-1.74,1.34s-1.54-.55-1.74-1.34c-.67-2.69-2.57-4.82-5.21-5.84-3.24-1.25-7.06-.29-9.51,2.39-4.14,4.52-6.42,10.39-6.42,16.54s2.28,12.02,6.42,16.54c2.45,2.67,6.27,3.63,9.51,2.39Z" />
        <path class="c" d="M575.84,607.48l.25,8.99,.14-.11c.8-.59,1.68-1.03,2.63-1.29l.12-.03-.06-.1c-1.26-2.13-2.23-4.39-2.88-6.74l-.2-.72Z" />
        <path class="c" d="M627.67,595.5l.2,.72-.25-8.99-.14,.11c-.8,.59-1.68,1.03-2.63,1.29l-.12,.03,.06,.1c1.26,2.13,2.23,4.39,2.88,6.74Z" />
        <path class="c" d="M581.79,585.72c.77,1.44,.82,3.01,.12,4.43l-.11,.23,.23-.11s.07-.03,.11-.05c.05-.02,.1-.05,.14-.07,1.78-.77,3.66-1.09,5.58-.96,.36,.02,.71-.11,.97-.37,.26-.26,.39-.61,.37-.97-.13-1.92,.19-3.79,.96-5.58,.02-.05,.04-.09,.07-.14,.02-.04,.04-.07,.05-.11l.11-.23-.23,.11c-1.42,.7-2.99,.66-4.43-.12-.39-.21-.78-.5-1.14-.87l-12.1-12.1v3.66h-3.67l12.1,12.1c.37,.37,.66,.75,.87,1.14Z" />
        <path class="c" d="M614.94,578.91l.1,.06,.03-.12c.26-.95,.69-1.83,1.29-2.63l.11-.14-8.99-.25,.72,.2c2.34,.65,4.61,1.62,6.74,2.88Z" />
        <path class="c" d="M588.66,624.73l-.03,.12c-.26,.95-.69,1.83-1.29,2.63l-.11,.14,8.99,.25-.72-.2c-2.34-.65-4.61-1.62-6.74-2.88l-.1-.06Z" />
        <path class="c" d="M622.78,619.11c-.36-.36-.65-.75-.87-1.14-.77-1.43-.81-3-.11-4.42l.11-.23-.23,.11s-.07,.03-.11,.05c-.05,.02-.09,.05-.14,.07-1.78,.77-3.66,1.09-5.58,.96-.36-.02-.71,.11-.97,.37-.26,.26-.39,.61-.37,.97,.13,1.92-.19,3.79-.96,5.58-.02,.05-.04,.09-.07,.14-.02,.04-.04,.07-.05,.11l-.11,.23,.23-.11c1.42-.7,2.99-.66,4.43,.12,.39,.21,.78,.5,1.14,.87l12.1,12.1v-3.67h3.66l-12.1-12.1Z" />
        <path class="c" d="M584.14,625.9c1.75-1.75,1.75-4.59,0-6.33-1.75-1.75-4.59-1.75-6.33,0-1.75,1.75-1.75,4.59,0,6.33,1.75,1.75,4.59,1.75,6.33,0Z" />
        <path class="c" d="M602.47,565.96l-26.73-1.18c-.27-.01-.54,.09-.73,.28-.38,.38-.38,1,0,1.37l12.11,12.11c.27,.27,.65,.41,1.03,.38,.38-.03,.73-.23,.96-.55,2.86-4.01,7.52-6.32,12.47-6.18l18.37,.51c1.15,.03,2.27-.42,3.08-1.23,1.64-1.64,1.64-4.3,0-5.94l-7.03-7.03-.12,.2c-2.78,4.71-7.92,7.49-13.41,7.24Z" />
        <path class="c" d="M616.58,625.15c-.27-.27-.65-.41-1.03-.38-.38,.03-.73,.23-.96,.55-2.86,4.01-7.52,6.32-12.47,6.18l-18.37-.51c-1.15-.03-2.27,.42-3.08,1.23-1.64,1.64-1.64,4.3,0,5.94l7.03,7.03,.12-.2c2.78-4.71,7.92-7.49,13.41-7.24l26.73,1.18c.27,.01,.54-.09,.73-.28,.38-.38,.38-.99,0-1.37l-12.11-12.11Z" />
        <path class="c" d="M644.98,587.81l.2-.12-7.03-7.03c-1.64-1.64-4.3-1.64-5.94,0-.81,.81-1.26,1.94-1.23,3.08l.51,18.37c.14,4.95-2.17,9.62-6.18,12.47-.31,.22-.51,.57-.55,.96-.03,.38,.11,.76,.38,1.03l12.11,12.11c.38,.38,1,.38,1.37,0,.19-.19,.3-.46,.28-.73l-1.18-26.73c-.24-5.49,2.53-10.63,7.24-13.41Z" />
        <path class="c" d="M631.46,576.23c1.1-1.1,1.1-2.89,0-3.99-1.1-1.1-2.89-1.1-3.99,0-1.1,1.1-1.1,2.89,0,3.99,1.1,1.1,2.89,1.1,3.99,0Z" />
        <path class="c" d="M572.24,627.47c-1.1,1.1-1.1,2.89,0,3.99,1.1,1.1,2.89,1.1,3.99,0,1.1-1.1,1.1-2.89,0-3.99-1.1-1.1-2.89-1.1-3.99,0Z" />
        <path class="c" d="M625.9,577.8c-1.75-1.75-4.59-1.75-6.33,0-1.75,1.75-1.75,4.59,0,6.33,1.75,1.75,4.59,1.75,6.33,0s1.75-4.59,0-6.33Z" />
        <path class="c" d="M572.71,619.95l-.51-18.37c-.14-4.95,2.17-9.62,6.18-12.47,.31-.22,.51-.57,.55-.96,.03-.38-.11-.75-.38-1.03l-12.11-12.11c-.38-.38-1-.38-1.37,0-.19,.19-.3,.46-.28,.73l1.18,26.73c.24,5.49-2.53,10.63-7.24,13.41l-.2,.12,7.03,7.03c1.64,1.64,4.3,1.64,5.94,0,.81-.81,1.26-1.94,1.23-3.08Z" />
        <path class="c" d="M640.44,634.69h-5.75v5.75c0,1.38,.54,2.68,1.52,3.66,.98,.98,2.28,1.52,3.66,1.52h5.75v-5.75c0-2.85-2.32-5.18-5.18-5.18Z" />
        <path class="c" d="M563.84,558.09h-5.75v5.75c0,1.38,.54,2.68,1.52,3.66,.98,.98,2.28,1.52,3.66,1.52h5.75v-5.75c0-2.85-2.32-5.18-5.18-5.18Z" />
        <path class="c" d="M610.16,610.16c.59-.59,1.48-.7,2.17-.28,2.37,1.43,5.22,1.59,7.81,.44,3.17-1.41,5.19-4.79,5.04-8.41-.27-6.13-2.81-11.89-7.15-16.24-4.34-4.34-10.11-6.88-16.24-7.15-3.63-.16-7.01,1.87-8.41,5.04-1.15,2.59-.99,5.44,.44,7.81,.42,.69,.3,1.59-.29,2.17-.59,.59-1.48,.7-2.17,.28-2.37-1.43-5.22-1.59-7.81-.44-3.17,1.41-5.2,4.79-5.04,8.41,.27,6.13,2.81,11.89,7.15,16.24,4.34,4.34,10.11,6.88,16.24,7.15,3.62,.16,7.01-1.87,8.41-5.03,1.15-2.59,.99-5.44-.44-7.82-.42-.69-.3-1.59,.29-2.17h0Z" />
        <path class="c" d="M668.12,450.8l.06-.1-.12-.03c-2.4-.61-4.68-1.53-6.8-2.73l-.65-.37,6.53,6.18,.03-.17c.14-.99,.46-1.92,.95-2.77Z" />
        <path class="c" d="M689.44,402.82l-6.53-6.18-.03,.17c-.14,.99-.46,1.92-.95,2.77l-.06,.1,.12,.03c2.4,.61,4.68,1.53,6.8,2.73l.65,.37Z" />
        <path class="c" d="M648.01,427.79c.52,0,.99,.06,1.42,.19,1.56,.47,2.7,1.55,3.21,3.05l.08,.24,.09-.24s.03-.07,.04-.11c.02-.05,.03-.1,.05-.15,.72-1.8,1.82-3.36,3.26-4.62,.27-.24,.43-.58,.43-.95s-.16-.71-.43-.95c-1.45-1.26-2.55-2.82-3.27-4.62-.02-.05-.04-.1-.05-.14-.01-.04-.03-.08-.04-.12l-.09-.24-.08,.24c-.51,1.5-1.65,2.58-3.21,3.05-.43,.13-.9,.19-1.42,.19h-17.11l2.59,2.59-2.59,2.59h17.11Z" />
        <path class="c" d="M667.14,396.64l-6.53,6.18,.65-.37c2.12-1.2,4.4-2.12,6.8-2.73l.12-.03-.06-.1c-.49-.85-.81-1.79-.95-2.77l-.03-.17Z" />
        <path class="c" d="M681.87,450.7l.06,.1c.49,.85,.81,1.79,.95,2.77l.03,.17,6.53-6.18-.65,.37c-2.12,1.2-4.4,2.11-6.8,2.73l-.12,.03Z" />
        <path class="c" d="M702.03,422.6c-.51,0-.99-.06-1.42-.19-1.56-.47-2.7-1.55-3.21-3.05l-.08-.24-.09,.24s-.03,.07-.04,.11c-.02,.05-.03,.1-.05,.15-.72,1.8-1.82,3.36-3.27,4.62-.27,.24-.43,.58-.43,.95s.16,.71,.43,.95c1.45,1.26,2.55,2.82,3.27,4.62,.02,.05,.04,.1,.05,.15,.01,.04,.03,.08,.04,.12l.09,.24,.08-.24c.51-1.5,1.65-2.58,3.21-3.05,.43-.13,.9-.19,1.42-.19h17.11l-2.59-2.59,2.59-2.59h-17.12Z" />
        <path class="c" d="M679.5,454.72c0-2.47-2.01-4.48-4.48-4.48s-4.48,2.01-4.48,4.48,2.01,4.48,4.48,4.48,4.48-2.01,4.48-4.48Z" />
        <path class="c" d="M630.03,418.16c0,.54,.44,.97,.97,.97h17.13c.38,0,.74-.17,.99-.46,.25-.29,.36-.68,.29-1.06-.81-4.86,.85-9.79,4.45-13.19l13.35-12.63c.83-.79,1.31-1.9,1.31-3.05,0-2.31-1.88-4.2-4.2-4.2h-9.95l.06,.23c1.37,5.3-.31,10.89-4.36,14.61l-19.74,18.07c-.2,.18-.32,.44-.32,.72Z" />
        <path class="c" d="M719.05,431.26h-17.13c-.38,0-.75,.17-.99,.46-.25,.29-.36,.68-.29,1.06,.81,4.86-.85,9.79-4.45,13.19l-13.35,12.63c-.83,.79-1.31,1.9-1.31,3.05,0,2.31,1.88,4.2,4.2,4.2h9.95l-.06-.23c-1.37-5.3,.31-10.89,4.36-14.61l19.74-18.07c.2-.18,.32-.44,.32-.72,0-.54-.44-.97-.97-.97Z" />
        <path class="c" d="M699.96,399.38c-4.06-3.71-5.73-9.31-4.36-14.61l.06-.23h-9.95c-2.31,0-4.2,1.88-4.2,4.2,0,1.15,.48,2.26,1.31,3.05l13.35,12.63c3.6,3.4,5.26,8.34,4.45,13.19-.06,.38,.04,.77,.29,1.06,.25,.29,.61,.46,.99,.46h17.13c.54,0,.97-.44,.97-.97,0-.27-.11-.53-.32-.72l-19.74-18.07Z" />
        <path class="c" d="M675.02,383.32c-1.56,0-2.82,1.27-2.82,2.82s1.27,2.82,2.82,2.82,2.82-1.27,2.82-2.82-1.27-2.82-2.82-2.82Z" />
        <path class="c" d="M677.85,464.24c0-1.56-1.27-2.82-2.82-2.82s-2.82,1.27-2.82,2.82,1.27,2.82,2.82,2.82,2.82-1.27,2.82-2.82Z" />
        <path class="c" d="M675.02,400.14c2.47,0,4.48-2.01,4.48-4.48s-2.01-4.48-4.48-4.48-4.48,2.01-4.48,4.48,2.01,4.48,4.48,4.48Z" />
        <path class="c" d="M630.35,432.95l19.74,18.07c4.06,3.71,5.73,9.31,4.36,14.61l-.06,.23h9.95c2.31,0,4.2-1.88,4.2-4.2,0-1.15-.48-2.26-1.31-3.05l-13.35-12.63c-3.6-3.4-5.26-8.34-4.45-13.19,.06-.38-.04-.77-.29-1.06-.25-.29-.61-.46-.99-.46h-17.13c-.54,0-.97,.44-.97,.97,0,.27,.12,.53,.32,.72Z" />
        <path class="c" d="M725.53,421.13l-4.06,4.06,4.06,4.06c.98,.98,2.28,1.52,3.66,1.52s2.68-.54,3.66-1.52l4.06-4.06-4.06-4.06c-2.02-2.02-5.3-2.02-7.32,0Z" />
        <path class="c" d="M617.2,421.13l-4.06,4.06,4.06,4.06c.98,.98,2.28,1.52,3.66,1.52s2.68-.54,3.66-1.52l4.06-4.06-4.06-4.06c-2.02-2.02-5.3-2.02-7.32,0Z" />
        <path class="c" d="M658.49,408.73c-2.68,2.45-3.63,6.27-2.39,9.51,1.02,2.65,3.15,4.55,5.84,5.21,.79,.2,1.34,.91,1.34,1.74s-.55,1.54-1.34,1.74c-2.69,.67-4.82,2.57-5.84,5.21-1.25,3.24-.29,7.06,2.39,9.51,4.52,4.14,10.39,6.42,16.54,6.42s12.02-2.28,16.54-6.42c2.67-2.45,3.63-6.27,2.39-9.51-1.02-2.65-3.15-4.55-5.84-5.21-.79-.2-1.34-.91-1.34-1.74h0c0-.83,.55-1.54,1.34-1.74,2.69-.67,4.82-2.57,5.84-5.21,1.25-3.24,.29-7.06-2.39-9.51-4.52-4.14-10.39-6.42-16.54-6.42-6.14,0-12.02,2.28-16.54,6.42Z" />
        <path class="c" d="M615.04,271.42l-.1,.06c-2.13,1.26-4.39,2.23-6.74,2.88l-.72,.2,8.99-.25-.11-.14c-.59-.8-1.03-1.68-1.29-2.63l-.03-.12Z" />
        <path class="c" d="M588.66,225.66l.1-.06c2.13-1.26,4.39-2.23,6.74-2.88l.72-.2-8.99,.25,.11,.14c.59,.8,1.03,1.68,1.29,2.63l.03,.12Z" />
        <path class="c" d="M584.58,269.47c.37-.37,.75-.66,1.14-.87,1.44-.77,3.01-.82,4.43-.12l.23,.11-.11-.23s-.03-.07-.05-.11c-.02-.05-.05-.1-.07-.14-.77-1.78-1.09-3.66-.96-5.58,.02-.36-.11-.71-.37-.97-.26-.26-.61-.39-.97-.37-1.92,.13-3.79-.19-5.58-.96-.05-.02-.09-.04-.14-.07-.04-.02-.07-.04-.11-.05l-.23-.11,.11,.23c.7,1.42,.66,2.99-.12,4.43-.21,.39-.5,.78-.87,1.14l-12.1,12.1h3.66v3.67l12.1-12.1Z" />
        <path class="c" d="M578.98,235.35l-.12-.03c-.95-.26-1.83-.69-2.63-1.29l-.14-.11-.25,8.99,.2-.72c.65-2.34,1.62-4.61,2.88-6.74l.06-.1Z" />
        <path class="c" d="M627.62,263.16l.25-8.99-.2,.72c-.65,2.34-1.62,4.61-2.88,6.74l-.06,.1,.12,.03c.95,.26,1.83,.69,2.63,1.29l.14,.11Z" />
        <path class="c" d="M619.11,227.61c-.36,.36-.75,.65-1.14,.87-1.43,.77-3,.81-4.42,.11l-.23-.11,.11,.23s.03,.07,.05,.11c.02,.05,.05,.09,.07,.14,.77,1.78,1.09,3.66,.96,5.58-.02,.36,.11,.71,.37,.97s.61,.39,.97,.37c1.92-.13,3.79,.19,5.58,.96,.05,.02,.09,.04,.14,.07,.04,.02,.07,.04,.11,.05l.23,.11-.11-.23c-.7-1.42-.66-2.99,.12-4.43,.21-.39,.5-.78,.87-1.14l12.1-12.1h-3.67v-3.66l-12.1,12.1Z" />
        <circle class="c" cx="622.73" cy="269.42" r="4.48" />
        <path class="c" d="M558.51,234.38l.2,.12c4.71,2.78,7.49,7.92,7.24,13.41l-1.18,26.73c-.01,.27,.09,.54,.28,.73,.38,.38,1,.38,1.37,0l12.11-12.11c.27-.27,.41-.65,.38-1.03-.03-.38-.23-.73-.55-.96-4.01-2.86-6.32-7.52-6.18-12.47l.51-18.37c.03-1.15-.42-2.27-1.23-3.08-1.64-1.64-4.3-1.64-5.94,0l-7.03,7.03Z" />
        <path class="c" d="M638.93,222.43c.01-.27-.09-.54-.28-.73-.38-.38-.99-.38-1.37,0l-12.11,12.11c-.27,.27-.41,.65-.38,1.03,.03,.38,.23,.73,.55,.96,4.01,2.86,6.32,7.52,6.18,12.47l-.51,18.37c-.03,1.15,.42,2.27,1.23,3.08,1.64,1.64,4.3,1.64,5.94,0l7.03-7.03-.2-.12c-4.71-2.78-7.49-7.92-7.24-13.41l1.18-26.73Z" />
        <path class="c" d="M583.75,219.4l18.37-.51c4.95-.14,9.62,2.17,12.47,6.18,.22,.31,.57,.51,.96,.55,.38,.03,.76-.11,1.03-.38l12.11-12.11c.38-.38,.38-1,0-1.37-.19-.19-.46-.3-.73-.28l-26.73,1.18c-5.49,.24-10.63-2.53-13.41-7.24l-.12-.2-7.03,7.03c-1.64,1.64-1.64,4.3,0,5.94,.81,.81,1.94,1.26,3.08,1.23Z" />
        <path class="c" d="M576.24,222.92c1.1-1.1,1.1-2.89,0-3.99-1.1-1.1-2.89-1.1-3.99,0-1.1,1.1-1.1,2.89,0,3.99,1.1,1.1,2.89,1.1,3.99,0Z" />
        <path class="c" d="M631.46,278.15c1.1-1.1,1.1-2.89,0-3.99s-2.89-1.1-3.99,0c-1.1,1.1-1.1,2.89,0,3.99s2.89,1.1,3.99,0Z" />
        <path class="c" d="M577.8,230.82c1.75,1.75,4.59,1.75,6.33,0,1.75-1.75,1.75-4.59,0-6.33-1.75-1.75-4.59-1.75-6.33,0-1.75,1.75-1.75,4.59,0,6.33Z" />
        <path class="c" d="M575.74,285.61l26.73-1.18c5.49-.24,10.63,2.53,13.41,7.24l.12,.2,7.03-7.03c1.64-1.64,1.64-4.3,0-5.94-.81-.81-1.94-1.26-3.08-1.23l-18.37,.51c-4.95,.14-9.62-2.17-12.47-6.18-.22-.31-.57-.51-.96-.55-.38-.03-.75,.11-1.03,.38l-12.11,12.11c-.38,.38-.38,1,0,1.37,.19,.19,.46,.3,.73,.28Z" />
        <path class="c" d="M644.1,214.18c.98-.98,1.52-2.28,1.52-3.66v-5.75h-5.75c-2.85,0-5.18,2.32-5.18,5.18v5.75h5.75c1.38,0,2.68-.54,3.66-1.52Z" />
        <path class="c" d="M567.5,290.78c.98-.98,1.52-2.28,1.52-3.66v-5.75h-5.75c-2.85,0-5.18,2.32-5.18,5.18v5.75h5.75c1.38,0,2.68-.54,3.66-1.52Z" />
        <path class="c" d="M583.56,257.01c2.59,1.15,5.44,.99,7.81-.44,.69-.42,1.59-.3,2.17,.29s.7,1.48,.28,2.17c-1.43,2.37-1.59,5.22-.44,7.81,1.41,3.17,4.79,5.2,8.41,5.04,6.13-.27,11.89-2.81,16.24-7.15,4.34-4.34,6.88-10.11,7.15-16.24,.16-3.62-1.87-7.01-5.03-8.41-2.59-1.15-5.44-.99-7.82,.44-.69,.42-1.59,.3-2.17-.28h0c-.59-.59-.7-1.48-.29-2.17,1.43-2.37,1.59-5.22,.44-7.81-1.41-3.17-4.79-5.19-8.41-5.04-6.13,.27-11.89,2.81-16.24,7.15-4.34,4.34-6.88,10.11-7.15,16.24-.16,3.63,1.87,7.01,5.04,8.41Z" />
        <path class="c" d="M450.7,182.21l-.03,.12c-.61,2.4-1.53,4.68-2.73,6.8l-.37,.65,6.18-6.53-.17-.03c-.99-.14-1.92-.46-2.77-.95l-.1-.06Z" />
        <path class="c" d="M396.82,167.51c.99,.14,1.92,.46,2.77,.95l.1,.06,.03-.12c.61-2.4,1.53-4.68,2.73-6.8l.37-.65-6.18,6.53,.17,.03Z" />
        <path class="c" d="M431.27,197.66l-.24-.09s-.07-.03-.11-.04c-.05-.02-.1-.03-.15-.05-1.8-.72-3.36-1.82-4.62-3.26-.24-.27-.58-.43-.95-.43s-.71,.16-.95,.43c-1.26,1.45-2.82,2.55-4.62,3.27-.05,.02-.1,.04-.14,.05-.04,.01-.08,.03-.12,.04l-.24,.09,.24,.08c1.5,.51,2.58,1.65,3.05,3.21,.13,.43,.19,.9,.19,1.42v17.11l2.59-2.59,2.59,2.59v-17.11c0-.52,.06-.99,.19-1.42,.47-1.56,1.55-2.7,3.05-3.21l.24-.08Z" />
        <path class="c" d="M399.69,182.21l-.1,.06c-.85,.49-1.79,.81-2.77,.95l-.17,.03,6.18,6.53-.37-.65c-1.2-2.12-2.11-4.4-2.73-6.8l-.03-.12Z" />
        <path class="c" d="M447.94,161.6c1.2,2.12,2.11,4.4,2.73,6.8l.03,.12,.1-.06c.85-.49,1.79-.81,2.77-.95l.17-.03-6.18-6.53,.37,.65Z" />
        <path class="c" d="M419.36,153.16s.07,.03,.11,.04c.05,.02,.1,.03,.15,.05,1.8,.72,3.36,1.82,4.62,3.27,.24,.27,.58,.43,.95,.43s.71-.16,.95-.43c1.26-1.45,2.82-2.55,4.62-3.27,.05-.02,.1-.04,.15-.05,.04-.01,.08-.03,.12-.04l.24-.09-.24-.08c-1.5-.51-2.58-1.65-3.05-3.21-.13-.43-.19-.9-.19-1.42v-17.11l-2.59,2.59-2.59-2.59v17.12c0,.51-.06,.99-.19,1.42-.47,1.56-1.55,2.7-3.05,3.21l-.24,.08,.24,.09Z" />
        <circle class="c" cx="454.73" cy="175.37" r="4.48" transform="translate(-22.22 75.1) rotate(-9.22)" />
        <path class="c" d="M384.54,186.05v9.95l.23-.06c5.3-1.37,10.89,.31,14.61,4.36l18.07,19.74c.18,.2,.44,.32,.72,.32,.54,0,.97-.44,.97-.97v-17.13c0-.38-.17-.75-.46-.99-.29-.25-.68-.36-1.06-.29-4.86,.81-9.79-.85-13.19-4.45l-12.63-13.35c-.79-.83-1.9-1.31-3.05-1.31-2.31,0-4.2,1.88-4.2,4.2Z" />
        <path class="c" d="M431.72,149.47c.29,.25,.68,.36,1.06,.29,4.86-.81,9.79,.85,13.19,4.45l12.63,13.35c.79,.83,1.9,1.31,3.05,1.31,2.31,0,4.2-1.88,4.2-4.2v-9.95l-.23,.06c-5.3,1.37-10.89-.31-14.61-4.36l-18.07-19.74c-.18-.2-.44-.32-.72-.32-.54,0-.97,.44-.97,.97v17.13c0,.38,.17,.75,.46,.99Z" />
        <path class="c" d="M388.74,168.87c1.15,0,2.26-.48,3.05-1.31l12.63-13.35c3.4-3.6,8.34-5.26,13.19-4.45,.38,.06,.77-.04,1.06-.29,.29-.25,.46-.61,.46-.99v-17.13c0-.54-.44-.97-.97-.97-.27,0-.53,.11-.72,.32l-18.07,19.74c-3.71,4.06-9.31,5.73-14.61,4.36l-.23-.06v9.95c0,2.31,1.88,4.2,4.2,4.2Z" />
        <path class="c" d="M386.15,178.19c1.56,0,2.82-1.27,2.82-2.82s-1.27-2.82-2.82-2.82-2.82,1.27-2.82,2.82,1.27,2.82,2.82,2.82Z" />
        <path class="c" d="M461.42,175.37c0,1.56,1.27,2.82,2.82,2.82s2.82-1.27,2.82-2.82-1.27-2.82-2.82-2.82-2.82,1.27-2.82,2.82Z" />
        <circle class="c" cx="395.67" cy="175.37" r="4.48" transform="translate(82.23 473.8) rotate(-67.5)" />
        <path class="c" d="M432.23,220.36c.27,0,.53-.12,.72-.32l18.07-19.74c3.71-4.06,9.31-5.73,14.61-4.36l.23,.06v-9.95c0-2.31-1.88-4.2-4.2-4.2-1.15,0-2.26,.48-3.05,1.31l-12.63,13.35c-3.4,3.6-8.34,5.26-13.19,4.45-.38-.06-.77,.04-1.06,.29-.29,.25-.46,.61-.46,.99v17.13c0,.54,.44,.97,.97,.97Z" />
        <path class="c" d="M425.19,128.93l4.06-4.06c.98-.98,1.52-2.28,1.52-3.66s-.54-2.68-1.52-3.66l-4.06-4.06-4.06,4.06c-2.02,2.02-2.02,5.3,0,7.32l4.06,4.06Z" />
        <path class="c" d="M421.13,225.87c-2.02,2.02-2.02,5.3,0,7.32l4.06,4.06,4.06-4.06c.98-.98,1.52-2.28,1.52-3.66s-.54-2.68-1.52-3.66l-4.06-4.06-4.06,4.06Z" />
        <path class="c" d="M432.15,156.44c-2.65,1.02-4.55,3.15-5.21,5.84-.2,.79-.91,1.34-1.74,1.34h0c-.83,0-1.54-.55-1.74-1.34-.67-2.69-2.57-4.82-5.21-5.84-3.24-1.25-7.06-.29-9.51,2.39-4.14,4.52-6.42,10.39-6.42,16.54,0,6.14,2.28,12.02,6.42,16.54,2.45,2.68,6.27,3.63,9.51,2.39,2.65-1.02,4.55-3.15,5.21-5.84,.2-.79,.91-1.34,1.74-1.34s1.54,.55,1.74,1.34c.67,2.69,2.57,4.82,5.21,5.84,3.24,1.25,7.06,.29,9.51-2.39,4.14-4.52,6.42-10.39,6.42-16.54s-2.28-12.02-6.42-16.54c-2.45-2.67-6.27-3.63-9.51-2.39Z" />
        <path class="c" d="M274.56,242.91l-.25-8.99-.14,.11c-.8,.59-1.68,1.03-2.63,1.29l-.12,.03,.06,.1c1.26,2.13,2.23,4.39,2.88,6.74l.2,.72Z" />
        <path class="c" d="M225.55,261.76l.12-.03-.06-.1c-1.26-2.13-2.23-4.39-2.88-6.74l-.2-.72,.25,8.99,.14-.11c.8-.59,1.68-1.03,2.63-1.29Z" />
        <path class="c" d="M269.47,265.81c-.37-.37-.66-.75-.87-1.14-.77-1.44-.82-3.01-.12-4.43l.11-.23-.23,.11s-.07,.03-.11,.05c-.05,.02-.1,.05-.14,.07-1.78,.77-3.66,1.09-5.58,.96-.36-.02-.71,.11-.97,.37-.26,.26-.39,.61-.37,.97,.13,1.92-.19,3.79-.96,5.58-.02,.05-.04,.09-.07,.14-.02,.04-.04,.07-.05,.11l-.11,.23,.23-.11c1.42-.7,2.99-.66,4.43,.12,.39,.21,.78,.5,1.14,.87l12.1,12.1v-3.66h3.67l-12.1-12.1Z" />
        <path class="c" d="M235.35,271.42l-.03,.12c-.26,.95-.69,1.83-1.29,2.63l-.11,.14,8.99,.25-.72-.2c-2.34-.65-4.61-1.62-6.74-2.88l-.1-.06Z" />
        <path class="c" d="M261.73,225.66l.03-.12c.26-.95,.69-1.83,1.29-2.63l.11-.14-8.99-.25,.72,.2c2.34,.65,4.61,1.62,6.74,2.88l.1,.06Z" />
        <path class="c" d="M227.61,231.28c.36,.36,.66,.75,.87,1.14,.77,1.43,.81,3,.11,4.42l-.11,.23,.23-.11s.07-.03,.11-.05c.05-.02,.09-.05,.14-.07,1.78-.77,3.66-1.09,5.58-.96,.36,.02,.71-.11,.97-.37,.26-.26,.39-.61,.37-.97-.13-1.92,.19-3.79,.96-5.58,.02-.05,.04-.09,.07-.14,.02-.04,.04-.07,.05-.11l.11-.23-.23,.11c-1.42,.7-2.99,.66-4.43-.12-.39-.21-.78-.5-1.14-.87l-12.1-12.1v3.67h-3.66l12.1,12.1Z" />
        <path class="c" d="M266.25,224.49c-1.75,1.75-1.75,4.59,0,6.33s4.59,1.75,6.33,0c1.75-1.75,1.75-4.59,0-6.33-1.75-1.75-4.59-1.75-6.33,0Z" />
        <path class="c" d="M247.92,284.43l26.73,1.18c.27,.01,.54-.09,.73-.28,.38-.38,.38-1,0-1.37l-12.11-12.11c-.27-.27-.65-.41-1.03-.38-.38,.03-.73,.23-.96,.55-2.86,4.01-7.52,6.32-12.47,6.18l-18.37-.51c-1.15-.03-2.27,.42-3.08,1.23-1.64,1.64-1.64,4.3,0,5.94l7.03,7.03,.12-.2c2.78-4.71,7.92-7.49,13.41-7.24Z" />
        <path class="c" d="M233.81,225.24c.27,.27,.65,.41,1.03,.38,.38-.03,.73-.23,.96-.55,2.86-4.01,7.52-6.32,12.47-6.18l18.37,.51c1.15,.03,2.27-.42,3.08-1.23,1.64-1.64,1.64-4.3,0-5.94l-7.03-7.03-.12,.2c-2.78,4.71-7.92,7.49-13.41,7.24l-26.73-1.18c-.27-.01-.54,.09-.73,.28-.38,.38-.38,.99,0,1.37l12.11,12.11Z" />
        <path class="c" d="M205.41,262.58l-.2,.12,7.03,7.03c1.64,1.64,4.3,1.64,5.94,0,.81-.81,1.26-1.94,1.23-3.08l-.51-18.37c-.14-4.95,2.17-9.62,6.18-12.47,.31-.22,.51-.57,.55-.96,.03-.38-.11-.76-.38-1.03l-12.11-12.11c-.38-.38-1-.38-1.37,0-.19,.19-.3,.46-.28,.73l1.18,26.73c.24,5.49-2.53,10.63-7.24,13.41Z" />
        <path class="c" d="M218.93,274.15c-1.1,1.1-1.1,2.89,0,3.99s2.89,1.1,3.99,0c1.1-1.1,1.1-2.89,0-3.99-1.1-1.1-2.89-1.1-3.99,0Z" />
        <path class="c" d="M278.15,222.92c1.1-1.1,1.1-2.89,0-3.99-1.1-1.1-2.89-1.1-3.99,0-1.1,1.1-1.1,2.89,0,3.99s2.89,1.1,3.99,0Z" />
        <path class="c" d="M230.83,272.59c1.75-1.75,1.75-4.59,0-6.33-1.75-1.75-4.59-1.75-6.33,0-1.75,1.75-1.75,4.59,0,6.33,1.75,1.75,4.59,1.75,6.33,0Z" />
        <path class="c" d="M277.68,230.44l.51,18.37c.14,4.95-2.17,9.62-6.18,12.47-.32,.22-.51,.57-.55,.96-.03,.38,.11,.75,.38,1.03l12.11,12.11c.38,.38,1,.38,1.37,0,.19-.19,.3-.46,.28-.73l-1.18-26.73c-.24-5.49,2.53-10.63,7.24-13.41l.2-.12-7.03-7.03c-1.64-1.64-4.3-1.64-5.94,0-.81,.81-1.26,1.94-1.23,3.08Z" />
        <path class="c" d="M209.95,215.7h5.75v-5.75c0-1.38-.54-2.68-1.52-3.66-.98-.98-2.28-1.52-3.66-1.52h-5.75v5.75c0,2.85,2.32,5.18,5.18,5.18Z" />
        <path class="c" d="M286.55,292.3h5.75v-5.75c0-1.38-.54-2.68-1.52-3.66-.98-.98-2.28-1.52-3.66-1.52h-5.75v5.75c0,2.85,2.32,5.18,5.18,5.18Z" />
        <path class="c" d="M240.23,240.23c-.59,.59-1.48,.7-2.17,.28-2.37-1.43-5.22-1.59-7.81-.44-3.17,1.41-5.19,4.79-5.04,8.41,.27,6.13,2.81,11.89,7.15,16.24,4.34,4.34,10.11,6.88,16.24,7.15,3.63,.16,7.01-1.87,8.41-5.04,1.15-2.59,.99-5.44-.44-7.81-.42-.69-.3-1.59,.29-2.17,.59-.59,1.48-.7,2.17-.28,2.37,1.43,5.22,1.59,7.81,.44,3.17-1.41,5.2-4.79,5.04-8.41-.27-6.13-2.81-11.89-7.15-16.24-4.34-4.34-10.11-6.88-16.24-7.15-3.62-.16-7.01,1.87-8.41,5.03-1.15,2.59-.99,5.44,.44,7.82,.42,.69,.3,1.59-.28,2.17h0Z" />
        <path class="c" d="M189.78,402.82l-6.53-6.18-.03,.17c-.14,.99-.46,1.92-.95,2.77l-.06,.1,.12,.03c2.4,.61,4.68,1.53,6.8,2.73l.65,.37Z" />
        <path class="c" d="M160.95,447.57l6.53,6.18,.03-.17c.14-.99,.46-1.92,.95-2.77l.06-.1-.12-.03c-2.4-.61-4.68-1.53-6.8-2.73l-.65-.37Z" />
        <path class="c" d="M202.38,422.6c-.52,0-.99-.06-1.42-.19-1.56-.47-2.7-1.55-3.21-3.05l-.08-.24-.09,.24s-.03,.07-.04,.11c-.02,.05-.03,.1-.05,.15-.72,1.8-1.82,3.36-3.26,4.62-.27,.24-.43,.58-.43,.95s.16,.71,.43,.95c1.45,1.26,2.55,2.82,3.27,4.62,.02,.05,.04,.1,.05,.14,.01,.04,.03,.08,.04,.12l.09,.24,.08-.24c.51-1.5,1.65-2.58,3.21-3.05,.43-.13,.9-.19,1.42-.19h17.11l-2.59-2.59,2.59-2.59h-17.11Z" />
        <path class="c" d="M182.22,450.7l.06,.1c.49,.85,.81,1.79,.95,2.77l.03,.17,6.53-6.18-.65,.37c-2.12,1.2-4.4,2.12-6.8,2.73l-.12,.03Z" />
        <path class="c" d="M168.52,399.69l-.06-.1c-.49-.85-.81-1.79-.95-2.77l-.03-.17-6.53,6.18,.65-.37c2.12-1.2,4.4-2.11,6.8-2.73l.12-.03Z" />
        <path class="c" d="M148.37,427.79c.51,0,.99,.06,1.42,.19,1.56,.47,2.7,1.55,3.21,3.05l.08,.24,.09-.24s.03-.07,.04-.11c.02-.05,.03-.1,.05-.15,.72-1.8,1.82-3.36,3.27-4.62,.27-.24,.43-.58,.43-.95s-.16-.71-.43-.95c-1.45-1.26-2.55-2.82-3.27-4.62-.02-.05-.04-.1-.05-.15-.01-.04-.03-.08-.04-.12l-.09-.24-.08,.24c-.51,1.5-1.65,2.58-3.21,3.05-.43,.13-.9,.19-1.42,.19h-17.11l2.59,2.59-2.59,2.59h17.12Z" />
        <circle class="c" cx="175.37" cy="395.66" r="4.48" transform="translate(-61.11 33.2) rotate(-9.22)" />
        <path class="c" d="M220.36,432.23c0-.54-.44-.97-.97-.97h-17.13c-.38,0-.75,.17-.99,.46-.25,.29-.36,.68-.29,1.06,.81,4.86-.85,9.79-4.45,13.19l-13.35,12.63c-.83,.79-1.31,1.9-1.31,3.05,0,2.31,1.88,4.2,4.2,4.2h9.95l-.06-.23c-1.37-5.3,.31-10.89,4.36-14.61l19.74-18.07c.2-.18,.32-.44,.32-.72Z" />
        <path class="c" d="M131.35,419.13h17.13c.38,0,.75-.17,.99-.46,.25-.29,.36-.68,.29-1.06-.81-4.86,.85-9.79,4.45-13.19l13.35-12.63c.83-.79,1.31-1.9,1.31-3.05,0-2.31-1.88-4.2-4.2-4.2h-9.95l.06,.23c1.37,5.3-.31,10.89-4.36,14.61l-19.74,18.07c-.2,.18-.32,.44-.32,.72,0,.54,.44,.97,.97,.97Z" />
        <path class="c" d="M154.79,465.62l-.06,.23h9.95c2.31,0,4.2-1.88,4.2-4.2,0-1.15-.48-2.26-1.31-3.05l-13.35-12.63c-3.6-3.4-5.26-8.34-4.45-13.19,.06-.38-.04-.77-.29-1.06-.25-.29-.61-.46-.99-.46h-17.13c-.54,0-.97,.44-.97,.97,0,.27,.11,.53,.32,.72l19.74,18.07c4.06,3.71,5.73,9.31,4.36,14.61Z" />
        <path class="c" d="M175.37,467.07c1.56,0,2.82-1.27,2.82-2.82s-1.27-2.82-2.82-2.82-2.82,1.27-2.82,2.82,1.27,2.82,2.82,2.82Z" />
        <path class="c" d="M172.54,386.15c0,1.56,1.27,2.82,2.82,2.82s2.82-1.27,2.82-2.82-1.27-2.82-2.82-2.82-2.82,1.27-2.82,2.82Z" />
        <circle class="c" cx="175.37" cy="454.72" r="4.48" />
        <path class="c" d="M220.04,417.44l-19.74-18.07c-4.06-3.71-5.73-9.31-4.36-14.61l.06-.23h-9.95c-2.31,0-4.2,1.88-4.2,4.2,0,1.15,.48,2.26,1.31,3.05l13.35,12.63c3.6,3.4,5.26,8.34,4.45,13.19-.06,.38,.04,.77,.29,1.06,.25,.29,.61,.46,.99,.46h17.13c.54,0,.97-.44,.97-.97,0-.27-.12-.53-.32-.72Z" />
        <path class="c" d="M121.2,419.62c-1.38,0-2.68,.54-3.66,1.52l-4.06,4.06,4.06,4.06c2.02,2.02,5.3,2.02,7.32,0l4.06-4.06-4.06-4.06c-.98-.98-2.28-1.52-3.66-1.52Z" />
        <path class="c" d="M233.19,429.26l4.06-4.06-4.06-4.06c-.98-.98-2.28-1.52-3.66-1.52s-2.68,.54-3.66,1.52l-4.06,4.06,4.06,4.06c2.02,2.02,5.3,2.02,7.32,0Z" />
        <path class="c" d="M191.9,441.66c2.68-2.45,3.63-6.27,2.39-9.51-1.02-2.65-3.15-4.55-5.84-5.21-.79-.2-1.34-.91-1.34-1.74s.55-1.54,1.34-1.74c2.69-.67,4.82-2.57,5.84-5.21,1.25-3.24,.29-7.06-2.39-9.51-4.52-4.14-10.39-6.42-16.54-6.42s-12.02,2.28-16.54,6.42c-2.67,2.45-3.63,6.27-2.39,9.51,1.02,2.65,3.15,4.55,5.84,5.21,.79,.2,1.34,.91,1.34,1.74h0c0,.83-.55,1.54-1.34,1.74-2.69,.67-4.82,2.57-5.84,5.21-1.25,3.24-.29,7.06,2.39,9.51,4.52,4.14,10.39,6.42,16.54,6.42,6.14,0,12.02-2.28,16.54-6.42Z" />
        <path class="c" d="M235.35,578.97l.1-.06c2.13-1.26,4.39-2.23,6.74-2.88l.72-.2-8.99,.25,.11,.14c.59,.8,1.03,1.68,1.29,2.63l.03,.12Z" />
        <path class="c" d="M261.73,624.73l-.1,.06c-2.13,1.26-4.39,2.23-6.74,2.88l-.72,.2,8.99-.25-.11-.14c-.59-.8-1.03-1.68-1.29-2.63l-.03-.12Z" />
        <path class="c" d="M265.81,580.92c-.37,.37-.75,.66-1.14,.87-1.44,.77-3.01,.82-4.43,.12l-.23-.11,.11,.23s.03,.07,.05,.11c.02,.05,.05,.1,.07,.14,.77,1.78,1.09,3.66,.96,5.58-.02,.36,.11,.71,.37,.97,.26,.26,.61,.39,.97,.37,1.92-.13,3.79,.19,5.58,.96,.05,.02,.09,.04,.14,.07,.04,.02,.07,.04,.11,.05l.23,.11-.11-.23c-.7-1.42-.66-2.99,.12-4.43,.21-.39,.5-.78,.87-1.14l12.1-12.1h-3.66v-3.67l-12.1,12.1Z" />
        <path class="c" d="M271.42,615.04l.12,.03c.95,.26,1.83,.69,2.63,1.29l.14,.11,.25-8.99-.2,.72c-.65,2.34-1.62,4.61-2.88,6.74l-.06,.1Z" />
        <path class="c" d="M222.78,587.23l-.25,8.99,.2-.72c.65-2.34,1.62-4.61,2.88-6.74l.06-.1-.12-.03c-.95-.26-1.83-.69-2.63-1.29l-.14-.11Z" />
        <path class="c" d="M231.28,622.78c.36-.36,.75-.66,1.14-.87,1.43-.77,3-.81,4.42-.11l.23,.11-.11-.23s-.03-.07-.05-.11c-.02-.05-.05-.09-.07-.14-.77-1.78-1.09-3.66-.96-5.58,.02-.36-.11-.71-.37-.97-.26-.26-.61-.39-.97-.37-1.92,.13-3.79-.19-5.58-.96-.05-.02-.09-.04-.14-.07-.04-.02-.07-.04-.11-.05l-.23-.11,.11,.23c.7,1.42,.66,2.99-.12,4.43-.21,.39-.5,.78-.87,1.14l-12.1,12.1h3.67v3.66l12.1-12.1Z" />
        <circle class="c" cx="227.66" cy="580.97" r="4.48" />
        <path class="c" d="M291.88,616.01l-.2-.12c-4.71-2.78-7.49-7.92-7.24-13.41l1.18-26.73c.01-.27-.09-.54-.28-.73-.38-.38-1-.38-1.37,0l-12.11,12.11c-.27,.27-.41,.65-.38,1.03,.03,.38,.23,.73,.55,.96,4.01,2.86,6.32,7.52,6.18,12.47l-.51,18.37c-.03,1.15,.42,2.27,1.23,3.08,1.64,1.64,4.3,1.64,5.94,0l7.03-7.03Z" />
        <path class="c" d="M211.47,627.96c-.01,.27,.09,.54,.28,.73,.38,.38,.99,.38,1.37,0l12.11-12.11c.27-.27,.41-.65,.38-1.03-.03-.38-.23-.73-.55-.96-4.01-2.86-6.32-7.52-6.18-12.47l.51-18.37c.03-1.15-.42-2.27-1.23-3.08-1.64-1.64-4.3-1.64-5.94,0l-7.03,7.03,.2,.12c4.71,2.78,7.49,7.92,7.24,13.41l-1.18,26.73Z" />
        <path class="c" d="M266.65,630.99l-18.37,.51c-4.95,.14-9.62-2.17-12.47-6.18-.22-.31-.57-.51-.96-.55-.38-.03-.76,.11-1.03,.38l-12.11,12.11c-.38,.38-.38,1,0,1.37,.19,.19,.46,.3,.73,.28l26.73-1.18c5.49-.24,10.63,2.53,13.41,7.24l.12,.2,7.03-7.03c1.64-1.64,1.64-4.3,0-5.94-.81-.81-1.94-1.26-3.08-1.23Z" />
        <path class="c" d="M274.16,627.47c-1.1,1.1-1.1,2.89,0,3.99s2.89,1.1,3.99,0c1.1-1.1,1.1-2.89,0-3.99-1.1-1.1-2.89-1.1-3.99,0Z" />
        <path class="c" d="M218.93,572.24c-1.1,1.1-1.1,2.89,0,3.99,1.1,1.1,2.89,1.1,3.99,0,1.1-1.1,1.1-2.89,0-3.99-1.1-1.1-2.89-1.1-3.99,0Z" />
        <circle class="c" cx="269.42" cy="622.73" r="4.48" />
        <path class="c" d="M274.65,564.78l-26.73,1.18c-5.49,.24-10.63-2.53-13.41-7.24l-.12-.2-7.03,7.03c-1.64,1.64-1.64,4.3,0,5.94,.81,.81,1.94,1.26,3.08,1.23l18.37-.51c4.95-.14,9.62,2.17,12.47,6.18,.22,.32,.57,.51,.96,.55,.38,.03,.75-.11,1.03-.38l12.11-12.11c.38-.38,.38-1,0-1.37-.19-.19-.46-.3-.73-.28Z" />
        <path class="c" d="M206.3,636.2c-.98,.98-1.52,2.28-1.52,3.66v5.75h5.75c2.85,0,5.18-2.32,5.18-5.18v-5.75h-5.75c-1.38,0-2.68,.54-3.66,1.52Z" />
        <path class="c" d="M282.9,559.6c-.98,.98-1.52,2.28-1.52,3.66v5.75h5.75c2.85,0,5.18-2.32,5.18-5.18v-5.75h-5.75c-1.38,0-2.68,.54-3.66,1.52Z" />
        <path class="c" d="M266.84,593.38c-2.59-1.15-5.44-.99-7.81,.44-.69,.42-1.59,.3-2.17-.29-.59-.59-.7-1.48-.28-2.17,1.43-2.37,1.59-5.22,.44-7.81-1.41-3.17-4.79-5.2-8.41-5.04-6.13,.27-11.89,2.81-16.24,7.15s-6.88,10.11-7.15,16.24c-.16,3.62,1.87,7.01,5.03,8.41,2.59,1.15,5.44,.99,7.82-.44,.69-.42,1.59-.3,2.17,.28h0c.59,.59,.7,1.48,.28,2.17-1.43,2.37-1.59,5.22-.44,7.81,1.41,3.17,4.79,5.19,8.41,5.04,6.13-.27,11.89-2.81,16.24-7.15,4.34-4.34,6.88-10.11,7.15-16.24,.16-3.63-1.87-7.01-5.04-8.41Z" />
        <path class="c" d="M494.61,651.25l-3.21,8.4,.17-.04c.97-.24,1.95-.31,2.92-.18h.12l-.02-.1c-.35-2.45-.38-4.91-.08-7.32l.09-.74Z" />
        <path class="c" d="M546.99,660.76l3.21-8.4-.17,.04c-.97,.24-1.95,.31-2.92,.18h-.12l.02,.1c.35,2.45,.38,4.91,.08,7.32l-.09,.74Z" />
        <path class="c" d="M506.85,637.56l-.19,.17h.26s.08-.01,.12-.02c.05,0,.11,0,.16,0,1.94-.03,3.8,.39,5.52,1.25,.32,.16,.7,.17,1.04,.03s.6-.42,.71-.76c.61-1.82,1.63-3.43,3.02-4.79,.04-.04,.07-.07,.11-.1,.03-.03,.06-.05,.09-.08l.19-.17-.26,.02c-1.58,.1-3.01-.54-4.04-1.8-.28-.34-.52-.76-.72-1.24l-6.55-15.81-1.4,3.39-3.39-1.4,6.55,15.81c.2,.48,.32,.94,.37,1.39,.17,1.62-.4,3.09-1.58,4.13Z" />
        <path class="c" d="M541.67,639.82l.07,.1,.07-.09c.6-.78,1.34-1.43,2.2-1.94l.15-.09-8.21-3.67,.59,.46c1.92,1.5,3.64,3.26,5.12,5.24Z" />
        <path class="c" d="M505.05,677.42c-1.92-1.5-3.64-3.26-5.12-5.24l-.07-.1-.07,.09c-.6,.78-1.34,1.43-2.2,1.94l-.15,.09,8.21,3.67-.59-.46Z" />
        <path class="c" d="M540.08,695.78l-6.55-15.81c-.2-.48-.32-.94-.36-1.38-.16-1.62,.4-3.09,1.59-4.13l.19-.17h-.26s-.08,.01-.12,.02c-.05,0-.11,0-.16,0-1.94,.03-3.8-.39-5.52-1.25-.32-.16-.7-.17-1.04-.03s-.6,.42-.71,.76c-.61,1.82-1.63,3.43-3.02,4.79-.04,.04-.08,.07-.12,.1-.03,.03-.06,.05-.09,.08l-.19,.17,.26-.02c1.58-.1,3.01,.54,4.04,1.8,.28,.35,.52,.76,.72,1.24l6.55,15.81,1.4-3.39,3.39,1.4Z" />
        <path class="c" d="M489.38,669.02c.94,2.28,3.57,3.37,5.85,2.42,2.28-.94,3.37-3.57,2.42-5.85-.94-2.28-3.57-3.37-5.85-2.42-2.28,.94-3.37,3.57-2.42,5.85Z" />
        <path class="c" d="M554.27,630.57l-3.81-9.19-.19,.14c-4.37,3.29-10.18,3.89-15.16,1.56l-24.24-11.32c-.25-.11-.53-.12-.78-.02-.49,.2-.73,.77-.53,1.27l6.56,15.83c.15,.35,.44,.62,.8,.74,.37,.12,.77,.07,1.09-.14,4.17-2.61,9.37-2.96,13.89-.94l16.78,7.5c1.05,.47,2.26,.49,3.32,.05,2.14-.89,3.16-3.35,2.27-5.48Z" />
        <path class="c" d="M525.49,683.17c-.15-.35-.44-.62-.8-.74-.37-.12-.77-.07-1.09,.14-4.17,2.61-9.37,2.96-13.89,.94l-16.78-7.5c-1.05-.47-2.26-.49-3.32-.05-2.14,.89-3.16,3.35-2.27,5.48l3.81,9.19,.19-.14c4.37-3.29,10.18-3.89,15.16-1.56l24.24,11.32c.25,.12,.53,.12,.78,.02,.49-.2,.73-.77,.53-1.27l-6.56-15.83Z" />
        <path class="c" d="M556.97,648.05c-1.06,.44-1.91,1.31-2.32,2.38l-6.56,17.17c-1.77,4.63-5.69,8.05-10.48,9.16-.38,.09-.69,.33-.87,.68-.18,.34-.19,.74-.04,1.09l6.56,15.83c.21,.5,.77,.73,1.27,.53,.25-.1,.45-.31,.54-.57l9.14-25.15c1.88-5.17,6.41-8.86,11.82-9.62l.23-.03-3.81-9.19c-.89-2.14-3.35-3.16-5.48-2.27Z" />
        <path class="c" d="M557.96,643.67c1.44-.6,2.12-2.25,1.53-3.69-.6-1.44-2.25-2.12-3.69-1.53-1.44,.6-2.12,2.25-1.53,3.69,.6,1.44,2.25,2.12,3.69,1.53Z" />
        <path class="c" d="M487.33,669.87c-.6-1.44-2.25-2.12-3.69-1.53-1.44,.6-2.12,2.25-1.53,3.69,.6,1.44,2.25,2.12,3.69,1.53,1.44-.6,2.12-2.25,1.53-3.69Z" />
        <path class="c" d="M552.22,642.99c-.94-2.28-3.57-3.37-5.85-2.42-2.28,.94-3.37,3.57-2.42,5.85,.94,2.28,3.57,3.37,5.85,2.42,2.28-.94,3.37-3.57,2.42-5.85Z" />
        <path class="c" d="M484.64,663.96c1.06-.44,1.91-1.31,2.31-2.38l6.56-17.17c1.77-4.63,5.69-8.05,10.48-9.16,.38-.09,.69-.33,.87-.68,.18-.34,.19-.74,.04-1.09l-6.56-15.83c-.2-.49-.77-.73-1.27-.53-.25,.1-.45,.31-.54,.57l-9.14,25.15c-1.88,5.17-6.41,8.86-11.82,9.62l-.23,.03,3.81,9.19c.89,2.14,3.35,3.16,5.48,2.27Z" />
        <path class="c" d="M543.89,701.11l-5.31-2.2-2.2,5.31c-.53,1.28-.53,2.68,0,3.96,.53,1.28,1.52,2.27,2.8,2.8l5.31,2.2,2.2-5.31c1.09-2.64-.16-5.67-2.8-6.76Z" />
        <path class="c" d="M502.43,601.03l-5.31-2.2-2.2,5.31c-.53,1.28-.53,2.68,0,3.96,.53,1.28,1.52,2.27,2.8,2.8l5.31,2.2,2.2-5.31c1.09-2.64-.16-5.67-2.8-6.76Z" />
        <path class="c" d="M525.3,666.86h0c.77-.32,1.64-.08,2.12,.57,1.65,2.23,4.22,3.47,7.05,3.4,3.47-.09,6.63-2.44,7.87-5.85,2.1-5.76,1.96-12.06-.39-17.74-2.35-5.68-6.71-10.23-12.26-12.82-3.29-1.53-7.19-.96-9.7,1.43-2.05,1.95-3,4.65-2.58,7.39,.12,.8-.33,1.58-1.1,1.9-.77,.32-1.64,.08-2.12-.57-1.65-2.23-4.22-3.47-7.05-3.4-3.47,.09-6.63,2.44-7.87,5.85-2.1,5.76-1.96,12.06,.39,17.74,2.35,5.68,6.71,10.23,12.26,12.82,3.29,1.53,7.19,.96,9.7-1.43,2.05-1.95,3-4.65,2.58-7.39-.12-.8,.33-1.58,1.09-1.9Z" />
        <path class="c" d="M634.59,536.55l-.46-.59,3.67,8.21,.09-.15c.51-.86,1.16-1.59,1.94-2.2l.09-.07-.1-.07c-1.98-1.48-3.74-3.21-5.24-5.12Z" />
        <path class="c" d="M674.13,497.59c-.51,.86-1.16,1.59-1.94,2.2l-.09,.07,.1,.07c1.98,1.48,3.74,3.21,5.24,5.12l.46,.59-3.67-8.21-.09,.15Z" />
        <path class="c" d="M630.06,512.86c.48,.2,.89,.44,1.24,.72,1.26,1.03,1.9,2.47,1.8,4.04l-.02,.26,.17-.19s.05-.06,.08-.09c.04-.04,.07-.08,.11-.12,1.35-1.39,2.96-2.41,4.78-3.02,.34-.11,.62-.37,.76-.71,.14-.34,.13-.72-.03-1.04-.86-1.72-1.27-3.58-1.25-5.52,0-.05,0-.1,0-.15,0-.04,0-.08,0-.13v-.26l-.16,.19c-1.04,1.19-2.51,1.75-4.13,1.58-.44-.05-.91-.17-1.39-.37l-15.81-6.55,1.4,3.39-3.39,1.4,15.81,6.55Z" />
        <path class="c" d="M659.65,491.4l-8.4,3.21,.74-.09c2.41-.3,4.88-.27,7.33,.08l.12,.02v-.12c-.14-.97-.08-1.96,.17-2.92l.04-.17Z" />
        <path class="c" d="M652.36,550.2l8.4-3.21-.74,.09c-2.41,.3-4.88,.27-7.32-.08l-.12-.02v.12c.14,.97,.08,1.96-.17,2.92l-.04,.17Z" />
        <path class="c" d="M680.71,528.02c-1.26-1.03-1.9-2.46-1.8-4.04l.02-.26-.17,.19s-.05,.06-.08,.09c-.03,.04-.07,.08-.11,.12-1.35,1.39-2.96,2.41-4.79,3.02-.34,.11-.62,.37-.76,.71s-.13,.72,.03,1.04c.86,1.72,1.28,3.58,1.25,5.52,0,.05,0,.1,0,.16,0,.04,0,.08,0,.12v.26l.16-.19c1.04-1.19,2.51-1.75,4.13-1.58,.44,.05,.91,.17,1.39,.37l15.81,6.55-1.4-3.39,3.39-1.4-15.81-6.55c-.48-.2-.89-.44-1.23-.72Z" />
        <circle class="c" cx="644.71" cy="548.08" r="4.48" transform="translate(-106.18 157.95) rotate(-12.91)" />
        <path class="c" d="M617.13,497.08c-.2,.49,.03,1.06,.53,1.27l15.83,6.56c.35,.15,.75,.13,1.09-.04,.34-.18,.59-.49,.68-.87,1.11-4.8,4.53-8.72,9.16-10.48l17.17-6.56c1.07-.41,1.94-1.25,2.38-2.31,.89-2.14-.13-4.6-2.27-5.48l-9.19-3.81-.03,.23c-.77,5.42-4.45,9.95-9.62,11.82l-25.15,9.14c-.26,.09-.46,.29-.57,.54Z" />
        <path class="c" d="M694.36,543.25l-15.83-6.56c-.35-.15-.75-.13-1.09,.04-.34,.18-.59,.49-.68,.87-1.11,4.8-4.53,8.72-9.16,10.48l-17.17,6.56c-1.07,.41-1.94,1.25-2.38,2.31-.89,2.14,.13,4.6,2.27,5.48l9.19,3.81,.03-.23c.77-5.42,4.45-9.95,9.62-11.82l25.15-9.14c.26-.09,.46-.29,.57-.54,.2-.49-.03-1.06-.53-1.27Z" />
        <path class="c" d="M690.49,491.32l.14-.19-9.19-3.81c-2.14-.89-4.6,.13-5.48,2.27-.44,1.06-.42,2.27,.05,3.32l7.5,16.78c2.02,4.52,1.67,9.72-.94,13.89-.2,.33-.26,.73-.14,1.09,.12,.36,.39,.66,.74,.8l15.83,6.56c.5,.21,1.06-.03,1.27-.53,.1-.25,.1-.54-.02-.78l-11.32-24.24c-2.33-4.98-1.73-10.79,1.56-15.16Z" />
        <path class="c" d="M673.56,485.8c.6-1.44-.09-3.09-1.53-3.69-1.44-.6-3.09,.09-3.69,1.53-.6,1.44,.09,3.09,1.53,3.69,1.44,.6,3.09-.09,3.69-1.53Z" />
        <path class="c" d="M638.46,555.8c-.6,1.44,.09,3.09,1.53,3.69,1.44,.6,3.09-.09,3.69-1.53,.6-1.44-.09-3.09-1.53-3.69-1.44-.6-3.09,.09-3.69,1.53Z" />
        <path class="c" d="M669.02,489.38c-2.28-.94-4.91,.14-5.85,2.42s.14,4.91,2.42,5.85c2.28,.94,4.91-.14,5.85-2.42,.94-2.28-.14-4.91-2.42-5.85Z" />
        <path class="c" d="M623.09,535.11c2.33,4.98,1.73,10.79-1.56,15.16l-.14,.19,9.19,3.81c2.14,.89,4.6-.13,5.48-2.27,.44-1.06,.42-2.27-.05-3.32l-7.5-16.78c-2.02-4.52-1.67-9.72,.94-13.89,.21-.33,.26-.73,.14-1.09-.12-.36-.39-.66-.74-.8l-15.83-6.56c-.49-.2-1.06,.03-1.27,.53-.1,.25-.1,.54,.02,.78l11.32,24.24Z" />
        <path class="c" d="M701.11,543.88c.53,1.28,1.52,2.27,2.8,2.8,1.28,.53,2.68,.53,3.96,0l5.31-2.2-2.2-5.31c-1.09-2.64-4.13-3.89-6.76-2.8l-5.31,2.2,2.2,5.31Z" />
        <path class="c" d="M610.9,497.72c-1.09-2.64-4.13-3.89-6.76-2.8l-5.31,2.2,2.2,5.31c.53,1.28,1.52,2.27,2.8,2.8,1.28,.53,2.68,.53,3.96,0l5.31-2.2-2.2-5.31Z" />
        <path class="c" d="M666.87,525.3c.32-.77,1.1-1.22,1.9-1.09,2.74,.41,5.43-.53,7.39-2.58,2.39-2.51,2.97-6.41,1.43-9.7-2.59-5.56-7.14-9.91-12.82-12.26-5.68-2.35-11.97-2.49-17.74-.39-3.41,1.24-5.76,4.41-5.85,7.87-.07,2.83,1.17,5.4,3.4,7.05,.65,.48,.89,1.35,.57,2.12-.32,.77-1.1,1.22-1.9,1.09-2.74-.41-5.43,.53-7.39,2.58-2.39,2.51-2.97,6.41-1.43,9.7,2.59,5.56,7.14,9.91,12.82,12.26s11.97,2.49,17.74,.39c3.41-1.24,5.76-4.4,5.85-7.87,.07-2.84-1.17-5.41-3.4-7.05-.65-.48-.89-1.35-.57-2.12h0Z" />
        <path class="c" d="M659.44,355.77l-.12,.02c-2.45,.35-4.91,.38-7.32,.08l-.74-.09,8.4,3.21-.04-.17c-.24-.97-.31-1.95-.18-2.92v-.12Z" />
        <path class="c" d="M652.57,303.41l.12-.02c2.45-.35,4.91-.38,7.32-.08l.74,.09-8.4-3.21,.04,.17c.24,.97,.31,1.95,.18,2.92v.12Z" />
        <path class="c" d="M632.04,342.32c.48-.2,.94-.32,1.39-.37,1.62-.17,3.09,.4,4.13,1.58l.17,.19v-.26s-.01-.08-.02-.12c0-.05,0-.11,0-.16-.03-1.94,.39-3.8,1.25-5.52,.16-.32,.17-.7,.03-1.04-.14-.34-.42-.6-.76-.71-1.82-.61-3.43-1.63-4.79-3.02-.04-.04-.07-.07-.1-.11-.03-.03-.05-.06-.08-.09l-.17-.19,.02,.26c.1,1.58-.54,3.01-1.8,4.04-.34,.28-.76,.52-1.24,.72l-15.81,6.55,3.39,1.4-1.4,3.39,15.81-6.55Z" />
        <path class="c" d="M637.8,306.23l-3.67,8.21,.46-.59c1.5-1.92,3.26-3.64,5.24-5.12l.1-.07-.09-.07c-.78-.6-1.43-1.34-1.94-2.2l-.09-.15Z" />
        <path class="c" d="M677.43,345.34c-1.5,1.92-3.26,3.64-5.24,5.12l-.1,.07,.09,.07c.78,.6,1.43,1.34,1.94,2.2l.09,.15,3.67-8.21-.46,.59Z" />
        <path class="c" d="M679.96,316.86c-.48,.2-.94,.32-1.38,.36-1.62,.16-3.09-.4-4.13-1.59l-.17-.19v.26s.01,.08,.02,.12c0,.05,0,.11,0,.16,.03,1.94-.39,3.8-1.25,5.52-.16,.32-.17,.7-.03,1.04,.14,.34,.42,.6,.76,.71,1.82,.61,3.43,1.63,4.79,3.02,.04,.04,.07,.08,.1,.12,.03,.03,.05,.06,.08,.09l.17,.19-.02-.26c-.1-1.58,.54-3.01,1.8-4.04,.35-.28,.76-.52,1.24-.72l15.81-6.55-3.39-1.4,1.4-3.39-15.81,6.55Z" />
        <path class="c" d="M671.44,355.16c-.94-2.28-3.57-3.37-5.85-2.42-2.28,.94-3.37,3.57-2.42,5.85s3.57,3.37,5.85,2.42c2.28-.94,3.37-3.57,2.42-5.85Z" />
        <path class="c" d="M629.58,333.47c.12-.37,.07-.77-.14-1.09-2.61-4.17-2.96-9.37-.94-13.89l7.5-16.78c.47-1.05,.49-2.26,.05-3.32-.89-2.14-3.35-3.16-5.48-2.27l-9.19,3.81,.14,.19c3.29,4.37,3.89,10.18,1.56,15.16l-11.32,24.24c-.11,.25-.12,.53-.02,.78,.2,.49,.77,.73,1.27,.53l15.83-6.56c.35-.15,.62-.44,.74-.8Z" />
        <path class="c" d="M699,318.35l-15.83,6.56c-.35,.15-.62,.44-.74,.8-.12,.37-.07,.77,.14,1.09,2.61,4.17,2.96,9.37,.94,13.89l-7.5,16.78c-.47,1.05-.49,2.26-.05,3.32,.89,2.14,3.35,3.16,5.48,2.27l9.19-3.81-.14-.19c-3.29-4.37-3.89-10.18-1.56-15.16l11.32-24.24c.11-.25,.12-.53,.02-.78-.2-.49-.77-.73-1.27-.53Z" />
        <path class="c" d="M650.43,295.74l17.17,6.56c4.63,1.77,8.05,5.69,9.16,10.48,.09,.38,.33,.69,.68,.87,.34,.18,.74,.19,1.09,.04l15.83-6.56c.49-.21,.73-.77,.53-1.27-.1-.25-.31-.45-.57-.54l-25.15-9.14c-5.17-1.88-8.86-6.41-9.62-11.82l-.03-.23-9.19,3.81c-2.14,.89-3.16,3.35-2.27,5.48,.44,1.06,1.31,1.91,2.38,2.32Z" />
        <path class="c" d="M642.14,296.12c1.44-.6,2.12-2.25,1.53-3.69-.6-1.44-2.25-2.12-3.69-1.53-1.44,.6-2.12,2.25-1.53,3.69,.6,1.44,2.25,2.12,3.69,1.53Z" />
        <path class="c" d="M672.03,368.27c1.44-.6,2.12-2.25,1.53-3.69-.6-1.44-2.25-2.12-3.69-1.53-1.44,.6-2.12,2.25-1.53,3.69,.6,1.44,2.25,2.12,3.69,1.53Z" />
        <path class="c" d="M642.99,298.17c-2.28,.94-3.37,3.57-2.42,5.85,.94,2.28,3.57,3.37,5.85,2.42s3.37-3.57,2.42-5.85-3.57-3.37-5.85-2.42Z" />
        <path class="c" d="M617.7,353.85l25.15,9.14c5.17,1.88,8.86,6.41,9.62,11.82l.03,.23,9.19-3.81c2.14-.89,3.16-3.35,2.27-5.48-.44-1.06-1.31-1.91-2.38-2.31l-17.17-6.56c-4.63-1.77-8.05-5.69-9.16-10.48-.09-.38-.33-.69-.68-.87-.34-.18-.74-.19-1.09-.04l-15.83,6.56c-.49,.2-.73,.77-.53,1.27,.1,.25,.31,.45,.57,.54Z" />
        <path class="c" d="M708.18,314.02c1.28-.53,2.27-1.52,2.8-2.8l2.2-5.31-5.31-2.2c-2.64-1.09-5.67,.16-6.76,2.8l-2.2,5.31,5.31,2.2c1.28,.53,2.68,.53,3.96,0Z" />
        <path class="c" d="M601.03,347.96l-2.2,5.31,5.31,2.2c1.28,.53,2.68,.53,3.96,0,1.28-.53,2.27-1.52,2.8-2.8l2.2-5.31-5.31-2.2c-2.64-1.09-5.67,.16-6.76,2.8Z" />
        <path class="c" d="M634.43,320.71c-1.53,3.29-.96,7.19,1.43,9.7,1.95,2.05,4.65,3,7.39,2.58,.8-.12,1.58,.33,1.9,1.1,.32,.77,.08,1.64-.57,2.12-2.23,1.65-3.47,4.22-3.4,7.05,.09,3.47,2.44,6.63,5.85,7.87,5.76,2.1,12.06,1.96,17.74-.39,5.68-2.35,10.23-6.71,12.82-12.26,1.53-3.29,.96-7.19-1.43-9.7-1.95-2.05-4.65-3-7.39-2.58-.8,.12-1.58-.33-1.9-1.09h0c-.32-.77-.08-1.64,.57-2.12,2.23-1.65,3.47-4.22,3.4-7.05-.09-3.47-2.44-6.63-5.85-7.87-5.76-2.1-12.06-1.96-17.74,.39-5.68,2.35-10.23,6.71-12.82,12.26Z" />
        <path class="c" d="M541.82,210.56l-.07-.09-.07,.1c-1.48,1.98-3.21,3.74-5.12,5.24l-.59,.46,8.21-3.67-.15-.09c-.86-.51-1.59-1.16-2.2-1.94Z" />
        <path class="c" d="M499.79,178.2l.07,.09,.07-.1c1.48-1.98,3.21-3.74,5.12-5.24l.59-.46-8.21,3.67,.15,.09c.86,.51,1.59,1.16,2.2,1.94Z" />
        <path class="c" d="M512.86,220.33c.2-.48,.44-.89,.72-1.24,1.03-1.26,2.47-1.9,4.04-1.8l.26,.02-.19-.17s-.06-.05-.09-.08c-.04-.04-.08-.07-.12-.11-1.39-1.35-2.41-2.96-3.02-4.78-.11-.34-.37-.62-.71-.76-.34-.14-.72-.13-1.04,.03-1.72,.86-3.58,1.27-5.52,1.25-.05,0-.1,0-.15,0-.04,0-.08,0-.12,0h-.26l.19,.16c1.19,1.04,1.75,2.51,1.58,4.13-.05,.44-.17,.91-.37,1.39l-6.55,15.81,3.39-1.4,1.4,3.39,6.55-15.81Z" />
        <path class="c" d="M494.62,190.95h-.12c-.97,.14-1.96,.08-2.92-.17l-.17-.04,3.21,8.4-.09-.74c-.3-2.41-.27-4.88,.08-7.33l.02-.12Z" />
        <path class="c" d="M546.98,197.82h.12c.97-.14,1.96-.08,2.92,.17l.17,.04-3.21-8.4,.09,.74c.3,2.41,.27,4.88-.08,7.32l-.02,.12Z" />
        <path class="c" d="M528.02,169.68c-1.03,1.26-2.47,1.9-4.04,1.8l-.26-.02,.19,.17s.06,.05,.09,.08c.04,.03,.08,.07,.12,.11,1.39,1.35,2.41,2.96,3.02,4.79,.11,.34,.37,.62,.71,.76s.72,.13,1.04-.03c1.72-.86,3.58-1.28,5.52-1.25,.05,0,.1,0,.16,0,.04,0,.08,0,.12,0h.26l-.19-.16c-1.19-1.04-1.75-2.51-1.58-4.13,.05-.44,.17-.91,.37-1.39l6.55-15.81-3.39,1.4-1.4-3.39-6.55,15.81c-.2,.48-.44,.89-.72,1.23Z" />
        <path class="c" d="M543.95,203.97c-.94,2.28,.14,4.91,2.42,5.85,2.28,.94,4.91-.14,5.85-2.42s-.14-4.91-2.42-5.85c-2.28-.94-4.91,.14-5.85,2.42Z" />
        <path class="c" d="M487.4,207.54l9.14,25.15c.09,.26,.29,.46,.54,.57,.49,.2,1.06-.03,1.27-.53l6.56-15.83c.15-.35,.13-.75-.04-1.09-.18-.34-.49-.59-.87-.68-4.8-1.11-8.72-4.53-10.48-9.16l-6.56-17.17c-.41-1.07-1.25-1.94-2.31-2.38-2.14-.89-4.6,.13-5.48,2.27l-3.81,9.19,.23,.03c5.42,.77,9.95,4.45,11.82,9.62Z" />
        <path class="c" d="M544.52,155.51c-.49-.2-1.06,.03-1.27,.53l-6.56,15.83c-.15,.35-.13,.75,.04,1.09,.18,.34,.49,.59,.87,.68,4.8,1.11,8.72,4.53,10.48,9.16l6.56,17.17c.41,1.07,1.25,1.94,2.31,2.38,2.14,.89,4.6-.13,5.48-2.27l3.81-9.19-.23-.03c-5.42-.77-9.95-4.45-11.82-9.62l-9.14-25.15c-.09-.26-.29-.46-.54-.57Z" />
        <path class="c" d="M489.6,174.43c1.06,.44,2.27,.42,3.32-.05l16.78-7.5c4.52-2.02,9.72-1.67,13.89,.94,.33,.2,.73,.26,1.09,.14,.36-.12,.66-.39,.8-.74l6.56-15.83c.21-.5-.03-1.06-.53-1.27-.25-.1-.54-.1-.78,.02l-24.24,11.32c-4.98,2.33-10.79,1.73-15.16-1.56l-.19-.14-3.81,9.19c-.89,2.14,.13,4.6,2.27,5.48Z" />
        <path class="c" d="M483.64,182.05c1.44,.6,3.09-.09,3.69-1.53,.6-1.44-.09-3.09-1.53-3.69-1.44-.6-3.09,.09-3.69,1.53-.6,1.44,.09,3.09,1.53,3.69Z" />
        <path class="c" d="M555.8,211.93c1.44,.6,3.09-.09,3.69-1.53,.6-1.44-.09-3.09-1.53-3.69-1.44-.6-3.09,.09-3.69,1.53-.6,1.44,.09,3.09,1.53,3.69Z" />
        <path class="c" d="M497.66,184.8c.94-2.28-.14-4.91-2.42-5.85-2.28-.94-4.91,.14-5.85,2.42-.94,2.28,.14,4.91,2.42,5.85,2.28,.94,4.91-.14,5.85-2.42Z" />
        <path class="c" d="M510.08,238.64c.25,.1,.54,.1,.78-.02l24.24-11.32c4.98-2.33,10.79-1.73,15.16,1.56l.19,.14,3.81-9.19c.89-2.14-.13-4.6-2.27-5.48-1.06-.44-2.27-.42-3.32,.05l-16.78,7.5c-4.52,2.02-9.72,1.67-13.89-.94-.33-.21-.73-.26-1.09-.14-.36,.12-.66,.39-.8,.74l-6.56,15.83c-.2,.49,.03,1.06,.53,1.27Z" />
        <path class="c" d="M538.57,151.48l5.31-2.2c1.28-.53,2.27-1.52,2.8-2.8s.53-2.68,0-3.96l-2.2-5.31-5.31,2.2c-2.64,1.09-3.89,4.13-2.8,6.76l2.2,5.31Z" />
        <path class="c" d="M497.72,239.49c-2.64,1.09-3.89,4.13-2.8,6.76l2.2,5.31,5.31-2.2c1.28-.53,2.27-1.52,2.8-2.8,.53-1.28,.53-2.68,0-3.96l-2.2-5.31-5.31,2.2Z" />
        <path class="c" d="M507.14,209.21c2.83,.07,5.4-1.17,7.05-3.4,.48-.65,1.35-.89,2.12-.57,.77,.32,1.22,1.1,1.09,1.9-.41,2.74,.53,5.43,2.58,7.39,2.51,2.39,6.41,2.97,9.7,1.43,5.56-2.59,9.91-7.14,12.26-12.82,2.35-5.68,2.49-11.97,.39-17.74-1.24-3.41-4.4-5.76-7.87-5.85-2.84-.07-5.41,1.17-7.05,3.4-.48,.65-1.35,.89-2.12,.57h0c-.77-.32-1.22-1.1-1.09-1.9,.41-2.74-.53-5.43-2.58-7.39-2.51-2.39-6.41-2.97-9.7-1.43-5.56,2.59-9.91,7.14-12.26,12.82-2.35,5.68-2.49,11.97-.39,17.74,1.24,3.41,4.41,5.76,7.87,5.85Z" />
        <path class="c" d="M355.78,199.14l3.21-8.4-.17,.04c-.97,.24-1.95,.31-2.92,.18h-.12l.02,.1c.35,2.45,.38,4.91,.08,7.32l-.09,.74Z" />
        <path class="c" d="M303.4,189.63l-3.21,8.4,.17-.04c.97-.24,1.95-.31,2.92-.18h.12l-.02-.1c-.35-2.45-.38-4.91-.08-7.32l.09-.74Z" />
        <path class="c" d="M345.48,232.75l3.39,1.4-6.55-15.81c-.2-.48-.32-.94-.37-1.39-.17-1.62,.4-3.09,1.58-4.13l.19-.17h-.26s-.08,.01-.12,.02c-.05,0-.11,0-.16,0-1.94,.03-3.8-.39-5.52-1.25-.32-.16-.7-.17-1.04-.03-.34,.14-.6,.42-.71,.76-.61,1.82-1.63,3.43-3.02,4.79-.04,.04-.07,.07-.11,.1-.03,.03-.06,.05-.09,.08l-.19,.17,.26-.02c1.58-.1,3.01,.54,4.04,1.8,.28,.34,.52,.76,.72,1.24l6.55,15.81,1.4-3.39Z" />
        <path class="c" d="M308.72,210.57l-.07-.1-.07,.09c-.6,.78-1.34,1.43-2.2,1.94l-.15,.09,8.21,3.67-.59-.46c-1.92-1.5-3.64-3.26-5.12-5.24Z" />
        <path class="c" d="M345.34,172.96c1.92,1.5,3.64,3.26,5.12,5.24l.07,.1,.07-.09c.6-.78,1.34-1.43,2.2-1.94l.15-.09-8.21-3.67,.59,.46Z" />
        <path class="c" d="M310.31,154.61l6.55,15.81c.2,.48,.32,.94,.36,1.38,.16,1.62-.4,3.09-1.59,4.13l-.19,.17h.26s.08-.01,.12-.02c.05,0,.1,0,.16,0,1.94-.03,3.8,.39,5.52,1.25,.32,.16,.7,.17,1.04,.03,.34-.14,.6-.42,.71-.76,.61-1.82,1.63-3.43,3.02-4.79,.04-.04,.08-.07,.12-.1,.03-.03,.06-.05,.09-.08l.19-.17-.26,.02c-1.58,.1-3.01-.54-4.04-1.8-.28-.35-.52-.76-.72-1.24l-6.55-15.81-1.4,3.39-3.39-1.4Z" />
        <circle class="c" cx="356.87" cy="183.08" r="4.48" transform="translate(-2.85 360.49) rotate(-53.41)" />
        <path class="c" d="M299.93,229l.19-.14c4.37-3.29,10.18-3.89,15.16-1.56l24.24,11.32c.25,.11,.53,.12,.78,.02,.49-.2,.73-.77,.53-1.27l-6.56-15.83c-.15-.35-.44-.62-.8-.74-.37-.12-.77-.07-1.09,.14-4.17,2.61-9.37,2.96-13.89,.94l-16.78-7.5c-1.05-.47-2.26-.49-3.32-.05-2.14,.89-3.16,3.35-2.27,5.48l3.81,9.19Z" />
        <path class="c" d="M324.9,167.22c.15,.35,.44,.62,.8,.74,.37,.12,.77,.07,1.09-.14,4.17-2.61,9.37-2.96,13.89-.94l16.78,7.5c1.05,.47,2.26,.49,3.32,.05,2.14-.89,3.16-3.35,2.27-5.48l-3.81-9.19-.19,.14c-4.37,3.29-10.18,3.89-15.16,1.56l-24.24-11.32c-.25-.12-.53-.12-.78-.02-.49,.2-.73,.77-.53,1.27l6.56,15.83Z" />
        <path class="c" d="M293.42,202.34c1.06-.44,1.91-1.31,2.31-2.38l6.56-17.17c1.77-4.63,5.69-8.05,10.48-9.16,.38-.09,.69-.33,.87-.68,.18-.34,.19-.74,.04-1.09l-6.56-15.83c-.21-.49-.77-.73-1.27-.53-.25,.1-.45,.31-.54,.57l-9.14,25.15c-1.88,5.17-6.41,8.86-11.82,9.62l-.23,.03,3.81,9.19c.89,2.14,3.35,3.16,5.48,2.27Z" />
        <path class="c" d="M292.43,206.72c-1.44,.6-2.12,2.25-1.53,3.69,.6,1.44,2.25,2.12,3.69,1.53,1.44-.6,2.12-2.25,1.53-3.69-.6-1.44-2.25-2.12-3.69-1.53Z" />
        <path class="c" d="M363.06,180.52c.6,1.44,2.25,2.12,3.69,1.53,1.44-.6,2.12-2.25,1.53-3.69-.6-1.44-2.25-2.12-3.69-1.53-1.44,.6-2.12,2.25-1.53,3.69Z" />
        <path class="c" d="M298.17,207.4c.94,2.28,3.57,3.37,5.85,2.42,2.28-.94,3.37-3.57,2.42-5.85-.94-2.28-3.57-3.37-5.85-2.42-2.28,.94-3.37,3.57-2.42,5.85Z" />
        <path class="c" d="M365.76,186.43c-1.06,.44-1.91,1.31-2.31,2.38l-6.56,17.17c-1.77,4.63-5.69,8.05-10.48,9.16-.38,.09-.69,.33-.87,.68-.18,.34-.19,.74-.04,1.09l6.56,15.83c.2,.49,.77,.73,1.27,.53,.25-.1,.45-.31,.54-.57l9.14-25.15c1.88-5.17,6.41-8.86,11.82-9.62l.23-.03-3.81-9.19c-.89-2.14-3.35-3.16-5.48-2.27Z" />
        <path class="c" d="M306.51,149.28l5.31,2.2,2.2-5.31c.53-1.28,.53-2.68,0-3.96-.53-1.28-1.52-2.27-2.8-2.8l-5.31-2.2-2.2,5.31c-1.09,2.64,.16,5.67,2.8,6.76Z" />
        <path class="c" d="M347.96,249.36l5.31,2.2,2.2-5.31c.53-1.28,.53-2.68,0-3.96s-1.52-2.27-2.8-2.8l-5.31-2.2-2.2,5.31c-1.09,2.64,.16,5.67,2.8,6.76Z" />
        <path class="c" d="M325.09,183.53h0c-.77,.32-1.64,.08-2.12-.57-1.65-2.23-4.22-3.47-7.05-3.4-3.47,.09-6.63,2.44-7.87,5.85-2.1,5.76-1.96,12.06,.39,17.74,2.35,5.68,6.71,10.23,12.26,12.82,3.29,1.53,7.19,.96,9.7-1.43,2.05-1.95,3-4.65,2.58-7.39-.12-.8,.33-1.58,1.1-1.9,.77-.32,1.64-.08,2.12,.57,1.65,2.23,4.22,3.47,7.05,3.4,3.47-.09,6.63-2.44,7.87-5.85,2.1-5.76,1.96-12.06-.39-17.74s-6.71-10.23-12.26-12.82c-3.29-1.53-7.19-.96-9.7,1.43-2.05,1.95-3,4.65-2.58,7.39,.12,.8-.33,1.58-1.09,1.9Z" />
        <path class="c" d="M215.8,313.84l.46,.59-3.67-8.21-.09,.15c-.51,.86-1.16,1.59-1.94,2.2l-.09,.07,.1,.07c1.98,1.48,3.74,3.21,5.24,5.12Z" />
        <path class="c" d="M176.26,352.8c.51-.86,1.16-1.59,1.94-2.2l.09-.07-.1-.07c-1.98-1.48-3.74-3.21-5.24-5.12l-.46-.59,3.67,8.21,.09-.15Z" />
        <path class="c" d="M220.33,337.53c-.48-.2-.89-.44-1.24-.72-1.26-1.03-1.9-2.47-1.8-4.04l.02-.26-.17,.19s-.05,.06-.08,.09c-.04,.04-.07,.08-.11,.12-1.35,1.39-2.96,2.41-4.78,3.02-.34,.11-.62,.37-.76,.71s-.13,.72,.03,1.04c.86,1.72,1.27,3.58,1.25,5.52,0,.05,0,.1,0,.15,0,.04,0,.08,0,.12v.26l.16-.19c1.04-1.19,2.51-1.75,4.13-1.58,.44,.05,.91,.17,1.39,.37l15.81,6.55-1.4-3.39,3.39-1.4-15.81-6.55Z" />
        <path class="c" d="M190.74,358.99l8.4-3.21-.74,.09c-2.41,.3-4.88,.27-7.33-.08l-.12-.02v.12c.14,.97,.08,1.96-.17,2.92l-.04,.17Z" />
        <path class="c" d="M198.03,300.19l-8.4,3.21,.74-.09c2.41-.3,4.88-.27,7.32,.08l.12,.02v-.12c-.14-.97-.08-1.96,.17-2.92l.04-.17Z" />
        <path class="c" d="M169.68,322.37c1.26,1.03,1.9,2.47,1.8,4.04l-.02,.26,.17-.19s.05-.06,.08-.09c.03-.04,.07-.08,.11-.12,1.35-1.39,2.96-2.41,4.79-3.02,.34-.11,.62-.37,.76-.71,.14-.34,.13-.72-.03-1.04-.86-1.72-1.28-3.58-1.25-5.52,0-.05,0-.1,0-.16,0-.04,0-.08,0-.12v-.26l-.16,.19c-1.04,1.19-2.51,1.75-4.13,1.58-.44-.05-.91-.17-1.39-.37l-15.81-6.55,1.4,3.39-3.39,1.4,15.81,6.55c.48,.2,.89,.44,1.23,.72Z" />
        <circle class="c" cx="205.69" cy="302.31" r="4.48" transform="translate(-20.32 14.87) rotate(-3.95)" />
        <path class="c" d="M233.26,353.31c.2-.49-.03-1.06-.53-1.27l-15.83-6.56c-.35-.15-.75-.13-1.09,.04-.34,.18-.59,.49-.68,.87-1.11,4.8-4.53,8.72-9.16,10.48l-17.17,6.56c-1.07,.41-1.94,1.25-2.38,2.31-.89,2.14,.13,4.6,2.27,5.48l9.19,3.81,.03-.23c.77-5.42,4.45-9.95,9.62-11.82l25.15-9.14c.26-.09,.46-.29,.57-.54Z" />
        <path class="c" d="M156.04,307.14l15.83,6.56c.35,.15,.75,.13,1.09-.04,.34-.18,.59-.49,.68-.87,1.11-4.8,4.53-8.72,9.16-10.48l17.17-6.56c1.07-.41,1.94-1.25,2.38-2.31,.89-2.14-.13-4.6-2.27-5.48l-9.19-3.81-.03,.23c-.77,5.42-4.45,9.95-9.62,11.82l-25.15,9.14c-.26,.09-.46,.29-.57,.54-.2,.49,.03,1.06,.53,1.27Z" />
        <path class="c" d="M159.91,359.06l-.14,.19,9.19,3.81c2.14,.89,4.6-.13,5.48-2.27,.44-1.06,.42-2.27-.05-3.32l-7.5-16.78c-2.02-4.52-1.67-9.72,.94-13.89,.2-.33,.26-.73,.14-1.09-.12-.36-.39-.66-.74-.8l-15.83-6.56c-.5-.21-1.06,.03-1.27,.53-.1,.25-.1,.54,.02,.78l11.32,24.24c2.33,4.98,1.73,10.79-1.56,15.16Z" />
        <path class="c" d="M176.83,364.59c-.6,1.44,.09,3.09,1.53,3.69,1.44,.6,3.09-.09,3.69-1.53,.6-1.44-.09-3.09-1.53-3.69-1.44-.6-3.09,.09-3.69,1.53Z" />
        <path class="c" d="M211.94,294.59c.6-1.44-.09-3.09-1.53-3.69-1.44-.6-3.09,.09-3.69,1.53-.6,1.44,.09,3.09,1.53,3.69,1.44,.6,3.09-.09,3.69-1.53Z" />
        <circle class="c" cx="183.08" cy="356.87" r="4.48" transform="translate(-7.82 4.12) rotate(-1.26)" />
        <path class="c" d="M227.31,315.28c-2.33-4.98-1.73-10.79,1.56-15.16l.14-.19-9.19-3.81c-2.14-.89-4.6,.13-5.48,2.27-.44,1.06-.42,2.27,.05,3.32l7.5,16.78c2.02,4.52,1.67,9.72-.94,13.89-.21,.33-.26,.73-.14,1.09,.12,.36,.39,.66,.74,.8l15.83,6.56c.49,.2,1.06-.03,1.27-.53,.1-.25,.1-.54-.02-.78l-11.32-24.24Z" />
        <path class="c" d="M149.28,306.51c-.53-1.28-1.52-2.27-2.8-2.8s-2.68-.53-3.96,0l-5.31,2.2,2.2,5.31c1.09,2.64,4.13,3.89,6.76,2.8l5.31-2.2-2.2-5.31Z" />
        <path class="c" d="M239.49,352.67c1.09,2.64,4.13,3.89,6.76,2.8l5.31-2.2-2.2-5.31c-.53-1.28-1.52-2.27-2.8-2.8-1.28-.53-2.68-.53-3.96,0l-5.31,2.2,2.2,5.31Z" />
        <path class="c" d="M183.53,325.09c-.32,.77-1.1,1.22-1.9,1.09-2.74-.41-5.43,.53-7.39,2.58-2.39,2.51-2.97,6.41-1.43,9.7,2.59,5.56,7.14,9.91,12.82,12.26,5.68,2.35,11.97,2.49,17.74,.39,3.41-1.24,5.76-4.41,5.85-7.87,.07-2.83-1.17-5.4-3.4-7.05-.65-.48-.89-1.35-.57-2.12,.32-.77,1.1-1.22,1.9-1.09,2.74,.41,5.43-.53,7.39-2.58,2.39-2.51,2.97-6.41,1.43-9.7-2.59-5.56-7.14-9.91-12.82-12.26-5.68-2.35-11.97-2.49-17.74-.39-3.41,1.24-5.76,4.4-5.85,7.87-.07,2.84,1.17,5.41,3.4,7.05,.65,.48,.89,1.35,.57,2.12h0Z" />
        <path class="c" d="M190.95,494.62l.12-.02c2.45-.35,4.91-.38,7.32-.08l.74,.09-8.4-3.21,.04,.17c.24,.97,.31,1.95,.18,2.92v.12Z" />
        <path class="c" d="M197.82,546.98l-.12,.02c-2.45,.35-4.91,.38-7.32,.08l-.74-.09,8.4,3.21-.04-.17c-.24-.97-.31-1.95-.18-2.92v-.12Z" />
        <path class="c" d="M218.35,508.07c-.48,.2-.94,.32-1.39,.37-1.62,.17-3.09-.4-4.13-1.58l-.17-.19v.26s.01,.08,.02,.12c0,.05,0,.11,0,.16,.03,1.94-.39,3.8-1.25,5.52-.16,.32-.17,.7-.03,1.04,.14,.34,.42,.6,.76,.71,1.82,.61,3.43,1.63,4.79,3.02,.04,.04,.07,.07,.1,.11,.03,.03,.05,.06,.08,.09l.17,.19-.02-.26c-.1-1.58,.54-3.01,1.8-4.04,.34-.28,.76-.52,1.24-.72l15.81-6.55-3.39-1.4,1.4-3.39-15.81,6.55Z" />
        <path class="c" d="M212.59,544.16l3.67-8.21-.46,.59c-1.5,1.92-3.26,3.64-5.24,5.12l-.1,.07,.09,.07c.78,.6,1.43,1.34,1.94,2.2l.09,.15Z" />
        <path class="c" d="M172.97,505.05c1.5-1.92,3.26-3.64,5.24-5.12l.1-.07-.09-.07c-.78-.6-1.43-1.34-1.94-2.2l-.09-.15-3.67,8.21,.46-.59Z" />
        <path class="c" d="M170.43,533.53c.48-.2,.94-.32,1.38-.36,1.62-.16,3.09,.4,4.13,1.59l.17,.19v-.26s-.01-.08-.02-.12c0-.05,0-.11,0-.16-.03-1.94,.39-3.8,1.25-5.52,.16-.32,.17-.7,.03-1.04-.14-.34-.42-.6-.76-.71-1.82-.61-3.43-1.63-4.79-3.02-.04-.04-.07-.08-.1-.12-.03-.03-.05-.06-.08-.09l-.17-.19,.02,.26c.1,1.58-.54,3.01-1.8,4.04-.35,.28-.76,.52-1.24,.72l-15.81,6.55,3.39,1.4-1.4,3.39,15.81-6.55Z" />
        <circle class="c" cx="183.08" cy="493.52" r="4.48" transform="translate(-342.93 473.8) rotate(-67.5)" />
        <path class="c" d="M220.81,516.92c-.12,.37-.07,.77,.14,1.09,2.61,4.17,2.96,9.37,.94,13.89l-7.5,16.78c-.47,1.05-.49,2.26-.05,3.32,.89,2.14,3.35,3.16,5.48,2.27l9.19-3.81-.14-.19c-3.29-4.37-3.89-10.18-1.56-15.16l11.32-24.24c.11-.25,.12-.53,.02-.78-.2-.49-.77-.73-1.27-.53l-15.83,6.56c-.35,.15-.62,.44-.74,.8Z" />
        <path class="c" d="M151.39,532.04l15.83-6.56c.35-.15,.62-.44,.74-.8,.12-.37,.07-.77-.14-1.09-2.61-4.17-2.96-9.37-.94-13.89l7.5-16.78c.47-1.05,.49-2.26,.05-3.32-.89-2.14-3.35-3.16-5.48-2.27l-9.19,3.81,.14,.19c3.29,4.37,3.89,10.18,1.56,15.16l-11.32,24.24c-.11,.25-.12,.53-.02,.78,.2,.49,.77,.73,1.27,.53Z" />
        <path class="c" d="M199.96,554.65l-17.17-6.56c-4.63-1.77-8.05-5.69-9.16-10.48-.09-.38-.33-.69-.68-.87-.34-.18-.74-.19-1.09-.04l-15.83,6.56c-.5,.21-.73,.77-.53,1.27,.1,.25,.31,.45,.57,.54l25.15,9.14c5.17,1.88,8.86,6.41,9.62,11.82l.03,.23,9.19-3.81c2.14-.89,3.16-3.35,2.27-5.48-.44-1.06-1.31-1.91-2.38-2.31Z" />
        <path class="c" d="M208.25,554.27c-1.44,.6-2.12,2.25-1.53,3.69,.6,1.44,2.25,2.12,3.69,1.53,1.44-.6,2.12-2.25,1.53-3.69-.6-1.44-2.25-2.12-3.69-1.53Z" />
        <path class="c" d="M178.36,482.12c-1.44,.6-2.12,2.25-1.53,3.69,.6,1.44,2.25,2.12,3.69,1.53,1.44-.6,2.12-2.25,1.53-3.69-.6-1.44-2.25-2.12-3.69-1.53Z" />
        <circle class="c" cx="205.69" cy="548.08" r="4.48" transform="translate(-379.39 528.37) rotate(-67.5)" />
        <path class="c" d="M232.69,496.54l-25.15-9.14c-5.17-1.88-8.86-6.41-9.62-11.82l-.03-.23-9.19,3.81c-2.14,.89-3.16,3.35-2.27,5.48,.44,1.06,1.31,1.91,2.38,2.32l17.17,6.56c4.63,1.77,8.05,5.69,9.16,10.48,.09,.38,.33,.69,.68,.87,.34,.18,.74,.19,1.09,.04l15.83-6.56c.49-.2,.73-.77,.53-1.27-.1-.25-.31-.45-.57-.54Z" />
        <path class="c" d="M142.21,536.37c-1.28,.53-2.27,1.52-2.8,2.8l-2.2,5.31,5.31,2.2c2.64,1.09,5.67-.16,6.76-2.8l2.2-5.31-5.31-2.2c-1.28-.53-2.68-.53-3.96,0Z" />
        <path class="c" d="M249.36,502.43l2.2-5.31-5.31-2.2c-1.28-.53-2.68-.53-3.96,0-1.28,.53-2.27,1.52-2.8,2.8l-2.2,5.31,5.31,2.2c2.64,1.09,5.67-.16,6.76-2.8Z" />
        <path class="c" d="M215.96,529.68c1.53-3.29,.96-7.19-1.43-9.7-1.95-2.05-4.65-3-7.39-2.58-.8,.12-1.58-.33-1.9-1.1-.32-.77-.08-1.64,.57-2.12,2.23-1.65,3.47-4.22,3.4-7.05-.09-3.47-2.44-6.63-5.85-7.87-5.76-2.1-12.06-1.96-17.74,.39-5.68,2.35-10.23,6.71-12.82,12.26-1.53,3.29-.96,7.19,1.43,9.7,1.95,2.05,4.65,3,7.39,2.58,.8-.12,1.58,.33,1.9,1.09h0c.32,.77,.08,1.64-.57,2.12-2.23,1.65-3.47,4.22-3.4,7.05,.09,3.47,2.44,6.63,5.85,7.87,5.76,2.1,12.06,1.96,17.74-.39,5.68-2.35,10.23-6.71,12.82-12.26Z" />
        <path class="c" d="M308.58,639.82l.07,.09,.07-.1c1.48-1.98,3.21-3.74,5.12-5.24l.59-.46-8.21,3.67,.15,.09c.86,.51,1.59,1.16,2.2,1.94Z" />
        <path class="c" d="M350.61,672.19l-.07-.09-.07,.1c-1.48,1.98-3.21,3.74-5.12,5.24l-.59,.46,8.21-3.67-.15-.09c-.86-.51-1.59-1.16-2.2-1.94Z" />
        <path class="c" d="M337.53,630.06c-.2,.48-.44,.89-.72,1.24-1.03,1.26-2.47,1.9-4.04,1.8l-.26-.02,.19,.17s.06,.05,.09,.08c.04,.04,.08,.07,.12,.11,1.39,1.35,2.41,2.96,3.02,4.78,.11,.34,.37,.62,.71,.76,.34,.14,.72,.13,1.04-.03,1.72-.86,3.58-1.27,5.52-1.25,.05,0,.1,0,.15,0,.04,0,.08,0,.12,0h.26l-.19-.16c-1.19-1.04-1.75-2.51-1.58-4.13,.05-.44,.17-.91,.37-1.39l6.55-15.81-3.39,1.4-1.4-3.39-6.55,15.81Z" />
        <path class="c" d="M355.77,659.44h.12c.97-.14,1.96-.08,2.92,.17l.17,.04-3.21-8.4,.09,.74c.3,2.41,.27,4.88-.08,7.33l-.02,.12Z" />
        <path class="c" d="M303.41,652.57h-.12c-.97,.14-1.96,.08-2.92-.17l-.17-.04,3.21,8.4-.09-.74c-.3-2.41-.27-4.88,.08-7.32l.02-.12Z" />
        <path class="c" d="M322.37,680.71c1.03-1.26,2.47-1.9,4.04-1.8l.26,.02-.19-.17s-.06-.05-.09-.08c-.04-.03-.08-.07-.12-.11-1.39-1.35-2.41-2.96-3.02-4.79-.11-.34-.37-.62-.71-.76-.34-.14-.72-.13-1.04,.03-1.72,.86-3.58,1.28-5.52,1.25-.05,0-.1,0-.16,0-.04,0-.08,0-.12,0h-.26l.19,.16c1.19,1.04,1.75,2.51,1.58,4.13-.05,.44-.17,.91-.37,1.39l-6.55,15.81,3.39-1.4,1.4,3.39,6.55-15.81c.2-.48,.44-.89,.72-1.23Z" />
        <circle class="c" cx="302.31" cy="644.71" r="4.48" transform="translate(-257.19 204.26) rotate(-26.67)" />
        <path class="c" d="M362.99,642.85l-9.14-25.15c-.09-.26-.29-.46-.54-.57-.49-.2-1.06,.03-1.27,.53l-6.56,15.83c-.15,.35-.13,.75,.04,1.09,.18,.34,.49,.59,.87,.68,4.8,1.11,8.72,4.53,10.48,9.16l6.56,17.17c.41,1.07,1.25,1.94,2.32,2.38,2.14,.89,4.6-.13,5.48-2.27l3.81-9.19-.23-.03c-5.42-.77-9.95-4.45-11.82-9.62Z" />
        <path class="c" d="M305.87,694.88c.49,.2,1.06-.03,1.27-.53l6.56-15.83c.15-.35,.13-.75-.04-1.09-.18-.34-.49-.59-.87-.68-4.8-1.11-8.72-4.53-10.48-9.16l-6.56-17.17c-.41-1.07-1.25-1.94-2.32-2.38-2.14-.89-4.6,.13-5.48,2.27l-3.81,9.19,.23,.03c5.42,.77,9.95,4.45,11.82,9.62l9.14,25.15c.09,.26,.29,.46,.54,.57Z" />
        <path class="c" d="M360.79,675.95c-1.06-.44-2.27-.42-3.32,.05l-16.78,7.5c-4.52,2.02-9.72,1.67-13.89-.94-.33-.2-.73-.26-1.09-.14-.36,.12-.66,.39-.8,.74l-6.56,15.83c-.21,.5,.03,1.06,.53,1.27,.25,.1,.54,.1,.78-.02l24.24-11.32c4.98-2.33,10.79-1.73,15.16,1.56l.19,.14,3.81-9.19c.89-2.14-.13-4.6-2.27-5.48Z" />
        <path class="c" d="M366.75,668.34c-1.44-.6-3.09,.09-3.69,1.53-.6,1.44,.09,3.09,1.53,3.69s3.09-.09,3.69-1.53c.6-1.44-.09-3.09-1.53-3.69Z" />
        <path class="c" d="M294.59,638.45c-1.44-.6-3.09,.09-3.69,1.53-.6,1.44,.09,3.09,1.53,3.69,1.44,.6,3.09-.09,3.69-1.53,.6-1.44-.09-3.09-1.53-3.69Z" />
        <path class="c" d="M352.74,665.59c-.94,2.28,.14,4.91,2.42,5.85,2.28,.94,4.91-.14,5.85-2.42,.94-2.28-.14-4.91-2.42-5.85-2.28-.94-4.91,.14-5.85,2.42Z" />
        <path class="c" d="M340.31,611.75c-.25-.1-.54-.1-.78,.02l-24.24,11.32c-4.98,2.33-10.79,1.73-15.16-1.56l-.19-.14-3.81,9.19c-.89,2.14,.13,4.6,2.27,5.48,1.06,.44,2.27,.42,3.32-.05l16.78-7.5c4.52-2.02,9.72-1.67,13.89,.94,.33,.21,.73,.26,1.09,.14,.36-.12,.66-.39,.8-.74l6.56-15.83c.2-.49-.03-1.06-.53-1.27Z" />
        <path class="c" d="M311.82,698.91l-5.31,2.2c-1.28,.53-2.27,1.52-2.8,2.8-.53,1.28-.53,2.68,0,3.96l2.2,5.31,5.31-2.2c2.64-1.09,3.89-4.13,2.8-6.76l-2.2-5.31Z" />
        <path class="c" d="M352.67,610.9c2.64-1.09,3.89-4.13,2.8-6.76l-2.2-5.31-5.31,2.2c-1.28,.53-2.27,1.52-2.8,2.8-.53,1.28-.53,2.68,0,3.96l2.2,5.31,5.31-2.2Z" />
        <path class="c" d="M343.25,641.18c-2.83-.07-5.4,1.17-7.05,3.4-.48,.65-1.35,.89-2.12,.57-.77-.32-1.22-1.1-1.09-1.9,.41-2.74-.53-5.43-2.58-7.39-2.51-2.39-6.41-2.97-9.7-1.43-5.56,2.59-9.91,7.14-12.26,12.82-2.35,5.68-2.49,11.97-.39,17.74,1.24,3.41,4.4,5.76,7.87,5.85,2.84,.07,5.41-1.17,7.05-3.4,.48-.65,1.35-.89,2.12-.57h0c.77,.32,1.22,1.1,1.09,1.9-.41,2.74,.53,5.43,2.58,7.39,2.51,2.39,6.41,2.97,9.7,1.43,5.56-2.59,9.91-7.14,12.26-12.82,2.35-5.68,2.49-11.97,.39-17.74-1.24-3.41-4.41-5.76-7.87-5.85Z" />
        <path class="c" d="M750.15,446.56l21.37-21.36h0l-21.36-21.38c-5.02-5.02-11.5-8.01-18.46-8.58l-10.95-10.02,3.42-13.38,1.66-6.48-3.97-5.29-8.3-11.06,6.28-13.45c6.22-3.21,11.06-8.45,13.76-14.99l11.56-27.92-27.92-11.56c-6.56-2.72-13.69-3-20.34-.86l-13.95-5.07-1.97-13.66-.96-6.63-5.68-3.36-11.9-7.04,.66-14.84c4.52-5.34,6.98-12.04,6.98-19.11v-30.21h-30.22c-7.1,0-13.8,2.46-19.12,6.98l-14.83,.66-7.04-11.85-3.41-5.73-6.58-.95-13.65-1.97-5.07-13.97c2.13-6.65,1.84-13.78-.86-20.33l-11.56-27.91-27.92,11.56c-6.56,2.72-11.81,7.56-15,13.77l-13.45,6.28-11.04-8.25-5.34-3.99-6.44,1.65-13.36,3.4-10.03-10.96c-.58-6.97-3.57-13.44-8.58-18.45l-21.36-21.37h0l-21.37,21.37c-5.02,5.02-8.01,11.5-8.58,18.46l-10.02,10.95-13.38-3.42-6.48-1.66-5.29,3.97-11.06,8.3-13.45-6.28c-3.21-6.22-8.45-11.06-14.99-13.76l-27.92-11.56-11.56,27.92c-2.72,6.56-3,13.69-.86,20.34l-5.07,13.95-13.66,1.97-6.63,.96-3.36,5.68-7.04,11.9-14.84-.66c-5.34-4.52-12.04-6.98-19.11-6.98h-30.21v30.22c0,7.1,2.46,13.8,6.98,19.12l.66,14.83-11.85,7.04-5.73,3.41-.95,6.58-1.97,13.65-13.97,5.07c-6.65-2.13-13.78-1.84-20.33,.86l-27.91,11.56,11.56,27.92c2.72,6.56,7.56,11.81,13.77,15l6.28,13.45-8.25,11.04-3.99,5.34,1.65,6.44,3.4,13.36-10.96,10.03c-6.97,.58-13.44,3.57-18.45,8.58l-21.37,21.36h0l21.36,21.38c5.02,5.02,11.5,8.01,18.46,8.58l10.95,10.02-3.42,13.38-1.66,6.48,3.97,5.29,8.3,11.06-6.28,13.45c-6.22,3.21-11.06,8.45-13.77,14.99l-11.56,27.92,27.92,11.56c6.56,2.72,13.69,3,20.34,.86l13.95,5.07,1.97,13.66,.96,6.63,5.68,3.36,11.9,7.04-.66,14.84c-4.52,5.34-6.98,12.04-6.98,19.11v30.21h30.22c7.1,0,13.8-2.46,19.12-6.98l14.83-.66,7.04,11.85,3.41,5.73,6.57,.95,13.65,1.97,5.08,13.97c-2.13,6.65-1.84,13.78,.86,20.33l11.56,27.91,27.92-11.56c6.56-2.72,11.8-7.56,15-13.77l13.45-6.28,11.04,8.25,5.34,3.99,6.44-1.65,13.36-3.4,10.03,10.96c.58,6.97,3.57,13.44,8.58,18.45l21.36,21.37h0l21.37-21.37c5.02-5.02,8.01-11.5,8.58-18.46l10.02-10.95,13.38,3.42,6.48,1.66,5.29-3.97,11.06-8.3,13.45,6.28c3.21,6.22,8.45,11.06,14.99,13.76l27.92,11.56,11.56-27.92c2.72-6.56,3-13.69,.86-20.34l5.07-13.95,13.66-1.97,6.63-.96,3.36-5.68,7.04-11.9,14.84,.66c5.34,4.52,12.04,6.98,19.11,6.98h30.21v-30.22c0-7.1-2.46-13.8-6.98-19.12l-.66-14.83,11.85-7.04,5.73-3.41,.95-6.58,1.97-13.65,13.97-5.07c6.65,2.13,13.78,1.84,20.33-.86l27.91-11.56-11.56-27.92c-2.72-6.56-7.56-11.81-13.77-15l-6.28-13.45,8.25-11.04,3.99-5.34-1.65-6.44-3.4-13.36,10.96-10.03c6.97-.58,13.44-3.57,18.45-8.58Zm-23.48-4.01l-20.1,18.4,5.42,21.29h0l-13.16,17.61,11.52,24.68,2.3,.94c4.2,1.72,7.47,4.98,9.22,9.2l6.71,16.2-16.19,6.7c-4.19,1.73-8.81,1.73-12.88,.04l-2.45-1.01-25.58,9.29-3.13,21.75-18.9,11.23,1.21,27.22,1.77,1.75c3.22,3.18,4.99,7.45,4.99,12.02v17.53h-17.53c-4.53,0-8.79-1.76-12.04-5.02l-1.74-1.74-27.21-1.2-11.18,18.9-21.79,3.14-9.3,25.61,.96,2.29c1.76,4.17,1.76,8.8,.01,13.01l-6.71,16.2-16.2-6.71c-4.18-1.73-7.44-4.99-9.13-9.06l-1.1-2.5-24.6-11.49-17.57,13.2-21.33-5.46-18.4,20.1v2.48c.04,4.53-1.72,8.8-4.95,12.03l-12.4,12.4h0l-12.4-12.4c-3.22-3.21-4.93-7.51-4.96-12.03v-2.48l-18.39-20.1-21.29,5.42h0l-17.61-13.16-24.68,11.52-.94,2.3c-1.72,4.2-4.99,7.47-9.2,9.22l-16.2,6.71-6.7-16.19c-1.73-4.19-1.73-8.81-.04-12.88l1.01-2.45-9.29-25.58-21.75-3.13-11.23-18.9-27.22,1.21-1.75,1.77c-3.18,3.22-7.45,4.99-12.02,4.99h-17.53v-17.53c0-4.53,1.76-8.79,5.02-12.04l1.74-1.74,1.21-27.21-18.9-11.18-3.14-21.79-25.61-9.3-2.29,.96c-4.17,1.76-8.8,1.76-13.01,.01l-16.2-6.71,6.71-16.2c1.73-4.18,4.99-7.44,9.06-9.13l2.5-1.1,11.49-24.6-13.2-17.57,5.46-21.33-20.1-18.4h-2.48c-4.53,.04-8.8-1.72-12.03-4.95l-12.4-12.4h0l12.4-12.4c3.21-3.22,7.51-4.93,12.03-4.96h2.48l20.1-18.39-5.42-21.29h0l13.16-17.61-11.52-24.68-2.3-.94c-4.2-1.72-7.47-4.98-9.22-9.2l-6.71-16.2,16.19-6.7c4.19-1.73,8.81-1.73,12.88-.04l2.45,1.01,25.58-9.29,3.13-21.75,18.9-11.23-1.21-27.22-1.77-1.75c-3.22-3.18-4.99-7.45-4.99-12.02v-17.53h17.53c4.53,0,8.79,1.76,12.04,5.02l1.74,1.74,27.21,1.2,11.18-18.9,21.79-3.14,9.3-25.61-.96-2.29c-1.76-4.17-1.76-8.8-.01-13.01l6.71-16.2,16.2,6.71c4.18,1.73,7.44,4.99,9.13,9.06l1.1,2.5,24.6,11.49,17.57-13.2,21.33,5.46,18.4-20.1v-2.48c-.04-4.53,1.72-8.8,4.95-12.03l12.4-12.4h0l12.4,12.4c3.22,3.21,4.93,7.51,4.96,12.03v2.48l18.39,20.1,21.29-5.42h0l17.61,13.16,24.68-11.52,.94-2.3c1.72-4.2,4.98-7.47,9.2-9.22l16.2-6.71,6.7,16.19c1.73,4.19,1.73,8.81,.04,12.88l-1.01,2.45,9.29,25.58,21.75,3.13,11.23,18.9,27.22-1.21,1.75-1.77c3.18-3.22,7.45-4.99,12.02-4.99h17.53v17.53c0,4.53-1.76,8.79-5.02,12.04l-1.74,1.74-1.2,27.21,18.9,11.18,3.14,21.79,25.61,9.3,2.29-.96c4.17-1.76,8.8-1.76,13.01-.01l16.2,6.71-6.71,16.2c-1.73,4.18-4.99,7.44-9.06,9.13l-2.5,1.1-11.49,24.6,13.2,17.57-5.46,21.33,20.1,18.4h2.48c4.53-.04,8.8,1.72,12.03,4.95l12.4,12.4h0l-12.4,12.4c-3.21,3.22-7.51,4.93-12.03,4.96h-2.48Z" />
        <path class="c" d="M485.01,614.93l-.96-2.29-5.87,2.39,5.86-2.43h0c-1.73-4.18-1.73-8.78,0-12.95,7.88-2.66,15.52-5.86,22.88-9.52h.03c4.22,1.76,7.48,5.03,9.19,9.22l.94,2.3,23.8,11.11,6.63-3.93,6.73-5-1.05-23.77-.16-2.51-1.74-1.74c-3.2-3.2-4.96-7.46-4.96-11.99v-.11c6.18-5.41,12-11.23,17.41-17.42h.11c4.57,0,8.84,1.77,12.02,4.99l1.75,1.77,26.22,1.16,4.7-6.25,4.26-7.09-10.07-21.57-1.12-2.26-2.28-.94c-4.18-1.73-7.44-4.99-9.17-9.18v-.03c3.65-7.36,6.85-15,9.51-22.88,4.22-1.73,8.83-1.73,12.99,.02l2.29,.96,24.66-8.96,1.93-7.5,1.22-8.29-19.35-17.71h-2.46c-4.58,0-8.86-1.77-12.06-4.97h0c.27-4.1,.43-8.23,.43-12.39s-.15-8.3-.43-12.39h0c3.25-3.26,7.5-5.03,12-4.97l2.5,.03,19.37-17.73-1.08-7.59-2.07-8.19-24.58-8.93-2.41,.95c-4.11,1.7-8.82,1.7-12.95,0-2.66-7.88-5.86-15.51-9.52-22.87v-.03c1.76-4.22,5.03-7.49,9.23-9.19l2.3-.94,11.12-23.81-3.88-6.53-5.07-6.82-23.75,1.05-2.51,.16-1.74,1.74c-3.21,3.2-7.47,4.97-12,4.97h-.12c-5.41-6.18-11.23-12-17.41-17.41v-.12c0-4.57,1.77-8.84,4.99-12.02l1.77-1.75,1.16-26.22-6.25-4.7-7.09-4.26-21.57,10.08-2.26,1.11-.94,2.28c-1.73,4.18-4.99,7.44-9.17,9.17l-.04,.02c-7.36-3.66-15-6.85-22.87-9.52-1.74-4.22-1.73-8.83,.02-13l.96-2.29-8.97-24.68-7.51-1.92-8.24-1.22-16.07,17.56-1.66,1.89v2.46c0,4.53-1.77,8.79-4.97,12h0c-4.1-.27-8.22-.43-12.38-.43s-8.29,.15-12.39,.43h0c-3.23-3.24-4.99-7.51-4.97-12.04v-2.49l-17.68-19.34-7.8,1.09-8,2.01-8.12,22.36-.81,2.39,.94,2.28c1.73,4.18,1.73,8.78,0,12.96-7.88,2.66-15.51,5.86-22.87,9.52h-.04c-4.18-1.75-7.44-5.01-9.24-9.36l-.96-2.2-23.69-11.06-6.7,3.94-6.7,4.99,1.05,23.75,.16,2.51,1.74,1.74c3.2,3.2,4.97,7.46,4.97,11.99v.12c-6.18,5.41-12,11.23-17.41,17.41h-.12c-4.57,0-8.84-1.78-12.02-4.99l-1.75-1.77-26.25-1.16-4.64,6.19-4.29,7.16,11.15,23.87,2.31,.9c4.19,1.74,7.45,5,9.18,9.18v.03c-3.65,7.36-6.84,15-9.51,22.87-4.12,1.7-8.84,1.7-13.01-.03l-2.28-.95-24.69,8.97-1.9,7.47-1.23,8.28,17.56,16.07,1.89,1.66h2.46c4.53,0,8.79,1.76,11.99,4.97h0c-.27,4.1-.43,8.23-.43,12.39s.15,8.29,.43,12.39h0c-3.2,3.2-7.46,4.97-12.06,4.97h-2.46l-19.36,17.71,1.1,7.74,2.01,8.03,22.37,8.13,2.38,.81,2.28-.94c4.18-1.73,8.78-1.73,12.96,0,2.66,7.88,5.86,15.51,9.52,22.88v.03c-1.76,4.22-5.04,7.49-9.24,9.21l-2.3,.94-11.1,23.78,3.91,6.6,5.04,6.77,26.11-1.16,1.89-1.8c3.2-3.2,7.46-4.97,11.99-4.97h.11c5.41,6.18,11.23,12,17.41,17.41v.11c0,4.57-1.78,8.84-4.99,12.02l-1.77,1.75-1.16,26.22,6.07,4.56,7.34,4.36,23.73-11.08,1.01-2.42c1.74-4.15,4.99-7.38,9.15-9.1h.02c7.36,3.65,15,6.85,22.88,9.51,1.74,4.21,1.73,8.83-.02,12.99l-.96,2.29,8.97,24.69,7.29,1.86,8.51,1.23,16.03-17.51,1.66-1.89v-2.46c0-4.53,1.76-8.78,4.96-11.99h0c4.1,.27,8.23,.42,12.39,.42s8.29-.15,12.39-.43c3.23,3.23,4.99,7.51,4.97,12.03v2.48l17.73,19.39,7.59-1.09,8.17-2.05,8.97-24.69Zm55.15-16.49l-13.37-6.25c-1.79-3.49-4.27-6.5-7.23-8.99,5.35-3.21,10.53-6.67,15.51-10.39,1.16,3.67,2.99,7.11,5.53,10.12l.65,14.77-1.1,.73Zm52.02-71.68l6.26,13.41-.75,1.09-14.74-.65c-3-2.54-6.45-4.38-10.14-5.54,3.72-4.98,7.18-10.16,10.39-15.51,2.47,2.93,5.47,5.4,8.97,7.21Zm26.16-71.63l10.9,9.98-.26,1.31-13.86,5.04c-3.71-1.19-7.57-1.57-11.4-1.25,1.51-5.98,2.72-12.08,3.63-18.28,3.4,1.75,7.11,2.88,11,3.21Zm-3.24-76.19l13.88,5.04,.26,1.3-10.87,9.95c-3.89,.31-7.61,1.44-11.03,3.22-.91-6.2-2.12-12.3-3.63-18.29,3.84,.31,7.72-.06,11.39-1.22Zm-32.17-69.15l14.77-.65,.74,1.09-6.25,13.38c-3.49,1.79-6.5,4.27-8.99,7.23-3.21-5.35-6.68-10.53-10.4-15.52,3.65-1.16,7.09-2.99,10.11-5.53Zm-56.16-51.58l13.4-6.26,1.09,.75-.65,14.74c-2.54,3-4.38,6.45-5.54,10.14-4.98-3.72-10.16-7.18-15.52-10.39,2.94-2.48,5.42-5.48,7.22-8.98Zm-71.64-26.16l9.99-10.91,1.29,.26,5.04,13.87c-1.19,3.71-1.57,7.57-1.25,11.4-5.98-1.51-12.08-2.72-18.28-3.63,1.75-3.4,2.88-7.1,3.21-11Zm-71.15-10.65l1.31-.24,9.95,10.87c.32,3.89,1.45,7.61,3.22,11.02-6.2,.91-12.29,2.12-18.28,3.63,.31-3.8-.06-7.65-1.25-11.38l5.05-13.9Zm-73.74,30.56l13.37,6.24c1.8,3.49,4.27,6.5,7.22,8.98-5.35,3.21-10.54,6.68-15.52,10.39-1.16-3.67-2.99-7.12-5.53-10.13l-.65-14.76,1.11-.73Zm-52.05,71.66l-6.26-13.4,.73-1.09,14.75,.65c3,2.54,6.45,4.38,10.14,5.54-3.72,4.98-7.18,10.16-10.39,15.52-2.48-2.95-5.49-5.43-8.98-7.23Zm-26.16,71.64l-10.91-9.99,.26-1.29,13.9-5.05c3.68,1.16,7.56,1.53,11.39,1.22-1.51,5.99-2.73,12.1-3.64,18.31-3.4-1.75-7.1-2.88-11-3.21Zm3.25,76.2l-13.9-5.05-.24-1.3,10.9-9.97c3.89-.32,7.6-1.45,11-3.21,.91,6.2,2.12,12.3,3.63,18.28-3.8-.31-7.65,.06-11.38,1.25Zm32.14,69.15l-14.74,.65-.74-1.1,6.24-13.36c3.49-1.79,6.5-4.28,8.99-7.24,3.21,5.35,6.67,10.53,10.39,15.51-3.7,1.17-7.15,3-10.14,5.54Zm56.19,51.58l-13.37,6.24-1.12-.73,.65-14.74c2.54-3,4.38-6.45,5.54-10.14,4.98,3.72,10.16,7.18,15.51,10.39-2.94,2.48-5.41,5.48-7.22,8.97Zm71.64,26.16l-9.96,10.89-.86-.12-.45-.12-5.04-13.88c1.19-3.71,1.57-7.57,1.25-11.4,5.98,1.51,12.08,2.72,18.27,3.63-1.75,3.4-2.88,7.1-3.21,11Zm29.94-12.68c-99.51,0-180.47-80.96-180.47-180.47s80.96-180.47,180.47-180.47,180.47,80.96,180.47,180.47-80.96,180.47-180.47,180.47Zm41.21,23.32l-1.29,.26-9.97-10.89c-.32-3.89-1.45-7.6-3.21-11.02,6.2-.91,12.29-2.12,18.27-3.63-.32,3.82,.06,7.67,1.25,11.39l-5.05,13.89Z" />
        <path class="c" d="M425.2,248.54c-97.57,0-176.66,79.09-176.66,176.66s79.09,176.66,176.66,176.66,176.66-79.09,176.66-176.66-79.09-176.66-176.66-176.66Zm0,334.95c-87.28,0-158.29-71.01-158.29-158.29s71.01-158.29,158.29-158.29,158.29,71.01,158.29,158.29-71.01,158.29-158.29,158.29Z" />
        <path class="c" d="M425.2,270.83c-85.12,0-154.37,69.25-154.37,154.37s69.25,154.37,154.37,154.37,154.37-69.25,154.37-154.37-69.25-154.37-154.37-154.37Zm0,305.13c-83.13,0-150.76-67.63-150.76-150.76s67.63-150.76,150.76-150.76,150.76,67.63,150.76,150.76-67.63,150.76-150.76,150.76Z" />
    </g>
    <rect class="b" x="0" y="0" width="850.39" height="850.39" />
</svg>