<svg id="a" fill="{{fill1}}" xmlns="http://www.w3.org/2000/svg" viewBox="0 0 850.39 850.39">
    <defs>
        <style>.b{fill:none;}</style>
    </defs>
    <path d="M519.45,481.04c.38-.68,.6-1.07,.6-1.07,7.4,4.29,14.43,8.84,20.92,13.79,6.53,4.97,12.37,10.26,17.5,16.02,2.57,2.88,4.97,5.87,7.17,8.99,2.23,3.13,4.09,6.26,5.84,9.56,1.72,3.28,3.28,6.7,4.52,10.16,1.21,3.43,2.19,6.96,2.94,10.57,2.9,14.32,1.44,29.69-4.85,43.74-6.23,14.04-17.3,26.68-31.89,35.08-14.69,8.52-31.28,11.84-46.6,10.21-15.38-1.58-29.42-8.04-40.34-17.69-11.02-9.89-18.91-22.76-23.69-37.5-4.84-14.8-6.55-31.02-6.51-48.16,0,0,.11,.01,.33,0,.21,0,.53-.02,.93-.04,.8-.03,1.94-.07,3.31-.09,1.38,.06,2.95-.21,4.64-.3,.84-.08,1.73-.07,2.61-.19,.88-.13,1.77-.26,2.66-.37,.89-.1,1.79-.21,2.66-.31,.86-.18,1.71-.34,2.54-.49,.83-.14,1.63-.27,2.38-.39,.76-.14,1.45-.36,2.1-.5,1.3-.31,2.39-.54,3.15-.7,.39-.06,.67-.19,.87-.24l.31-.09c2.2,8.27,5.09,15.94,8.85,22.64,1.87,3.33,3.99,6.5,6.27,9.25,2.27,2.73,4.75,5.16,7.41,7.27,2.68,2.17,5.45,3.76,8.37,5.05,1.46,.64,2.95,1.19,4.47,1.65,1.5,.41,2.99,.67,4.52,.87,1.52,.19,3.06,.27,4.59,.27,1.53-.03,3.01-.27,4.51-.55,1.49-.29,2.98-.69,4.44-1.18,1.42-.58,2.81-1.26,4.18-2.04,1.33-.79,2.64-1.57,3.78-2.59,1.15-1.01,2.22-2.08,3.22-3.21,2.04-2.2,3.55-4.94,4.77-7.73,1.25-2.75,1.95-5.9,2.33-9.06,.19-1.58,.28-3.18,.28-4.8-.05-1.67-.19-3.35-.42-5.03-.48-3.37-1.27-6.7-2.52-10.1-1.26-3.42-2.88-6.8-4.81-10.11-3.87-6.63-9.02-12.97-15.09-19.02,0,0,1.19-1.34,3.08-3.25,1.78-2.01,4.17-4.69,6.32-7.54l.85-1.04c.27-.35,.5-.73,.76-1.09,.51-.72,1.01-1.42,1.49-2.11,1.05-1.31,1.77-2.7,2.52-3.81,.73-1.12,1.37-2.03,1.71-2.73Zm167.75,110.7c-4.27-.27-8.54-.37-12.8-.31-4.24,.07-8.63,.19-12.91,.5-4.31,.29-8.53,.76-12.79,1.28-4.3,.49-8.56,1.11-12.74,1.85-16.9,2.85-33.21,7.08-48.79,12.45-15.6,5.4-30.42,11.98-44.95,20.39-14.66,8.47-27.86,18.06-40.43,28.88-12.53,10.82-24.45,22.81-35.47,36.05-11,13-21.07,27.34-28.72,42.57-7.6,15.18-12.77,31.73-12.81,48.96,0,0,.37,.01,1.05,0,.69-.01,1.69-.03,2.97-.06,2.56-.06,6.22-.16,10.61-.27,4.39-.06,9.52-.52,15.01-.92,2.74-.23,5.58-.41,8.46-.73,2.88-.36,5.8-.72,8.72-1.08,2.92-.38,5.84-.74,8.71-1.17,2.86-.5,5.67-.99,8.4-1.46,2.72-.5,5.35-.98,7.84-1.43,2.49-.49,4.82-1.06,6.98-1.54,4.31-1.01,7.9-1.85,10.42-2.43,1.26-.28,2.23-.59,2.9-.77,.67-.18,1.02-.28,1.02-.28-2.24-8.41-1.86-17.09,.31-25.5,1.08-4.23,2.64-8.31,4.54-12.42,1.89-4.13,4.17-8.16,6.76-12.03,2.62-3.81,5.48-7.71,8.65-11.36,1.59-1.83,3.25-3.61,4.98-5.33,1.71-1.77,3.47-3.54,5.32-5.23,1.84-1.69,3.76-3.33,5.74-4.9,1.98-1.59,3.97-3.24,6.07-4.76,2.09-1.53,4.25-3,6.49-4.4,2.19-1.48,4.46-2.91,6.81-4.26,2.29-1.35,4.67-2.51,6.97-3.74,2.31-1.21,4.64-2.33,6.99-3.35,4.75-1.98,9.39-3.88,14.17-5.34,4.81-1.41,9.49-2.72,14.26-3.61,2.38-.45,4.77-.81,7.15-1.1,2.34-.33,4.68-.58,7.02-.73,4.66-.32,9.35-.23,13.84,.14,4.48,.35,8.87,1.08,13.08,2.24,8.42,2.32,16.16,6.32,22.31,12.46,0,0,4.07-4.17,10.06-10.53,5.89-6.45,13.54-15.24,20.62-24.51,.89-1.15,1.79-2.3,2.68-3.45,.87-1.16,1.7-2.34,2.54-3.51,1.66-2.34,3.3-4.64,4.89-6.87,3.21-4.42,5.89-8.78,8.27-12.45,2.36-3.69,4.32-6.76,5.56-8.99,1.28-2.21,2.01-3.47,2.01-3.47-7.47-4.33-15.41-7.42-23.58-9.56-8.13-2.11-16.63-3.37-25.17-3.92Zm-29.45-59.23c-1.32-3.97-3.41-7.55-6.16-10.52-2.73-2.96-6.26-5.38-10.19-7.01-3.97-1.65-8-2.39-12.07-2.52-4.05-.12-8,.43-11.62,1.54-1.82,.55-3.5,1.27-5.18,2.06-1.68,.8-3.26,1.73-4.7,2.79-1.45,1.06-2.73,2.27-3.92,3.59-1.24,1.29-2.32,2.72-3.22,4.3-.93,1.56-1.54,3.27-2.15,4.93-.58,1.67-.96,3.42-1.16,5.21-.22,1.78-.17,3.66-.1,5.47,.09,1.82,.35,3.67,.78,5.52,.84,3.69,2.39,7.45,4.44,10.86,2.06,3.41,4.77,6.59,8.16,9.21,3.39,2.61,7.17,4.43,11.17,5.38,4.01,.97,8.08,.95,12.18,.13,2.04-.42,4.07-1.06,6.05-1.9,2-.83,3.81-1.97,5.61-3.26,1.78-1.3,3.48-2.8,5.04-4.47,1.6-1.66,2.88-3.62,4.09-5.67,1.19-2.06,2.15-4.19,2.9-6.35,.7-2.18,1.12-4.41,1.35-6.61,.23-2.2,.25-4.37,.05-6.48-.19-2.11-.71-4.22-1.35-6.2Zm92.42-27.19c-3.13-3.05-5.99-6.46-8.56-10.15-1.29-1.84-2.5-3.76-3.64-5.73-1.2-1.98-2.33-4.03-3.38-6.12-2.14-4.19-3.86-8.58-5.48-13.15-1.65-4.57-2.99-9.31-3.99-14.17-1.17-4.88-2.02-9.89-2.48-15.02-.63-5.13-.95-10.4-.84-15.79-.11-5.31,.21-10.5,.85-15.59,.47-5.08,1.31-10.06,2.49-14.92,1.01-4.85,2.34-9.58,4-14.16,.86-2.29,1.64-4.53,2.55-6.73,.9-2.2,1.88-4.36,2.94-6.46s2.18-4.16,3.38-6.16c1.15-1.99,2.35-3.91,3.64-5.77,2.56-3.72,5.41-7.16,8.54-10.24,6.3-6.16,13.46-10.83,21.9-13.09,0,0-1.54-5.65-4.04-14.06-1.37-4.17-3-9.02-4.79-14.21-.85-2.61-1.96-5.22-2.98-7.91-1.06-2.68-2.14-5.4-3.22-8.12-1.05-2.73-2.3-5.37-3.46-8.01-1.19-2.62-2.36-5.2-3.49-7.7-1.11-2.51-2.33-4.86-3.46-7.1-1.14-2.23-2.23-4.35-3.22-6.3-1.01-1.94-1.92-3.74-2.77-5.3-.88-1.55-1.64-2.9-2.27-4.01-1.27-2.22-2-3.48-2-3.48-7.47,4.31-14.12,9.66-20.05,15.68-2.97,3.01-5.76,6.19-8.38,9.5-2.64,3.31-5.18,6.8-7.54,10.36-2.37,3.57-4.59,7.23-6.67,10.96-1.05,1.87-2.03,3.74-3.03,5.65-1.01,1.92-1.99,3.85-2.94,5.79-1.89,3.88-3.65,7.8-5.27,11.74-1.67,3.96-3.32,7.98-4.77,11.99-5.94,16.08-10.41,32.33-13.55,48.5-3.17,16.22-4.9,32.34-4.88,49.13-.02,16.94,1.68,33.16,4.81,49.46,3.13,16.26,7.53,32.57,13.42,48.7,1.43,4.01,3.11,8.06,4.73,12.02,1.61,3.95,3.37,7.88,5.25,11.77,.94,1.94,1.92,3.88,2.93,5.8,.97,1.9,1.97,3.79,3,5.66,2.07,3.74,4.29,7.41,6.65,10.99,4.78,7.18,9.94,13.86,15.87,19.9,5.92,6.04,12.56,11.4,20.02,15.73,0,0,.73-1.28,2.02-3.51,1.28-2.24,3.13-5.42,5.12-9.37,1.01-1.97,2.1-4.1,3.26-6.35,1.13-2.27,2.4-4.62,3.52-7.15,2.28-5.04,4.8-10.38,7.04-15.84,2.17-5.49,4.41-10.95,6.27-16.17,1.81-5.23,3.46-10.13,4.84-14.34,1.28-4.24,2.27-7.8,2.98-10.28,.7-2.49,1.1-3.91,1.1-3.91-8.43-2.27-15.61-6.88-21.92-12.98Zm-341.04,224.4c-1.02-1.9-2.08-3.78-3.17-5.63-2.18-3.71-4.49-7.34-6.91-10.87-1.21-1.78-2.44-3.47-3.69-5.25-1.25-1.77-2.53-3.52-3.82-5.24-2.59-3.45-5.27-6.75-8.01-10.01-10.96-13.22-22.8-25.26-35.24-36.06-12.48-10.81-25.58-20.37-40.11-28.77-14.65-8.47-29.56-15.14-45.21-20.61-15.63-5.44-31.97-9.74-48.88-12.67-4.19-.75-8.46-1.38-12.77-1.88-4.23-.56-8.49-1.02-12.79-1.33-8.67-.57-17.16-.8-25.72-.27-4.27,.26-8.53,.71-12.76,1.35-4.19,.63-8.33,1.44-12.42,2.5-8.18,2.12-16.13,5.19-23.61,9.51,0,0,.74,1.28,2.03,3.51,.65,1.11,1.42,2.48,2.36,4,.96,1.51,2.04,3.22,3.23,5.09,4.68,7.49,11.34,17.21,18.5,26.53,7.13,9.36,14.84,18.24,20.79,24.75,6.05,6.42,10.15,10.62,10.15,10.62,6.15-6.14,13.86-10.18,22.23-12.54,4.19-1.18,8.56-1.94,13.01-2.3,4.46-.38,9.14-.49,13.78-.19,2.33,.15,4.66,.39,7,.71,2.36,.3,4.76,.64,7.13,1.1,4.77,.88,9.44,2.22,14.26,3.64,4.79,1.46,9.45,3.4,14.24,5.4,2.37,1.04,4.73,2.17,7.07,3.4,2.32,1.25,4.74,2.42,7.07,3.8,2.31,1.33,4.54,2.73,6.7,4.2,2.21,1.39,4.35,2.84,6.41,4.36,2.07,1.51,4.05,3.13,6.01,4.74,1.97,1.57,3.87,3.2,5.71,4.89,1.83,1.69,3.59,3.45,5.3,5.23,1.73,1.72,3.39,3.5,4.98,5.33,3.18,3.65,6.04,7.57,8.69,11.39,2.62,3.88,4.92,7.91,6.84,12.06,1.92,4.13,3.52,8.22,4.63,12.46,2.23,8.43,2.66,17.12,.42,25.53,0,0,.35,.1,1.01,.28,.66,.17,1.62,.48,2.87,.76,2.49,.58,6.05,1.41,10.32,2.41,2.14,.48,4.45,1.03,6.91,1.53,2.47,.45,5.07,.93,7.77,1.42,2.7,.47,5.49,.96,8.32,1.45,2.84,.45,5.73,.79,8.63,1.17,2.89,.36,5.79,.72,8.64,1.07,2.85,.35,5.66,.51,8.38,.74,2.72,.2,5.35,.4,7.85,.58,1.25,.09,2.46,.17,3.63,.25,1.17,.04,2.31,.07,3.39,.11,8.7,.27,14.5,.35,14.5,.35,0-17.26-5.14-33.79-12.69-48.98-.95-1.91-1.93-3.76-2.96-5.65Zm10.35-195.11c-.36-.03-.74-.07-1.12-.11-.77-.06-1.58-.13-2.42-.2-.84-.08-1.72-.05-2.58-.2-.87-.13-1.75-.25-2.63-.36-.88-.12-1.78-.18-2.64-.32-.85-.18-1.7-.34-2.52-.48-.82-.13-1.61-.26-2.36-.39-.75-.15-1.43-.36-2.08-.5-1.29-.31-2.37-.54-3.13-.69-.38-.06-.66-.19-.86-.24-.2-.06-.3-.09-.3-.09-2.2,8.27-5.1,15.94-8.9,22.63-1.89,3.33-4.02,6.5-6.31,9.23-2.29,2.72-4.78,5.15-7.46,7.26-2.7,2.17-5.47,3.74-8.4,5.03-1.46,.64-2.96,1.19-4.47,1.65-1.49,.39-2.99,.67-4.51,.86-1.52,.19-3.05,.28-4.58,.27-1.51-.04-2.99-.26-4.48-.54-1.48-.29-2.95-.67-4.4-1.16-1.4-.57-2.78-1.24-4.12-2.01-1.35-.81-2.69-1.59-3.84-2.63-1.17-1.02-2.26-2.1-3.26-3.24-2.06-2.21-3.57-4.97-4.8-7.76-1.26-2.75-1.95-5.92-2.33-9.06-.18-1.59-.29-3.16-.26-4.8,.05-1.66,.19-3.34,.43-5.01,.49-3.37,1.29-6.68,2.56-10.07,1.28-3.41,2.9-6.77,4.85-10.07,3.89-6.61,9.06-12.94,15.13-18.99,0,0-1.2-1.36-3.11-3.28-1.8-2.03-4.2-4.74-6.38-7.61-2.19-2.87-4.25-5.82-5.66-8.13-.37-.56-.71-1.08-1.02-1.53-.29-.46-.5-.9-.69-1.23-.39-.68-.61-1.07-.61-1.07-7.41,4.27-14.45,8.81-20.95,13.74-3.24,2.46-6.37,5.04-9.31,7.71-2.91,2.65-5.66,5.41-8.23,8.28-5.14,5.73-9.66,12-13.05,18.52-1.72,3.28-3.26,6.68-4.54,10.17-1.21,3.43-2.19,6.95-2.94,10.57-2.92,14.34-1.46,29.75,4.87,43.86,6.26,14.09,17.41,26.81,32.12,35.29,14.56,8.44,31.05,11.74,46.31,10.11,15.31-1.59,29.31-8,40.23-17.66,2.75-2.46,5.31-5.15,7.68-7.94,1.18-1.4,2.31-2.83,3.4-4.3,1.08-1.46,2.13-3.07,3.12-4.64,1.98-3.18,3.76-6.48,5.35-9.89,.79-1.71,1.54-3.44,2.23-5.2,.7-1.77,1.35-3.62,1.96-5.46,4.87-14.8,6.62-31.04,6.61-48.15,0,0-1.81-.11-4.53-.14-.34,0-.69,0-1.06,0Zm29.05,145.61c2.79-3.01,4.83-6.75,6.02-10.64,1.2-3.91,1.54-8.08,.99-12.33-.55-4.24-1.93-8.2-3.85-11.72-1.92-3.54-4.35-6.55-7.14-9.24-2.78-2.65-5.87-4.7-9.16-6.08-3.3-1.53-6.79-2.31-10.44-2.23-3.65-.11-7.15,.7-10.46,2.21-3.29,1.34-6.39,3.42-9.18,6.06-.7,.66-1.37,1.36-2.02,2.08-.65,.7-1.27,1.43-1.87,2.19-1.2,1.53-2.29,3.18-3.26,4.94-1.92,3.52-3.31,7.47-3.87,11.71-.56,4.24-.23,8.41,.96,12.32,.59,1.96,1.39,3.85,2.4,5.65,.5,.9,1.05,1.78,1.65,2.63,.6,.82,1.25,1.62,1.95,2.38,2.78,3.06,6.28,5.64,10.31,7.53,4.03,1.72,8.57,2.71,13.33,2.82,4.75-.08,9.29-1.1,13.32-2.8,4.03-1.85,7.54-4.46,10.32-7.51Zm-306.07-100.91c2.63-3.31,5.18-6.8,7.54-10.36,2.37-3.57,4.59-7.23,6.67-10.96,1.05-1.87,2.03-3.74,3.03-5.65,1.01-1.92,1.99-3.85,2.94-5.79,1.89-3.88,3.65-7.8,5.27-11.74,1.67-3.96,3.32-7.98,4.77-11.98,5.94-16.08,10.41-32.33,13.55-48.5,3.17-16.22,4.9-32.34,4.88-49.13,.02-16.94-1.68-33.16-4.81-49.46-3.13-16.26-7.53-32.57-13.42-48.7-1.43-4.01-3.11-8.06-4.73-12.02-1.61-3.95-3.37-7.88-5.25-11.77-.94-1.94-1.92-3.88-2.93-5.8-.97-1.9-1.97-3.79-3-5.66-2.07-3.74-4.29-7.41-6.65-10.99-4.78-7.18-9.94-13.86-15.87-19.9-5.92-6.04-12.56-11.4-20.02-15.73,0,0-.73,1.28-2.02,3.51-1.28,2.24-3.13,5.42-5.12,9.37-1.01,1.97-2.1,4.1-3.26,6.35-1.13,2.27-2.4,4.62-3.52,7.15-2.28,5.04-4.8,10.38-7.04,15.84-2.17,5.49-4.41,10.95-6.27,16.17-1.81,5.23-3.46,10.13-4.84,14.34-1.28,4.24-2.27,7.8-2.98,10.28-.7,2.49-1.1,3.91-1.1,3.91,8.43,2.26,15.61,6.88,21.92,12.98,3.13,3.05,5.99,6.46,8.56,10.15,1.28,1.84,2.5,3.76,3.64,5.73,1.2,1.98,2.33,4.03,3.38,6.12,2.14,4.19,3.86,8.58,5.48,13.15,1.65,4.57,2.99,9.31,3.99,14.17,1.17,4.88,2.02,9.89,2.48,15.02,.63,5.13,.95,10.4,.84,15.79,.11,5.31-.21,10.5-.85,15.59-.47,5.08-1.31,10.06-2.49,14.92-1.01,4.85-2.34,9.58-4,14.16-.86,2.29-1.64,4.53-2.55,6.73-.9,2.2-1.88,4.36-2.94,6.46-1.05,2.11-2.18,4.16-3.38,6.16-1.15,1.99-2.35,3.91-3.64,5.77-2.56,3.72-5.41,7.16-8.54,10.24-6.3,6.16-13.46,10.83-21.9,13.09,0,0,1.54,5.65,4.04,14.06,1.37,4.17,3,9.02,4.79,14.21,.85,2.61,1.96,5.22,2.98,7.91,1.06,2.68,2.14,5.4,3.22,8.12,1.05,2.73,2.3,5.37,3.46,8.01,1.19,2.62,2.36,5.2,3.49,7.7,1.11,2.51,2.33,4.86,3.46,7.1,1.14,2.24,2.23,4.35,3.22,6.3,1.01,1.94,1.92,3.74,2.77,5.3,.88,1.55,1.64,2.9,2.27,4.01,1.27,2.22,2,3.48,2,3.48,7.47-4.31,14.12-9.66,20.05-15.68,2.97-3.01,5.76-6.19,8.38-9.5Zm186.42-101.82c-.27-.47-.51-1.03-.81-1.62-.3-.59-.63-1.23-.98-1.91-.35-.68-.77-1.37-1.06-2.15-.33-.76-.68-1.54-1.04-2.34-.35-.8-.8-1.57-1.06-2.41-.31-.83-.63-1.65-.95-2.46-.3-.81-.71-1.57-.92-2.38-.5-1.58-1-3.04-1.46-4.28-.68-2.56-1.19-4.25-1.19-4.25-8.24,2.21-16.48,3.56-24.07,3.59-3.82,.02-7.53-.27-11.1-.88-1.78-.31-3.54-.69-5.23-1.16-1.65-.48-3.25-1.04-4.8-1.68-1.55-.64-3.06-1.36-4.5-2.15-1.44-.8-2.88-1.66-4.1-2.62-2.5-1.91-4.76-4.11-6.69-6.55-1.76-2.46-3.21-5.16-4.29-8.02-.91-2.88-1.41-5.92-1.52-9.02,.12-3.16,.61-6.24,1.53-9.14,1.09-2.89,2.53-5.6,4.3-8.07,1.94-2.44,4.19-4.64,6.69-6.55,2.53-1.9,5.53-3.47,8.61-4.74,1.55-.63,3.15-1.19,4.8-1.66,1.71-.46,3.45-.84,5.23-1.14,3.56-.6,7.27-.87,11.09-.83,7.58,.05,15.82,1.42,24.06,3.63,0,0,.52-1.7,1.2-4.28,.46-1.25,.97-2.72,1.47-4.32,.55-1.58,1.3-3.2,1.89-4.88,2.69-6.62,6.38-12.79,6.38-12.79-7.4-4.29-14.83-8.14-22.34-11.3-7.5-3.17-15.14-5.69-22.62-7.26-3.76-.8-7.54-1.39-11.32-1.75-1.89-.18-3.79-.31-5.68-.38-1.86-.05-3.7-.04-5.55,.03-3.69,.14-7.38,.52-11.05,1.14-3.66,.62-7.11,1.56-10.63,2.71-13.89,4.6-26.55,13.55-35.57,26.09-9.03,12.48-14.46,28.51-14.45,45.49,0,16.84,5.38,32.77,14.38,45.19,9.03,12.48,21.63,21.41,35.49,26.02,3.5,1.15,6.99,2.08,10.61,2.72,3.67,.62,7.36,1,11.05,1.14,1.85,.07,3.7,.08,5.55,.04,1.86-.05,3.78-.18,5.67-.36,3.79-.36,7.57-.94,11.34-1.73,3.78-.8,7.51-1.78,11.29-3,3.8-1.22,7.57-2.63,11.33-4.21,7.52-3.15,14.96-6.98,22.37-11.25,0,0-.22-.38-.61-1.06-.2-.33-.44-.74-.72-1.2Zm-136.49,73.75c.73,2.16,1.71,4.29,2.9,6.36,1.2,2.05,2.51,3.99,4.06,5.67,1.57,1.67,3.26,3.17,5.04,4.47,1.79,1.29,3.63,2.41,5.59,3.28,1.98,.85,4.01,1.49,6.06,1.91,4.09,.84,8.2,.84,12.17-.09,4-.94,7.79-2.75,11.19-5.35,3.39-2.61,6.11-5.78,8.18-9.18,2.09-3.43,3.63-7.16,4.47-10.85,.43-1.85,.69-3.7,.78-5.52,.11-1.83,.13-3.69-.08-5.47-.2-1.79-.58-3.52-1.15-5.2-.57-1.68-1.21-3.36-2.13-4.93-.9-1.58-2-3.01-3.22-4.31-1.15-1.34-2.46-2.54-3.91-3.61-1.44-1.07-3.02-2-4.71-2.8-1.63-.82-3.34-1.53-5.16-2.09-3.62-1.11-7.58-1.67-11.63-1.56-4.02,.1-8.09,.85-12.06,2.48-3.95,1.63-7.44,4.02-10.23,6.99-2.76,2.96-4.85,6.53-6.17,10.49-.66,1.98-1.14,4.07-1.38,6.2-.19,2.11-.18,4.28,.05,6.48,.23,2.2,.67,4.42,1.34,6.62Zm-29.2-292.58c4.27,.27,8.54,.37,12.8,.31,4.24-.07,8.63-.19,12.91-.5,4.31-.29,8.53-.76,12.79-1.28,4.3-.49,8.56-1.11,12.74-1.85,16.9-2.85,33.21-7.08,48.79-12.45,15.6-5.4,30.42-11.98,44.95-20.39,14.66-8.47,27.86-18.06,40.43-28.88,12.53-10.82,24.45-22.81,35.47-36.05,11-13,21.07-27.34,28.72-42.57,7.6-15.18,12.77-31.73,12.81-48.96,0,0-.37-.01-1.05,0-.69,.01-1.69,.03-2.97,.06-2.56,.06-6.22,.16-10.61,.27-4.39,.06-9.52,.52-15.01,.92-2.75,.23-5.58,.41-8.46,.73-2.88,.36-5.8,.72-8.72,1.08-2.92,.38-5.84,.74-8.71,1.17-2.86,.5-5.67,.99-8.4,1.46-2.72,.5-5.35,.98-7.84,1.43-2.49,.49-4.82,1.06-6.98,1.54-4.31,1.01-7.9,1.85-10.42,2.43-1.26,.28-2.23,.59-2.9,.77-.67,.18-1.02,.28-1.02,.28,2.24,8.41,1.86,17.09-.31,25.5-1.08,4.23-2.64,8.31-4.54,12.42-1.89,4.13-4.17,8.16-6.76,12.03-2.62,3.81-5.48,7.71-8.65,11.36-1.59,1.83-3.25,3.61-4.98,5.33-1.71,1.77-3.47,3.54-5.32,5.23-1.84,1.69-3.76,3.33-5.74,4.9-1.98,1.59-3.97,3.24-6.07,4.76-2.09,1.53-4.25,3-6.49,4.4-2.19,1.48-4.46,2.91-6.81,4.26-2.29,1.35-4.67,2.51-6.97,3.74-2.31,1.21-4.64,2.33-6.99,3.35-4.75,1.98-9.39,3.88-14.17,5.34-4.81,1.41-9.49,2.72-14.26,3.61-2.38,.45-4.77,.81-7.15,1.1-2.34,.33-4.68,.58-7.02,.73-4.66,.32-9.35,.23-13.84-.14-4.48-.35-8.87-1.08-13.08-2.24-8.42-2.32-16.16-6.33-22.31-12.46,0,0-4.07,4.17-10.06,10.53-5.89,6.45-13.54,15.24-20.61,24.51-.89,1.15-1.79,2.3-2.68,3.45-.87,1.16-1.7,2.34-2.54,3.51-1.66,2.34-3.3,4.64-4.89,6.86-3.21,4.42-5.89,8.78-8.27,12.45-2.36,3.69-4.32,6.76-5.56,8.99-1.28,2.21-2.01,3.47-2.01,3.47,7.47,4.33,15.41,7.42,23.58,9.56,8.13,2.11,16.63,3.37,25.17,3.93Zm29.45,59.23c1.32,3.97,3.41,7.55,6.16,10.52,2.73,2.96,6.26,5.38,10.19,7.01,3.97,1.65,8,2.39,12.07,2.52,4.05,.12,8-.43,11.62-1.54,1.82-.55,3.5-1.27,5.18-2.06,1.68-.8,3.26-1.73,4.7-2.79,1.45-1.06,2.73-2.27,3.92-3.59,1.24-1.29,2.32-2.72,3.22-4.3,.93-1.56,1.54-3.27,2.16-4.93,.58-1.67,.96-3.42,1.16-5.21,.22-1.78,.17-3.66,.1-5.47-.09-1.82-.35-3.67-.78-5.52-.84-3.69-2.39-7.45-4.44-10.86-2.06-3.41-4.77-6.59-8.16-9.21-3.39-2.61-7.17-4.43-11.17-5.38-4.01-.97-8.08-.95-12.18-.13-2.04,.42-4.07,1.06-6.05,1.9-2,.83-3.81,1.97-5.61,3.26-1.78,1.3-3.48,2.8-5.04,4.47-1.6,1.66-2.88,3.62-4.09,5.67-1.19,2.06-2.15,4.19-2.9,6.35-.7,2.18-1.12,4.41-1.35,6.6-.23,2.2-.25,4.37-.05,6.48,.19,2.11,.71,4.22,1.35,6.2Zm140.01,48.73c.75-1.1,1.47-2.5,2.52-3.81,.48-.68,.98-1.39,1.49-2.11,.25-.36,.49-.74,.76-1.09l.85-1.04c2.15-2.86,4.54-5.54,6.32-7.54,1.89-1.91,3.08-3.25,3.08-3.25-6.07-6.05-11.23-12.4-15.09-19.02-1.93-3.31-3.55-6.69-4.81-10.11-1.25-3.4-2.04-6.73-2.52-10.1-.23-1.68-.37-3.36-.42-5.03,0-1.62,.09-3.22,.28-4.8,.38-3.15,1.08-6.31,2.33-9.06,1.22-2.79,2.73-5.53,4.77-7.73,.99-1.13,2.07-2.21,3.22-3.21,1.14-1.02,2.46-1.8,3.78-2.59,1.36-.78,2.76-1.47,4.18-2.04,1.47-.49,2.95-.89,4.44-1.18,1.5-.28,2.98-.52,4.51-.55,1.54,0,3.07,.08,4.59,.27,1.52,.19,3.02,.45,4.52,.86,1.52,.46,3.01,1.01,4.47,1.65,2.92,1.28,5.69,2.88,8.38,5.05,2.66,2.11,5.14,4.54,7.41,7.27,2.28,2.75,4.4,5.92,6.27,9.25,3.77,6.7,6.65,14.37,8.85,22.64l.31-.09c.2-.05,.48-.18,.87-.24,.76-.16,1.85-.39,3.15-.7,.65-.14,1.35-.36,2.1-.5,.76-.13,1.56-.26,2.38-.39,.83-.15,1.68-.31,2.54-.49,.88-.1,1.77-.21,2.66-.31,.89-.11,1.78-.23,2.66-.37,.88-.11,1.76-.11,2.61-.19,1.7-.09,3.26-.36,4.64-.3,1.37-.01,2.51-.05,3.31-.09,.4-.02,.71-.03,.93-.04,.21-.02,.33,0,.33,0,.04-17.14-1.67-33.36-6.51-48.16-4.78-14.73-12.67-27.61-23.69-37.5-10.92-9.65-24.97-16.11-40.34-17.69-15.33-1.63-31.92,1.69-46.6,10.21-14.58,8.41-25.66,21.05-31.89,35.08-6.29,14.05-7.75,29.42-4.85,43.74,.75,3.62,1.74,7.14,2.94,10.57,1.25,3.46,2.81,6.89,4.52,10.16,1.75,3.3,3.61,6.43,5.84,9.56,2.21,3.11,4.6,6.11,7.17,8.99,5.14,5.76,10.98,11.05,17.5,16.02,6.49,4.95,13.52,9.5,20.92,13.79,0,0,.22-.39,.6-1.07,.34-.7,.98-1.61,1.71-2.73Zm69.22-196.45c-2.79,3.01-4.83,6.75-6.02,10.64-1.2,3.91-1.54,8.08-.99,12.33s1.93,8.2,3.85,11.72c1.92,3.54,4.35,6.55,7.14,9.24,2.78,2.65,5.87,4.7,9.16,6.08,3.3,1.53,6.79,2.31,10.44,2.23,3.65,.11,7.15-.7,10.46-2.21,3.29-1.34,6.39-3.42,9.18-6.06,.7-.66,1.37-1.36,2.02-2.08,.65-.7,1.27-1.43,1.87-2.19,1.2-1.53,2.29-3.18,3.26-4.94,1.92-3.52,3.31-7.47,3.87-11.71,.56-4.24,.23-8.41-.96-12.32-.59-1.96-1.39-3.85-2.4-5.65-.5-.9-1.05-1.78-1.65-2.63-.6-.82-1.25-1.62-1.95-2.38-2.78-3.06-6.28-5.64-10.31-7.53-4.03-1.72-8.57-2.71-13.33-2.82-4.75,.08-9.29,1.1-13.32,2.8-4.03,1.85-7.54,4.46-10.32,7.51Zm39.4-49.5c1.02,1.9,2.08,3.78,3.17,5.64,2.18,3.71,4.49,7.34,6.91,10.87,1.21,1.78,2.44,3.47,3.69,5.25,1.25,1.77,2.53,3.52,3.82,5.24,2.59,3.45,5.27,6.75,8.01,10.01,10.96,13.22,22.8,25.26,35.24,36.06,12.48,10.81,25.58,20.37,40.11,28.77,14.65,8.47,29.56,15.13,45.21,20.61,15.63,5.44,31.97,9.74,48.88,12.67,4.19,.75,8.46,1.38,12.77,1.88,4.23,.56,8.49,1.02,12.79,1.33,8.67,.57,17.16,.8,25.72,.27,4.27-.26,8.53-.71,12.76-1.35,4.19-.63,8.33-1.44,12.42-2.5,8.18-2.12,16.13-5.19,23.61-9.51,0,0-.74-1.28-2.03-3.51-.65-1.11-1.42-2.48-2.36-4-.96-1.52-2.04-3.22-3.23-5.09-4.68-7.49-11.34-17.21-18.5-26.53-7.13-9.36-14.84-18.24-20.79-24.75-6.05-6.42-10.15-10.62-10.15-10.62-6.15,6.14-13.86,10.18-22.23,12.54-4.19,1.18-8.56,1.94-13.01,2.3-4.46,.38-9.14,.49-13.78,.18-2.33-.15-4.66-.39-7-.71-2.36-.3-4.76-.64-7.13-1.1-4.77-.88-9.44-2.22-14.26-3.64-4.79-1.46-9.45-3.4-14.24-5.4-2.37-1.04-4.73-2.17-7.07-3.4-2.32-1.25-4.74-2.42-7.07-3.8-2.31-1.33-4.54-2.73-6.7-4.2-2.21-1.39-4.35-2.84-6.41-4.36-2.07-1.51-4.05-3.13-6.01-4.74-1.97-1.57-3.87-3.2-5.71-4.89-1.83-1.69-3.59-3.45-5.3-5.23-1.73-1.72-3.39-3.5-4.98-5.33-3.18-3.65-6.04-7.57-8.69-11.39-2.62-3.88-4.92-7.91-6.84-12.06-1.92-4.13-3.52-8.22-4.63-12.46-2.23-8.43-2.66-17.12-.42-25.53,0,0-.35-.1-1.01-.28-.66-.17-1.62-.48-2.87-.76-2.49-.58-6.05-1.41-10.32-2.41-2.14-.48-4.45-1.03-6.91-1.53-2.47-.45-5.07-.93-7.77-1.42-2.7-.47-5.49-.96-8.32-1.45-2.84-.45-5.73-.79-8.63-1.17-2.89-.36-5.79-.72-8.64-1.07-2.85-.35-5.66-.51-8.38-.74-2.72-.2-5.35-.4-7.85-.58-1.25-.09-2.46-.17-3.63-.25-1.17-.04-2.31-.07-3.39-.11-8.7-.27-14.5-.35-14.5-.35,0,17.26,5.14,33.79,12.69,48.98,.95,1.91,1.93,3.76,2.96,5.65Zm-10.35,195.11c.36,.04,.74,.07,1.12,.11,.77,.06,1.58,.13,2.42,.2,.84,.08,1.72,.05,2.58,.2,.87,.13,1.75,.25,2.63,.36,.88,.12,1.78,.18,2.64,.32,.85,.18,1.7,.34,2.52,.48,.82,.13,1.61,.26,2.36,.39,.75,.15,1.43,.36,2.08,.5,1.29,.31,2.37,.54,3.13,.69,.38,.06,.66,.19,.86,.24,.2,.06,.3,.09,.3,.09,2.2-8.27,5.1-15.94,8.9-22.63,1.89-3.33,4.02-6.5,6.31-9.23,2.29-2.72,4.78-5.15,7.46-7.26,2.7-2.17,5.47-3.74,8.4-5.03,1.46-.64,2.96-1.19,4.47-1.65,1.49-.39,2.99-.67,4.51-.86,1.52-.19,3.05-.28,4.58-.27,1.51,.04,2.99,.26,4.48,.54,1.48,.29,2.95,.67,4.4,1.16,1.4,.57,2.78,1.24,4.12,2.01,1.35,.81,2.69,1.59,3.84,2.63,1.17,1.02,2.26,2.1,3.26,3.24,2.06,2.21,3.58,4.97,4.8,7.76,1.26,2.75,1.95,5.92,2.33,9.06,.18,1.59,.29,3.16,.26,4.8-.05,1.66-.19,3.34-.43,5.01-.49,3.37-1.29,6.68-2.56,10.07-1.28,3.41-2.9,6.77-4.85,10.07-3.89,6.61-9.06,12.94-15.13,18.99,0,0,1.2,1.36,3.11,3.28,1.8,2.03,4.2,4.74,6.38,7.62,2.19,2.87,4.25,5.82,5.66,8.13,.37,.56,.71,1.08,1.02,1.53,.29,.46,.5,.9,.69,1.23,.39,.68,.61,1.07,.61,1.07,7.41-4.27,14.45-8.81,20.95-13.74,3.24-2.46,6.37-5.04,9.31-7.71,2.91-2.65,5.66-5.41,8.23-8.28,5.14-5.73,9.66-12,13.05-18.52,1.72-3.28,3.26-6.68,4.54-10.17,1.21-3.43,2.19-6.96,2.94-10.57,2.92-14.34,1.46-29.75-4.87-43.86-6.26-14.09-17.41-26.81-32.12-35.29-14.56-8.44-31.05-11.74-46.31-10.11-15.31,1.59-29.31,8-40.23,17.66-2.75,2.46-5.31,5.15-7.68,7.94-1.18,1.4-2.31,2.83-3.4,4.3-1.08,1.46-2.13,3.07-3.12,4.64-1.98,3.18-3.76,6.48-5.35,9.89-.79,1.71-1.54,3.44-2.23,5.2-.7,1.77-1.35,3.62-1.96,5.46-4.87,14.8-6.62,31.04-6.61,48.15,0,0,1.81,.11,4.53,.14,.34,0,.69,0,1.06,0Zm227.08-16.63c-.73-2.16-1.71-4.29-2.9-6.36-1.2-2.05-2.51-3.99-4.06-5.67-1.57-1.67-3.26-3.17-5.04-4.47-1.79-1.29-3.63-2.41-5.59-3.28-1.98-.85-4.01-1.49-6.06-1.91-4.09-.84-8.2-.84-12.17,.09-4,.94-7.79,2.75-11.19,5.35-3.39,2.61-6.11,5.78-8.18,9.18-2.09,3.43-3.63,7.16-4.47,10.85-.43,1.85-.69,3.7-.78,5.52-.11,1.83-.13,3.69,.08,5.47,.2,1.79,.58,3.52,1.15,5.2,.57,1.68,1.21,3.36,2.13,4.93,.9,1.58,2,3.01,3.22,4.31,1.15,1.34,2.46,2.54,3.91,3.61,1.44,1.07,3.02,2,4.71,2.8,1.63,.82,3.34,1.53,5.16,2.09,3.62,1.11,7.58,1.67,11.63,1.56,4.02-.1,8.09-.85,12.06-2.48,3.95-1.63,7.44-4.02,10.23-6.99,2.76-2.96,4.85-6.53,6.17-10.49,.66-1.98,1.14-4.07,1.38-6.2,.19-2.11,.18-4.28-.05-6.48-.23-2.2-.67-4.42-1.34-6.62Zm-48.61,54.84c-3.5-1.15-6.99-2.08-10.61-2.72-3.67-.62-7.36-1-11.05-1.14-1.85-.07-3.7-.08-5.55-.04-1.86,.05-3.78,.18-5.67,.36-3.79,.36-7.57,.94-11.34,1.73-3.78,.8-7.51,1.78-11.29,3-3.8,1.22-7.57,2.63-11.33,4.21-7.52,3.15-14.96,6.98-22.37,11.25,0,0,.22,.38,.61,1.06,.2,.33,.44,.74,.72,1.2,.27,.47,.51,1.03,.81,1.62,.3,.59,.63,1.23,.98,1.91,.35,.68,.77,1.37,1.06,2.15,.33,.76,.68,1.54,1.04,2.34,.35,.8,.8,1.57,1.06,2.41,.31,.83,.63,1.65,.95,2.46,.3,.81,.71,1.57,.92,2.38,.5,1.58,1,3.04,1.46,4.28,.68,2.56,1.19,4.25,1.19,4.25,8.24-2.21,16.48-3.56,24.07-3.59,3.82-.02,7.53,.27,11.1,.88,1.78,.31,3.54,.69,5.23,1.16,1.65,.48,3.25,1.04,4.8,1.68,1.55,.64,3.06,1.36,4.5,2.15,1.44,.8,2.88,1.66,4.1,2.62,2.5,1.91,4.76,4.11,6.69,6.55,1.76,2.46,3.21,5.16,4.29,8.02,.91,2.88,1.41,5.91,1.52,9.02-.12,3.16-.61,6.24-1.53,9.14-1.09,2.89-2.53,5.6-4.3,8.07-1.94,2.44-4.19,4.64-6.69,6.55-2.53,1.9-5.53,3.47-8.61,4.74-1.55,.63-3.15,1.19-4.8,1.66-1.71,.46-3.45,.84-5.23,1.14-3.56,.6-7.27,.87-11.09,.83-7.58-.05-15.82-1.42-24.06-3.63,0,0-.52,1.7-1.2,4.28-.46,1.25-.97,2.72-1.47,4.32-.55,1.58-1.3,3.2-1.89,4.88-2.69,6.62-6.38,12.79-6.38,12.79,7.4,4.29,14.83,8.14,22.34,11.3,7.5,3.17,15.14,5.69,22.62,7.26,3.76,.8,7.54,1.38,11.32,1.75,1.89,.18,3.79,.31,5.68,.38,1.86,.05,3.7,.04,5.55-.03,3.69-.14,7.38-.52,11.05-1.14,3.66-.62,7.11-1.56,10.63-2.71,13.89-4.6,26.55-13.55,35.57-26.09,9.03-12.48,14.46-28.51,14.45-45.49,0-16.84-5.38-32.77-14.38-45.19-9.03-12.48-21.63-21.41-35.49-26.02Z" />
    <rect class="b" x="0" y="0" width="850.39" height="850.39" />
</svg>