<svg id="a" fill="{{fill1}}" xmlns="http://www.w3.org/2000/svg" viewBox="0 0 850.39 850.39">
    <path d="M805.91,334.33c7.82-10.37,12.08-18.92,11.97-24.08-.18-8.96-7.18-15.98-15.92-15.98s-15.92,7.14-15.92,15.92c0,3.47,1.46,7.96,4.34,13.34,.78,1.46,.24,3.28-1.23,4.06-1.47,.79-3.28,.23-4.06-1.23-3.35-6.26-5.05-11.7-5.05-16.17,0-12.09,9.84-21.92,21.92-21.92s21.67,9.6,21.92,21.86c.13,6.69-4.3,16.05-13.18,27.82-.59,.78-1.49,1.19-2.4,1.19-.63,0-1.26-.2-1.81-.6-1.32-1-1.58-2.88-.59-4.2Zm18.14-.68c5.25-2.49,9.93-3.75,13.93-3.75,5.02,0,9.5,2.34,12.42,5.99v-8.12c-3.53-2.44-7.81-3.87-12.42-3.87-4.89,0-10.44,1.46-16.5,4.32-1.5,.71-2.14,2.5-1.42,4,.71,1.5,2.52,2.14,3.99,1.43Zm-58.1,34.09c6.1,0,14.59-3.11,23.28-8.54,1.41-.88,1.83-2.73,.96-4.14-.87-1.4-2.72-1.84-4.14-.96-7.66,4.78-15.17,7.63-20.1,7.63-8.78,0-15.92-7.14-15.92-15.92s7.15-15.92,15.92-15.92c7.68,0,22.43,9.76,31.24,15.59l3.13,2.07c1.75,1.14,3.88,2.67,6.23,4.36,9.33,6.68,22.1,15.83,31.42,15.83,4.61,0,8.89-1.43,12.42-3.87v-8.12c-2.92,3.64-7.4,5.99-12.42,5.99-7.39,0-19.75-8.85-27.93-14.71-2.44-1.75-4.63-3.32-6.45-4.5l-3.1-2.04c-9.98-6.6-25.06-16.59-34.55-16.59-12.09,0-21.92,9.83-21.92,21.92s9.84,21.92,21.92,21.92Zm39.44,112.57c1.4,.91,3.25,.52,4.16-.86,3.77-5.74,5.69-10.56,5.69-14.34,0-8.75-5.53-14.63-13.76-14.63s-13.76,5.88-13.76,14.63c0,8.08,6.43,16.95,10.26,21.51,.52,.61,1.04,1.26,1.58,1.93,4.98,6.18,11.8,14.63,27.39,14.64h0c8.38,0,15.47-3.12,20.51-9.03,1.11-1.3,2.08-2.73,2.93-4.24v-30.41c-11.16-23.58-43.82-44.92-48.92-44.92-5.84,0-47.91,28.04-52.29,55.35-1.42,8.87,.93,17.93,6.31,24.23,5.03,5.91,12.13,9.03,20.5,9.03h0c4.7,0,9.39-1.39,13.13-2.91-6.99,14.65-15.13,22.84-15.22,22.94-.86,.86-1.12,2.15-.66,3.27,.46,1.13,1.56,1.86,2.77,1.86h47.43c1.21,0,2.3-.72,2.77-1.83s.22-2.4-.62-3.26c-.07-.07-7.23-7.48-14.33-19.95-.81-1.44-2.64-1.95-4.09-1.12-1.44,.82-1.94,2.65-1.12,4.09,3.99,7.01,7.96,12.46,10.85,16.08h-34.32c4.16-5.29,10.45-14.57,15.37-27.39,.46-1.21,.09-2.58-.92-3.4-1.02-.83-2.44-.89-3.52-.19-.09,.06-9.12,5.82-17.51,5.83h0c-6.56,0-12.08-2.4-15.94-6.92-4.24-4.98-6.1-12.22-4.95-19.38,3.75-23.37,40.41-48.22,46.37-50.24,5.96,2.02,42.61,26.87,46.36,50.24,1.15,7.15-.7,14.4-4.94,19.38-3.86,4.53-9.38,6.93-15.94,6.93h0c-12.72,0-18.03-6.59-22.71-12.4-.57-.7-1.11-1.38-1.66-2.02-5.55-6.6-8.86-13.2-8.86-17.65,0-5.48,2.83-8.62,7.75-8.62s7.75,3.14,7.75,8.62c0,2.51-1.67,6.44-4.7,11.05-.91,1.38-.52,3.24,.86,4.16Zm-5.41-127.39c-1.54-.6-3.29,.18-3.88,1.73-7.39,19.3-19.8,31.32-19.93,31.44-.89,.85-1.17,2.15-.71,3.29,.46,1.14,1.56,1.88,2.79,1.88h47.43c1.21,0,2.3-.72,2.77-1.84,.47-1.11,.22-2.4-.62-3.26-.1-.1-9.97-10.29-18.11-27.13-.72-1.49-2.53-2.1-4.01-1.4-1.5,.72-2.12,2.51-1.4,4.01,5.17,10.7,10.95,18.79,14.81,23.62h-34.1c4.62-5.55,11.66-15.37,16.68-28.46,.59-1.55-.18-3.28-1.73-3.88Zm1.98-333.09c-12.09,0-21.92,9.83-21.92,21.92,0,4.47,1.7,9.91,5.05,16.17,.78,1.46,2.59,2.02,4.06,1.23,1.46-.78,2.01-2.6,1.23-4.06-2.88-5.38-4.34-9.87-4.34-13.34,0-8.78,7.14-15.92,15.92-15.92s15.74,7.02,15.92,15.98c.11,5.16-4.15,13.71-11.97,24.08-1,1.32-.74,3.2,.59,4.2,.54,.41,1.18,.6,1.81,.6,.91,0,1.81-.41,2.4-1.19,8.88-11.77,13.31-21.13,13.18-27.82-.25-12.26-9.88-21.86-21.92-21.86Zm-57.94,57.56c0,12.09,9.84,21.92,21.92,21.92,6.1,0,14.59-3.11,23.28-8.54,1.41-.88,1.83-2.73,.96-4.14-.87-1.4-2.72-1.84-4.14-.96-7.66,4.78-15.17,7.63-20.1,7.63-8.78,0-15.92-7.14-15.92-15.92s7.15-15.92,15.92-15.92c7.68,0,22.43,9.76,31.24,15.59l3.13,2.07c1.75,1.14,3.88,2.67,6.23,4.36,9.33,6.68,22.1,15.83,31.42,15.83,4.61,0,8.89-1.43,12.42-3.87v-8.12c-2.92,3.64-7.4,5.99-12.42,5.99-7.39,0-19.75-8.85-27.93-14.71-2.44-1.75-4.63-3.32-6.45-4.5l-3.1-2.04c-9.98-6.6-25.06-16.59-34.55-16.59-12.09,0-21.92,9.83-21.92,21.92Zm77.45-17.6c-1.5,.71-2.14,2.5-1.42,4,.71,1.5,2.52,2.14,3.99,1.43,5.25-2.49,9.93-3.75,13.93-3.75,5.02,0,9.5,2.34,12.42,5.99v-8.12c-3.53-2.44-7.81-3.87-12.42-3.87-4.89,0-10.44,1.46-16.5,4.32Zm-20,86.35c-5.84,0-47.91,28.04-52.29,55.35-1.42,8.87,.93,17.93,6.31,24.23,5.03,5.91,12.13,9.03,20.5,9.03h0c4.7,0,9.39-1.39,13.13-2.91-6.99,14.65-15.13,22.84-15.22,22.94-.86,.86-1.12,2.15-.66,3.27,.46,1.13,1.56,1.86,2.77,1.86h47.43c1.21,0,2.3-.72,2.77-1.83s.22-2.4-.62-3.26c-.07-.07-7.23-7.48-14.33-19.95-.81-1.44-2.64-1.95-4.09-1.12-1.44,.82-1.94,2.65-1.12,4.09,3.99,7.01,7.96,12.46,10.85,16.08h-34.32c4.16-5.29,10.45-14.57,15.37-27.39,.46-1.21,.09-2.58-.92-3.4-1.02-.83-2.44-.89-3.52-.19-.09,.06-9.12,5.82-17.51,5.83h0c-6.56,0-12.08-2.4-15.94-6.92-4.24-4.98-6.1-12.22-4.95-19.38,3.75-23.37,40.41-48.22,46.37-50.24,5.96,2.02,42.61,26.87,46.36,50.24,1.15,7.15-.7,14.4-4.94,19.38-3.86,4.53-9.38,6.93-15.94,6.93h0c-12.72,0-18.03-6.59-22.71-12.4-.57-.7-1.11-1.38-1.66-2.02-5.55-6.6-8.86-13.2-8.86-17.65,0-5.48,2.83-8.62,7.75-8.62s7.75,3.14,7.75,8.62c0,2.51-1.67,6.44-4.7,11.05-.91,1.38-.52,3.24,.86,4.16,1.4,.91,3.25,.52,4.16-.86,3.77-5.74,5.69-10.56,5.69-14.34,0-8.75-5.53-14.63-13.76-14.63s-13.76,5.88-13.76,14.63c0,8.08,6.43,16.95,10.26,21.51,.52,.61,1.04,1.26,1.58,1.93,4.98,6.18,11.8,14.63,27.39,14.64h0c8.38,0,15.47-3.12,20.51-9.03,1.11-1.3,2.08-2.73,2.93-4.24v-30.41c-11.16-23.58-43.82-44.92-48.92-44.92Zm-1.5-61.66c-1.54-.6-3.29,.18-3.88,1.73-7.39,19.3-19.8,31.32-19.93,31.44-.89,.85-1.17,2.15-.71,3.29,.46,1.14,1.56,1.88,2.79,1.88h47.43c1.21,0,2.3-.72,2.77-1.84,.47-1.11,.22-2.4-.62-3.26-.1-.1-9.97-10.29-18.11-27.13-.72-1.49-2.53-2.1-4.01-1.4-1.5,.72-2.12,2.51-1.4,4.01,5.17,10.7,10.95,18.79,14.81,23.62h-34.1c4.62-5.55,11.66-15.37,16.68-28.46,.59-1.55-.18-3.28-1.73-3.88Zm-13.94,762.58c0-8.78,7.14-15.92,15.92-15.92s15.74,7.02,15.92,15.98c.02,.97-.12,2.07-.4,3.27h6.11c.21-1.2,.32-2.33,.29-3.4-.25-12.26-9.88-21.86-21.92-21.86s-21.92,9.83-21.92,21.92c0,1.06,.1,2.17,.29,3.33h6.1c-.25-1.19-.39-2.31-.39-3.33Zm20.46-240.09c.54,.41,1.18,.6,1.81,.6,.91,0,1.81-.41,2.4-1.19,8.88-11.77,13.31-21.13,13.18-27.82-.25-12.26-9.88-21.86-21.92-21.86s-21.92,9.83-21.92,21.92c0,4.47,1.7,9.91,5.05,16.17,.78,1.46,2.59,2.02,4.06,1.23,1.46-.78,2.01-2.6,1.23-4.06-2.88-5.38-4.34-9.87-4.34-13.34,0-8.78,7.14-15.92,15.92-15.92s15.74,7.02,15.92,15.98c.11,5.16-4.15,13.71-11.97,24.08-1,1.32-.74,3.2,.59,4.2Zm-40.55,29.21c6.1,0,14.59-3.11,23.28-8.54,1.41-.88,1.83-2.73,.96-4.14-.87-1.4-2.72-1.84-4.14-.96-7.66,4.78-15.17,7.63-20.1,7.63-8.78,0-15.92-7.14-15.92-15.92s7.15-15.92,15.92-15.92c7.68,0,22.43,9.76,31.24,15.59l3.13,2.07c1.75,1.14,3.88,2.67,6.23,4.36,9.33,6.68,22.1,15.83,31.42,15.83,4.61,0,8.89-1.43,12.42-3.87v-8.12c-2.92,3.64-7.4,5.99-12.42,5.99-7.39,0-19.75-8.85-27.93-14.71-2.44-1.75-4.63-3.32-6.45-4.5l-3.1-2.04c-9.98-6.6-25.06-16.59-34.55-16.59-12.09,0-21.92,9.83-21.92,21.92s9.84,21.92,21.92,21.92Zm55.53-39.52c-1.5,.71-2.14,2.5-1.42,4,.71,1.5,2.52,2.14,3.99,1.43,5.25-2.49,9.93-3.75,13.93-3.75,5.02,0,9.5,2.34,12.42,5.99v-8.12c-3.53-2.44-7.81-3.87-12.42-3.87-4.89,0-10.44,1.46-16.5,4.32Zm-48.23,198.25c.46,1.13,1.56,1.86,2.77,1.86h47.43c1.21,0,2.3-.72,2.77-1.83s.22-2.4-.62-3.26c-.07-.07-7.23-7.48-14.33-19.95-.81-1.44-2.64-1.95-4.09-1.12-1.44,.82-1.94,2.65-1.12,4.09,3.99,7.01,7.96,12.46,10.85,16.08h-34.32c4.16-5.29,10.45-14.57,15.37-27.39,.46-1.21,.09-2.58-.92-3.4-1.02-.83-2.44-.89-3.52-.19-.09,.06-9.12,5.82-17.51,5.83h0c-6.56,0-12.08-2.4-15.94-6.92-4.24-4.98-6.1-12.22-4.95-19.38,3.75-23.37,40.41-48.22,46.37-50.24,5.96,2.02,42.61,26.87,46.36,50.24,1.15,7.15-.7,14.4-4.94,19.38-3.86,4.53-9.38,6.93-15.94,6.93h0c-12.72,0-18.03-6.59-22.71-12.4-.57-.7-1.11-1.38-1.66-2.02-5.55-6.6-8.86-13.2-8.86-17.65,0-5.48,2.83-8.62,7.75-8.62s7.75,3.14,7.75,8.62c0,2.51-1.67,6.44-4.7,11.05-.91,1.38-.52,3.24,.86,4.16,1.4,.91,3.25,.52,4.16-.86,3.77-5.74,5.69-10.56,5.69-14.34,0-8.75-5.53-14.63-13.76-14.63s-13.76,5.88-13.76,14.63c0,8.08,6.43,16.95,10.26,21.51,.52,.61,1.04,1.26,1.58,1.93,4.98,6.18,11.8,14.63,27.39,14.64h0c8.38,0,15.47-3.12,20.51-9.03,1.11-1.3,2.08-2.73,2.93-4.24v-30.41c-11.16-23.58-43.82-44.92-48.92-44.92-5.84,0-47.91,28.04-52.29,55.35-1.42,8.87,.93,17.93,6.31,24.23,5.03,5.91,12.13,9.03,20.5,9.03h0c4.7,0,9.39-1.39,13.13-2.91-6.99,14.65-15.13,22.84-15.22,22.94-.86,.86-1.12,2.15-.66,3.27Zm26.73-173.56c-1.54-.6-3.29,.18-3.88,1.73-7.39,19.3-19.8,31.32-19.93,31.44-.89,.85-1.17,2.15-.71,3.29,.46,1.14,1.56,1.88,2.79,1.88h47.43c1.21,0,2.3-.72,2.77-1.84,.47-1.11,.22-2.4-.62-3.26-.1-.1-9.97-10.29-18.11-27.13-.72-1.49-2.53-2.1-4.01-1.4-1.5,.72-2.12,2.51-1.4,4.01,5.17,10.7,10.95,18.79,14.81,23.62h-34.1c4.62-5.55,11.66-15.37,16.68-28.46,.59-1.55-.18-3.28-1.73-3.88ZM399.31,7.25c0,7.85,12.36,38.76,35.94,54.4,.51,.34,1.09,.5,1.66,.5,.97,0,1.92-.47,2.5-1.34,.91-1.38,.54-3.24-.84-4.16-21.1-14-33.26-42.81-33.26-49.4,0-4.94,8.21-4.95,8.2,0,0,1.76-.72,4-1.44,5.45-.74,1.48-.13,3.29,1.36,4.02,1.48,.74,3.28,.13,4.02-1.36,1-2.01,2.06-5.2,2.06-8.11S418.24,1.73,416.16,0h-13.51c-2.07,1.73-3.35,4.29-3.35,7.25Zm278.54,412.13c1.48,.74,3.28,.13,4.02-1.36,1-2.01,2.06-5.2,2.06-8.11,0-5.47-4.34-9.6-10.1-9.6s-10.1,4.13-10.1,9.6c0,7.85,12.36,38.76,35.94,54.4,.51,.34,1.09,.5,1.66,.5,.97,0,1.92-.47,2.5-1.34,.91-1.38,.54-3.24-.84-4.16-21.1-14-33.26-42.81-33.26-49.4,0-4.94,8.21-4.95,8.2,0,0,1.76-.72,4-1.44,5.45-.74,1.48-.13,3.29,1.36,4.02Zm-51.91,57.67c11.82,0,32.89-24.36,43.47-38.76,.98-1.33,.7-3.21-.64-4.19-1.33-.98-3.21-.7-4.19,.64-14.72,20.02-32.06,36.31-38.64,36.31-2.48,0-3.6-2.13-3.6-4.1s1.13-4.1,3.6-4.1c1.43,0,2.84,.29,4.17,.85,1.53,.65,3.29-.06,3.94-1.59,.65-1.53-.06-3.29-1.59-3.94-2.08-.88-4.27-1.33-6.52-1.33-5.48,0-9.6,4.34-9.6,10.11s4.13,10.1,9.6,10.1Zm93.83-4.03c-1.44,0-2.84-.29-4.17-.85-1.52-.65-3.28,.06-3.94,1.58-.65,1.52,.06,3.29,1.58,3.94,2.07,.89,4.27,1.34,6.52,1.34,5.48,0,9.6-4.34,9.6-10.1s-4.13-10.1-9.6-10.1c-11.82,0-32.89,24.36-43.47,38.76-.98,1.33-.7,3.21,.64,4.19,.53,.39,1.16,.58,1.77,.58,.92,0,1.83-.42,2.42-1.22,14.72-20.02,32.06-36.31,38.64-36.31,2.48,0,3.6,2.13,3.6,4.1s-1.13,4.1-3.6,4.1Zm-51.91,43.46c-1.49-.74-3.28-.13-4.02,1.36-1,2.01-2.06,5.2-2.06,8.11,0,5.47,4.34,9.6,10.1,9.6s10.1-4.13,10.1-9.6c0-7.85-12.36-38.76-35.94-54.4-1.38-.92-3.24-.54-4.16,.84-.91,1.38-.54,3.24,.84,4.16,21.1,14,33.26,42.81,33.26,49.4,0,4.94-8.2,4.95-8.2,0,0-1.76,.72-4.01,1.44-5.45,.74-1.49,.13-3.29-1.36-4.02Zm58.76-211.86c-5.46-6.4-13.15-9.79-22.24-9.79h0c-9.28,0-17.35,2.79-23.34,8.06-1.24,1.09-1.37,2.99-.27,4.23,1.09,1.25,2.99,1.37,4.23,.27,4.95-4.36,11.47-6.57,19.38-6.57h0c7.28,0,13.39,2.66,17.67,7.68,4.7,5.51,6.74,13.53,5.48,21.44-4.09,25.5-44.83,53.27-51.04,55.25-6.21-1.98-46.95-29.75-51.04-55.25-1.27-7.92,.78-15.93,5.48-21.44,4.29-5.03,10.4-7.68,17.68-7.68h0c14.07,0,19.92,7.27,25.09,13.69,.62,.77,1.21,1.51,1.8,2.21,6.12,7.28,9.77,14.57,9.77,19.5,0,6.18-3.2,9.72-8.77,9.72s-8.77-3.54-8.77-9.72c0-2.81,1.84-7.16,5.19-12.25,.91-1.38,.52-3.24-.86-4.16-1.38-.91-3.24-.53-4.16,.86-4.1,6.24-6.18,11.47-6.18,15.55,0,9.41,5.94,15.72,14.78,15.72s14.78-6.32,14.78-15.72-7.81-19.36-11.17-23.36c-.56-.67-1.13-1.38-1.72-2.11-5.41-6.72-12.82-15.92-29.76-15.92h0c-9.09,0-16.78,3.39-22.24,9.79-5.82,6.83-8.38,16.66-6.84,26.29,4.78,29.78,50.6,60.35,56.96,60.35s52.19-30.58,56.96-60.35c1.54-9.63-1.01-19.46-6.83-26.29Zm-314.54,220.86c6.37,0,52.19-30.58,56.96-60.36,1.54-9.63-1.01-19.46-6.83-26.29-5.46-6.4-13.15-9.79-22.24-9.79h0c-9.28,0-17.35,2.79-23.34,8.06-1.24,1.09-1.37,2.99-.27,4.23,1.09,1.25,2.99,1.37,4.23,.27,4.95-4.36,11.47-6.57,19.38-6.57h0c7.28,0,13.39,2.66,17.67,7.68,4.7,5.51,6.74,13.53,5.48,21.44-4.09,25.5-44.83,53.27-51.04,55.25-6.21-1.98-46.95-29.75-51.04-55.25-1.27-7.92,.78-15.93,5.48-21.44,4.29-5.03,10.4-7.68,17.68-7.68h0c14.07,0,19.92,7.27,25.09,13.69,.62,.77,1.21,1.51,1.8,2.21,6.12,7.28,9.77,14.57,9.77,19.5,0,6.18-3.2,9.72-8.77,9.72s-8.77-3.54-8.77-9.72c0-2.81,1.84-7.16,5.19-12.25,.91-1.38,.52-3.24-.86-4.16-1.38-.91-3.24-.53-4.16,.86-4.1,6.24-6.18,11.47-6.18,15.55,0,9.41,5.94,15.72,14.78,15.72s14.78-6.32,14.78-15.72-7.81-19.36-11.17-23.36c-.56-.67-1.13-1.38-1.72-2.11-5.41-6.72-12.82-15.92-29.76-15.92h0c-9.09,0-16.78,3.39-22.24,9.79-5.82,6.83-8.38,16.66-6.84,26.29,4.78,29.78,50.6,60.36,56.96,60.36Zm130-52.72c.54,.41,1.18,.6,1.81,.6,.91,0,1.81-.41,2.4-1.19,8.88-11.77,13.31-21.13,13.18-27.82-.25-12.26-9.88-21.86-21.92-21.86s-21.92,9.83-21.92,21.92c0,4.47,1.7,9.91,5.05,16.17,.78,1.46,2.59,2.02,4.06,1.23,1.46-.78,2.01-2.6,1.23-4.06-2.88-5.38-4.34-9.87-4.34-13.34,0-8.78,7.14-15.92,15.92-15.92s15.74,7.02,15.92,15.98c.11,5.16-4.15,13.71-11.97,24.08-1,1.32-.74,3.2,.59,4.2Zm53.4,7.29c0-12.09-9.83-21.92-21.92-21.92-4.89,0-10.44,1.46-16.5,4.32-1.5,.71-2.14,2.5-1.42,4,.71,1.5,2.52,2.14,3.99,1.43,5.25-2.49,9.93-3.75,13.93-3.75,8.78,0,15.92,7.14,15.92,15.92s-7.14,15.92-15.92,15.92c-7.39,0-19.75-8.85-27.93-14.71-2.44-1.75-4.63-3.32-6.45-4.5l-3.1-2.04c-9.98-6.6-25.06-16.59-34.55-16.59-12.09,0-21.92,9.83-21.92,21.92s9.84,21.92,21.92,21.92c6.1,0,14.59-3.11,23.28-8.54,1.41-.88,1.83-2.73,.96-4.14-.87-1.4-2.72-1.84-4.14-.96-7.66,4.78-15.17,7.63-20.1,7.63-8.78,0-15.92-7.14-15.92-15.92s7.14-15.92,15.92-15.92c7.68,0,22.43,9.76,31.24,15.59l3.13,2.07c1.75,1.14,3.88,2.67,6.23,4.36,9.33,6.68,22.1,15.83,31.42,15.83,12.09,0,21.92-9.83,21.92-21.92Zm-59.92,7.1c-1.54-.6-3.29,.18-3.88,1.73-7.39,19.3-19.8,31.32-19.93,31.44-.89,.85-1.17,2.15-.71,3.29,.46,1.14,1.56,1.88,2.79,1.88h47.43c1.21,0,2.3-.72,2.77-1.84,.47-1.11,.22-2.4-.62-3.26-.1-.1-9.97-10.29-18.11-27.13-.72-1.49-2.53-2.1-4.01-1.4-1.5,.72-2.12,2.51-1.4,4.01,5.17,10.7,10.95,18.79,14.81,23.62h-34.1c4.62-5.55,11.66-15.37,16.68-28.46,.59-1.55-.18-3.28-1.73-3.88Zm-257.89-148.6c.54,.41,1.18,.6,1.81,.6,.91,0,1.81-.41,2.4-1.19,8.88-11.77,13.31-21.13,13.18-27.82-.25-12.26-9.88-21.86-21.92-21.86s-21.92,9.83-21.92,21.92c0,4.47,1.7,9.91,5.05,16.17,.78,1.46,2.59,2.02,4.06,1.23,1.46-.78,2.01-2.6,1.23-4.06-2.88-5.38-4.34-9.87-4.34-13.34,0-8.78,7.14-15.92,15.92-15.92s15.74,7.02,15.92,15.98c.11,5.16-4.15,13.71-11.97,24.08-1,1.32-.74,3.2,.59,4.2Zm31.48-14.63c-4.89,0-10.44,1.46-16.5,4.32-1.5,.71-2.14,2.5-1.42,4,.71,1.5,2.52,2.14,3.99,1.43,5.25-2.49,9.93-3.75,13.93-3.75,8.78,0,15.92,7.14,15.92,15.92s-7.14,15.92-15.92,15.92c-7.39,0-19.75-8.85-27.93-14.71-2.44-1.75-4.63-3.32-6.45-4.5l-3.1-2.04c-9.98-6.6-25.06-16.59-34.55-16.59-12.09,0-21.92,9.83-21.92,21.92s9.84,21.92,21.92,21.92c6.1,0,14.59-3.11,23.28-8.54,1.41-.88,1.83-2.73,.96-4.14-.87-1.4-2.72-1.84-4.14-.96-7.66,4.78-15.17,7.63-20.1,7.63-8.78,0-15.92-7.14-15.92-15.92s7.14-15.92,15.92-15.92c7.68,0,22.43,9.76,31.24,15.59l3.13,2.07c1.75,1.14,3.88,2.67,6.23,4.36,9.33,6.68,22.1,15.83,31.42,15.83,12.09,0,21.92-9.83,21.92-21.92s-9.83-21.92-21.92-21.92Zm-32.59,156.41c1.4,.91,3.25,.52,4.16-.86,3.77-5.74,5.69-10.56,5.69-14.34,0-8.75-5.53-14.63-13.76-14.63s-13.76,5.88-13.76,14.63c0,8.08,6.43,16.95,10.26,21.51,.52,.61,1.04,1.26,1.58,1.93,4.98,6.18,11.8,14.63,27.39,14.64h0c8.38,0,15.47-3.12,20.51-9.03,5.37-6.3,7.72-15.35,6.3-24.22-4.38-27.31-46.44-55.35-52.29-55.35s-47.91,28.04-52.29,55.35c-1.42,8.87,.93,17.93,6.31,24.23,5.03,5.91,12.13,9.03,20.5,9.03h0c4.7,0,9.39-1.39,13.13-2.91-6.99,14.65-15.13,22.84-15.22,22.94-.86,.86-1.12,2.15-.66,3.27,.46,1.13,1.56,1.86,2.77,1.86h47.43c1.21,0,2.3-.72,2.77-1.83s.22-2.4-.62-3.26c-.07-.07-7.23-7.48-14.33-19.95-.81-1.44-2.64-1.95-4.09-1.12-1.44,.82-1.94,2.65-1.12,4.09,3.99,7.01,7.96,12.46,10.85,16.08h-34.32c4.16-5.29,10.45-14.57,15.37-27.39,.46-1.21,.09-2.58-.92-3.4-1.02-.83-2.44-.89-3.52-.19-.09,.06-9.12,5.82-17.51,5.83h0c-6.56,0-12.08-2.4-15.94-6.92-4.24-4.98-6.1-12.22-4.95-19.38,3.75-23.37,40.41-48.22,46.37-50.24,5.96,2.02,42.61,26.87,46.36,50.24,1.15,7.15-.7,14.4-4.94,19.38-3.86,4.53-9.38,6.93-15.94,6.93h0c-12.72,0-18.03-6.59-22.71-12.4-.57-.7-1.11-1.38-1.66-2.02-5.55-6.6-8.86-13.2-8.86-17.65,0-5.48,2.83-8.62,7.75-8.62s7.75,3.14,7.75,8.62c0,2.51-1.67,6.44-4.7,11.05-.91,1.38-.52,3.24,.86,4.16Zm-5.41-127.39c-1.54-.6-3.29,.18-3.88,1.73-7.39,19.3-19.8,31.32-19.93,31.44-.89,.85-1.17,2.15-.71,3.29,.46,1.14,1.56,1.88,2.79,1.88h47.43c1.21,0,2.3-.72,2.77-1.84,.47-1.11,.22-2.4-.62-3.26-.1-.1-9.97-10.29-18.11-27.13-.72-1.49-2.53-2.1-4.01-1.4-1.5,.72-2.12,2.51-1.4,4.01,5.17,10.7,10.95,18.79,14.81,23.62h-34.1c4.62-5.55,11.66-15.37,16.68-28.46,.59-1.55-.18-3.28-1.73-3.88Zm406.68-201.98c1.48,.74,3.28,.13,4.02-1.36,1-2.01,2.06-5.2,2.06-8.11,0-5.47-4.34-9.6-10.1-9.6s-10.1,4.13-10.1,9.6c0,7.85,12.36,38.76,35.94,54.4,.51,.34,1.09,.5,1.66,.5,.97,0,1.92-.47,2.5-1.34,.91-1.38,.54-3.24-.84-4.16-21.1-14-33.26-42.81-33.26-49.4,0-4.94,8.21-4.95,8.2,0,0,1.76-.72,4-1.44,5.45-.74,1.48-.13,3.29,1.36,4.02Zm-51.91,43.46c1.43,0,2.84,.29,4.17,.85,1.53,.65,3.29-.06,3.94-1.59,.65-1.53-.06-3.29-1.59-3.94-2.08-.88-4.27-1.33-6.52-1.33-5.48,0-9.6,4.34-9.6,10.11s4.13,10.1,9.6,10.1c11.82,0,32.89-24.36,43.47-38.76,.98-1.33,.7-3.21-.64-4.19-1.33-.98-3.21-.7-4.19,.64-14.72,20.02-32.06,36.31-38.64,36.31-2.48,0-3.6-2.13-3.6-4.1s1.13-4.1,3.6-4.1Zm93.83,10.18c-1.44,0-2.84-.29-4.17-.85-1.52-.65-3.28,.06-3.94,1.58-.65,1.52,.06,3.29,1.58,3.94,2.07,.89,4.27,1.34,6.52,1.34,5.48,0,9.6-4.34,9.6-10.1s-4.13-10.1-9.6-10.1c-11.82,0-32.89,24.36-43.47,38.76-.98,1.33-.7,3.21,.64,4.19,.53,.39,1.16,.58,1.77,.58,.92,0,1.83-.42,2.42-1.22,14.72-20.02,32.06-36.31,38.64-36.31,2.48,0,3.6,2.13,3.6,4.1s-1.13,4.1-3.6,4.1Zm-51.91,43.46c-1.49-.74-3.28-.13-4.02,1.36-1,2.01-2.06,5.2-2.06,8.11,0,5.47,4.34,9.6,10.1,9.6s10.1-4.13,10.1-9.6c0-7.85-12.36-38.76-35.94-54.4-1.38-.92-3.24-.54-4.16,.84-.91,1.38-.54,3.24,.84,4.16,21.1,14,33.26,42.81,33.26,49.4,0,4.94-8.2,4.95-8.2,0,0-1.76,.72-4.01,1.44-5.45,.74-1.49,.13-3.29-1.36-4.02Zm58.76-211.86c-5.46-6.4-13.15-9.79-22.24-9.79h0c-9.28,0-17.35,2.79-23.34,8.06-1.24,1.09-1.37,2.99-.27,4.23,1.09,1.25,2.99,1.37,4.23,.27,4.95-4.36,11.47-6.57,19.38-6.57h0c7.28,0,13.39,2.66,17.67,7.68,4.7,5.51,6.74,13.53,5.48,21.44-4.09,25.5-44.83,53.27-51.04,55.25-6.21-1.98-46.95-29.75-51.04-55.25-1.27-7.92,.78-15.93,5.48-21.44,4.29-5.03,10.4-7.68,17.68-7.68h0c14.07,0,19.92,7.27,25.09,13.69,.62,.77,1.21,1.51,1.8,2.21,6.12,7.28,9.77,14.57,9.77,19.5,0,6.18-3.2,9.72-8.77,9.72s-8.77-3.54-8.77-9.72c0-2.81,1.84-7.16,5.19-12.25,.91-1.38,.52-3.24-.86-4.16-1.38-.91-3.24-.53-4.16,.86-4.1,6.24-6.18,11.47-6.18,15.55,0,9.41,5.94,15.72,14.78,15.72s14.78-6.32,14.78-15.72-7.81-19.36-11.17-23.36c-.56-.67-1.13-1.38-1.72-2.11-5.41-6.72-12.82-15.92-29.76-15.92h0c-9.09,0-16.78,3.39-22.24,9.79-5.82,6.83-8.38,16.66-6.84,26.29,4.78,29.78,50.6,60.35,56.96,60.35s52.19-30.58,56.96-60.35c1.54-9.63-1.01-19.46-6.83-26.29Zm-313.19,248.98c1.48,.74,3.28,.13,4.02-1.36,1-2.01,2.06-5.2,2.06-8.11,0-5.47-4.34-9.6-10.1-9.6s-10.1,4.13-10.1,9.6c0,7.85,12.36,38.76,35.94,54.4,.51,.34,1.09,.5,1.66,.5,.97,0,1.92-.47,2.5-1.34,.91-1.38,.54-3.24-.84-4.16-21.1-14-33.26-42.81-33.26-49.4,0-4.94,8.21-4.95,8.2,0,0,1.76-.72,4-1.44,5.45-.74,1.48-.13,3.29,1.36,4.02Zm-51.91,43.46c1.43,0,2.84,.29,4.17,.85,1.53,.65,3.29-.06,3.94-1.59,.65-1.53-.06-3.29-1.59-3.94-2.08-.88-4.27-1.33-6.52-1.33-5.48,0-9.6,4.34-9.6,10.11s4.13,10.1,9.6,10.1c11.82,0,32.89-24.36,43.47-38.76,.98-1.33,.7-3.21-.64-4.19-1.33-.98-3.21-.7-4.19,.64-14.72,20.02-32.06,36.31-38.64,36.31-2.48,0-3.6-2.13-3.6-4.1s1.13-4.1,3.6-4.1Zm93.83,10.18c-1.44,0-2.84-.29-4.17-.85-1.52-.65-3.28,.06-3.94,1.58-.65,1.52,.06,3.29,1.58,3.94,2.07,.89,4.27,1.34,6.52,1.34,5.48,0,9.6-4.34,9.6-10.1s-4.13-10.1-9.6-10.1c-11.82,0-32.89,24.36-43.47,38.76-.98,1.33-.7,3.21,.64,4.19,.53,.39,1.16,.58,1.77,.58,.92,0,1.83-.42,2.42-1.22,14.72-20.02,32.06-36.31,38.64-36.31,2.48,0,3.6,2.13,3.6,4.1s-1.13,4.1-3.6,4.1Zm-51.91,43.46c-1.49-.74-3.28-.13-4.02,1.36-1,2.01-2.06,5.2-2.06,8.11,0,5.47,4.34,9.6,10.1,9.6s10.1-4.13,10.1-9.6c0-7.85-12.36-38.76-35.94-54.4-1.38-.92-3.24-.54-4.16,.84-.91,1.38-.54,3.24,.84,4.16,21.1,14,33.26,42.81,33.26,49.4,0,4.94-8.2,4.95-8.2,0,0-1.76,.72-4.01,1.44-5.45,.74-1.49,.13-3.29-1.36-4.02Zm58.76-211.86c-5.46-6.4-13.15-9.79-22.24-9.79h0c-9.28,0-17.35,2.79-23.34,8.06-1.24,1.09-1.37,2.99-.27,4.23,1.09,1.25,2.99,1.37,4.23,.27,4.95-4.36,11.47-6.57,19.38-6.57h0c7.28,0,13.39,2.66,17.67,7.68,4.7,5.51,6.74,13.53,5.48,21.44-4.09,25.5-44.83,53.27-51.04,55.25-6.21-1.98-46.95-29.75-51.04-55.25-1.27-7.92,.78-15.93,5.48-21.44,4.29-5.03,10.4-7.68,17.68-7.68h0c14.07,0,19.92,7.27,25.09,13.69,.62,.77,1.21,1.51,1.8,2.21,6.12,7.28,9.77,14.57,9.77,19.5,0,6.18-3.2,9.72-8.77,9.72s-8.77-3.54-8.77-9.72c0-2.81,1.84-7.16,5.19-12.25,.91-1.38,.52-3.24-.86-4.16-1.38-.91-3.24-.53-4.16,.86-4.1,6.24-6.18,11.47-6.18,15.55,0,9.41,5.94,15.72,14.78,15.72s14.78-6.32,14.78-15.72-7.81-19.36-11.17-23.36c-.56-.67-1.13-1.38-1.72-2.11-5.41-6.72-12.82-15.92-29.76-15.92h0c-9.09,0-16.78,3.39-22.24,9.79-5.82,6.83-8.38,16.66-6.84,26.29,4.78,29.78,50.6,60.36,56.96,60.36s52.19-30.58,56.96-60.36c1.54-9.63-1.01-19.46-6.83-26.29Zm79.87,33.92c.54,.41,1.18,.6,1.81,.6,.91,0,1.81-.41,2.4-1.19,8.88-11.77,13.31-21.13,13.18-27.82-.25-12.26-9.88-21.86-21.92-21.86s-21.92,9.83-21.92,21.92c0,4.47,1.7,9.91,5.05,16.17,.78,1.46,2.59,2.02,4.06,1.23,1.46-.78,2.01-2.6,1.23-4.06-2.88-5.38-4.34-9.87-4.34-13.34,0-8.78,7.14-15.92,15.92-15.92s15.74,7.02,15.92,15.98c.11,5.16-4.15,13.71-11.97,24.08-1,1.32-.74,3.2,.59,4.2Zm31.48-14.63c-4.89,0-10.44,1.46-16.5,4.32-1.5,.71-2.14,2.5-1.42,4,.71,1.5,2.52,2.14,3.99,1.43,5.25-2.49,9.93-3.75,13.93-3.75,8.78,0,15.92,7.14,15.92,15.92s-7.14,15.92-15.92,15.92c-7.39,0-19.75-8.85-27.93-14.71-2.44-1.75-4.63-3.32-6.45-4.5l-3.1-2.04c-9.98-6.6-25.06-16.59-34.55-16.59-12.09,0-21.92,9.83-21.92,21.92s9.84,21.92,21.92,21.92c6.1,0,14.59-3.11,23.28-8.54,1.41-.88,1.83-2.73,.96-4.14-.87-1.4-2.72-1.84-4.14-.96-7.66,4.78-15.17,7.63-20.1,7.63-8.78,0-15.92-7.14-15.92-15.92s7.14-15.92,15.92-15.92c7.68,0,22.43,9.76,31.24,15.59l3.13,2.07c1.75,1.14,3.88,2.67,6.23,4.36,9.33,6.68,22.1,15.83,31.42,15.83,12.09,0,21.92-9.83,21.92-21.92s-9.83-21.92-21.92-21.92Zm-88.79,146.02c-1.42,8.87,.93,17.93,6.31,24.23,5.03,5.91,12.13,9.03,20.5,9.03h0c4.7,0,9.39-1.39,13.13-2.91-6.99,14.65-15.13,22.84-15.22,22.94-.86,.86-1.12,2.15-.66,3.27,.46,1.13,1.56,1.86,2.77,1.86h47.43c1.21,0,2.3-.72,2.77-1.83s.22-2.4-.62-3.26c-.07-.07-7.23-7.48-14.33-19.95-.81-1.44-2.64-1.95-4.09-1.12-1.44,.82-1.94,2.65-1.12,4.09,3.99,7.01,7.96,12.46,10.85,16.08h-34.32c4.16-5.29,10.45-14.57,15.37-27.39,.46-1.21,.09-2.58-.92-3.4-1.02-.83-2.44-.89-3.52-.19-.09,.06-9.12,5.82-17.51,5.83h0c-6.56,0-12.08-2.4-15.94-6.92-4.24-4.98-6.1-12.22-4.95-19.38,3.75-23.37,40.41-48.22,46.37-50.24,5.96,2.02,42.61,26.87,46.36,50.24,1.15,7.15-.7,14.4-4.94,19.38-3.86,4.53-9.38,6.93-15.94,6.93h0c-12.72,0-18.03-6.59-22.71-12.4-.57-.7-1.11-1.38-1.66-2.02-5.55-6.6-8.86-13.2-8.86-17.65,0-5.48,2.83-8.62,7.75-8.62s7.75,3.14,7.75,8.62c0,2.51-1.67,6.44-4.7,11.05-.91,1.38-.52,3.24,.86,4.16,1.4,.91,3.25,.52,4.16-.86,3.77-5.74,5.69-10.56,5.69-14.34,0-8.75-5.53-14.63-13.76-14.63s-13.76,5.88-13.76,14.63c0,8.08,6.43,16.95,10.26,21.51,.52,.61,1.04,1.26,1.58,1.93,4.98,6.18,11.8,14.63,27.39,14.64h0c8.38,0,15.47-3.12,20.51-9.03,5.37-6.3,7.72-15.35,6.3-24.22-4.38-27.31-46.44-55.35-52.29-55.35s-47.91,28.04-52.29,55.35Zm50.79-117c-1.54-.6-3.29,.18-3.88,1.73-7.39,19.3-19.8,31.32-19.93,31.44-.89,.85-1.17,2.15-.71,3.29,.46,1.14,1.56,1.88,2.79,1.88h47.43c1.21,0,2.3-.72,2.77-1.84,.47-1.11,.22-2.4-.62-3.26-.1-.1-9.97-10.29-18.11-27.13-.72-1.49-2.53-2.1-4.01-1.4-1.5,.72-2.12,2.51-1.4,4.01,5.17,10.7,10.95,18.79,14.81,23.62h-34.1c4.62-5.55,11.66-15.37,16.68-28.46,.59-1.55-.18-3.28-1.73-3.88ZM277.68,70.1c.54,.41,1.18,.6,1.81,.6,.91,0,1.81-.41,2.4-1.19,8.88-11.77,13.31-21.13,13.18-27.82-.25-12.26-9.88-21.86-21.92-21.86s-21.92,9.83-21.92,21.92c0,4.47,1.7,9.91,5.05,16.17,.78,1.46,2.59,2.02,4.06,1.23,1.46-.78,2.01-2.6,1.23-4.06-2.88-5.38-4.34-9.87-4.34-13.34,0-8.78,7.14-15.92,15.92-15.92s15.74,7.02,15.92,15.98c.11,5.16-4.15,13.71-11.97,24.08-1,1.32-.74,3.2,.59,4.2Zm31.48-14.63c-4.89,0-10.44,1.46-16.5,4.32-1.5,.71-2.14,2.5-1.42,4,.71,1.5,2.52,2.14,3.99,1.43,5.25-2.49,9.93-3.75,13.93-3.75,8.78,0,15.92,7.14,15.92,15.92s-7.14,15.92-15.92,15.92c-7.39,0-19.75-8.85-27.93-14.71-2.44-1.75-4.63-3.32-6.45-4.5l-3.1-2.04c-9.98-6.6-25.06-16.59-34.55-16.59-12.09,0-21.92,9.83-21.92,21.92s9.84,21.92,21.92,21.92c6.1,0,14.59-3.11,23.28-8.54,1.41-.88,1.83-2.73,.96-4.14-.87-1.4-2.72-1.84-4.14-.96-7.66,4.78-15.17,7.63-20.1,7.63-8.78,0-15.92-7.14-15.92-15.92s7.14-15.92,15.92-15.92c7.68,0,22.43,9.76,31.24,15.59l3.13,2.07c1.75,1.14,3.88,2.67,6.23,4.36,9.33,6.68,22.1,15.83,31.42,15.83,12.09,0,21.92-9.83,21.92-21.92s-9.83-21.92-21.92-21.92Zm-88.79,146.02c-1.42,8.87,.93,17.93,6.31,24.23,5.03,5.91,12.13,9.03,20.5,9.03h0c4.7,0,9.39-1.39,13.13-2.91-6.99,14.65-15.13,22.84-15.22,22.94-.86,.86-1.12,2.15-.66,3.27,.46,1.13,1.56,1.86,2.77,1.86h47.43c1.21,0,2.3-.72,2.77-1.83s.22-2.4-.62-3.26c-.07-.07-7.23-7.48-14.33-19.95-.81-1.44-2.64-1.95-4.09-1.12-1.44,.82-1.94,2.65-1.12,4.09,3.99,7.01,7.96,12.46,10.85,16.08h-34.32c4.16-5.29,10.45-14.57,15.37-27.39,.46-1.21,.09-2.58-.92-3.4-1.02-.83-2.44-.89-3.52-.19-.09,.06-9.12,5.82-17.51,5.83h0c-6.56,0-12.08-2.4-15.94-6.92-4.24-4.98-6.1-12.22-4.95-19.38,3.75-23.37,40.41-48.22,46.37-50.24,5.96,2.02,42.61,26.87,46.36,50.24,1.15,7.15-.7,14.4-4.94,19.38-3.86,4.53-9.38,6.93-15.94,6.93h0c-12.72,0-18.03-6.59-22.71-12.4-.57-.7-1.11-1.38-1.66-2.02-5.55-6.6-8.86-13.2-8.86-17.65,0-5.48,2.83-8.62,7.75-8.62s7.75,3.14,7.75,8.62c0,2.51-1.67,6.44-4.7,11.05-.91,1.38-.52,3.24,.86,4.16,1.4,.91,3.25,.52,4.16-.86,3.77-5.74,5.69-10.56,5.69-14.34,0-8.75-5.53-14.63-13.76-14.63s-13.76,5.88-13.76,14.63c0,8.08,6.43,16.95,10.26,21.51,.52,.61,1.04,1.26,1.58,1.93,4.98,6.18,11.8,14.63,27.39,14.64h0c8.38,0,15.47-3.12,20.51-9.03,5.37-6.3,7.72-15.35,6.3-24.22-4.38-27.31-46.44-55.35-52.29-55.35s-47.91,28.04-52.29,55.35Zm50.79-117c-1.54-.6-3.29,.18-3.88,1.73-7.39,19.3-19.8,31.32-19.93,31.44-.89,.85-1.17,2.15-.71,3.29,.46,1.14,1.56,1.88,2.79,1.88h47.43c1.21,0,2.3-.72,2.77-1.84,.47-1.11,.22-2.4-.62-3.26-.1-.1-9.97-10.29-18.11-27.13-.72-1.49-2.53-2.1-4.01-1.4-1.5,.72-2.12,2.51-1.4,4.01,5.17,10.7,10.95,18.79,14.81,23.62h-34.1c4.62-5.55,11.66-15.37,16.68-28.46,.59-1.55-.18-3.28-1.73-3.88ZM404.36,31.43c-1.33-.98-3.21-.7-4.19,.64-14.72,20.02-32.06,36.31-38.64,36.31-2.48,0-3.6-2.13-3.6-4.1s1.13-4.1,3.6-4.1c1.43,0,2.84,.29,4.17,.85,1.53,.65,3.29-.06,3.94-1.59,.65-1.53-.06-3.29-1.59-3.94-2.08-.88-4.27-1.33-6.52-1.33-5.48,0-9.6,4.34-9.6,10.11s4.13,10.1,9.6,10.1c11.82,0,32.89-24.36,43.47-38.76,.98-1.33,.7-3.21-.64-4.19Zm7.53,63.48c-.98,1.33-.7,3.21,.64,4.19,.53,.39,1.16,.58,1.77,.58,.92,0,1.83-.42,2.42-1.22,14.72-20.02,32.06-36.31,38.64-36.31,2.48,0,3.6,2.13,3.6,4.1s-1.13,4.1-3.6,4.1c-1.44,0-2.84-.29-4.17-.85-1.52-.65-3.28,.06-3.94,1.58-.65,1.52,.06,3.29,1.58,3.94,2.07,.89,4.27,1.34,6.52,1.34,5.48,0,9.6-4.34,9.6-10.1s-4.13-10.1-9.6-10.1c-11.82,0-32.89,24.36-43.47,38.76Zm-30.25-26.03c-1.38-.92-3.24-.54-4.16,.84-.91,1.38-.54,3.24,.84,4.16,21.1,14,33.26,42.81,33.26,49.4,0,4.94-8.2,4.95-8.2,0,0-1.76,.72-4.01,1.44-5.45,.74-1.49,.13-3.29-1.36-4.02-1.49-.74-3.28-.13-4.02,1.36-1,2.01-2.06,5.2-2.06,8.11,0,5.47,4.34,9.6,10.1,9.6s10.1-4.13,10.1-9.6c0-7.85-12.36-38.76-35.94-54.4Zm159.35,8.77c1.4,.91,3.25,.52,4.16-.86,3.77-5.74,5.69-10.56,5.69-14.34,0-8.75-5.53-14.63-13.76-14.63s-13.76,5.88-13.76,14.63c0,8.08,6.43,16.95,10.26,21.51,.52,.61,1.04,1.26,1.58,1.93,4.98,6.18,11.8,14.63,27.39,14.64h0c8.38,0,15.47-3.12,20.51-9.03,5.37-6.3,7.72-15.35,6.3-24.22-4.38-27.31-46.44-55.35-52.29-55.35s-47.91,28.04-52.29,55.35c-1.42,8.87,.93,17.93,6.31,24.23,5.03,5.91,12.13,9.03,20.5,9.03h0c4.7,0,9.39-1.39,13.13-2.91-6.99,14.65-15.13,22.84-15.22,22.94-.86,.86-1.12,2.15-.66,3.27,.46,1.13,1.56,1.86,2.77,1.86h47.43c1.21,0,2.3-.72,2.77-1.83s.22-2.4-.62-3.26c-.07-.07-7.23-7.48-14.33-19.95-.81-1.44-2.64-1.95-4.09-1.12-1.44,.82-1.94,2.65-1.12,4.09,3.99,7.01,7.96,12.46,10.85,16.08h-34.32c4.16-5.29,10.45-14.57,15.37-27.39,.46-1.21,.09-2.58-.92-3.4-1.02-.83-2.44-.89-3.52-.19-.09,.06-9.12,5.82-17.51,5.83h0c-6.56,0-12.08-2.4-15.94-6.92-4.24-4.98-6.1-12.22-4.95-19.38,3.75-23.37,40.41-48.22,46.37-50.24,5.96,2.02,42.61,26.87,46.36,50.24,1.15,7.15-.7,14.4-4.94,19.38-3.86,4.53-9.38,6.93-15.94,6.93h0c-12.72,0-18.03-6.59-22.71-12.4-.57-.7-1.11-1.38-1.66-2.02-5.55-6.6-8.86-13.2-8.86-17.65,0-5.48,2.83-8.62,7.75-8.62s7.75,3.14,7.75,8.62c0,2.51-1.67,6.44-4.7,11.05-.91,1.38-.52,3.24,.86,4.16Zm137.39,769.96c-5.41-6.72-12.82-15.92-29.76-15.92h0c-9.09,0-16.78,3.39-22.24,9.79-2.21,2.59-3.95,5.62-5.17,8.91h6.51c.87-1.82,1.95-3.51,3.23-5.01,4.29-5.03,10.4-7.68,17.68-7.68h0c13.35,0,19.3,6.55,24.29,12.7h7.75c-.19-.23-.38-.46-.55-.66-.56-.67-1.13-1.38-1.72-2.11Zm26.01-15.92h0c-9.28,0-17.35,2.79-23.34,8.06-1.24,1.09-1.37,2.99-.27,4.23,1.09,1.25,2.99,1.37,4.23,.27,4.95-4.36,11.47-6.57,19.38-6.57h0c7.28,0,13.39,2.66,17.67,7.68,1.28,1.5,2.36,3.19,3.23,5.01h6.51c-1.22-3.28-2.96-6.31-5.17-8.91-5.46-6.4-13.15-9.79-22.24-9.79Zm-447.16,15.36c0-8.78,7.14-15.92,15.92-15.92s15.74,7.02,15.92,15.98c.02,.97-.12,2.07-.4,3.27h6.11c.21-1.2,.32-2.33,.29-3.4-.25-12.26-9.88-21.86-21.92-21.86s-21.92,9.83-21.92,21.92c0,1.06,.1,2.17,.29,3.33h6.1c-.25-1.19-.39-2.31-.39-3.33Zm420.62-159.25c1.48,.74,3.28,.13,4.02-1.36,1-2.01,2.06-5.2,2.06-8.11,0-5.47-4.34-9.6-10.1-9.6s-10.1,4.13-10.1,9.6c0,7.85,12.36,38.76,35.94,54.4,.51,.34,1.09,.5,1.66,.5,.97,0,1.92-.47,2.5-1.34,.91-1.38,.54-3.24-.84-4.16-21.1-14-33.26-42.81-33.26-49.4,0-4.94,8.21-4.95,8.2,0,0,1.76-.72,4-1.44,5.45-.74,1.48-.13,3.29,1.36,4.02Zm-51.91,43.46c1.43,0,2.84,.29,4.17,.85,1.53,.65,3.29-.06,3.94-1.59,.65-1.53-.06-3.29-1.59-3.94-2.08-.88-4.27-1.33-6.52-1.33-5.48,0-9.6,4.34-9.6,10.11s4.13,10.1,9.6,10.1c11.82,0,32.89-24.36,43.47-38.76,.98-1.33,.7-3.21-.64-4.19-1.33-.98-3.21-.7-4.19,.64-14.72,20.02-32.06,36.31-38.64,36.31-2.48,0-3.6-2.13-3.6-4.1s1.13-4.1,3.6-4.1Zm93.83,10.18c-1.44,0-2.84-.29-4.17-.85-1.52-.65-3.28,.06-3.94,1.58-.65,1.52,.06,3.29,1.58,3.94,2.07,.89,4.27,1.34,6.52,1.34,5.48,0,9.6-4.34,9.6-10.1s-4.13-10.1-9.6-10.1c-11.82,0-32.89,24.36-43.47,38.76-.98,1.33-.7,3.21,.64,4.19,.53,.39,1.16,.58,1.77,.58,.92,0,1.83-.42,2.42-1.22,14.72-20.02,32.06-36.31,38.64-36.31,2.48,0,3.6,2.13,3.6,4.1s-1.13,4.1-3.6,4.1Zm-73.72-1.47c-1.38-.92-3.24-.54-4.16,.84-.91,1.38-.54,3.24,.84,4.16,21.1,14,33.26,42.81,33.26,49.4,0,4.94-8.2,4.95-8.2,0,0-1.76,.72-4.01,1.44-5.45,.74-1.49,.13-3.29-1.36-4.02-1.49-.74-3.28-.13-4.02,1.36-1,2.01-2.06,5.2-2.06,8.11,0,5.47,4.34,9.6,10.1,9.6s10.1-4.13,10.1-9.6c0-7.85-12.36-38.76-35.94-54.4Zm80.58-166.93c-5.46-6.4-13.15-9.79-22.24-9.79h0c-9.28,0-17.35,2.79-23.34,8.06-1.24,1.09-1.37,2.99-.27,4.23,1.09,1.25,2.99,1.37,4.23,.27,4.95-4.36,11.47-6.57,19.38-6.57h0c7.28,0,13.39,2.66,17.67,7.68,4.7,5.51,6.74,13.53,5.48,21.44-4.09,25.5-44.83,53.27-51.04,55.25-6.21-1.98-46.95-29.75-51.04-55.25-1.27-7.92,.78-15.93,5.48-21.44,4.29-5.03,10.4-7.68,17.68-7.68h0c14.07,0,19.92,7.27,25.09,13.69,.62,.77,1.21,1.51,1.8,2.21,6.12,7.28,9.77,14.57,9.77,19.5,0,6.18-3.2,9.72-8.77,9.72s-8.77-3.54-8.77-9.72c0-2.81,1.84-7.16,5.19-12.25,.91-1.38,.52-3.24-.86-4.16-1.38-.91-3.24-.53-4.16,.86-4.1,6.24-6.18,11.47-6.18,15.55,0,9.41,5.94,15.72,14.78,15.72s14.78-6.32,14.78-15.72-7.81-19.36-11.17-23.36c-.56-.67-1.13-1.38-1.72-2.11-5.41-6.72-12.82-15.92-29.76-15.92h0c-9.09,0-16.78,3.39-22.24,9.79-5.82,6.83-8.38,16.66-6.84,26.29,4.78,29.78,50.6,60.35,56.96,60.35s52.19-30.58,56.96-60.35c1.54-9.63-1.01-19.46-6.83-26.29Zm-313.11,239.51c0,1.76-.72,4-1.44,5.45-.74,1.48-.13,3.29,1.36,4.02,1.48,.74,3.28,.13,4.02-1.36,1-2.01,2.06-5.2,2.06-8.11,0-5.47-4.34-9.6-10.1-9.6s-10.1,4.13-10.1,9.6,6.23,22.74,18.26,37.83h7.9c-12.95-14.52-20.16-32.76-20.16-37.83,0-4.94,8.21-4.95,8.2,0Zm-9.15,24.18c-1.33-.98-3.21-.7-4.19,.64-3.37,4.59-6.88,8.97-10.36,13.01h7.83c2.76-3.36,5.27-6.61,7.37-9.46,.98-1.33,.7-3.21-.64-4.19Zm3.28-114.28c-1.38-.91-3.24-.53-4.16,.86-4.1,6.24-6.18,11.47-6.18,15.55,0,9.41,5.94,15.72,14.78,15.72s14.78-6.32,14.78-15.72-7.81-19.36-11.17-23.36c-.56-.67-1.13-1.38-1.72-2.11-5.41-6.72-12.82-15.92-29.76-15.92h0c-9.09,0-16.78,3.39-22.24,9.79-5.82,6.83-8.38,16.66-6.84,26.29,4.78,29.78,50.6,60.36,56.96,60.36s52.19-30.58,56.96-60.36c1.54-9.63-1.01-19.46-6.83-26.29-5.46-6.4-13.15-9.79-22.24-9.79h0c-9.28,0-17.35,2.79-23.34,8.06-1.24,1.09-1.37,2.99-.27,4.23,1.09,1.25,2.99,1.37,4.23,.27,4.95-4.36,11.47-6.57,19.38-6.57h0c7.28,0,13.39,2.66,17.67,7.68,4.7,5.51,6.74,13.53,5.48,21.44-4.09,25.5-44.83,53.27-51.04,55.25-6.21-1.98-46.95-29.75-51.04-55.25-1.27-7.92,.78-15.93,5.48-21.44,4.29-5.03,10.4-7.68,17.68-7.68h0c14.07,0,19.92,7.27,25.09,13.69,.62,.77,1.21,1.51,1.8,2.21,6.12,7.28,9.77,14.57,9.77,19.5,0,6.18-3.2,9.72-8.77,9.72s-8.77-3.54-8.77-9.72c0-2.81,1.84-7.16,5.19-12.25,.91-1.38,.52-3.24-.86-4.16Zm134.44,18.73c.54,.41,1.18,.6,1.81,.6,.91,0,1.81-.41,2.4-1.19,8.88-11.77,13.31-21.13,13.18-27.82-.25-12.26-9.88-21.86-21.92-21.86s-21.92,9.83-21.92,21.92c0,4.47,1.7,9.91,5.05,16.17,.78,1.46,2.59,2.02,4.06,1.23,1.46-.78,2.01-2.6,1.23-4.06-2.88-5.38-4.34-9.87-4.34-13.34,0-8.78,7.14-15.92,15.92-15.92s15.74,7.02,15.92,15.98c.11,5.16-4.15,13.71-11.97,24.08-1,1.32-.74,3.2,.59,4.2Zm-40.55,29.21c6.1,0,14.59-3.11,23.28-8.54,1.41-.88,1.83-2.73,.96-4.14-.87-1.4-2.72-1.84-4.14-.96-7.66,4.78-15.17,7.63-20.1,7.63-8.78,0-15.92-7.14-15.92-15.92s7.14-15.92,15.92-15.92c7.68,0,22.43,9.76,31.24,15.59l3.13,2.07c1.75,1.14,3.88,2.67,6.23,4.36,9.33,6.68,22.1,15.83,31.42,15.83,12.09,0,21.92-9.83,21.92-21.92s-9.83-21.92-21.92-21.92c-4.89,0-10.44,1.46-16.5,4.32-1.5,.71-2.14,2.5-1.42,4,.71,1.5,2.52,2.14,3.99,1.43,5.25-2.49,9.93-3.75,13.93-3.75,8.78,0,15.92,7.14,15.92,15.92s-7.14,15.92-15.92,15.92c-7.39,0-19.75-8.85-27.93-14.71-2.44-1.75-4.63-3.32-6.45-4.5l-3.1-2.04c-9.98-6.6-25.06-16.59-34.55-16.59-12.09,0-21.92,9.83-21.92,21.92s9.84,21.92,21.92,21.92Zm35.53,46.83c-4.23,0-27.43,14.69-41.59,33.16h7.75c12.41-14.35,29.88-25.76,33.84-27.1,3.96,1.34,21.44,12.75,33.84,27.1h7.75c-14.16-18.47-37.35-33.16-41.59-33.16Zm-1.5-61.66c-1.54-.6-3.29,.18-3.88,1.73-7.39,19.3-19.8,31.32-19.93,31.44-.89,.85-1.17,2.15-.71,3.29,.46,1.14,1.56,1.88,2.79,1.88h47.43c1.21,0,2.3-.72,2.77-1.84,.47-1.11,.22-2.4-.62-3.26-.1-.1-9.97-10.29-18.11-27.13-.72-1.49-2.53-2.1-4.01-1.4-1.5,.72-2.12,2.51-1.4,4.01,5.17,10.7,10.95,18.79,14.81,23.62h-34.1c4.62-5.55,11.66-15.37,16.68-28.46,.59-1.55-.18-3.28-1.73-3.88Zm-257.89-148.6c.54,.41,1.18,.6,1.81,.6,.91,0,1.81-.41,2.4-1.19,8.88-11.77,13.31-21.13,13.18-27.82-.25-12.26-9.88-21.86-21.92-21.86s-21.92,9.83-21.92,21.92c0,4.47,1.7,9.91,5.05,16.17,.78,1.46,2.59,2.02,4.06,1.23,1.46-.78,2.01-2.6,1.23-4.06-2.88-5.38-4.34-9.87-4.34-13.34,0-8.78,7.14-15.92,15.92-15.92s15.74,7.02,15.92,15.98c.11,5.16-4.15,13.71-11.97,24.08-1,1.32-.74,3.2,.59,4.2Zm-40.55,29.21c6.1,0,14.59-3.11,23.28-8.54,1.41-.88,1.83-2.73,.96-4.14-.87-1.4-2.72-1.84-4.14-.96-7.66,4.78-15.17,7.63-20.1,7.63-8.78,0-15.92-7.14-15.92-15.92s7.14-15.92,15.92-15.92c7.68,0,22.43,9.76,31.24,15.59l3.13,2.07c1.75,1.14,3.88,2.67,6.23,4.36,9.33,6.68,22.1,15.83,31.42,15.83,12.09,0,21.92-9.83,21.92-21.92s-9.83-21.92-21.92-21.92c-4.89,0-10.44,1.46-16.5,4.32-1.5,.71-2.14,2.5-1.42,4,.71,1.5,2.52,2.14,3.99,1.43,5.25-2.49,9.93-3.75,13.93-3.75,8.78,0,15.92,7.14,15.92,15.92s-7.14,15.92-15.92,15.92c-7.39,0-19.75-8.85-27.93-14.71-2.44-1.75-4.63-3.32-6.45-4.5l-3.1-2.04c-9.98-6.6-25.06-16.59-34.55-16.59-12.09,0-21.92,9.83-21.92,21.92s9.84,21.92,21.92,21.92Zm7.3,158.74c.46,1.13,1.56,1.86,2.77,1.86h47.43c1.21,0,2.3-.72,2.77-1.83s.22-2.4-.62-3.26c-.07-.07-7.23-7.48-14.33-19.95-.81-1.44-2.64-1.95-4.09-1.12-1.44,.82-1.94,2.65-1.12,4.09,3.99,7.01,7.96,12.46,10.85,16.08h-34.32c4.16-5.29,10.45-14.57,15.37-27.39,.46-1.21,.09-2.58-.92-3.4-1.02-.83-2.44-.89-3.52-.19-.09,.06-9.12,5.82-17.51,5.83h0c-6.56,0-12.08-2.4-15.94-6.92-4.24-4.98-6.1-12.22-4.95-19.38,3.75-23.37,40.41-48.22,46.37-50.24,5.96,2.02,42.61,26.87,46.36,50.24,1.15,7.15-.7,14.4-4.94,19.38-3.86,4.53-9.38,6.93-15.94,6.93h0c-12.72,0-18.03-6.59-22.71-12.4-.57-.7-1.11-1.38-1.66-2.02-5.55-6.6-8.86-13.2-8.86-17.65,0-5.48,2.83-8.62,7.75-8.62s7.75,3.14,7.75,8.62c0,2.51-1.67,6.44-4.7,11.05-.91,1.38-.52,3.24,.86,4.16,1.4,.91,3.25,.52,4.16-.86,3.77-5.74,5.69-10.56,5.69-14.34,0-8.75-5.53-14.63-13.76-14.63s-13.76,5.88-13.76,14.63c0,8.08,6.43,16.95,10.26,21.51,.52,.61,1.04,1.26,1.58,1.93,4.98,6.18,11.8,14.63,27.39,14.64h0c8.38,0,15.47-3.12,20.51-9.03,5.37-6.3,7.72-15.35,6.3-24.22-4.38-27.31-46.44-55.35-52.29-55.35s-47.91,28.04-52.29,55.35c-1.42,8.87,.93,17.93,6.31,24.23,5.03,5.91,12.13,9.03,20.5,9.03h0c4.7,0,9.39-1.39,13.13-2.91-6.99,14.65-15.13,22.84-15.22,22.94-.86,.86-1.12,2.15-.66,3.27Zm26.73-173.56c-1.54-.6-3.29,.18-3.88,1.73-7.39,19.3-19.8,31.32-19.93,31.44-.89,.85-1.17,2.15-.71,3.29,.46,1.14,1.56,1.88,2.79,1.88h47.43c1.21,0,2.3-.72,2.77-1.84,.47-1.11,.22-2.4-.62-3.26-.1-.1-9.97-10.29-18.11-27.13-.72-1.49-2.53-2.1-4.01-1.4-1.5,.72-2.12,2.51-1.4,4.01,5.17,10.7,10.95,18.79,14.81,23.62h-34.1c4.62-5.55,11.66-15.37,16.68-28.46,.59-1.55-.18-3.28-1.73-3.88Zm142.27-67.76c1.48,.74,3.28,.13,4.02-1.36,1-2.01,2.06-5.2,2.06-8.11,0-5.47-4.34-9.6-10.1-9.6s-10.1,4.13-10.1,9.6c0,7.85,12.36,38.76,35.94,54.4,.51,.34,1.09,.5,1.66,.5,.97,0,1.92-.47,2.5-1.34,.91-1.38,.54-3.24-.84-4.16-21.1-14-33.26-42.81-33.26-49.4,0-4.94,8.21-4.95,8.2,0,0,1.76-.72,4-1.44,5.45-.74,1.48-.13,3.29,1.36,4.02Zm-9.08,14.71c-1.33-.98-3.21-.7-4.19,.64-14.72,20.02-32.06,36.31-38.64,36.31-2.48,0-3.6-2.13-3.6-4.1s1.13-4.1,3.6-4.1c1.43,0,2.84,.29,4.17,.85,1.53,.65,3.29-.06,3.94-1.59,.65-1.53-.06-3.29-1.59-3.94-2.08-.88-4.27-1.33-6.52-1.33-5.48,0-9.6,4.34-9.6,10.11s4.13,10.1,9.6,10.1c11.82,0,32.89-24.36,43.47-38.76,.98-1.33,.7-3.21-.64-4.19Zm51,24.72c-11.82,0-32.89,24.36-43.47,38.76-.98,1.33-.7,3.21,.64,4.19,.53,.39,1.16,.58,1.77,.58,.92,0,1.83-.42,2.42-1.22,14.72-20.02,32.06-36.31,38.64-36.31,2.48,0,3.6,2.13,3.6,4.1s-1.13,4.1-3.6,4.1c-1.44,0-2.84-.29-4.17-.85-1.52-.65-3.28,.06-3.94,1.58-.65,1.52,.06,3.29,1.58,3.94,2.07,.89,4.27,1.34,6.52,1.34,5.48,0,9.6-4.34,9.6-10.1s-4.13-10.1-9.6-10.1Zm-73.72,12.73c-1.38-.92-3.24-.54-4.16,.84-.91,1.38-.54,3.24,.84,4.16,21.1,14,33.26,42.81,33.26,49.4,0,4.94-8.2,4.95-8.2,0,0-1.76,.72-4.01,1.44-5.45,.74-1.49,.13-3.29-1.36-4.02-1.49-.74-3.28-.13-4.02,1.36-1,2.01-2.06,5.2-2.06,8.11,0,5.47,4.34,9.6,10.1,9.6s10.1-4.13,10.1-9.6c0-7.85-12.36-38.76-35.94-54.4Zm159.35,8.77c1.4,.91,3.25,.52,4.16-.86,3.77-5.74,5.69-10.56,5.69-14.34,0-8.75-5.53-14.63-13.76-14.63s-13.76,5.88-13.76,14.63c0,8.08,6.43,16.95,10.26,21.51,.52,.61,1.04,1.26,1.58,1.93,4.98,6.18,11.8,14.63,27.39,14.64h0c8.38,0,15.47-3.12,20.51-9.03,5.37-6.3,7.72-15.35,6.3-24.22-4.38-27.31-46.44-55.35-52.29-55.35s-47.91,28.04-52.29,55.35c-1.42,8.87,.93,17.93,6.31,24.23,5.03,5.91,12.13,9.03,20.5,9.03h0c4.7,0,9.39-1.39,13.13-2.91-6.99,14.65-15.13,22.84-15.22,22.94-.86,.86-1.12,2.15-.66,3.27,.46,1.13,1.56,1.86,2.77,1.86h47.43c1.21,0,2.3-.72,2.77-1.83s.22-2.4-.62-3.26c-.07-.07-7.23-7.48-14.33-19.95-.81-1.44-2.64-1.95-4.09-1.12-1.44,.82-1.94,2.65-1.12,4.09,3.99,7.01,7.96,12.46,10.85,16.08h-34.32c4.16-5.29,10.45-14.57,15.37-27.39,.46-1.21,.09-2.58-.92-3.4-1.02-.83-2.44-.89-3.52-.19-.09,.06-9.12,5.82-17.51,5.83h0c-6.56,0-12.08-2.4-15.94-6.92-4.24-4.98-6.1-12.22-4.95-19.38,3.75-23.37,40.41-48.22,46.37-50.24,5.96,2.02,42.61,26.87,46.36,50.24,1.15,7.15-.7,14.4-4.94,19.38-3.86,4.53-9.38,6.93-15.94,6.93h0c-12.72,0-18.03-6.59-22.71-12.4-.57-.7-1.11-1.38-1.66-2.02-5.55-6.6-8.86-13.2-8.86-17.65,0-5.48,2.83-8.62,7.75-8.62s7.75,3.14,7.75,8.62c0,2.51-1.67,6.44-4.7,11.05-.91,1.38-.52,3.24,.86,4.16ZM149.03,419.38c1.48,.74,3.28,.13,4.02-1.36,1-2.01,2.06-5.2,2.06-8.11,0-5.47-4.34-9.6-10.1-9.6s-10.1,4.13-10.1,9.6c0,7.85,12.36,38.76,35.94,54.4,.51,.34,1.09,.5,1.66,.5,.97,0,1.92-.47,2.5-1.34,.91-1.38,.54-3.24-.84-4.16-21.1-14-33.26-42.81-33.26-49.4,0-4.94,8.21-4.95,8.2,0,0,1.76-.72,4-1.44,5.45-.74,1.48-.13,3.29,1.36,4.02Zm-51.91,57.67c11.82,0,32.89-24.36,43.47-38.76,.98-1.33,.7-3.21-.64-4.19-1.33-.98-3.21-.7-4.19,.64-14.72,20.02-32.06,36.31-38.64,36.31-2.48,0-3.6-2.13-3.6-4.1s1.13-4.1,3.6-4.1c1.43,0,2.84,.29,4.17,.85,1.53,.65,3.29-.06,3.94-1.59,.65-1.53-.06-3.29-1.59-3.94-2.08-.88-4.27-1.33-6.52-1.33-5.48,0-9.6,4.34-9.6,10.11s4.13,10.1,9.6,10.1Zm93.83-4.03c-1.44,0-2.84-.29-4.17-.85-1.52-.65-3.28,.06-3.94,1.58-.65,1.52,.06,3.29,1.58,3.94,2.07,.89,4.27,1.34,6.52,1.34,5.48,0,9.6-4.34,9.6-10.1s-4.13-10.1-9.6-10.1c-11.82,0-32.89,24.36-43.47,38.76-.98,1.33-.7,3.21,.64,4.19,.53,.39,1.16,.58,1.77,.58,.92,0,1.83-.42,2.42-1.22,14.72-20.02,32.06-36.31,38.64-36.31,2.48,0,3.6,2.13,3.6,4.1s-1.13,4.1-3.6,4.1Zm-51.91,43.46c-1.49-.74-3.28-.13-4.02,1.36-1,2.01-2.06,5.2-2.06,8.11,0,5.47,4.34,9.6,10.1,9.6s10.1-4.13,10.1-9.6c0-7.85-12.36-38.76-35.94-54.4-1.38-.92-3.24-.54-4.16,.84-.91,1.38-.54,3.24,.84,4.16,21.1,14,33.26,42.81,33.26,49.4,0,4.94-8.2,4.95-8.2,0,0-1.76,.72-4.01,1.44-5.45,.74-1.49,.13-3.29-1.36-4.02Zm58.76-211.86c-5.46-6.4-13.15-9.79-22.24-9.79h0c-9.28,0-17.35,2.79-23.34,8.06-1.24,1.09-1.37,2.99-.27,4.23,1.09,1.25,2.99,1.37,4.23,.27,4.95-4.36,11.47-6.57,19.38-6.57h0c7.28,0,13.39,2.66,17.67,7.68,4.7,5.51,6.74,13.53,5.48,21.44-4.09,25.5-44.83,53.27-51.04,55.25-6.21-1.98-46.95-29.75-51.04-55.25-1.27-7.92,.78-15.93,5.48-21.44,4.29-5.03,10.4-7.68,17.68-7.68h0c14.07,0,19.92,7.27,25.09,13.69,.62,.77,1.21,1.51,1.8,2.21,6.12,7.28,9.77,14.57,9.77,19.5,0,6.18-3.2,9.72-8.77,9.72s-8.77-3.54-8.77-9.72c0-2.81,1.84-7.16,5.19-12.25,.91-1.38,.52-3.24-.86-4.16-1.38-.91-3.24-.53-4.16,.86-4.1,6.24-6.18,11.47-6.18,15.55,0,9.41,5.94,15.72,14.78,15.72s14.78-6.32,14.78-15.72-7.81-19.36-11.17-23.36c-.56-.67-1.13-1.38-1.72-2.11-5.41-6.72-12.83-15.92-29.76-15.92h0c-9.09,0-16.78,3.39-22.24,9.79-5.82,6.83-8.38,16.66-6.84,26.29,4.78,29.78,50.6,60.35,56.96,60.35s52.19-30.58,56.96-60.35c1.54-9.63-1.01-19.46-6.83-26.29ZM13.27,472.75c.54,.41,1.18,.6,1.81,.6,.91,0,1.81-.41,2.4-1.19,8.88-11.77,13.31-21.13,13.18-27.82-.25-12.26-9.88-21.86-21.92-21.86-3.1,0-6.06,.65-8.73,1.82v6.8c2.51-1.65,5.51-2.62,8.73-2.62,8.74,0,15.74,7.02,15.92,15.98,.11,5.16-4.15,13.71-11.97,24.08-1,1.32-.74,3.2,.59,4.2Zm53.4,7.29c0-12.09-9.83-21.92-21.92-21.92-4.89,0-10.44,1.46-16.5,4.32-1.5,.71-2.14,2.5-1.42,4,.71,1.5,2.52,2.14,3.99,1.43,5.25-2.49,9.93-3.75,13.93-3.75,8.78,0,15.92,7.14,15.92,15.92s-7.14,15.92-15.92,15.92c-7.39,0-19.75-8.85-27.93-14.71-2.44-1.75-4.63-3.32-6.45-4.5l-3.1-2.04c-2.21-1.46-4.68-3.09-7.27-4.74v7.14c1.41,.92,2.74,1.8,3.96,2.61l3.13,2.07c1.75,1.14,3.88,2.67,6.23,4.36,9.33,6.68,22.1,15.83,31.42,15.83,12.09,0,21.92-9.83,21.92-21.92Zm-31.46,43.59c.47-1.11,.22-2.4-.62-3.26-.1-.1-9.97-10.29-18.11-27.13-.72-1.49-2.53-2.1-4.01-1.4-1.5,.72-2.12,2.51-1.4,4.01,5.17,10.7,10.95,18.79,14.81,23.62H0v6H32.45c1.21,0,2.3-.72,2.77-1.84Zm-28.46-36.5c-1.54-.6-3.29,.18-3.88,1.73-.9,2.34-1.86,4.56-2.87,6.68v12.51c2.96-4.78,5.98-10.5,8.48-17.04,.59-1.55-.18-3.28-1.73-3.88ZM149.03,150.94c1.48,.74,3.28,.13,4.02-1.36,1-2.01,2.06-5.2,2.06-8.11,0-5.47-4.34-9.6-10.1-9.6s-10.1,4.13-10.1,9.6c0,7.85,12.36,38.76,35.94,54.4,.51,.34,1.09,.5,1.66,.5,.97,0,1.92-.47,2.5-1.34,.91-1.38,.54-3.24-.84-4.16-21.1-14-33.26-42.81-33.26-49.4,0-4.94,8.21-4.95,8.2,0,0,1.76-.72,4-1.44,5.45-.74,1.48-.13,3.29,1.36,4.02Zm-51.91,43.46c1.43,0,2.84,.29,4.17,.85,1.53,.65,3.29-.06,3.94-1.59,.65-1.53-.06-3.29-1.59-3.94-2.08-.88-4.27-1.33-6.52-1.33-5.48,0-9.6,4.34-9.6,10.11s4.13,10.1,9.6,10.1c11.82,0,32.89-24.36,43.47-38.76,.98-1.33,.7-3.21-.64-4.19-1.33-.98-3.21-.7-4.19,.64-14.72,20.02-32.06,36.31-38.64,36.31-2.48,0-3.6-2.13-3.6-4.1s1.13-4.1,3.6-4.1Zm93.83,10.18c-1.44,0-2.84-.29-4.17-.85-1.52-.65-3.28,.06-3.94,1.58-.65,1.52,.06,3.29,1.58,3.94,2.07,.89,4.27,1.34,6.52,1.34,5.48,0,9.6-4.34,9.6-10.1s-4.13-10.1-9.6-10.1c-11.82,0-32.89,24.36-43.47,38.76-.98,1.33-.7,3.21,.64,4.19,.53,.39,1.16,.58,1.77,.58,.92,0,1.83-.42,2.42-1.22,14.72-20.02,32.06-36.31,38.64-36.31,2.48,0,3.6,2.13,3.6,4.1s-1.13,4.1-3.6,4.1Zm-51.91,43.46c-1.49-.74-3.28-.13-4.02,1.36-1,2.01-2.06,5.2-2.06,8.11,0,5.47,4.34,9.6,10.1,9.6s10.1-4.13,10.1-9.6c0-7.85-12.36-38.76-35.94-54.4-1.38-.92-3.24-.54-4.16,.84-.91,1.38-.54,3.24,.84,4.16,21.1,14,33.26,42.81,33.26,49.4,0,4.94-8.2,4.95-8.2,0,0-1.76,.72-4.01,1.44-5.45,.74-1.49,.13-3.29-1.36-4.02ZM197.8,36.17c-5.46-6.4-13.15-9.79-22.24-9.79h0c-9.28,0-17.35,2.79-23.34,8.06-1.24,1.09-1.37,2.99-.27,4.23,1.09,1.25,2.99,1.37,4.23,.27,4.95-4.36,11.47-6.57,19.38-6.57h0c7.28,0,13.39,2.66,17.67,7.68,4.7,5.51,6.74,13.53,5.48,21.44-4.09,25.5-44.83,53.27-51.04,55.25-6.21-1.98-46.95-29.75-51.04-55.25-1.27-7.92,.78-15.93,5.48-21.44,4.29-5.03,10.4-7.68,17.68-7.68h0c14.07,0,19.92,7.27,25.09,13.69,.62,.77,1.21,1.51,1.8,2.21,6.12,7.28,9.77,14.57,9.77,19.5,0,6.18-3.2,9.72-8.77,9.72s-8.77-3.54-8.77-9.72c0-2.81,1.84-7.16,5.19-12.25,.91-1.38,.52-3.24-.86-4.16-1.38-.91-3.24-.53-4.16,.86-4.1,6.24-6.18,11.47-6.18,15.55,0,9.41,5.94,15.72,14.78,15.72s14.78-6.32,14.78-15.72-7.81-19.36-11.17-23.36c-.56-.67-1.13-1.38-1.72-2.11-5.41-6.72-12.83-15.92-29.76-15.92h0c-9.09,0-16.78,3.39-22.24,9.79-5.82,6.83-8.38,16.66-6.84,26.29,4.78,29.78,50.6,60.35,56.96,60.35s52.19-30.58,56.96-60.35c1.54-9.63-1.01-19.46-6.83-26.29ZM13.27,204.32c.54,.41,1.18,.6,1.81,.6,.91,0,1.81-.41,2.4-1.19,8.88-11.77,13.31-21.13,13.18-27.82-.25-12.26-9.88-21.86-21.92-21.86-3.1,0-6.06,.65-8.73,1.82v6.8c2.51-1.65,5.51-2.62,8.73-2.62,8.74,0,15.74,7.02,15.92,15.98,.11,5.16-4.15,13.71-11.97,24.08-1,1.32-.74,3.2,.59,4.2Zm31.48-14.63c-4.89,0-10.44,1.46-16.5,4.32-1.5,.71-2.14,2.5-1.42,4,.71,1.5,2.52,2.14,3.99,1.43,5.25-2.49,9.93-3.75,13.93-3.75,8.78,0,15.92,7.14,15.92,15.92s-7.14,15.92-15.92,15.92c-7.39,0-19.75-8.85-27.93-14.71-2.44-1.75-4.63-3.32-6.45-4.5l-3.1-2.04c-2.21-1.46-4.68-3.09-7.27-4.74v7.14c1.41,.92,2.74,1.8,3.96,2.61l3.13,2.07c1.75,1.14,3.88,2.67,6.23,4.36,9.33,6.68,22.1,15.83,31.42,15.83,12.09,0,21.92-9.83,21.92-21.92s-9.83-21.92-21.92-21.92Zm-11.76,202.6c.47-1.11,.22-2.4-.62-3.26-.07-.07-7.23-7.48-14.33-19.95-.81-1.44-2.64-1.95-4.09-1.12-1.44,.82-1.94,2.65-1.12,4.09,3.99,7.01,7.96,12.46,10.85,16.08H0v6H30.22c1.21,0,2.3-.72,2.77-1.83Zm.75-23.32c8.38,0,15.47-3.12,20.51-9.03,5.37-6.3,7.72-15.35,6.3-24.22-4.38-27.31-46.44-55.35-52.29-55.35-1.28,0-4.29,1.34-8.25,3.72v7.1c3.86-2.6,6.88-4.29,8.25-4.75,5.96,2.02,42.62,26.87,46.36,50.24,1.15,7.15-.7,14.4-4.94,19.38-3.86,4.53-9.38,6.93-15.94,6.93h0c-12.72,0-18.03-6.59-22.71-12.4-.57-.7-1.11-1.38-1.66-2.02-5.55-6.6-8.86-13.2-8.86-17.65,0-5.48,2.83-8.62,7.75-8.62s7.75,3.14,7.75,8.62c0,2.51-1.67,6.44-4.7,11.05-.91,1.38-.52,3.24,.86,4.16,1.4,.91,3.25,.52,4.16-.86,3.77-5.74,5.69-10.56,5.69-14.34,0-8.75-5.53-14.63-13.76-14.63-3.23,0-6.03,.91-8.25,2.54v27.18c1.64,2.54,3.37,4.76,4.76,6.41,.52,.61,1.04,1.26,1.58,1.93,4.98,6.18,11.8,14.63,27.39,14.64h0Zm-29.92-11.64c-1.02-.83-2.44-.89-3.52-.19,0,0-.12,.08-.29,.18v14.02c1.63-3.21,3.24-6.74,4.72-10.6,.46-1.21,.09-2.58-.92-3.4ZM0,257.03H32.45c1.21,0,2.3-.72,2.77-1.84,.47-1.11,.22-2.4-.62-3.26-.1-.1-9.97-10.29-18.11-27.13-.72-1.49-2.53-2.1-4.01-1.4-1.5,.72-2.12,2.51-1.4,4.01,5.17,10.7,10.95,18.79,14.81,23.62H0v6Zm6.75-38.34c-1.54-.6-3.29,.18-3.88,1.73-.9,2.34-1.86,4.56-2.87,6.68v12.51c2.96-4.78,5.98-10.5,8.48-17.04,.59-1.55-.18-3.28-1.73-3.88ZM3.81,88.89c-1.02-.83-2.44-.89-3.52-.19,0,0-.12,.08-.29,.18v14.02c1.63-3.21,3.24-6.74,4.72-10.6,.46-1.21,.09-2.58-.92-3.4Zm29.18,34.96c.47-1.11,.22-2.4-.62-3.26-.07-.07-7.23-7.48-14.33-19.95-.81-1.44-2.64-1.95-4.09-1.12-1.44,.82-1.94,2.65-1.12,4.09,3.99,7.01,7.96,12.46,10.85,16.08H0v6H30.22c1.21,0,2.3-.72,2.77-1.83Zm.75-23.32c8.38,0,15.47-3.12,20.51-9.03,5.37-6.3,7.72-15.35,6.3-24.22C56.16,39.96,14.1,11.92,8.25,11.92,6.98,11.92,3.97,13.26,0,15.64v7.1c3.86-2.6,6.88-4.29,8.25-4.75,5.96,2.02,42.62,26.87,46.36,50.24,1.15,7.15-.7,14.4-4.94,19.38-3.86,4.53-9.38,6.93-15.94,6.93h0c-12.72,0-18.03-6.59-22.71-12.4-.57-.7-1.11-1.38-1.66-2.02C3.81,73.5,.5,66.9,.5,62.45c0-5.48,2.83-8.62,7.75-8.62s7.75,3.14,7.75,8.62c0,2.51-1.67,6.44-4.7,11.05-.91,1.38-.52,3.24,.86,4.16,1.4,.91,3.25,.52,4.16-.86,3.77-5.74,5.69-10.56,5.69-14.34,0-8.75-5.53-14.63-13.76-14.63C5.03,47.83,2.23,48.74,0,50.36v27.18c1.64,2.54,3.37,4.76,4.76,6.41,.52,.61,1.04,1.26,1.58,1.93,4.98,6.18,11.8,14.63,27.39,14.64h0ZM175.56,831.7h0c-9.28,0-17.35,2.79-23.34,8.06-1.24,1.09-1.37,2.99-.27,4.23,1.09,1.25,2.99,1.37,4.23,.27,4.95-4.36,11.47-6.57,19.38-6.57h0c7.28,0,13.39,2.66,17.67,7.68,1.28,1.5,2.36,3.19,3.23,5.01h6.51c-1.22-3.28-2.96-6.31-5.17-8.91-5.46-6.4-13.15-9.79-22.24-9.79Zm-26.01,15.92c-5.41-6.72-12.83-15.92-29.76-15.92h0c-9.09,0-16.78,3.39-22.24,9.79-2.21,2.59-3.95,5.62-5.17,8.91h6.51c.87-1.82,1.95-3.51,3.23-5.01,4.29-5.03,10.4-7.68,17.68-7.68h0c13.35,0,19.3,6.55,24.29,12.7h7.75c-.19-.23-.38-.46-.55-.66-.56-.67-1.13-1.38-1.72-2.11Zm-.53-159.81c1.48,.74,3.28,.13,4.02-1.36,1-2.01,2.06-5.2,2.06-8.11,0-5.47-4.34-9.6-10.1-9.6s-10.1,4.13-10.1,9.6c0,7.85,12.36,38.76,35.94,54.4,.51,.34,1.09,.5,1.66,.5,.97,0,1.92-.47,2.5-1.34,.91-1.38,.54-3.24-.84-4.16-21.1-14-33.26-42.81-33.26-49.4,0-4.94,8.21-4.95,8.2,0,0,1.76-.72,4-1.44,5.45-.74,1.48-.13,3.29,1.36,4.02Zm-51.91,43.46c1.43,0,2.84,.29,4.17,.85,1.53,.65,3.29-.06,3.94-1.59,.65-1.53-.06-3.29-1.59-3.94-2.08-.88-4.27-1.33-6.52-1.33-5.48,0-9.6,4.34-9.6,10.11s4.13,10.1,9.6,10.1c11.82,0,32.89-24.36,43.47-38.76,.98-1.33,.7-3.21-.64-4.19-1.33-.98-3.21-.7-4.19,.64-14.72,20.02-32.06,36.31-38.64,36.31-2.48,0-3.6-2.13-3.6-4.1s1.13-4.1,3.6-4.1Zm93.83,10.18c-1.44,0-2.84-.29-4.17-.85-1.52-.65-3.28,.06-3.94,1.58-.65,1.52,.06,3.29,1.58,3.94,2.07,.89,4.27,1.34,6.52,1.34,5.48,0,9.6-4.34,9.6-10.1s-4.13-10.1-9.6-10.1c-11.82,0-32.89,24.36-43.47,38.76-.98,1.33-.7,3.21,.64,4.19,.53,.39,1.16,.58,1.77,.58,.92,0,1.83-.42,2.42-1.22,14.72-20.02,32.06-36.31,38.64-36.31,2.48,0,3.6,2.13,3.6,4.1s-1.13,4.1-3.6,4.1Zm-73.72-1.47c-1.38-.92-3.24-.54-4.16,.84-.91,1.38-.54,3.24,.84,4.16,21.1,14,33.26,42.81,33.26,49.4,0,4.94-8.2,4.95-8.2,0,0-1.76,.72-4.01,1.44-5.45,.74-1.49,.13-3.29-1.36-4.02-1.49-.74-3.28-.13-4.02,1.36-1,2.01-2.06,5.2-2.06,8.11,0,5.47,4.34,9.6,10.1,9.6s10.1-4.13,10.1-9.6c0-7.85-12.36-38.76-35.94-54.4Zm80.58-166.93c-5.46-6.4-13.15-9.79-22.24-9.79h0c-9.28,0-17.35,2.79-23.34,8.06-1.24,1.09-1.37,2.99-.27,4.23,1.09,1.25,2.99,1.37,4.23,.27,4.95-4.36,11.47-6.57,19.38-6.57h0c7.28,0,13.39,2.66,17.67,7.68,4.7,5.51,6.74,13.53,5.48,21.44-4.09,25.5-44.83,53.27-51.04,55.25-6.21-1.98-46.95-29.75-51.04-55.25-1.27-7.92,.78-15.93,5.48-21.44,4.29-5.03,10.4-7.68,17.68-7.68h0c14.07,0,19.92,7.27,25.09,13.69,.62,.77,1.21,1.51,1.8,2.21,6.12,7.28,9.77,14.57,9.77,19.5,0,6.18-3.2,9.72-8.77,9.72s-8.77-3.54-8.77-9.72c0-2.81,1.84-7.16,5.19-12.25,.91-1.38,.52-3.24-.86-4.16-1.38-.91-3.24-.53-4.16,.86-4.1,6.24-6.18,11.47-6.18,15.55,0,9.41,5.94,15.72,14.78,15.72s14.78-6.32,14.78-15.72-7.81-19.36-11.17-23.36c-.56-.67-1.13-1.38-1.72-2.11-5.41-6.72-12.83-15.92-29.76-15.92h0c-9.09,0-16.78,3.39-22.24,9.79-5.82,6.83-8.38,16.66-6.84,26.29,4.78,29.78,50.6,60.35,56.96,60.35s52.19-30.58,56.96-60.35c1.54-9.63-1.01-19.46-6.83-26.29ZM13.27,741.19c.54,.41,1.18,.6,1.81,.6,.91,0,1.81-.41,2.4-1.19,8.88-11.77,13.31-21.13,13.18-27.82-.25-12.26-9.88-21.86-21.92-21.86-3.1,0-6.06,.65-8.73,1.82v6.8c2.51-1.65,5.51-2.62,8.73-2.62,8.74,0,15.74,7.02,15.92,15.98,.11,5.16-4.15,13.71-11.97,24.08-1,1.32-.74,3.2,.59,4.2Zm53.4,7.29c0-12.09-9.83-21.92-21.92-21.92-4.89,0-10.44,1.46-16.5,4.32-1.5,.71-2.14,2.5-1.42,4,.71,1.5,2.52,2.14,3.99,1.43,5.25-2.49,9.93-3.75,13.93-3.75,8.78,0,15.92,7.14,15.92,15.92s-7.14,15.92-15.92,15.92c-7.39,0-19.75-8.85-27.93-14.71-2.44-1.75-4.63-3.32-6.45-4.5l-3.1-2.04c-2.21-1.46-4.68-3.09-7.27-4.74v7.14c1.41,.92,2.74,1.8,3.96,2.61l3.13,2.07c1.75,1.14,3.88,2.67,6.23,4.36,9.33,6.68,22.1,15.83,31.42,15.83,12.09,0,21.92-9.83,21.92-21.92Zm-58.42,68.75c-1.28,0-4.29,1.34-8.25,3.72v7.1c3.86-2.6,6.88-4.29,8.25-4.75,3.96,1.34,21.44,12.75,33.84,27.1h7.75c-14.16-18.47-37.35-33.16-41.59-33.16Zm26.96-25.16c.47-1.11,.22-2.4-.62-3.26-.1-.1-9.97-10.29-18.11-27.13-.72-1.49-2.53-2.1-4.01-1.4-1.5,.72-2.12,2.51-1.4,4.01,5.17,10.7,10.95,18.79,14.81,23.62H0v6H32.45c1.21,0,2.3-.72,2.77-1.84Zm-28.46-36.5c-1.54-.6-3.29,.18-3.88,1.73-.9,2.34-1.86,4.56-2.87,6.68v12.51c2.96-4.78,5.98-10.5,8.48-17.04,.59-1.55-.18-3.28-1.73-3.88ZM0,662.56H30.22c1.21,0,2.3-.72,2.77-1.83s.22-2.4-.62-3.26c-.07-.07-7.23-7.48-14.33-19.95-.81-1.44-2.64-1.95-4.09-1.12-1.44,.82-1.94,2.65-1.12,4.09,3.99,7.01,7.96,12.46,10.85,16.08H0v6Zm8.25-113.76c-1.28,0-4.29,1.34-8.25,3.72v7.1c3.86-2.6,6.88-4.29,8.25-4.75,5.96,2.02,42.62,26.87,46.36,50.24,1.15,7.15-.7,14.4-4.94,19.38-3.86,4.53-9.38,6.93-15.94,6.93h0c-12.72,0-18.03-6.59-22.71-12.4-.57-.7-1.11-1.38-1.66-2.02-5.55-6.6-8.86-13.2-8.86-17.65,0-5.48,2.83-8.62,7.75-8.62s7.75,3.14,7.75,8.62c0,2.51-1.67,6.44-4.7,11.05-.91,1.38-.52,3.24,.86,4.16,1.4,.91,3.25,.52,4.16-.86,3.77-5.74,5.69-10.56,5.69-14.34,0-8.75-5.53-14.63-13.76-14.63-3.23,0-6.03,.91-8.25,2.54v27.18c1.64,2.54,3.37,4.76,4.76,6.41,.52,.61,1.04,1.26,1.58,1.93,4.98,6.18,11.8,14.63,27.39,14.64h0c8.38,0,15.47-3.12,20.51-9.03,5.37-6.3,7.72-15.35,6.3-24.22-4.38-27.31-46.44-55.35-52.29-55.35Zm-4.44,76.97c-1.02-.83-2.44-.89-3.52-.19,0,0-.12,.08-.29,.18v14.02c1.63-3.21,3.24-6.74,4.72-10.6,.46-1.21,.09-2.58-.92-3.4Z" />
</svg>