<svg id="a" fill="{{fill1}}" xmlns="http://www.w3.org/2000/svg" viewBox="0 0 850.39 850.39">
    <defs>
        <style>.b{fill:none;}</style>
    </defs>
    <path d="M436.4,530.63c1.35,20.83,4.45,41.62,9.59,62.25,25.1,74.53,98.18,174.13,135.52,206.22-51.66-44.4-260.95-44.4-312.61,0,37.33-32.09,114.15-135.28,135.5-206.19,5.99-23.95,8.05-66.53,6.17-60.67-89.01,115.55-271.58,62.21-271.58-75.86,0-165.02,213.13-249.32,285.1-402.92l1.11-2.15,1.1,2.15c71.97,153.6,285.11,237.91,285.11,402.92,0,140.9-188.12,199.54-275.01,74.25Z" />
    <rect class="b" x="0" y="0" width="850.39" height="850.39" />
</svg>