<svg id="a" fill="{{fill1}}" xmlns="http://www.w3.org/2000/svg" viewBox="0 0 850.39 850.39">
    <defs>
        <style>.b{fill:none;}</style>
    </defs>
    <path d="M740.41,294.47c0,.18-.34-.79-1.34-2.95-7.31-16.7-15.89-32.8-25.49-48.25-4.73-7.78-10.01-15.2-15.27-22.63l-8.32-10.83c-2.81-3.58-5.84-6.99-8.76-10.49-11.94-13.77-24.95-26.64-38.93-38.4-14.02-11.73-29.12-22.17-44.96-31.35-31.53-18.41-66.23-31.02-101.86-38.34-17.87-3.45-35.98-5.53-54.13-6.29l-13.63-.26c-4.54,0-9.08,.24-13.62,.35-4.54,.05-9.07,.46-13.6,.83-4.53,.38-9.07,.64-13.56,1.32l-12.16,1.6-12.07,2.2c-2.01,.4-4.03,.69-6.02,1.17l-5.97,1.41-5.97,1.42c-2,.45-3.98,.95-5.94,1.55l-11.79,3.43c-3.92,1.18-7.75,2.63-11.63,3.93l-5.8,2.01-5.7,2.29c-3.78,1.56-7.63,2.97-11.36,4.67-15.01,6.55-29.45,14.32-43.43,22.81-13.91,8.62-27.12,18.31-39.78,28.65-12.59,10.44-24.31,21.89-35.36,33.94-10.99,12.12-20.94,25.14-30.16,38.65-9.15,13.57-17.11,27.89-24.29,42.58-7.08,14.75-12.88,30.06-17.87,45.62-4.83,15.74-8.44,31.82-11.16,48.05-1,8.16-2.36,16.29-2.83,24.5l-.49,6.15c-.18,2.05-.34,4.1-.36,6.16l-.36,12.33c-.1,2.06-.05,4.11,0,6.17l.13,6.17c.09,4.11,.12,8.23,.5,12.33l.89,12.31,1.49,12.26c2.25,16.3,5.43,32.53,10.15,48.34l1.68,5.95,1.96,5.87c1.35,3.9,2.56,7.84,4.02,11.7l4.52,11.51c.72,1.93,1.56,3.81,2.42,5.69l2.54,5.64,2.54,5.64c.88,1.86,1.86,3.68,2.78,5.52,1.9,3.66,3.69,7.38,5.68,10.98l6.15,10.73c.99,1.81,2.1,3.55,3.22,5.28l3.33,5.21,3.33,5.21c1.15,1.71,2.37,3.37,3.55,5.06,2.41,3.34,4.71,6.77,7.22,10.04l7.63,9.73c1.24,1.65,2.61,3.19,3.96,4.75l4.04,4.68c10.87,12.39,22.52,24.15,35.16,34.77,12.56,10.65,25.76,20.61,39.82,29.24,14,8.69,28.51,16.63,43.68,23.11,15.12,6.56,30.63,12.29,46.58,16.5l5.95,1.67,6.02,1.38c4.02,.89,8.02,1.92,12.06,2.68l12.17,2.17,3.04,.54,3.06,.39,6.13,.78c8.15,1.23,16.39,1.6,24.59,2.3l12.34,.36c2.06,.04,4.11,.14,6.17,.14l6.17-.14c16.46-.09,32.87-1.81,49.13-4.32l12.16-2.14c4.02-.86,8.03-1.81,12.05-2.71,2-.48,4.03-.87,6.01-1.43l5.95-1.67,5.94-1.68,2.97-.84c.98-.3,1.95-.65,2.93-.97l11.71-3.95c3.89-1.36,7.68-2.97,11.53-4.45l5.74-2.29,5.63-2.55,5.63-2.55c1.88-.85,3.76-1.68,5.58-2.66l10.51-5.42c1.77-.87,3.47-1.87,5.17-2.87l5.12-2.97,5.11-2.97c1.71-.99,3.33-2.12,4.99-3.17l9.92-6.46c12.94-9.05,25.37-18.82,37.05-29.44,2.93-2.65,5.7-5.45,8.56-8.17l4.25-4.11,4.06-4.3c2.68-2.89,5.46-5.69,8.06-8.65l7.7-8.97,1.92-2.24,1.82-2.33,3.64-4.66c2.42-3.11,4.89-6.17,7.11-9.43l6.83-9.62,6.38-9.92c1-1.6,2.08-3.15,3.03-4.78l2.84-4.9c1.87-3.28,3.86-6.5,5.64-9.84,3.46-6.72,7.13-13.36,10.17-20.31l2.39-5.16c.81-1.71,1.59-3.44,2.27-5.21l4.27-10.54,1.06-2.64,.94-2.68,1.87-5.37c1.21-3.59,2.59-7.13,3.57-10.79l3.17-10.91c1.07-3.63,1.8-7.35,2.7-11.02,1.88-7.33,3.03-14.79,4.37-22.2,2.17-14.89,3.65-29.83,3.57-44.68,.02-5.3,.79-8.07,.79-2.81-.01,3.82-.03,7.66-.04,11.51-.22,3.85-.43,7.71-.65,11.58-.12,1.94-.21,3.88-.36,5.82l-.64,5.81c-.45,3.88-.84,7.78-1.36,11.67-1.35,7.73-2.4,15.57-4.29,23.26l-1.3,5.8c-.44,1.93-.84,3.88-1.41,5.78-1.07,3.83-2.13,7.66-3.2,11.49-.5,1.93-1.11,3.82-1.76,5.71l-1.9,5.67c-1.27,3.78-2.49,7.59-4.02,11.28l-4.38,11.16-4.91,10.93c-6.76,14.47-14.32,28.57-23.02,41.84-10.03,15.56-21.22,30.37-33.54,44.19-12.4,13.74-25.86,26.52-40.24,38.19l-5.43,4.33-2.72,2.16c-.92,.7-1.87,1.36-2.81,2.05-3.76,2.7-7.5,5.44-11.29,8.11l-11.66,7.58c-3.9,2.5-7.98,4.72-11.97,7.09-16.15,9.14-33.04,17-50.49,23.46-15.78,5.71-32,10.16-48.44,13.6-16.5,3.16-33.2,5.23-49.96,6.12-4.19,.2-8.39,.2-12.58,.31l-6.29,.11-6.29-.19c-4.19-.16-8.39-.19-12.57-.45l-12.54-1.01c-4.19-.24-8.33-.96-12.49-1.46-4.16-.56-8.33-1.01-12.44-1.84l-12.38-2.23-12.25-2.82c-16.24-4.05-32.33-8.9-47.79-15.35-3.93-1.46-7.73-3.21-11.55-4.93-3.8-1.76-7.69-3.33-11.38-5.31l-11.19-5.71-10.92-6.22c-28.91-16.93-55.25-38.22-78.02-62.82-11.28-12.39-21.88-25.42-31.35-39.27-9.39-13.89-17.95-28.35-25.35-43.42-7.25-15.13-13.6-30.7-18.7-46.69-4.91-16.04-8.92-32.37-11.52-48.95-5.1-33.18-5.42-67-.64-100.13l.84-6.22,1.14-6.17c.8-4.1,1.46-8.24,2.37-12.31l2.9-12.2,.74-3.05,.87-3.01,1.75-6.02,1.75-6.02c.59-2,1.33-3.96,1.99-5.94,1.38-3.94,2.67-7.92,4.12-11.84l4.63-11.65,1.16-2.91,1.29-2.85,2.59-5.71,2.59-5.71c.87-1.9,1.88-3.73,2.81-5.6,1.92-3.71,3.75-7.47,5.76-11.14l6.22-10.89c1.01-1.83,2.12-3.6,3.25-5.36l3.36-5.3c9.05-14.06,18.97-27.61,30.04-40.17,11.02-12.59,22.76-24.62,35.59-35.4,3.11-2.81,6.41-5.38,9.7-7.98,3.31-2.57,6.51-5.28,9.97-7.64l10.23-7.29,10.57-6.78c28.43-17.69,59.49-31.09,91.81-39.68,4-1.21,8.11-2.01,12.18-2.97,4.08-.9,8.13-1.94,12.27-2.57l12.35-2.16,12.44-1.57c2.08-.23,4.14-.56,6.22-.72l6.25-.46,6.25-.46c2.08-.15,4.16-.33,6.25-.34l12.52-.29c2.09-.09,4.17-.04,6.26,.03l6.26,.16c8.08,.04,16.13,.9,24.19,1.45,4.02,.41,8.03,.98,12.04,1.47l6.02,.76,5.98,1.05c16,2.51,31.71,6.64,47.17,11.44l11.52,3.87c3.81,1.38,7.55,2.92,11.33,4.38,1.88,.75,3.78,1.46,5.65,2.24l5.54,2.49c3.67,1.7,7.43,3.24,11.03,5.08,14.57,7.09,28.51,15.37,41.94,24.35,13.44,9.25,26.08,19.53,38,30.51,11.76,11.17,22.71,23.1,32.87,35.66,9.95,12.73,19.17,26,27.47,39.87,8.11,13.97,15.57,28.35,21.97,43.28,1.04,2.22,1.44,3.55,1.49,3.72Zm13.69,86.33c-.58-6.63-1.87-13.17-2.92-19.76-.47-3.3-1.32-6.53-2.01-9.8-.74-3.25-1.42-6.52-2.21-9.77-3.48-12.89-7.31-25.75-12.38-38.17-4.76-12.54-10.74-24.6-16.96-36.51-6.63-11.69-13.5-23.3-21.45-34.21-2.3-3.27-4.57-6.56-7.09-9.67-2.46-3.14-4.88-6.33-7.38-9.44-5.2-6.06-10.27-12.22-15.85-17.92l-4.09-4.36c-1.35-1.47-2.84-2.8-4.25-4.2-2.87-2.76-5.7-5.58-8.6-8.3l-8.96-7.91-2.24-1.98-2.33-1.88-4.67-3.74-4.67-3.74c-1.54-1.26-3.21-2.37-4.81-3.56-3.24-2.33-6.44-4.71-9.71-6.99-6.69-4.35-13.3-8.84-20.28-12.73-3.45-2.02-6.88-4.08-10.47-5.85-3.55-1.84-7.09-3.71-10.67-5.51-7.29-3.31-14.52-6.81-22.06-9.61-7.39-3.12-15.08-5.47-22.67-8.07-7.74-2.13-15.42-4.54-23.31-6.14l-5.88-1.32-2.94-.65-2.97-.51-11.89-2.04c-3.97-.62-7.98-1-11.97-1.51l-5.99-.72-6.02-.42c-16.03-1.43-32.15-1.16-48.16-.32l-11.99,.95c-3.99,.33-7.96,.97-11.93,1.44l-5.96,.76c-1.98,.29-3.94,.68-5.92,1.02-3.94,.71-7.89,1.35-11.81,2.11-15.65,3.27-31.04,7.5-46.12,12.66-14.98,5.42-29.67,11.64-43.84,18.97-14.08,7.48-27.77,15.74-40.74,25.11-12.88,9.48-25.25,19.73-36.72,31.02-11.62,11.59-22.47,23.98-32.39,37.11-9.76,13.25-18.6,27.16-26.47,41.61-7.72,14.54-14.35,29.63-20.02,45.07-5.54,15.49-9.83,31.38-13.25,47.44-3.22,16.1-5.23,32.4-6.35,48.77l-.4,12.3c-.04,2.05-.19,4.1-.14,6.15l.11,6.15,.11,6.15c.03,2.05,.05,4.1,.23,6.15l.84,12.28c.1,2.05,.37,4.09,.61,6.13l.73,6.12,.73,6.12c.27,2.04,.67,4.05,1,6.08,.71,4.05,1.34,8.11,2.13,12.14l2.69,12.03,.68,3.01,.81,2.97,1.65,5.94,1.66,5.94c.53,1.99,1.27,3.91,1.89,5.87,1.32,3.9,2.57,7.82,3.96,11.7l4.51,11.5,1.13,2.87,1.26,2.82,2.55,5.63,2.55,5.63c.86,1.87,1.86,3.68,2.78,5.52,1.91,3.65,3.72,7.36,5.73,10.95l6.21,10.69c8.61,14.05,18.1,27.57,28.62,40.26,10.6,12.62,22.02,24.51,34.17,35.6,12.3,10.93,25.3,21.04,38.87,30.29,13.66,9.15,27.98,17.26,42.73,24.5,14.8,7.16,30.18,13.06,45.83,18.08l11.84,3.45c3.95,1.14,7.98,1.96,11.98,2.96l6,1.43,6.06,1.13c4.05,.71,8.08,1.58,12.15,2.16,16.28,2.48,32.74,3.62,49.21,3.83,74.23,.19,148.68-24.92,206.9-71.21,14.59-11.48,28.3-24.09,40.77-37.85,12.44-13.78,23.75-28.56,33.78-44.16,20.2-31.14,34.76-65.8,43.59-101.76,1.13-4.95,.54-4.87-.6,.08-7.76,31.55-20.35,61.86-37.04,89.65-1.96,3.55-4.3,6.87-6.47,10.29-2.2,3.4-4.37,6.82-6.8,10.07-2.38,3.28-4.7,6.6-7.12,9.84l-7.55,9.51-1.89,2.38-1.99,2.29-3.99,4.57-3.99,4.57c-1.34,1.52-2.78,2.94-4.17,4.41-2.82,2.9-5.56,5.88-8.44,8.72l-8.8,8.36c-11.99,10.88-24.56,21.14-37.94,30.3-13.42,9.07-27.35,17.42-41.91,24.57-14.6,7.03-29.61,13.26-45.07,18.17-3.84,1.3-7.78,2.28-11.66,3.43l-5.85,1.66-5.92,1.38c-3.95,.88-7.88,1.89-11.86,2.65l-11.97,2.11-2.99,.53-3.01,.38-6.03,.75c-4.02,.49-8.03,1.06-12.07,1.27l-12.11,.88-12.13,.29c-2.02,.03-4.04,.12-6.07,.1l-6.06-.17c-4.04-.15-8.09-.15-12.12-.44l-12.09-.97-3.02-.24-3.01-.38-6.01-.79c-8.04-.87-15.96-2.57-23.92-3.97l-11.81-2.76c-3.96-.85-7.83-2-11.71-3.13l-5.83-1.68-2.91-.84-2.87-.98-11.47-3.93c-3.79-1.39-7.52-2.96-11.28-4.44-1.87-.76-3.77-1.46-5.62-2.28l-5.52-2.51-5.51-2.51-2.75-1.26-2.7-1.38-10.76-5.56c-3.55-1.92-7-4.02-10.5-6.03-1.73-1.03-3.51-1.99-5.21-3.08l-5.08-3.29-5.08-3.29-2.54-1.65-2.46-1.76-9.82-7.06c-3.21-2.44-6.33-5-9.5-7.49-1.56-1.27-3.19-2.46-4.7-3.81l-4.55-3.98c-6.17-5.19-11.88-10.89-17.69-16.47-5.52-5.87-11.21-11.59-16.33-17.82-5.38-6.01-10.18-12.5-15.15-18.83-4.62-6.61-9.42-13.09-13.61-19.98-4.43-6.65-8.22-13.7-12.23-20.62-3.62-7.13-7.45-14.16-10.62-21.52-3.48-7.22-6.24-14.74-9.25-22.17-2.56-7.59-5.4-15.1-7.46-22.85l-1.67-5.78-.82-2.89-.69-2.93-2.76-11.71c-.85-3.92-1.48-7.88-2.22-11.82l-1.07-5.92-.78-5.96c-2.36-15.86-3.05-31.92-3-47.9l.34-11.99c.14-3.99,.59-7.97,.87-11.96l.48-5.97c.19-1.99,.5-3.96,.75-5.94,.53-3.96,1.02-7.92,1.6-11.87,2.66-15.75,6.29-31.32,11.02-46.56,4.95-15.16,10.69-30.07,17.63-44.42,7.05-14.29,14.84-28.23,23.76-41.46,9.02-13.22,18.77-25.95,29.51-37.81,10.81-11.78,22.28-22.96,34.59-33.16,12.38-10.1,25.33-19.49,38.96-27.83,13.7-8.2,27.85-15.63,42.54-21.88,58.69-25.07,124.27-32.87,187.46-22.08l6.5,1.15,3.25,.58,3.22,.74,12.86,2.96,12.69,3.6c1.05,.31,2.12,.59,3.17,.92l3.12,1.06,6.24,2.12c16.57,5.8,32.76,12.74,48.18,21.14,30.8,16.81,59.09,38.28,83.15,63.97,23.32,24.42,43.09,53.21,58.14,84.12,7.37,15.53,13.53,31.58,18.41,47.85,1.12,4.1,2.25,8.18,3.36,12.26,1.04,4.09,1.85,8.23,2.78,12.33,.42,2.06,.95,4.09,1.28,6.15,.34,2.06,.68,4.13,1.02,6.18,.34,2.06,.67,4.11,1.01,6.16l.49,3.07,.34,3.09c.84,7.6,2.24,10.48,1.41,2.82ZM391.52,100.79c-15.58,1.6-31.04,4.4-46.31,8.12-15.19,4.02-30.16,8.9-44.7,14.93-14.46,6.18-28.58,13.17-42.07,21.22-13.41,8.17-26.38,17.05-38.59,26.87-12.11,9.92-23.7,20.55-34.38,32.08-10.57,11.62-20.51,23.85-29.42,36.82-8.79,13.05-16.87,26.59-23.82,40.72-1.78,3.51-3.31,7.14-4.97,10.7l-2.45,5.37-2.19,5.48c-1.42,3.67-3,7.27-4.29,10.99l-3.84,11.16c-19.4,59.71-20.99,125.05-4.68,185.88l3.19,11.37,3.73,11.2c1.16,3.76,2.65,7.4,4.06,11.08,1.46,3.65,2.72,7.39,4.4,10.95l4.78,10.79c1.69,3.55,3.51,7.04,5.26,10.57,.9,1.75,1.72,3.54,2.69,5.25l2.9,5.14,2.9,5.14,1.45,2.57,1.57,2.5,6.29,10c2.16,3.29,4.48,6.48,6.72,9.72,1.14,1.61,2.23,3.25,3.42,4.83l3.62,4.68,3.62,4.68c1.19,1.57,2.41,3.12,3.72,4.6l7.69,8.99c2.61,2.96,5.39,5.77,8.08,8.65,1.37,1.43,2.69,2.89,4.09,4.28l4.28,4.1,4.28,4.1c1.42,1.38,2.85,2.74,4.37,4.01l8.9,7.73c3,2.54,6.15,4.9,9.22,7.36,1.55,1.21,3.07,2.46,4.64,3.64l4.8,3.43,4.8,3.43c1.6,1.15,3.19,2.31,4.86,3.34l9.92,6.41c3.32,2.12,6.79,3.99,10.18,5.99l5.12,2.96,5.25,2.71c3.52,1.77,6.96,3.7,10.55,5.34,14.22,6.82,28.99,12.45,44,17.28,15.09,4.58,30.48,8.13,46.04,10.64,31.16,4.62,62.99,5.11,94.17,.72,7.83-.85,15.52-2.57,23.26-3.92l11.48-2.71c3.84-.83,7.61-1.96,11.38-3.06l5.66-1.64,2.83-.82,2.79-.95,11.13-3.83c3.7-1.3,7.3-2.87,10.96-4.29l5.46-2.18,5.35-2.44c57.34-25.69,106.04-68.35,140.07-120.64l6.27-9.89,5.82-10.17c2-3.36,3.74-6.86,5.5-10.34l2.66-5.22,1.33-2.61,1.2-2.67,4.81-10.69c1.53-3.6,2.89-7.27,4.34-10.9,.7-1.82,1.45-3.63,2.12-5.47l1.87-5.56c1.21-3.72,2.6-7.38,3.65-11.15,4.57-14.97,7.84-30.29,10.37-45.72,.9-7.76,2.17-15.49,2.56-23.3l.43-5.84c.14-1.95,.31-3.89,.32-5.85l.26-11.71c.09-4.03-.52-3.79-.61,.24-.18,62.33-18.83,124.64-53.36,176.81-17.21,26.06-38.29,49.56-62.25,69.58-23.95,20.02-50.73,36.62-79.29,49.15-14.29,6.21-28.95,11.65-44.02,15.62l-5.63,1.58-5.69,1.31c-3.8,.84-7.58,1.78-11.4,2.54-7.68,1.32-15.32,2.84-23.07,3.62-7.71,1.12-15.49,1.52-23.26,2.11-3.88,.24-7.78,.21-11.67,.33l-5.84,.13c-1.95,.03-3.89-.09-5.84-.12l-11.67-.33-11.64-.91c-1.94-.17-3.88-.26-5.81-.49l-5.79-.75c-3.85-.54-7.73-.9-11.56-1.58-61.6-9.6-120.03-37.72-166.19-79.43-11.52-10.56-22.48-21.75-32.46-33.77-9.88-12.1-19.12-24.72-27.26-38.05-2.1-3.29-3.92-6.75-5.89-10.11l-2.91-5.08-2.66-5.21c-1.74-3.49-3.61-6.92-5.24-10.47l-4.79-10.68c-.83-1.76-1.54-3.58-2.24-5.4l-2.13-5.45-2.13-5.45c-.69-1.82-1.26-3.69-1.9-5.54-1.22-3.7-2.52-7.39-3.68-11.11l-3.17-11.27c-16.04-60.33-14.31-125.24,4.99-184.51l3.76-11.05c1.35-3.65,2.84-7.24,4.25-10.87,.73-1.8,1.39-3.63,2.18-5.42l2.41-5.32,2.4-5.32c.79-1.78,1.59-3.55,2.51-5.27l5.31-10.4c1.8-3.45,3.84-6.78,5.74-10.17l2.91-5.06,3.14-4.92,3.14-4.92c1.05-1.64,2.07-3.3,3.23-4.87,8.75-12.9,18.59-25.03,29.02-36.6,10.51-11.51,21.99-22.09,33.98-32.02,12.06-9.85,24.92-18.71,38.19-26.9,13.34-8.09,27.34-15.07,41.65-21.3,14.39-6.07,29.25-10.99,44.32-15.07,15.15-3.76,30.52-6.64,46.03-8.28,1.85-.26,2.8-.4,2.82-.53,.02-.11-.88-.21-2.69,.03Zm306.44,147.01c-10.22-16.59-23.42-33.16-38.33-48.18-14.89-15.06-31.45-28.55-47.85-40-19.47-13.67-40.17-25.69-62.13-35.12-21.91-9.47-44.97-16.53-68.6-20.41-.91-.16-.45,1.18,.46,1.34,44.14,7.57,84.77,24.64,121.69,49.05,17.98,11.93,34.35,25.4,49.21,40.27,14.86,14.89,28.24,31.19,40.08,49,3.42,5.24,8.68,9.41,5.46,4.03Zm44.61,172.9c.22-25.27-3.17-51.79-10.37-77.34-1.92-6.35-3.65-12.77-6-18.97-1.13-3.12-2.15-6.27-3.36-9.34-1.25-3.06-2.5-6.11-3.75-9.16-.63-1.52-1.21-3.06-1.89-4.56l-2.08-4.46c-1.38-2.97-2.75-5.94-4.11-8.9-1.5-2.89-3-5.77-4.49-8.64-.74-1.44-1.48-2.87-2.22-4.3-.74-1.43-1.59-2.79-2.38-4.19-29.24-52.28-73.33-95.67-125.93-124.13-28.6-15.33-59.51-26.44-91.45-32.27-4-.67-7.97-1.53-12-2.04l-12.08-1.53c-4.03-.49-8.09-.66-12.13-1.01l-6.07-.45-6.09-.15-6.09-.16c-2.03-.06-4.06-.14-6.09-.04l-12.17,.3c-4.06,.12-8.09,.56-12.14,.82-2.02,.16-4.05,.28-6.07,.47l-6.04,.76-6.03,.75-3.02,.37c-1,.14-2,.34-2.99,.51l-11.96,2.07c-3.96,.79-7.9,1.75-11.85,2.6-3.97,.79-7.85,1.93-11.74,3-7.84,1.98-15.46,4.67-23.14,7.19l-11.32,4.32c-1.9,.68-3.75,1.49-5.6,2.31l-5.55,2.43-5.55,2.43-5.43,2.7-5.43,2.7-2.72,1.35-2.65,1.48-10.6,5.92-10.31,6.43c-13.59,8.83-26.59,18.65-38.79,29.46-12.18,11.02-23.54,22.99-33.97,35.77-10.5,12.73-19.68,26.52-27.97,40.78-4.25,7.08-7.87,14.5-11.58,21.86l-5.09,11.27c-.89,1.86-1.6,3.79-2.36,5.71l-2.27,5.75c-.74,1.92-1.55,3.81-2.23,5.76l-1.98,5.84c-1.28,3.91-2.76,7.75-3.8,11.73l-3.38,11.84c-.94,4-1.88,7.99-2.82,11.98-14.19,64.22-7.62,133.01,18.56,193.37l5.03,11.26,5.53,11.02c1.76,3.72,3.92,7.22,5.9,10.82l3.02,5.38c1.04,1.77,2.17,3.49,3.25,5.24l3.27,5.23c1.08,1.75,2.17,3.5,3.37,5.16l7.03,10.14c4.98,6.54,9.89,13.16,15.33,19.35l3.99,4.72,4.2,4.53,4.21,4.53,2.11,2.26,2.21,2.16,8.86,8.64,9.28,8.2c12.58,10.7,25.99,20.46,40.11,29.14,28.35,16.99,59.27,29.95,91.6,37.45l6.06,1.4c2.02,.48,4.04,.94,6.09,1.26l12.25,2.18c4.1,.6,8.23,1.06,12.34,1.6,4.11,.61,8.25,.85,12.39,1.16,8.27,.81,16.58,.78,24.87,1.02,8.29-.27,16.6-.27,24.86-1.11,3.1-.28,6.21-.42,9.29-.81l9.24-1.23,4.62-.62c1.54-.21,3.05-.55,4.58-.82l9.14-1.72c3.06-.5,6.05-1.35,9.06-2.05l9.02-2.19,8.9-2.64c2.95-.91,5.95-1.67,8.85-2.77,23.43-7.91,45.89-18.49,67.05-31.3,21.1-12.94,40.47-28.44,57.89-45.8,2.25-2.1,4.29-4.4,6.4-6.64l6.29-6.74,5.96-7.04c1.98-2.35,4.03-4.65,5.85-7.13,3.73-4.89,7.61-9.67,11.03-14.79l5.29-7.57,4.94-7.8c3.42-5.13,6.3-10.59,9.43-15.92,1.61-2.64,2.89-5.46,4.35-8.18,1.4-2.75,2.87-5.48,4.23-8.26,5.22-11.21,10.25-22.57,14.21-34.33,1-2.93,2.07-5.85,3.02-8.8l2.61-8.93c1.88-5.92,3.09-12.01,4.58-18.03,.79-3,1.23-6.07,1.82-9.12l1.67-9.14,1.19-9.21,.59-4.6,.29-2.3,.17-2.31c.13-1.8-.64-1.64-.78,.17-1.61,16.19-4.27,32.28-8.23,48.07-4.1,15.74-9.33,31.18-15.65,46.18-12.95,29.84-30.25,57.86-51.65,82.43-5.22,6.26-10.94,12.06-16.57,17.94l-8.81,8.47c-2.93,2.82-6.1,5.4-9.13,8.12-12.38,10.58-25.41,20.46-39.26,29.08-13.85,8.61-28.33,16.21-43.31,22.72-15.03,6.38-30.58,11.51-46.4,15.52l-11.76,2.71c-3.95,.78-7.92,1.42-11.88,2.14-3.95,.79-7.95,1.23-11.95,1.73-4,.45-7.97,1.12-12,1.32l-12.04,.88c-4.02,.15-8.05,.19-12.08,.29-2.01,.02-4.02,.15-6.04,.08l-6.04-.18-6.04-.18-3.02-.09-3.01-.23-12.03-.97c-4-.4-7.98-1.02-11.97-1.51-1.99-.28-3.99-.48-5.97-.82l-5.93-1.09-5.93-1.08-2.97-.54-2.93-.69-11.73-2.75c-3.88-1.04-7.72-2.2-11.59-3.3-3.89-1.02-7.66-2.4-11.46-3.69-3.79-1.31-7.63-2.51-11.33-4.08-15.06-5.59-29.48-12.75-43.4-20.67l-5.19-3.02c-1.74-.99-3.46-2.01-5.12-3.13l-10.07-6.55c-6.5-4.67-13.09-9.22-19.25-14.34-12.48-10-24.32-20.84-35.08-32.67-1.35-1.47-2.79-2.87-4.07-4.41l-3.89-4.56c-2.58-3.05-5.26-6.02-7.65-9.23-2.44-3.17-4.93-6.29-7.33-9.49l-6.9-9.81c-9-13.36-17.05-27.35-24.08-41.84-6.83-14.58-12.61-29.63-17.32-45-4.68-15.39-7.9-31.18-10.23-47.07l-1.47-11.96c-.36-4-.59-8.01-.9-12.02-.12-2-.36-4-.37-6.01l-.12-6.02-.13-6.02-.06-3.01,.09-3.01,.36-12.05c.21-4.01,.63-8,.93-12.01,.18-2,.28-4,.53-5.99l.8-5.96,.8-5.96,.4-2.98,.55-2.95,2.2-11.81c.85-3.91,1.85-7.79,2.76-11.69,.84-3.91,2.04-7.74,3.16-11.58,1.15-3.83,2.16-7.7,3.56-11.45,4.91-15.23,11.39-29.9,18.62-44.14l2.77-5.32c.91-1.78,1.84-3.55,2.88-5.26l6.04-10.36c4.34-6.71,8.56-13.51,13.35-19.92,18.58-26.06,41.34-49.16,66.82-68.64,12.84-9.62,26.37-18.31,40.44-26,14.12-7.62,28.87-13.99,43.95-19.37,60.36-21.2,127.33-23.02,188.93-5.81,8.26,2.17,16.31,4.99,24.36,7.76l11.89,4.65c3.95,1.58,7.78,3.44,11.68,5.14,15.43,7.14,30.3,15.47,44.45,24.91,14.13,9.47,27.4,20.21,39.83,31.84,3.09,2.93,6.25,5.79,9.14,8.93l4.44,4.61c1.48,1.54,2.99,3.05,4.36,4.69l8.42,9.65,7.95,10.06c9.73,12.86,18.63,26.5,26.52,40.77,7.79,14.33,14.41,29.34,19.94,44.72,5.61,15.36,9.59,31.27,12.51,47.25l1.04,6,.52,3c.16,1,.25,2.01,.38,3.02,.48,4.02,.96,8.04,1.43,12.05,.37,4.02,.55,8.05,.83,12.06,.1,2.01,.31,4.01,.33,6.01l.06,6.01c.08,8.18,1.9,13.18,1.89,5.03Zm-41.16,36.92c-2.18,14.22-5.77,28.17-10.17,41.76-2.09,6.83-4.78,13.46-7.32,20.11l-4.28,9.79c-.68,1.64-1.45,3.24-2.26,4.83l-2.36,4.78c-6.4,12.68-13.57,24.97-21.85,36.46-8.25,11.51-17.29,22.4-27,32.61-9.74,10.17-19.7,20.22-30.35,29.66l-4.03,3.49c-1.34,1.17-2.68,2.35-4.11,3.41l-8.46,6.53c-5.85,4.04-11.74,8.07-18.04,11.38l-4.67,2.55-4.81,2.28-4.81,2.25-2.41,1.12-2.47,.99-9.86,3.91-10.04,3.37c-13.46,4.22-27.12,7.48-40.88,10.13-13.79,2.5-27.7,4.4-41.74,5.33-14.05,.76-28.17,.43-42.11-1.23-13.44-1.72-26.7-4.53-39.71-8.09-12.99-3.67-25.63-8.46-37.9-13.97l-9.06-4.43c-2.96-1.6-5.85-3.31-8.76-4.98-2.94-1.61-5.7-3.52-8.51-5.35-2.79-1.84-5.61-3.63-8.27-5.67-10.93-7.68-21.03-16.38-30.96-25.18l-3.72-3.31-1.87-1.64-1.8-1.72c-2.4-2.3-4.82-4.57-7.27-6.82-4.64-4.75-9.46-9.36-13.85-14.38-8.94-9.87-17.32-20.36-24.13-31.82-.86-1.43-1.8-2.8-2.6-4.26l-2.43-4.36c-1.6-2.92-3.33-5.76-4.74-8.78l-4.45-8.92-4.03-9.12c-5.11-12.26-9.55-24.8-12.79-37.68-3.16-12.9-4.94-26.09-5.58-39.29-.23-3.29-.16-6.61-.28-9.9l-.13-4.94,.1-4.95c.09-3.29,.02-6.58,.14-9.87,.17-3.29,.3-6.57,.38-9.86l.06-2.51,.19-2.5,.36-5,.34-5c.12-1.67,.38-3.32,.55-4.98,.42-3.31,.7-6.65,1.19-9.95l1.61-9.89c2.46-13.13,5.73-26.14,10.16-38.78,4.55-12.59,9.66-24.99,15.64-37.04,6.03-12.02,13.11-23.55,21.15-34.42,8-10.91,17.62-20.59,27.72-29.54,4.98-4.57,10.34-8.68,15.56-12.93,2.7-2.01,5.39-4.03,8.04-6.09,2.66-2.06,5.47-3.9,8.15-5.92,1.36-.98,2.68-2.03,4.08-2.96l4.2-2.78c2.81-1.83,5.55-3.79,8.48-5.44,2.89-1.7,5.76-3.46,8.67-5.14l8.91-4.73c12.01-6.05,24.44-11.26,37.23-15.53,12.83-4.1,25.9-7.52,39.2-10.02,13.32-2.36,26.87-3.64,40.48-3.84,13.61-.02,27.27,.37,40.94,1.72,13.64,1.48,27.21,4.19,40.27,8.48l9.69,3.45c3.19,1.27,6.34,2.63,9.5,3.95,3.19,1.25,6.24,2.84,9.34,4.31l4.63,2.23c1.55,.73,3.02,1.62,4.53,2.42,12.13,6.36,23.63,13.87,34.56,22.03,10.94,8.15,21.19,17.17,30.53,27.04,9.36,9.83,18.11,20.18,26.04,31.13,7.92,10.98,15.12,22.41,21.54,34.26,6.33,11.9,11.72,24.27,16.3,36.93,1.08,3.2,2.13,6.41,3.15,9.63l2.47,9.83c.89,3.26,1.34,6.62,2,9.93l.92,4.97c.3,1.66,.45,3.34,.69,5.01,2.02,13.33,2.78,26.73,3.73,40.07,.7,11.39,12.87,11.77,12.48-.57-.59-14.04-2.07-28.08-4.86-41.87-.34-1.72-.57-3.47-.98-5.18l-1.19-5.14c-.82-3.42-1.46-6.88-2.48-10.25l-2.76-10.18-3.17-10.06c-4.41-13.32-9.25-26.54-15.1-39.43-5.96-12.82-12.81-25.34-20.89-37.16-8.07-11.8-17.82-22.51-28.13-32.54-2.64-2.45-5.16-5.03-7.88-7.38l-8.11-7.12c-5.58-4.53-11.03-9.21-16.75-13.53-11.29-8.82-22.75-17.54-35.07-25.12-3.02-2.02-6.17-3.77-9.33-5.56-3.16-1.78-6.3-3.65-9.6-5.18-3.27-1.59-6.54-3.22-9.88-4.72-3.38-1.39-6.78-2.75-10.21-4.06-13.85-4.96-28.07-9.07-42.6-11.92-14.55-2.71-29.33-4.42-44.19-4.81-14.83-.2-29.7,1.18-44.31,3.76-14.6,2.73-28.92,6.47-43.09,10.6-14.13,4.29-27.93,9.67-41.3,16l-9.93,4.95c-3.25,1.77-6.46,3.61-9.69,5.41-3.27,1.74-6.34,3.82-9.49,5.76l-4.7,2.95c-1.56,1-3.05,2.1-4.58,3.15-3.01,2.15-6.15,4.14-9.11,6.36l-8.95,6.61c-5.79,4.62-11.71,9.15-17.21,14.15-11.16,9.83-21.77,20.46-30.9,32.31-9.16,11.81-17.67,24.17-25.08,37.21-7.36,13.06-13.79,26.65-19.17,40.68-5.26,14.08-8.84,28.78-11.44,43.57l-1.71,11.13c-.5,3.72-.82,7.46-1.27,11.18-.19,1.86-.47,3.72-.6,5.59l-.4,5.6-.44,5.6-.24,2.8-.11,2.8-.54,11.04c-.13,3.68-.08,7.37-.16,11.06l-.06,5.54,.18,5.53c.16,3.69,.14,7.4,.44,11.08,.88,14.78,3.05,29.52,6.38,44.04,3.4,14.5,7.4,28.85,12.23,43.05l3.86,10.58c1.43,3.47,2.93,6.92,4.42,10.38,1.43,3.5,3.21,6.82,4.91,10.2,1.71,3.37,3.44,6.75,5.44,9.96,7.57,13.15,17.45,25.01,27.94,36.05,5.16,5.61,10.78,10.77,16.17,16.08,2.81,2.54,5.59,5.1,8.33,7.7,1.35,1.32,2.76,2.57,4.17,3.82l4.18,3.8c11.11,10.12,22.18,20.36,34.28,29.51,2.94,2.41,6.07,4.55,9.17,6.76,3.11,2.19,6.21,4.45,9.48,6.4,3.25,2,6.5,4.04,9.83,5.94,3.38,1.8,6.8,3.56,10.25,5.28,13.94,6.55,28.67,11.66,43.69,15.49,15.06,3.72,30.31,6.49,45.58,8.72,15.82,2.16,31.81,3.3,47.87,3.24,16.05-.25,32.13-1.61,48.09-4.2,15.94-2.73,31.76-6.29,47.35-10.99l11.63-3.78,11.44-4.38,2.86-1.12,2.8-1.24,5.59-2.54,5.59-2.59,5.45-2.87,5.45-2.9,2.73-1.44,2.66-1.56,10.69-6.22,10.43-6.67c1.76-1.09,3.46-2.26,5.14-3.47l5.06-3.58c13.4-9.68,26.25-20.35,37.7-32.46,11.46-12.11,21.29-25.72,29.94-39.95,8.66-14.25,15.89-29.24,22.83-44.24l2.53-5.65c.84-1.88,1.7-3.76,2.41-5.7l4.43-11.55c2.6-7.82,5.26-15.62,7.21-23.62,4.17-15.92,7.13-32.16,8.5-48.57,.74-6.27,.24-11.86-.46-16.62-.68-4.76-2.16-8.72-3.86-11.86-3.41-6.29-8-9.27-12.67-9.28-4.67-.01-9.43,2.9-13.22,8.4-1.9,2.75-3.46,6.16-5.02,10.21-.74,2.03-1.39,4.22-1.94,6.58-.29,1.18-.5,2.41-.77,3.67-.29,1.26-.55,2.57-.78,3.92Z" />
    <rect class="b" x="0" y="0" width="850.39" height="850.39" />
</svg>