<svg id="a" fill="{{fill1}}" xmlns="http://www.w3.org/2000/svg" viewBox="0 0 850.39 850.39">
    <path d="M828.65,238.66l21.74-21.74v93.15l-21.74-21.74c-13.72-13.72-13.72-35.95,0-49.67ZM693.28,48.24c-13.72,13.72-13.72,35.95,0,49.67l53.57,53.57c13.72,13.72,35.95,13.72,49.67,0l12.58-12.58,12.58,12.58c7.84,7.85,18.48,11.19,28.71,10.07v-23.66c-4.17,1.43-8.96,.5-12.29-2.82l-12.58-12.58,24.57-24.57c.1-.1,.2-.21,.3-.31V48.55c-.1-.1-.19-.21-.3-.31l-24.57-24.57,12.58-12.58c3.32-3.32,8.12-4.26,12.29-2.82V0h-34.04l-7.25,7.25L801.86,0h-60.33l-48.24,48.24Zm135.37,571.26c-13.72,13.72-13.72,35.95,0,49.67l21.74,21.74v-93.15l-21.74,21.74Zm-39.1,0c13.72,13.72,13.72,35.95,0,49.67l-53.57,53.57c-13.72,13.72-35.95,13.72-49.67,0l-12.58-12.58-12.58,12.58c-13.72,13.72-35.95,13.72-49.67,0l-53.57-53.57c-13.72-13.72-13.72-35.95,0-49.67l53.57-53.57c13.72-13.72,35.95-13.72,49.67,0l12.58,12.58,12.58-12.58c13.72-13.72,35.95-13.72,49.67,0l53.57,53.57Zm-16.42,16.42l-53.57-53.57c-4.65-4.65-12.18-4.65-16.83,0l-12.58,12.58,24.57,24.57c13.72,13.72,13.72,35.95,0,49.67l-24.57,24.57,12.58,12.58c4.65,4.65,12.18,4.65,16.83,0l53.57-53.57c4.65-4.65,4.65-12.18,0-16.83Zm77.26-93.53v-23.66c-4.17,1.43-8.96,.5-12.29-2.82l-12.58-12.58,24.57-24.57c.1-.1,.2-.21,.3-.31v-49.05c-.1-.1-.19-.21-.3-.31l-24.57-24.57,12.58-12.58c3.32-3.32,8.12-4.26,12.29-2.82v-23.66c-10.23-1.13-20.86,2.22-28.71,10.07l-12.58,12.58-12.58-12.58c-13.72-13.72-35.95-13.72-49.67,0l-53.57,53.57c-13.72,13.72-13.72,35.95,0,49.67l53.57,53.57c13.72,13.72,35.95,13.72,49.67,0l12.58-12.58,12.58,12.58c7.84,7.85,18.48,11.19,28.71,10.06Zm0,267.84c-.1-.1-.19-.21-.3-.31l-24.57-24.57,12.58-12.58c3.32-3.32,8.12-4.26,12.29-2.82v-23.66c-10.23-1.13-20.86,2.22-28.71,10.07l-12.58,12.58-12.58-12.58c-13.72-13.72-35.95-13.72-49.67,0l-53.57,53.57c-10.95,10.95-13.15,27.33-6.61,40.48h163.72v-40.16ZM661.15,185.09l12.58,12.58,12.58-12.58c13.72-13.72,35.95-13.72,49.67,0l53.57,53.57c13.72,13.72,13.72,35.95,0,49.67l-53.57,53.57c-13.72,13.72-35.95,13.72-49.67,0l-12.58-12.58-12.58,12.58c-13.72,13.72-35.95,13.72-49.67,0l-53.57-53.57c-13.72-13.72-13.72-35.95,0-49.67l53.57-53.57c13.72-13.72,35.95-13.72,49.67,0Zm29,29l24.57,24.57c13.72,13.72,13.72,35.95,0,49.67l-24.57,24.57,12.58,12.58c4.65,4.65,12.18,4.65,16.83,0l53.57-53.57c4.65-4.65,4.65-12.18,0-16.83l-53.57-53.57c-4.65-4.65-12.18-4.65-16.83,0l-12.58,12.58ZM470.78,0h60.33l7.25,7.25L545.61,0h60.33l48.24,48.24c13.72,13.72,13.72,35.95,0,49.67l-53.57,53.57c-13.72,13.72-35.95,13.72-49.67,0l-12.58-12.58-12.58,12.58c-13.72,13.72-35.95,13.72-49.67,0l-53.57-53.57c-13.72-13.72-13.72-35.95,0-49.67L470.78,0Zm108.57,97.91l-24.57,24.57,12.58,12.58c4.65,4.65,12.18,4.65,16.83,0l53.57-53.57c4.65-4.65,4.65-12.18,0-16.83l-53.57-53.57c-4.65-4.65-12.18-4.65-16.83,0l-12.58,12.58,24.57,24.57c13.72,13.72,13.72,35.95,0,49.67Zm-60.54,521.59c13.72,13.72,13.72,35.95,0,49.67l-53.57,53.57c-13.72,13.72-35.95,13.72-49.67,0l-12.58-12.58-12.58,12.58c-13.72,13.72-35.95,13.72-49.67,0l-53.57-53.57c-13.72-13.72-13.72-35.95,0-49.67l53.57-53.57c13.72-13.72,35.95-13.72,49.67,0l12.58,12.58,12.58-12.58c13.72-13.72,35.95-13.72,49.67,0l53.57,53.57Zm-16.42,16.42l-53.57-53.57c-4.65-4.65-12.18-4.65-16.83,0l-12.58,12.58,24.57,24.57c13.72,13.72,13.72,35.95,0,49.67l-24.57,24.57,12.58,12.58c4.65,4.65,12.18,4.65,16.83,0l53.57-53.57c4.65-4.65,4.65-12.18,0-16.83Zm-79.85-157.17c-13.72-13.72-13.72-35.95,0-49.67l53.57-53.57c13.72-13.72,35.95-13.72,49.67,0l12.58,12.58,12.58-12.58c13.72-13.72,35.95-13.72,49.67,0l53.57,53.57c13.72,13.72,13.72,35.95,0,49.67l-53.57,53.57c-13.72,13.72-35.95,13.72-49.67,0l-12.58-12.58-12.58,12.58c-13.72,13.72-35.95,13.72-49.67,0l-53.57-53.57Zm156.82,0l-24.57,24.57,12.58,12.58c4.65,4.65,12.18,4.65,16.83,0l53.57-53.57c4.65-4.65,4.65-12.18,0-16.83l-53.57-53.57c-4.65-4.65-12.18-4.65-16.83,0l-12.58,12.58,24.57,24.57c13.72,13.72,13.72,35.95,0,49.67Zm74.83,331.17l-53.57-53.57c-13.72-13.72-35.95-13.72-49.67,0l-12.58,12.58-12.58-12.58c-13.72-13.72-35.95-13.72-49.67,0l-53.57,53.57c-10.95,10.95-13.15,27.33-6.61,40.48h170.04c6.54-13.14,4.34-29.52-6.61-40.48l-24.57-24.57,12.58-12.58c4.65-4.65,12.18-4.65,16.83,0l53.57,53.57c4.65,4.65,4.65,12.18,0,16.83l-7.23,7.23h30.26c6.54-13.14,4.34-29.52-6.61-40.48ZM390.4,185.09l12.58,12.58,12.58-12.58c13.72-13.72,35.95-13.72,49.67,0l53.57,53.57c13.72,13.72,13.72,35.95,0,49.67l-53.57,53.57c-13.72,13.72-35.95,13.72-49.67,0l-12.58-12.58-12.58,12.58c-13.72,13.72-35.95,13.72-49.67,0l-53.57-53.57c-13.72-13.72-13.72-35.95,0-49.67l53.57-53.57c13.72-13.72,35.95-13.72,49.67,0Zm29,29l24.57,24.57c13.72,13.72,13.72,35.95,0,49.67l-24.57,24.57,12.58,12.58c4.65,4.65,12.18,4.65,16.83,0l53.57-53.57c4.65-4.65,4.65-12.18,0-16.83l-53.57-53.57c-4.65-4.65-12.18-4.65-16.83,0l-12.58,12.58ZM200.03,0h60.33l7.25,7.25L274.86,0h60.33l48.24,48.24c13.72,13.72,13.72,35.95,0,49.67l-53.57,53.57c-13.72,13.72-35.95,13.72-49.67,0l-12.58-12.58-12.58,12.58c-13.72,13.72-35.95,13.72-49.67,0l-53.57-53.57c-13.72-13.72-13.72-35.95,0-49.67L200.03,0Zm108.57,97.91l-24.57,24.57,12.58,12.58c4.65,4.65,12.18,4.65,16.83,0l53.57-53.57c4.65-4.65,4.65-12.18,0-16.83l-53.57-53.57c-4.65-4.65-12.18-4.65-16.83,0l-12.58,12.58,24.57,24.57c13.72,13.72,13.72,35.95,0,49.67Zm-60.54,521.59c13.72,13.72,13.72,35.95,0,49.67l-53.57,53.57c-13.72,13.72-35.95,13.72-49.67,0l-12.58-12.58-12.58,12.58c-13.72,13.72-35.95,13.72-49.67,0l-53.57-53.57c-13.72-13.72-13.72-35.95,0-49.67l53.57-53.57c13.72-13.72,35.95-13.72,49.67,0l12.58,12.58,12.58-12.58c13.72-13.72,35.95-13.72,49.67,0l53.57,53.57Zm-16.42,16.42l-53.57-53.57c-4.65-4.65-12.18-4.65-16.83,0l-12.58,12.58,24.57,24.57c13.72,13.72,13.72,35.95,0,49.67l-24.57,24.57,12.58,12.58c4.65,4.65,12.18,4.65,16.83,0l53.57-53.57c4.65-4.65,4.65-12.18,0-16.83Zm-79.85-157.17c-13.72-13.72-13.72-35.95,0-49.67l53.57-53.57c13.72-13.72,35.95-13.72,49.67,0l12.58,12.58,12.58-12.58c13.72-13.72,35.95-13.72,49.67,0l53.57,53.57c13.72,13.72,13.72,35.95,0,49.67l-53.57,53.57c-13.72,13.72-35.95,13.72-49.67,0l-12.58-12.58-12.58,12.58c-13.72,13.72-35.95,13.72-49.67,0l-53.57-53.57Zm156.82,0l-24.57,24.57,12.58,12.58c4.65,4.65,12.18,4.65,16.83,0l53.57-53.57c4.65-4.65,4.65-12.18,0-16.83l-53.57-53.57c-4.65-4.65-12.18-4.65-16.83,0l-12.58,12.58,24.57,24.57c13.72,13.72,13.72,35.95,0,49.67Zm74.83,331.17l-53.57-53.57c-13.72-13.72-35.95-13.72-49.67,0l-12.58,12.58-12.58-12.58c-13.72-13.72-35.95-13.72-49.67,0l-53.57,53.57c-10.95,10.95-13.15,27.33-6.61,40.48h170.04c6.54-13.14,4.34-29.52-6.61-40.48l-24.57-24.57,12.58-12.58c4.65-4.65,12.18-4.65,16.83,0l53.57,53.57c4.65,4.65,4.65,12.18,0,16.83l-7.23,7.23h30.26c6.54-13.14,4.34-29.52-6.61-40.48ZM119.66,185.09l12.58,12.58,12.58-12.58c13.72-13.72,35.95-13.72,49.67,0l53.57,53.57c13.72,13.72,13.72,35.95,0,49.67l-53.57,53.57c-13.72,13.72-35.95,13.72-49.67,0l-12.58-12.58-12.58,12.58c-13.72,13.72-35.95,13.72-49.67,0l-53.57-53.57c-13.72-13.72-13.72-35.95,0-49.67l53.57-53.57c13.72-13.72,35.95-13.72,49.67,0Zm29,29l24.57,24.57c13.72,13.72,13.72,35.95,0,49.67l-24.57,24.57,12.58,12.58c4.65,4.65,12.18,4.65,16.83,0l53.57-53.57c4.65-4.65,4.65-12.18,0-16.83l-53.57-53.57c-4.65-4.65-12.18-4.65-16.83,0l-12.58,12.58ZM0,142.04V4.11L4.12,0h60.33l48.24,48.24c13.72,13.72,13.72,35.95,0,49.67l-53.57,53.57c-13.72,13.72-35.95,13.72-49.67,0L0,142.04Zm37.86-44.13l-24.57,24.57,12.58,12.58c4.65,4.65,12.18,4.65,16.83,0l53.57-53.57c4.65-4.65,4.65-12.18,0-16.83L42.7,11.09c-4.65-4.65-12.18-4.65-16.83,0l-12.58,12.58,24.57,24.57c13.72,13.72,13.72,35.95,0,49.67ZM9.45,532.32L0,522.88v-137.92l9.45-9.45c13.72-13.72,35.95-13.72,49.67,0l53.57,53.57c13.72,13.72,13.72,35.95,0,49.67l-53.57,53.57c-13.72,13.72-35.95,13.72-49.67,0Zm28.41-53.57l-24.57,24.57,12.58,12.58c4.65,4.65,12.18,4.65,16.83,0l53.57-53.57c4.65-4.65,4.65-12.18,0-16.83l-53.57-53.57c-4.65-4.65-12.18-4.65-16.83,0l-12.58,12.58,24.57,24.57c13.72,13.72,13.72,35.95,0,49.67Zm74.83,331.17l-53.57-53.57c-13.72-13.72-35.95-13.72-49.67,0L0,765.79v84.6H44.47c6.54-13.14,4.34-29.52-6.61-40.48l-24.57-24.57,12.58-12.58c4.65-4.65,12.18-4.65,16.83,0l53.57,53.57c4.65,4.65,4.65,12.18,0,16.83l-7.23,7.23h30.26c6.54-13.14,4.34-29.52-6.61-40.48Z" />
</svg>