<svg id="a" fill="{{fill1}}" xmlns="http://www.w3.org/2000/svg" viewBox="0 0 850.39 850.39">
    <path d="M850.39,836c-5.42-3.32-9.9-7.8-14.66-11.93-4.1-3.55-8.06-7.26-11.95-11.04-3.57-3.46-6.91-7.15-10.44-10.65-3.68-3.64-7.58-7.05-11.15-10.78-2.07-2.15-4.29-4.13-6.37-6.26-5.13-5.24-10.28-10.44-15.63-15.47-5.64-5.31-10.83-11.1-16.32-16.57-4.65-4.64-9.48-9.1-14.17-13.7-3.57-3.5-7.05-7.08-10.57-10.63-3.5-3.52-6.97-7.06-10.5-10.54-3.64-3.59-7.36-7.09-11-10.68-4.69-4.63-9.31-9.33-13.99-13.96-5.72-5.64-11.41-11.3-17.23-16.84-9.62-9.16-18.75-18.81-28.5-27.84-5.63-5.21-10.98-10.79-16.46-16.2-4.83-4.78-9.76-9.47-14.61-14.22-4.53-4.44-9.47-8.51-13.53-13.44-1.21-1.48-3.43-2.02-3.96-5,21.64,20.21,42.86,40.03,64.08,59.84l.63-.65c-9.27-8.95-18.54-17.89-27.82-26.84,.23-.23,.45-.46,.68-.69,23.7,21.53,47.4,43.06,71.1,64.59-1.46-3.73-4.7-5.86-7.29-8.49-5.85-5.93-12.04-11.55-18.27-17.09-6.76-6.01-13.28-12.29-19.83-18.51-5.76-5.47-11.68-10.8-17.27-16.48-4.85-4.93-10.27-9.33-15.14-14.29,.16-.15,.32-.29,.47-.44,4.98,3.05,8.74,7.53,13.16,11.25,5.6,4.71,11.08,9.58,16.55,14.44,4.58,4.06,9.05,8.24,13.62,12.31,4.78,4.25,9.64,8.39,14.43,12.63,5.28,4.68,10.49,9.44,15.77,14.11,7.58,6.7,15.22,13.32,22.8,20.03,5.24,4.63,10.15,9.67,15.69,13.91,3.84,2.93,6.84,6.86,11.64,8.64-35.24-32.24-70.47-64.48-105.71-96.73,.22-.26,.45-.53,.67-.79,8.17,7.05,16.34,14.1,24.51,21.15,.21-.24,.42-.49,.64-.73-17.04-15.16-34.08-30.32-51.11-45.47l.75-.87c3.24,2.7,6.5,5.38,9.72,8.11,8.16,6.91,16.2,13.97,24.48,20.73,8,6.53,15.79,13.33,23.73,19.93,3.78,3.15,8.31,5.02,11.8,8.36,2.32,2.22,4.73,4.3,7.23,6.3,2.02,2.43,3.52,5.56,7.38,5.56,3.12,1.08,5.3,3.61,7.59,5.67,3.89,3.5,8.04,6.67,11.95,10.13,5.33,4.71,10.93,9.12,16.41,13.65,5.99,4.95,12.02,9.83,17.95,14.85,6.65,5.63,13.14,11.46,19.82,17.06,5.65,4.73,11.65,9.06,17.19,13.91,5.1,4.48,10.5,8.6,15.6,13.05,5.7,4.97,11.66,9.61,17.36,14.58,2.64,2.3,5.4,4.46,8.1,6.69v52.33Zm-129.21-136.86c2.57,2.36,4.91,4.52,7.25,6.67-1.22-1.09-1.48-2.97-2.98-3.85-1.36-.79-1.96-2.74-4.27-2.83ZM0,744.42c4.13-3.05,8.43-5.9,12.35-9.2,6.04-5.08,12.42-9.72,18.64-14.56,3.03-2.36,6.17-4.58,9.2-6.94,5.85-4.56,11.63-9.22,17.49-13.77,3.44-2.68,7.15-5.04,10.43-7.91,5.37-4.69,11.09-8.97,16.77-13.18,7.72-5.73,15.25-11.74,23.01-17.42,8.69-6.35,16.79-13.51,25.49-19.83,8.85-6.43,17.29-13.37,26.14-19.78-.2-.28-.4-.56-.6-.84-33.94,24.18-67.87,48.37-101.81,72.55-.19-.26-.38-.52-.57-.78,17.73-13.42,35.46-26.84,53.18-40.26-.19-.28-.39-.56-.58-.84-21.93,15.01-43.87,30.03-65.8,45.04-.2-.28-.39-.57-.59-.85,15.69-11.41,31.4-22.81,47.08-34.25,15.54-11.34,31.05-22.73,46.58-34.1-.21-.28-.41-.55-.62-.83-20.45,13.74-40.9,27.48-61.35,41.23-.17-.25-.34-.49-.51-.74,14.28-10.19,28.57-20.39,42.85-30.58-.24-.37-.47-.73-.7-1.1-7.44,4.91-14.88,9.83-22.32,14.74,5.24-5.46,11.87-8.98,17.63-13.62l-.46-.64-79.46,50.92c-.18-.28-.36-.55-.54-.83,52.86-36.09,105.94-71.84,159-107.63-3.24,.21-5.29,2.63-7.83,4.08-5.55,3.17-10.89,6.71-16.27,10.18-5.55,3.58-11,7.34-16.57,10.88-5.66,3.6-11.45,6.98-17.12,10.57-8.63,5.47-17.19,11.05-25.81,16.53-6.41,4.08-12.85,8.1-19.3,12.1-2.77,1.72-5.59,3.33-8.39,5-.13-.21-.25-.41-.38-.62,10.11-6.76,20.21-13.51,30.32-20.27-.19-.27-.37-.53-.56-.8-21.29,12.93-42.59,25.85-63.88,38.78-.18-.3-.36-.61-.54-.91,36.01-23.14,72.03-46.27,108.04-69.41-1.49-.12-2.69,.31-3.78,.95-4.65,2.75-9.27,5.56-13.91,8.33-4.32,2.57-8.67,5.09-12.98,7.68-4.01,2.41-7.97,4.91-11.98,7.32-4.69,2.81-9.45,5.53-14.13,8.36-7.15,4.32-14.22,8.77-21.39,13.03-6.16,3.66-12.46,7.08-18.63,10.72-6.24,3.68-12.38,7.55-18.62,11.22-5.88,3.46-11.89,6.71-17.76,10.18-6.21,3.68-12.33,7.51-18.49,11.27v60.84ZM114.99,146.03c3.24,4.07,7.41,7.18,11.14,10.74,5.14,4.9,10.36,9.73,15.6,14.54,3.53,3.24,7.17,6.36,10.62,9.7,5.28,5.12,10.81,9.96,16.25,14.91,2.75,2.5,5.94,4.54,7.48,8.37-18.29-15.75-36.58-31.49-54.87-47.24-.22,.25-.44,.5-.66,.75,25.74,23.07,51.48,46.13,77.24,69.21-.99,1.02-1.57,.31-1.94-.01-3.83-3.34-7.54-6.8-11.4-10.11-5.27-4.51-10.66-8.9-15.97-13.37-5.78-4.86-11.52-9.76-17.29-14.62-5.47-4.61-10.98-9.17-16.45-13.77-6.75-5.67-13.37-11.5-20.25-17-6.97-5.57-13.68-11.47-20.59-17.11-6.42-5.24-12.72-10.66-19.1-15.98-7.12-5.95-14.28-11.84-21.39-17.81-4.97-4.16-9.79-8.5-14.82-12.58-6.29-5.09-12.54-10.25-18.66-15.52-6.2-5.34-13-10.03-18.57-16.11-.35-.38-.89-.6-1.34-.89V21.59c4.89,4.6,9.78,9.2,14.67,13.81,3.95,3.72,7.94,7.39,11.81,11.19,4.68,4.6,9.2,9.37,13.9,13.95,4.47,4.36,9.13,8.53,13.62,12.88,4.82,4.68,9.5,9.5,14.3,14.2,4.5,4.41,9.09,8.74,13.63,13.11,7.35,7.08,14.62,14.25,22.08,21.21,5.07,4.73,10.07,9.55,14.97,14.42,4.5,4.47,9.22,8.74,13.62,13.34,5.56,5.82,11.71,11.07,17.54,16.64,5.48,5.23,10.87,10.57,16.32,15.83,5.28,5.11,10.6,10.18,15.9,15.28,5.89,5.68,11.74,11.4,17.66,17.05,4.59,4.38,9.15,8.82,13.97,12.95,1.4,1.2,2.01,2.95,3.34,4.16-41.4-37.2-82.68-74.52-124.1-111.68-.22,.23-.45,.46-.67,.7,14.35,13.65,28.71,27.31,43.15,41.05-1.59,.98-1.94-.17-2.62-.78-5.72-5.1-11.46-10.16-17.22-15.21-.1-.09-.42,.05-.63,.09-1.87-2.53-4.42-4.26-6.96-6.02,2.24,2.11,3.92,4.79,6.71,6.29Zm-30.87-33.62c2.59,1.84,4.28,4.77,7.15,6.34-2.01-2.52-4.25-4.78-7.15-6.34ZM758.81,0c-2.32,4.25-5.89,7.52-8.84,11.28-4.75,6.06-9.7,11.96-14.59,17.91-3.89,4.72-7.81,9.42-11.72,14.12-.28,.33-.64,.62-1.32,0,4.33-5.22,8.17-10.85,12.49-16.16,3.49-4.3,6.48-9,10.13-13.21,3.32-3.84,5.59-8.51,9.22-12.16,.42-.42,.49-1.17,.72-1.77h-34.02c-1.1,1.76-2.19,3.51-3.29,5.27-3.01,4.5-6.02,8.99-9.01,13.5-3.26,4.9-6.47,9.84-9.77,14.71-4.79,7.07-9.71,14.06-14.47,21.15-3.55,5.28-7.24,10.46-10.66,15.84-4.5,7.06-9.51,13.79-14.26,20.68-3.62,5.25-6.96,10.71-10.67,15.87-7.04,9.79-13.56,19.92-20.61,29.7-4.05,5.62-7.98,11.33-11.74,17.14-1.42,2.18-3.92,3.87-3.95,7.62,30.04-40.79,59.67-81.03,89.3-121.26,.28,.2,.55,.4,.83,.59-17.69,25.43-35.38,50.87-53.07,76.3,.22,.16,.44,.31,.67,.47,22.17-28.84,44.34-57.68,66.5-86.52,.25,.2,.51,.39,.76,.59-34.73,48.08-69.64,96.04-104.8,143.81,.3,.23,.61,.45,.91,.68,27.23-34.84,54.46-69.69,81.69-104.53l.83,.64-30.35,41.06c.22,.18,.44,.36,.67,.54,3.43-2.4,4.96-6.63,8.64-8.85-25.76,33.51-51.52,67.01-77.27,100.52,.29,.22,.57,.45,.86,.67,3.77-4.67,7.54-9.34,11.3-14.01,4.56-5.66,9.09-11.34,13.68-16.97,3.64-4.46,7.41-8.81,11.03-13.28,4.48-5.55,8.62-11.39,13.33-16.73,4.86-5.5,9.18-11.42,14.06-16.92,6.29-7.09,11.82-14.84,17.9-22.13,4.09-4.91,8.26-9.78,12.26-14.74,5.15-6.38,10.39-12.68,15.51-19.08,3.2-4,6.64-7.82,9.88-11.79,4.79-5.88,9.44-11.89,14.26-17.74,5.42-6.58,11.26-12.83,16.39-19.62,3.67-4.86,8.04-9.13,11.49-14.1,2.18-3.15,5.57-5.33,6.97-9.04h-7.85ZM222.23,689.96c-3.13,3.9-6.26,7.8-9.4,11.68-4.7,5.82-9.51,11.55-14.07,17.47-3.3,4.29-6.81,8.42-10.01,12.75-3.68,4.98-7.75,9.6-11.54,14.47-4.63,5.97-9.35,11.87-14.03,17.8-3.75,4.75-7.5,9.49-11.26,14.22-3.32,4.17-6.6,8.36-10,12.46-3.61,4.36-7.17,8.75-10.57,13.28-3.7,4.93-7.8,9.56-11.64,14.39-3.39,4.26-6.8,8.51-10.19,12.77-3.64,4.58-7.49,9.03-11,13.7-1.27,1.7-3.89,2.69-3.66,5.43h30.74c.8-3.02,3.2-5.04,4.83-7.53,3.68-5.61,7.78-10.96,11.78-16.36,3.97-5.37,8.02-10.67,12.21-15.91-.67,3.3-3.01,5.9-4.84,8.38-4.06,5.51-7.35,11.51-11.4,17.01-3.39,4.61-6.56,9.38-9.31,14.41h6.54c.14-.63,.08-1.41,.43-1.88,3.83-5.18,7.2-10.67,10.7-16.08,4.51-6.97,9.26-13.8,13.88-20.71,2.43-3.64,4.74-7.37,7.18-11,3.58-5.31,7.3-10.52,10.85-15.85,4.5-6.77,8.84-13.64,13.34-20.41,4.89-7.36,9.92-14.63,14.84-21.97,3.37-5.02,6.63-10.13,10.03-15.14,3.88-5.72,7.88-11.34,11.67-17.13,2.42-3.71,4.79-7.49,7.64-10.96,2.61-3.19,4.54-6.93,6.73-10.46,.07-.11-.28-.47-.52-.83-1.61,1.22-1.91,3.17-3.04,4.54-3.97,4.83-7.51,9.97-11.06,15.11-2.36,3.42-4.74,6.83-7.19,10.19-3.56,4.9-7.11,9.81-10.78,14.62-4.42,5.79-7.52,12.76-14.38,16.43-.28,.15-.65,.27-.8,.51-2.79,4.7-6.52,8.74-9.59,13.22-4.53,6.6-9.49,12.88-14.13,19.39-3.62,5.08-7.25,10.23-11.32,14.98-1.97,2.3-3.15,5.33-5.95,6.92,33.47-48.27,67.27-96.3,100.93-144.44-39.56,52.23-79.06,104.49-118.77,156.59-.26-.19-.52-.38-.78-.57,19.63-27.42,39.26-54.83,58.89-82.25-4.68,3.3-7.22,8.38-11.22,12.21,1.38-2.52,2.98-4.84,4.74-7.1,3.79-4.87,7.28-9.97,10.91-14.97,2.62-3.61,5.24-7.22,7.91-10.79,3.5-4.69,7.15-9.28,10.53-14.05,1.88-2.66,4.47-4.86,5.51-8.09-.13-.16-.25-.32-.38-.47Zm474.44,160.44c-.45-1.87-2.15-2.94-2.95-4.52-3.07-6.04-7.29-11.35-10.98-16.97-4.74-7.21-9.36-14.51-14.23-21.64-2.53-3.7-4.75-7.68-7.32-11.29-5.95-8.34-11.15-17.16-16.99-25.56-3.85-5.53-7.52-11.18-11.19-16.82-3.55-5.45-7-10.98-10.51-16.46-3.4-5.31-6.99-10.49-10.25-15.9-3.62-6.01-7.68-11.75-11.54-17.61-1.56-2.37-3.09-4.77-4.64-7.15-.26,.18-.52,.36-.78,.54,25.83,42.74,51.66,85.47,77.49,128.21-.3,.18-.6,.36-.9,.54-16.66-25.95-33.32-51.91-49.98-77.86-.26,.14-.51,.29-.77,.43,5.3,9.2,10.6,18.41,15.9,27.61-.21,.12-.42,.23-.63,.35-17.02-27.6-34.05-55.19-51.07-82.79l-.82,.48c16.43,28.65,32.86,57.31,49.29,85.96-.29,.17-.57,.34-.86,.51-7.58-12.42-15.17-24.84-22.75-37.26-.29,.16-.59,.32-.88,.48,4.59,8.24,9.17,16.49,13.76,24.73-.33,.18-.66,.36-.99,.54l-65.94-112.81c.48,2.48,1.38,4.73,2.54,6.84,3.64,6.62,7.47,13.13,11.04,19.79,2.42,4.52,5,8.95,7.46,13.43,2.71,4.93,5.38,9.91,8.14,14.83,2.58,4.58,5.27,9.1,7.63,13.82,3.32,6.65,7.3,12.96,10.67,19.59,2.37,4.67,5.34,8.98,7.55,13.74,2.24,4.82,5.21,9.29,7.67,14.02,2.67,5.14,5.2,10.42,8.16,15.34,4.68,7.77,8.79,15.83,13.11,23.77,3.62,6.65,7.54,13.17,10.76,20.08,3.06,6.55,6.95,12.7,10.48,19.03h35.32ZM0,175.97c3.76,2.48,7.78,4.52,11.67,6.78,6.82,3.96,13.65,7.9,20.54,11.72,4.39,2.44,8.87,4.8,13.11,7.43,6.07,3.77,12.39,7.05,18.52,10.68,4.23,2.5,8.61,4.8,12.82,7.31,8.07,4.8,16.29,9.32,24.39,14.05,5.99,3.5,12.13,6.77,18.14,10.25,6.45,3.73,12.83,7.6,19.26,11.39,5.05,2.97,10.12,5.91,15.18,8.84,.93,.54,1.79,1.43,3.47,.78-30.99-19.14-61.66-38.07-92.32-57,.15-.26,.3-.52,.45-.78,9.37,5.42,18.74,10.83,28.11,16.25,.18-.27,.37-.55,.55-.83-7.84-5.1-15.68-10.2-23.53-15.3l.5-.75c34.94,21.14,69.87,42.28,104.81,63.42,.16-.26,.33-.52,.49-.78-39.11-25.28-78.22-50.56-117.33-75.84,.14-.23,.28-.47,.41-.7,11.96,7.27,23.93,14.54,35.89,21.81,.18-.3,.36-.6,.54-.89l-57.26-38.67c7.24,2.52,13.07,7.41,19.67,11,5.94,3.23,11.36,7.4,17.16,10.91,5.68,3.43,11.1,7.27,16.84,10.61,5.95,3.47,11.61,7.48,17.49,11.12,5.73,3.54,11.27,7.41,17.02,10.91,2.73,1.66,5.25,3.82,8.5,4.55-5.87-4.42-11.94-8.5-17.99-12.6-6.26-4.24-12.51-8.5-18.74-12.79-4.2-2.89-8.34-5.87-12.55-8.75-3.85-2.63-7.79-5.12-11.62-7.77-6.66-4.6-13.27-9.29-19.91-13.93-3.82-2.67-7.65-5.32-11.48-7.96-6.6-4.54-13.28-8.99-19.8-13.64-3.8-2.71-7.72-5.25-11.49-8.04-3.66-2.71-7.31-5.57-11.52-7.49v34.67ZM686.2,0c-1.52,1.87-2.15,4.25-3.48,6.19-4.21,6.16-7.83,12.67-11.56,19.11-2.2,3.8-4.44,7.6-6.78,11.29-4.89,7.74-9.49,15.65-14.14,23.53-3.64,6.17-7.27,12.38-11.04,18.45-5.51,8.87-10.9,17.82-16.28,26.75-4.62,7.68-9.06,15.51-13.8,23.09-4.85,7.74-9.24,15.77-14.36,23.35-3.92,5.8-6.96,12.16-11.1,17.85-1.74,2.4-2.91,5.21-4.34,7.84l.81,.44c31.5-48.96,63.11-97.86,95.73-146.11l-33.25,54.59c.33,.2,.66,.4,.99,.6l30.94-45.22c.13,1.34-.1,2.45-.72,3.28-5.31,7.11-9.68,14.83-14.51,22.25-2.63,4.04-5.1,8.19-7.71,12.25-3.58,5.55-7.42,10.93-10.78,16.61-2.29,3.86-4.93,7.47-7.22,11.34-4.56,7.71-9.8,15-14.61,22.56-3.53,5.55-7.04,11.13-10.6,16.66-4.68,7.25-9.23,14.6-14.11,21.71-2.63,3.83-4.68,8.05-7.85,11.54-2.54,2.81-4.36,6.85-4.51,9.49,36.64-53.81,73.17-107.15,110.09-160.23,.24,.17,.48,.33,.72,.5-15.01,23.13-30.03,46.26-45.21,69.66,1.87-.01,2.15-1.22,2.71-2.06,2.46-3.61,4.67-7.42,7.36-10.84,5.14-6.52,9.84-13.35,14.73-20.05,2.51-3.44,4.86-7,7.38-10.43,4.28-5.82,8.68-11.55,12.95-17.37,2.84-3.88,5.48-7.91,8.32-11.79,4.44-6.07,9.03-12.03,13.44-18.13,.94-1.3,1.37-2.96,3.16-3.43,1.1-1.76,2.19-3.51,3.29-5.27h-34.67Zm164.19,62.14c-.93-.09-1.71,.27-2.34,.9-7.14,7.17-15.12,13.4-22.62,20.17-6.06,5.47-12.42,10.61-18.5,16.06-7.38,6.61-14.9,13.07-22.22,19.75-8.73,7.95-17.9,15.43-26.88,23.11-8.66,7.41-17.19,14.97-25.83,22.4-8.33,7.16-16.56,14.46-24.81,21.72-5.6,4.92-11.36,9.66-16.96,14.58-3.81,3.34-7.87,6.44-11.53,9.89-4.79,4.51-9.9,8.63-14.72,13.09-5.25,4.85-11.18,8.95-15.88,14.48,27.01-21.52,53.65-43.49,80.45-65.27,26.8-21.78,53.74-43.38,80.62-65.06,.34,.4,.68,.8,1.02,1.2-17.85,15.46-35.71,30.93-53.56,46.39,.21,.23,.43,.47,.64,.7,2.21-1.67,4.42-3.33,6.64-5,.19,.25,.39,.49,.58,.74-16.91,14.1-33.83,28.21-50.74,42.31,.21,.26,.43,.52,.64,.78,5.23-3.99,10.46-7.98,15.68-11.98,4.66-3.57,9.29-7.17,13.96-10.71,4.6-3.49,9.4-6.73,13.81-10.44,4.64-3.9,9.65-7.28,14.4-11,3.46-2.71,6.88-5.45,10.36-8.13,4.56-3.52,9.14-7.02,13.76-10.46,4.55-3.39,9.33-6.5,13.71-10.1,4.7-3.85,9.57-7.45,14.43-11.07,3.59-2.67,7.03-5.53,10.58-8.24,4.56-3.49,9.15-6.93,13.77-10.34,.4-.29,1.04-.26,1.56-.38v-30.09ZM196.9,0h-28.13c-.29,1.44,.57,2.47,1.27,3.57,2.82,4.4,5.68,8.78,8.43,13.23,3.56,5.75,6.8,11.7,10.59,17.29,5.03,7.42,9.43,15.22,14.29,22.73,2.84,4.39,5.58,8.84,8.34,13.28,4.4,7.07,8.78,14.15,13.16,21.23,2.59,4.18,4.91,8.55,7.6,12.63,5.05,7.65,9.72,15.51,14.53,23.3,2.35,3.81,4.78,7.57,7.01,11.46,1.08,1.89,1.8,4.49,5.01,5.94-17.46-30.46-34.5-60.21-51.54-89.95,.29-.17,.57-.35,.86-.52,7.62,12.39,15.23,24.78,22.85,37.18,.3-.18,.61-.35,.91-.53-11.48-20.83-22.95-41.66-34.43-62.49,.32-.18,.64-.35,.95-.53,27.13,46.5,54.26,93,81.39,139.5,.58-3.03-1.57-4.69-2.63-6.87-2.4-4.91-5.25-9.59-7.74-14.47-3.25-6.37-7.15-12.41-10.41-18.77-2.34-4.58-5.08-8.92-7.35-13.55-3.52-7.2-7.75-14.06-11.45-21.18-3.24-6.24-6.97-12.2-10.02-18.56-2.45-5.1-5.45-9.93-8.16-14.91-2.37-4.36-4.68-8.75-7.02-13.13,.26-.14,.51-.29,.77-.43,7.52,13.02,15.03,26.04,22.55,39.06-.36-2.7-1.13-5.16-2.44-7.29-4.2-6.83-7.45-14.14-11.17-21.22-4.39-8.34-8.64-16.76-12.97-25.12-2.61-5.03-5.32-10-7.89-15.05-2.27-4.46-4.86-8.77-6.57-13.5-.2-.78-.39-1.56-.59-2.34ZM850.39,201.48v-28.13c-4.39,1.41-8.08,4.25-11.83,6.68-5.82,3.76-11.85,7.18-17.68,10.92-5.58,3.58-11.36,6.84-17.01,10.3-6.3,3.85-12.54,7.8-18.83,11.65-3.9,2.39-8.06,4.42-11.74,7.11-5.45,3.98-11.37,7.19-17.14,10.57-4.31,2.52-8.41,5.38-12.87,7.71-6.01,3.14-11.41,7.42-17.35,10.72-5.48,3.05-10.71,6.42-15.81,10.07,13.73-7.17,26.93-15.42,40.92-21.99,13.92-6.53,27.56-13.54,40.99-21.02,.15,.27,.3,.53,.46,.8-11.63,6.91-23.27,13.83-34.9,20.74,.17,.31,.35,.63,.52,.94l37.1-19.82c.13,.24,.27,.49,.4,.73-27.11,15.52-54.22,31.04-81.33,46.56,.14,.25,.28,.5,.42,.75,28.78-15.17,57.56-30.34,86.34-45.5,.13,.23,.25,.47,.38,.7-13.38,7.52-26.76,15.05-40.29,22.65,.99,.93,1.7,.86,2.21,.46,3.72-2.94,8.09-4.82,12.3-6.75,7.6-3.49,14.87-7.6,22.37-11.26,9.97-4.87,19.88-9.89,29.65-15.14,2.61-1.4,5.36-2.63,7.99-3.98,3.88-1.99,7.55-4.65,12.01-5.44,.79-.67,1.71-1.02,2.75-1.03Zm-289.51,608.09c2.21,6.49,5.04,12.73,7.17,19.27,2.38,7.31,5.47,14.38,8.25,21.56h22.24c.27-1.02-.12-1.93-.51-2.84-2.86-6.71-5.78-13.41-8.59-20.14-4.52-10.82-8.97-21.66-13.47-32.49-4.19-10.09-8.29-20.22-12.68-30.22-2.29-5.22-4.25-10.56-6.48-15.78-3.87-9.04-7.75-18.08-11.45-27.2-3.94-9.72-8.24-19.3-12.11-29.05-3.45-8.7-7.47-17.17-10.5-26.05-.82-2.41-2.21-4.62-3.44-7.13-.56,.85-.65,1.39-.31,1.87,1.95,2.74,2.66,6.03,3.93,9.05,2.93,6.94,5.14,14.19,8.09,21.11,4.75,11.14,8.63,22.61,13.27,33.79,3.21,7.74,6.16,15.61,9.15,23.45,4.13,10.82,8.19,21.66,12.34,32.47,2.69,7.02,5.41,14.05,8.08,21.07,1.34,3.53,2.57,7.21,4,10.74,2.03,5.02,4.57,9.96,5.25,15.49-8.39-20.41-16.79-40.82-25.18-61.23-.3,.11-.61,.23-.91,.34,4.29,11.53,8.58,23.06,12.87,34.58-.29,.11-.59,.23-.88,.34-5.38-13.65-10.75-27.3-16.15-41-1.05,.6-1.01,1.3-.75,1.88,2.34,5.26,4.05,10.75,5.85,16.21,2.86,8.66,6.52,17.03,9.34,25.72,1.42,4.37,2.94,8.75,4.65,13.06,1.31,3.3,2.61,6.72,3.7,10.16l-.86,.33c-3.14-7.99-6.27-15.99-9.41-23.98-.27,.09-.55,.19-.82,.28,1.93,5.8,3.86,11.61,5.79,17.41-3.27-3.98-3.82-9-5.9-13.45-3.48-7.47-5.87-15.41-8.83-23.11-3.36-8.73-6.64-17.51-9.68-26.35-3.4-9.88-7.66-19.44-10.81-29.41-.9-2.85-1.88-5.74-3.06-8.49-3.28-7.6-5.95-15.42-8.56-23.26-.83-2.5-2.3-4.6-3.31-6.99-.15,.59-.16,1.13,0,1.61,2.97,8.62,6.01,17.21,8.95,25.84,4.29,12.55,8.48,25.13,12.79,37.67,1.72,4.99,3.33,10.01,4.73,15.1,2.34,8.52,6.8,16.35,8.13,25.2,.16,1.05,.3,2.65,.95,2.98,3.14,1.57,2.62,4.72,3.55,7.23,1.75-.03,1.28,1.49,1.58,2.38Zm-280.91,40.83c1.29-3.88,2.57-7.75,3.86-11.63,3.42-10.3,6.91-20.58,10.12-30.95,1.11-3.61,1.89-7.37,3.39-10.81,3.09-7.08,4.92-14.58,7.41-21.85,1.5-4.36,2.82-8.88,4.38-13.19,2.85-7.88,5.07-15.96,8-23.81,3.04-8.14,5.32-16.55,8.45-24.68,.42-1.09,1.23-2.42,.42-3.83-.09,1.33-1.38,1.81-1.76,3.05-2.57,8.42-6,16.55-8.92,24.85-3.02,8.59-6.06,17.17-9.32,25.68-2.22,5.8-4.18,11.7-6.4,17.51-3.18,8.31-6.19,16.69-9.15,25.08-2.46,6.97-5.41,13.77-7.51,20.86-.43,1.44-.94,2.79-2.64,4.17,2.84-8.23,5.5-15.96,8.16-23.68-.27-.09-.54-.19-.81-.28-3.71,7.91-6.13,16.38-9.74,24.33,2.03-7.17,4.08-14.33,6.86-21.19,2.98-7.38,5.05-15.08,8.09-22.43,2.04-4.94,3.5-10.09,5.37-15.11,4.24-11.34,7.86-22.91,12.25-34.22,2.87-7.4,4.74-15.2,7.75-22.54,1.42-3.46,2.54-7.06,3.99-10.52,1.66-3.97,2.84-8.26,4.56-12.95-1.61,1.04-2.24,1.81-2.53,3.07-.51,2.21-1.1,4.46-2.04,6.51-4.3,9.47-7.69,19.31-11.3,29.04-2.24,6.04-4.86,11.93-7.01,18.02-3.13,8.89-7.22,17.44-10.36,26.33-2.54,7.18-5.91,14.05-7.92,21.42-.15,.55-.81,.95-1.23,1.42,2.57-7.34,4.93-14.51,7.32-21.67-.28-.1-.57-.2-.85-.3-8.68,21.4-17.37,42.8-26.05,64.2,1.35-5.41,3.71-10.46,5.36-15.73,3.05-9.77,7.23-19.11,10.46-28.8,1.32-3.96,2.6-8.02,4.3-11.75,2.76-6.04,4.59-12.4,7.21-18.48,2.93-6.81,4.78-14.09,7.78-20.86,1.52-3.43,2.55-7.03,4.06-10.46,1.64-3.72,3.23-7.69,3.95-11.82-.55,1.19-1.63,1.95-2.1,3.22-1.87,5.15-4,10.19-6.18,15.23-4.68,10.81-8.86,21.83-13.33,32.72-2.41,5.87-4.55,11.88-7.19,17.61-4.97,10.78-8.99,21.94-13.82,32.77-2.79,6.26-5.42,12.63-7.87,19.06-.93,2.45-1.44,5.41-3.64,7.36h26.17ZM0,275.4c3.48,1.34,6.9,2.9,10.46,3.96,9.15,2.74,18.08,6.14,27.12,9.17,10,3.35,20,6.73,30.04,9.93,7.7,2.46,15.17,5.55,22.92,7.87,2.53,.76,5.19,1.41,7.59,2.49,7.57,3.4,15.58,5.48,23.36,8.24,7.4,2.63,14.75,5.45,22.31,7.66,2.42,.71,4.71,1.78,7.24,2.04-1.36-.88-2.7-1.81-4.19-2.3-12.11-3.98-23.86-8.95-35.9-13.09-6.79-2.34-13.4-5.15-20.21-7.45-9.29-3.14-18.26-7.25-27.52-10.49-4.35-1.52-8.42-3.9-13.07-4.56-.52-.07-1.33-.22-1.41-1.44,9.92,2.74,19.21,7.04,29.21,9.08-20.51-8.1-41.03-16.2-62.02-24.49,1.5-.66,2.16-.18,2.83,.14,6.25,2.89,12.86,4.83,19.26,7.32,8.05,3.14,16.27,5.89,24.38,8.91,9.43,3.51,19.02,6.64,28.43,10.26,7.98,3.07,16.11,5.73,24.06,8.91,8.84,3.54,17.89,6.57,26.85,9.81,1,.36,1.98,.96,3.53,.15-26.17-10.43-52.05-20.74-78.58-31.31,4.4-.25,7.14,2.8,10.69,2.9l.31-.79c-19.7-8.18-39.39-16.36-59.09-24.54,.1-.25,.2-.5,.3-.76,18.71,7.09,37.42,14.18,56.13,21.26,.09-.25,.18-.5,.27-.75-3.11-1.45-6.15-3.01-9.42-4.14-5.17-1.78-10.12-4.19-15.07-6.42-7.87-3.54-15.94-6.63-23.72-10.4-6.34-3.07-13.04-5.4-19.39-8.54-2.35-1.16-4.87-2.43-7.71-2.2v23.55ZM603.13,0c-.6,1.14-1.35,2.23-1.79,3.42-2.67,7.34-5.74,14.5-8.77,21.69-3.12,7.4-6.11,14.88-9.06,22.35-2.76,6.98-5.7,13.89-8.33,20.93-2.92,7.83-6.6,15.35-9.43,23.23-.77,2.15-1.73,4.35-2.65,6.51-2.72,6.39-5.47,12.75-8.11,19.17-2.57,6.23-4.95,12.54-7.53,18.77-3.81,9.2-7.87,18.31-11.5,27.58-1.18,3.01-3.42,5.75-3.29,9.78,2.94-4.52,4.53-9.12,6.27-13.56,2.32-5.91,5.34-11.47,7.61-17.41,3.08-8.09,7.39-15.7,10.67-23.72,2.31-5.66,4.85-11.21,7.25-16.82,3.58-8.36,7.55-16.55,11.24-24.86,2.69-6.08,4.93-12.37,7.84-18.33,5.22-10.69,9.63-21.74,14.75-32.46,1.95-4.09,2.85-8.76,6.31-12.68-.86,2.68-1.9,4.74-2.76,6.87-2.88,7.16-6.04,14.19-9.04,21.29-3.12,7.38-6.01,14.86-9.33,22.17-3.14,6.94-5.61,14.18-8.54,21.23-2.67,6.43-5.71,12.71-8.22,19.2-.86,2.22-2.51,4.18-2.03,6.96,6.66-14.45,13.32-28.89,19.98-43.34l.73,.35c-8.91,20.46-17.83,40.92-26.74,61.37,.27,.13,.53,.26,.8,.39,1.39-2.9,2.83-5.78,4.18-8.7,2.56-5.55,4.77-11.28,7.68-16.63,4-7.33,7.27-14.99,10.77-22.53,2.52-5.43,5.33-10.72,7.65-16.27,3.09-7.37,7.1-14.34,10.59-21.55,2.56-5.29,4.84-10.72,7.38-16.03C612.24,18.89,616.86,9.45,621.44,0h-18.32Zm247.27,94.85c-4.6,1.53-7.73,5.29-11.25,8.18-5.99,4.93-12.01,9.86-18.03,14.77-5.19,4.23-10.21,8.67-15.57,12.72-4.54,3.43-8.84,7.27-13.26,10.92-4.36,3.59-8.75,7.14-13.12,10.71-4.61,3.76-9.23,7.5-13.8,11.31-3.23,2.7-6.8,5.01-9.28,8.62,19.29-13.93,38.58-27.87,57.87-41.8,.22,.29,.44,.58,.66,.87-40.17,31.15-80.35,62.3-120.58,93.5,.73,.69,1.19,.6,1.53,.35,7.62-5.53,15.22-11.1,22.84-16.63,6.43-4.68,12.87-9.35,19.33-13.99,4.96-3.55,9.98-7.02,14.94-10.57,5.2-3.72,10.34-7.52,15.53-11.26,5.09-3.67,10.2-7.31,15.31-10.95,4.95-3.52,9.9-7.05,14.88-10.54,5.03-3.52,10.27-6.76,15.1-10.53,6.46-5.04,13.38-9.41,19.98-14.24,4.64-3.39,9.43-6.58,14-10.05,.94-.72,1.64-1.66,2.92-1.76v-19.62ZM199.3,4.13c4,8.31,9.04,16.04,13.38,24.16,3.12,5.84,6.31,11.64,9.56,17.41,4.6,8.16,9.51,16.16,13.86,24.45,4.72,9.02,10.3,17.58,14.44,26.9,.34,.77,1.06,1.1,2.4,1.4-5.59-11-10.97-21.58-16.35-32.17,.25-.13,.51-.26,.76-.39,5.33,9.73,10.66,19.46,15.99,29.19,.28-.14,.57-.29,.85-.43-8.68-17.53-17.36-35.05-26.04-52.58l.81-.42c6.3,11.67,12.6,23.34,18.92,35.05,1.07-.69,.71-1.39,.38-2.06-2.62-5.24-5.36-10.42-7.82-15.74-1.44-3.11-2.8-6.31-4.35-9.33-4.04-7.9-7.71-15.97-11.53-23.97-2.4-5.04-5.08-9.94-7.47-14.98C215.44,7.15,214.08,3.55,212.6,0h-15.7c.2,.78,.39,1.56,.59,2.34,.62,.59,1.46,1.07,1.81,1.79ZM597.89,0c-2.8,6.76-5.61,13.51-8.41,20.27-.27-.11-.55-.23-.82-.34,2.64-6.64,5.28-13.29,7.92-19.93h-5.23c-1.54,4.4-3.08,8.8-4.62,13.19-1.68,4.88-3.72,9.62-5.37,14.52-2.54,7.57-5.68,14.94-8.53,22.41-1.35,3.53-2.57,7.11-3.93,10.63-2.7,6.98-5.57,13.88-8.15,20.9-2.44,6.66-4.86,13.35-7.48,19.92-3.53,8.85-6.7,17.85-10.4,26.64-3.19,7.58-6.01,15.31-8.97,22.99-.26,.66-.52,1.53,.57,1.7,8.26-19.95,16.5-39.86,24.75-59.77,.22,.08,.44,.16,.66,.23l-8.55,22.15c1.05-.68,1.9-1.45,2.24-2.41,1.89-5.37,4.38-10.48,6.56-15.72,4.77-11.49,9.76-22.87,14.75-34.26,4.38-9.97,8.56-20.03,12.9-30.03,4.03-9.29,8.09-18.57,12.12-27.86,.69-1.59,1.95-3.25,1.27-5.25h-3.27Zm252.5,684.24c-3.15-2.12-6.3-4.24-9.45-6.36-.54-.04-1.19,.11-1.59-.15-4.21-2.73-8.85-4.79-12.96-7.59-5.73-3.89-11.92-6.95-17.73-10.69-6.09-3.92-12.78-6.91-18.86-10.84-9.39-6.06-19.09-11.57-28.67-17.29-7.52-4.49-15.17-8.77-22.6-13.4-3.46-2.16-6.97-4.2-10.46-6.29-3.94-2.35-7.73-4.96-11.7-7.26-6.47-3.75-12.91-7.54-19.2-11.58-.99-.63-1.95-1.96-3.62-1.04,4.96,3.74,10.19,6.77,15.33,9.94,5.87,3.62,11.57,7.51,17.36,11.24,5.57,3.59,11.21,7.07,16.76,10.7,5.42,3.54,10.55,7.57,16.2,10.7,5.92,3.28,11.35,7.27,17.01,10.9,7.59,4.87,15.32,9.56,22.73,14.74,3.49,2.44,7.25,4.52,10.76,6.89,4.05,2.74,8.17,5.37,12.25,8.06,5.53,3.65,10.83,7.69,16.55,10.99,4.08,2.35,7.62,5.5,11.89,7.49v-9.16Zm-558.64,166.15c1.7-7.59,4.27-14.92,6.57-22.33,3.61-11.62,6.7-23.41,10.48-34.97,1.34-4.11,2.06-8.35,3.44-12.41,3.06-8.99,5.7-18.1,8.54-27.15,1.39-4.45,2.63-8.93,3.96-13.39,2.32-7.78,5.25-15.39,7.53-23.18,1.81-6.18,3.44-12.41,5.81-18.42,.3-.75,.46-1.67-.74-2.27-3.26,9.75-6.31,19.44-9.7,29.01-3.31,9.33-6.2,18.79-9.5,28.13-3.29,9.29-6.07,18.77-9.4,28.06-2.83,7.9-5.18,15.96-7.91,23.9-.67,1.96-1.07,4.12-2.57,5.74-.06,3.56-2.63,6.41-2.64,8.29,.74-1.67-.12-5.49,2.72-8.23-.05-1.54,.22-3.03,.76-4.47,3.15-8.45,4.92-17.36,8.35-25.73,.4-.99,1.2-2.24,.37-3.59-.92,1.46-1.95,2.66-2.39,4.29-1.59,5.8-3.7,11.41-5.75,17.06-3.76,10.39-7.63,20.73-11.03,31.26-.94,2.92-1.92,5.92-3.28,8.7-1.82,3.75-2.26,7.96-4.05,11.7h10.47Zm279.32,0c-6.54-18.12-13.09-36.24-19.63-54.36-.34,.11-.69,.22-1.03,.33,3.41,11.08,6.82,22.16,10.24,33.24-.15-1.14-1.6-1.27-1.86-2.31-1.67-6.69-4.42-13.02-6.58-19.54-2.94-8.87-6.12-17.64-9.18-26.46-3.4-9.78-6.6-19.62-9.83-29.45-2.36-7.17-5.04-14.22-7.22-21.46-2.4-7.98-5.41-15.78-8.12-23.67-1.59-4.61-3.13-9.24-4.82-14.26-1.58,2.07,.23,2.98,.54,4.16,2.64,10.18,6.12,20.11,9.31,30.12,2.12,6.65,4.06,13.35,6.21,20,3.21,9.93,6.44,19.87,9.25,29.92,2.32,8.32,5.33,16.42,7.53,24.79,2.8,10.67,7.04,20.93,9.5,31.73,.09,.41,.32,.79,.47,1.19,1.9,5.25,3.62,10.56,4.79,16.02h10.47ZM829.91,212.46c-4.36,2.55-8.95,4.68-13.37,7.13-6.58,3.64-12.94,7.75-19.71,10.99-6.95,3.33-13.58,7.26-20.36,10.86-8.92,4.73-17.91,9.35-26.69,14.34-4.47,2.54-9.16,4.68-13.58,7.24-8.65,5.02-17.8,9.09-26.31,14.29-3.59,2.2-7.99,3.02-11.49,6.75,4.47-.99,7.6-3.39,11.09-4.92,5.34-2.33,10.39-5.31,15.61-7.93,4.67-2.34,9.42-4.51,14.08-6.86,5.33-2.68,10.58-5.54,15.92-8.21,5.16-2.58,10.43-4.96,15.6-7.52,5.25-2.6,10.42-5.38,15.67-7.99,4.81-2.39,9.69-4.61,14.51-6.99,7.86-3.88,15.75-7.73,23.51-11.8,5.67-2.97,11.59-5.43,17.25-8.44,2.81-1.49,5.42-3.65,8.77-4.09v-7.85c-1.04,.01-1.95,.36-2.75,1.03-5.58,3.92-11.89,6.52-17.74,9.95ZM0,527.24v11.12c.65,.01,1.44,.28,1.92,0,4.45-2.63,9.73-2.44,14.44-4.4,4.95-2.06,10.39-2.96,15.6-4.41,.74-.21,1.79,0,2.32-1.99-6.49,2.25-12.86,2.79-18.97,4.75,.73-1.16,1.68-1.5,2.8-1.71,6.39-1.17,12.57-3.23,18.89-4.73,8.56-2.04,16.9-5,25.43-7.23,7.6-1.99,15.21-3.92,22.75-6.16,8.26-2.46,16.61-4.67,25.03-6.54,6.12-1.36,12.15-3.09,18.22-4.61,4.91-1.23,10.1-1.98,14.76-4.52-.85-.61-1.6-.33-2.32-.14-5.49,1.44-10.93,3.17-16.49,4.26-7.4,1.45-14.69,3.36-22,5.13-9.82,2.38-19.75,4.3-29.47,7.18-7.96,2.36-16.24,3.62-24.38,5.35-.84,.18-1.65,.43-2.47,.66-5.33,1.5-10.71,2.84-16.07,4.22-.08-.29-.16-.57-.23-.86,6.57-1.81,13.14-3.62,19.89-5.48-1.07-.45-1.9-.08-2.75,0-6.28,.52-12.14,3.02-18.36,3.87-1.07,.15-2.2,.18-3.19,.56-6.27,2.44-13.09,2.43-19.46,4.41-1.95,.42-3.91,.85-5.86,1.27ZM0,17.66c.87,.63,1.92,1.12,2.56,1.93,3.97,5.02,8.99,9,13.54,13.42,5.09,4.95,10.05,10.09,15.49,14.66,4.35,3.66,8,8.01,12.34,11.68,4.88,4.13,9.56,8.52,14.02,13.1,4.76,4.88,9.89,9.34,14.77,14.08,4.56,4.42,9.22,8.74,13.83,13.12,3.7,3.51,7.4,7.03,11.08,10.56,7.44,7.13,14.86,14.29,22.33,21.4,3.68,3.51,7.49,6.89,11.19,10.38,3.55,3.35,7.05,6.76,10.56,10.16,3.58,3.47,7.13,6.98,10.73,10.44,.25,.24,.79,.37,1.31-.24-1.8-2.15-4.01-3.96-5.95-6.01-6.41-6.75-13.14-13.18-19.81-19.63-6.88-6.65-13.75-13.32-20.61-20.01-7.15-6.97-14.2-14.03-21.3-21.04-4.11-4.06-8.2-8.13-12.34-12.17-3.84-3.75-7.76-7.42-11.58-11.19-4.61-4.56-9.1-9.23-13.73-13.78-3.62-3.56-7.42-6.94-11.04-10.5-4.69-4.62-9.23-9.38-13.91-14-4.67-4.62-9.35-9.24-14.16-13.71C6.25,17.43,3.76,13.91,0,11.77v5.89ZM838.62,0c-.54,.8-.92,1.8-1.65,2.35-4.07,3.14-7.31,7.15-10.76,10.85-4.54,4.88-9.44,9.41-13.84,14.43-4.41,5.03-9.31,9.63-13.95,14.47-4.05,4.22-8.01,8.53-12.05,12.75-4.61,4.82-9.29,9.57-13.9,14.39-4.2,4.38-8.28,8.89-12.55,13.17-3.73,3.73-7.47,7.5-11.15,11.28-3.7,3.8-7.38,7.63-11.08,11.45-3.4,3.5-6.87,6.93-10.24,10.47-4.03,4.22-7.92,8.58-11.98,12.77-4.9,5.05-10.01,9.9-14.84,15.02-2.16,2.29-4.72,4.34-6.3,7.99,2.67-2.62,4.84-4.78,7.05-6.9,4.45-4.27,8.69-8.76,13.06-13.11,4.81-4.8,9.67-9.58,14.31-14.55,3.56-3.82,7.48-7.26,11.02-11.1,4.41-4.79,9.19-9.23,13.88-13.75,4.5-4.32,8.68-8.96,13.29-13.19,4.87-4.47,9.2-9.51,13.87-14.2,3.6-3.62,7.58-6.89,10.97-10.69,4.17-4.67,8.65-9.09,13.16-13.34,5.86-5.53,11.36-11.43,17.23-16.95,6.23-5.85,12.23-12.01,18.08-18.26,1.48-1.58,4.18-2.54,4.26-5.34h-5.89Zm11.77,523.97c-4.4-.43-8.65-1.43-12.95-2.55-8.75-2.28-17.67-3.96-26.51-5.91-8.73-1.93-17.44-3.91-26.15-5.9-9.86-2.26-19.84-4.01-29.63-6.63-4.68-1.25-9.5-1.88-14.23-3.04-8.87-2.19-17.8-4.25-26.75-6.11-6.67-1.38-13.19-3.41-19.93-4.4-1.26-.19-2.48-.73-3.68-1.1-2.94-.89-6.04-1.22-9.08-1.78,7.36,2.55,14.67,5.05,22.25,6.5,1.6,.31,3.26,.46,4.8,.96,8.76,2.87,17.87,4.39,26.7,7.07,7.22,2.19,14.79,3.2,22.02,5.33,8.86,2.61,17.89,4.52,26.77,7.02,6.82,1.92,13.76,3.59,20.7,5.17,9.96,2.27,19.71,5.44,29.66,7.79,5.37,1.27,10.61,2.95,16,4.11v-6.54Zm0-510.89c-46.08,44.99-92.15,89.98-138.35,135.09,1.87,1.08,2.34-.32,3.02-.96,3.8-3.58,7.5-7.27,11.31-10.83,6.26-5.86,12.63-11.58,18.84-17.49,5.77-5.49,11.34-11.19,17.1-16.69,5.7-5.44,11.53-10.74,17.29-16.13,3.51-3.28,6.99-6.57,10.46-9.89,3.4-3.26,7.1-6.26,10.34-9.6,4.73-4.89,10.02-9.15,14.71-14.07,4.48-4.69,9.5-8.86,14.21-13.34,7.05-6.7,14.04-13.47,21.06-20.2v-5.89Zm-94.85,837.31c-.4-.77-.64-1.68-1.21-2.28-5.21-5.35-9.45-11.5-14.36-17.11-7.02-8.01-13.49-16.49-20.19-24.78-5.03-6.22-10.03-12.46-15.08-18.67-4.69-5.77-9.56-11.41-14.11-17.3-4.36-5.64-9.33-10.8-13.18-16.83-.53-.83-1.07-1.26-2.29-.98,4.52,6.27,8.92,12.41,13.35,18.53,4.66,6.44,9.35,12.86,14.01,19.29,2.49,3.44,4.85,7.01,7.41,10.36,3.87,5.07,7.41,10.35,11.16,15.49,3.6,4.93,7.05,10.01,10.67,14.91,4.74,6.41,9.12,13.07,14.01,19.37h9.81Zm26.82,0c-.22-.5-.32-1.11-.68-1.47-5.74-5.72-10.55-12.24-15.86-18.32-4.76-5.45-9.4-11-14.09-16.51-2.49-2.92-4.76-6.06-7.31-8.88-4.71-5.22-9.04-10.76-13.71-16.01-3.88-4.36-7.87-8.64-11.47-13.23-3.16-4.03-6.53-7.85-9.85-11.72-3.79-4.41-7.51-8.9-11.25-13.36-4.72-5.62-9.44-11.24-14.15-16.88-4.54-5.42-8.9-11.01-13.64-16.25-4.93-5.46-9.38-11.3-14.23-16.81-3.16-3.58-5.89-7.57-10.26-11.35,1.04,3.7,3.47,5.34,5.13,7.38,3.56,4.36,7.26,8.64,10.77,13.01,5.75,7.17,11.79,14.1,17.49,21.3,4.22,5.33,8.77,10.41,13.08,15.67,4.72,5.77,9.3,11.66,14,17.44,4.69,5.78,9.45,11.51,14.2,17.24,4.61,5.57,9.23,11.12,13.85,16.67,4.55,5.48,9.1,10.97,13.6,16.49,4.86,5.95,9.79,11.85,14.59,17.85,3.38,4.23,7.2,8.14,10.28,12.58,1.18,1.7,3.68,2.57,3.58,5.14h5.89ZM0,630.6c5.32-3.36,11.21-5.58,16.81-8.39,4.58-2.3,9.26-4.41,13.86-6.69,7.54-3.74,15.05-7.56,22.58-11.32,3.56-1.77,7.14-3.5,10.73-5.21,4.9-2.34,9.81-4.69,14.74-6.98,3.39-1.57,6.93-3,10.09-4.85,4.92-2.87,10.26-4.76,15.19-7.53,3.95-2.22,8.4-3.53,12.57-6.61-3.21-.31-4.75,1.73-6.78,2.59-5.8,2.46-11.65,4.88-17.25,7.75-6.28,3.21-12.7,6.1-19.06,9.11-4.62,2.18-9.21,4.41-13.87,6.52-6.51,2.95-12.81,6.38-19.56,8.83-.06,.21-.06,.55-.18,.6-4.5,1.84-8.61,4.64-13.55,5.45,4.48-2.12,8.95-4.24,13.43-6.35,7.13-3.71,14.36-7.22,21.47-10.94,9.35-4.89,19.07-8.98,28.44-13.81,5.2-2.68,10.58-5.03,15.88-7.52-.16-.15-.33-.31-.49-.46-5.05,.92-9.33,3.77-13.98,5.69-7.97,3.28-15.57,7.44-23.46,10.94-5.39,2.39-10.64,5.04-16.08,7.34-9.79,4.14-19.23,9.11-28.94,13.47-7.58,3.4-15.15,6.82-22.59,10.51v7.85ZM850.39,307.45c-3.62,0-6.84,1.55-10.24,2.51-7.66,2.17-15.33,4.32-22.97,6.57-12.73,3.74-25.53,7.25-38.29,10.87-10.24,2.91-20.45,5.89-30.7,8.74-3.95,1.1-7.92,2.22-11.81,3.45-9.71,3.07-19.63,5.36-29.36,8.32-5.27,1.6-10.62,2.94-16.11,4.44,.87,1.16,1.67,1.04,2.35,.79,8.49-3.2,17.5-4.51,26.15-7.15,6.5-1.98,13.26-3.11,19.84-4.83,9.04-2.36,17.97-5.15,27.05-7.32,7.85-1.87,15.63-3.98,23.44-5.97,9.14-2.34,18.29-4.65,27.46-6.83,6.01-1.43,11.98-3.01,17.96-4.51,5.05-1.27,10.07-2.46,15.22-3.19v-5.89ZM7.56,524.7c4.27-1.05,8.58-1.83,12.83-3.06,8.37-2.41,16.94-4.14,25.4-6.27,7.4-1.86,14.76-3.95,22.19-5.61,10.61-2.38,21.09-5.27,31.69-7.65,2.12-.48,4.35-.59,6.4-1.27,9.27-3.12,18.88-4.95,28.35-7.2,6.18-1.46,12.32-3.14,18.55-4.43,2.27-.47,4.74-1.15,6.88-2.42-3.68,.63-7.31,1.45-10.94,2.21-9.06,1.89-18.03,4.2-27.08,6.09-8.87,1.86-17.7,3.84-26.55,5.79-10,2.21-20.03,4.36-30.05,6.46-9.05,1.9-18.09,3.75-27.09,5.89-6.18,1.47-12.46,2.8-18.74,3.76-6.53,.99-12.73,3.6-19.4,3.72v6.54c1.95-.42,3.91-.85,5.86-1.27,.29-.79,.86-1.06,1.69-1.27Zm842.84,129.45c-4.54-.57-8.15-3.41-11.99-5.41-6.97-3.63-13.99-7.18-20.92-10.89-5.03-2.69-10.17-5.2-15.21-7.85-4.98-2.63-9.93-5.37-14.94-7.96-4.45-2.3-8.99-4.44-13.42-6.8-6.69-3.56-13.22-7.41-19.97-10.84-5.89-2.99-11.81-5.9-17.52-9.23-.67-.39-1.34-1.1-2.19-.24,1.2,1.15,2.41,2.07,3.94,2.76,2.84,1.28,5.51,2.95,8.21,4.52,6,3.5,11.94,7.09,17.95,10.57,6.57,3.8,13.2,7.5,19.77,11.3,6.03,3.48,11.91,7.24,18.06,10.5,6.43,3.4,12.7,7.1,18.93,10.79,8.24,4.88,16.66,9.47,24.84,14.45,1.4,.85,2.36,2.7,4.44,2.18v-7.85Zm0-180.55c-.9-.9-2.03-1.2-3.26-1.32-11.33-1.08-22.74-1.2-34.01-3.22-7.54-1.35-15.28-1.25-22.92-2.44-11.23-1.75-22.68-1.9-34.01-3.35-12.02-1.54-24.17-2.07-36.21-3.71-2.8-.38-5.62-.65-8.45-.76-9.51-.37-18.81-2.92-28.4-2.58,2.43-.24,4.5,1.19,6.75,1.49,9.22,1.26,18.53,1.58,27.72,3.43,7.94,1.6,16.12,1.49,24.15,3.08,8.91,1.76,18.14,1.54,27.11,3.49,5.47,1.19,11.12,1.37,16.68,2.38,8.81,1.6,17.85,1.83,26.73,3.46,6.72,1.24,13.73,1.02,20.41,2.39,5.88,1.21,11.77,1.7,17.69,2.23v-4.58ZM56.91,850.39c.77-1.04,1.45-2.16,2.32-3.12,5.71-6.31,11.09-12.89,16.83-19.18,6.08-6.68,11.37-14.08,17.46-20.75,5.81-6.36,11.17-13.09,16.96-19.47,7.86-8.65,15.09-17.88,22.7-26.77,9.15-10.69,18.39-21.3,27.63-31.91,4.53-5.2,9.37-10.15,13.61-15.57,1.68-2.15,4.1-3.94,5.37-7.51-1.69,1.41-2.82,2.14-3.68,3.11-5.56,6.31-11,12.72-16.59,19-5.44,6.11-10.83,12.28-16.36,18.32-4.66,5.1-9.17,10.36-13.78,15.51-3.54,3.95-6.81,8.15-10.45,12-6.89,7.28-13.11,15.15-20.13,22.32-4.23,4.32-7.87,9.21-11.98,13.66-5.19,5.62-10.14,11.45-15.31,17.08-4.1,4.47-8.35,8.89-12.04,13.73-2.5,3.28-6.09,5.65-7.8,9.55h5.23Zm754.23,0c-1.26-3.11-4.35-4.65-6.21-7.18-4.32-5.86-9.63-10.86-14.5-16.19-7.36-8.06-14.99-15.91-22.35-23.97-6.83-7.49-13.8-14.88-20.44-22.57-7.2-8.33-15.3-15.89-22.61-24.13-10.51-11.84-21.31-23.41-32.05-35.03-.16,.15-.32,.3-.49,.45,.41,.76,.69,1.64,1.25,2.27,8.18,9.23,16.41,18.42,24.59,27.65,7.28,8.21,14.43,16.53,21.8,24.65,7.23,7.96,14.13,16.21,21.42,24.11,6.93,7.51,13.34,15.47,20.47,22.81,5.55,5.71,10.63,11.88,15.73,18.01,2.51,3.03,5.74,5.48,7.5,9.12h5.89Zm39.25-424.54c-7.94,.05-15.87,.73-23.78,.87-26.9,.45-53.82,.36-80.73,.41-21.32,.05-42.64,0-63.97,0,5.11,.68,10.21,1.11,15.32,1.21,26.98,.53,53.97,.41,80.95,1.75,24.04,1.2,48.13,1.14,72.2,1.63v-5.89ZM491.27,0c-.1,1.49-.21,2.98-.31,4.47-1.05,6.73-1.37,13.53-2.85,20.26-1.69,7.66-1.6,15.64-3.35,23.38-1.6,7.06-1.59,14.37-3.12,21.52-1.67,7.81-1.56,15.93-3.45,23.78-1.21,5.02-1.38,10.23-2.4,15.35-1.59,8.04-1.84,16.32-3.6,24.38-1.4,6.44-.9,13.2-2.97,19.57-.37,1.15-.8,2.63,.64,3.94C478.45,104.11,488.24,52.13,497.15,0h-5.89ZM30.09,0c.18,2,2.01,2.65,3.14,3.88,4.53,4.94,9.04,9.9,13.6,14.81,4.07,4.38,8.21,8.69,12.29,13.05,4.35,4.66,8.33,9.7,13.06,13.93,5.04,4.5,9.12,9.83,13.98,14.48,4.68,4.48,8.79,9.55,13.24,14.27,8.97,9.5,18.04,18.91,27.01,28.42,5.29,5.6,10.47,11.3,15.8,17.06,.57-1.22-.01-1.84-.44-2.6-1.34-2.42-3.82-3.7-5.53-5.77-3.8-4.62-7.86-9.01-12.07-13.27-3.49-3.54-6.62-7.43-9.89-11.18-5.59-6.4-11.55-12.47-17.04-18.97-4.31-5.11-9.15-9.76-13.64-14.72-4.73-5.22-9.25-10.63-13.98-15.85-4.48-4.94-9.35-9.55-13.61-14.66-3.85-4.61-8.28-8.67-12-13.38C41.44,6.23,37.96,3.75,35.98,0h-5.89ZM0,788.9c3.88-1.38,6.12-4.88,9.11-7.35,8.86-7.32,17.27-15.17,25.96-22.71,8.84-7.66,17.82-15.15,26.68-22.79,9.67-8.34,19.27-16.76,28.91-25.13,6.59-5.73,13.18-11.47,19.81-17.16,4.04-3.47,8.42-6.6,12.18-10.34,3.02-3,6.82-5.18,9.49-8.8-2.67-.46-3.06,2-4.53,2.9-4.86,2.96-8.81,7.1-13.14,10.71-4.56,3.8-9.2,7.55-13.64,11.51-5.3,4.73-10.96,9.06-16.36,13.68-5,4.28-10.02,8.53-15.08,12.72-5.98,4.95-11.91,9.97-17.89,14.92-6.42,5.31-12.71,10.77-19.12,16.07-7.15,5.9-14.17,11.95-21.43,17.72-3.67,2.92-6.93,6.35-10.95,8.82v5.23Zm407.53,61.49c.15-8.46,.83-16.91,1.19-25.35,.95-22.19,.87-44.43,1.71-66.62,.39-10.19,.46-20.39,1.31-30.6,1.08-13.07,1.32-26.26,.67-39.43,.28,5.69-1.07,11.23-1.46,16.83-1.36,19.73-.97,39.56-3.35,59.25-.76,6.25-.37,12.62-.9,18.91-.9,10.81-.82,21.65-2.12,32.47-1.37,11.42-1.15,23.03-1.62,34.56h4.58ZM0,249.23c4,1.26,7.94,2.85,11.69,4.59,8.65,4.01,17.78,6.74,26.42,10.75,7.07,3.28,14.42,5.95,21.67,8.75,11.54,4.46,22.99,9.13,34.46,13.76,3.2,1.29,6.56,2.19,9.64,3.66,6.57,3.15,13.54,5.3,20.15,8.32,.68,.31,1.61,1.07,2.82-.19-2.47-.26-3.92-1.94-5.98-2.71-6.34-2.35-12.74-4.71-18.75-7.76-9.55-4.85-19.71-8.26-29.25-13.13-6.47-3.3-13.53-5.43-20.09-8.57-10.73-5.13-21.73-9.65-32.53-14.6-3.08-1.41-6.26-2.66-9.27-4.32-3.44-1.89-7.3-3-10.97-4.45v5.89ZM850.39,839.27c-1.08-.26-2.07-.74-2.76-1.62-3.11-3.97-7.18-6.98-10.68-10.57-6.69-6.88-13.99-13.16-20.86-19.89-10.33-10.13-20.78-20.13-31.2-30.16-7.28-7-14.61-13.94-21.89-20.93-6.64-6.37-13.17-12.88-19.95-19.1-1.63-1.5-2.84-3.71-5.33-4.23,1.47,1.44,2.61,3.11,4.12,4.55,5.82,5.55,11.21,11.55,16.88,17.26,5.67,5.7,11.55,11.19,17.23,16.89,5.68,5.71,11.16,11.63,16.84,17.35,5.54,5.57,11.48,10.76,16.78,16.55,7.44,8.12,15.52,15.58,23.09,23.57,5.71,6.03,11.8,11.7,17.73,17.53v-7.2Zm-481.45,11.12c1.44-8.65,1.3-17.46,3.15-26.11,1.42-6.62,1.42-13.51,2.61-20.25,1.58-8.94,1.66-18.09,3.19-27.11,1.68-9.91,1.83-20.05,3.57-30,.79-4.48,.48-9.19,1.56-13.58,1.83-7.42,1.64-14.99,2.65-22.49-.51,.26-.89,.57-.95,.94-1.61,9.66-3.2,19.34-4.57,29.03-1.44,10.18-3.16,20.32-4.45,30.52-1.23,9.73-3.25,19.36-4.66,29.05-1.54,10.59-3.64,21.11-4.59,31.77-.55,6.16-2.84,12.02-2.76,18.24h5.23ZM850.39,119.71c-1.34-.26-2.24,.56-3.2,1.28-6.37,4.77-12.73,9.57-19.16,14.27-5.08,3.72-10.26,7.29-15.36,10.96-6.45,4.65-12.91,9.29-19.3,14.02-3.42,2.53-7.03,4.87-10.32,7.5-4.72,3.78-9.78,7.03-14.59,10.66-5.09,3.83-10.43,7.39-15.52,11.2-7.69,5.74-15.55,11.24-23.23,16.99-6.06,4.54-12.39,8.72-18.38,13.34-1.21,.93-3.56,1.25-3.6,4.07,1.82-1.33,3.29-2.44,4.79-3.49,6.82-4.76,13.66-9.5,20.47-14.27,4.98-3.49,9.94-7,14.9-10.53,4.93-3.51,9.71-7.23,14.78-10.52,5.38-3.5,10.32-7.61,15.8-10.99,5.13-3.16,9.64-7.32,14.7-10.61,5.36-3.49,10.52-7.28,15.8-10.86,4.98-3.38,9.83-7.04,14.67-10.67,5.1-3.83,10.32-7.53,15.71-10.95,3.76-2.38,6.98-5.54,11.03-7.47v-3.92Zm0,382.02c-7.73-2.52-15.92-2.63-23.78-4.59-6.16-1.53-12.56-1.96-18.83-3.07-11.9-2.1-23.91-3.63-35.75-6.14-6.22-1.32-12.57-1.83-18.84-3.03-7.95-1.52-16.01-2.67-24-4.08-4.02-.71-8.1-1.03-12.16-1.52,10.23,2.67,20.53,4.75,30.82,6.86,5.16,1.06,10.38,1.71,15.54,2.98,9.83,2.42,19.87,3.96,29.8,6.04,9.28,1.94,18.55,3.99,27.86,5.69,9.79,1.79,19.41,4.48,29.35,5.43v-4.58Zm0,196.9c-.73-.08-1.37-.19-2.06-.67-2.43-1.7-4.9-3.38-7.53-4.75-4.18-2.18-7.93-5.04-12.09-7.29-5.89-3.17-11.4-7.06-17.15-10.51-6.65-4-13.37-7.87-19.8-12.22-1.81-1.23-3.84-2.14-5.77-3.2-.13,.24-.25,.47-.38,.71,11.93,8.33,23.87,16.66,35.8,24.99-5.09-1.52-9.14-4.97-14.06-7.79,.37,1.4,.84,1.89,1.47,2.34,4.9,3.45,9.84,6.85,14.64,10.44,6.11,4.58,12.43,8.88,18.57,13.41,2.51,1.85,4.66,4.9,8.34,5v-10.47ZM25.51,850.39c2.61-4.48,6.88-7.48,10.15-11.38,4.17-4.97,8.92-9.45,13.34-14.21,4.62-4.98,9.13-10.08,13.74-15.08,4.87-5.28,9.82-10.47,14.69-15.75,4.38-4.76,8.65-9.61,13.05-14.36,4.55-4.9,9.19-9.71,13.78-14.57,4.18-4.43,8.47-8.78,12.45-13.4,1.28-1.48,3.62-2.48,3.81-5.47-7.93,6.93-14.19,14.64-21.37,21.45-3.84,3.64-7.01,8-10.94,11.53-6.02,5.41-11.01,11.77-16.93,17.27-4.98,4.63-9.49,9.76-14.26,14.62-5.39,5.49-10.74,11.01-16.03,16.58-5.08,5.34-10.63,10.26-15.33,15.93-1.95,2.35-5.09,3.63-6.03,6.82h5.89ZM295.02,0c-.14,.88,.03,1.7,.27,2.56,2.6,9.09,5.9,17.95,8.74,26.96,3,9.53,6.32,18.96,9.15,28.52,3.47,11.71,7.59,23.21,10.86,34.98,2.55,9.18,5.91,18.14,8.54,27.31,.91,3.17,2.32,6.06,3.42,9.13,.16-.46,.2-.89,.1-1.29-2.46-9.23-5.25-18.36-8.01-27.51-2.42-8.04-4.81-16.13-6.86-24.27-2.32-9.23-5.44-18.22-7.59-27.5-1.06-4.59-2.32-9.18-3.68-13.69-1.86-6.16-3.44-12.4-5.39-18.51C302.82,11.16,302.1,5.31,299.6,0h-4.58Zm432.21,672.02c5.18,5.31,11.28,9.55,16.84,14.43,5.53,4.85,11.47,9.23,17.13,13.94,6.61,5.51,13.08,11.19,19.67,16.72,5.94,4.99,12.03,9.82,17.94,14.85,6.32,5.38,12.64,10.77,19.09,15.96,4.37,3.52,8.65,7.21,13.1,10.66,5.2,4.03,10.06,8.54,15.28,12.59,1.32,1.03,2.04,2.84,4.12,2.7v-3.93c-3.3-2.81-6.4-5.89-9.94-8.36-6.12-4.28-11.51-9.44-17.57-13.8-6-4.32-11.53-9.31-17.3-13.96-5.55-4.47-11.16-8.87-16.72-13.33-6.55-5.26-13.04-10.59-19.64-15.8-5.42-4.27-10.88-8.52-16.22-12.87-6.67-5.43-13.34-10.92-20.02-16.36-1.65-1.34-2.82-3.64-5.31-3.92-.15,.16-.3,.32-.45,.47ZM585.46,0c-1.67,3.62-2.75,7.44-4.04,11.2-3.5,10.12-7.41,20.11-11.07,30.17-1.62,4.46-2.79,9.11-4.61,13.48-4.33,10.37-7.71,21.07-11.63,31.59-2.54,6.81-5.27,13.55-7.77,20.38-.91,2.48-1.8,5.03-2,8.14,3-5,4.3-10.26,6.46-15.15,2.94-6.67,5.13-13.66,8.01-20.36,1.19-2.76,1.88-5.74,3.27-8.35,3.03-5.67,4.94-11.81,7.32-17.72,1.55-3.85,2.99-7.86,4.59-11.67,3.15-7.49,6.35-14.94,9.14-22.58,.79-2.17,1.58-4.46,3.59-5.94,1.54-4.4,3.08-8.8,4.62-13.19h-5.89ZM160.27,850.39c.86-1.22,1.9-2.34,2.54-3.67,2.99-6.19,7.17-11.66,10.61-17.58,5.62-9.69,11.9-19,17.73-28.57,3.5-5.75,6.93-11.57,10.54-17.24,3.76-5.9,7.23-11.99,11.12-17.81,2.67-3.99,4.82-8.36,7.48-12.31,4.76-7.07,8.85-14.55,13.61-21.61,3.88-5.74,7.12-11.88,11.14-17.55,1.66-2.34,3.47-4.96,4.6-8.53-1.1,.69-1.74,.86-1.96,1.26-3.02,5.67-7.1,10.68-10.19,16.28-2.31,4.2-5.06,8.12-7.58,12.16-4.55,7.32-9.33,14.52-13.96,21.8-3.49,5.5-6.79,11.13-10.47,16.49-3.97,5.78-7.57,11.79-11.34,17.7-3.9,6.12-7.83,12.23-11.78,18.33-3.12,4.81-6.35,9.55-9.42,14.4-4.62,7.31-9.07,14.74-13.77,22.01-.93,1.44-2.38,2.5-2.19,4.45h3.27Zm629.29,0c.14-1.62-.94-2.59-1.93-3.59-1.34-1.35-2.9-2.54-4.02-4.06-5.31-7.2-11.64-13.52-17.39-20.35-6.5-7.73-13.47-15.07-20.1-22.68-8.55-9.82-16.95-19.76-25.46-29.62-7.24-8.39-14.53-16.72-21.8-25.08-1.41-1.62-2.85-3.2-4.27-4.79-.67,.6-.83,1.06-.52,1.42,7.15,8.58,14.31,17.15,21.49,25.7,7,8.34,14.18,16.54,21.01,25.01,4.48,5.55,8.95,11.17,13.64,16.47,7.9,8.92,15.06,18.43,23.04,27.27,4.12,4.57,7.83,9.51,11.73,14.29h4.58ZM311.37,0c2.45,5.53,3.26,11.54,4.96,17.29,3.32,11.24,6.51,22.52,9.51,33.85,2.87,10.85,6.51,21.48,9.04,32.4,2.28,9.84,5.68,19.35,7.9,29.21,.75,3.34,1.71,6.76,3.12,9.99-.66-4.64-1.73-9.16-2.79-13.73-2.92-12.49-6.33-24.84-9.29-37.3-1.91-8.05-3.69-16.12-5.85-24.12-2.59-9.56-4.57-19.29-6.85-28.94C319.64,12.42,318.11,6.21,316.61,0h-5.23ZM0,88.31c5.78,2.88,10.23,7.59,15.4,11.3,4.75,3.42,8.97,7.57,13.75,10.96,4.91,3.48,9.36,7.5,14.17,11.08,4.52,3.38,8.82,7.05,13.29,10.51,4.64,3.6,9.42,7.02,14.03,10.66,4.61,3.63,8.95,7.63,13.68,11.1,7.32,5.36,14.14,11.33,21.39,16.77,2.73,2.05,5.05,4.82,8.63,6.02-.09-1.17-.8-1.52-1.36-1.94-5.6-4.22-10.82-8.92-16.37-13.21-8-6.19-15.54-12.97-23.38-19.38-6.91-5.66-13.98-11.12-20.93-16.74-7.01-5.67-13.95-11.43-20.91-17.16-7.25-5.97-14.36-12.13-21.81-17.84-3.2-2.45-5.68-5.85-9.58-7.37v5.23ZM850.39,727.41c-.79-.36-1.79-.53-2.32-1.12-2.97-3.31-7.08-5.03-10.5-7.73-4.84-3.82-10.15-7.02-15.22-10.56-7.25-5.06-14.44-10.19-21.67-15.27-7.67-5.4-15.2-11-23.03-16.18-3.2-2.11-6.43-4.24-9.43-6.61-6.02-4.74-12.51-8.8-18.67-13.33-6.63-4.87-13.23-9.81-20.06-14.39-2.66-1.78-5.05-4.2-8.9-5.3,1.27,1.72,2.45,2.59,3.67,3.43,2.72,1.87,5.5,3.68,8.12,5.7,6.9,5.34,14.13,10.24,21.17,15.38,5.26,3.83,10.48,7.78,15.89,11.44,7.93,5.36,15.37,11.43,23.07,17.12,5.32,3.93,10.73,7.74,16.11,11.6,6.36,4.56,12.9,8.89,19,13.76,3.51,2.8,7.19,5.36,10.78,8,3.84,2.83,7.36,6.28,11.99,7.97v-3.93Zm-453.98,122.98c1.77-17.74,1.19-35.6,3.18-53.36,1.31-11.77,1.1-23.71,1.59-35.57,.21-5.01-.1-10.12,.82-15,1.67-8.89,1.17-17.81,1.33-26.73,.55,5.18-1.7,9.97-1.92,15.1-.62,14.65-1.96,29.25-3.42,43.86-1.11,11.11-1.77,22.28-2.94,33.4-.72,6.82-.53,13.77-1.68,20.51-1.01,5.94-1.32,11.84-1.53,17.8h4.58Zm-34.02,0c.7-8.83,1.43-17.62,3.12-26.37,1.63-8.48,1.75-17.2,3.42-25.73,1.52-7.73,1.86-15.65,3.06-23.46,1.32-8.53,2.98-17.05,3.67-25.69,.34-4.31,.79-8.67,1.78-12.86,.86-3.63,.9-7.22,1.02-10.87,.09,2.04-1.36,3.68-1.6,5.51-1.56,11.88-3.43,23.7-5.97,35.43-1.34,6.21-1.49,12.61-3.08,18.85-1.72,6.77-2.14,13.85-3.34,20.77-1.53,8.82-3.18,17.65-4.49,26.52-.88,5.98-2.72,11.81-2.82,17.92h5.23Zm51.68,0c.54-17.17,.09-34.35,.92-51.54,1.12-23.05,.8-46.16,1.08-69.25,.04-2.84,0-5.68,0-8.52l-.91-.02c1.2,8.98-1.17,17.72-1.21,26.62-.01,2.5-.05,5.01-.19,7.51-1.15,20.52-1,41.09-2.88,61.58-1.02,11.15-.97,22.4-1.41,33.61h4.58ZM67.38,0c.23,3.04,3.07,4.28,4.63,6.35,3.59,4.76,7.87,8.98,11.59,13.65,3.44,4.3,7.03,8.53,10.7,12.56,5.45,5.99,10.61,12.23,15.87,18.36,6.8,7.93,13.74,15.76,20.36,23.86,4.71,5.76,9.56,11.39,14.41,17.03,2.06,2.39,4.27,4.66,6.42,6.98-2.51-5.9-6.87-10.42-10.83-15.07-4.89-5.74-9.55-11.68-14.34-17.48-4.39-5.32-8.92-10.54-13.13-16.04-3.76-4.91-8.01-9.51-11.86-14.38-4.29-5.42-8.72-10.74-13.09-16.09C82.72,13.15,77.35,6.56,71.96,0h-4.58ZM0,116.44c.85,.47,1.76,.86,2.54,1.42,5.15,3.73,10.25,7.55,15.43,11.25,4.95,3.53,10.24,6.62,14.89,10.5,4.57,3.81,9.71,6.79,14.25,10.63,3.79,3.21,8.16,5.74,12.23,8.63,6.41,4.57,12.77,9.21,19.17,13.79,3.56,2.55,7.16,5.05,10.69,7.63,3.68,2.69,7.44,5.27,11.1,7.98,3.48,2.58,6.75,5.47,10.41,7.74,2.62,1.62,4.6,4.43,8.05,4.66-5.18-4.19-10.44-8.25-15.85-12.09-6.45-4.59-12.69-9.47-19.08-14.14-6.18-4.51-12.28-9.18-18.37-13.83-7.6-5.79-15.37-11.35-23.02-17.07-6.24-4.67-12.36-9.48-18.61-14.14-7.91-5.9-15.89-11.71-23.84-17.55v4.58ZM733.3,850.39c-1.66-4.34-4.88-7.74-7.62-11.28-5.65-7.32-10.87-14.96-16.47-22.3-4.77-6.25-9.22-12.74-13.88-19.08-4.86-6.6-9.82-13.11-14.7-19.7-3.61-4.87-7.14-9.8-10.71-14.69-4.59-6.29-9.18-12.57-13.78-18.86-2.62-3.58-5.23-7.15-7.95-10.87-.36,.48-.74,.85-.68,.92,27.27,38.63,54.57,77.24,81.88,115.85h3.92Zm117.09-91.58c-4.45-1.82-7.72-5.4-11.38-8.26-5.87-4.59-11.74-9.22-17.61-13.79-4.96-3.86-9.86-7.8-14.84-11.64-4.63-3.57-9.58-6.75-13.98-10.56-4.44-3.85-9.36-7.03-13.81-10.85-4.28-3.68-8.89-6.97-13.35-10.43-4.73-3.66-9.42-7.38-14.23-10.94-2.51-1.86-4.45-4.7-8.53-5.48,2.85,2.54,5.04,4.68,7.42,6.59,4.71,3.79,9.54,7.41,14.26,11.17,7.18,5.73,14.3,11.53,21.46,17.28,4.64,3.72,9.58,7.12,13.92,11.17,4.78,4.46,10.08,8.25,15.02,12.49,5.96,5.1,12.25,9.85,18.35,14.82,5.7,4.64,11.52,9.12,17.29,13.66v-5.23Zm0-371.56c-9.34,1.33-18.78,1.42-28.14,2.9-11.45,1.81-23.17,1.58-34.7,3.42-8.34,1.33-16.85,1.08-25.25,2.54-6.72,1.17-13.66,1.03-20.49,1.55-3.45,.26-6.89,.68-10.85,1.09,1.52,1.26,2.65,.95,3.7,1.02,3.49,.23,6.85-.83,10.26-1.13,16.14-1.41,32.37-1.33,48.5-3.24,12.61-1.49,25.41-.77,38.05-2.64,6.22-.92,12.61-.66,18.92-.93v-4.58ZM286.52,0c-.6,3.08,1.99,5.18,2.45,7.91,.88,5.26,3.38,9.98,4.84,15.06,2.21,7.71,5.43,15.13,7.99,22.75,3.42,10.18,7.54,20.13,10.32,30.53,.46,1.72,1.43,3.3,2.35,5.37,.17-2.56-.52-4.51-1.17-6.43-3.05-9.06-6.04-18.14-8.38-27.42-.34-1.36-.59-2.76-1.09-4.06-2.26-5.81-3.72-11.85-5.33-17.85,3.45,7.3,5.08,15.26,8.44,22.59C302.49,32.24,298.33,15.96,293.06,0h-6.54ZM0,542.94c6.24-.77,12.02-3.45,18.23-4.34,.42-.06,.84-.1,1.29,0-6.57,1.95-13.1,3.97-19.52,6.31v2.62c.43,.01,.9,.14,1.29,.01,7.33-2.36,14.6-4.97,22-7.08,7.36-2.1,14.67-4.33,21.98-6.59,10.49-3.25,20.96-6.61,31.56-9.48,8.86-2.39,17.39-5.88,26.42-7.64,.52-.1,1.12-.08,1.1-.86-.58-.47-1.28-.45-1.87-.22-7.72,3-15.91,4.34-23.82,6.7-8.42,2.52-17.01,4.81-25.65,6.43-11.73,2.2-23.15,5.55-34.73,8.29-6.1,1.44-12.31,2.56-18.29,4.55v1.31Zm0,302.22c3.24-1.31,4.67-4.55,7.15-6.65,6.14-5.23,11.25-11.49,17.15-16.98,4.87-4.53,9.16-9.69,13.84-14.43,5.35-5.42,11.1-10.45,16.21-16.08,5.85-6.44,12.07-12.48,18.21-18.62,2.67-2.67,5.72-5.03,7.57-8.48-3.11,2.5-6.09,5.15-8.95,7.91-3.59,3.47-7.02,7.1-10.64,10.53-4.93,4.67-10,9.17-14.96,13.81-6.37,5.97-12.7,11.98-19.02,18-4.83,4.6-9.59,9.27-14.44,13.85-4.01,3.79-8.09,7.5-12.13,11.24v5.89ZM576.96,0c-.6,5.44-3,10.36-4.86,15.37-1.33,3.57-2.06,7.26-3.34,10.8-2.58,7.15-5.35,14.24-7.63,21.48-1.45,4.63-2.93,9.29-4.61,13.79-2.46,6.58-4.37,13.35-7.08,19.86-2.46,5.9-3.97,12.21-6.37,18.17-.25,.63-.48,1.55,.87,1.72,1.29-3.61,2.6-7.24,3.86-10.86,2.4-6.88,5.18-13.63,7.78-20.42,2.63-6.89,5.07-13.88,8.03-20.67,3.77-8.66,6.52-17.75,10.27-26.42,1.61-3.72,2.8-7.6,4.38-11.33,1.55-3.67,3.51-7.37,3.94-11.49h-5.23Zm273.43,295.68c-5.24,.41-9.87,2.95-14.79,4.46-3.08,.94-6.23,1.67-9.29,2.7-7.4,2.49-14.73,5.17-22.17,7.51-6.35,2-12.71,3.96-19.03,6.05-11.22,3.72-22.58,7.03-33.89,10.48-1.49,.45-3.02,.76-4.91,1.24,2.43,2.13,3.79-.14,5.36-.47,7.68-1.63,15.14-4.06,22.68-6.23,13.7-3.96,27.57-7.32,41.27-11.27,3.38-.98,6.81-1.79,10.18-2.8,8.12-2.45,16.19-5.1,24.6-6.42v-5.23Zm0,381.37c-4.37-3.42-9.5-5.55-14.28-8.24-8.12-4.58-16.14-9.32-24.42-13.63-7.2-3.75-14.19-7.92-21.12-12.16-2.7-1.65-5.63-2.86-8.3-4.61-1.39-.92-2.89-2.93-6.13-2.28,8.08,5.12,15.36,9.68,22.6,14.33,7.22,4.64,14.29,9.52,21.59,14.01,6.99,4.3,14.01,8.53,20.61,13.41,3.15,2.12,6.3,4.24,9.45,6.36v-7.2ZM153.73,850.39c.12-3.06,2.73-4.77,4.03-7.2,3.05-5.72,6.81-11.04,10.26-16.53,3.73-5.93,7.5-11.86,11.34-17.74,2.43-3.73,4.83-7.48,7.23-11.23,2.35-3.65,4.92-7.17,6.97-10.97,2.38-4.44,5.18-8.65,7.92-12.81,5.02-7.64,9.66-15.51,14.78-23.08,2.56-3.79,4.86-7.74,7.51-11.49,1.2-1.7,2.88-3.55,2.75-6.04-2.34,3.6-5.23,6.77-7.35,10.4-4.42,7.59-9.5,14.74-14.22,22.12-3.66,5.72-7.45,11.4-11.24,17.06-3.38,5.04-6.58,10.2-9.93,15.27-4.87,7.38-9.69,14.79-14.74,22.05-3.52,5.06-6.79,10.28-10.2,15.39-3.19,4.77-6.96,9.29-9.01,14.79h3.93ZM215.22,0c.89,4.07,3.26,7.54,5.2,11.06,3.7,6.74,7.13,13.61,10.62,20.45,2.37,4.67,4.94,9.23,7.14,14,3.25,7.05,7.43,13.68,10.85,20.66,3.29,6.71,6.79,13.3,10.59,20.41,.13-2.93-.92-5.02-1.97-6.86-4.24-7.43-7.27-15.41-10.86-23.14-2.48-5.34-5.09-10.62-7.42-16.04-2.69-6.25-5.88-12.31-8.56-18.59-1.42-3.33-3.5-6.4-4.69-9.8C224.66,8,221.78,4.45,221.1,0h-5.89ZM850.39,591.35c-6.37-3.32-13.31-5.22-19.95-7.83-9.04-3.55-18.29-6.61-27.36-10.11-7.02-2.71-14.27-4.87-21.21-7.76-2.82-1.17-5.76-2.11-8.55-3.47-3.74-1.83-7.9-2.81-12.04-4.21,.51,2.16,2.2,2.08,3.43,2.58,1.6,.65,3.43,.82,4.9,1.65,5.33,3,11.05,5.19,16.71,7.25,6.16,2.24,11.94,5.29,18.05,7.61,9.71,3.68,19.18,7.97,28.74,12.03,5.77,2.45,11.52,4.98,17.27,7.47v-5.23ZM0,138.68c.71,.24,1.52,.33,2.12,.74,5.47,3.69,10.89,7.46,16.36,11.16,4.24,2.87,8.59,5.57,12.77,8.51,6.35,4.47,13.06,8.4,19.32,13.02,4.19,3.09,8.98,5.38,13.19,8.45,6.8,4.95,13.93,9.4,20.85,14.16,3.77,2.59,7.54,5.19,11.35,7.73,5.09,3.38,10.23,6.7,15.54,10.18-.05-1.48-.77-2.04-1.6-2.59-6.83-4.53-13.67-9.05-20.43-13.67-6.94-4.74-13.81-9.59-20.72-14.39-5.25-3.65-10.54-7.24-15.85-10.8-7.85-5.25-15.21-11.23-23.08-16.45-7.39-4.9-14.49-10.18-21.84-15.12-2.56-1.72-4.7-4.28-7.98-4.86v3.93ZM205.4,850.39c2.18-5.62,5.24-10.8,7.94-16.16,2.49-4.95,5.3-9.74,7.69-14.73,2.32-4.84,5.12-9.43,7.24-14.39,1.92-4.52,4.39-8.81,6.65-13.18,3.97-7.68,7.87-15.39,11.99-22.99,1.43-2.63,2.6-5.37,3.96-8.01,2.48-4.82,5.12-9.55,7.65-14.34,2.75-5.19,5.64-10.32,8.11-15.64,1.59-3.44,3.89-6.61,4.61-10.46-1.13,1.31-2.25,2.65-2.89,4.2-3.01,7.22-7.27,13.8-10.79,20.75-3.6,7.1-7.21,14.24-11.18,21.15-4.95,8.62-9.13,17.64-14.16,26.23-3.55,6.06-6.68,12.41-9.82,18.71-5.34,10.71-11.65,20.9-16.68,31.77-1.15,2.48-2.8,4.74-4.22,7.1h3.93ZM0,512.2c1.31,.4,2.59,.11,3.86-.17,8.63-1.91,17.24-3.86,25.88-5.71,9.81-2.1,19.65-4.05,29.42-6.38,8.77-2.09,17.62-3.84,26.43-5.78,7.05-1.55,14.22-2.57,21.77-4.89-5.56,.53-10.38,1.64-15.26,2.4-9.61,1.5-19.07,3.76-28.69,5.17-7.76,1.13-15.43,2.95-23.13,4.5-4.86,.98-9.79,1.7-14.66,2.55-8.53,1.5-17.03,3.26-25.62,4.38v3.93Zm0,267.55c3.4-.94,5.13-4.01,7.67-6.04,5.59-4.48,11.15-9.01,16.63-13.64,5.78-4.89,11.48-9.87,17.15-14.88,4.94-4.36,10.11-8.43,15.04-12.8,5.32-4.71,10.65-9.45,16.23-13.82,5.57-4.37,10.51-9.41,16.48-13.73-1.69-.48-2.5,.33-3.31,1-2.27,1.9-4.46,3.91-6.78,5.75-4.61,3.65-9.46,7.02-13.9,10.87-7.72,6.69-15.79,12.93-23.71,19.37-5.57,4.53-11.16,9.05-16.74,13.57-5.01,4.06-10.04,8.09-15.02,12.18-3.29,2.7-6.51,5.5-9.76,8.25v3.92Zm643.03,70.65c-1.78-3.27-3.61-6.51-5.32-9.82-2.45-4.74-4.68-9.64-7.28-14.26-2.78-4.95-5.14-10.08-7.85-15.05-2.45-4.5-4.72-9.1-7.09-13.65-3.67-7.01-7.5-13.93-10.99-21.03-2.54-5.18-5.15-10.33-7.81-15.43-5.03-9.63-9.96-19.31-14.94-28.97-2.01-3.91-4.13-7.76-6.19-11.64,.51,2.67,1.68,4.99,2.82,7.38,4.97,10.52,10.43,20.78,15.67,31.16,4.18,8.27,8.24,16.61,12.43,24.89,5.12,10.11,10.37,20.15,15.18,30.4,4.49,9.57,9.75,18.75,13.93,28.49,1.1,2.56,2.23,5.35,4.18,7.55h3.27ZM678.35,0c-3.54,6.21-7.02,12.45-10.63,18.62-3.66,6.24-7.62,12.32-11.14,18.64-2.64,4.74-5.24,9.55-8.08,14.14-5.98,9.68-11.46,19.66-17.52,29.28-5.73,9.09-10.51,18.73-16.61,27.6-.96,1.4-2.27,3.14-2,6.13,2.9-4.84,5.3-8.87,7.74-12.88,3.93-6.46,7.9-12.89,11.84-19.35,2.28-3.73,4.47-7.51,6.78-11.22,3.6-5.79,7.53-11.39,10.82-17.34,2.44-4.41,5.02-8.79,7.73-12.98,6.22-9.62,11.92-19.54,18-29.24,2.3-3.67,4.97-7.19,6.35-11.39h-3.27Zm172.04,366.98c-3.3,.51-6.59,1.04-9.88,1.69-7.61,1.51-15.46,1.48-23.09,3.32-5.56,1.34-11.36,1.32-17.02,2.54-7.7,1.66-15.68,1.6-23.46,3.33-7.68,1.7-15.62,1.88-23.43,3.14-8.82,1.43-17.68,2.84-26.53,4.18,6.75-.64,13.5-.73,20.24-2.18,6.84-1.47,13.95-1.38,20.91-2.67,8.83-1.65,17.89-1.66,26.81-3.17,10.13-1.72,20.49-1.89,30.7-3.44,8.22-1.25,16.55-1.89,24.74-3.44v-3.27Zm-27.47,483.42c-.49-.82-.81-1.86-1.5-2.44-6.17-5.23-11.12-11.64-16.94-17.22-6.02-5.78-11.44-12.19-17.31-18.13-4.26-4.32-8.74-8.52-12.7-13.05-4.73-5.42-10.19-10.14-14.76-15.72-1.34-1.64-2.68-4.08-5.53-4.67,.51,1.33,1,2.31,1.84,3.2,4.66,4.95,9.38,9.87,13.83,15.01,3.59,4.14,7.38,8.1,10.87,12.33,3.42,4.14,7.35,7.88,10.89,11.95,4.77,5.48,9.83,10.71,14.59,16.19,3.62,4.17,7.84,7.82,10.82,12.55h5.89Zm-432.39,0c.07-.32,.19-.63,.21-.95,.55-9.33,1.28-18.66,1.56-28,.28-9.32,2.22-18.5,2.04-27.84,0-.39-.06-.78-.11-1.41-.61,.93-.02,2.19-1.45,2.75-.87-5.38,.08-10.53,.64-15.71-.57,.22-.82,.46-.86,.72-1.43,10.29-1.55,20.72-3.35,30.99-1.05,5.97-1.17,12.1-1.67,18.16-.58,7.11-2.68,14.06-2.24,21.28h5.23Zm169.2-126.66c1.14,5.07,4.02,9.4,5.97,14.12,3.93,9.49,8.41,18.74,12.5,28.15,4.01,9.22,8.28,18.33,12.32,27.54,4.11,9.36,8.23,18.73,12.44,28.05,4.32,9.55,8.4,19.2,12.59,28.81h3.27c-.16-1.92-1.7-3.16-2.37-4.85-2.26-5.68-4.89-11.22-7.51-16.72-3.96-8.29-7.69-16.68-11.57-25.01-2.92-6.29-6.11-12.47-8.75-18.88-2.25-5.47-5.16-10.62-7.36-16.13-3.02-7.56-6.95-14.75-10.27-22.2-3.48-7.82-6.97-15.63-10.78-23.29-.16,.14-.32,.28-.48,.42Zm65.63,126.66c-.06-2.19-1.98-3.46-2.65-5.43-1.2-3.55-2.76-7.02-4.58-10.29-3.06-5.52-5.59-11.28-8.19-17.02-2.3-5.08-5.1-9.91-7.23-15.1-2.38-5.82-5.45-11.35-8.15-17.04-2.43-5.12-4.52-10.42-7.21-15.39-5.23-9.68-9.15-19.98-14.24-29.71-2.17-4.15-3.5-8.75-6.49-12.73-.37,1.16,.05,1.92,.39,2.71,4.2,9.81,9.27,19.22,13.32,29.11,.99,2.42,1.83,5.04,3.18,7.3,3.24,5.42,5.67,11.23,8.1,16.99,2.24,5.3,4.93,10.4,7.16,15.72,3.57,8.53,7.67,16.88,11.67,25.24,1.61,3.36,2.84,6.88,4.64,10.19,2.69,4.96,4.7,10.29,7,15.46h3.27ZM850.39,224.37c-6.59,1.4-12.22,5.12-18.14,7.97-9.59,4.62-19.23,9.2-28.76,13.96-5.46,2.73-11.26,4.8-16.64,7.68-10.87,5.83-22.22,10.67-33.25,16.18-7.55,3.77-15.32,7.12-22.98,10.69-.57,.27-1.6,.56-.83,1.61,1.23,.45,1.58-.86,2.45-1.21,9.12-3.63,17.82-8.22,26.77-12.24,9.18-4.13,18.28-8.39,27.35-12.74,10.54-5.04,21.23-9.78,31.84-14.65,10.7-4.92,21.28-10.13,32.17-14.65v-2.62ZM382.68,850.39c-.2-2.13,1.09-3.97,1.23-6.01,.99-14.42,1.54-28.86,3.39-43.23,.96-7.44,1.02-14.98,1.52-22.48,.21-3.14,.1-6.39,.89-9.4,1.42-5.47,1.04-10.97,1.24-16.48-.35,2.47-1.28,4.83-1.6,7.22-1.3,9.76-1.62,19.62-3.38,29.36-1.55,8.63-1.93,17.45-3.01,26.17-1.45,11.6-3.51,23.14-4.2,34.83h3.92ZM0,662c3.61-1.11,6.3-3.86,9.66-5.45,4.82-2.28,9.52-4.9,14.05-7.65,6.65-4.04,13.54-7.6,20.23-11.54,4.32-2.55,8.68-5.05,13.06-7.5,6.32-3.53,12.64-7.05,19.02-10.47,4.32-2.32,8.43-5,12.81-7.26,4.98-2.57,9.72-5.65,14.68-8.3,3.92-2.1,7.72-4.43,11.57-6.66-1.61-.04-3.04,.38-4.31,1.08-9.18,5.01-18.32,10.12-27.5,15.12-9.92,5.4-19.95,10.59-29.78,16.15-5.38,3.04-11,5.65-16.24,8.9-6.33,3.92-13.03,7.15-19.5,10.81-5.82,3.29-11.82,6.34-17.74,9.51v3.27Zm0-15.7c3.5-1.84,6.96-3.74,10.5-5.51,4.58-2.3,8.96-4.96,13.65-7.1,4.94-2.25,9.51-5.26,14.32-7.8,6.63-3.5,13.36-6.82,20.01-10.3,7.55-3.95,15.06-7.96,22.56-12.01,2.53-1.37,5.19-2.49,7.74-3.79,7.19-3.67,14.24-7.62,21.34-11.46-.15-.16-.29-.33-.44-.49-3.18,.12-5.44,2.35-8.13,3.58-6.99,3.19-13.68,6.97-20.58,10.33-8.13,3.96-16.11,8.22-24.18,12.31-8.37,4.25-16.82,8.32-25.13,12.67-10.51,5.51-21.19,10.68-31.65,16.29v3.27ZM0,308.1c7.01,1.9,13.96,4.09,21.05,5.61,6.13,1.32,12.23,2.92,18.17,4.7,8.97,2.69,18.07,4.92,27.07,7.46,6.4,1.8,12.72,3.9,19.12,5.54,9.3,2.38,18.63,4.66,27.77,7.55,5.96,1.88,12.17,2.74,18.05,4.91,2.29,.84,4.77,1.6,7.73,1.37-8.89-3.8-17.99-5.52-26.79-8.19-9.41-2.86-19-5.28-28.52-7.85-10.78-2.9-21.48-6.1-32.21-9.16-10.86-3.1-21.72-6.18-32.58-9.27-1.55-.44-3.11-.98-4.63-1.36-4.78-1.2-9.21-3.65-14.24-3.92v2.62Zm850.39,111.21c-1.2-.03-2.39-.14-3.58-.09-17.59,.79-35.23,.13-52.8,1.75-5.95,.55-11.97,.16-17.96,.3-10.83,.25-21.66,.58-32.49,.88v1.09h106.84v-3.92ZM0,471.64c6.06-1.15,12.24-1.02,18.34-2.27,7.4-1.51,15.07-1.36,22.59-2.67,9.92-1.72,20.08-1.57,30.08-3.26,10.11-1.71,20.45-1.89,30.67-3.25,12.24-1.62,24.63-2.14,36.86-4.01,1.8-.27,3.63-.32,5.45-.48-8.63,.46-17.23,.48-25.82,1.89-10.98,1.8-22.22,1.55-33.29,3.31-10.69,1.69-21.6,1.58-32.37,3.18-11.78,1.76-23.81,1.36-35.62,3.44-5.55,.97-11.25,1.03-16.89,1.5v2.62Zm296.09,262.11c-.85,2.65-2.45,4.94-3.4,7.58-2.06,5.74-4.57,11.33-6.97,16.94-2.7,6.3-5.54,12.55-8.21,18.86-2.51,5.92-4.82,11.93-7.32,17.86-4.03,9.56-8.07,19.13-12.27,28.61-1.24,2.8-2.56,5.59-3.85,8.37-2.78,6-5.01,12.26-7.46,18.41h2.62c4.03-9.56,8.15-19.09,12.08-28.7,3.73-9.13,7.12-18.41,10.95-27.5,1.17-2.78,2.01-5.69,3.32-8.37,4.23-8.66,7.14-17.86,11.17-26.58,1.59-3.43,2.74-6.99,4.17-10.45,1.99-4.83,4.62-9.42,5.64-14.63-.16-.14-.32-.27-.47-.4ZM13.08,0c6.71,7.94,14.44,14.89,21.68,22.32,7.83,8.03,15.81,15.9,23.76,23.81,4.99,4.96,10.04,9.85,15.18,14.89,.74-1.55-.24-1.91-.81-2.49-1.57-1.56-3.2-3.08-4.68-4.73-3.84-4.26-7.56-8.63-11.44-12.85-4.46-4.85-9.09-9.55-13.58-14.37-5.56-5.97-11.08-11.99-16.56-18.03C24.06,5.72,21.09,3.24,18.97,0h-5.89ZM850.39,711.71c-4.04-2.41-8.27-4.54-12.07-7.28-7.36-5.32-15.53-9.34-22.89-14.63-3.98-2.86-8.37-5.04-12.39-7.87-2.53-1.79-4.94-4.37-9.14-4.62,3.72,2.66,6.95,4.9,10.1,7.25,6.45,4.81,12.85,9.7,19.3,14.51,6.43,4.79,12.78,9.7,19.41,14.2,2.51,1.7,4.34,4.55,7.68,4.98v-6.54Zm-126.25,138.68c-.02-.9-.28-1.75-.91-2.38-3.25-3.28-5.35-7.41-8.16-11.03-3.84-4.97-7.3-10.24-10.94-15.36-4.61-6.47-9.26-12.92-13.87-19.4-2.53-3.55-4.83-7.29-7.56-10.68-4-4.99-7.41-10.39-11.19-15.53-3.33-4.53-6.59-9.11-9.88-13.67,.11,1.74,.68,3.24,1.56,4.52,3.94,5.69,8.02,11.28,11.96,16.96,3.35,4.83,6.53,9.77,9.87,14.6,3.67,5.33,7.64,10.47,11.1,15.93,3.42,5.4,7.04,10.68,10.7,15.89,4.71,6.69,9.11,13.6,14.04,20.13h3.27Zm-717.6,0c.41-.62,.7-1.39,1.25-1.84,5.37-4.32,9.4-9.94,14.27-14.75,6.55-6.48,12.61-13.46,18.97-20.14,6.39-6.71,12.89-13.31,19.31-19.99,.3-.31,.51-.99-.22-1.33-5.42,5.23-10.82,10.45-16.24,15.64-3.38,3.24-6.94,6.3-10.18,9.67-5.52,5.73-11.48,11.01-17.09,16.64-5.32,5.36-11.2,10.17-15.95,16.1H6.54ZM850.39,462.48c-1.08,.02-2.16,.09-3.24,.06-13.9-.42-27.74-1.77-41.6-2.86-8.46-.67-16.92-1.37-25.39-1.69-7.14-.26-14.13-2.29-21.78-1.62,1.76,.34,2.75,1.35,4.27,1.51,10.67,1.11,21.37,1.65,32.03,3.15,11.57,1.62,23.28,2.48,34.91,3.83,6.89,.8,13.81,1.78,20.8,1.54v-3.92ZM0,556.68c4.22-2.17,8.96-2.75,13.41-4.28,12.68-4.35,25.64-7.88,38.36-12.16,8.15-2.74,16.47-4.97,24.69-7.5,9.68-2.98,19.34-6.04,29.01-9.07,6.87-2.15,13.75-4.31,20.83-6.53-1.03-.57-1.74-.17-2.46,0-10.56,2.52-20.75,6.27-31.16,9.27-11.51,3.32-23,6.73-34.49,10.13-10.27,3.04-20.4,6.58-30.8,9.22-.84,.21-1.71,.34-2.53,.59-8.29,2.56-16.57,5.14-24.85,7.71v2.62ZM104.01,0c.48,.84,.82,1.81,1.46,2.51,4.24,4.63,7.42,10.08,11.57,14.77,3.04,3.43,5.38,7.37,8.39,10.84,3.82,4.41,6.97,9.39,10.59,13.99,3.44,4.38,6.74,8.87,10.19,13.23,3.74,4.74,7.42,9.51,10.98,14.38,2.02,2.76,4.33,5.3,6.51,7.93-1.1-4.4-4.47-7.23-6.85-10.71-4.08-5.96-8.42-11.75-12.69-17.57-4.09-5.58-8.24-11.11-12.37-16.66-4.49-6.05-9.02-12.08-13.47-18.17C114.81,9.72,111.39,4.84,107.93,0h-3.92Zm-12.03,621.22c-7.64,2.64-13.84,7.9-20.98,11.49-6.74,3.39-13.03,7.65-19.58,11.42-3.98,2.29-7.84,4.77-11.91,6.94-6.64,3.54-13.07,7.49-19.59,11.27-2.77,1.61-5.51,3.27-8.29,4.86-3.87,2.21-7.76,4.38-11.64,6.57v3.27c4.12-1.77,7.97-4.18,11.64-6.6,5.69-3.76,11.63-7.09,17.4-10.68,6.16-3.82,12.67-7.19,18.8-11.03,8.88-5.57,17.93-10.88,26.85-16.39,5.86-3.63,11.78-7.21,17.78-10.63-.16-.16-.32-.33-.48-.49ZM0,313.34c11.78,3.1,23.53,6.33,35.35,9.24,8.22,2.03,16.41,4.09,24.55,6.42,7.44,2.12,14.97,3.99,22.49,5.78,9.22,2.2,18.23,5.19,27.51,7.1,2.53,.52,5.16,.69,7.49,2.05,.63,.37,1.66,.59,2.37-.71-4.36-1.63-8.92-2.31-13.28-3.51-8.98-2.49-17.93-5.16-27.01-7.29-1.79-.42-3.75-.38-5.42-1.06-4.66-1.9-9.51-3.17-14.36-4.32-6.38-1.52-12.76-3.15-19.04-4.9-9.5-2.65-18.96-5.54-28.54-7.9-4.02-.99-7.74-3.48-12.14-2.86v1.96Zm850.39,295.68c-.54-.05-1.18,.07-1.6-.18-5.29-3.07-11.17-4.78-16.75-7.19-8.82-3.81-18.01-6.78-26.71-10.81-3.58-1.66-7.4-2.64-10.94-4.52-2.6-1.39-5.43-3.14-9.42-3.54,1.31,1.01,1.6,1.73,2.52,2.14,6.83,3.07,13.57,6.34,20.38,9.46,7.68,3.52,15.5,6.73,23.03,10.53,2.54,1.28,5.13,2.75,7.71,3.83,3.9,1.64,7.34,4.53,11.78,4.86v-4.58Zm0-465.1c-1.3-.17-2.3,.54-3.28,1.2-2.64,1.77-5.23,3.59-7.87,5.35-5.41,3.62-10.87,7.17-16.25,10.82-5.26,3.56-10.43,7.25-15.68,10.83-5.36,3.65-10.75,7.25-16.14,10.85-5.4,3.61-10.9,7.07-16.19,10.84-2.73,1.94-5.89,3.42-8.01,6.19,4.45-1.87,8.36-4.66,12.26-7.28,3.86-2.59,7.85-4.98,11.7-7.59,5.57-3.78,11.26-7.37,16.91-11.04,5.42-3.52,10.86-7.03,16.28-10.56,5.8-3.78,11.44-7.83,17.42-11.28,2.94-1.69,5.4-4.27,8.85-5.06v-3.27ZM475.57,0c0,.76,.03,1.52-.01,2.28-.77,12.46-2.04,24.86-3.48,37.26-1.26,10.85-1.89,21.77-3.6,32.58-.64,4.03-.57,8.18-.83,12.27,1.29-4.01,1.82-8.13,2.57-12.19,1.49-8.16,2.08-16.47,3.26-24.71,1.57-10.94,3.28-21.87,4.47-32.87,.53-4.91,2.41-9.62,2.2-14.64h-4.58Zm374.83,376.14c-4.8-.06-9.42,1.25-14.12,1.86-6.9,.89-14.02,.73-20.73,2.34-7.61,1.83-15.42,1.51-23.01,3.34-5.44,1.31-11.25,1.04-16.86,1.8-2.22,.3-4.64,0-7.01,1.18,1.07,.8,1.95,.61,2.8,.59,4.67-.09,9.19-1.35,13.85-1.61,10.94-.62,21.85-1.66,32.75-2.82,10.77-1.14,21.58-1.98,32.33-3.41v-3.27ZM643.03,0c-.1,.64-.01,1.38-.32,1.9-2.98,5.07-5.62,10.31-8.16,15.61-1.49,3.11-2.83,6.31-4.59,9.26-2.75,4.62-5.03,9.46-7.46,14.23-3.5,6.86-6.81,13.82-10.29,20.68-3.67,7.23-7.6,14.33-11.11,21.63-1.04,2.16-2.88,4-3.13,6.71,.94-.34,1.76-.72,1.97-1.53,.92-3.5,3.2-6.31,4.7-9.52,2.12-4.54,4.58-8.92,6.94-13.34,2.45-4.59,5.03-9.12,7.44-13.73,2.64-5.05,4.89-10.31,7.78-15.21,3.84-6.52,7-13.38,10.66-19.99C640.52,11.2,643.36,5.57,646.3,0h-3.27Zm9.16,850.39c-1.05-2.21-1.99-4.47-3.17-6.61-3.6-6.51-7.34-12.95-10.92-19.47-2.52-4.61-4.57-9.51-7.35-13.95-4.01-6.41-7.08-13.3-10.93-19.79-3.86-6.5-6.87-13.52-10.67-20.06-1.17-2.01-1.65-4.61-3.87-5.97-.14,.13-.28,.25-.42,.38,1.59,4.44,4.32,8.31,6.36,12.53,4.17,8.62,8.97,16.93,13.46,25.4,4.24,7.98,8.56,15.93,12.58,24.02,3.94,7.93,7.87,15.86,12.32,23.53h2.62ZM232.22,0c2.22,4.04,3.98,8.28,5.84,12.49,3.53,8.02,7.4,15.89,11.07,23.85,2.42,5.25,4.69,10.58,7.11,15.83,3.88,8.42,7.83,16.8,11.74,25.2,2.43,5.22,4.84,10.44,7.25,15.66,.11-.11,.23-.23,.34-.34-.91-5.3-3.88-9.82-5.82-14.71-.89-2.23-1.52-4.67-2.75-6.8-4.39-7.6-7.19-15.93-10.9-23.85-2.72-5.82-5.11-11.81-7.66-17.72-3.98-9.23-8.48-18.23-12.11-27.61-.34-.88-.82-1.46-1.49-2h-2.62ZM782.36,0c-3.22,4.08-6.39,8.19-9.68,12.22-6.12,7.49-12.22,15.01-18.49,22.37-4.47,5.25-8.72,10.69-13.23,15.91-2.04,2.37-4.93,4.66-5.81,9.1,5.42-6.22,10.19-11.79,15.07-17.25,5.54-6.21,11.01-12.48,16.51-18.72,5.17-5.88,10.46-11.69,15.39-17.78,1.47-1.82,4.15-2.95,4.18-5.84h-3.93ZM448.75,0c.25,4.37-1.1,8.61-1.2,12.9-.48,20.55-1.87,41.05-3.02,61.56-.41,7.39-.78,14.79-1.05,22.18-.14,3.96-.03,7.92-.03,11.88,.56-.5,.66-1.02,.68-1.54,.38-8.88,1.04-17.72,1.73-26.58,1.22-15.8,1.68-31.66,2.98-47.48,.9-10.95,1.26-21.95,1.86-32.92h-1.96ZM822.92,0c-2.12,3.48-5.36,5.98-7.93,9.08-3.18,3.83-6.83,7.28-10.09,11.06-5.99,6.95-12.1,13.78-18.36,20.48-1.71,1.83-4.04,3.41-4.76,6.53,4.88-3.4,8.18-7.92,12.19-11.68,7.28-6.81,14.14-14.08,20.99-21.33C819.38,9.44,824.46,5.37,828.15,0h-5.23ZM332.96,0c.64,2.14,1.46,4.25,1.88,6.44,1.56,8.12,3.83,16.08,5.68,24.13,2.33,10.15,4.39,20.38,6.87,30.5,1.18,4.79,1.14,9.88,3.91,14.81-.17-1.55-.12-2.65-.44-3.65-2.26-7.19-2.91-14.72-4.42-22.06-1.8-8.77-3.67-17.57-4.88-26.47-.29-2.15-.29-4.42-1-6.43-1.98-5.61-1.88-11.64-3.68-17.26h-3.92ZM850.39,322.5c-8.43,1.81-16.74,4.06-25.04,6.35-8.07,2.23-16.2,4.34-24.34,6.26-8.45,2-16.81,4.28-25.12,6.81,3.78-.57,7.51-1.21,11.27-2.16,10.76-2.73,21.69-4.76,32.56-7.03,2.44-.51,4.96-.71,7.37-1.33,7.7-1.99,15.36-4.12,23.3-4.99v-3.93ZM505.66,0c-.41,5.93-1.93,11.68-2.96,17.51-.6,3.42-.85,6.9-1.47,10.32-1.44,7.95-3.06,15.87-4.48,23.83-.71,3.95-.88,8-1.76,11.9-.73,3.23-1.85,6.36-1.52,9.76,.42-1.86,1.59-3.35,1.97-5.31,.9-4.73,1.75-9.48,2.82-14.18,2.17-9.55,4.29-19.14,6.13-28.76C505.98,16.66,508.22,8.42,509.58,0h-3.92ZM0,518.74c.22,.01,.44,.07,.65,.04,9.12-1.58,18.05-3.92,27-6.27,8.72-2.29,17.55-4.24,26.37-6.11,5.96-1.26,11.89-2.59,17.68-4.52-4.42,.19-8.68,1.06-12.96,2.24-5.38,1.48-10.99,2.09-16.49,3.13-10.59,2.02-21.21,3.92-31.74,6.25-3.49,.77-7.13,.71-10.52,1.96v3.27Zm452.02,331.65c.45-6.11-1.14-12.06-1.51-18.12-.93-15.41-1.32-30.85-2.75-46.25-1.38-14.79-1.74-29.69-3.09-44.5,0-.08-.23-.15-.58-.35,0,1.47-.05,2.76,0,4.06,.44,9.99,1.17,19.96,1.71,29.93,1.04,18.89,2.04,37.78,3.27,56.66,.4,6.19-.13,12.43,.98,18.58h1.96ZM149.8,0c1.24,3.39,3.66,6.09,5.51,9.1,4.39,7.14,9.3,13.96,13.93,20.95,3.5,5.28,6.85,10.67,10.34,15.96,4.99,7.55,10.04,15.06,15.07,22.58,1.35,2.02,2.75,4.01,4.13,6.01,.22-.16,.44-.31,.66-.47-3.05-5.03-5.88-10.22-9.23-15.03-2.34-3.35-4.22-6.95-6.48-10.33-3.66-5.51-7.56-10.9-10.73-16.69-2.42-4.41-5.34-8.48-7.89-12.78C161.26,12.79,156.72,6.67,153.07,0h-3.27ZM0,466.41c12.44-.86,24.85-2.11,37.23-3.61,8.92-1.08,17.9-1.56,26.84-2.6,13.56-1.59,27.24-2.19,40.79-4.04,1.98-.27,4-.29,6-.43-12.32-.3-24.47,1.2-36.64,2.4-10.99,1.08-22.05,1.31-33,2.91-4.19,.61-8.45,.68-12.68,1.03-9.51,.78-19.03,1.59-28.54,2.39v1.96ZM484.07,0c-1.01,6.74-1.54,13.54-2.54,20.3-1.51,10.25-1.89,20.67-3.71,30.91-.44,2.45-.61,4.96-.83,7.44-.45,5.12-2.12,10.11-1.88,16.16,.74-2.53,1.33-4.25,1.74-6.01,1.13-4.82,1.36-9.76,2.46-14.64,1.65-7.33,1.86-14.97,3.47-22.39,1.19-5.5,1.11-11.29,2.42-16.76,1.2-4.98,1.59-9.99,2.14-15.01h-3.27Zm366.32,637.8c-3.52-1.78-7.01-3.62-10.56-5.33-8.33-3.99-16.6-8.08-24.81-12.31-9.2-4.74-18.61-9.07-27.85-13.73-5.13-2.58-10.44-4.79-15.43-7.67-2.86-1.65-6.04-2.74-9.08-4.09,.43,.84,.89,1.51,1.53,1.83,7.05,3.58,14.11,7.16,21.22,10.61,4.99,2.42,9.99,4.9,14.84,7.53,7.05,3.83,14.3,7.22,21.38,10.96,4.82,2.55,9.58,5.22,14.43,7.71,4.74,2.44,9.56,4.74,14.34,7.09v-2.62Zm0-102.05c-.85-.15-1.74-.21-2.56-.48-8.9-2.89-18.06-4.82-27.08-7.25-8.63-2.33-17.41-4.18-26.05-6.58-9.55-2.65-19.21-4.9-28.83-7.29-1.86-.46-3.71-.87-5.56-1.46-4.78-1.54-9.72-2.58-14.6-3.81,1.04,1.03,2.16,1.76,3.39,2.04,7.14,1.68,14.1,3.98,21.19,5.8,7.5,1.93,14.97,3.92,22.43,6.03,8.07,2.27,16.2,4.35,24.32,6.4,9.94,2.51,19.67,5.88,29.77,7.77,1.29,.24,2.53,.62,3.58,1.45v-2.62Zm-358.47,314.65c-2.66-5.81-1.89-12.29-3.63-18.35-1.89-6.6-1.58-13.66-3.24-20.44-1.74-7.1-1.59-14.55-3.35-21.76-1.68-6.89-2-14.08-3.18-21.11-1.57-9.33-3.63-18.6-4.58-28.04,.17,10.64,2.1,21.09,3.96,31.48,1.83,10.21,2.31,20.58,4.64,30.72,1.62,7.03,1.73,14.32,3.11,21.47,1.65,8.57,1.92,17.43,3.66,26.04h2.62ZM850.39,47.1c-1.19-.3-1.65,.62-2.35,1.29-4.61,4.41-9.24,8.8-13.94,13.12-3.81,3.51-7.75,6.87-11.57,10.36-5.44,4.97-10.87,9.95-16.21,15.02-1.91,1.81-4.3,3.24-5.71,6.01,1.47-.31,2.36-.83,3.18-1.55,5.26-4.64,10.5-9.31,15.81-13.9,5.38-4.66,10.81-9.27,16.26-13.83,4.81-4.03,9.69-7.96,14.54-11.94v-4.58Zm-308.76,803.3c-2.2-4.94-2.96-10.31-4.41-15.46-3.06-10.87-6.19-21.73-9.15-32.64-2.16-7.95-4.35-15.9-6.51-23.85-1.52-5.6-3.72-11.06-4.4-16.89-.23-1.91-.89-3.69-2.52-5.32,.11,4.17,2.34,7.49,2.77,11.28,.63,5.51,2.68,10.71,4.16,15.99,2.66,9.54,4.98,19.17,7.62,28.72,1.72,6.24,3.35,12.55,4.91,18.86,1.59,6.44,3.38,12.85,4.91,19.31h2.62Zm-209.98,0c.02-.65-.05-1.32,.06-1.95,1.77-10.09,4.02-20.06,6.34-30.04,2.15-9.22,4.14-18.49,6.03-27.77,2.21-10.78,4.54-21.53,6.85-32.29,.72-3.35,1.28-6.76,2.42-10.45-1.68,.55-1.41,1.48-1.59,2.14-2.19,7.99-3.73,16.13-5.7,24.17-2.35,9.6-4.36,19.3-6.51,28.95-1.5,6.71-3.15,13.39-4.54,20.14-1.88,9.05-4.27,18-5.98,27.1h2.62ZM850.39,489.96c-4.89,0-9.61-1.08-14.38-2.04-6.87-1.39-13.9-1.47-20.81-3.03-7.56-1.71-15.39-2.26-23.1-3.31-10.3-1.41-20.53-3.34-30.88-4.4-4.76-.49-9.35-2.22-14.62-2.12,7.16,3.06,14.61,2.43,21.6,4.4,6.31,1.78,13.02,1.59,19.49,3.15,7.11,1.72,14.56,1.67,21.77,3.4,6.68,1.61,13.64,1.82,20.45,3.15,6.76,1.32,13.61,2.56,20.48,3.44v-2.62ZM0,436.32c5.58,.62,11.01-.97,16.52-1.09,25.93-.6,51.87-1.06,77.8-1.59,1.35-.03,2.76,.15,4.26-.58-.36-.27-.5-.47-.67-.49-.98-.08-1.96-.17-2.93-.16-15.01,.12-29.99-.3-45.01,.89-12.9,1.02-25.93,.34-38.9,.46-3.7,.04-7.41-.04-11.07,.6v1.96Zm606.4,414.08c-1.75-2.54-2.22-5.6-3.41-8.36-3.62-8.34-7.38-16.62-11.03-24.94-2.36-5.38-4.61-10.8-6.93-16.19-2.87-6.65-5.84-13.26-8.61-19.95-2.12-5.13-4.4-10.18-7.13-15.03,.33,1.71,.7,3.41,1.35,4.99,1.79,4.34,3.94,8.54,5.49,12.96,1.24,3.55,2.82,6.96,4.22,10.42,3.79,9.38,8.06,18.57,11.64,28.05,1.09,2.89,2.32,5.77,3.61,8.54,2.99,6.41,5.1,13.16,8.18,19.51h2.62ZM140.64,0c.74,1.43,1.51,2.8,2.47,4.13,3.86,5.36,7.44,10.9,11.16,16.36,3.59,5.27,7.24,10.51,10.84,15.78,3.48,5.1,6.93,10.23,10.38,15.35,2.98,4.42,5.86,8.9,9.43,13.12,.6-1.8-.59-2.68-1.27-3.72-1.64-2.5-3.35-4.94-5-7.44-2.87-4.34-5.71-8.7-8.55-13.06-2.32-3.56-4.76-7.06-6.91-10.73-2.21-3.76-4.79-7.27-7.09-10.97C152.17,12.48,147.81,6.38,143.91,0h-3.27Zm-52.33,850.39c.06-1.41,.95-2.38,1.78-3.4,6.88-8.38,13.47-17.01,20.05-25.61,5.69-7.44,11.74-14.62,17.11-22.32,.62-.89,2.09-1.26,1.25-3.33-1.07,1.25-1.99,2.27-2.86,3.33-3.16,3.87-6.18,7.86-9.49,11.6-4.81,5.44-9.39,11.09-13.9,16.74-3.71,4.64-7.91,8.89-11.26,13.81-2.2,3.24-5.53,5.57-7.26,9.17h4.58ZM306.14,0c2.45,3.48,2.8,7.75,4.09,11.63,2.26,6.8,4.05,13.76,6.19,20.62,2.66,8.56,4.92,17.24,7.35,25.87,.57,2.02,1.01,4.08,2.68,6.04-.13-1.04-.14-1.78-.32-2.48-1.91-7.38-3.9-14.74-5.76-22.14-1.4-5.57-2.47-11.22-3.98-16.76C314.33,15.23,312.24,7.69,310.72,0h-4.58ZM850.39,394.45c-5.14,.7-10.34,1.21-15.46,1.62-15.67,1.27-31.35,2.44-47,4.01-2.2,.22-4.41,.31-6.61,.46,23.09,.33,46.08-1.38,69.08-2.82v-3.27ZM419.96,0c-.24,12.3,.67,24.57,.96,36.86,.56,24.21,.25,48.44,1.39,70.96,.57-34.28-.29-70.24-.19-106.21,0-.54-.13-1.08-.2-1.61h-1.96Zm430.43,347.35c-2.05,.27-4.11,.43-6.13,.83-8.74,1.74-17.45,3.61-26.2,5.3-3.94,.76-8.11,.66-11.87,1.91-6.9,2.29-14.26,1.97-21.13,4.29-3.1,1.05-6.57,.82-10.09,2.06,2.99,1.81,4.98-.5,7.27-.67,3.9-.29,7.93-.39,11.62-1.51,7.68-2.33,15.74-2.18,23.48-4.16,5.32-1.37,11.09-1.03,16.41-2.4,5.51-1.43,11.05-1.89,16.64-2.38v-3.27ZM400.34,0c-.05,1.08-.22,2.17-.14,3.24,1,12.88,.8,25.8,2.35,38.68,1.29,10.66,1.33,21.5,1.57,32.26,.14,6.07,2.28,11.89,1.27,18.82,1.35-1.77,.99-2.87,.94-3.88-.46-10.51-.97-21.02-1.64-31.53-1.22-19.18-1.79-38.41-3.04-57.59h-1.31Zm-126.03,75.68c.1-2.52-1.57-4.37-2.45-6.53-2.5-6.15-4.67-12.47-7.57-18.42-3.88-7.97-7.02-16.25-10.58-24.34C249.89,17.68,246.25,8.85,242.69,0h-2.62c.41,1.11,.7,2.3,1.26,3.33,3.28,6.03,5.66,12.46,8.45,18.7,3.74,8.36,7.68,16.63,11.27,25.05,4.15,9.72,8.24,19.45,12.8,28.98,.15-.13,.3-.26,.46-.4ZM554.72,0c-.4,3.69-2.13,6.99-3.07,10.53-1.37,5.2-3.03,10.32-4.45,15.51-2.27,8.33-5.12,16.5-7.68,24.75-1.91,6.14-3.98,12.25-5.55,18.48-1.11,4.38-3.08,8.54-3.51,13.09l-.05-.04c.23-.21,.56-.37,.69-.63,3.29-7.01,4.92-14.59,7.28-21.91,3.02-9.38,6.27-18.7,9.01-28.16C550.45,20.99,554.11,10.57,557.34,0h-2.62ZM409.5,0c1.2,29.14,2.4,58.29,3.61,87.43,.29-.74,.37-1.5,.36-2.25-.31-18.28-.65-36.56-.95-54.84-.17-10.11-.27-20.23-.4-30.34h-2.62Zm-35.98,850.39c.05-1.76,1.26-3.16,1.36-4.98,.75-13.13,2.01-26.21,3.67-39.26,.57-4.47,1.31-9.02,.66-13.59-3.46,19.21-5.27,38.66-8.96,57.82h3.27ZM54.29,0c.47,.97,.74,2.05,1.64,2.75,4.06,3.16,7.03,7.39,10.4,11.15,6.67,7.44,13.39,14.84,20.18,22.17,1.39,1.5,2.28,3.84,5.45,4.75-5.77-7.1-10.99-13.61-16.31-20.04C69.9,13.81,64.04,6.92,58.22,0h-3.92ZM850.39,283.9c-.85,.15-1.74,.17-2.53,.46-6.62,2.41-13.11,5.23-19.84,7.24-10.9,3.26-21.36,7.77-32.29,10.9-1.35,.39-2.59,.93-3.55,2.21,2.82,.49,4.7-1.67,7.03-2.15,8.68-1.78,16.83-5.28,25.32-7.67,4.38-1.23,8.91-2.27,13.19-4.16,3.97-1.76,8.43-2.42,12.67-3.57v-3.27ZM516.78,0c.18,1.61-1.06,2.83-1.27,4.29-1.48,10.37-3.58,20.61-6.04,30.78-1.24,5.14-1.15,10.51-3.03,15.58-.66,1.77-1.16,3.96-.58,6.41,3.22-6.08,2.93-12.74,4.98-18.81,2.13-6.32,2.73-13.14,4.64-19.55,1.85-6.18,2.5-12.61,4.57-18.7h-3.27Zm-39.9,850.39c.25-1.61-.97-2.82-1.16-4.35-1.13-9.02-1.39-18.11-3.14-27.1-1.72-8.88-1.89-18.01-3.19-27.02-1.45-10.04-2.75-20.13-4.18-30.19,.66,7.4,.74,14.81,2.22,22.19,1.46,7.27,1.55,14.8,2.55,22.2,1.58,11.8,2.06,23.75,3.95,35.54,.46,2.89,.03,5.88,.99,8.72h1.96Zm373.52-248.58c-5.36-1.13-10.02-4.5-16.04-5.14,2.01,1.65,4.69,1.42,5.83,3.77-9.92-3.96-19.75-7.89-29.63-11.84,.22,1.92,1.5,2.07,2.63,2.45,6.22,2.09,11.9,5.41,17.92,7.99,6.46,2.78,12.81,5.88,19.3,8.65v-5.89Zm-449.4,248.58c-.08-20.05,1.86-40.02,2.47-60.52-1.02,1.64-1.69,2.81-1.76,4.31-.23,5.33-.54,10.65-.85,15.98-.45,7.82-.41,15.72-1.56,23.44-.83,5.6-1.25,11.17-1.57,16.78h3.27Zm-179.24,0c.58-3.9,2.82-7.18,4.35-10.68,4.32-9.84,9.26-19.41,13.95-29.09,2.8-5.77,5.64-11.53,8.36-17.34,.68-1.46,1.68-2.93,1.26-5.22-3.04,4.97-5.05,9.9-7.39,14.67-3.61,7.37-7.32,14.7-11,22.04-2.88,5.72-6.06,11.32-8.58,17.19-1.2,2.79-3.65,5.09-3.57,8.42h2.62ZM0,582.19c2.34,.22,3.94-1.54,5.95-2.23,7.11-2.42,14.27-4.74,21.17-7.66,3-1.27,6.22-1.85,9.08-3.27,6.04-3,12.57-4.67,18.74-7.32,4.77-2.05,9.74-3.65,14.61-5.46-.12-.36-.25-.73-.37-1.09-2.42,1.39-5.09,1.93-7.65,2.81-12.07,4.15-23.93,8.85-36.04,12.92-3.27,1.1-6.61,2.59-9.88,3.68-5.17,1.72-10.05,4.51-15.62,4.99v2.62ZM669.19,0c-.72,4.16-3.6,7.27-5.42,10.88-2.16,4.28-4.75,8.33-7.12,12.51-2.8,4.95-5.43,9.98-8.34,14.86-3.47,5.81-6.78,11.69-9.96,18.09,1.81-.17,2.04-1.48,2.55-2.41,1.41-2.54,2.61-5.21,4.18-7.64,4.17-6.45,8.02-13.09,11.83-19.76,2.28-3.98,5.07-7.68,7.17-11.76,2.59-5.05,6.43-9.37,8.38-14.77h-3.27ZM0,341.47c9.93,1.96,19.87,3.84,29.81,5.69,8.9,1.66,17.79,3.48,26.75,4.89,3.56,.56,6.97,2.02,10.71,1.53-22.22-5.84-44.96-9.34-67.27-14.73v2.62Zm0,155.03c4.01-.81,8.06-1.55,12.06-2.27,10.95-1.97,21.92-3.77,32.8-6.13,3.23-.7,6.53-1.09,9.8-1.63-1.09-.46-2.19-.64-3.22-.43-6.46,1.28-13.04,1.81-19.53,2.77-10.61,1.58-21.19,3.53-31.91,4.41v3.27Zm0-96.16c1.5,.23,3,.58,4.51,.67,13.11,.75,26.23,1.46,39.34,2.18,.87,.05,1.74,.16,2.61,.16,9.54,.01,19.08,0,28.63,0-10.85,.43-21.55-1.7-32.4-2.04-4.89-.15-9.77-.66-14.66-.83-9.34-.33-18.66-1.58-28.03-.78v.65Zm427.16,450.05c.66-23.52-1.67-46.99-1.31-70.5,.07-4.71,.01-9.42,.01-14.13-.71,8.28-.72,16.56-.71,24.83,.01,19.93,.03,39.87,.05,59.8h1.96Zm-73.26,0c.41-6.27,1.95-12.36,2.96-18.53,.79-4.82,.71-9.85,2.03-14.49,1.83-6.47,1.81-13.2,3.57-19.67,1.63-6.02,1.12-12.44,3.02-18.51,.66-2.1,1.35-4.59,.39-7.4,.04,2.12-1.19,3.48-1.38,5.05-1.43,11.47-4.1,22.72-5.96,34.09-1.43,8.75-3.22,17.44-4.41,26.23-.6,4.43-1.45,8.82-2.18,13.23h1.96ZM322.5,0c3.86,16.96,8.68,33.66,13.5,50.37-1.77-8.75-3.13-17.56-5.34-26.22C328.62,16.2,327.36,8.06,325.77,0h-3.27ZM850.39,518.09c-1.4-.12-2.83-.11-4.21-.38-9.93-1.95-19.86-3.9-29.76-5.97-3.14-.65-6.33-.92-9.44-2.05-2.93-1.07-6.28-1-9.45-1.43,6.16,2.06,12.3,3.9,18.53,5.39,8.59,2.06,17.23,3.86,25.73,6.31,2.73,.79,5.6,1.78,8.6,1.4v-3.27ZM0,502.39c1.53,.46,3.03,.08,4.52-.18,7.52-1.31,14.89-3.43,22.38-4.75,8.95-1.57,17.79-3.65,26.72-5.37-6.84,.83-13.67,1.63-20.5,2.72-11.01,1.75-22.03,3.63-33.12,4.97v2.62ZM561.26,0c-.36,6.25-3.33,11.79-4.87,17.73-2.14,8.26-5.17,16.28-7.82,24.41-1.86,5.7-3.89,11.36-5.49,17.13-.63,2.25-2.1,4.47-1.34,7.52,1.3-2.23,1.72-4.35,2.38-6.26,3.86-11.25,7.15-22.7,11.16-33.9,1.55-4.33,2.53-8.83,4.41-13.09,1.9-4.29,2.83-9.01,4.19-13.55h-2.62ZM0,291.75c3.61,1.06,7.22,2.15,10.82,3.22,9.96,2.95,19.79,6.32,29.75,9.25,7.41,2.18,14.76,4.58,22.2,6.67,.9,.25,1.78,.75,2.69,.27-7.59-3.44-15.58-5.9-23.54-8.25-8.22-2.43-16.13-5.79-24.48-7.74-.83-.19-1.63-.71-2.37-.89-5.1-1.25-9.79-3.86-15.07-4.48v1.96ZM264.93,0c.07,.75-.06,1.59,.23,2.23,2.74,5.97,4.64,12.25,7.02,18.34,1.17,3,1.92,6.18,3.31,9.03,3.24,6.64,5.47,13.66,8.12,20.52,1.82,4.71,3.57,9.43,6.1,14.44,.08-3.87-1.84-6.47-2.91-9.34-2.88-7.73-5.56-15.54-8.56-23.24C274.16,21.44,270.65,10.67,266.89,0h-1.96ZM0,194.94c2.97,2.47,6.62,3.72,9.98,5.45,4.65,2.4,9.12,5.12,13.9,7.31,5.12,2.35,9.9,5.43,14.87,8.12,4.42,2.39,8.98,4.53,13.29,7.1,1.12,.66,2.03,1.17,3.55,1.34-.85-.85-1.18-1.57-2.05-2.02-3.58-1.86-6.94-4.16-10.59-5.83-4-1.82-7.57-4.33-11.4-6.41-4.78-2.59-9.44-5.39-14.25-7.92-5.77-3.03-11.19-6.73-17.3-9.11v1.96Zm850.39,354.55c-6.95-1.58-13.82-3.57-20.59-5.65-7.44-2.28-14.95-4.43-22.4-6.71-7.32-2.25-14.8-4.04-22.11-6.37-1.41-.45-2.94-1.08-5.34-.56,3.13,.52,5.1,1.9,7.44,2.5,5.44,1.39,10.76,3.19,16.19,4.65,8.99,2.43,17.82,5.45,26.73,8.2,1.44,.45,2.95,.69,4.38,1.18,5.18,1.79,10.4,3.4,15.72,4.73v-1.96Zm0,16.35c-4.14-1.42-8.23-3.04-12.44-4.21-8.8-2.45-17.36-5.63-26.13-8.18-3.5-1.02-7.09-2.23-10.53-3.77-3.47-1.56-7.53-1.72-11.06-3.42-.3-.14-.88-.01-.97,1.04,6.45,1.53,12.48,4.61,18.95,6.38,5.53,1.51,10.83,3.66,16.3,5.34,8.69,2.67,17.05,6.43,25.88,8.79v-1.96ZM455.29,0c.53,6.33-.98,12.51-1.37,18.77-.62,10.11-.77,20.25-1.55,30.34-.42,5.38,.11,10.84-1.49,16.19-.69,2.3-.48,5.02,.41,7.49,.39-.49,.56-.99,.61-1.49,1.25-13.94,1.3-27.96,3.34-41.85,.81-5.47,.39-11.11,1.04-16.61,.51-4.28-.52-8.77,1.61-12.83h-2.62ZM0,478.18c6.12-.71,12.24-1.08,18.36-2.24,9.12-1.72,18.51-1.73,27.71-3.44,8.96-1.67,18.24-1.39,27.11-3.99-4.61,.26-9.15,.81-13.74,1.56-9.51,1.56-19.2,1.54-28.77,3.22-10.11,1.77-20.55,1.34-30.66,3.59v1.31Zm545.56,372.21c-1.57-5.54-3.47-11-4.98-16.54-2.28-8.3-4.86-16.52-7-24.84-1.35-5.24-3.17-10.33-4.42-15.61-.74-3.15-1.88-6.33-3.1-9.43,.91,4.29,1.63,8.56,2.9,12.8,3.79,12.66,7.09,25.47,10.25,38.3,1.25,5.1,3.76,9.91,3.74,15.32h2.62ZM0,440.9c22.61-.68,45.23-1.31,66.17-3.12-20.99-.22-43.6,.16-66.17,1.81v1.31Zm0,66.72c.47-.61,.97-1.05,1.83-1.19,5.52-.88,10.98-2.06,16.46-3.24,9.5-2.04,19.09-3.69,28.42-6.51-3.66-.03-7.15,.81-10.73,1.46-11.97,2.18-24.07,3.61-35.97,6.2v3.27ZM488,0c-.79,15.97-4.7,31.61-5.21,48.14,1.65-5.49,2.13-10.68,3.04-15.74,1.48-8.27,2.67-16.62,4.18-24.9,.2-1.08,.24-2.15,.95-3.04,.1-1.49,.21-2.98,.31-4.47h-3.27ZM340.81,0c1.01,4.84,1.91,9.71,2.96,14.54,1.61,7.37,3.48,14.7,4.65,22.17,.5,3.19,.84,6.42,2.73,9.51-.03-3.81-1.05-7.19-1.71-10.64-.96-5-.98-10.22-2.29-15.11-1.8-6.75-2.37-13.6-3.07-20.47h-3.27Zm146.53,850.39c-.48-5.57-1.12-11.08-2.23-16.61-1.62-8.03-1.88-16.31-3.54-24.4-1.5-7.27-1.22-14.87-3.94-22.59-.39,5.04,1.18,9.17,1.8,13.43,1.13,7.7,1.6,15.47,2.97,23.18,1.58,8.91,2.08,18.04,3.63,27h1.31Zm363.05-467.72c-3.25-.74-6.14,1.03-9.27,1.3-10.47,.9-20.96,1.69-31.34,3.42-1.94,.32-3.91,.51-5.86,.77,15.59,.38,30.97-2.23,46.47-2.87v-2.62ZM416.69,0c-.05,.32-.15,.64-.15,.96-.42,19.03,1.65,37.99,1.88,57.01,.12-1.16,.22-2.33,.21-3.5-.01-15.13,0-30.26-.08-45.39-.01-3.03,.17-6.09-.55-9.09h-1.31ZM0,226.99c2.05,.69,4.19,1.2,6.14,2.1,5.78,2.66,11.4,5.64,17.3,8.07,3.72,1.53,7.17,3.76,10.92,5.19,4.04,1.54,7.55,4.45,12.13,4.61-4.57-2.47-9.23-4.77-13.91-7.01-4.63-2.21-9.42-4.12-13.9-6.59-6.07-3.35-12.48-5.96-18.69-8.98v2.62Zm0,181.85c19.3,.46,38.58,1.64,57.9,1.06-.64-.16-1.29-.19-1.94-.22-9.68-.35-19.42-.11-29.01-1.23-8.99-1.05-17.98-.88-26.95-1.58v1.96Zm0-73.26c4.21,.79,8.42,1.64,12.61,2.46,7.09,1.38,14.03,3.56,21.25,4.31,1.99,.21,3.98,.76,5.96,1.27,4.82,1.23,9.8,1.8,14.72,2.63-3.73-1.65-7.64-2.54-11.49-3.31-7.29-1.46-14.52-3.21-21.82-4.6-.95-.18-1.98-.17-2.87-.52-5.93-2.29-12.37-2.28-18.37-4.2v1.96ZM372.21,0c2.23,17.46,4.46,34.91,6.69,52.37,.52-2.02,.42-4.01,.29-6.01-.43-6.81-1.34-13.56-2.41-20.29-1.38-8.66-.71-17.57-3.27-26.08h-1.31Zm478.18,668.54c-9.03-4.83-18.06-9.67-27.09-14.5-.32,.98-.3,1.26-.16,1.34,7.31,4.57,14.6,9.18,21.97,13.65,1.69,1.02,2.92,3,5.27,2.78v-3.27Zm0-92.23c-5.14,.02-9.56-2.67-14.09-4.39-9.06-3.43-18.55-5.68-27.28-9.97-.6-.29-1.57-.22-1.56,1.22,4.26,.92,8.11,3.13,12.35,4.4,3.67,1.1,7.4,2.3,10.87,3.84,6.46,2.85,13.27,4.69,19.71,7.52v-2.62ZM533.13,0c-3.54,12.56-6.18,25.32-9.02,38.05,.55-1.27,1.63-2.1,1.96-3.59,1.67-7.66,3.74-15.22,6.14-22.69,1.23-3.84,1.94-7.84,2.89-11.76h-1.96Zm-100.74,850.39c.57-18.92-.66-37.81-1.09-56.71-.26,9.45-.26,18.9-.26,28.35,0,9.45,.03,18.91,.04,28.36h1.31ZM0,656.77c1.01-.37,2.09-.62,3.02-1.14,5.12-2.84,10.18-5.8,15.31-8.62,4.51-2.49,8.93-5.13,13.57-7.42,1.58-.77,3.64-1.55,4.87-3.31-.78-.56-1.41-.59-1.98-.17-2.77,2.02-5.91,3.35-8.88,5.01-4.54,2.53-9.14,5-13.72,7.42-3.92,2.07-7.59,4.95-12.19,5.62v2.62ZM0,74.57c5.18,3.12,9.58,7.27,14.44,10.82,3.61,2.64,6.64,6.1,11.28,8.35-2.27-3.76-5.77-5.24-8.28-7.84-3.82-3.96-8.35-7.15-12.39-10.91-1.44-1.34-2.54-3.64-5.05-3.69v3.27ZM850.39,442.86c-2.08-1.1-4.32-1.32-6.64-1.36-7.73-.14-15.47,.11-23.2-.49-3.88-.3-7.8-.05-11.71-.05,5.12,1.14,10.3,.98,15.45,1.52,8.62,.9,17.37,1.47,26.1,1.04v-.65ZM317.92,0c.02,.75-.16,1.57,.08,2.25,2.51,7.22,4.47,14.59,6.07,22.06,.38,1.76,.94,3.38,2.68,5.27-.56-2.71-.98-4.8-1.44-6.88C323.66,15.14,321.34,7.73,320.53,0h-2.62Zm246.86,827.26c2.56,7.7,4.65,15.56,7.6,23.13h1.31c-.61-2.58-1.74-5.03-2.43-7.53-2.31-8.35-5.41-16.44-8.11-24.66-.94-2.88-1.7-5.93-3.23-8.64-.05,6.34,2.94,11.92,4.86,17.69ZM0,394.45c11.43,.56,22.8,2.28,34.12,2.33-1.19-.81-2.46-1.54-4.06-1.66-10.03-.75-20.14-.64-30.06-2.63v1.96Zm0-18.97c7.89,.34,15.76,.75,23.57,2.27,4.52,.88,9.22,1.18,13.89,.7-2.75,.04-5.2-1.26-7.8-1.62-6.46-.89-12.95-1.63-19.46-1.92-3.48-.16-6.64-2.25-10.2-1.39v1.96Zm850.39,132.14c-2.72,.5-5.03-1.1-7.58-1.54-5.73-.99-11.66-.81-17.2-2.93-.77-.3-1.9-.51-2.99,1,9.61,1.12,18.46,4.36,27.77,5.43v-1.96ZM440.9,0V20.82C443.13,13.99,443.4,7,443.51,0h-2.62Zm409.5,405.57c-14.36-.23-28.65,1.3-42.98,1.79,14.33-.17,28.68,.09,42.98-1.13v-.65ZM302.87,0c0,.64-.2,1.37,.04,1.91,2.31,5.19,3.42,10.75,5.21,16.1,.59,1.77,.92,3.67,2.75,5.16C308.82,15.28,306.83,7.64,304.83,0h-1.96ZM378.75,0c.11,8.87,1.12,17.64,3.09,26.3,.63-8.89-1.82-17.52-2.44-26.3h-.65Zm333.62,850.39c-1.82-4.95-5.48-8.75-8.32-13.05-.74-1.12-1.03-3.41-3.61-3.31,.29,1.45,1.39,2.12,1.94,3.03,2.75,4.53,5.76,8.9,8.68,13.33h1.31ZM387.91,0c.4,6.66,.73,13.33,2.19,19.9,.48-1.19,.47-2.35,.48-3.52,.08-5.51-2.1-10.82-1.37-16.39h-1.31Zm462.48,318.57c-6.17,2-12.59,3.13-18.53,5.49,6.34,.05,12.27-2.58,18.53-3.53v-1.96ZM540.33,0c-.45,6.17-2.79,11.95-3.66,18.05,2.46-5.85,4.28-11.88,5.63-18.05h-1.96Zm310.07,357.82c-5.44,.12-10.42,2.62-15.79,3.27,5.26-.44,10.52-.87,15.79-1.31v-1.96ZM212.6,850.39c2.24-4.51,4.49-9.02,6.73-13.54-.26-.12-.51-.25-.77-.37-2.15,4.66-5.6,8.67-6.61,13.91h.65ZM850.39,240.73c-3.77,1.19-7.38,2.7-10.51,5.19,3.69-1.1,7.4-2.12,10.51-4.53v-.65ZM434.35,0V10.16c-.26-3.57,2.22-6.65,1.96-10.16h-1.96Zm-114.48,850.39c-.23-3.36,1.51-6.54,1-9.96-.62,3.45-2.21,6.58-2.97,9.96h1.96Zm-11.12,0c-.53-3.18,2.54-5.71,1.73-9.18-1.99,2.91-2.59,6.02-3.04,9.18h1.31ZM213.52,129.52c-12.55-17.59-25.1-35.18-37.64-52.78-12.52-17.59-24.46-35.61-38.68-51.93,23.84,36.1,50.25,70.33,75.25,105.59,.36-.29,.71-.58,1.07-.88ZM109.08,30.75c-.38,3.32,30.86,42.68,36.84,46.65-12.08-15.5-23.17-31.79-36.84-46.65ZM758.01,114.57c-16.43,13.89-30.88,29.09-46.11,43.42,4.59-1.37,45.6-39.71,46.11-43.42Zm-154.21-7.74c10.13-16.4,20.3-32.77,28.43-50.26-11.14,15.85-19.16,33.4-28.43,50.26ZM56.91,760.5c-10.67,9.34-22.14,17.78-32.03,28.82,3.97-.24,29.2-23.14,32.03-28.82ZM266.89,36.65c5.9,16.99,13.97,33.11,20.94,49.67-6.24-16.83-12.24-33.74-19.32-50.23-.54,.19-1.07,.37-1.61,.56ZM77.58,357.74c18.49,5.14,37.45,7.79,56.35,10.73-18.82-3.38-37.31-8.54-56.35-10.73Zm750.33-81.17c-16.13,4.31-31.37,11.05-46.83,17.13,15.94-4.86,31.7-10.13,46.83-17.13Zm-217.85-195.16c-2.91,3.29-23.58,41.48-24.49,45.49,3.09-2.53,24.54-42.65,24.49-45.49Zm-20.3,8.86c-8.7,16.34-16.28,33.22-23.88,50.09,1.65-3.34,3.83-6.39,5.38-9.8,1.52-3.35,3.43-6.58,5.15-9.87,1.78-3.39,3.46-6.84,5.24-10.22,1.74-3.3,3.43-6.63,5.17-9.94,1.64-3.13,2.76-6.54,4.1-9.82-.39-.15-.78-.29-1.17-.44ZM45.5,232.2c15.01,8.36,30.59,15.55,46.29,22.55-15.16-8.01-29.9-16.81-45.44-24.06-.28,.51-.57,1.01-.85,1.52Zm89.26,477.82c-4.52,2.84-35.32,33.07-36.38,35.7,2.77-.22,35.42-32.27,36.38-35.7Zm-22.3-156.62c-15.61,5.22-30.94,11.12-45.69,18.46,15.86-4.6,30.56-12.07,45.69-18.46ZM285.78,22.2c3.01,13.81,8.34,26.84,13.68,39.87-4.1-13.45-7.47-27.13-13.68-39.87Zm427.31,526.1c14.42,7,28.91,13.83,44.02,18.99-14.08-7.9-29.27-12.92-44.02-18.99ZM74.55,159.87c9.79,9.93,21.75,16.98,32.96,25.04-10.72-8.7-20.99-18.01-32.96-25.04Zm772.58,470c-10.78-6.65-22.89-10.63-34.31-16.01,10.83,6.49,22.02,12.25,33.39,17.65,.31-.55,.61-1.1,.92-1.65ZM111.06,258.41c-12.5-7.11-24.65-14.09-37.81-20.51,1.31,3.14,33.65,20.48,37.81,20.51Zm-65.03,105.44c-.08,.56-.16,1.12-.24,1.68,13.74,1.97,27.38,4.66,41.28,5.19-13.72-2.22-27.25-5.51-41.04-6.88ZM180.94,72.07c-.42-.4-1.01-.26-1.82,.52,6.11,10.07,13.65,19.22,20.61,28.78,.02-2.09-16.08-26.76-18.79-29.3Zm-100.76,488.96c-4.35,1.71-8.59,3.8-13.06,5.11-6.7,1.97-12.99,4.99-19.61,7.16-1.25,.41-1.98,1.35-2.64,3.43,13.05-5.21,25.46-9.99,37.65-15.7-.95-.67-1.67-.26-2.34,0Zm-37.91-148.03c-3.03-.44-6.07-.37-9.11-.46-5.33-.16-10.7-.05-15.96-.74-4.2-.55-8.37-1.05-12.6-1.03-1.44,0-2.87-.05-3.59,2.16,13.84,.91,27.55,.54,41.26,.06Zm287.49,359.52c-3.62,12.8-7.57,24.67-9.85,36.98,2.68-2.89,10.56-32.51,9.85-36.98Zm392.61-124.34c-9.32-9.25-20.56-15.97-31.11-23.6,9.96,8.4,19.97,16.74,31.11,23.6Zm85.17-462.53c-9.65,5.02-18.13,11.47-26.95,17.4,4.84-.47,26.7-14.56,26.95-17.4ZM84.02,267.55c9.52,5.63,19.69,9.77,29.99,13.59-9.84-4.91-19.21-10.9-29.99-13.59Zm666.61,143.12c-12.46,.82-24.91,1.65-38.24,2.53,13.4,.53,25.89-.01,38.38-.61-.05-.64-.09-1.28-.14-1.92ZM311.19,135.97c-3.21-9.25-6.15-18.61-10.96-27.27,2.53,9.52,6.35,18.55,10.96,27.27Zm341.19,584.51c4.89,6.86,9.38,13.44,14.97,19.13-.36-3.49-11.84-17.81-14.97-19.13Zm-147.67,27.72c-.51,5.76,4.46,26.63,7.15,27.39-2.32-8.87-4.63-17.73-7.15-27.39Zm102.83-537.96c-5.94,4.9-9.93,11.43-14.64,17.35,5.22-5.5,10.89-10.64,14.64-17.35Zm101.2-58.54c-5.26,4.58-10.22,9.48-14.37,15.2,5.02-4.81,10.05-9.62,15.07-14.43-.23-.26-.47-.51-.7-.77ZM110.11,588.33c5.53-2.92,11.06-5.84,16.58-8.76-.12-.24-.24-.47-.35-.71-3.7,1.78-7.54,3.32-11.05,5.42-1.88,1.12-4.45,1.29-5.61,3.56,.15,.16,.29,.33,.44,.49ZM275.23,93.04c2.18,4.87,4.36,9.73,6.54,14.6-.44-3.15-1.08-6.36-2.81-8.77-1.42-1.98-.81-4.97-3.39-6.18-.11,.11-.23,.23-.34,.34Zm412.33,273.87c-4.61-.36-8.39,2.43-12.68,2.98,6,.43,11.32-.85,12.68-2.98ZM118.05,572.71c4.48-2.15,8.96-4.3,13.44-6.46-5.11,.61-9.22,3.6-13.93,5.15,.16,.43,.33,.87,.49,1.3ZM530.47,82.36c-2.34,4.94-3.84,10.11-4.24,15.59,.86-3.18,1.93-6.28,3.14-9.35,.76-1.93,1.6-4.05,1.04-6.29l.05,.05ZM105.54,575.26c3.98-1.88,7.95-3.76,12.5-5.92-2.53-.45-4.27,.42-5.5,1.28-2.38,1.66-5.61,1.72-7.48,4.17,.16,.15,.33,.31,.49,.46Zm605.52,93.26c2.02,2.43,3.52,5.56,7.38,5.56-2.06-2.39-3.82-5.16-7.38-5.56ZM144.03,120.65c2.04,3.94,5.28,6.78,8.66,9.48-2.2-3.8-5.42-6.65-8.66-9.48Zm242.07,578.29c-.02,3.71-1.13,6.78-.69,10.95q2.37-8.32,.69-10.95Zm254.59-77.72c-2.05-3.01-5.06-4.88-7.94-6.91,2.03,2.95,4.54,5.37,7.47,7.35,.16-.15,.32-.29,.47-.44ZM273.85,76.08c.92,3.87,3.33,7.05,4.96,10.61-.61-4.03-2.58-7.51-4.51-11.01-.15,.13-.3,.26-.46,.4Zm286.66,639.08c.62,4.49,3.64,7.33,4.9,10.91-.76-3.8-2.39-7.22-4.9-10.91ZM442.22,132.39c.87-2.59,.75-5.2-.02-7.83-.67,2.6-.88,5.2,.02,7.83Zm-278.78,40.05c1.78,2.7,4.26,4.67,6.87,6.52-2.14-2.31-3.92-5.06-6.87-6.52Zm396.77,550.88c-1.32-3.01-2.63-6.02-3.95-9.03-.36,.18-.72,.35-1.08,.53,2.05,2.74,2.03,6.4,4.56,8.93,.16-.14,.32-.28,.48-.42Zm167.47-51.77c-2.67-2.8-5.55-5.31-9.24-6.69,3.05,2.26,5.18,5.63,8.79,7.16,.15-.16,.3-.32,.45-.47ZM106.18,432.15h14.99v-.18h-14.99c0,.06,0,.12,0,.18Zm190.38,302.02c2.23-2.93,2.94-6.41,3.83-9.84-1.12,3.3-3.85,5.88-4.31,9.44,.16,.13,.32,.27,.47,.4Zm-204.1-112.45c3.13-2.18,6.81-3.47,9.77-5.94-.13-.13-.27-.27-.4-.4-3.49,1.6-7.09,3.03-9.85,5.85,.16,.16,.32,.33,.48,.49Zm9.77-5.94c2.54-1.83,5.83-2.54,8.42-5.4-2.44,.58-7.94,3.84-8.82,5,.13,.13,.27,.26,.4,.4Zm649.82,161.03c-1.21-2.82-3.48-4.61-5.91-6.25,1.6,2.44,3.35,4.73,5.91,6.25Zm-146.77-12.26c-.83-3.75-3.26-6.67-5.15-9.87,.56,3.89,3.1,6.86,4.72,10.26,.14-.13,.28-.25,.42-.38Zm196.91-356.36c-2.14-.62-4.27-.68-6.42-.04,2.16,.8,4.29,.6,6.42,.04ZM222.6,690.43c2.65-1.66,3.82-4.45,5.38-6.95-2.75,1.45-3.99,4.19-5.76,6.48,.13,.16,.25,.32,.38,.47Zm470.37,30.9c-1.51-2.87-4.43-4.39-6.49-6.75,.9,3.32,3.54,5.19,6.01,7.2,.16-.15,.32-.3,.49-.45Z" />
</svg>