<svg id="a" fill="{{fill1}}" xmlns="http://www.w3.org/2000/svg" viewBox="0 0 850.39 850.39">
    <path d="M425.11,413.9c-4.38,2.44-8.06,4.26-7.57,7.36h-.03s0,.03,.01,.04c-.1-.05-.21-.1-.35-.14,.03,.07,.06,.11,.09,.16h-.01c-5.53-1.97,.7-7.78-5.17-9.84,3.12-1.92,10.88-5.45,10.88,.52,.63,1.42,1.37,1.96,2.16,1.89Zm1.69-.96c-.57,.33-1.13,.65-1.69,.96,.54-.05,1.11-.39,1.69-.96Zm-9.27,8.36s.03,.09,.04,.14c-.12-.04-.22-.08-.31-.11h-.01c10.73,25.72,39.25-2.8,46.84-14.41,10.06-15.41,10.32-36.01,3.44-52.49-11.6-27.79-37.92-53.88-64.32-67.95-18.83-10.04-45.4-11.86-62.18-22.34-17.68-11.04-61.5,1.14-79.8,7.01-17.55,5.62-33.84,16-49.4,25.5-47.38,28.93-95.12,68.97-127.11,114.65C53.84,455.37,21.04,509.05,0,565.47v284.93H81.15c-9.44-29.75-18.96-59.39-21.83-90.84-4.35-47.6-3-94.22,2.6-141.42,9.83-82.99,47.69-162.19,97.03-228.36,49.34-66.17,103.81-102.13,186.84-100.65,37.66,.67,83.36,26.49,106.17,55.54,13.33,16.97,13.85,39.23,7,58.81-4.89,13.95-11.82,19.33-20.47,20.42,12.33-6.86,16.28-35.66,16.83-46.25,.81-15.71-12.52-32.79-24.52-41.06-20.62-14.21-47.9-23.35-72.83-24.96-15.03-.97-46.32-5.01-59.82,4.72-6.15,4.43-19.92,6.12-26.9,9.34-12.8,5.91-24.85,12.99-36.07,21.54-12.2,9.29-22.35,20.98-32.4,32.47-23.07,26.35-43.55,74.8-51.95,108.42-17.75,71.06-42.11,153.65-21.71,227.72,10.19,36.97,13.35,73.35,27.16,109.97,1.63,4.31,4.73,14.31,8.67,24.61h91.77c-13.97-22.65-30.36-44.48-39.5-69.85-10.36-28.78-16.05-60.98-27.4-88.98-15.17-37.42-12.48-92.22-10.4-131.43,1.65-31.12,6.63-61.13,13.33-91.51,8.36-37.88,27.01-74.47,57.76-99.04,27.91-22.3,53.27-28.9,85.79-38.64,29.47-8.83,82.49-3.48,100.99,24.4,15.69,23.65,21.7,64.75-16.62,64.75,1.46,1.17,2.86,2.11,4.21,2.87-2.36-.47-4.81-1.06-7.33-1.71,0,.02,0,.03,0,.05,0,0-.02,0-.02,0Zm432.87,330.66c-155.31,45.53-319.5,16.92-452.18-79.65-76.29-55.53-130.5-141.86-88.78-236.36,16.61-37.63,51.93-83.93,98.77-65.62,10.63,4.15,24.37,13.13,25.67,25.7,.19,1.84-3.57,13.45-7.08,16.91,3.1-1.81,6.3-4.04,8.48-7.29,5.81-8.72,.09-19.69-5.68-26.42-15.98-18.63-49.75-30.8-72.05-14.59-35.99,26.16-91.32,70.85-85.44,123.28-6.57,5.85-5.33,48.53,0,55-2.93,17.86,13.24,45.27,21.66,59.7,27.07,46.4,68.07,106.56,114.95,135.13,43.5,26.51,80.41,60.91,130.21,77.42,39.91,13.23,78.39,25.93,119.91,32.78,5.8,.96,11.66,1.77,17.56,2.46h102.22c11.34-1.19,22.58-2.73,33.61-4.59,12.85-2.17,25.56-4.78,38.19-7.77v-86.08ZM422.46,383.01c-19.35-11.56-35.58-8.44-55.83-3.4-38.54,9.6-48.76,80.72-48.75,111.97,.03,95.13,76.26,148.18,156.47,179.94,73.05,28.93,171.61,49.11,249.67,28.82,36.02-9.36,71.88-13.12,107.59-26.4,5.61-2.09,12.24-4,18.78-6.21v-88.3c-3.91,2.76-7.3,5.24-9.59,6.84-16.78,11.71-36.81,19.03-55.45,27.12-32.44,14.07-69.55,26.32-104.93,30.4-68.35,7.87-137.91,13.45-205.08-6.54-73.47-21.87-140.48-77.57-139.95-161.9,.2-31.93,6-91.77,50.49-93.04,10.91-.31,22.1-4.91,32.42,2.64,8.24,6.03,8.01,11.36,6.67,16.5-2.57-5.68-8.03-12.52-9.42-13.46-14.25-9.6-35.59,1.37-47.25,10.33-31.95,24.53-22.13,73.2-10.28,105.55,29.75,81.24,102.79,109.16,181.84,109.83,62.06,.52,124.84-16.48,181.6-41.23,36.86-16.08,69.47-36.28,101.82-60.06,9.3-6.84,18.16-15.58,27.13-24.18v-103.11c-13.03,18.67-27.37,36.19-42.78,52.96-26.9,29.26-57.42,53.89-90.01,76.32-52.95,36.44-126.6,74.1-192.24,73.96-65.21-.14-125.44-36.13-154.94-94.73-11.62-23.08-22.15-50.34-7.92-74.85,10.64-18.32,60.45-51.44,60.45-9.47,.03,0,.05,0,.08,0-.05,.45-.08,.9-.08,1.35,0-.25,.3-.73,.77-1.4,2.1-.26,2.76-1.65,2.55-3.59,3.88-5.82,8.35-15.4-3.81-22.66ZM0,69.01c25.66-6.06,51.15-12.79,77.33-16.65,39.93-5.9,78.24-.16,117.85-.03,75.73,.25,157.37,41.74,219.53,81.29,71.9,45.76,151.93,128.22,123.11,222.14-10.48,34.17-27.21,77.27-61.5,94.98-27.2,14.05-93.49-3.52-65.49-41.42-16.36,0-11.23,23.87-5.9,31.49,7.72,11.03,17.92,14.82,28.76,21.81,14.38,9.27,30.2-3.8,43.56-2.11,45.75-33.52,81.85-70.11,88.78-129.34,10.03-85.62-53.66-180.19-120.05-230.73-39.48-30.05-85.7-76.46-136.27-87.11C303.6,8.04,294.65,3.66,284.69,0H0V69.01ZM477.82,428.04c-19.9,18.05-73.49,24.92-67.08-15.54-12.01,16.35,4.23,31.42,20.47,34.56,18.86,3.64,36.22,.65,51.84-11.61,21.89-17.18,36.85-58.93,35.33-86.25-2.6-46.71-7.05-85.94-37.97-124.55-28.44-35.5-73.9-56.43-115.54-72.18-77.17-29.19-159.16-41.17-241.25-31.41-31.58,3.76-68.03,7.26-97.04,20.94C18.49,145.82,9.32,149.66,0,153.21v84.41c20.68-11.2,40.93-24.01,62.92-32.52,35.73-13.82,72.49-21.16,109.84-28.44,69.03-13.46,149.76-4.64,216.15,17.11,59.79,19.59,111.84,84.5,112.15,148.36,.15,29.98,.81,64.1-23.24,85.91ZM116.39,310.61c55.09-36.97,128.06-75.15,196.27-75.16,62.91,0,133.43,37.01,156.27,98.95,9.57,25.96,18.29,43.89,5.5,70.04-11.45,23.42-52.06,46.67-61.39,10.4-8.6,39.04,47.42,18.33,61.11,4.76,23.14-22.94,16.38-58.43,9.34-86.54-9.8-39.13-36.88-73.81-69.99-96.13-25.68-17.3-51.64-16.89-77.91-28.09-15.14-6.45-55.33-1.69-71.54,2.29-11.77,2.89-37.96,9.02-49.01,6.91-19.65,9.81-45.86,12.16-66.8,19.63-21.72,7.75-43.19,16.77-63.53,27.67-20.27,10.87-39.71,22.53-58.4,35.95C18.72,306.77,9.44,316.32,0,325.06v96.7c15.85-19.63,32.6-39.95,34.97-42.44,24.56-25.86,51.82-48.83,81.43-68.7Zm222.01,431.21c-22.86-24.76-44.94-60.19-57.71-91.26-7.49-18.22-16.53-35.88-22.04-54.88-3.9-13.45-16.83-35.49-13.54-49.64,3.08-13.23-3.45-35.77-2.39-50.57,.81-11.38,4.96-22.89,8.2-33.72,11.8-39.5,40.46-69.35,73.69-91.88,26.8-18.17,63.75-29.34,92.69-10.92,11.39,7.25,28.58,28.15,23.9,43.05-1.04,3.3-11.99,14.52-15.46,16.38,40.97-7.82,8.55-61.98-15.02-72.9-33.64-15.57-81.18,1-111.08,18.54-42.96,25.2-84.22,78.41-84.12,130.31,.27,136.08,43.36,255.3,131.23,356.06h108.85c-16.46-11.14-31.43-23.91-47.6-35.47-27.72-19.8-46.96-48.6-69.59-73.11Zm87.33-323.43c-.33,.06-.64,.13-.97,.19,.15,.15,.49,.08,.97-.19ZM604.03,8.94c9.32,18.06,14.38,38.84,24.12,56.4,14.18,25.55,10.34,57.49,22.47,82.93,11.65,24.43,11.82,83.37,7.2,107.42-5.71,29.77-1.59,62.06-11.38,91.51-12.49,37.58-21.64,69.95-51.28,98.59-31.78,30.71-75.32,49-119.72,49.37-27.53,.23-61.59-5.64-78.01-29.9-9.83-14.53-13.62-35.42-6.6-51.9,4.22-9.89,20.83-15.76,28.07-5.69,0-1.02-.06-1.95-.17-2.79,.59,.99,1.11,2.03,1.52,3.08,8.12-6.31-10.99-15.09-15.62-14.81-9.72,.6-18.81,4.43-24.8,13-14.45,20.7-21.16,46.43-7.09,69.45,22,36,70.34,82.33,116.81,82.34,52.3,0,88.65-1.64,135.03-30.96,35.25-22.28,68.54-48.71,96.86-79.32,21.09-22.8,40.07-46.48,56.95-72.59,6.75-10.43,35.98-45.94,32.88-59.77,12.32-14.8,15.13-39.66,23.05-56.83,5.58-12.08,13.41-34.58,16.06-52.08V0h-88.71c6.14,21.19,16.07,42.7,15.76,64.22-.6,42.51,5.94,83.78,.22,126.68-9.52,71.43-34.25,137.6-70.64,199.74-51.87,88.57-132.14,164.41-241.31,137.9-32.94-8-83.48-35.23-90.92-71.52-4.33-21.09,1.55-43.36,18.53-57.58,6.56-5.49,13.64-4.8,19.06-1.24-9,.11-24.44,14.35-27.2,18.93-9.1,15.08-3.3,34.98,3.31,49.35,15.23,33.12,51.75,29.41,78.18,43.39,29.88,15.81,89.08-4.83,115.74-20.92,27.11-16.35,47.48-37.68,63.93-65.29C722.04,296.54,731.09,137.64,681.27,0h-82.55c2.05,3.22,3.92,6.24,5.31,8.94Zm-141.2,31.29c27.53,27.59,49.62,58.63,70.76,91.15,28.47,43.79,58.58,105.69,60.34,158.67,2.4,72.43-30.29,144.59-101.37,173.56-33.36,13.6-61.35,15.39-86.69-12.73-6.52-7.23-17.21-55.43,8.98-44.91-25.63-10.29-23.79,30.79-17.96,43.05,7.23,15.21,23.89,31.48,41.7,33,29.7,2.53,61.43-2.59,88.15-16.92,26.48-14.2,54.58-34.87,68.12-62.52,4.91-10.01,12.38-20.41,16.65-31.71,2.24-5.93,4.43-32.42,8.22-36.28,12.51-12.76,.68-71.2-1.51-86.19-3.84-26.25-8.39-52.14-16.07-77.54-12.57-41.57-28.55-83.12-52.43-119.69C538.34,33.75,527.13,16.52,514.45,0h-97.12c1.41,.94,2.56,1.7,3.32,2.19,15.76,10.24,28.99,24.82,42.18,38.03Z" />
</svg>