<svg id="bg31" fill="{{fill1}}" xmlns="http://www.w3.org/2000/svg" viewBox="0 0 850.39 850.39">
    <defs>
        <style>
            .bgf {
                fill:{{fill1}};
            }
        </style>
    </defs>
    <path class="b" d="M50.02,38.65l-25.01,38.65L0,38.65,25.01,0l25.01,38.65ZM75.03,0l-25.01,38.65,25.01,38.65,25.01-38.65L75.03,0ZM125.06,0l-25.01,38.65,25.01,38.65,25.01-38.65L125.06,0ZM175.08,0l-25.01,38.65,25.01,38.65,25.01-38.65L175.08,0ZM225.1,0l-25.01,38.65,25.01,38.65,25.01-38.65L225.1,0ZM275.13,0l-25.01,38.65,25.01,38.65,25.01-38.65L275.13,0ZM325.15,0l-25.01,38.65,25.01,38.65,25.01-38.65L325.15,0ZM375.17,0l-25.01,38.65,25.01,38.65,25.01-38.65L375.17,0ZM425.2,0l-25.01,38.65,25.01,38.65,25.01-38.65L425.2,0ZM475.22,0l-25.01,38.65,25.01,38.65,25.01-38.65L475.22,0ZM525.24,0l-25.01,38.65,25.01,38.65,25.01-38.65L525.24,0ZM575.27,0l-25.01,38.65,25.01,38.65,25.01-38.65L575.27,0ZM625.29,0l-25.01,38.65,25.01,38.65,25.01-38.65L625.29,0ZM675.31,0l-25.01,38.65,25.01,38.65,25.01-38.65L675.31,0ZM725.34,0l-25.01,38.65,25.01,38.65,25.01-38.65L725.34,0ZM775.36,0l-25.01,38.65,25.01,38.65,25.01-38.65L775.36,0ZM825.38,0l-25.01,38.65,25.01,38.65,25.01-38.65L825.38,0ZM25.01,77.31L0,115.96l25.01,38.65,25.01-38.65-25.01-38.65Zm50.02,0l-25.01,38.65,25.01,38.65,25.01-38.65-25.01-38.65Zm50.02,0l-25.01,38.65,25.01,38.65,25.01-38.65-25.01-38.65Zm50.02,0l-25.01,38.65,25.01,38.65,25.01-38.65-25.01-38.65Zm50.02,0l-25.01,38.65,25.01,38.65,25.01-38.65-25.01-38.65Zm50.02,0l-25.01,38.65,25.01,38.65,25.01-38.65-25.01-38.65Zm50.02,0l-25.01,38.65,25.01,38.65,25.01-38.65-25.01-38.65Zm50.02,0l-25.01,38.65,25.01,38.65,25.01-38.65-25.01-38.65Zm50.02,0l-25.01,38.65,25.01,38.65,25.01-38.65-25.01-38.65Zm50.02,0l-25.01,38.65,25.01,38.65,25.01-38.65-25.01-38.65Zm50.02,0l-25.01,38.65,25.01,38.65,25.01-38.65-25.01-38.65Zm50.02,0l-25.01,38.65,25.01,38.65,25.01-38.65-25.01-38.65Zm50.02,0l-25.01,38.65,25.01,38.65,25.01-38.65-25.01-38.65Zm50.02,0l-25.01,38.65,25.01,38.65,25.01-38.65-25.01-38.65Zm50.02,0l-25.01,38.65,25.01,38.65,25.01-38.65-25.01-38.65Zm50.02,0l-25.01,38.65,25.01,38.65,25.01-38.65-25.01-38.65Zm50.02,0l-25.01,38.65,25.01,38.65,25.01-38.65-25.01-38.65ZM25.01,154.62L0,193.27l25.01,38.65,25.01-38.65-25.01-38.65Zm50.02,0l-25.01,38.65,25.01,38.65,25.01-38.65-25.01-38.65Zm50.02,0l-25.01,38.65,25.01,38.65,25.01-38.65-25.01-38.65Zm50.02,0l-25.01,38.65,25.01,38.65,25.01-38.65-25.01-38.65Zm50.02,0l-25.01,38.65,25.01,38.65,25.01-38.65-25.01-38.65Zm50.02,0l-25.01,38.65,25.01,38.65,25.01-38.65-25.01-38.65Zm50.02,0l-25.01,38.65,25.01,38.65,25.01-38.65-25.01-38.65Zm50.02,0l-25.01,38.65,25.01,38.65,25.01-38.65-25.01-38.65Zm50.02,0l-25.01,38.65,25.01,38.65,25.01-38.65-25.01-38.65Zm50.02,0l-25.01,38.65,25.01,38.65,25.01-38.65-25.01-38.65Zm50.02,0l-25.01,38.65,25.01,38.65,25.01-38.65-25.01-38.65Zm50.02,0l-25.01,38.65,25.01,38.65,25.01-38.65-25.01-38.65Zm50.02,0l-25.01,38.65,25.01,38.65,25.01-38.65-25.01-38.65Zm50.02,0l-25.01,38.65,25.01,38.65,25.01-38.65-25.01-38.65Zm50.02,0l-25.01,38.65,25.01,38.65,25.01-38.65-25.01-38.65Zm50.02,0l-25.01,38.65,25.01,38.65,25.01-38.65-25.01-38.65Zm50.02,0l-25.01,38.65,25.01,38.65,25.01-38.65-25.01-38.65ZM25.01,231.93L0,270.58l25.01,38.65,25.01-38.65-25.01-38.65Zm50.02,0l-25.01,38.65,25.01,38.65,25.01-38.65-25.01-38.65Zm50.02,0l-25.01,38.65,25.01,38.65,25.01-38.65-25.01-38.65Zm50.02,0l-25.01,38.65,25.01,38.65,25.01-38.65-25.01-38.65Zm50.02,0l-25.01,38.65,25.01,38.65,25.01-38.65-25.01-38.65Zm50.02,0l-25.01,38.65,25.01,38.65,25.01-38.65-25.01-38.65Zm50.02,0l-25.01,38.65,25.01,38.65,25.01-38.65-25.01-38.65Zm50.02,0l-25.01,38.65,25.01,38.65,25.01-38.65-25.01-38.65Zm50.02,0l-25.01,38.65,25.01,38.65,25.01-38.65-25.01-38.65Zm50.02,0l-25.01,38.65,25.01,38.65,25.01-38.65-25.01-38.65Zm50.02,0l-25.01,38.65,25.01,38.65,25.01-38.65-25.01-38.65Zm50.02,0l-25.01,38.65,25.01,38.65,25.01-38.65-25.01-38.65Zm50.02,0l-25.01,38.65,25.01,38.65,25.01-38.65-25.01-38.65Zm50.02,0l-25.01,38.65,25.01,38.65,25.01-38.65-25.01-38.65Zm50.02,0l-25.01,38.65,25.01,38.65,25.01-38.65-25.01-38.65Zm50.02,0l-25.01,38.65,25.01,38.65,25.01-38.65-25.01-38.65Zm50.02,0l-25.01,38.65,25.01,38.65,25.01-38.65-25.01-38.65ZM25.01,309.23L0,347.89l25.01,38.65,25.01-38.65-25.01-38.65Zm50.02,0l-25.01,38.65,25.01,38.65,25.01-38.65-25.01-38.65Zm50.02,0l-25.01,38.65,25.01,38.65,25.01-38.65-25.01-38.65Zm50.02,0l-25.01,38.65,25.01,38.65,25.01-38.65-25.01-38.65Zm50.02,0l-25.01,38.65,25.01,38.65,25.01-38.65-25.01-38.65Zm50.02,0l-25.01,38.65,25.01,38.65,25.01-38.65-25.01-38.65Zm50.02,0l-25.01,38.65,25.01,38.65,25.01-38.65-25.01-38.65Zm50.02,0l-25.01,38.65,25.01,38.65,25.01-38.65-25.01-38.65Zm50.02,0l-25.01,38.65,25.01,38.65,25.01-38.65-25.01-38.65Zm50.02,0l-25.01,38.65,25.01,38.65,25.01-38.65-25.01-38.65Zm50.02,0l-25.01,38.65,25.01,38.65,25.01-38.65-25.01-38.65Zm50.02,0l-25.01,38.65,25.01,38.65,25.01-38.65-25.01-38.65Zm50.02,0l-25.01,38.65,25.01,38.65,25.01-38.65-25.01-38.65Zm50.02,0l-25.01,38.65,25.01,38.65,25.01-38.65-25.01-38.65Zm50.02,0l-25.01,38.65,25.01,38.65,25.01-38.65-25.01-38.65Zm50.02,0l-25.01,38.65,25.01,38.65,25.01-38.65-25.01-38.65Zm50.02,0l-25.01,38.65,25.01,38.65,25.01-38.65-25.01-38.65ZM25.01,386.54L0,425.2l25.01,38.65,25.01-38.65-25.01-38.65Zm50.02,0l-25.01,38.65,25.01,38.65,25.01-38.65-25.01-38.65Zm50.02,0l-25.01,38.65,25.01,38.65,25.01-38.65-25.01-38.65Zm50.02,0l-25.01,38.65,25.01,38.65,25.01-38.65-25.01-38.65Zm50.02,0l-25.01,38.65,25.01,38.65,25.01-38.65-25.01-38.65Zm50.02,0l-25.01,38.65,25.01,38.65,25.01-38.65-25.01-38.65Zm50.02,0l-25.01,38.65,25.01,38.65,25.01-38.65-25.01-38.65Zm50.02,0l-25.01,38.65,25.01,38.65,25.01-38.65-25.01-38.65Zm50.02,0l-25.01,38.65,25.01,38.65,25.01-38.65-25.01-38.65Zm50.02,0l-25.01,38.65,25.01,38.65,25.01-38.65-25.01-38.65Zm50.02,0l-25.01,38.65,25.01,38.65,25.01-38.65-25.01-38.65Zm50.02,0l-25.01,38.65,25.01,38.65,25.01-38.65-25.01-38.65Zm50.02,0l-25.01,38.65,25.01,38.65,25.01-38.65-25.01-38.65Zm50.02,0l-25.01,38.65,25.01,38.65,25.01-38.65-25.01-38.65Zm50.02,0l-25.01,38.65,25.01,38.65,25.01-38.65-25.01-38.65Zm50.02,0l-25.01,38.65,25.01,38.65,25.01-38.65-25.01-38.65Zm50.02,0l-25.01,38.65,25.01,38.65,25.01-38.65-25.01-38.65ZM25.01,463.85L0,502.51l25.01,38.65,25.01-38.65-25.01-38.65Zm50.02,0l-25.01,38.65,25.01,38.65,25.01-38.65-25.01-38.65Zm50.02,0l-25.01,38.65,25.01,38.65,25.01-38.65-25.01-38.65Zm50.02,0l-25.01,38.65,25.01,38.65,25.01-38.65-25.01-38.65Zm50.02,0l-25.01,38.65,25.01,38.65,25.01-38.65-25.01-38.65Zm50.02,0l-25.01,38.65,25.01,38.65,25.01-38.65-25.01-38.65Zm50.02,0l-25.01,38.65,25.01,38.65,25.01-38.65-25.01-38.65Zm50.02,0l-25.01,38.65,25.01,38.65,25.01-38.65-25.01-38.65Zm50.02,0l-25.01,38.65,25.01,38.65,25.01-38.65-25.01-38.65Zm50.02,0l-25.01,38.65,25.01,38.65,25.01-38.65-25.01-38.65Zm50.02,0l-25.01,38.65,25.01,38.65,25.01-38.65-25.01-38.65Zm50.02,0l-25.01,38.65,25.01,38.65,25.01-38.65-25.01-38.65Zm50.02,0l-25.01,38.65,25.01,38.65,25.01-38.65-25.01-38.65Zm50.02,0l-25.01,38.65,25.01,38.65,25.01-38.65-25.01-38.65Zm50.02,0l-25.01,38.65,25.01,38.65,25.01-38.65-25.01-38.65Zm50.02,0l-25.01,38.65,25.01,38.65,25.01-38.65-25.01-38.65Zm50.02,0l-25.01,38.65,25.01,38.65,25.01-38.65-25.01-38.65ZM25.01,541.16L0,579.81l25.01,38.65,25.01-38.65-25.01-38.65Zm50.02,0l-25.01,38.65,25.01,38.65,25.01-38.65-25.01-38.65Zm50.02,0l-25.01,38.65,25.01,38.65,25.01-38.65-25.01-38.65Zm50.02,0l-25.01,38.65,25.01,38.65,25.01-38.65-25.01-38.65Zm50.02,0l-25.01,38.65,25.01,38.65,25.01-38.65-25.01-38.65Zm50.02,0l-25.01,38.65,25.01,38.65,25.01-38.65-25.01-38.65Zm50.02,0l-25.01,38.65,25.01,38.65,25.01-38.65-25.01-38.65Zm50.02,0l-25.01,38.65,25.01,38.65,25.01-38.65-25.01-38.65Zm50.02,0l-25.01,38.65,25.01,38.65,25.01-38.65-25.01-38.65Zm50.02,0l-25.01,38.65,25.01,38.65,25.01-38.65-25.01-38.65Zm50.02,0l-25.01,38.65,25.01,38.65,25.01-38.65-25.01-38.65Zm50.02,0l-25.01,38.65,25.01,38.65,25.01-38.65-25.01-38.65Zm50.02,0l-25.01,38.65,25.01,38.65,25.01-38.65-25.01-38.65Zm50.02,0l-25.01,38.65,25.01,38.65,25.01-38.65-25.01-38.65Zm50.02,0l-25.01,38.65,25.01,38.65,25.01-38.65-25.01-38.65Zm50.02,0l-25.01,38.65,25.01,38.65,25.01-38.65-25.01-38.65Zm50.02,0l-25.01,38.65,25.01,38.65,25.01-38.65-25.01-38.65ZM25.01,618.47L0,657.12l25.01,38.65,25.01-38.65-25.01-38.65Zm50.02,0l-25.01,38.65,25.01,38.65,25.01-38.65-25.01-38.65Zm50.02,0l-25.01,38.65,25.01,38.65,25.01-38.65-25.01-38.65Zm50.02,0l-25.01,38.65,25.01,38.65,25.01-38.65-25.01-38.65Zm50.02,0l-25.01,38.65,25.01,38.65,25.01-38.65-25.01-38.65Zm50.02,0l-25.01,38.65,25.01,38.65,25.01-38.65-25.01-38.65Zm50.02,0l-25.01,38.65,25.01,38.65,25.01-38.65-25.01-38.65Zm50.02,0l-25.01,38.65,25.01,38.65,25.01-38.65-25.01-38.65Zm50.02,0l-25.01,38.65,25.01,38.65,25.01-38.65-25.01-38.65Zm50.02,0l-25.01,38.65,25.01,38.65,25.01-38.65-25.01-38.65Zm50.02,0l-25.01,38.65,25.01,38.65,25.01-38.65-25.01-38.65Zm50.02,0l-25.01,38.65,25.01,38.65,25.01-38.65-25.01-38.65Zm50.02,0l-25.01,38.65,25.01,38.65,25.01-38.65-25.01-38.65Zm50.02,0l-25.01,38.65,25.01,38.65,25.01-38.65-25.01-38.65Zm50.02,0l-25.01,38.65,25.01,38.65,25.01-38.65-25.01-38.65Zm50.02,0l-25.01,38.65,25.01,38.65,25.01-38.65-25.01-38.65Zm50.02,0l-25.01,38.65,25.01,38.65,25.01-38.65-25.01-38.65ZM25.01,695.78L0,734.43l25.01,38.65,25.01-38.65-25.01-38.65Zm50.02,0l-25.01,38.65,25.01,38.65,25.01-38.65-25.01-38.65Zm50.02,0l-25.01,38.65,25.01,38.65,25.01-38.65-25.01-38.65Zm50.02,0l-25.01,38.65,25.01,38.65,25.01-38.65-25.01-38.65Zm50.02,0l-25.01,38.65,25.01,38.65,25.01-38.65-25.01-38.65Zm50.02,0l-25.01,38.65,25.01,38.65,25.01-38.65-25.01-38.65Zm50.02,0l-25.01,38.65,25.01,38.65,25.01-38.65-25.01-38.65Zm50.02,0l-25.01,38.65,25.01,38.65,25.01-38.65-25.01-38.65Zm50.02,0l-25.01,38.65,25.01,38.65,25.01-38.65-25.01-38.65Zm50.02,0l-25.01,38.65,25.01,38.65,25.01-38.65-25.01-38.65Zm50.02,0l-25.01,38.65,25.01,38.65,25.01-38.65-25.01-38.65Zm50.02,0l-25.01,38.65,25.01,38.65,25.01-38.65-25.01-38.65Zm50.02,0l-25.01,38.65,25.01,38.65,25.01-38.65-25.01-38.65Zm50.02,0l-25.01,38.65,25.01,38.65,25.01-38.65-25.01-38.65Zm50.02,0l-25.01,38.65,25.01,38.65,25.01-38.65-25.01-38.65Zm50.02,0l-25.01,38.65,25.01,38.65,25.01-38.65-25.01-38.65Zm50.02,0l-25.01,38.65,25.01,38.65,25.01-38.65-25.01-38.65ZM25.01,773.09L0,811.74l25.01,38.65,25.01-38.65-25.01-38.65Zm50.02,0l-25.01,38.65,25.01,38.65,25.01-38.65-25.01-38.65Zm50.02,0l-25.01,38.65,25.01,38.65,25.01-38.65-25.01-38.65Zm50.02,0l-25.01,38.65,25.01,38.65,25.01-38.65-25.01-38.65Zm50.02,0l-25.01,38.65,25.01,38.65,25.01-38.65-25.01-38.65Zm50.02,0l-25.01,38.65,25.01,38.65,25.01-38.65-25.01-38.65Zm50.02,0l-25.01,38.65,25.01,38.65,25.01-38.65-25.01-38.65Zm50.02,0l-25.01,38.65,25.01,38.65,25.01-38.65-25.01-38.65Zm50.02,0l-25.01,38.65,25.01,38.65,25.01-38.65-25.01-38.65Zm50.02,0l-25.01,38.65,25.01,38.65,25.01-38.65-25.01-38.65Zm50.02,0l-25.01,38.65,25.01,38.65,25.01-38.65-25.01-38.65Zm50.02,0l-25.01,38.65,25.01,38.65,25.01-38.65-25.01-38.65Zm50.02,0l-25.01,38.65,25.01,38.65,25.01-38.65-25.01-38.65Zm50.02,0l-25.01,38.65,25.01,38.65,25.01-38.65-25.01-38.65Zm50.02,0l-25.01,38.65,25.01,38.65,25.01-38.65-25.01-38.65Zm50.02,0l-25.01,38.65,25.01,38.65,25.01-38.65-25.01-38.65Zm50.02,0l-25.01,38.65,25.01,38.65,25.01-38.65-25.01-38.65Z" />
</svg>