<svg id="a" fill="{{fill1}}" xmlns="http://www.w3.org/2000/svg" viewBox="0 0 850.39 850.39">
    <defs>
        <style>.b{fill:none;}</style>
    </defs>
    <path d="M567.93,514.23l44.96,28.13,14.79,9.25-4.45,6.95-4.78,6.73s-.76,1.06-2.09,2.93c-1.42,1.8-3.44,4.37-5.86,7.46-1.17,1.58-2.63,3.13-4.09,4.84-1.47,1.7-3.03,3.49-4.64,5.34-1.69,1.78-3.44,3.61-5.22,5.47-.89,.93-1.79,1.87-2.69,2.81-.94,.9-1.89,1.8-2.84,2.7-1.9,1.8-3.77,3.63-5.67,5.37-1.95,1.69-3.86,3.35-5.72,4.95-.93,.8-1.84,1.59-2.74,2.36-.93,.73-1.84,1.44-2.72,2.14-1.77,1.39-3.44,2.7-4.98,3.92-3.11,2.39-5.84,4.2-7.69,5.55-1.87,1.33-2.93,2.08-2.93,2.08,0,0-3.47,2.23-6.95,4.45-.87,.56-1.74,1.11-2.55,1.64-.84,.48-1.62,.93-2.29,1.32-1.34,.77-2.24,1.28-2.24,1.28l-8.74-15.1-44.05-76.14-8.75-15.13,1.09-.61c.33-.18,.71-.39,1.12-.62,.39-.26,.81-.54,1.22-.82,1.67-1.11,3.39-2.14,3.39-2.14,0,0,.16-.11,.44-.32,.29-.21,.71-.52,1.25-.92,1.06-.82,2.72-1.77,4.45-3.28,.89-.72,1.88-1.47,2.93-2.26,.97-.89,2.01-1.8,3.11-2.73,1.14-.87,2.13-1.99,3.24-3.01,.55-.51,1.11-1.03,1.67-1.55,.55-.53,1.04-1.12,1.57-1.67l1.59-1.65c.54-.54,1.08-1.08,1.54-1.67,.97-1.16,1.94-2.27,2.91-3.33,.88-1.13,1.71-2.24,2.54-3.26,.4-.52,.84-.99,1.19-1.5,.35-.51,.69-1,1.01-1.47,.66-.94,1.27-1.78,1.83-2.53,.55-.75,.92-1.47,1.29-2.02l1.13-1.76s.14-.21,.35-.52c.2-.32,.51-.72,.73-1.17,.49-.87,.97-1.75,.97-1.75,0,0,.5-.86,1.01-1.73,.55-.84,.96-1.75,.96-1.75,0,0,.34-.67,.93-1.85,.31-.58,.68-1.29,1.11-2.1,.4-.82,.77-1.79,1.25-2.81,.24-.51,.48-1.04,.74-1.59,.27-.54,.54-1.11,.74-1.73,.45-1.21,.95-2.47,1.49-3.77,.3-.64,.47-1.33,.71-2.02,.23-.68,.46-1.38,.7-2.08,.23-.7,.52-1.39,.73-2.1l.58-2.17c.94-2.85,1.45-5.81,2.17-8.53,.23-1.39,.44-2.74,.69-4.01,.12-.63,.24-1.25,.36-1.85,.07-.61,.13-1.2,.19-1.76,.25-2.25,.62-4.11,.62-5.45,.1-1.33,.15-2.09,.15-2.09,0,0,.05-.52,.11-1.3,.12-.78,.11-1.83,.12-2.89,.03-2.11,.14-4.23,.14-4.23h122.89s-.11,4.28-.22,8.56c-.04,2.14-.09,4.28-.26,5.88-.12,1.6-.2,2.67-.2,2.67l-.27,3.56c-.09,1.13-.17,2.51-.33,4.09-.2,1.57-.43,3.34-.67,5.27-.24,1.93-.51,4.03-.79,6.24-.39,2.2-.8,4.51-1.23,6.91-.74,4.82-2.04,9.85-3.18,14.92-.27,1.27-.62,2.52-.99,3.76-.35,1.24-.71,2.48-1.06,3.71-.35,1.23-.69,2.45-1.04,3.66-.17,.6-.34,1.2-.51,1.8-.2,.59-.4,1.17-.59,1.74-.78,2.31-1.54,4.54-2.25,6.65-.37,1.05-.68,2.09-1.06,3.07-.39,.98-.76,1.92-1.12,2.83-1.46,3.61-2.56,6.67-3.51,8.74-.94,2.07-1.47,3.25-1.47,3.25,0,0-.42,.94-1.06,2.35-.32,.71-.69,1.53-1.09,2.41-.39,.89-.83,1.82-1.31,2.73-1.88,3.67-3.76,7.35-3.76,7.35l-15.39-8.21-46.8-24.95-15.42-8.22s.59-1.16,1.47-2.9c.43-.87,1.01-1.86,1.52-2.97,.5-1.11,1.02-2.3,1.55-3.49,.51-1.19,1.15-2.34,1.55-3.48,.44-1.13,.85-2.19,1.2-3.1l1.22-3.01s.82-2.56,1.7-5.09c.22-.63,.44-1.27,.65-1.86,.16-.61,.32-1.17,.45-1.66,.27-.97,.45-1.62,.45-1.62,0,0,.36-1.25,.9-3.11,.52-1.87,1-4.43,1.64-6.95,.36-1.25,.47-2.55,.71-3.75,.22-1.2,.42-2.32,.59-3.28,.2-.96,.33-1.76,.38-2.33l.1-.89,52.52,7.38s-.08,.66-.22,1.82c-.14,1.16-.49,2.8-.83,4.77-.38,1.97-.71,4.29-1.24,6.73-.56,2.44-1.16,5.04-1.77,7.64-.26,1.31-.67,2.58-1.03,3.85-.36,1.26-.71,2.51-1.06,3.71-.34,1.2-.67,2.37-.98,3.47-.37,1.09-.72,2.11-1.05,3.06-1.28,3.79-2.13,6.32-2.13,6.32l-16.99-6.22s1.06-3.14,2.11-6.29c.27-.78,.54-1.57,.79-2.3,.21-.75,.4-1.45,.57-2.05l.56-1.99s.22-.77,.55-1.92c.31-1.16,.83-2.68,1.14-4.25,.72-3.12,1.44-6.24,1.44-6.24l-17.08-3.62-1.31,5.65c-.27,1.43-.75,2.8-1.03,3.85-.3,1.04-.5,1.74-.5,1.74,0,0-.2,.72-.51,1.81-.15,.54-.32,1.18-.51,1.85-.23,.66-.48,1.37-.72,2.08l-1.91,5.69s-1.07,2.69-2.14,5.39c-.26,.68-.52,1.35-.77,1.99-.25,.63-.54,1.2-.76,1.69l-.75,1.65,48.41,21.65s.5-1.1,1.37-3.01c.88-1.91,1.89-4.75,3.25-8.09,.33-.84,.68-1.71,1.04-2.62,.35-.91,.64-1.87,.98-2.85,.66-1.96,1.36-4.02,2.09-6.16,.18-.53,.37-1.07,.55-1.61,.16-.55,.31-1.11,.47-1.66,.32-1.12,.64-2.25,.96-3.39,.32-1.14,.65-2.29,.98-3.44,.34-1.15,.67-2.31,.91-3.49,1.05-4.7,2.27-9.36,2.95-13.82,.4-2.22,.78-4.37,1.15-6.4,.26-2.05,.5-3.99,.73-5.79,.23-1.79,.44-3.43,.63-4.89,.14-1.46,.21-2.74,.3-3.79,.16-2.1,.25-3.3,.25-3.3l-87.75-6.22s-.06,.87-.17,2.4c-.02,1.54-.42,3.68-.71,6.27-.07,.65-.15,1.32-.23,2.02-.13,.69-.27,1.4-.41,2.13-.28,1.46-.53,3.01-.8,4.62-.81,3.14-1.43,6.55-2.49,9.84-.23,.83-.45,1.67-.68,2.5-.25,.82-.57,1.62-.84,2.43-.27,.81-.54,1.6-.8,2.39-.27,.79-.48,1.59-.82,2.33-.62,1.5-1.19,2.95-1.72,4.35-.24,.7-.54,1.36-.85,1.99-.29,.64-.58,1.25-.85,1.84-.55,1.18-.99,2.28-1.45,3.23-.49,.94-.92,1.75-1.27,2.42-.68,1.35-1.07,2.13-1.07,2.13,0,0-.48,1.04-1.11,2.02-.58,1-1.16,1.99-1.16,1.99,0,0-.56,1-1.13,2.01-.26,.52-.61,.98-.84,1.34l-.4,.6s-.47,.74-1.3,2.02c-.43,.64-.87,1.46-1.49,2.32l-2.1,2.91c-.37,.54-.77,1.1-1.17,1.69-.41,.58-.9,1.13-1.36,1.72-.93,1.19-1.91,2.44-2.92,3.74-1.1,1.23-2.22,2.51-3.34,3.83-.54,.68-1.15,1.31-1.77,1.92l-1.82,1.9c-.61,.63-1.18,1.3-1.81,1.91-.64,.6-1.28,1.19-1.91,1.78-1.27,1.18-2.42,2.44-3.72,3.46-1.26,1.07-2.45,2.12-3.58,3.13-1.19,.93-2.32,1.8-3.36,2.61-2.01,1.72-3.9,2.84-5.12,3.77-.62,.45-1.11,.81-1.44,1.05-.33,.24-.51,.37-.51,.37l49.2,72.92s.99-.7,2.72-1.93c1.71-1.26,4.24-2.93,7.13-5.15,1.43-1.13,2.98-2.34,4.62-3.63,.82-.64,1.66-1.3,2.53-1.98,.83-.72,1.67-1.45,2.54-2.19,1.72-1.49,3.5-3.03,5.31-4.59,1.76-1.62,3.49-3.32,5.25-4.99,.88-.84,1.76-1.67,2.64-2.5,.83-.87,1.67-1.74,2.49-2.61,1.65-1.73,3.27-3.43,4.85-5.07,1.49-1.72,2.93-3.38,4.3-4.96,1.35-1.59,2.71-3.03,3.79-4.49,2.25-2.86,4.13-5.25,5.44-6.92,1.23-1.73,1.94-2.72,1.94-2.72l-42.91-31.16s-.43,.62-1.08,1.54c-.66,.92-1.64,2.07-2.56,3.27-.93,1.19-1.85,2.38-2.55,3.27-.72,.87-1.23,1.43-1.23,1.43,0,0-1.91,2.21-3.81,4.41-.95,1.1-2.01,2.11-2.76,2.91-.75,.79-1.26,1.32-1.26,1.32,0,0-.5,.53-1.25,1.33-.72,.83-1.82,1.78-2.87,2.8-1.05,1.01-2.11,2.02-2.9,2.77-.77,.78-1.34,1.24-1.34,1.24l11.69,12.96s.62-.51,1.48-1.36c.87-.83,2.03-1.95,3.2-3.06,1.16-1.12,2.37-2.18,3.17-3.09,.83-.88,1.38-1.46,1.38-1.46,0,0,.55-.58,1.39-1.46,.82-.89,1.98-2,3.04-3.22l4.21-4.87,13.85,11.65s-1.73,2-4.33,5c-1.27,1.52-2.95,3.12-4.64,4.94-.85,.9-1.74,1.83-2.63,2.78-.91,.93-1.9,1.81-2.85,2.73-.96,.91-1.91,1.83-2.86,2.73-.94,.91-1.85,1.8-2.81,2.59-1.87,1.62-3.62,3.14-5.12,4.44-1.46,1.34-2.84,2.28-3.73,3.01-.91,.71-1.43,1.12-1.43,1.12l-32.73-41.73s1.03-.8,2.58-2c1.51-1.25,3.44-3.02,5.45-4.69,1.9-1.8,3.8-3.6,5.23-4.95,.74-.65,1.24-1.3,1.65-1.7l.62-.65s.45-.47,1.13-1.18c.66-.72,1.62-1.62,2.48-2.61,1.69-2,3.42-3.96,3.42-3.96,0,0,.92-.97,2.11-2.57,.62-.78,1.34-1.7,2.11-2.68,.39-.49,.79-.99,1.2-1.5l1.13-1.63c1.5-2.19,3.17-4.27,4.15-6.01,1.07-1.68,1.79-2.79,1.79-2.79l14.82,9.27Zm145.66,64.5l-46.26-24.67-15.94-8.5s2.02-3.94,4.04-7.89c.52-.98,.99-1.98,1.41-2.93,.43-.95,.83-1.83,1.17-2.59l1.14-2.52s.57-1.27,1.58-3.49c1.01-2.22,2.21-5.5,3.77-9.38,.38-.97,.78-1.99,1.2-3.04,.4-1.05,.75-2.17,1.14-3.3,.77-2.27,1.58-4.66,2.42-7.14,.21-.62,.42-1.24,.63-1.87,.18-.64,.37-1.28,.55-1.93,.37-1.29,.74-2.6,1.12-3.92,.37-1.32,.75-2.65,1.13-3.99,.39-1.33,.77-2.68,1.06-4.04,1.23-5.44,2.62-10.85,3.42-16.02,.46-2.57,.9-5.06,1.32-7.42,.3-2.38,.59-4.62,.85-6.7,.26-2.07,.5-3.98,.72-5.66,.17-1.69,.25-3.17,.35-4.38,.19-2.43,.29-3.82,.29-3.82,0,0,.09-1.14,.22-2.86,.17-1.71,.23-4.01,.28-6.3l.23-9.18h123.54l-.31,13.53c-.09,3.38-.2,6.76-.42,9.3l-.31,4.23s-.19,2.46-.52,6.77c-.26,4.31-1.07,10.46-2.01,17.82-.24,1.84-.5,3.76-.76,5.74-.34,1.98-.69,4.02-1.05,6.12-.74,4.2-1.53,8.62-2.41,13.19-2.03,9.08-4.18,18.78-7.04,28.3-.69,2.39-1.38,4.77-2.07,7.15-.73,2.36-1.53,4.69-2.3,7.01-.79,2.32-1.56,4.61-2.33,6.88-.79,2.26-1.52,4.51-2.39,6.67-1.68,4.34-3.33,8.53-4.92,12.49-.77,1.99-1.6,3.89-2.43,5.72-.82,1.83-1.62,3.6-2.38,5.3-1.54,3.39-2.93,6.5-4.25,9.22-1.37,2.7-2.56,5.05-3.54,6.98-1.99,3.86-3.12,6.06-3.12,6.06,0,0-1.49,2.93-3.15,5.77-1.63,2.85-3.26,5.7-3.26,5.7,0,0-1.65,2.84-3.3,5.68-.81,1.43-1.71,2.8-2.36,3.84-.66,1.04-1.1,1.73-1.1,1.73,0,0-1.34,2.1-3.69,5.77-1.2,1.82-2.58,4.08-4.32,6.57-1.75,2.48-3.73,5.27-5.89,8.32-1.09,1.52-2.22,3.1-3.4,4.73-1.19,1.62-2.49,3.24-3.8,4.94-2.64,3.37-5.41,6.92-8.35,10.54-3.03,3.55-6.18,7.19-9.4,10.88-1.59,1.86-3.27,3.66-4.98,5.46-1.71,1.79-3.42,3.6-5.14,5.4-1.73,1.79-3.43,3.61-5.19,5.34-1.79,1.72-3.56,3.43-5.33,5.12-3.56,3.36-7,6.74-10.56,9.75-3.51,3.07-6.93,6.01-10.18,8.78-3.33,2.68-6.51,5.18-9.45,7.48-5.82,4.67-10.99,8.15-14.52,10.7-3.56,2.51-5.6,3.93-5.6,3.93,0,0-5.51,3.55-11.03,7.1-1.39,.88-2.77,1.75-4.07,2.58-1.33,.78-2.57,1.5-3.63,2.12-2.13,1.23-3.55,2.06-3.55,2.06l-8.76-15.15-44.06-76.15-9.05-15.64s.96-.55,2.4-1.38c.72-.42,1.56-.9,2.46-1.42,.87-.56,1.81-1.16,2.74-1.75l7.45-4.78s1.15-.81,3.15-2.23c1.98-1.45,4.91-3.4,8.25-5.96,1.66-1.3,3.45-2.71,5.35-4.2,.95-.75,1.92-1.51,2.92-2.3,.96-.83,1.94-1.67,2.94-2.53,1.99-1.72,4.05-3.51,6.13-5.32,2.03-1.87,4.04-3.83,6.08-5.76,1.02-.97,2.03-1.94,3.04-2.9,.97-1.01,1.93-2.01,2.89-3.01,1.91-2,3.78-3.97,5.6-5.88,1.73-1.99,3.4-3.91,4.98-5.73,1.56-1.84,3.12-3.51,4.38-5.2,2.6-3.31,4.77-6.07,6.29-8,1.43-2,2.25-3.14,2.25-3.14,0,0,2.56-3.61,5.13-7.22,2.39-3.73,4.78-7.46,4.78-7.46l15.31,9.58,44.44,27.81,14.82,9.27s-1.63,2.55-4.08,6.37c-2.39,3.87-5.97,8.75-9.47,13.68-.88,1.23-1.77,2.46-2.64,3.66-.91,1.17-1.81,2.33-2.68,3.45-1.75,2.23-3.39,4.31-4.79,6.09-2.78,3.59-4.79,5.84-4.79,5.84,0,0-3.89,4.49-7.79,8.98-1.96,2.23-4.06,4.34-5.58,5.97-1.54,1.61-2.56,2.69-2.56,2.69,0,0-.51,.54-1.41,1.47-.92,.92-2.15,2.31-3.77,3.84-3.22,3.08-7.47,7.23-11.87,11.23-4.48,3.9-8.94,7.83-12.39,10.65-3.5,2.76-5.83,4.61-5.83,4.61l-32.33-41.23s.74-.58,2.04-1.61c1.28-1.05,3.2-2.43,5.32-4.32,2.14-1.86,4.64-4.02,7.32-6.34,1.36-1.14,2.68-2.41,4.03-3.69,1.35-1.28,2.72-2.59,4.08-3.89,1.36-1.31,2.75-2.6,4.06-3.92,1.29-1.34,2.55-2.67,3.78-3.95,2.42-2.59,4.78-4.92,6.62-7.07,3.71-4.29,6.19-7.14,6.19-7.14l13.36,11.24-7,8.07c-1.76,2-3.65,3.9-5.02,5.36-1.38,1.45-2.3,2.42-2.3,2.42,0,0-.92,.96-2.31,2.41-1.36,1.48-3.32,3.29-5.24,5.14-1.93,1.84-3.87,3.68-5.32,5.06-1.44,1.39-2.46,2.26-2.46,2.26l11.69,12.96s1.07-.92,2.59-2.38c1.53-1.46,3.58-3.4,5.62-5.34,2.03-1.96,4.1-3.87,5.53-5.43l2.44-2.54s.97-1.02,2.43-2.55c1.44-1.55,3.43-3.55,5.3-5.66l7.39-8.52s.97-1.09,2.36-2.78c1.36-1.72,3.17-4.01,4.98-6.3,1.79-2.31,3.63-4.58,4.91-6.35,1.28-1.78,2.13-2.97,2.13-2.97l-42.42-30.81s-.88,1.22-2.41,3.36c-1.62,2.07-3.94,5.02-6.73,8.57-1.36,1.8-3.02,3.6-4.69,5.56-1.7,1.95-3.48,4-5.33,6.13-1.94,2.04-3.95,4.15-5.99,6.29-1.02,1.07-2.06,2.14-3.09,3.22-1.08,1.03-2.17,2.07-3.25,3.11-2.18,2.07-4.33,4.16-6.51,6.16-2.23,1.94-4.43,3.85-6.56,5.69-1.07,.92-2.12,1.82-3.15,2.7-1.06,.84-2.11,1.66-3.12,2.46-2.03,1.59-3.95,3.1-5.72,4.49-3.58,2.74-6.7,4.83-8.83,6.38-2.15,1.52-3.38,2.38-3.38,2.38l49.21,72.93s1.95-1.35,5.34-3.75c3.36-2.44,8.3-5.75,13.85-10.21,2.8-2.2,5.84-4.58,9.01-7.13,3.09-2.66,6.34-5.47,9.71-8.38,3.4-2.88,6.68-6.1,10.07-9.31,1.68-1.62,3.38-3.25,5.09-4.88,1.68-1.66,3.3-3.39,4.95-5.1,1.64-1.72,3.27-3.44,4.9-5.15,1.63-1.71,3.24-3.43,4.76-5.21,3.05-3.53,6.06-7.01,8.97-10.38,2.81-3.45,5.45-6.85,7.97-10.06,1.25-1.61,2.49-3.16,3.62-4.71,1.12-1.56,2.2-3.07,3.24-4.51,2.06-2.91,3.94-5.57,5.62-7.93,1.66-2.37,2.98-4.53,4.12-6.27,2.24-3.5,3.52-5.5,3.52-5.5,0,0,.42-.66,1.05-1.65,.62-1,1.49-2.3,2.26-3.67,1.57-2.71,3.14-5.42,3.14-5.42,0,0,1.56-2.72,3.11-5.44,1.58-2.7,3-5.5,3-5.5,0,0,1.08-2.1,2.98-5.78,.94-1.85,2.07-4.09,3.38-6.66,1.26-2.59,2.58-5.57,4.05-8.8,.73-1.62,1.48-3.31,2.27-5.05,.79-1.74,1.58-3.55,2.32-5.45,1.49-3.79,3.07-7.78,4.69-11.91,.83-2.06,1.53-4.21,2.28-6.36,.73-2.16,1.48-4.35,2.23-6.56,.73-2.21,1.51-4.43,2.2-6.69,.65-2.27,1.31-4.54,1.97-6.82,2.73-9.08,4.77-18.33,6.71-26.99,.84-4.35,1.58-8.58,2.29-12.58,.34-2,.68-3.95,1-5.84,.25-1.89,.49-3.72,.73-5.48,.9-7.03,1.68-12.89,1.92-17,.32-4.11,.5-6.46,.5-6.46l-87.76-6.22s-.11,1.49-.31,4.09c-.11,1.3-.2,2.88-.38,4.69-.23,1.8-.48,3.84-.76,6.06-.28,2.22-.59,4.63-.92,7.17-.45,2.53-.92,5.19-1.41,7.95-.87,5.53-2.34,11.33-3.67,17.15-.31,1.46-.72,2.9-1.13,4.33-.41,1.43-.81,2.86-1.21,4.27-.4,1.41-.8,2.82-1.2,4.2-.2,.69-.4,1.38-.59,2.06-.23,.67-.45,1.34-.67,2.01-.9,2.65-1.76,5.22-2.59,7.65-.42,1.21-.79,2.4-1.23,3.53-.44,1.12-.87,2.21-1.28,3.25-1.67,4.16-2.96,7.67-4.04,10.04-1.07,2.38-1.69,3.74-1.69,3.74l47.86,21.4s.58-1.29,1.45-3.22c.42-.97,.96-2.09,1.46-3.32,.49-1.23,1.02-2.55,1.54-3.86,2.07-5.27,4.13-10.54,4.13-10.54,0,0,1.89-5.55,3.77-11.09,.46-1.39,.93-2.78,1.36-4.08,.38-1.32,.74-2.55,1.04-3.61,.6-2.11,1.01-3.52,1.01-3.52,0,0,.39-1.36,.96-3.4,.56-2.05,1.39-4.75,1.99-7.52,1.27-5.51,2.54-11.03,2.54-11.03l-17.08-3.62s-1.2,5.22-2.41,10.43c-.56,2.62-1.36,5.18-1.89,7.12-.55,1.93-.91,3.22-.91,3.22,0,0-.38,1.33-.95,3.33-.29,1-.62,2.16-.98,3.41-.41,1.23-.85,2.55-1.29,3.86-1.78,5.25-3.57,10.5-3.57,10.5l-16.39-6s1.23-3.63,3.08-9.07c.46-1.36,.95-2.84,1.48-4.4,.45-1.58,.93-3.25,1.43-4.98,.49-1.73,1-3.51,1.51-5.33,.51-1.82,1.06-3.65,1.46-5.53,.86-3.73,1.72-7.47,2.53-10.97,.75-3.51,1.27-6.82,1.8-9.65,.49-2.83,.95-5.18,1.17-6.84,.22-1.66,.34-2.61,.34-2.61l51.88,7.29s-.1,.74-.27,2.03c-.15,1.29-.44,3.13-.84,5.33-.39,2.2-.85,4.77-1.33,7.52-.52,2.74-.97,5.69-1.67,8.59-1.34,5.81-2.61,11.64-3.77,15.95-1.21,4.31-2.02,7.18-2.02,7.18,0,0-.42,1.48-1.06,3.71-.32,1.11-.7,2.41-1.1,3.8-.46,1.37-.94,2.84-1.43,4.3-1.99,5.85-3.98,11.69-3.98,11.69,0,0-1.08,2.78-2.7,6.94-.83,2.08-1.79,4.5-2.82,7.1-1.01,2.61-2.31,5.29-3.51,8.02-1.23,2.71-2.47,5.42-3.63,7.97-1.19,2.53-2.41,4.83-3.41,6.82-2.04,3.97-3.4,6.62-3.4,6.62l-15.42-8.22Zm-294.26,14.54l-1.81,53-.59,17.44s-1.03-.03-2.58-.06c-1.55,0-3.6-.22-5.66-.36-2.06-.16-4.12-.31-5.66-.43-.77-.06-1.42-.11-1.87-.14-.45-.03-.71-.07-.71-.07,0,0-1.3-.17-3.57-.46-2.27-.32-5.53-.63-9.4-1.26-7.73-1.33-18.04-3.24-28.07-6.26-5.07-1.32-9.99-3.12-14.64-4.67-.58-.2-1.16-.39-1.73-.59-.56-.22-1.11-.44-1.66-.66-1.1-.43-2.17-.86-3.22-1.27-2.09-.82-4.07-1.6-5.9-2.32-3.58-1.62-6.56-2.96-8.64-3.91-2.1-.91-3.25-1.55-3.25-1.55,0,0-3.67-1.88-7.34-3.76-1.86-.9-3.61-2-4.96-2.75-1.34-.77-2.23-1.29-2.23-1.29l8.74-15.1,44.05-76.14,8.75-15.13,1.08,.63c.66,.36,1.48,.95,2.39,1.34,1.79,.87,3.55,1.82,3.55,1.82,0,0,.17,.09,.48,.26,.31,.17,.8,.35,1.41,.62,.6,.27,1.33,.6,2.17,.98,.83,.39,1.76,.87,2.84,1.22,1.06,.4,2.2,.85,3.39,1.35,.59,.28,1.23,.45,1.88,.66,.64,.21,1.3,.43,1.97,.66,.67,.24,1.34,.48,2.03,.72,.7,.19,1.41,.38,2.13,.57,.71,.21,1.43,.41,2.15,.62,.72,.22,1.43,.46,2.18,.58,5.83,1.57,11.88,2.24,16.4,2.86,2.3,.11,4.2,.29,5.54,.42,1.35,.02,2.13,.03,2.13,.03l2.04,.05c1.02,.04,2.04,.09,2.04,.09l2.04-.09c1.02-.03,2.04-.05,2.04-.05,0,0,.77,0,2.11-.03,1.33-.14,3.22-.31,5.51-.42,4.5-.62,10.52-1.25,16.31-2.83l1.1-.23,1.07-.33c.72-.21,1.43-.41,2.14-.62,.71-.19,1.42-.38,2.12-.56,.68-.24,1.35-.48,2.01-.72,1.32-.48,2.63-.83,3.83-1.3,1.19-.5,2.32-.95,3.37-1.35,.52-.2,1.04-.37,1.51-.57,.46-.22,.9-.43,1.32-.63,.83-.38,1.56-.71,2.16-.98,.6-.26,1.08-.46,1.4-.6,.32-.15,.48-.25,.48-.25,0,0,1.82-.99,3.68-1.9,.95-.41,1.81-1,2.49-1.38l1.12-.65,8.75,15.13,44.05,76.14,8.74,15.1s-.93,.53-2.32,1.33c-1.4,.79-3.22,1.91-5.15,2.84-3.81,1.95-7.61,3.9-7.61,3.9,0,0-.29,.15-.83,.42-.55,.25-1.37,.62-2.4,1.08-2.08,.92-5.02,2.3-8.59,3.86-1.81,.71-3.78,1.49-5.85,2.31-2.08,.8-4.24,1.75-6.57,2.47-2.31,.78-4.69,1.59-7.11,2.41-.61,.21-1.21,.41-1.82,.62l-1.86,.53c-1.24,.35-2.49,.71-3.74,1.06-9.96,2.98-20.19,4.88-27.87,6.19-3.85,.62-7.08,.93-9.33,1.25-2.25,.29-3.54,.45-3.54,.45,0,0-.25,.04-.71,.07-.45,.03-1.09,.08-1.87,.14-1.54,.12-3.6,.27-5.66,.43-2.06,.14-4.11,.37-5.66,.36-1.55,.04-2.58,.06-2.58,.06l-.59-17.44-1.8-53-.59-17.47,.91-.02c.57-.03,1.41,.04,2.38-.09,1.96-.18,4.57-.36,7.18-.55,2.58-.37,5.17-.69,7.11-.9l3.2-.58s.66-.12,1.66-.3c.99-.2,2.34-.33,3.64-.68,2.61-.64,5.24-1.21,5.24-1.21l.87-.19c.56-.11,1.32-.38,2.26-.64,.94-.27,2.03-.58,3.2-.91,.59-.16,1.19-.32,1.81-.49,.61-.19,1.22-.42,1.83-.63,1.23-.42,2.46-.83,3.61-1.22,.58-.19,1.14-.37,1.67-.54,.52-.21,1-.41,1.46-.59,1.81-.72,3.01-1.2,3.01-1.2l19.82,49.19s-2.48,.98-6.21,2.45c-1.9,.64-4.11,1.38-6.48,2.18-1.19,.38-2.39,.88-3.67,1.2-1.26,.36-2.55,.72-3.83,1.08-5.1,1.6-10.35,2.6-14.24,3.56-1.96,.41-3.62,.65-4.76,.87-1.15,.21-1.81,.32-1.81,.32l-3.09-17.83s.82-.15,2.04-.36c1.22-.25,2.88-.43,4.48-.84,3.23-.75,6.46-1.49,6.46-1.49,0,0,.2-.04,.54-.12,.34-.08,.84-.16,1.41-.35,1.15-.33,2.69-.77,4.23-1.22,1.54-.43,3.08-.87,4.24-1.19,1.14-.39,1.89-.65,1.89-.65l-5.38-16.61s-.68,.24-1.71,.6c-1.05,.29-2.44,.68-3.84,1.07-1.39,.4-2.78,.81-3.83,1.11-.52,.17-.97,.24-1.28,.31-.31,.07-.49,.11-.49,.11,0,0-2.92,.68-5.85,1.35-1.45,.38-2.96,.53-4.06,.76-1.11,.2-1.85,.33-1.85,.33,0,0-.71,.13-1.78,.33-.54,.09-1.16,.24-1.83,.32-.68,.08-1.4,.17-2.12,.25-2.89,.38-5.77,.75-5.77,.75l5.43,52.75,3.28-.42c2.09-.3,5.09-.58,8.65-1.15,7.11-1.23,16.6-2.98,25.82-5.74,1.16-.33,2.31-.65,3.47-.98l1.72-.49c.56-.19,1.13-.38,1.69-.58,2.24-.76,4.45-1.51,6.59-2.23,2.16-.67,4.15-1.56,6.08-2.29,1.92-.76,3.74-1.47,5.42-2.13,3.29-1.48,6.04-2.71,7.96-3.58,.96-.43,1.71-.77,2.23-1l.77-.39-38.47-79.11s-.19,.11-.55,.28c-.37,.16-.92,.4-1.61,.7-.69,.31-1.53,.69-2.49,1.13-.48,.22-.99,.46-1.52,.71-.55,.23-1.13,.43-1.74,.67-1.21,.46-2.52,.98-3.89,1.55-1.38,.54-2.9,.95-4.42,1.5-.76,.27-1.54,.54-2.33,.82-.8,.22-1.62,.44-2.44,.66-.82,.24-1.64,.47-2.47,.71l-1.24,.37-1.27,.27c-6.68,1.8-13.61,2.57-18.78,3.26-2.62,.15-4.8,.34-6.32,.49-1.54,.02-2.42,.04-2.42,.04l-2.34,.06c-1.17,.05-2.34,.09-2.34,.09l-2.34-.09c-1.17-.03-2.34-.06-2.34-.06,0,0-.89-.01-2.44-.04-1.53-.15-3.73-.34-6.36-.49-5.21-.69-12.17-1.5-18.89-3.29-.86-.15-1.69-.41-2.52-.67-.83-.24-1.66-.48-2.48-.71-.82-.23-1.64-.45-2.45-.67-.79-.28-1.57-.55-2.34-.82-.77-.26-1.53-.51-2.28-.76-.74-.24-1.49-.45-2.17-.77-1.38-.57-2.7-1.09-3.91-1.55-1.24-.42-2.31-.96-3.27-1.41-.97-.44-1.81-.81-2.51-1.13-.69-.31-1.26-.53-1.62-.72l-.55-.3-38.67,79.01s1.06,.59,3.01,1.43c1.93,.87,4.69,2.12,8,3.62,1.69,.66,3.52,1.38,5.46,2.15,.97,.38,1.96,.78,2.98,1.18,.51,.2,1.02,.41,1.54,.61,.53,.18,1.06,.36,1.6,.54,4.31,1.43,8.86,3.11,13.56,4.32,9.29,2.8,18.84,4.56,26,5.8,3.59,.59,6.61,.87,8.71,1.17,2.11,.27,3.31,.43,3.31,.43l5.43-52.75-5.98-.78c-.75-.09-1.5-.18-2.2-.26-.69-.13-1.34-.25-1.89-.35-1.11-.2-1.85-.34-1.85-.34,0,0-.71-.13-1.79-.32-1.07-.22-2.52-.36-3.92-.75-2.83-.65-5.65-1.31-5.65-1.31,0,0-.18-.04-.49-.11-.31-.08-.76-.14-1.28-.31-1.04-.3-2.44-.7-3.83-1.11-1.4-.39-2.79-.78-3.84-1.07-1.03-.36-1.71-.6-1.71-.6l-5.38,16.61s.76,.26,1.89,.65c1.16,.33,2.7,.76,4.24,1.19,1.54,.44,3.08,.89,4.23,1.22,.57,.18,1.07,.26,1.41,.35,.34,.08,.54,.12,.54,.12,0,0,3.12,.72,6.24,1.44,1.55,.42,3.15,.59,4.33,.83,1.18,.21,1.97,.35,1.97,.35l-3.14,17.82s-.65-.12-1.79-.32c-1.13-.23-2.78-.43-4.7-.88-3.85-.93-9.03-1.96-14.07-3.53-1.27-.36-2.54-.71-3.79-1.07-1.25-.34-2.44-.82-3.62-1.2-2.34-.79-4.53-1.53-6.41-2.16-3.68-1.46-6.13-2.43-6.13-2.43l19.82-49.19s1.21,.48,3.01,1.2c.45,.18,.94,.38,1.46,.59,.53,.17,1.09,.35,1.67,.54,1.15,.39,2.38,.81,3.61,1.22,.61,.21,1.22,.44,1.83,.63,.62,.17,1.22,.33,1.81,.49,1.17,.33,2.26,.64,3.2,.91,.94,.26,1.7,.53,2.26,.65,.56,.12,.87,.19,.87,.19,0,0,2.54,.55,5.06,1.17,1.25,.36,2.56,.47,3.51,.67,.96,.17,1.6,.28,1.6,.28,0,0,1.3,.24,3.25,.61,1.98,.23,4.61,.54,7.24,.92,2.66,.21,5.31,.41,7.3,.57,.99,.12,1.84,.06,2.42,.09,.59,.01,.92,.02,.92,.02l-.59,17.47Zm17.11,158.37l-1.78-52.39-.61-18.06s1.11-.03,2.77-.07c1.66,0,3.87-.23,6.08-.38,2.21-.17,4.42-.34,6.07-.46,.83-.06,1.52-.12,2-.15,.48-.03,.76-.07,.76-.07,0,0,1.38-.18,3.8-.48,2.42-.34,5.89-.68,10.02-1.34,8.24-1.4,19.23-3.46,29.92-6.65,1.34-.38,2.68-.76,4.02-1.14l2-.57c.65-.22,1.31-.44,1.96-.66,2.6-.88,5.16-1.75,7.64-2.58,2.5-.79,4.82-1.8,7.05-2.66,2.23-.88,4.34-1.71,6.28-2.48,3.83-1.67,6.99-3.14,9.22-4.14,1.11-.5,1.98-.9,2.58-1.17,.58-.3,.89-.45,.89-.45,0,0,4.09-2.09,8.18-4.19,2.07-1.01,4.03-2.2,5.53-3.05,1.49-.86,2.49-1.43,2.49-1.43l9.05,15.64,44.06,76.15,8.76,15.15s-1.48,.85-3.69,2.12c-2.22,1.26-5.16,2.99-8.2,4.51-6.05,3.14-12.14,6.2-12.14,6.2,0,0-.55,.29-1.6,.79-1.06,.49-2.61,1.2-4.58,2.1-1.98,.89-4.38,1.98-7.14,3.23-1.38,.61-2.85,1.27-4.4,1.96-1.56,.66-3.23,1.31-4.95,2-3.47,1.36-7.22,2.83-11.19,4.39-3.99,1.5-8.28,2.9-12.68,4.4-2.21,.73-4.46,1.48-6.73,2.23-2.3,.67-4.63,1.34-6.98,2.02-2.35,.66-4.72,1.33-7.11,2l-3.58,.99-3.62,.87c-19.26,4.95-38.95,7.67-53.7,9.27-7.38,.62-13.55,1.06-17.86,1.35-4.31,.14-6.77,.22-6.77,.22l-13.05,.29-13.05-.29-6.81-.23c-4.34-.29-10.54-.74-17.97-1.36-14.84-1.62-34.64-4.4-54.02-9.37-19.38-4.87-38.35-11.32-52.18-17.1-3.5-1.35-6.62-2.77-9.4-4.02-2.77-1.26-5.19-2.35-7.18-3.25-1.98-.92-3.55-1.61-4.6-2.14-1.04-.53-1.6-.81-1.6-.81,0,0-5.85-2.99-11.7-5.99-2.94-1.47-5.75-3.16-7.9-4.36l-3.56-2.04,8.76-15.15,44.06-76.15,9.05-15.64s.96,.55,2.4,1.38c1.45,.81,3.33,1.98,5.32,2.95,3.94,2.02,7.88,4.04,7.88,4.04,0,0,1.23,.68,3.49,1.66,2.24,1.01,5.44,2.46,9.28,4.19,1.96,.77,4.08,1.61,6.33,2.5,1.12,.44,2.28,.9,3.46,1.36,.59,.23,1.19,.47,1.79,.7,.61,.21,1.23,.42,1.85,.63,4.99,1.67,10.28,3.59,15.72,5.02,10.77,3.23,21.84,5.3,30.14,6.72,4.16,.68,7.66,1.02,10.09,1.36,2.44,.31,3.83,.48,3.83,.48,0,0,.27,.04,.76,.07,.48,.04,1.17,.09,2,.15,1.66,.13,3.86,.29,6.07,.46,2.21,.15,4.41,.39,6.07,.38,1.66,.04,2.77,.07,2.77,.07l-.61,18.06-1.78,52.39-.59,17.47s-.75-.02-2.07-.06c-1.32-.06-3.2-.04-5.46-.24-4.52-.33-10.55-.74-16.57-1.31-6.01-.73-12.02-1.49-16.51-2.11-4.48-.78-7.46-1.3-7.46-1.3,0,0-1.47-.26-3.66-.66-2.19-.43-5.14-.87-8.04-1.57-5.81-1.34-11.62-2.68-11.62-2.68,0,0-.73-.17-1.99-.47-1.27-.3-3.06-.83-5.21-1.42-2.15-.61-4.66-1.32-7.35-2.09-1.34-.39-2.73-.79-4.14-1.2-1.4-.43-2.81-.92-4.23-1.39-2.82-.96-5.65-1.91-8.3-2.81-1.32-.45-2.6-.89-3.81-1.31-1.19-.46-2.32-.9-3.37-1.3-4.16-1.64-6.94-2.73-6.94-2.73l19.58-48.59s3.53,1.38,8.82,3.46c2.69,.91,5.83,1.98,9.19,3.12,1.69,.55,3.41,1.19,5.2,1.7,1.79,.51,3.61,1.03,5.43,1.55,7.25,2.21,14.67,3.77,20.21,5.05,2.77,.63,5.11,.97,6.74,1.28,1.63,.29,2.56,.46,2.56,.46l-3.03,17.19-3.29-.59c-1.97-.38-4.62-.77-7.22-1.41-5.22-1.2-10.43-2.41-10.43-2.41,0,0-.33-.08-.9-.21-.57-.14-1.39-.3-2.35-.59-1.93-.54-4.51-1.27-7.09-2-2.57-.74-5.15-1.46-7.07-2.04-1.9-.64-3.17-1.06-3.17-1.06l-5.38,16.61s1.34,.45,3.36,1.12c2.03,.62,4.75,1.38,7.47,2.16,2.72,.77,5.45,1.53,7.49,2.11,1.02,.3,1.89,.47,2.49,.62l.95,.22,11.03,2.54c2.75,.67,5.55,1.08,7.63,1.49,2.09,.37,3.48,.62,3.48,.62,0,0,1.44,.25,3.6,.64,1.08,.19,2.34,.41,3.69,.64,1.36,.18,2.81,.37,4.26,.56,5.8,.73,11.6,1.46,11.6,1.46l5.37-52.15s-1.49-.19-4.1-.51c-2.61-.36-6.35-.73-10.8-1.46-8.89-1.51-20.74-3.74-32.28-7.19-5.82-1.53-11.49-3.58-16.83-5.37-.67-.23-1.33-.45-1.98-.68-.64-.25-1.28-.5-1.92-.75-1.26-.5-2.5-.98-3.7-1.46-2.4-.95-4.68-1.85-6.78-2.68-4.11-1.86-7.54-3.4-9.94-4.49-2.41-1.06-3.73-1.78-3.73-1.78l-38.68,79.02s.53,.27,1.53,.77c1,.5,2.49,1.16,4.39,2.03,1.9,.86,4.2,1.9,6.85,3.1,2.65,1.19,5.62,2.55,8.96,3.83,13.18,5.52,31.28,11.66,49.76,16.31,18.48,4.75,37.37,7.39,51.52,8.94,7.09,.59,13,1.02,17.14,1.3,4.14,.14,6.5,.21,6.5,.21l12.46,.28,12.46-.28s2.35-.08,6.46-.21c4.11-.28,9.99-.7,17.04-1.29,14.07-1.54,32.85-4.12,51.22-8.85l3.45-.83,3.42-.95c2.27-.64,4.53-1.28,6.78-1.91,2.24-.65,4.46-1.29,6.66-1.92,2.17-.72,4.31-1.43,6.42-2.13,4.2-1.44,8.29-2.76,12.1-4.2,3.79-1.49,7.37-2.89,10.68-4.19,1.65-.66,3.23-1.28,4.72-1.91,1.48-.66,2.88-1.28,4.2-1.87,2.63-1.19,4.92-2.22,6.81-3.08,1.88-.86,3.36-1.54,4.37-2,1-.47,1.52-.75,1.52-.75l-38.48-79.12s-.33,.17-.96,.48c-.64,.29-1.57,.71-2.76,1.25-2.38,1.07-5.77,2.64-9.88,4.43-2.08,.82-4.34,1.72-6.73,2.66-2.4,.92-4.88,1.99-7.55,2.84-2.65,.9-5.39,1.82-8.18,2.77-.7,.23-1.4,.47-2.1,.71l-2.14,.62c-1.43,.41-2.87,.82-4.3,1.23-11.46,3.41-23.22,5.62-32.05,7.12-4.42,.71-8.14,1.08-10.72,1.44-2.59,.33-4.07,.51-4.07,.51l5.36,52.15s5.6-.7,11.21-1.41c1.4-.18,2.8-.37,4.11-.54,1.31-.18,2.53-.42,3.57-.6,2.09-.37,3.48-.61,3.48-.61,0,0,1.44-.26,3.6-.64,2.15-.42,5.05-.84,7.9-1.52l11.42-2.63,.95-.22c.6-.15,1.47-.32,2.49-.62,2.04-.57,4.77-1.34,7.49-2.11,2.72-.78,5.44-1.55,7.47-2.16,2.01-.67,3.36-1.12,3.36-1.12l-5.38-16.61-3.17,1.06c-1.93,.56-4.5,1.3-7.07,2.04-2.58,.73-5.15,1.45-7.09,2-.96,.29-1.78,.45-2.35,.59l-.9,.21s-5.4,1.25-10.8,2.49c-2.7,.65-5.44,1.04-7.48,1.44-2.05,.37-3.41,.61-3.41,.61l-2.98-17.2s.94-.17,2.59-.46c1.65-.31,4.01-.69,6.82-1.27,5.59-1.32,13.11-2.85,20.45-5.09,1.84-.53,3.69-1.05,5.5-1.57,1.82-.49,3.56-1.16,5.27-1.71,3.4-1.16,6.58-2.23,9.3-3.16,5.35-2.09,8.92-3.49,8.92-3.49l19.58,48.59s-2.77,1.09-6.94,2.73c-1.04,.4-2.17,.84-3.37,1.3-1.21,.42-2.49,.86-3.81,1.31-2.65,.9-5.47,1.85-8.3,2.81-1.42,.47-2.82,.96-4.23,1.39-1.41,.41-2.8,.81-4.14,1.2-2.69,.76-5.2,1.48-7.35,2.09-2.16,.59-3.94,1.13-5.21,1.42-1.27,.3-1.99,.47-1.99,.47,0,0-6.01,1.39-12.03,2.77-3,.71-6.06,1.16-8.33,1.61-2.28,.41-3.79,.68-3.79,.68,0,0-2.93,.54-7.34,1.26-4.42,.59-10.32,1.35-16.23,2.06-5.92,.53-11.84,.95-16.28,1.27-2.22,.19-4.07,.16-5.37,.23-1.3,.04-2.04,.06-2.04,.06l-.59-17.47Zm-159.82-247.47l-46.8,24.95-15.39,8.21s-1.88-3.67-3.76-7.35c-.98-1.82-1.73-3.74-2.4-5.14l-1.06-2.35-1.48-3.28c-.95-2.08-2.07-5.16-3.53-8.8-.36-.91-.74-1.86-1.12-2.85-.37-.99-.7-2.04-1.06-3.1-.72-2.13-1.48-4.38-2.27-6.7-.42-1.15-.77-2.35-1.1-3.57-.34-1.21-.69-2.44-1.04-3.68-.35-1.24-.71-2.49-1.06-3.74l-.54-1.88-.44-1.91c-1.17-5.1-2.44-10.18-3.19-15.03-.42-2.42-.88-4.74-1.22-6.97-.28-2.23-.55-4.34-.8-6.29-.24-1.95-.47-3.73-.67-5.31-.12-1.59-.22-2.98-.31-4.12-.17-2.28-.27-3.59-.27-3.59,0,0-.08-1.03-.2-2.57-.16-1.54-.16-3.61-.22-5.67l-.21-8.25h122.89s.11,2.04,.14,4.07c.03,1.02-.02,2.05,.09,2.79,.07,.75,.11,1.26,.11,1.26,0,0,.06,.76,.16,2.1,.07,.66,.02,1.49,.2,2.41,.14,.92,.28,1.95,.41,3.09,.06,.57,.13,1.16,.19,1.77,.06,.61,.23,1.22,.34,1.87,.25,1.28,.48,2.63,.69,4.03,.73,2.73,1.22,5.72,2.17,8.59l.59,2.18c.19,.73,.5,1.41,.73,2.12,.52,1.39,.88,2.81,1.4,4.12,.55,1.3,1.05,2.57,1.5,3.79l.33,.9c.14,.28,.27,.56,.4,.84l.74,1.6c.48,1.03,.86,2,1.25,2.83,.43,.82,.81,1.53,1.12,2.11,.59,1.18,.93,1.86,.93,1.86,0,0,.41,.91,.96,1.75l1.01,1.73s.49,.87,.97,1.75c.22,.45,.53,.85,.73,1.17l.35,.52s.41,.64,1.13,1.75c.37,.55,.74,1.27,1.28,2.01,.55,.74,1.17,1.58,1.82,2.51,.32,.47,.66,.96,1.01,1.46,.34,.51,.78,.97,1.18,1.49,.82,1.01,1.65,2.11,2.52,3.24,.96,1.05,1.93,2.16,2.89,3.31l.72,.87,.8,.8,1.58,1.64c4.25,4.34,8.73,8.49,12.42,11.17,1.73,1.49,3.35,2.48,4.42,3.27,1.07,.78,1.68,1.23,1.68,1.23,0,0,.1,.09,.29,.2,.19,.12,.47,.29,.8,.49,.66,.41,1.54,.96,2.41,1.53,.43,.29,.86,.58,1.27,.85,.41,.26,.82,.45,1.16,.65,.68,.38,1.13,.64,1.13,.64l-8.75,15.13-44.05,76.14-8.74,15.1s-.93-.53-2.32-1.33c-.69-.4-1.51-.85-2.37-1.38-.84-.54-1.74-1.12-2.64-1.7-1.8-1.15-3.6-2.31-4.95-3.17-.68-.43-1.24-.79-1.63-1.05-.4-.25-.61-.42-.61-.42,0,0-1.06-.75-2.91-2.07-.93-.66-2.05-1.46-3.34-2.38-1.29-.92-2.77-1.92-4.28-3.16-1.53-1.2-3.19-2.51-4.95-3.89-.88-.69-1.78-1.4-2.7-2.13-.89-.77-1.79-1.55-2.71-2.35-1.84-1.59-3.74-3.24-5.68-4.92-1.85-1.76-3.73-3.56-5.61-5.35-.94-.9-1.88-1.79-2.82-2.69-.89-.94-1.78-1.87-2.66-2.8-1.77-1.85-3.5-3.67-5.18-5.43-1.59-1.84-3.14-3.62-4.6-5.31-1.45-1.7-2.89-3.25-4.05-4.81-2.41-3.06-4.42-5.62-5.82-7.4-1.32-1.85-2.08-2.91-2.08-2.91,0,0-2.39-3.37-4.78-6.73-2.23-3.48-4.45-6.95-4.45-6.95l14.79-9.25,44.96-28.13,14.82-9.27s.7,1.1,1.76,2.74c.97,1.7,2.6,3.75,4.08,5.9,.37,.54,.75,1.07,1.11,1.6,.38,.52,.8,1,1.17,1.48,.76,.96,1.47,1.86,2.07,2.63,.61,.77,1.09,1.43,1.45,1.87,.38,.43,.6,.67,.6,.67,0,0,1.8,2.03,3.54,4.1,.86,1.04,1.87,1.96,2.55,2.71l1.17,1.23s.22,.24,.62,.65c.41,.4,.91,1.05,1.65,1.7,1.43,1.35,3.33,3.15,5.23,4.95,2.01,1.67,3.94,3.44,5.45,4.69,1.55,1.2,2.58,2,2.58,2l-32.73,41.73s-.53-.41-1.45-1.14c-.9-.74-2.29-1.7-3.77-3.05-1.52-1.31-3.29-2.85-5.19-4.49-.97-.79-1.89-1.72-2.84-2.63-.95-.91-1.92-1.83-2.89-2.76-.96-.94-1.97-1.81-2.87-2.78-.91-.96-1.8-1.9-2.66-2.81-1.71-1.84-3.42-3.45-4.68-5.01-2.63-3.03-4.38-5.06-4.38-5.06l13.88-11.62s2.18,2.52,4.36,5.04c1.07,1.28,2.29,2.42,3.13,3.34,.86,.9,1.44,1.51,1.44,1.51l1.38,1.46c.8,.91,2.01,1.97,3.17,3.09,1.16,1.11,2.32,2.22,3.2,3.06,.85,.85,1.48,1.36,1.48,1.36l11.69-12.96s-.57-.46-1.34-1.24c-.79-.76-1.84-1.77-2.9-2.77-1.05-1.01-2.16-1.97-2.87-2.8-.75-.8-1.25-1.33-1.25-1.33,0,0-.52-.55-1.3-1.37-.76-.84-1.88-1.86-2.84-3.02-1.98-2.28-3.95-4.57-3.95-4.57l-.33-.38c-.21-.24-.52-.58-.84-1.02-.67-.86-1.57-2.01-2.46-3.16-.89-1.15-1.84-2.26-2.47-3.16-.63-.89-1.04-1.49-1.04-1.49l-42.91,31.16s.7,.98,1.92,2.7c1.3,1.66,3.16,4.02,5.4,6.86,1.08,1.45,2.42,2.89,3.76,4.46,1.35,1.57,2.78,3.22,4.26,4.93,1.56,1.63,3.17,3.32,4.81,5.04,.82,.86,1.64,1.73,2.47,2.6,.87,.83,1.74,1.66,2.62,2.49,1.74,1.66,3.49,3.33,5.2,4.96,1.79,1.55,3.56,3.08,5.27,4.56,.85,.74,1.69,1.47,2.51,2.18,.85,.67,1.69,1.33,2.5,1.97,1.63,1.28,3.17,2.49,4.59,3.61,1.4,1.15,2.77,2.07,3.97,2.93,1.2,.85,2.24,1.59,3.1,2.2l2.7,1.92,49.39-72.79s-.7-.51-1.94-1.41c-1.23-.9-3.08-2.06-5.08-3.76-4.22-3.1-9.39-7.84-14.27-12.84l-1.81-1.89-.91-.93-.83-.99c-1.11-1.31-2.22-2.59-3.32-3.8-1-1.3-1.96-2.55-2.9-3.72-.46-.59-.96-1.13-1.35-1.72-.4-.58-.79-1.14-1.16-1.68-.76-1.06-1.46-2.03-2.09-2.89-.62-.86-1.06-1.68-1.48-2.31l-1.29-2.01-.4-.6c-.23-.36-.58-.83-.84-1.34l-1.13-2.01s-.58-.99-1.16-1.99c-.62-.97-1.11-2.02-1.11-2.02,0,0-.39-.78-1.08-2.14-.35-.68-.79-1.5-1.28-2.44-.46-.96-.91-2.07-1.45-3.25-.27-.59-.56-1.21-.85-1.85-.15-.32-.3-.64-.46-.97-.13-.34-.26-.68-.39-1.03-.53-1.4-1.11-2.86-1.73-4.37-.6-1.51-1.04-3.15-1.63-4.75-.26-.81-.61-1.61-.83-2.45-.23-.83-.46-1.67-.69-2.51-1.08-3.31-1.68-6.74-2.49-9.9-.25-1.62-.52-3.17-.8-4.64-.12-.74-.31-1.44-.39-2.15-.08-.7-.16-1.38-.23-2.03-.17-1.3-.33-2.49-.47-3.55-.19-1.05-.15-2-.23-2.76l-.18-2.41-87.76,5.99s.09,1.21,.25,3.33c.08,1.06,.17,2.35,.28,3.82,.19,1.47,.39,3.12,.62,4.93,.23,1.81,.47,3.76,.73,5.83,.31,2.06,.75,4.21,1.13,6.45,.69,4.5,1.88,9.2,2.95,13.93l.41,1.77,.5,1.74c.33,1.16,.66,2.32,.99,3.46,.32,1.15,.65,2.29,.97,3.41,.3,1.13,.63,2.24,1.02,3.31,.73,2.15,1.43,4.23,2.1,6.2,.34,.98,.64,1.95,.98,2.87,.36,.91,.71,1.79,1.05,2.64,1.36,3.37,2.39,6.22,3.27,8.15,.88,1.93,1.38,3.04,1.38,3.04l48.42-21.64s-.31-.68-.78-1.71c-.51-1.01-1.04-2.41-1.58-3.81-.55-1.4-1.11-2.79-1.52-3.84l-.51-1.26-.16-.49-1.85-5.49c-.24-.69-.47-1.37-.69-2.01-.18-.66-.35-1.27-.49-1.79-.29-1.05-.49-1.74-.49-1.74,0,0-.2-.7-.5-1.74-.28-1.05-.76-2.42-1.03-3.85-.65-2.83-1.31-5.65-1.31-5.65l-17.08,3.62,1.44,6.24c.3,1.58,.82,3.09,1.14,4.25,.33,1.15,.55,1.92,.55,1.92,0,0,.22,.77,.54,1.93,.16,.58,.35,1.25,.55,1.98,.24,.71,.5,1.47,.76,2.23l2.04,6.07-17.01,6.18s-.84-2.5-2.11-6.25c-.31-.94-.69-1.94-1.02-3.03-.31-1.09-.63-2.24-.96-3.43-.34-1.19-.69-2.42-1.04-3.67-.37-1.25-.74-2.51-1-3.81-.59-2.57-1.19-5.14-1.75-7.55-.51-2.42-.85-4.71-1.22-6.65-.33-1.95-.69-3.57-.82-4.72-.14-1.15-.22-1.8-.22-1.8l52.52-7.38s.04,.32,.1,.89c.04,.57,.18,1.37,.37,2.33,.17,.96,.38,2.08,.59,3.28,.24,1.19,.35,2.5,.71,3.75,.64,2.52,1.12,5.07,1.64,6.95,.54,1.87,.9,3.11,.9,3.11,0,0,.17,.62,.44,1.56,.13,.47,.28,1.02,.43,1.6,.18,.58,.41,1.19,.62,1.8,.85,2.45,1.65,4.92,1.65,4.92,0,0,.08,.32,.32,.85,.22,.54,.53,1.3,.9,2.22,.74,1.84,1.61,4.33,2.79,6.7,.54,1.21,1.08,2.41,1.58,3.55,.5,1.13,1.1,2.13,1.54,3.02,.9,1.77,1.5,2.95,1.5,2.95l-15.42,8.22Zm-128.49,94.1l44.44-27.81,15.32-9.58s2.39,3.73,4.78,7.46c2.56,3.61,5.13,7.22,5.13,7.22,0,0,.81,1.13,2.23,3.12,1.51,1.92,3.66,4.66,6.24,7.95,1.26,1.67,2.79,3.34,4.35,5.16,1.57,1.81,3.22,3.72,4.94,5.69,1.8,1.89,3.67,3.85,5.56,5.83,.95,.99,1.9,1.99,2.86,3,1,.96,2.01,1.92,3.02,2.89,2.02,1.92,4.04,3.84,6.03,5.73,2.07,1.8,4.11,3.57,6.09,5.28,.99,.86,1.96,1.7,2.91,2.52,.99,.78,1.95,1.54,2.89,2.29,1.88,1.48,3.66,2.88,5.31,4.17,1.62,1.32,3.21,2.4,4.59,3.39l3.59,2.55c1.99,1.41,3.13,2.22,3.13,2.22,0,0,.23,.18,.65,.45,.42,.27,1.03,.66,1.75,1.12,1.45,.93,3.38,2.17,5.31,3.41l2.84,1.82c.92,.56,1.8,1.05,2.54,1.48,1.49,.86,2.49,1.43,2.49,1.43l-9.05,15.64-44.06,76.15-8.76,15.15s-1.47-.85-3.68-2.13c-1.1-.65-2.4-1.38-3.76-2.21-1.35-.85-2.78-1.76-4.22-2.67-2.86-1.84-5.72-3.68-7.87-5.06-1.07-.7-1.96-1.28-2.58-1.68-.62-.41-.97-.66-.97-.66,0,0-2.02-1.42-5.56-3.92-3.52-2.52-8.62-6.03-14.41-10.67-11.82-8.97-26.67-22.11-40.39-36.33-1.7-1.79-3.41-3.58-5.1-5.37-.84-.9-1.69-1.79-2.52-2.68-.81-.92-1.61-1.84-2.42-2.75-3.2-3.66-6.33-7.29-9.34-10.82-2.91-3.61-5.68-7.14-8.29-10.48-1.3-1.68-2.6-3.29-3.77-4.91-1.17-1.62-2.29-3.19-3.38-4.7-2.14-3.03-4.11-5.81-5.85-8.27-1.72-2.48-3.1-4.72-4.29-6.53-2.34-3.65-3.67-5.73-3.67-5.73,0,0-.44-.69-1.1-1.73-.65-1.04-1.55-2.41-2.36-3.84l-3.3-5.68-3.26-5.7c-1.66-2.83-3.15-5.77-3.15-5.77,0,0-1.14-2.22-3.14-6.1-.99-1.95-2.19-4.31-3.56-7.02-1.32-2.74-2.72-5.87-4.27-9.28-.77-1.71-1.56-3.49-2.39-5.33-.41-.92-.83-1.86-1.25-2.81-.39-.97-.79-1.95-1.19-2.94-1.6-3.98-3.26-8.2-4.95-12.56-1.67-4.38-3.15-8.99-4.74-13.64-.77-2.34-1.6-4.67-2.3-7.06-.69-2.39-1.38-4.79-2.07-7.19-2.87-9.58-5-19.34-7.03-28.48-.86-4.6-1.66-9.05-2.4-13.27-.35-2.11-.76-4.16-1.02-6.16-.26-2-.52-3.93-.76-5.78-.46-3.71-.89-7.11-1.26-10.12-.4-3.01-.52-5.65-.72-7.81-.33-4.34-.52-6.82-.52-6.82,0,0-.12-1.63-.29-4.08-.22-2.45-.27-5.71-.38-8.97l-.29-13.05h123.54s.11,4.42,.22,8.85c.07,2.21,.07,4.43,.24,6.08l.21,2.76s.11,1.4,.29,3.85c.09,1.22,.21,2.71,.34,4.42,.21,1.7,.45,3.61,.71,5.7,.27,2.09,.55,4.35,.86,6.75,.36,2.39,.85,4.89,1.3,7.48,.81,5.21,2.17,10.66,3.43,16.14l.48,2.05,.57,2.02c.38,1.35,.76,2.69,1.14,4.02,.38,1.33,.75,2.65,1.12,3.95,.36,1.31,.74,2.59,1.18,3.83,.84,2.49,1.66,4.91,2.43,7.19,.39,1.14,.75,2.26,1.14,3.33,.42,1.06,.82,2.08,1.2,3.06,1.57,3.91,2.78,7.21,3.79,9.45,1.01,2.24,1.59,3.52,1.59,3.52l1.14,2.52c.71,1.5,1.53,3.56,2.58,5.52,2.02,3.94,4.04,7.89,4.04,7.89l-15.94,8.5-46.26,24.66-15.42,8.22s-1.39-2.7-3.46-6.74c-1.01-2.03-2.27-4.37-3.47-6.95-1.18-2.59-2.43-5.35-3.69-8.11-2.57-5.49-4.74-11.16-6.41-15.4-.83-2.12-1.52-3.89-2-5.12-.49-1.23-.72-1.96-.72-1.96,0,0-1.92-5.65-3.84-11.29-.47-1.42-.93-2.83-1.37-4.16-.39-1.34-.75-2.6-1.06-3.67-.62-2.15-1.03-3.58-1.03-3.58,0,0-.81-2.87-2.02-7.18-1.16-4.32-2.44-10.14-3.77-15.95-.71-2.9-1.15-5.85-1.67-8.59-.49-2.75-.94-5.32-1.33-7.52-.4-2.2-.69-4.04-.84-5.33-.17-1.29-.27-2.03-.27-2.03l51.88-7.29,.33,2.58c.21,1.64,.67,3.97,1.15,6.76,.52,2.79,1.04,6.06,1.77,9.54,.8,3.46,1.65,7.15,2.5,10.84,.4,1.85,.92,3.67,1.43,5.47,.51,1.79,1.01,3.56,1.49,5.27,.49,1.71,.96,3.36,1.41,4.92,.48,1.56,.99,3.01,1.44,4.36,1.83,5.38,3.04,8.97,3.04,8.97l-16.41,5.96s-1.72-5.07-3.44-10.14c-.42-1.27-.84-2.54-1.24-3.73-.35-1.21-.67-2.33-.95-3.3-.55-1.93-.92-3.22-.92-3.22,0,0-.36-1.29-.91-3.22-.53-1.94-1.32-4.5-1.89-7.12-1.2-5.22-2.41-10.43-2.41-10.43l-17.08,3.62s1.27,5.51,2.54,11.03c.6,2.77,1.43,5.47,1.99,7.52,.58,2.04,.96,3.4,.96,3.4,0,0,.39,1.36,.97,3.4,.29,1.02,.64,2.21,1.01,3.48,.42,1.26,.86,2.6,1.3,3.95,1.82,5.36,3.64,10.72,3.64,10.72l.33,.95c.23,.6,.56,1.45,.96,2.47,.8,2.04,1.88,4.77,2.95,7.5,1.07,2.73,2.16,5.45,3.09,7.43,.9,2,1.5,3.34,1.5,3.34l47.86-21.4s-.62-1.37-1.7-3.77c-1.09-2.4-2.39-5.93-4.07-10.12-.41-1.05-.84-2.14-1.29-3.28-.42-1.14-.81-2.34-1.23-3.56-.83-2.45-1.7-5.03-2.6-7.7-.47-1.33-.88-2.7-1.27-4.1-.4-1.4-.8-2.81-1.21-4.23-.4-1.42-.81-2.86-1.22-4.3l-.61-2.17-.51-2.2c-1.36-5.86-2.79-11.71-3.67-17.28-.48-2.78-1-5.46-1.39-8.01-.33-2.56-.64-4.99-.92-7.22-.28-2.24-.53-4.29-.76-6.11-.14-1.83-.26-3.42-.37-4.73-.2-2.62-.31-4.12-.31-4.12l-87.77,5.99s.18,2.36,.5,6.5c.19,2.07,.3,4.58,.68,7.46,.36,2.87,.76,6.12,1.21,9.65,.23,1.77,.48,3.61,.73,5.51,.25,1.9,.64,3.86,.98,5.88,.73,4.03,1.49,8.27,2.29,12.66,1.95,8.72,3.97,18.03,6.71,27.16,.66,2.29,1.32,4.58,1.98,6.86,.67,2.28,1.47,4.5,2.19,6.73,1.52,4.44,2.93,8.84,4.52,13.01,1.64,4.16,3.22,8.17,4.72,11.98,.38,.95,.76,1.89,1.13,2.81,.4,.91,.8,1.8,1.19,2.68,.79,1.76,1.55,3.45,2.28,5.08,1.48,3.25,2.81,6.24,4.07,8.85,1.31,2.59,2.46,4.84,3.4,6.7,1.91,3.7,3,5.82,3,5.82,0,0,1.42,2.8,3,5.5,1.56,2.72,3.11,5.44,3.11,5.44,0,0,1.57,2.71,3.14,5.42,.77,1.37,1.63,2.67,2.25,3.67,.63,.99,1.05,1.65,1.05,1.65,0,0,1.27,1.99,3.5,5.47,1.13,1.73,2.45,3.87,4.09,6.23,1.66,2.35,3.54,5,5.58,7.89,1.03,1.44,2.11,2.94,3.22,4.49,1.11,1.55,2.36,3.08,3.6,4.69,2.5,3.19,5.14,6.56,7.91,10,2.89,3.35,5.88,6.8,8.91,10.32,.77,.87,1.53,1.75,2.31,2.63,.8,.85,1.61,1.7,2.41,2.56,1.62,1.7,3.24,3.41,4.87,5.12,13.1,13.57,27.26,26.11,38.54,34.66,5.52,4.43,10.39,7.78,13.75,10.18,3.38,2.38,5.31,3.74,5.31,3.74l49.4-72.8-3.35-2.37c-1.06-.76-2.36-1.68-3.84-2.73-1.48-1.06-3.17-2.22-4.91-3.63-1.76-1.38-3.67-2.88-5.68-4.46-1-.8-2.04-1.62-3.09-2.45-1.02-.88-2.06-1.78-3.12-2.69-2.11-1.83-4.3-3.73-6.51-5.65-2.13-2.02-4.29-4.08-6.45-6.13-1.08-1.03-2.15-2.06-3.23-3.09-1.03-1.07-2.05-2.14-3.06-3.2-2.02-2.13-4.02-4.22-5.95-6.25-1.83-2.11-3.61-4.15-5.29-6.09-1.66-1.95-3.3-3.74-4.65-5.53-2.76-3.52-5.07-6.45-6.68-8.51-1.52-2.12-2.39-3.33-2.39-3.33l-42.42,30.8s.82,1.15,2.06,2.87c1.23,1.72,3.01,3.91,4.74,6.14,1.75,2.21,3.5,4.43,4.81,6.09,.65,.84,1.22,1.5,1.63,1.97l.63,.74s3.82,4.41,7.65,8.83c1.91,2.21,3.98,4.27,5.47,5.87,1.51,1.58,2.52,2.64,2.52,2.64,0,0,.98,1.02,2.44,2.54,1.43,1.56,3.51,3.47,5.53,5.43,2.04,1.94,4.09,3.89,5.62,5.34,1.52,1.47,2.59,2.39,2.59,2.39l11.69-12.96s-1.02-.87-2.46-2.26c-1.45-1.38-3.39-3.22-5.32-5.06-1.92-1.85-3.89-3.67-5.24-5.14-1.39-1.45-2.31-2.41-2.31-2.41,0,0-.95-1-2.39-2.5-1.41-1.52-3.38-3.47-5.18-5.56l-7.24-8.36,13.39-11.21s2.5,2.89,6.26,7.23c1.84,2.21,4.23,4.56,6.68,7.17,1.24,1.3,2.52,2.63,3.82,3.99,1.3,1.36,2.72,2.64,4.09,3.98,1.38,1.32,2.77,2.64,4.13,3.94,1.37,1.29,2.69,2.59,4.06,3.74,2.71,2.35,5.24,4.54,7.41,6.42,2.14,1.91,4.08,3.31,5.38,4.37l2.07,1.63-32.33,41.22s-2.33-1.84-5.83-4.61c-3.44-2.83-7.91-6.75-12.39-10.65-4.39-4-8.65-8.15-11.87-11.23-1.62-1.53-2.86-2.92-3.77-3.84-.9-.94-1.41-1.47-1.41-1.47,0,0-1.06-1.11-2.65-2.78-1.57-1.69-3.75-3.86-5.76-6.19-4.03-4.65-8.06-9.3-8.06-9.3,0,0-.48-.56-1.33-1.55-.83-1-1.97-2.47-3.36-4.21-1.38-1.75-2.98-3.8-4.7-5.99-.85-1.1-1.75-2.23-2.62-3.4-.85-1.19-1.72-2.4-2.59-3.6-3.44-4.85-6.95-9.65-9.29-13.45-2.41-3.76-4.01-6.26-4.01-6.26l14.82-9.27Zm134.34-262.11l-44.96-28.13-14.79-9.25,4.45-6.95c2.39-3.36,4.78-6.73,4.78-6.73,0,0,.76-1.06,2.09-2.93,1.42-1.8,3.44-4.37,5.86-7.46,1.17-1.58,2.63-3.13,4.09-4.84,1.47-1.7,3.03-3.49,4.64-5.34,1.69-1.78,3.44-3.61,5.22-5.47,.89-.93,1.79-1.87,2.69-2.81,.94-.9,1.89-1.8,2.84-2.7,1.9-1.8,3.77-3.63,5.67-5.37,1.95-1.69,3.86-3.35,5.72-4.95,.93-.8,1.84-1.59,2.74-2.36,.93-.73,1.84-1.44,2.72-2.14,1.77-1.39,3.44-2.7,4.98-3.92,3.11-2.39,5.84-4.2,7.69-5.55,1.87-1.33,2.93-2.08,2.93-2.08,0,0,3.47-2.23,6.95-4.45,.87-.56,1.74-1.11,2.55-1.64,.84-.48,1.62-.93,2.29-1.32,1.34-.77,2.24-1.28,2.24-1.28l8.74,15.1,44.05,76.14,8.75,15.13-1.09,.61-1.12,.62c-.39,.26-.81,.54-1.22,.82-1.67,1.11-3.39,2.14-3.39,2.14,0,0-.16,.11-.44,.32l-1.25,.92c-1.06,.82-2.72,1.77-4.45,3.28-.89,.72-1.88,1.47-2.93,2.26-.97,.89-2.01,1.8-3.11,2.73-1.14,.87-2.13,1.99-3.24,3.01-.55,.51-1.11,1.03-1.67,1.55-.55,.53-1.04,1.12-1.57,1.67l-1.59,1.65c-.54,.54-1.08,1.08-1.54,1.67-.97,1.16-1.94,2.27-2.91,3.33-.88,1.13-1.71,2.24-2.54,3.26-.4,.52-.84,.99-1.19,1.5-.35,.51-.69,1-1.01,1.47-.66,.94-1.27,1.78-1.83,2.53-.55,.75-.92,1.47-1.29,2.02-.72,1.12-1.13,1.76-1.13,1.76l-.35,.52c-.2,.32-.51,.72-.73,1.17-.49,.87-.97,1.75-.97,1.75,0,0-.5,.86-1.01,1.73-.55,.84-.96,1.75-.96,1.75,0,0-.34,.67-.93,1.85-.31,.58-.68,1.29-1.11,2.1-.4,.82-.77,1.79-1.25,2.81-.24,.51-.48,1.04-.74,1.59-.27,.54-.54,1.11-.74,1.73-.45,1.21-.95,2.47-1.49,3.77-.3,.64-.47,1.33-.71,2.02-.23,.68-.46,1.38-.7,2.08-.23,.7-.52,1.39-.73,2.1l-.58,2.17c-.94,2.85-1.45,5.81-2.17,8.53-.23,1.39-.44,2.74-.69,4.01-.12,.63-.24,1.25-.36,1.85-.07,.61-.13,1.2-.19,1.76-.25,2.25-.62,4.11-.62,5.45-.1,1.33-.15,2.09-.15,2.09l-.11,1.3c-.12,.78-.11,1.83-.12,2.89-.03,2.11-.14,4.23-.14,4.23h-122.89l.22-8.56c.04-2.14,.09-4.28,.26-5.88,.12-1.6,.2-2.67,.2-2.67l.27-3.56c.09-1.13,.17-2.51,.33-4.09,.2-1.57,.43-3.34,.67-5.27,.24-1.93,.51-4.03,.79-6.24,.39-2.2,.8-4.51,1.23-6.91,.74-4.82,2.04-9.85,3.18-14.92,.27-1.27,.62-2.52,.99-3.76,.35-1.24,.71-2.48,1.06-3.71,.35-1.23,.69-2.45,1.04-3.66,.17-.6,.34-1.2,.51-1.8,.2-.59,.4-1.17,.59-1.74,.78-2.31,1.54-4.54,2.25-6.65,.37-1.05,.68-2.09,1.06-3.07,.39-.98,.76-1.92,1.12-2.83,1.46-3.61,2.56-6.67,3.51-8.74,.94-2.07,1.47-3.25,1.47-3.25,0,0,.42-.94,1.06-2.35,.32-.71,.69-1.53,1.09-2.41,.39-.89,.83-1.82,1.31-2.73,1.88-3.67,3.76-7.35,3.76-7.35l15.39,8.21,46.8,24.95,15.42,8.22-1.47,2.9c-.43,.87-1.01,1.86-1.52,2.97-.5,1.11-1.02,2.3-1.55,3.49-.51,1.19-1.15,2.34-1.55,3.48-.44,1.13-.85,2.19-1.2,3.1-.73,1.8-1.22,3.01-1.22,3.01,0,0-.82,2.56-1.7,5.09-.22,.63-.44,1.27-.65,1.86-.16,.61-.32,1.17-.45,1.66-.27,.97-.45,1.62-.45,1.62l-.9,3.11c-.52,1.87-1,4.43-1.64,6.95-.36,1.25-.47,2.55-.71,3.75-.22,1.2-.42,2.32-.59,3.28-.2,.96-.33,1.76-.37,2.33-.07,.57-.1,.89-.1,.89l-52.52-7.38,.22-1.82c.14-1.16,.49-2.8,.83-4.77,.38-1.97,.71-4.29,1.24-6.73l1.77-7.64c.26-1.31,.67-2.58,1.03-3.85,.36-1.26,.71-2.51,1.06-3.71,.34-1.2,.67-2.37,.98-3.47,.37-1.09,.72-2.11,1.05-3.06,1.28-3.79,2.13-6.32,2.13-6.32l16.99,6.22s-1.06,3.14-2.11,6.29c-.27,.78-.54,1.57-.79,2.3-.21,.75-.4,1.45-.57,2.05-.34,1.2-.56,1.99-.56,1.99,0,0-.22,.77-.55,1.92-.31,1.16-.83,2.68-1.14,4.25-.72,3.12-1.44,6.24-1.44,6.24l17.08,3.62,1.31-5.65c.27-1.43,.75-2.8,1.03-3.85,.3-1.04,.5-1.74,.5-1.74,0,0,.2-.72,.51-1.81,.15-.54,.32-1.18,.51-1.85,.23-.66,.48-1.37,.72-2.08,.95-2.85,1.91-5.69,1.91-5.69,0,0,1.07-2.69,2.14-5.39l.77-1.99c.25-.63,.54-1.2,.76-1.69l.75-1.65-48.41-21.65s-.5,1.1-1.37,3.01c-.88,1.91-1.89,4.75-3.25,8.09-.33,.84-.68,1.71-1.04,2.62-.35,.91-.64,1.87-.98,2.85-.66,1.96-1.36,4.02-2.09,6.16-.18,.53-.37,1.07-.55,1.61-.16,.55-.31,1.11-.47,1.66-.32,1.12-.64,2.25-.96,3.39-.32,1.14-.65,2.29-.98,3.44-.34,1.15-.67,2.31-.91,3.49-1.05,4.7-2.27,9.36-2.95,13.82-.4,2.22-.78,4.37-1.15,6.4l-.73,5.79-.63,4.89c-.14,1.46-.21,2.74-.3,3.79-.16,2.1-.25,3.3-.25,3.3l87.75,6.22s.06-.87,.17-2.4c.02-1.54,.42-3.68,.71-6.27,.07-.65,.15-1.32,.23-2.02,.13-.69,.27-1.4,.41-2.13,.28-1.46,.53-3.01,.8-4.62,.81-3.14,1.43-6.55,2.49-9.84,.23-.83,.45-1.67,.68-2.5,.25-.82,.57-1.62,.84-2.43,.27-.81,.54-1.6,.8-2.39,.27-.79,.48-1.59,.82-2.33,.62-1.5,1.19-2.95,1.72-4.35,.24-.7,.54-1.36,.85-1.99,.29-.64,.58-1.25,.85-1.84,.55-1.18,.99-2.28,1.45-3.23,.49-.94,.92-1.75,1.27-2.42l1.07-2.13s.48-1.04,1.11-2.02c.58-1,1.16-1.99,1.16-1.99,0,0,.56-1,1.13-2.01,.26-.52,.61-.98,.84-1.34,.24-.36,.4-.6,.4-.6,0,0,.47-.74,1.3-2.02,.43-.64,.87-1.46,1.49-2.32,.62-.87,1.33-1.85,2.1-2.91,.37-.54,.76-1.1,1.17-1.69,.41-.58,.9-1.13,1.36-1.72,.93-1.19,1.91-2.44,2.92-3.74,1.1-1.23,2.22-2.51,3.34-3.83,.54-.68,1.15-1.31,1.77-1.92l1.82-1.9c.61-.63,1.18-1.3,1.81-1.91,.64-.6,1.28-1.19,1.91-1.78,1.27-1.18,2.42-2.44,3.72-3.46,1.26-1.07,2.45-2.12,3.58-3.13,1.19-.93,2.32-1.8,3.36-2.61,2.01-1.72,3.9-2.84,5.12-3.77,.62-.45,1.11-.81,1.44-1.05,.33-.24,.51-.37,.51-.37l-49.2-72.92s-.99,.7-2.72,1.93c-1.71,1.26-4.24,2.93-7.13,5.15-1.43,1.13-2.98,2.34-4.62,3.63-.82,.64-1.66,1.3-2.53,1.98-.83,.72-1.67,1.45-2.54,2.19-1.72,1.49-3.5,3.03-5.31,4.59-1.76,1.62-3.49,3.32-5.25,4.99-.88,.84-1.76,1.67-2.64,2.5-.83,.87-1.67,1.74-2.49,2.61-1.65,1.73-3.27,3.43-4.85,5.07-1.49,1.72-2.93,3.38-4.3,4.96-1.35,1.59-2.71,3.03-3.79,4.49-2.25,2.86-4.13,5.25-5.44,6.92-1.23,1.73-1.94,2.72-1.94,2.72l42.91,31.16s.43-.62,1.08-1.54c.66-.92,1.64-2.07,2.56-3.27,.93-1.19,1.85-2.38,2.55-3.27,.72-.87,1.23-1.43,1.23-1.43,0,0,1.91-2.21,3.81-4.41,.95-1.1,2.01-2.11,2.76-2.91,.75-.79,1.26-1.32,1.26-1.32l1.25-1.33c.72-.83,1.82-1.78,2.87-2.8,1.05-1.01,2.11-2.02,2.9-2.77,.77-.78,1.34-1.24,1.34-1.24l-11.69-12.96s-.62,.51-1.48,1.36c-.87,.83-2.03,1.95-3.2,3.06-1.16,1.12-2.37,2.18-3.17,3.09-.83,.88-1.38,1.46-1.38,1.46,0,0-.55,.58-1.39,1.46-.82,.89-1.98,2-3.04,3.22-2.1,2.43-4.21,4.87-4.21,4.87l-13.85-11.65s1.73-2,4.33-5c1.27-1.52,2.95-3.12,4.64-4.94,.85-.9,1.74-1.83,2.63-2.78,.91-.93,1.9-1.81,2.85-2.73,.96-.91,1.91-1.83,2.86-2.73,.94-.91,1.85-1.8,2.81-2.59,1.87-1.62,3.62-3.14,5.12-4.44,1.46-1.34,2.84-2.28,3.73-3.01,.91-.71,1.43-1.12,1.43-1.12l32.73,41.73s-1.03,.8-2.58,2c-1.51,1.25-3.44,3.02-5.45,4.69-1.9,1.8-3.8,3.6-5.23,4.95-.74,.65-1.24,1.3-1.65,1.7-.39,.42-.62,.65-.62,.65l-1.13,1.18c-.66,.72-1.62,1.62-2.48,2.61-1.69,2-3.42,3.96-3.42,3.96,0,0-.92,.97-2.11,2.57-.62,.78-1.34,1.7-2.11,2.68-.39,.49-.79,.99-1.2,1.5-.37,.54-.75,1.08-1.13,1.63-1.5,2.19-3.17,4.27-4.15,6.01-1.07,1.68-1.79,2.79-1.79,2.79l-14.82-9.27Zm-145.66-64.5l46.26,24.67,15.94,8.5s-2.02,3.94-4.04,7.89c-.52,.98-.99,1.98-1.41,2.93-.43,.95-.83,1.83-1.17,2.59-.68,1.51-1.14,2.52-1.14,2.52,0,0-.57,1.27-1.58,3.49-1.01,2.22-2.21,5.5-3.77,9.38-.38,.97-.78,1.99-1.2,3.04-.4,1.05-.75,2.17-1.14,3.3-.77,2.27-1.58,4.66-2.42,7.14-.21,.62-.42,1.24-.63,1.87-.18,.64-.37,1.28-.55,1.93-.37,1.29-.74,2.6-1.12,3.92-.37,1.32-.75,2.65-1.13,3.99-.39,1.33-.77,2.68-1.06,4.04-1.23,5.44-2.62,10.85-3.42,16.02-.46,2.57-.9,5.06-1.32,7.42-.3,2.38-.59,4.62-.85,6.7-.26,2.07-.5,3.98-.72,5.66-.17,1.69-.25,3.17-.35,4.38-.19,2.43-.29,3.82-.29,3.82,0,0-.09,1.14-.22,2.86-.17,1.71-.23,4.01-.28,6.3l-.23,9.18H45.43s.15-6.77,.31-13.53c.09-3.38,.2-6.76,.42-9.3,.18-2.54,.31-4.23,.31-4.23,0,0,.19-2.46,.52-6.77,.26-4.31,1.07-10.46,2.01-17.82,.24-1.84,.5-3.76,.76-5.74,.34-1.98,.69-4.02,1.05-6.12,.74-4.2,1.53-8.62,2.41-13.19,2.03-9.08,4.18-18.78,7.04-28.3,.69-2.39,1.38-4.77,2.07-7.15,.73-2.36,1.53-4.69,2.3-7.01,.79-2.32,1.56-4.61,2.33-6.88,.79-2.26,1.52-4.51,2.39-6.67,1.68-4.34,3.33-8.53,4.92-12.49,.77-1.99,1.6-3.89,2.43-5.72,.82-1.83,1.62-3.6,2.38-5.3,1.54-3.39,2.93-6.5,4.25-9.22,1.37-2.7,2.56-5.05,3.54-6.98,1.99-3.86,3.12-6.06,3.12-6.06,0,0,1.49-2.93,3.15-5.77,1.63-2.85,3.26-5.7,3.26-5.7l3.3-5.68c.81-1.43,1.71-2.8,2.36-3.84l1.1-1.73s1.34-2.1,3.69-5.77c1.2-1.82,2.58-4.08,4.32-6.57,1.75-2.48,3.73-5.27,5.89-8.32,1.09-1.52,2.22-3.1,3.4-4.73,1.19-1.62,2.49-3.24,3.8-4.94,2.64-3.37,5.41-6.92,8.35-10.54,3.03-3.55,6.18-7.19,9.4-10.88,1.59-1.86,3.27-3.66,4.98-5.46,1.71-1.79,3.42-3.6,5.13-5.4,1.73-1.79,3.43-3.61,5.19-5.34,1.79-1.72,3.56-3.43,5.33-5.12,3.56-3.36,7-6.74,10.56-9.75,3.51-3.07,6.93-6.01,10.18-8.78,3.33-2.68,6.51-5.18,9.45-7.48,5.82-4.67,10.99-8.15,14.52-10.7,3.56-2.51,5.6-3.93,5.6-3.93,0,0,5.51-3.55,11.03-7.1,1.39-.88,2.77-1.75,4.07-2.58,1.33-.78,2.57-1.5,3.63-2.12,2.13-1.23,3.55-2.06,3.55-2.06l8.76,15.15,44.06,76.15,9.05,15.64-2.4,1.38c-.72,.42-1.56,.9-2.46,1.42-.87,.56-1.81,1.16-2.74,1.75l-7.45,4.78s-1.15,.81-3.15,2.23c-1.98,1.45-4.91,3.4-8.25,5.96-1.66,1.3-3.45,2.71-5.35,4.2-.95,.75-1.92,1.51-2.92,2.3-.96,.83-1.94,1.67-2.94,2.53-1.99,1.72-4.05,3.51-6.13,5.32-2.03,1.87-4.04,3.83-6.08,5.76-1.02,.97-2.03,1.94-3.04,2.9-.97,1.01-1.93,2.01-2.89,3.01-1.91,2-3.78,3.97-5.6,5.88-1.73,1.99-3.4,3.91-4.98,5.73-1.56,1.84-3.12,3.51-4.38,5.2-2.6,3.31-4.77,6.07-6.29,8-1.43,2-2.25,3.14-2.25,3.14l-5.13,7.22c-2.39,3.73-4.78,7.46-4.78,7.46l-15.31-9.58-44.44-27.81-14.82-9.27s1.63-2.55,4.08-6.37c2.39-3.87,5.97-8.75,9.47-13.68,.88-1.23,1.77-2.46,2.64-3.66,.91-1.17,1.81-2.33,2.68-3.45,1.75-2.23,3.39-4.31,4.79-6.09,2.78-3.59,4.79-5.84,4.79-5.84,0,0,3.89-4.49,7.79-8.98,1.96-2.23,4.06-4.34,5.58-5.97l2.56-2.69s.51-.54,1.41-1.47c.92-.92,2.15-2.31,3.77-3.84,3.22-3.08,7.47-7.23,11.87-11.23,4.48-3.9,8.94-7.83,12.39-10.65,3.5-2.76,5.83-4.61,5.83-4.61l32.33,41.23s-.74,.58-2.04,1.61c-1.28,1.05-3.2,2.43-5.32,4.32-2.14,1.86-4.64,4.02-7.32,6.34-1.36,1.14-2.68,2.41-4.03,3.69-1.35,1.28-2.72,2.59-4.08,3.89-1.36,1.31-2.75,2.6-4.06,3.92-1.29,1.34-2.55,2.67-3.78,3.95-2.42,2.59-4.78,4.92-6.62,7.07l-6.19,7.14-13.36-11.24,7-8.07c1.76-2,3.65-3.9,5.02-5.36,1.38-1.45,2.3-2.42,2.3-2.42,0,0,.92-.96,2.31-2.41,1.36-1.48,3.32-3.29,5.24-5.14,1.93-1.84,3.87-3.68,5.32-5.06,1.44-1.39,2.46-2.26,2.46-2.26l-11.69-12.96s-1.07,.92-2.6,2.38c-1.53,1.46-3.58,3.4-5.62,5.34-2.03,1.96-4.1,3.87-5.53,5.43-1.46,1.53-2.44,2.54-2.44,2.54,0,0-.97,1.02-2.43,2.55-1.44,1.55-3.43,3.55-5.3,5.66-3.7,4.26-7.39,8.52-7.39,8.52,0,0-.97,1.09-2.36,2.78-1.36,1.72-3.17,4.01-4.98,6.3-1.79,2.31-3.63,4.58-4.91,6.35-1.28,1.78-2.13,2.97-2.13,2.97l42.42,30.81s.88-1.22,2.41-3.36c1.62-2.07,3.94-5.02,6.73-8.57,1.36-1.8,3.02-3.6,4.69-5.56,1.7-1.95,3.48-4,5.33-6.13,1.94-2.04,3.95-4.15,5.99-6.29,1.02-1.07,2.06-2.14,3.09-3.22,1.08-1.03,2.17-2.07,3.25-3.11,2.18-2.07,4.33-4.16,6.51-6.16,2.23-1.94,4.43-3.85,6.56-5.69,1.07-.92,2.12-1.82,3.15-2.7,1.06-.84,2.11-1.66,3.12-2.46,2.03-1.59,3.95-3.1,5.72-4.49,3.58-2.74,6.7-4.83,8.83-6.38,2.15-1.52,3.38-2.38,3.38-2.38l-49.21-72.93s-1.95,1.35-5.34,3.75c-3.36,2.44-8.3,5.75-13.85,10.21-2.8,2.2-5.84,4.58-9.01,7.13-3.09,2.66-6.34,5.47-9.71,8.38-3.4,2.88-6.68,6.1-10.07,9.31-1.68,1.62-3.38,3.25-5.09,4.88-1.68,1.66-3.3,3.39-4.95,5.1-1.64,1.72-3.27,3.44-4.9,5.15-1.63,1.71-3.24,3.43-4.76,5.21-3.05,3.53-6.06,7.01-8.97,10.38-2.81,3.45-5.45,6.85-7.97,10.06-1.25,1.61-2.49,3.16-3.62,4.71-1.12,1.56-2.2,3.07-3.24,4.51-2.06,2.91-3.94,5.57-5.62,7.93-1.66,2.37-2.98,4.53-4.12,6.27-2.24,3.5-3.52,5.5-3.52,5.5,0,0-.42,.66-1.05,1.65-.62,1-1.49,2.3-2.26,3.67-1.57,2.71-3.14,5.42-3.14,5.42l-3.11,5.44c-1.58,2.7-3,5.5-3,5.5,0,0-1.08,2.1-2.98,5.78-.94,1.85-2.07,4.09-3.38,6.66-1.26,2.59-2.58,5.57-4.05,8.8-.73,1.62-1.48,3.31-2.27,5.05-.79,1.74-1.58,3.55-2.32,5.45-1.49,3.79-3.07,7.78-4.69,11.91-.83,2.06-1.53,4.21-2.28,6.36-.73,2.16-1.48,4.35-2.23,6.56-.73,2.21-1.51,4.43-2.2,6.69-.65,2.27-1.31,4.54-1.97,6.82-2.73,9.08-4.77,18.33-6.71,26.99-.84,4.35-1.58,8.58-2.29,12.58-.34,2-.68,3.95-1,5.84-.25,1.89-.49,3.72-.73,5.48-.9,7.03-1.68,12.89-1.92,17-.32,4.11-.5,6.46-.5,6.46l87.76,6.22s.11-1.49,.31-4.09c.11-1.3,.2-2.88,.38-4.69,.23-1.8,.48-3.84,.76-6.06,.28-2.22,.59-4.63,.92-7.17,.45-2.53,.92-5.19,1.41-7.95,.87-5.53,2.34-11.33,3.67-17.15,.31-1.46,.72-2.9,1.13-4.33,.41-1.43,.81-2.86,1.21-4.27,.4-1.41,.8-2.82,1.2-4.2,.2-.69,.4-1.38,.59-2.06,.23-.67,.45-1.34,.67-2.01,.9-2.65,1.76-5.22,2.59-7.65,.42-1.21,.79-2.4,1.23-3.53,.44-1.12,.87-2.21,1.28-3.25,1.67-4.16,2.96-7.67,4.04-10.04,1.07-2.38,1.69-3.74,1.69-3.74l-47.86-21.4s-.58,1.29-1.45,3.22c-.42,.97-.96,2.09-1.46,3.32-.49,1.23-1.02,2.55-1.54,3.86l-4.13,10.54s-1.89,5.55-3.77,11.09c-.46,1.39-.93,2.78-1.36,4.08-.38,1.32-.74,2.55-1.04,3.61-.6,2.11-1.01,3.52-1.01,3.52,0,0-.39,1.36-.96,3.4-.56,2.05-1.39,4.75-1.99,7.52l-2.54,11.03,17.08,3.62s1.2-5.22,2.41-10.43c.56-2.62,1.36-5.18,1.89-7.12,.55-1.93,.91-3.22,.91-3.22,0,0,.38-1.33,.95-3.33,.29-1,.62-2.16,.98-3.41,.41-1.23,.85-2.55,1.29-3.86l3.57-10.5,16.39,6s-1.23,3.63-3.08,9.07c-.46,1.36-.95,2.84-1.48,4.4-.45,1.58-.93,3.25-1.43,4.98-.49,1.73-1,3.51-1.51,5.33-.51,1.82-1.06,3.65-1.46,5.53-.86,3.73-1.72,7.47-2.53,10.97-.75,3.51-1.27,6.82-1.8,9.65-.49,2.83-.95,5.18-1.17,6.84-.22,1.66-.34,2.61-.34,2.61l-51.88-7.29s.1-.74,.27-2.03c.15-1.29,.44-3.13,.84-5.33,.39-2.2,.85-4.77,1.33-7.52,.52-2.74,.97-5.69,1.67-8.59,1.34-5.81,2.61-11.64,3.77-15.95,1.21-4.31,2.02-7.18,2.02-7.18,0,0,.42-1.48,1.06-3.71,.32-1.11,.7-2.41,1.1-3.8,.46-1.37,.94-2.84,1.43-4.3,1.99-5.85,3.98-11.69,3.98-11.69,0,0,1.08-2.78,2.7-6.94,.82-2.08,1.79-4.5,2.82-7.1,1.01-2.61,2.31-5.29,3.51-8.02,1.23-2.71,2.47-5.42,3.63-7.97,1.19-2.53,2.41-4.83,3.41-6.82,2.04-3.97,3.4-6.62,3.4-6.62l15.42,8.22Zm294.26-14.54l1.81-53,.59-17.44s1.03,.03,2.58,.06c1.55,0,3.6,.22,5.66,.36,2.06,.16,4.12,.31,5.66,.43,.77,.06,1.42,.11,1.87,.14,.45,.03,.71,.07,.71,.07,0,0,1.3,.17,3.57,.46,2.27,.32,5.53,.63,9.4,1.26,7.73,1.33,18.04,3.24,28.07,6.26,5.07,1.32,9.98,3.12,14.64,4.67,.58,.2,1.16,.39,1.73,.59,.56,.22,1.11,.44,1.66,.66,1.1,.43,2.17,.86,3.22,1.27,2.09,.82,4.07,1.6,5.9,2.32,3.58,1.62,6.56,2.96,8.64,3.91,2.1,.91,3.25,1.55,3.25,1.55,0,0,3.67,1.88,7.34,3.76,1.86,.9,3.61,2,4.96,2.75l2.23,1.29-8.74,15.1-44.05,76.14-8.75,15.13-1.08-.63c-.66-.36-1.48-.95-2.39-1.34-1.79-.87-3.55-1.82-3.55-1.82l-.48-.26c-.31-.17-.8-.35-1.41-.62-.6-.27-1.33-.6-2.17-.98-.83-.39-1.76-.87-2.84-1.22-1.06-.4-2.2-.85-3.39-1.35-.59-.28-1.23-.45-1.88-.66-.64-.21-1.3-.43-1.97-.66-.67-.24-1.34-.48-2.03-.72-.7-.19-1.41-.38-2.13-.57l-2.15-.62c-.72-.22-1.43-.46-2.18-.58-5.83-1.57-11.88-2.24-16.4-2.86-2.3-.11-4.2-.29-5.54-.42-1.35-.02-2.13-.03-2.13-.03l-2.04-.05c-1.02-.04-2.04-.09-2.04-.09,0,0-1.02,.04-2.04,.09-1.02,.03-2.04,.05-2.04,.05l-2.11,.03c-1.33,.14-3.22,.31-5.51,.42-4.5,.62-10.52,1.25-16.31,2.83l-1.1,.23-1.07,.33-2.14,.62c-.71,.19-1.42,.38-2.12,.56-.68,.24-1.35,.48-2.02,.72-1.32,.48-2.63,.83-3.83,1.3-1.19,.5-2.32,.95-3.37,1.35-.52,.2-1.04,.37-1.51,.57l-1.32,.63c-.83,.38-1.56,.71-2.16,.98-.6,.26-1.08,.46-1.4,.6-.32,.15-.48,.25-.48,.25,0,0-1.82,.99-3.68,1.9-.95,.41-1.81,1-2.49,1.38l-1.12,.65-8.75-15.13-44.05-76.14-8.74-15.1s.93-.53,2.32-1.33c1.4-.79,3.22-1.91,5.15-2.84,3.81-1.95,7.61-3.9,7.61-3.9,0,0,.29-.15,.83-.42,.55-.25,1.37-.62,2.4-1.08,2.08-.92,5.02-2.3,8.59-3.86,1.81-.71,3.78-1.49,5.85-2.31,2.08-.8,4.24-1.75,6.57-2.47,2.31-.78,4.69-1.59,7.11-2.41l1.82-.62,1.86-.53c1.24-.35,2.49-.71,3.74-1.06,9.96-2.98,20.19-4.88,27.87-6.19,3.85-.62,7.08-.93,9.33-1.25,2.25-.29,3.54-.45,3.54-.45,0,0,.25-.04,.71-.07,.45-.03,1.09-.08,1.87-.14,1.54-.12,3.6-.27,5.66-.43,2.06-.14,4.11-.37,5.66-.36,1.55-.04,2.58-.06,2.58-.06l.59,17.44,1.8,53,.59,17.47-.91,.02c-.57,.03-1.41-.04-2.38,.09-1.96,.18-4.57,.36-7.18,.55-2.58,.37-5.17,.69-7.11,.9-1.92,.35-3.2,.58-3.2,.58,0,0-.66,.12-1.66,.3-.99,.21-2.34,.33-3.64,.68-2.61,.64-5.24,1.21-5.24,1.21,0,0-.32,.07-.87,.19-.56,.11-1.32,.38-2.26,.65-.94,.27-2.03,.58-3.2,.91-.59,.16-1.19,.32-1.81,.49-.61,.19-1.22,.42-1.83,.63-1.23,.42-2.46,.83-3.61,1.22-.58,.19-1.14,.37-1.67,.54-.52,.21-1,.41-1.46,.59-1.81,.72-3.01,1.2-3.01,1.2l-19.82-49.19s2.48-.98,6.21-2.45c1.9-.64,4.11-1.38,6.48-2.18,1.19-.38,2.39-.88,3.67-1.2,1.26-.36,2.55-.72,3.83-1.08,5.1-1.6,10.35-2.6,14.24-3.56,1.96-.41,3.62-.65,4.76-.87,1.15-.21,1.81-.32,1.81-.32l3.09,17.83s-.82,.15-2.04,.36c-1.22,.25-2.88,.43-4.48,.84-3.23,.75-6.46,1.49-6.46,1.49l-.54,.12c-.34,.08-.84,.16-1.41,.35-1.15,.33-2.69,.77-4.23,1.22-1.54,.43-3.08,.87-4.24,1.19-1.14,.39-1.89,.65-1.89,.65l5.38,16.61,1.71-.6c1.05-.29,2.44-.68,3.84-1.07,1.39-.4,2.78-.81,3.83-1.11,.52-.17,.97-.24,1.28-.31l.49-.11s2.92-.68,5.85-1.35c1.45-.38,2.96-.53,4.06-.76l1.85-.33,1.78-.33c.54-.09,1.16-.24,1.83-.32,.68-.08,1.4-.17,2.12-.25,2.89-.38,5.77-.75,5.77-.75l-5.43-52.75-3.28,.42c-2.09,.3-5.09,.58-8.65,1.15-7.11,1.23-16.6,2.98-25.82,5.74-1.16,.33-2.31,.65-3.47,.98l-1.72,.49c-.56,.19-1.13,.38-1.69,.58-2.24,.76-4.45,1.51-6.59,2.23-2.16,.67-4.15,1.56-6.08,2.29-1.92,.76-3.74,1.47-5.42,2.13-3.29,1.48-6.04,2.71-7.96,3.58-.96,.43-1.71,.77-2.23,1-.5,.26-.77,.39-.77,.39l38.47,79.11s.19-.11,.55-.28c.37-.16,.92-.4,1.61-.7,.69-.31,1.53-.69,2.49-1.13,.48-.22,.99-.46,1.52-.71,.55-.23,1.13-.43,1.74-.67,1.21-.46,2.52-.98,3.89-1.55,1.38-.54,2.9-.95,4.42-1.5,.76-.27,1.54-.54,2.33-.82,.8-.22,1.62-.44,2.44-.66,.82-.24,1.64-.47,2.47-.71l1.24-.37,1.27-.27c6.68-1.8,13.61-2.57,18.78-3.26,2.62-.15,4.8-.34,6.32-.49l2.42-.04s1.17-.03,2.34-.06c1.17-.05,2.34-.09,2.34-.09l2.34,.09,2.34,.06s.89,.01,2.44,.04c1.53,.15,3.73,.34,6.36,.49,5.21,.69,12.17,1.5,18.89,3.29,.86,.15,1.69,.41,2.52,.67l2.48,.71c.82,.23,1.64,.45,2.45,.67,.79,.28,1.57,.55,2.34,.82l2.28,.76c.74,.24,1.49,.45,2.17,.77,1.38,.57,2.7,1.09,3.91,1.55,1.24,.42,2.31,.96,3.27,1.41,.97,.44,1.81,.81,2.51,1.13,.69,.31,1.26,.53,1.62,.72,.36,.19,.55,.3,.55,.3l38.67-79.01s-1.06-.59-3.01-1.43c-1.93-.87-4.69-2.12-8-3.62-1.69-.66-3.52-1.38-5.46-2.15-.97-.38-1.96-.78-2.98-1.18-.51-.2-1.02-.41-1.54-.61-.53-.18-1.06-.36-1.6-.54-4.31-1.43-8.86-3.11-13.56-4.32-9.29-2.8-18.84-4.56-26-5.8-3.59-.59-6.61-.87-8.71-1.17-2.11-.27-3.31-.43-3.31-.43l-5.43,52.75s2.99,.39,5.98,.78c.75,.09,1.5,.18,2.2,.26,.69,.13,1.34,.25,1.89,.35,1.11,.2,1.85,.34,1.85,.34,0,0,.71,.13,1.79,.32,1.07,.22,2.52,.36,3.92,.75,2.83,.65,5.65,1.31,5.65,1.31l.49,.11c.31,.08,.76,.14,1.28,.31,1.04,.3,2.44,.7,3.83,1.11,1.4,.39,2.79,.78,3.84,1.07l1.71,.6,5.38-16.61s-.76-.26-1.89-.65c-1.16-.33-2.7-.76-4.24-1.19-1.54-.44-3.08-.89-4.23-1.22-.57-.18-1.07-.26-1.41-.35l-.54-.12s-3.12-.72-6.24-1.44c-1.55-.42-3.15-.59-4.33-.83-1.18-.21-1.97-.35-1.97-.35l3.14-17.82,1.79,.32c1.13,.23,2.78,.43,4.7,.88,3.85,.93,9.03,1.96,14.07,3.53,1.27,.36,2.54,.71,3.79,1.07,1.25,.34,2.44,.82,3.62,1.2,2.34,.79,4.53,1.53,6.41,2.16,3.68,1.46,6.13,2.43,6.13,2.43l-19.82,49.19s-1.21-.48-3.01-1.2c-.45-.18-.94-.38-1.46-.59-.53-.17-1.09-.35-1.67-.54-1.15-.39-2.38-.81-3.61-1.22-.61-.21-1.22-.44-1.83-.63-.62-.17-1.22-.33-1.81-.49-1.17-.33-2.26-.64-3.2-.91-.94-.26-1.7-.53-2.26-.65-.56-.12-.87-.19-.87-.19,0,0-2.54-.55-5.06-1.17-1.25-.36-2.56-.47-3.51-.67l-1.6-.28s-1.3-.24-3.25-.61c-1.98-.23-4.61-.54-7.24-.92-2.66-.21-5.31-.41-7.3-.57-.99-.12-1.84-.06-2.42-.09l-.92-.02,.59-17.47Zm-17.11-158.37l1.78,52.39,.61,18.06s-1.11,.03-2.77,.07c-1.66,0-3.87,.23-6.08,.38-2.21,.17-4.42,.34-6.07,.46l-2,.15c-.48,.03-.76,.07-.76,.07,0,0-1.38,.17-3.8,.48-2.42,.34-5.89,.68-10.02,1.34-8.24,1.4-19.23,3.46-29.92,6.65-1.34,.38-2.68,.76-4.02,1.14l-2,.57c-.65,.22-1.31,.44-1.96,.66-2.6,.88-5.16,1.75-7.64,2.58-2.5,.79-4.82,1.8-7.05,2.66-2.23,.88-4.34,1.71-6.28,2.48-3.83,1.67-6.99,3.14-9.22,4.14-1.11,.5-1.98,.9-2.58,1.17l-.89,.45s-4.09,2.09-8.18,4.19c-2.07,1.01-4.03,2.2-5.53,3.05-1.49,.86-2.49,1.43-2.49,1.43l-9.05-15.64-44.06-76.15-8.76-15.15s1.48-.85,3.69-2.12c2.22-1.26,5.16-2.99,8.2-4.51,6.05-3.14,12.14-6.2,12.14-6.2,0,0,.55-.29,1.6-.79,1.06-.49,2.61-1.2,4.58-2.1,1.98-.89,4.38-1.98,7.14-3.23,1.38-.61,2.85-1.27,4.4-1.96,1.56-.66,3.23-1.31,4.95-2,3.47-1.36,7.22-2.83,11.19-4.39,3.99-1.5,8.28-2.9,12.68-4.4,2.21-.73,4.46-1.48,6.73-2.23,2.3-.67,4.63-1.34,6.98-2.02,2.35-.66,4.72-1.33,7.11-2l3.58-.99,3.62-.87c19.26-4.95,38.95-7.67,53.7-9.27,7.38-.62,13.55-1.06,17.86-1.35,4.31-.14,6.77-.22,6.77-.22l13.05-.29,13.05,.29s2.48,.08,6.81,.23c4.34,.29,10.54,.74,17.97,1.36,14.84,1.62,34.64,4.4,54.02,9.37,19.38,4.87,38.35,11.32,52.18,17.1,3.5,1.35,6.62,2.77,9.4,4.02,2.77,1.26,5.19,2.35,7.18,3.25,1.98,.92,3.55,1.61,4.6,2.14l1.6,.81s5.85,2.99,11.7,5.99c2.94,1.47,5.75,3.16,7.9,4.36l3.56,2.04-8.76,15.15-44.06,76.15-9.05,15.64s-.96-.55-2.4-1.38c-1.45-.81-3.33-1.98-5.32-2.95-3.94-2.02-7.88-4.04-7.88-4.04,0,0-1.23-.68-3.49-1.66-2.24-1.01-5.44-2.46-9.28-4.19-1.96-.77-4.08-1.61-6.33-2.5-1.12-.44-2.28-.9-3.46-1.36l-1.79-.7c-.61-.21-1.23-.42-1.85-.63-4.99-1.67-10.28-3.59-15.72-5.02-10.77-3.23-21.84-5.3-30.14-6.72-4.16-.68-7.66-1.02-10.09-1.36-2.44-.31-3.83-.48-3.83-.48,0,0-.27-.04-.76-.08-.48-.04-1.17-.09-2-.15-1.66-.13-3.86-.29-6.07-.46-2.21-.15-4.41-.39-6.07-.38-1.66-.04-2.77-.07-2.77-.07l.61-18.06,1.78-52.39,.59-17.47s.75,.02,2.07,.06c1.32,.06,3.2,.04,5.46,.24,4.52,.33,10.55,.74,16.57,1.31,6.01,.73,12.02,1.49,16.51,2.11,4.48,.78,7.46,1.3,7.46,1.3,0,0,1.47,.26,3.66,.66,2.19,.43,5.14,.87,8.04,1.57l11.62,2.68s.73,.17,1.99,.47c1.27,.3,3.06,.83,5.21,1.42,2.15,.61,4.66,1.32,7.35,2.09,1.34,.39,2.73,.79,4.14,1.2,1.4,.43,2.81,.92,4.23,1.39,2.82,.96,5.65,1.91,8.3,2.81,1.32,.45,2.6,.89,3.81,1.31,1.19,.46,2.32,.9,3.37,1.3,4.16,1.64,6.94,2.73,6.94,2.73l-19.58,48.59s-3.53-1.38-8.82-3.46c-2.69-.91-5.83-1.98-9.19-3.12-1.69-.55-3.41-1.19-5.2-1.7l-5.43-1.55c-7.25-2.21-14.67-3.77-20.21-5.05-2.77-.63-5.11-.97-6.74-1.28-1.63-.29-2.56-.46-2.56-.46l3.03-17.19,3.29,.59c1.97,.38,4.62,.77,7.22,1.41,5.22,1.2,10.43,2.41,10.43,2.41,0,0,.33,.08,.9,.21,.57,.14,1.39,.3,2.35,.59,1.93,.54,4.51,1.27,7.09,2,2.57,.74,5.15,1.46,7.07,2.04l3.17,1.06,5.38-16.61s-1.34-.45-3.36-1.12c-2.03-.62-4.75-1.38-7.47-2.16-2.72-.77-5.45-1.53-7.49-2.11-1.02-.3-1.89-.47-2.49-.62-.6-.14-.95-.22-.95-.22,0,0-5.51-1.27-11.03-2.54-2.75-.67-5.55-1.08-7.63-1.49-2.09-.37-3.48-.62-3.48-.62,0,0-1.44-.25-3.6-.64-1.08-.19-2.34-.41-3.69-.64-1.36-.18-2.81-.37-4.26-.56-5.8-.73-11.6-1.46-11.6-1.46l-5.37,52.15s1.49,.19,4.1,.51c2.61,.36,6.35,.73,10.8,1.46,8.89,1.51,20.74,3.74,32.28,7.19,5.82,1.53,11.49,3.58,16.84,5.37,.67,.23,1.33,.45,1.98,.68,.64,.25,1.28,.5,1.92,.75,1.26,.5,2.5,.98,3.7,1.46,2.4,.95,4.68,1.85,6.78,2.68,4.11,1.86,7.54,3.4,9.94,4.49,2.41,1.06,3.73,1.78,3.73,1.78l38.68-79.02s-.53-.27-1.53-.77c-1-.5-2.49-1.16-4.39-2.03-1.9-.86-4.2-1.9-6.85-3.1-2.65-1.19-5.62-2.55-8.96-3.83-13.18-5.52-31.28-11.66-49.76-16.31-18.48-4.75-37.37-7.39-51.52-8.94-7.09-.59-13-1.02-17.14-1.3-4.14-.14-6.5-.21-6.5-.21l-12.46-.28-12.46,.28s-2.35,.08-6.46,.21c-4.11,.28-9.99,.71-17.04,1.29-14.07,1.54-32.85,4.12-51.22,8.85l-3.45,.83-3.42,.95c-2.27,.64-4.53,1.28-6.78,1.91-2.24,.65-4.46,1.29-6.66,1.92-2.17,.72-4.31,1.43-6.42,2.13-4.2,1.44-8.29,2.76-12.1,4.2-3.79,1.49-7.37,2.89-10.68,4.19-1.65,.66-3.23,1.28-4.72,1.91-1.48,.66-2.88,1.28-4.2,1.87-2.63,1.19-4.92,2.22-6.81,3.08-1.88,.86-3.36,1.54-4.37,2-1,.47-1.52,.75-1.52,.75l38.48,79.12s.33-.17,.96-.48c.64-.29,1.57-.71,2.76-1.25,2.38-1.07,5.77-2.64,9.88-4.43,2.08-.82,4.34-1.72,6.73-2.66,2.4-.92,4.88-1.99,7.55-2.84,2.65-.9,5.39-1.82,8.18-2.77,.7-.23,1.4-.47,2.1-.71l2.14-.62c1.43-.41,2.87-.82,4.3-1.23,11.46-3.41,23.22-5.62,32.05-7.12,4.42-.71,8.14-1.08,10.72-1.44,2.59-.33,4.07-.51,4.07-.51l-5.36-52.15s-5.6,.7-11.21,1.41c-1.4,.18-2.8,.37-4.11,.54-1.31,.18-2.53,.42-3.57,.6l-3.48,.61s-1.44,.26-3.6,.64c-2.15,.42-5.05,.84-7.9,1.52-5.71,1.32-11.42,2.63-11.42,2.63l-.95,.22c-.6,.15-1.47,.32-2.49,.62-2.04,.57-4.77,1.34-7.49,2.11-2.72,.78-5.44,1.55-7.47,2.16-2.01,.67-3.36,1.12-3.36,1.12l5.38,16.61s1.27-.42,3.17-1.06c1.93-.56,4.5-1.3,7.07-2.04,2.58-.73,5.15-1.45,7.09-2,.96-.29,1.78-.45,2.35-.59,.57-.13,.9-.21,.9-.21,0,0,5.4-1.25,10.8-2.49,2.7-.65,5.44-1.04,7.48-1.44l3.41-.61,2.98,17.2s-.94,.17-2.59,.46c-1.65,.31-4.01,.69-6.82,1.27-5.59,1.32-13.11,2.85-20.45,5.09-1.84,.53-3.69,1.05-5.5,1.57-1.82,.49-3.56,1.16-5.27,1.71-3.4,1.16-6.58,2.23-9.3,3.16-5.35,2.09-8.92,3.49-8.92,3.49l-19.58-48.59s2.77-1.09,6.94-2.73c1.04-.4,2.17-.84,3.37-1.3,1.21-.42,2.49-.86,3.81-1.31,2.65-.9,5.47-1.85,8.3-2.81,1.42-.47,2.82-.96,4.23-1.39,1.41-.41,2.8-.81,4.14-1.2,2.69-.76,5.2-1.48,7.35-2.09,2.16-.59,3.94-1.13,5.21-1.42,1.27-.3,1.99-.47,1.99-.47,0,0,6.01-1.39,12.03-2.77,3-.71,6.06-1.16,8.33-1.61l3.79-.68s2.93-.54,7.34-1.26c4.42-.59,10.32-1.35,16.23-2.06,5.92-.53,11.84-.95,16.28-1.27,2.22-.19,4.07-.16,5.37-.23l2.04-.06,.59,17.47Zm159.82,247.47l46.8-24.95,15.39-8.21s1.88,3.67,3.76,7.35c.98,1.82,1.73,3.74,2.4,5.14,.64,1.41,1.06,2.35,1.06,2.35,0,0,.54,1.19,1.48,3.28,.95,2.08,2.07,5.16,3.53,8.8,.36,.91,.74,1.86,1.12,2.85,.37,.99,.7,2.04,1.06,3.1,.72,2.13,1.48,4.38,2.27,6.7,.42,1.15,.77,2.35,1.1,3.57,.34,1.21,.69,2.44,1.04,3.68,.35,1.24,.71,2.49,1.06,3.74l.54,1.88,.44,1.91c1.17,5.1,2.44,10.18,3.19,15.03,.42,2.42,.88,4.74,1.22,6.97,.28,2.23,.55,4.34,.8,6.29,.24,1.95,.47,3.73,.67,5.31,.12,1.59,.22,2.98,.31,4.12,.17,2.28,.27,3.59,.27,3.59,0,0,.08,1.03,.2,2.57,.16,1.54,.16,3.61,.22,5.67,.11,4.13,.21,8.25,.21,8.25h-122.89s-.11-2.04-.14-4.07c-.03-1.02,.02-2.05-.09-2.79l-.11-1.26s-.06-.76-.16-2.1c-.07-.66-.02-1.49-.2-2.41-.14-.92-.28-1.95-.41-3.09-.06-.57-.13-1.16-.19-1.77-.06-.61-.23-1.22-.34-1.87-.25-1.28-.48-2.63-.69-4.03-.73-2.73-1.22-5.72-2.17-8.59l-.59-2.18c-.19-.73-.5-1.41-.73-2.12-.52-1.39-.88-2.81-1.4-4.12-.55-1.3-1.05-2.57-1.5-3.79l-.33-.9c-.14-.28-.27-.56-.4-.84-.26-.55-.51-1.09-.74-1.6-.48-1.03-.86-2-1.25-2.83-.43-.82-.81-1.53-1.12-2.11-.59-1.18-.93-1.86-.93-1.86,0,0-.41-.91-.96-1.75l-1.01-1.73-.97-1.75c-.22-.45-.53-.85-.73-1.17l-.35-.52-1.13-1.75c-.37-.55-.74-1.27-1.28-2.01-.55-.74-1.17-1.58-1.82-2.51-.32-.47-.66-.96-1.01-1.46-.34-.51-.78-.97-1.18-1.49-.82-1.01-1.65-2.11-2.52-3.24-.96-1.05-1.93-2.16-2.89-3.31l-.72-.87-.8-.8-1.58-1.64c-4.25-4.34-8.73-8.49-12.42-11.17-1.73-1.49-3.35-2.48-4.42-3.27-1.07-.78-1.68-1.23-1.68-1.23,0,0-.1-.09-.29-.2-.19-.12-.47-.29-.8-.49-.66-.41-1.54-.96-2.41-1.53-.43-.29-.86-.58-1.27-.85-.41-.26-.82-.45-1.16-.65-.68-.38-1.13-.64-1.13-.64l8.75-15.13,44.05-76.14,8.74-15.1s.93,.53,2.32,1.33c.69,.41,1.51,.85,2.37,1.38,.84,.54,1.74,1.12,2.64,1.7,1.8,1.15,3.6,2.31,4.95,3.17,.68,.43,1.24,.79,1.63,1.05,.4,.25,.61,.42,.61,.42,0,0,1.06,.75,2.91,2.07,.93,.66,2.05,1.46,3.34,2.38,1.29,.92,2.77,1.92,4.28,3.16,1.53,1.2,3.19,2.51,4.95,3.89,.88,.69,1.78,1.4,2.7,2.13,.89,.77,1.79,1.55,2.71,2.35,1.84,1.59,3.74,3.24,5.68,4.92,1.85,1.76,3.73,3.56,5.61,5.35,.94,.9,1.88,1.79,2.82,2.69,.89,.94,1.78,1.87,2.66,2.8,1.77,1.85,3.5,3.67,5.18,5.43,1.59,1.84,3.14,3.62,4.6,5.31,1.45,1.7,2.89,3.25,4.05,4.81,2.41,3.06,4.42,5.62,5.82,7.4,1.32,1.85,2.08,2.91,2.08,2.91,0,0,2.39,3.37,4.78,6.73l4.45,6.95-14.79,9.25-44.96,28.13-14.82,9.27s-.7-1.1-1.76-2.74c-.97-1.7-2.6-3.75-4.08-5.9-.37-.54-.75-1.07-1.11-1.6-.38-.52-.8-1-1.17-1.48-.76-.96-1.47-1.86-2.07-2.63-.61-.77-1.09-1.43-1.45-1.87l-.6-.67s-1.8-2.03-3.54-4.1c-.86-1.04-1.87-1.96-2.55-2.71l-1.17-1.23-.62-.65c-.41-.4-.91-1.05-1.65-1.7-1.43-1.35-3.33-3.15-5.23-4.95-2.01-1.67-3.94-3.44-5.45-4.69-1.55-1.2-2.58-2-2.58-2l32.73-41.73s.53,.41,1.45,1.14c.9,.74,2.29,1.7,3.77,3.05,1.52,1.31,3.29,2.85,5.19,4.49,.97,.79,1.89,1.72,2.84,2.63,.95,.91,1.92,1.83,2.89,2.76,.96,.94,1.97,1.81,2.87,2.78,.91,.96,1.8,1.9,2.66,2.81,1.7,1.84,3.42,3.45,4.68,5.01,2.63,3.03,4.38,5.06,4.38,5.06l-13.88,11.62-4.36-5.04c-1.07-1.28-2.29-2.42-3.13-3.34-.86-.9-1.44-1.51-1.44-1.51,0,0-.55-.58-1.38-1.46-.8-.91-2.01-1.97-3.17-3.09l-3.2-3.06c-.85-.85-1.48-1.36-1.48-1.36l-11.69,12.96s.57,.46,1.34,1.24c.79,.76,1.84,1.77,2.9,2.77,1.05,1.01,2.16,1.97,2.87,2.8l1.25,1.33,1.3,1.37c.76,.84,1.88,1.86,2.84,3.02,1.98,2.28,3.95,4.57,3.95,4.57l.33,.38c.21,.24,.52,.58,.84,1.02,.67,.86,1.57,2.01,2.46,3.16,.89,1.15,1.84,2.26,2.47,3.16l1.04,1.49,42.91-31.16s-.7-.98-1.92-2.7c-1.3-1.66-3.16-4.02-5.4-6.86-1.08-1.45-2.42-2.89-3.76-4.46-1.35-1.57-2.78-3.22-4.26-4.93-1.56-1.63-3.17-3.32-4.81-5.04-.82-.86-1.64-1.73-2.47-2.6-.87-.83-1.74-1.66-2.62-2.49-1.74-1.66-3.49-3.33-5.2-4.96-1.79-1.55-3.56-3.08-5.27-4.56-.85-.74-1.69-1.47-2.51-2.18-.85-.67-1.69-1.33-2.5-1.97-1.63-1.28-3.17-2.49-4.59-3.61-1.4-1.15-2.77-2.07-3.97-2.93-1.2-.85-2.24-1.59-3.1-2.2-1.72-1.22-2.7-1.92-2.7-1.92l-49.39,72.79s.7,.51,1.94,1.41c1.23,.9,3.08,2.06,5.08,3.76,4.22,3.1,9.39,7.84,14.27,12.84l1.81,1.89,.91,.93,.83,.99c1.11,1.31,2.22,2.59,3.32,3.8,1,1.3,1.96,2.55,2.9,3.72,.46,.59,.96,1.13,1.35,1.72,.4,.58,.79,1.14,1.16,1.68,.76,1.06,1.46,2.03,2.09,2.89,.62,.86,1.06,1.68,1.48,2.31l1.29,2.01s.16,.24,.4,.6c.23,.36,.58,.83,.84,1.34,.56,1,1.13,2.01,1.13,2.01,0,0,.58,.99,1.16,1.99,.62,.97,1.11,2.02,1.11,2.02,0,0,.39,.78,1.08,2.14,.35,.68,.79,1.5,1.28,2.44,.46,.96,.91,2.07,1.45,3.25,.27,.59,.56,1.21,.85,1.85,.15,.32,.3,.64,.46,.97,.13,.34,.26,.68,.39,1.03,.53,1.4,1.11,2.86,1.73,4.37,.6,1.51,1.04,3.15,1.63,4.75,.26,.81,.61,1.61,.83,2.45,.23,.83,.46,1.67,.69,2.51,1.08,3.31,1.68,6.74,2.49,9.9,.25,1.62,.52,3.17,.8,4.64,.12,.74,.31,1.44,.39,2.15,.08,.7,.16,1.38,.23,2.03,.17,1.3,.33,2.49,.47,3.55,.19,1.05,.15,2,.23,2.76,.12,1.54,.18,2.41,.18,2.41l87.76-5.99s-.09-1.21-.25-3.33c-.08-1.06-.17-2.35-.28-3.82-.19-1.47-.39-3.12-.62-4.93-.23-1.81-.47-3.76-.73-5.83-.31-2.06-.75-4.21-1.13-6.45-.69-4.5-1.88-9.2-2.95-13.93l-.41-1.77-.5-1.74c-.33-1.16-.66-2.32-.99-3.46-.32-1.15-.65-2.29-.97-3.41-.3-1.13-.63-2.24-1.02-3.31-.73-2.15-1.43-4.23-2.1-6.2-.34-.98-.64-1.95-.98-2.87-.36-.91-.71-1.79-1.05-2.64-1.36-3.37-2.39-6.22-3.27-8.15-.88-1.93-1.38-3.04-1.38-3.04l-48.42,21.64s.31,.68,.78,1.71c.51,1.01,1.04,2.41,1.58,3.81,.55,1.4,1.11,2.79,1.52,3.84,.21,.52,.39,.96,.51,1.26,.1,.31,.16,.49,.16,.49,0,0,.92,2.75,1.85,5.49,.24,.69,.47,1.37,.69,2.01,.18,.66,.35,1.27,.49,1.79,.29,1.05,.49,1.74,.49,1.74,0,0,.2,.7,.5,1.74,.28,1.05,.76,2.42,1.03,3.85,.65,2.83,1.31,5.65,1.31,5.65l17.08-3.62s-.72-3.12-1.44-6.24c-.3-1.58-.82-3.09-1.14-4.25-.33-1.15-.55-1.92-.55-1.92,0,0-.22-.77-.54-1.93-.16-.58-.35-1.25-.55-1.98-.24-.71-.5-1.47-.76-2.23-1.02-3.03-2.04-6.07-2.04-6.07l17.01-6.18s.84,2.5,2.11,6.25c.31,.94,.69,1.94,1.02,3.03,.31,1.09,.63,2.24,.96,3.43,.34,1.19,.69,2.42,1.04,3.67,.37,1.25,.74,2.51,1,3.81,.59,2.57,1.19,5.14,1.75,7.55,.51,2.42,.85,4.71,1.22,6.65,.33,1.95,.69,3.57,.82,4.72,.14,1.15,.22,1.8,.22,1.8l-52.52,7.38-.1-.89c-.04-.57-.18-1.37-.37-2.33-.17-.96-.38-2.08-.59-3.28-.24-1.19-.35-2.5-.71-3.75-.64-2.52-1.12-5.07-1.64-6.95-.54-1.87-.9-3.11-.9-3.11,0,0-.17-.62-.44-1.56-.13-.47-.28-1.02-.43-1.6-.18-.58-.41-1.19-.62-1.8-.85-2.45-1.65-4.92-1.65-4.92,0,0-.08-.32-.32-.85-.22-.54-.53-1.3-.9-2.22-.74-1.84-1.61-4.33-2.79-6.7-.54-1.21-1.08-2.41-1.58-3.55-.5-1.13-1.1-2.13-1.54-3.02-.9-1.77-1.5-2.95-1.5-2.95l15.42-8.22Zm128.49-94.1l-44.44,27.81-15.32,9.58-4.78-7.46-5.13-7.22s-.81-1.13-2.23-3.12c-1.51-1.92-3.66-4.66-6.24-7.95-1.26-1.67-2.79-3.34-4.35-5.16-1.57-1.81-3.22-3.72-4.94-5.69-1.8-1.89-3.67-3.85-5.56-5.83-.95-.99-1.9-1.99-2.86-3-1-.96-2.01-1.92-3.02-2.89-2.02-1.92-4.04-3.84-6.03-5.73-2.07-1.8-4.11-3.57-6.09-5.28-.99-.86-1.96-1.7-2.91-2.52-.99-.78-1.95-1.54-2.89-2.29-1.88-1.48-3.66-2.88-5.31-4.17-1.62-1.32-3.21-2.4-4.59-3.39-1.38-.98-2.59-1.84-3.59-2.55-1.99-1.41-3.13-2.22-3.13-2.22,0,0-.23-.18-.65-.45-.42-.27-1.03-.66-1.75-1.12-1.45-.93-3.38-2.17-5.31-3.41-.97-.62-1.93-1.24-2.84-1.82-.92-.56-1.8-1.05-2.54-1.48-1.49-.86-2.49-1.43-2.49-1.43l9.05-15.64,44.06-76.15,8.76-15.15s1.47,.85,3.68,2.13c1.1,.65,2.4,1.38,3.76,2.21,1.35,.85,2.78,1.76,4.22,2.67,2.86,1.84,5.72,3.68,7.87,5.06,1.07,.7,1.96,1.28,2.58,1.68,.62,.41,.96,.66,.96,.66,0,0,2.02,1.42,5.56,3.92,3.52,2.52,8.62,6.03,14.41,10.67,11.82,8.97,26.67,22.11,40.39,36.33,1.7,1.79,3.41,3.58,5.1,5.37,.84,.9,1.69,1.79,2.52,2.68,.81,.92,1.61,1.84,2.42,2.75,3.2,3.66,6.33,7.29,9.34,10.82,2.91,3.61,5.68,7.14,8.29,10.48,1.3,1.68,2.6,3.29,3.77,4.91,1.17,1.62,2.29,3.19,3.38,4.7,2.14,3.03,4.11,5.81,5.85,8.27,1.72,2.48,3.1,4.72,4.29,6.53,2.34,3.65,3.67,5.73,3.67,5.73,0,0,.44,.69,1.1,1.73,.65,1.04,1.55,2.41,2.36,3.84,1.65,2.84,3.3,5.68,3.3,5.68,0,0,1.63,2.85,3.26,5.7,1.66,2.83,3.15,5.77,3.15,5.77,0,0,1.14,2.22,3.14,6.1,.99,1.95,2.19,4.31,3.56,7.02,1.32,2.74,2.72,5.87,4.27,9.28,.77,1.71,1.56,3.49,2.39,5.33,.41,.92,.83,1.86,1.25,2.81,.39,.97,.79,1.95,1.19,2.94,1.6,3.98,3.26,8.2,4.95,12.56,1.67,4.38,3.15,8.99,4.74,13.64,.77,2.34,1.6,4.67,2.3,7.06,.69,2.39,1.38,4.79,2.07,7.19,2.87,9.58,5,19.34,7.03,28.48,.86,4.6,1.66,9.05,2.4,13.27,.35,2.11,.76,4.16,1.02,6.16,.26,2,.52,3.93,.76,5.78,.46,3.71,.89,7.11,1.26,10.12,.4,3.01,.52,5.65,.72,7.81,.33,4.34,.52,6.82,.52,6.82,0,0,.12,1.63,.29,4.08,.22,2.45,.27,5.71,.38,8.97,.15,6.52,.29,13.05,.29,13.05h-123.54s-.11-4.42-.22-8.85c-.07-2.21-.07-4.43-.24-6.08-.13-1.66-.21-2.76-.21-2.76,0,0-.11-1.4-.29-3.85-.09-1.22-.21-2.71-.34-4.42-.21-1.7-.45-3.61-.71-5.7-.27-2.09-.55-4.35-.86-6.75-.36-2.39-.85-4.89-1.3-7.48-.81-5.21-2.17-10.66-3.43-16.14l-.48-2.05-.57-2.02c-.38-1.35-.76-2.69-1.14-4.02-.38-1.33-.75-2.65-1.12-3.95-.36-1.31-.74-2.59-1.18-3.83-.84-2.49-1.66-4.91-2.43-7.19-.39-1.14-.75-2.26-1.14-3.33-.42-1.06-.82-2.08-1.2-3.06-1.57-3.91-2.78-7.21-3.79-9.45-1.01-2.24-1.59-3.52-1.59-3.52,0,0-.46-1.01-1.14-2.52-.71-1.5-1.53-3.56-2.58-5.52l-4.04-7.89,15.94-8.5,46.26-24.66,15.42-8.22s1.39,2.7,3.46,6.74c1.01,2.03,2.27,4.37,3.47,6.95,1.18,2.59,2.43,5.35,3.69,8.11,2.57,5.49,4.74,11.16,6.41,15.4,.83,2.12,1.52,3.89,2,5.12,.49,1.23,.72,1.96,.72,1.96,0,0,1.92,5.65,3.84,11.29,.47,1.42,.93,2.83,1.37,4.16,.39,1.34,.75,2.6,1.06,3.67,.62,2.15,1.03,3.58,1.03,3.58,0,0,.81,2.87,2.02,7.18,1.16,4.32,2.44,10.14,3.77,15.95,.71,2.9,1.15,5.85,1.67,8.59,.49,2.75,.94,5.32,1.33,7.52,.4,2.2,.69,4.04,.84,5.33,.17,1.29,.27,2.03,.27,2.03l-51.88,7.29s-.12-.94-.33-2.58c-.21-1.64-.67-3.97-1.15-6.76-.52-2.79-1.04-6.06-1.77-9.54-.8-3.46-1.65-7.15-2.5-10.84-.4-1.85-.92-3.67-1.43-5.47-.51-1.79-1.01-3.56-1.49-5.27-.49-1.71-.96-3.36-1.41-4.92-.48-1.56-.99-3.01-1.44-4.36-1.83-5.38-3.04-8.97-3.04-8.97l16.41-5.96s1.72,5.07,3.44,10.14c.42,1.27,.84,2.54,1.24,3.73,.35,1.21,.67,2.33,.95,3.3,.55,1.93,.92,3.22,.92,3.22,0,0,.36,1.29,.91,3.22,.53,1.94,1.32,4.5,1.89,7.12,1.2,5.22,2.41,10.43,2.41,10.43l17.08-3.62s-1.27-5.51-2.54-11.03c-.6-2.77-1.43-5.47-1.99-7.52l-.96-3.4s-.39-1.36-.97-3.4c-.29-1.02-.64-2.21-1.01-3.48-.42-1.26-.86-2.6-1.3-3.95l-3.64-10.72s-.12-.35-.33-.95c-.23-.6-.56-1.45-.96-2.47-.8-2.04-1.88-4.77-2.95-7.5-1.07-2.73-2.16-5.45-3.09-7.43-.9-2-1.5-3.34-1.5-3.34l-47.86,21.4s.62,1.37,1.7,3.77c1.09,2.4,2.39,5.93,4.07,10.12,.41,1.05,.84,2.14,1.29,3.28,.42,1.14,.81,2.34,1.23,3.56,.83,2.45,1.7,5.03,2.6,7.7,.47,1.33,.88,2.7,1.27,4.1,.4,1.4,.8,2.81,1.21,4.23,.4,1.42,.81,2.86,1.22,4.3l.61,2.17,.51,2.2c1.36,5.86,2.79,11.71,3.67,17.28,.48,2.78,1,5.46,1.39,8.01,.33,2.56,.64,4.99,.92,7.22,.28,2.24,.53,4.29,.76,6.11,.14,1.83,.26,3.42,.37,4.73,.2,2.62,.31,4.12,.31,4.12l87.77-5.99s-.18-2.36-.5-6.5c-.19-2.07-.3-4.58-.68-7.46-.36-2.87-.76-6.12-1.21-9.65-.23-1.77-.48-3.61-.73-5.51-.25-1.9-.64-3.86-.98-5.88-.73-4.03-1.49-8.27-2.29-12.66-1.95-8.72-3.97-18.03-6.71-27.16-.66-2.29-1.32-4.58-1.98-6.86-.67-2.28-1.47-4.5-2.19-6.73-1.52-4.44-2.93-8.84-4.52-13.01-1.64-4.16-3.22-8.17-4.72-11.98-.38-.95-.76-1.89-1.13-2.81-.4-.91-.8-1.8-1.19-2.68-.79-1.76-1.55-3.45-2.28-5.08-1.48-3.25-2.81-6.24-4.07-8.85-1.31-2.59-2.46-4.84-3.4-6.7-1.91-3.7-3-5.82-3-5.82,0,0-1.42-2.8-3-5.5-1.56-2.72-3.11-5.44-3.11-5.44,0,0-1.57-2.71-3.14-5.42-.77-1.37-1.63-2.67-2.26-3.67-.63-.99-1.05-1.65-1.05-1.65,0,0-1.27-1.99-3.5-5.47-1.13-1.73-2.45-3.87-4.09-6.23-1.66-2.35-3.54-5-5.58-7.89-1.03-1.44-2.11-2.94-3.22-4.49-1.11-1.55-2.36-3.08-3.6-4.69-2.5-3.19-5.14-6.56-7.91-10-2.89-3.35-5.88-6.8-8.91-10.32-.77-.87-1.53-1.75-2.31-2.63-.8-.85-1.61-1.7-2.41-2.56-1.62-1.7-3.24-3.41-4.87-5.12-13.1-13.57-27.26-26.11-38.54-34.66-5.52-4.43-10.39-7.78-13.75-10.18-3.38-2.38-5.31-3.74-5.31-3.74l-49.4,72.8s1.22,.86,3.35,2.37c1.06,.76,2.36,1.68,3.84,2.73,1.48,1.06,3.17,2.22,4.91,3.63,1.76,1.38,3.67,2.88,5.68,4.46,1,.8,2.04,1.62,3.09,2.45,1.02,.88,2.06,1.78,3.12,2.69,2.11,1.83,4.3,3.73,6.51,5.65,2.13,2.02,4.29,4.08,6.45,6.13,1.08,1.03,2.15,2.06,3.23,3.09,1.03,1.07,2.05,2.14,3.06,3.2,2.02,2.13,4.02,4.22,5.95,6.25,1.83,2.11,3.61,4.15,5.29,6.09,1.66,1.95,3.3,3.74,4.65,5.53,2.76,3.52,5.07,6.45,6.68,8.51,1.52,2.12,2.39,3.33,2.39,3.33l42.42-30.8s-.82-1.15-2.06-2.87c-1.23-1.72-3.01-3.91-4.74-6.14-1.75-2.21-3.5-4.43-4.81-6.09-.65-.84-1.22-1.5-1.63-1.97l-.63-.74s-3.82-4.41-7.65-8.83c-1.91-2.21-3.98-4.27-5.47-5.87-1.51-1.58-2.52-2.64-2.52-2.64,0,0-.98-1.02-2.44-2.54-1.43-1.56-3.51-3.47-5.53-5.43-2.04-1.94-4.09-3.89-5.62-5.34-1.52-1.47-2.59-2.39-2.59-2.39l-11.69,12.96s1.02,.87,2.46,2.26c1.45,1.38,3.39,3.22,5.32,5.06,1.92,1.85,3.89,3.67,5.24,5.14,1.39,1.45,2.31,2.41,2.31,2.41,0,0,.95,1,2.39,2.5,1.41,1.52,3.38,3.47,5.18,5.56,3.62,4.18,7.24,8.36,7.24,8.36l-13.39,11.21s-2.5-2.89-6.26-7.23c-1.84-2.21-4.23-4.56-6.68-7.17-1.24-1.3-2.52-2.63-3.82-3.99-1.3-1.36-2.72-2.64-4.09-3.98-1.38-1.32-2.77-2.64-4.13-3.94-1.37-1.29-2.69-2.59-4.06-3.74-2.71-2.35-5.24-4.54-7.41-6.42-2.14-1.91-4.08-3.31-5.38-4.37-1.32-1.03-2.07-1.63-2.07-1.63l32.33-41.22,5.83,4.61c3.44,2.83,7.91,6.75,12.39,10.65,4.39,4,8.65,8.15,11.87,11.23,1.62,1.53,2.86,2.92,3.77,3.84,.9,.94,1.41,1.47,1.41,1.47,0,0,1.06,1.11,2.65,2.78,1.57,1.69,3.75,3.86,5.76,6.19,4.03,4.65,8.06,9.3,8.06,9.3,0,0,.48,.56,1.33,1.55,.83,1,1.97,2.47,3.36,4.21,1.38,1.75,2.98,3.8,4.7,5.99,.85,1.1,1.75,2.23,2.62,3.4,.85,1.19,1.72,2.4,2.59,3.6,3.44,4.85,6.95,9.65,9.29,13.45,2.41,3.76,4.01,6.26,4.01,6.26l-14.82,9.27Z" />
    <rect class="b" x="0" width="850.39" height="850.39" />
</svg>