<?xml version="1.0" encoding="UTF-8"?><svg id="a" xmlns="http://www.w3.org/2000/svg" viewBox="0 0 850.39 850.39"><defs><style>.b{fill:none;}.c{fill:#231f20;}</style></defs><path class="c" d="M770.18,91.44l.15,.29,.15-.29c9.6-20.49,38.03-28.27,38.03-50.28,0-19.64-27.42-27.32-38.18-7.51-10.76-19.81-38.17-12.14-38.17,7.51,0,22.01,28.43,29.79,38.03,50.28Zm-48.13,87.31c0,10.4,8.43,18.83,18.82,18.83,7.48,0,14.63-5.08,17.66-11.4,2.62-2.9,5.98-3.6,9.85-4.33,.37,5.33,.18,11.09-.62,14.45-3.81,10.94-13.42,23.99-18.57,28.41,6.98-6,35.28-6,42.26,0-5.14-4.42-15.44-18.17-18.56-28.41-.98-4.11-.87-11.76-.79-14.48,3.95,.74,7.36,1.41,10.02,4.36,3.03,6.32,10.18,11.4,17.66,11.4,10.4,0,18.82-8.43,18.82-18.83s-8.43-18.82-18.82-18.82c-7.48,0-13.93,4.38-16.96,10.7-2.38,2.84-6.07,4.07-9.79,4.88,.84-4.55,1.89-9.54,5.42-12.5,6.33-3.04,10.7-9.48,10.7-16.97,0-10.4-8.43-18.82-18.82-18.82s-18.82,8.43-18.82,18.82c0,7.48,4.38,13.93,10.7,16.97,3.06,2.24,4.43,7.75,5.39,12.5-3.71-.81-7.39-2.05-9.76-4.88-3.03-6.33-9.48-10.7-16.96-10.7-10.4,0-18.82,8.43-18.82,18.82Zm-181.81-24.59c-10.76-19.81-38.17-12.14-38.17,7.51,0,22.01,28.43,29.79,38.03,50.28l.15,.29,.15-.29c9.6-20.49,38.03-28.27,38.03-50.28,0-19.64-27.42-27.32-38.18-7.51Zm153.98,27.31c0-21.51-27.79-32.5-37.17-52.53l-.14-.28-.14,.28c-9.38,20.03-37.17,31.02-37.17,52.53,0,18,23.8,24.95,35.41,9.89,.25-.76-.02,4.79-.8,7.91-2.78,9.24-12.8,22.7-17.67,26.88,6.73-5.79,34.02-5.79,40.75,0-4.87-4.18-14.4-17.17-17.67-26.88-.67-2.69-1.07-5.4-1.25-8.12,11.33,16.33,35.85,8.69,35.85-9.68Zm-225.62-5.51c-7.6,0-41.78-34.18-41.78-41.78,0,7.6-34.18,41.78-41.78,41.78,7.6,0,41.78,34.19,41.78,41.78,0-7.6,34.18-41.78,41.78-41.78Zm-79.09-115c0,18,23.8,24.95,35.41,9.89,.25-.76-.02,4.79-.8,7.91-2.78,9.24-12.8,22.7-17.67,26.88,6.73-5.79,34.02-5.79,40.75,0-4.87-4.18-14.4-17.17-17.67-26.88-.67-2.69-1.07-5.4-1.25-8.12,11.33,16.33,35.85,8.69,35.85-9.68,0-16.3-15.96-26.57-27.77-39.3h-19.09c-11.81,12.73-27.77,22.99-27.77,39.3Zm225.62-5.51c7.6,0,41.78,34.19,41.78,41.78,0-7.6,34.18-41.78,41.78-41.78-5.96,0-28.3-21.05-37.63-33.79h-8.3c-9.34,12.73-31.67,33.79-37.63,33.79Zm-83.01-12.95c3.06,2.24,4.43,7.75,5.39,12.5-3.71-.81-7.39-2.05-9.77-4.88-3.03-6.33-9.48-10.7-16.96-10.7-10.4,0-18.82,8.43-18.82,18.82s8.43,18.83,18.82,18.83c7.48,0,14.63-5.08,17.66-11.4,2.62-2.9,5.98-3.6,9.85-4.33,.37,5.33,.18,11.09-.62,14.45-3.81,10.94-13.42,23.99-18.57,28.41,6.98-6,35.28-6,42.26,0-5.14-4.42-15.44-18.17-18.56-28.41-.98-4.11-.87-11.76-.79-14.48,3.95,.74,7.36,1.41,10.02,4.36,3.03,6.32,10.18,11.4,17.66,11.4,10.4,0,18.82-8.43,18.82-18.83s-8.43-18.82-18.82-18.82c-7.48,0-13.93,4.38-16.96,10.7-2.38,2.84-6.07,4.07-9.79,4.88,.84-4.55,1.89-9.54,5.42-12.5,6.33-3.04,10.7-9.48,10.7-16.97,0-1.33-.14-2.62-.4-3.87h-36.85c-.26,1.25-.4,2.54-.4,3.87,0,7.48,4.38,13.93,10.7,16.97Zm238.06,530.98l.15,.29,.15-.29c9.6-20.49,38.03-28.27,38.03-50.28,0-19.64-27.42-27.32-38.18-7.51-10.76-19.81-38.17-12.14-38.17,7.51,0,22.01,28.43,29.79,38.03,50.28Zm11.94,94.74c3.03,6.32,10.18,11.4,17.66,11.4,10.4,0,18.82-8.43,18.82-18.83s-8.43-18.82-18.82-18.82c-7.48,0-13.93,4.38-16.96,10.7-2.38,2.84-6.07,4.07-9.79,4.88,.84-4.56,1.89-9.54,5.42-12.5,6.33-3.04,10.7-9.48,10.7-16.97,0-10.4-8.43-18.82-18.82-18.82s-18.82,8.43-18.82,18.82c0,7.48,4.38,13.93,10.7,16.97,3.06,2.24,4.43,7.75,5.39,12.5-3.71-.81-7.39-2.05-9.76-4.88-3.03-6.33-9.48-10.7-16.96-10.7-10.4,0-18.82,8.43-18.82,18.82s8.43,18.83,18.82,18.83c7.48,0,14.63-5.08,17.66-11.4,2.62-2.9,5.98-3.6,9.85-4.33,.37,5.33,.18,11.09-.62,14.45-3.81,10.94-13.42,23.99-18.57,28.41,6.98-6,35.28-6,42.26,0-5.14-4.42-15.44-18.17-18.56-28.41-.98-4.11-.87-11.76-.79-14.48,3.95,.74,7.36,1.41,10.02,4.36Zm-87.9-4.7c0-21.51-27.79-32.5-37.17-52.53l-.14-.28-.14,.28c-9.38,20.03-37.17,31.02-37.17,52.53,0,18,23.8,24.95,35.41,9.89,.25-.77-.02,4.79-.8,7.91-2.78,9.24-12.8,22.7-17.67,26.88,6.73-5.79,34.02-5.79,40.75,0-4.87-4.18-14.4-17.17-17.67-26.88-.67-2.69-1.07-5.4-1.25-8.12,11.33,16.33,35.85,8.69,35.85-9.68Zm-153.98-27.31c-10.76-19.81-38.17-12.14-38.17,7.51,0,22.01,28.43,29.79,38.03,50.28l.15,.29,.15-.29c9.6-20.49,38.03-28.27,38.03-50.28,0-19.64-27.42-27.32-38.18-7.51Zm-113.42,63.58c0-7.6,34.18-41.78,41.78-41.78-7.6,0-41.78-34.18-41.78-41.78,0,7.6-34.18,41.78-41.78,41.78,7.6,0,41.78,34.18,41.78,41.78Zm37.31-156.78c0-21.51-27.79-32.5-37.17-52.53l-.14-.28-.14,.28c-9.38,20.03-37.17,31.02-37.17,52.53,0,18,23.8,24.95,35.41,9.89,.25-.76-.02,4.79-.8,7.91-2.78,9.24-12.8,22.7-17.67,26.88,6.73-5.79,34.02-5.79,40.75,0-4.87-4.18-14.4-17.17-17.67-26.88-.67-2.69-1.07-5.4-1.25-8.12,11.33,16.33,35.85,8.69,35.85-9.68Zm306.04-210.55l.15,.29,.15-.29c9.6-20.49,38.03-28.27,38.03-50.28,0-19.64-27.42-27.32-38.18-7.51-10.76-19.81-38.17-12.14-38.17,7.51,0,22.01,28.43,29.79,38.03,50.28Zm29.6,68.49c-7.48,0-13.93,4.38-16.96,10.7-2.38,2.84-6.07,4.07-9.79,4.88,.84-4.55,1.89-9.54,5.42-12.5,6.33-3.04,10.7-9.48,10.7-16.97,0-10.4-8.43-18.82-18.82-18.82s-18.82,8.43-18.82,18.82c0,7.48,4.38,13.93,10.7,16.97,3.06,2.24,4.43,7.75,5.39,12.5-3.71-.81-7.39-2.05-9.76-4.88-3.03-6.33-9.48-10.7-16.96-10.7-10.4,0-18.82,8.43-18.82,18.82s8.43,18.83,18.82,18.83c7.48,0,14.63-5.08,17.66-11.4,2.62-2.9,5.98-3.6,9.85-4.33,.37,5.33,.18,11.09-.62,14.45-3.81,10.94-13.42,23.99-18.57,28.41,6.98-6,35.28-6,42.26,0-5.14-4.42-15.44-18.17-18.56-28.41-.98-4.11-.87-11.76-.79-14.48,3.95,.74,7.36,1.41,10.02,4.36,3.03,6.32,10.18,11.4,17.66,11.4,10.4,0,18.82-8.43,18.82-18.83s-8.43-18.82-18.82-18.82Zm-259.69,52.02l.15,.29,.15-.29c9.6-20.49,38.03-28.27,38.03-50.28,0-19.64-27.42-27.32-38.18-7.51-10.76-19.81-38.17-12.14-38.17,7.51,0,22.01,28.43,29.79,38.03,50.28Zm48.43,87.31c0-10.4-8.43-18.82-18.82-18.82-7.48,0-13.93,4.38-16.96,10.7-2.38,2.84-6.07,4.07-9.79,4.88,.84-4.56,1.89-9.54,5.42-12.5,6.33-3.04,10.7-9.48,10.7-16.97,0-10.4-8.43-18.82-18.82-18.82s-18.82,8.43-18.82,18.82c0,7.48,4.38,13.93,10.7,16.97,3.06,2.24,4.43,7.75,5.39,12.5-3.71-.81-7.39-2.05-9.77-4.88-3.03-6.33-9.48-10.7-16.96-10.7-10.4,0-18.82,8.43-18.82,18.82s8.43,18.83,18.82,18.83c7.48,0,14.63-5.08,17.66-11.4,2.62-2.9,5.98-3.6,9.85-4.33,.37,5.33,.18,11.09-.62,14.45-3.81,10.94-13.42,23.99-18.57,28.41,6.98-6,35.28-6,42.26,0-5.14-4.42-15.44-18.17-18.56-28.41-.98-4.11-.87-11.76-.79-14.48,3.95,.74,7.36,1.41,10.02,4.36,3.03,6.32,10.18,11.4,17.66,11.4,10.4,0,18.82-8.43,18.82-18.83Zm105.7-117.79c0-21.51-27.79-32.5-37.17-52.53l-.14-.28-.14,.28c-9.38,20.03-37.17,31.02-37.17,52.53,0,18,23.8,24.95,35.41,9.89,.25-.76-.02,4.79-.8,7.91-2.78,9.24-12.8,22.7-17.67,26.88,6.73-5.79,34.02-5.79,40.75,0-4.87-4.18-14.4-17.17-17.67-26.88-.67-2.69-1.07-5.4-1.25-8.12,11.33,16.33,35.85,8.69,35.85-9.68Zm-37.31,73.22c0,7.6-34.18,41.78-41.78,41.78,7.6,0,41.78,34.18,41.78,41.78,0-7.6,34.18-41.78,41.78-41.78-7.6,0-41.78-34.18-41.78-41.78Zm-192.77-193.73c0-21.51-27.79-32.5-37.17-52.53l-.14-.28-.14,.28c-9.38,20.03-37.17,31.02-37.17,52.53,0,18,23.8,24.95,35.41,9.89,.25-.76-.02,4.79-.8,7.91-2.78,9.24-12.8,22.7-17.67,26.88,6.73-5.79,34.02-5.79,40.75,0-4.87-4.18-14.4-17.17-17.67-26.88-.67-2.69-1.07-5.4-1.25-8.12,11.33,16.33,35.85,8.69,35.85-9.68Zm-37.31,73.22c0,7.6-34.18,41.78-41.78,41.78,7.6,0,41.78,34.19,41.78,41.78,0-7.6,34.18-41.78,41.78-41.78-7.6,0-41.78-34.18-41.78-41.78Zm142.87-94.77c-7.48,0-13.93,4.38-16.96,10.7-2.38,2.84-6.07,4.07-9.79,4.88,.84-4.55,1.89-9.54,5.42-12.5,6.33-3.04,10.7-9.48,10.7-16.97,0-10.4-8.43-18.82-18.82-18.82s-18.82,8.43-18.82,18.82c0,7.48,4.38,13.93,10.7,16.97,3.06,2.24,4.43,7.75,5.39,12.5-3.71-.81-7.39-2.05-9.77-4.88-3.03-6.33-9.48-10.7-16.96-10.7-10.4,0-18.82,8.43-18.82,18.82s8.43,18.83,18.82,18.83c7.48,0,14.63-5.08,17.66-11.4,2.62-2.9,5.98-3.6,9.85-4.33,.37,5.33,.18,11.09-.62,14.45-3.81,10.94-13.42,23.99-18.57,28.41,6.98-6,35.28-6,42.26,0-5.14-4.42-15.44-18.17-18.56-28.41-.98-4.11-.87-11.76-.79-14.48,3.95,.74,7.36,1.41,10.02,4.36,3.03,6.32,10.18,11.4,17.66,11.4,10.4,0,18.82-8.43,18.82-18.83s-8.43-18.82-18.82-18.82Zm87.21-25.74c0,7.6-34.18,41.78-41.78,41.78,7.6,0,41.78,34.19,41.78,41.78,0-7.6,34.18-41.78,41.78-41.78-7.6,0-41.78-34.18-41.78-41.78Zm113.42,502.02c-10.76-19.81-38.17-12.14-38.17,7.51,0,22.01,28.43,29.79,38.03,50.28l.15,.29,.15-.29c9.6-20.49,38.03-28.27,38.03-50.28,0-19.64-27.42-27.32-38.18-7.51Zm-306.19,27.31c0-21.51-27.79-32.5-37.17-52.53l-.14-.28-.14,.28c-9.38,20.02-37.17,31.02-37.17,52.53,0,18,23.8,24.95,35.41,9.89,.25-.77-.02,4.79-.8,7.91-2.78,9.24-12.8,22.7-17.67,26.88,6.73-5.79,34.02-5.79,40.75,0-4.87-4.18-14.4-17.17-17.67-26.88-.67-2.69-1.07-5.4-1.25-8.12,11.33,16.33,35.85,8.69,35.85-9.68Zm192.77-47.29c0,7.6-34.18,41.78-41.78,41.78,7.6,0,41.78,34.19,41.78,41.78,0-7.6,34.18-41.78,41.78-41.78-7.6,0-41.78-34.18-41.78-41.78Zm-129.16,36.45c-3.03-6.33-9.48-10.7-16.96-10.7-10.4,0-18.82,8.43-18.82,18.82s8.43,18.83,18.82,18.83c7.48,0,14.63-5.08,17.66-11.4,2.62-2.9,5.98-3.6,9.85-4.33,.37,5.33,.18,11.09-.62,14.45-3.81,10.94-13.42,23.99-18.57,28.41,6.98-6,35.28-6,42.26,0-5.14-4.42-15.44-18.17-18.56-28.41-.98-4.11-.87-11.76-.79-14.48,3.95,.74,7.36,1.41,10.02,4.36,3.03,6.32,10.18,11.4,17.66,11.4,10.4,0,18.82-8.43,18.82-18.83s-8.43-18.82-18.82-18.82c-7.48,0-13.93,4.38-16.96,10.7-2.38,2.84-6.07,4.07-9.79,4.88,.84-4.56,1.89-9.54,5.42-12.5,6.33-3.04,10.7-9.48,10.7-16.97,0-10.4-8.43-18.82-18.82-18.82s-18.82,8.43-18.82,18.82c0,7.48,4.38,13.93,10.7,16.97,3.06,2.24,4.43,7.75,5.39,12.5-3.71-.81-7.39-2.05-9.77-4.88ZM310.01,91.44l.15,.29,.15-.29c9.6-20.49,38.03-28.27,38.03-50.28,0-19.64-27.42-27.32-38.18-7.51-10.76-19.81-38.17-12.14-38.17,7.51,0,22.01,28.43,29.79,38.03,50.28Zm-48.13,87.31c0,10.4,8.43,18.83,18.82,18.83,7.48,0,14.63-5.08,17.66-11.4,2.62-2.9,5.98-3.6,9.85-4.33,.37,5.33,.18,11.09-.62,14.45-3.81,10.94-13.42,23.99-18.57,28.41,6.98-6,35.28-6,42.26,0-5.14-4.42-15.44-18.17-18.56-28.41-.98-4.11-.87-11.76-.79-14.48,3.95,.74,7.36,1.41,10.02,4.36,3.03,6.32,10.18,11.4,17.66,11.4,10.4,0,18.82-8.43,18.82-18.83s-8.43-18.82-18.82-18.82c-7.48,0-13.93,4.38-16.96,10.7-2.38,2.84-6.07,4.07-9.79,4.88,.84-4.55,1.89-9.54,5.42-12.5,6.33-3.04,10.7-9.48,10.7-16.97,0-10.4-8.43-18.82-18.82-18.82s-18.82,8.43-18.82,18.82c0,7.48,4.38,13.93,10.7,16.97,3.06,2.24,4.43,7.75,5.39,12.5-3.71-.81-7.39-2.05-9.76-4.88-3.03-6.33-9.48-10.7-16.96-10.7-10.4,0-18.82,8.43-18.82,18.82Zm-27.83,2.73c0-21.51-27.79-32.5-37.17-52.53l-.14-.28-.14,.28c-9.38,20.03-37.17,31.02-37.17,52.53,0,18,23.8,24.95,35.41,9.89,.25-.76-.02,4.79-.8,7.91-2.78,9.24-12.8,22.7-17.67,26.88,6.73-5.79,34.02-5.79,40.75,0-4.87-4.18-14.4-17.17-17.67-26.88-.67-2.69-1.07-5.4-1.25-8.12,11.33,16.33,35.85,8.69,35.85-9.68Zm-153.98-27.31c-10.76-19.81-38.17-12.14-38.17,7.51,0,22.01,28.43,29.79,38.03,50.28l.15,.29,.15-.29c9.6-20.49,38.03-28.27,38.03-50.28,0-19.64-27.42-27.32-38.18-7.51Zm-8.12-111.66c3.06,2.24,4.43,7.75,5.39,12.5-3.71-.81-7.39-2.05-9.76-4.88-3.03-6.33-9.48-10.7-16.96-10.7-10.4,0-18.82,8.43-18.82,18.82s8.43,18.83,18.82,18.83c7.48,0,14.63-5.08,17.66-11.4,2.62-2.9,5.98-3.6,9.85-4.33,.37,5.33,.18,11.09-.62,14.45-3.81,10.94-13.42,23.99-18.57,28.41,6.98-6,35.28-6,42.26,0-5.14-4.42-15.44-18.17-18.56-28.41-.98-4.11-.87-11.76-.79-14.48,3.95,.74,7.36,1.41,10.02,4.36,3.03,6.32,10.18,11.4,17.66,11.4,10.4,0,18.82-8.43,18.82-18.83s-8.43-18.82-18.82-18.82c-7.48,0-13.93,4.38-16.96,10.7-2.38,2.84-6.07,4.07-9.79,4.88,.84-4.55,1.89-9.54,5.42-12.5,6.33-3.04,10.7-9.48,10.7-16.97,0-1.33-.14-2.62-.4-3.87H61.64c-.26,1.25-.4,2.54-.4,3.87,0,7.48,4.38,13.93,10.7,16.97Zm83.01,12.95c7.6,0,41.78,34.19,41.78,41.78,0-7.6,34.18-41.78,41.78-41.78-5.96,0-28.3-21.05-37.63-33.79h-8.3c-9.34,12.73-31.67,33.79-37.63,33.79Zm155.05,518.03l.15,.29,.15-.29c9.6-20.49,38.03-28.27,38.03-50.28,0-19.64-27.42-27.32-38.18-7.51-10.76-19.81-38.17-12.14-38.17,7.51,0,22.01,28.43,29.79,38.03,50.28Zm11.94,94.74c3.03,6.32,10.18,11.4,17.66,11.4,10.4,0,18.82-8.43,18.82-18.83s-8.43-18.82-18.82-18.82c-7.48,0-13.93,4.38-16.96,10.7-2.38,2.84-6.07,4.07-9.79,4.88,.84-4.56,1.89-9.54,5.42-12.5,6.33-3.04,10.7-9.48,10.7-16.97,0-10.4-8.43-18.82-18.82-18.82s-18.82,8.43-18.82,18.82c0,7.48,4.38,13.93,10.7,16.97,3.06,2.24,4.43,7.75,5.39,12.5-3.71-.81-7.39-2.05-9.76-4.88-3.03-6.33-9.48-10.7-16.96-10.7-10.4,0-18.82,8.43-18.82,18.82s8.43,18.83,18.82,18.83c7.48,0,14.63-5.08,17.66-11.4,2.62-2.9,5.98-3.6,9.85-4.33,.37,5.33,.18,11.09-.62,14.45-3.81,10.94-13.42,23.99-18.57,28.41,6.98-6,35.28-6,42.26,0-5.14-4.42-15.44-18.17-18.56-28.41-.98-4.11-.87-11.76-.79-14.48,3.95,.74,7.36,1.41,10.02,4.36Zm-241.88-32.01c-10.76-19.81-38.17-12.14-38.17,7.51,0,22.01,28.43,29.79,38.03,50.28l.15,.29,.15-.29c9.6-20.49,38.03-28.27,38.03-50.28,0-19.64-27.42-27.32-38.18-7.51Zm153.98,27.31c0-21.51-27.79-32.5-37.17-52.53l-.14-.28-.14,.28c-9.38,20.03-37.17,31.02-37.17,52.53,0,18,23.8,24.95,35.41,9.89,.25-.77-.02,4.79-.8,7.91-2.78,9.24-12.8,22.7-17.67,26.88,6.73-5.79,34.02-5.79,40.75,0-4.87-4.18-14.4-17.17-17.67-26.88-.67-2.69-1.07-5.4-1.25-8.12,11.33,16.33,35.85,8.69,35.85-9.68Zm105.56-262.57c-7.48,0-13.93,4.38-16.96,10.7-2.38,2.84-6.07,4.07-9.79,4.88,.84-4.55,1.89-9.54,5.42-12.5,6.33-3.04,10.7-9.48,10.7-16.97,0-10.4-8.43-18.82-18.82-18.82s-18.82,8.43-18.82,18.82c0,7.48,4.38,13.93,10.7,16.97,3.06,2.24,4.43,7.75,5.39,12.5-3.71-.81-7.39-2.05-9.76-4.88-3.03-6.33-9.48-10.7-16.96-10.7-10.4,0-18.82,8.43-18.82,18.82s8.43,18.83,18.82,18.83c7.48,0,14.63-5.08,17.66-11.4,2.62-2.9,5.98-3.6,9.85-4.33,.37,5.33,.18,11.09-.62,14.45-3.81,10.94-13.42,23.99-18.57,28.41,6.98-6,35.28-6,42.26,0-5.14-4.42-15.44-18.17-18.56-28.41-.98-4.11-.87-11.76-.79-14.48,3.95,.74,7.36,1.41,10.02,4.36,3.03,6.32,10.18,11.4,17.66,11.4,10.4,0,18.82-8.43,18.82-18.83s-8.43-18.82-18.82-18.82Zm-29.61-68.49l.15,.29,.15-.29c9.6-20.49,38.03-28.27,38.03-50.28,0-19.64-27.42-27.32-38.18-7.51-10.76-19.81-38.17-12.14-38.17,7.51,0,22.01,28.43,29.79,38.03,50.28Zm-75.96,90.04c0-21.51-27.79-32.5-37.17-52.53l-.14-.28-.14,.28c-9.38,20.03-37.17,31.02-37.17,52.53,0,18,23.8,24.95,35.41,9.89,.25-.76-.02,4.79-.8,7.91-2.78,9.24-12.8,22.7-17.67,26.88,6.73-5.79,34.02-5.79,40.75,0-4.87-4.18-14.4-17.17-17.67-26.88-.67-2.69-1.07-5.4-1.25-8.12,11.33,16.33,35.85,8.69,35.85-9.68Zm-154.13,30.47l.15,.29,.15-.29c9.6-20.49,38.03-28.27,38.03-50.28,0-19.64-27.42-27.32-38.18-7.51-10.76-19.81-38.17-12.14-38.17,7.51,0,22.01,28.43,29.79,38.03,50.28Zm116.82,42.75c0,7.6-34.18,41.78-41.78,41.78,7.6,0,41.78,34.18,41.78,41.78,0-7.6,34.18-41.78,41.78-41.78-7.6,0-41.78-34.18-41.78-41.78Zm-68.39,44.56c0-10.4-8.43-18.82-18.82-18.82-7.48,0-13.93,4.38-16.96,10.7-2.38,2.84-6.07,4.07-9.79,4.88,.84-4.56,1.89-9.54,5.42-12.5,6.33-3.04,10.7-9.48,10.7-16.97,0-10.4-8.43-18.82-18.82-18.82s-18.82,8.43-18.82,18.82c0,7.48,4.38,13.93,10.7,16.97,3.06,2.24,4.43,7.75,5.39,12.5-3.71-.81-7.39-2.05-9.76-4.88-3.03-6.33-9.48-10.7-16.96-10.7-10.4,0-18.82,8.43-18.82,18.82s8.43,18.83,18.82,18.83c7.48,0,14.63-5.08,17.66-11.4,2.62-2.9,5.98-3.6,9.85-4.33,.37,5.33,.18,11.09-.62,14.45-3.81,10.94-13.42,23.99-18.57,28.41,6.98-6,35.28-6,42.26,0-5.14-4.42-15.44-18.17-18.56-28.41-.98-4.11-.87-11.76-.79-14.48,3.95,.74,7.36,1.41,10.02,4.36,3.03,6.32,10.18,11.4,17.66,11.4,10.4,0,18.82-8.43,18.82-18.83ZM196.74,254.7c0,7.6-34.18,41.78-41.78,41.78,7.6,0,41.78,34.19,41.78,41.78,0-7.6,34.18-41.78,41.78-41.78-7.6,0-41.78-34.18-41.78-41.78Zm-87.21,25.74c-7.48,0-13.93,4.38-16.96,10.7-2.38,2.84-6.07,4.07-9.79,4.88,.84-4.55,1.89-9.54,5.42-12.5,6.33-3.04,10.7-9.48,10.7-16.97,0-10.4-8.43-18.82-18.82-18.82s-18.82,8.43-18.82,18.82c0,7.48,4.38,13.93,10.7,16.97,3.06,2.24,4.43,7.75,5.39,12.5-3.71-.81-7.39-2.05-9.76-4.88-3.03-6.33-9.48-10.7-16.96-10.7-10.4,0-18.82,8.43-18.82,18.82s8.43,18.83,18.82,18.83c7.48,0,14.63-5.08,17.66-11.4,2.62-2.9,5.98-3.6,9.85-4.33,.37,5.33,.18,11.09-.62,14.45-3.81,10.94-13.42,23.99-18.57,28.41,6.98-6,35.28-6,42.26,0-5.14-4.42-15.44-18.17-18.56-28.41-.98-4.11-.87-11.76-.79-14.48,3.95,.74,7.36,1.41,10.02,4.36,3.03,6.32,10.18,11.4,17.66,11.4,10.4,0,18.82-8.43,18.82-18.83s-8.43-18.82-18.82-18.82Zm200.63,476.28c-10.76-19.81-38.17-12.14-38.17,7.51,0,22.01,28.43,29.79,38.03,50.28l.15,.29,.15-.29c9.6-20.49,38.03-28.27,38.03-50.28,0-19.64-27.42-27.32-38.18-7.51Zm-242.58,16.47c-3.03-6.33-9.48-10.7-16.96-10.7-10.4,0-18.82,8.43-18.82,18.82s8.43,18.83,18.82,18.83c7.48,0,14.63-5.08,17.66-11.4,2.62-2.9,5.98-3.6,9.85-4.33,.37,5.33,.18,11.09-.62,14.45-3.81,10.94-13.42,23.99-18.57,28.41,6.98-6,35.28-6,42.26,0-5.14-4.42-15.44-18.17-18.56-28.41-.98-4.11-.87-11.76-.79-14.48,3.95,.74,7.36,1.41,10.02,4.36,3.03,6.32,10.18,11.4,17.66,11.4,10.4,0,18.82-8.43,18.82-18.83s-8.43-18.82-18.82-18.82c-7.48,0-13.93,4.38-16.96,10.7-2.38,2.84-6.07,4.07-9.79,4.88,.84-4.56,1.89-9.54,5.42-12.5,6.33-3.04,10.7-9.48,10.7-16.97,0-10.4-8.43-18.82-18.82-18.82s-18.82,8.43-18.82,18.82c0,7.48,4.38,13.93,10.7,16.97,3.06,2.24,4.43,7.75,5.39,12.5-3.71-.81-7.39-2.05-9.76-4.88Zm129.16-36.45c0,7.6-34.18,41.78-41.78,41.78,7.6,0,41.78,34.19,41.78,41.78,0-7.6,34.18-41.78,41.78-41.78-7.6,0-41.78-34.18-41.78-41.78Z"/><rect class="b" x="0" y="0" width="850.39" height="850.39"/></svg>