<?xml version="1.0" encoding="UTF-8"?><svg id="a" xmlns="http://www.w3.org/2000/svg" viewBox="0 0 850.39 850.39"><defs><style>.b{fill:none;}</style></defs><path d="M701.89,626.34c-11.44,15.72-25.26,29.12-40.05,39.46-3.73,2.55-7.49,4.96-11.25,7.2-3.84,2.16-7.7,4.15-11.54,5.98-3.8,1.88-7.77,3.37-11.62,4.81-3.87,1.41-7.69,2.69-11.58,3.64-2.16,3.33-4.5,6.65-7,9.96-2.57,3.21-5.31,6.39-8.21,9.54-2.86,3.2-6.04,6.13-9.3,9.1-1.64,1.48-3.31,2.94-5.02,4.39-1.72,1.44-3.51,2.78-5.32,4.15-1.81,1.36-3.66,2.7-5.53,4.02-.94,.65-1.89,1.31-2.84,1.97-.96,.64-1.95,1.24-2.93,1.86-3.95,2.44-8,4.81-12.19,7.04-4.23,2.13-8.57,4.16-12.99,6.07-4.43,1.89-9.03,3.48-13.65,5.04l-14.28-43.98c3.31-1.11,6.53-2.34,9.65-3.68,3.09-1.41,6.06-2.99,8.95-4.62,1.44-.82,2.86-1.66,4.25-2.52,1.37-.9,2.71-1.84,4.03-2.78,2.64-1.89,5.17-3.83,7.61-5.82-4-1.26-7.83-2.73-11.47-4.38-3.64-1.66-7.08-3.45-10.39-5.58-6.6-4.18-12.41-9.01-17.48-14.47-10.22-11.08-17.31-24.37-22.09-39.12-4.85-14.99-7.06-30.34-8.24-44.82-.62-7.35-.98-14.51-1.18-21.32-.08-3.16-.17-6.54-.27-10.13-.03-3.03-.07-6.23-.1-9.6-1.64-.2-3.25-.41-4.76-.43-.76-.02-1.5,0-2.23,.04-.73,.04-1.48,.02-2.2,.08-1.45,.1-2.85,.33-4.23,.67-1.42,.24-2.81,.6-4.2,1.08l-13.79-42.48c.98-.38,2.04-.53,3.08-.74,1.03-.23,2.11-.34,3.24-.33,1.09-.09,2.23-.11,3.44,0,.3,.02,.61,.07,.91,.09,.3,.01,.6,.03,.9,.05,.61,.05,1.24,.12,1.88,.23,.64,.09,1.32,.25,1.98,.36,.65,.09,1.32,.21,2.01,.35,1.37,.26,2.87,.71,4.31,1.01,1.47,.35,3.02,.79,4.65,1.3,1.57,.41,3.22,.9,4.95,1.46l.09-5.2c.03-1.69,.2-3.18,.25-4.79,.08-1.56,.22-3.02,.42-4.39,.12-1.46,.3-2.81,.56-4.06,.9-5.17,2.41-9.32,4.95-12.79,.3-.44,.63-.87,.99-1.27,.35-.4,.77-.77,1.1-1.19,.71-.81,1.54-1.53,2.46-2.2,.82-.74,1.75-1.41,2.81-2.03,.55-.3,1.01-.65,1.54-.96,.53-.32,1.08-.62,1.66-.91,1.22-.57,2.35-1.19,3.63-1.76,1.28-.57,2.72-1.1,4.07-1.68,1.39-.57,2.93-1.1,4.52-1.65,1.51-.57,3.13-1.13,4.85-1.67-.98-1.38-1.98-2.78-3-4.22-.47-.68-.92-1.35-1.34-2.01l-.62-.98-.67-.98c-.86-1.3-1.62-2.54-2.26-3.74-.74-1.23-1.42-2.42-1.96-3.57-2.33-4.65-3.53-8.86-3.47-13.29h44.66l-.02,.59c-.14,2.84,.34,5.71,.81,8.54,.14,.71,.31,1.42,.51,2.13,.2,.71,.45,1.43,.62,2.12,.4,1.41,.91,2.82,1.54,4.23,3.02-.98,6.16-1.96,9.38-2.95,3.46-1.06,6.7-2.05,9.73-2.98,6.62-1.97,13.63-3.88,20.67-5.61,14.2-3.42,29.52-6.06,45.53-6.08,15.5-.01,30.42,2.76,44.18,9.2,3.42,1.61,6.85,3.44,10.03,5.49,3.2,2.06,6.31,4.35,9.31,6.86,2.98,2.52,5.93,5.27,8.63,8.24,2.67,2.97,5.22,6.17,7.63,9.58,1.17-2.93,2.24-5.95,3.21-9.02,.88-3.08,1.6-6.23,2.24-9.42,.32-1.6,.61-3.2,.87-4.82,.27-1.61,.4-3.23,.56-4.86,.29-3.25,.47-6.53,.53-9.81l.03-1.44h46.24c-.05,19.32-3.32,38.3-9.2,55.42-5.78,17.16-14.51,32.37-24.52,44.75,.2,3.97,.25,8.05,.16,12.2-.17,4.12-.55,8.31-1.05,12.57-.46,4.28-1.27,8.53-2.19,12.85-.93,4.31-1.96,8.69-3.36,12.99-.67,2.16-1.38,4.33-2.13,6.5-.76,2.16-1.5,4.36-2.41,6.49-1.76,4.28-3.68,8.56-5.73,12.83-2.16,4.2-4.49,8.36-6.94,12.5-1.2,2.08-2.55,4.08-3.89,6.08-1.35,2-2.74,3.99-4.15,5.97Zm-66.59,.32c10.81-6.57,20.48-15.78,28.34-26.33,2.14-2.97,4.12-5.94,5.96-8.92,1.8-3,3.35-6.08,4.82-9.14,.73-1.53,1.42-3.07,2.07-4.62,.61-1.58,1.18-3.16,1.71-4.75,1.06-3.18,2.02-6.38,2.77-9.65-3.95,1.34-7.94,2.37-11.84,3.17-3.94,.78-7.74,1.36-11.67,1.57-7.79,.47-15.35-.05-22.63-1.48-14.77-2.98-28.32-9.58-40.85-18.71-12.73-9.28-23.51-20.4-32.99-31.45-4.81-5.59-9.3-11.18-13.44-16.57-2.1-2.71-4.2-5.43-6.16-8.06-1.8-2.44-3.71-5.01-5.72-7.73-.7,.4-1.41,.81-2.13,1.22-.7,.41-1.37,.84-2,1.28-1.27,.89-2.4,1.87-3.59,2.83-1.16,.98-2.18,2.06-3.16,3.19-1.06,1.09-2.02,2.27-2.91,3.55l-.59,.88c-.21,.28-.42,.57-.62,.86-.4,.58-.78,1.18-1.14,1.79-.36,.62-.69,1.25-1,1.9-.3,.66-.67,1.26-.97,1.92-.62,1.3-1.14,2.67-1.58,4.11-.51,1.37-.94,2.8-1.28,4.31,3.03,1,6.15,2.05,9.35,3.16,3.13,1.05,6.33,2.15,9.6,3.31,3.25,1.15,6.62,2.42,9.93,3.66,3.31,1.25,6.67,2.57,10.05,3.98,6.75,2.8,13.67,5.98,20.41,9.54,6.75,3.57,13.46,7.62,19.93,12.33,6.27,4.56,12.04,9.6,17.16,15.19,5.14,5.59,9.51,11.65,13.17,18.29,3.64,6.63,6.54,13.85,8.35,21.4,.93,3.79,1.64,7.71,2.11,11.74,.45,4.01,.59,8.05,.53,12.22Zm-122.41-79.41c.73,8.96,2.06,18.42,4.6,28.3,2.52,9.8,6.11,19.77,11.65,29.34,5.51,9.53,12.53,17.72,21.09,23.85,8.49,6.07,18.69,10.33,29.91,11.86,.57-2.85,1.03-5.59,1.22-8.43,.2-2.81,.24-5.58,.11-8.3-.26-5.45-1.13-10.63-2.71-15.74-3.11-10.15-8.61-19.3-15.93-27.55-7.32-8.25-15.73-14.88-24.25-20.27-4.23-2.66-8.62-5.16-12.92-7.31-2.15-1.08-4.29-2.09-6.4-3.03-2.1-.92-4.27-1.89-6.36-2.73Zm164.29-38.82c-2.31-5.26-5.36-10.08-8.75-14.34-3.42-4.26-7.15-7.95-11.44-11.14-8.49-6.38-18.32-10.55-29.1-12.91-10.78-2.37-21.47-2.78-31.52-2.15-4.98,.34-10.01,.88-14.75,1.66-4.76,.77-9.24,1.75-13.7,2.81,1.44,1.7,2.95,3.4,4.54,5.11l2.44,2.57c.8,.85,1.62,1.69,2.45,2.53,3.35,3.37,6.99,6.73,10.91,9.97,3.95,3.25,8.03,6.33,12.47,9.19,4.43,2.86,9.15,5.48,14.19,7.73,5.04,2.24,10.16,3.99,15.35,5.18,5.18,1.18,10.49,1.82,15.7,1.77,5.24-.03,10.51-.69,15.78-2,1.32-.33,2.63-.69,3.95-1.1,1.29-.42,2.57-.88,3.85-1.38,2.56-1,5.1-2.17,7.62-3.51Zm-357.68,242.16c-4.62-1.57-9.21-3.15-13.65-5.04-4.42-1.92-8.76-3.94-12.99-6.07-4.18-2.23-8.24-4.61-12.19-7.04-.98-.62-1.97-1.22-2.93-1.86-.95-.66-1.9-1.31-2.84-1.97-1.88-1.32-3.72-2.66-5.53-4.02-1.81-1.37-3.6-2.71-5.32-4.15-1.71-1.45-3.38-2.91-5.02-4.39-3.26-2.97-6.43-5.9-9.29-9.1-2.89-3.15-5.63-6.33-8.2-9.54-2.5-3.3-4.83-6.63-6.99-9.95-3.89-.95-7.71-2.23-11.59-3.64-3.85-1.44-7.83-2.93-11.63-4.81-3.84-1.84-7.7-3.83-11.54-5.98-3.76-2.25-7.52-4.65-11.25-7.2-14.79-10.35-28.61-23.75-40.05-39.46l37.39-27.21c1.99,2.86,4.22,5.46,6.5,7.97,1.14,1.25,2.3,2.48,3.47,3.67,1.16,1.2,2.36,2.35,3.62,3.43,2.48,2.19,5.01,4.26,7.57,6.21,1.27,.99,2.58,1.91,3.92,2.79,1.33,.89,2.67,1.74,4,2.58-.05-4.17,.08-8.17,.58-12.18,.49-4,1.21-7.87,2.14-11.62,1.83-7.46,4.77-14.58,8.4-21.1,7.24-13.03,17.78-23.97,30.32-33.08,6.37-4.63,13.02-8.64,19.75-12.2,6.72-3.55,13.62-6.73,20.36-9.55,3.38-1.41,6.73-2.75,10.03-4,3.29-1.25,6.65-2.52,9.87-3.68,3.24-1.17,6.42-2.27,9.5-3.31,3.14-1.08,6.22-2.14,9.19-3.1-1.31-6.5-3.37-11.63-6.93-16.39l36.11-26.28c2.54,3.47,4.06,7.61,4.96,12.79,.26,1.26,.44,2.61,.56,4.07,.2,1.37,.34,2.82,.42,4.39,.05,1.61,.21,3.1,.25,4.79,.03,1.77,.06,3.51,.1,5.2,1.73-.56,3.38-1.05,4.94-1.46,1.63-.51,3.18-.95,4.65-1.3,1.44-.3,2.94-.75,4.31-1.01,.69-.14,1.36-.26,2.01-.35,.66-.11,1.34-.27,1.98-.36,.64-.1,1.27-.18,1.88-.23,.3-.02,.6-.04,.9-.05,.3-.02,.61-.07,.91-.09,1.21-.12,2.34-.1,3.44,0,1.14-.01,2.21,.09,3.24,.33,1.04,.21,2.1,.35,3.08,.74,4.02,1.28,7.57,3.71,11.29,7.38,3.72,3.61,7.63,8.24,11.99,14.16,4.36-5.92,8.27-10.55,11.99-14.16,3.71-3.67,7.27-6.11,11.28-7.38l13.79,42.48-.55,.19c-.65,.26-1.32,.46-1.99,.68-.66,.23-1.31,.49-1.96,.78-1.29,.58-2.53,1.29-3.8,1.92-1.25,.68-2.47,1.47-3.66,2.38-1.2,.85-2.4,1.71-3.54,2.73,2,2.84,3.89,5.53,5.68,8.07,1.91,2.69,3.84,5.47,5.79,8.34,1.95,2.85,3.93,5.87,5.86,8.81,1.94,2.96,3.88,6,5.78,9.13,3.81,6.24,7.53,12.86,10.9,19.72,3.36,6.85,6.41,14.07,8.89,21.68,2.39,7.37,4.1,14.84,4.97,22.38,.87,7.53,.86,15.01-.1,22.53-.96,7.5-2.86,15.06-5.84,22.23-1.48,3.62-3.22,7.2-5.22,10.74-1.99,3.55-4.27,6.86-6.79,10.2,12.64,1.05,25.94-.72,38.53-4.66l1.38-.46,14.28,43.98c-18.58,6.02-37.73,8.75-55.82,8.43-18.12-.35-35.13-3.92-49.87-9.57-14.72,5.64-31.73,9.22-49.86,9.57-18.1,.32-37.25-2.41-55.83-8.43Zm-21.07-63.24c2.42,2.03,4.99,3.92,7.63,5.77,1.32,.92,2.67,1.82,4.04,2.7,1.37,.87,2.8,1.64,4.23,2.43,2.86,1.56,5.8,3.03,8.8,4.4,3.02,1.29,6.12,2.43,9.25,3.49,1.74,.58,3.47,1.14,5.19,1.64,1.74,.45,3.46,.87,5.17,1.25,3.43,.75,6.8,1.44,10.19,1.82,6.78,.71,13.43,.99,20.15,.23-5.03-6.55-8.94-13.69-11.84-20.85-2.92-7.1-4.73-14.61-5.63-22.01-.89-7.44-.84-14.83,.06-22.3,.91-7.47,2.63-14.9,5.03-22.27,2.43-7.49,5.46-14.65,8.81-21.47,3.35-6.83,7.07-13.45,10.86-19.7,1.9-3.13,3.82-6.18,5.75-9.14,1.92-2.93,3.88-5.95,5.81-8.79,1.93-2.86,3.84-5.62,5.72-8.28,1.76-2.5,3.62-5.14,5.57-7.92-4.85-4.48-9.78-7.43-15.67-9.33-5.35-1.64-10.99-2.48-17.1-1.86-.04,3.44-.08,6.71-.11,9.78-.09,3.64-.17,7.05-.25,10.24-.18,6.85-.51,14.02-1.11,21.38-1.15,14.5-3.35,29.84-8.28,45.08-4.77,14.75-12.03,28.12-22.47,39.26-5.17,5.46-11.1,10.34-17.79,14.53-.84,.52-1.68,1.04-2.54,1.54-.85,.48-1.71,.95-2.59,1.41-1.75,.92-3.54,1.79-5.37,2.61-3.67,1.64-7.53,3.12-11.53,4.35Zm37.85-140.95c-2.1,.89-4.15,1.75-6.26,2.7-2.1,.95-4.23,1.97-6.37,3.06-2.14,1.08-4.32,2.27-6.45,3.47-2.13,1.19-4.27,2.46-6.41,3.8-8.53,5.38-16.99,11.96-24.37,20.16-7.38,8.2-12.93,17.3-16.16,27.35-.81,2.51-1.47,5.08-1.99,7.7-.51,2.62-.82,5.23-1.01,7.91-.18,2.68-.2,5.41-.06,8.17,.14,2.76,.41,5.6,.93,8.35,5.8-.7,11.22-1.95,16.31-3.86,5.13-1.96,9.86-4.47,14.18-7.47,8.62-5.96,15.73-14.15,21.31-23.63,5.61-9.54,9.24-19.43,11.83-29.31,1.28-4.92,2.25-9.78,2.96-14.49,.74-4.77,1.29-9.48,1.57-13.93Zm87.62,144.16c4.27-3.91,7.9-8.28,10.89-12.77,2.99-4.46,5.33-9.35,7.06-14.35,3.46-10.01,4.41-20.62,3.35-31.6-1.06-10.98-3.95-21.31-7.65-30.71-1.86-4.7-3.92-9.12-6.13-13.49-2.21-4.34-4.54-8.31-6.96-12.14-2.36,3.74-4.66,7.79-6.85,12.11-2.19,4.29-4.25,8.69-6.11,13.41-3.72,9.4-6.69,19.73-7.82,30.68-1.14,11-.27,21.59,3.04,31.6,1.65,4.97,3.9,9.89,6.77,14.43,2.87,4.51,6.35,8.81,10.42,12.83ZM83.09,425.21c.05-19.32,3.32-38.3,9.2-55.43,5.78-17.17,14.51-32.38,24.52-44.74-.2-3.98-.25-8.05-.16-12.21,.18-4.13,.55-8.31,1.05-12.58,.46-4.28,1.27-8.54,2.19-12.85,.93-4.31,1.96-8.69,3.36-12.99,.67-2.16,1.38-4.33,2.13-6.5,.76-2.16,1.5-4.36,2.41-6.49,1.76-4.28,3.68-8.56,5.73-12.83,2.16-4.2,4.49-8.36,6.94-12.5,1.2-2.08,2.55-4.08,3.89-6.08,1.35-2,2.74-3.99,4.15-5.97l37.39,27.21c-2.02,2.83-3.9,5.7-5.64,8.61-1.65,2.97-3.15,5.97-4.52,8.98-.68,1.51-1.36,3-1.95,4.53-.58,1.54-1.12,3.07-1.64,4.61-1.02,3.07-1.97,6.12-2.74,9.17,3.95-1.34,7.94-2.38,11.85-3.18,3.94-.78,7.74-1.36,11.67-1.58,7.79-.48,15.35,.05,22.64,1.48,14.77,2.98,28.32,9.58,40.85,18.71,12.73,9.28,23.51,20.4,32.98,31.45,4.81,5.59,9.3,11.18,13.44,16.57,2.1,2.71,4.2,5.43,6.16,8.06,1.8,2.44,3.71,5.01,5.72,7.73,.69-.42,1.42-.81,2.12-1.21,.69-.4,1.35-.82,1.98-1.25,1.26-.86,2.35-1.8,3.52-2.71,1.12-.93,2.13-1.94,3.05-3.04,1-1.04,1.94-2.15,2.79-3.37l36.11,26.28c-.3,.44-.63,.87-.99,1.27-.35,.4-.77,.77-1.1,1.19-.71,.81-1.54,1.53-2.46,2.2-.82,.74-1.75,1.41-2.81,2.03-.55,.3-1.01,.65-1.54,.96-.53,.32-1.08,.62-1.66,.92-1.22,.57-2.35,1.19-3.63,1.76-1.28,.57-2.72,1.1-4.07,1.68-1.39,.57-2.93,1.1-4.52,1.65-1.51,.57-3.13,1.13-4.86,1.68,.98,1.38,1.98,2.78,3,4.22,.47,.68,.92,1.35,1.34,2.01l.62,.98,.67,.98c.86,1.29,1.62,2.54,2.26,3.74,.74,1.23,1.42,2.42,1.96,3.57,2.33,4.65,3.53,8.86,3.47,13.29,.07,4.43-1.13,8.65-3.47,13.3-2.41,4.66-5.57,9.67-9.84,15.5,1.73,.55,3.35,1.1,4.85,1.68,1.59,.54,3.13,1.08,4.52,1.65,1.35,.59,2.79,1.11,4.07,1.68,1.29,.57,2.41,1.19,3.63,1.76,.58,.29,1.14,.6,1.66,.91,.54,.31,.99,.66,1.54,.96,1.05,.62,1.99,1.29,2.81,2.02,.92,.68,1.76,1.4,2.46,2.2,.33,.42,.74,.78,1.1,1.19,.36,.4,.69,.82,.99,1.27l-36.11,26.28-.34-.48c-3.39-4.52-7.5-8.51-12.8-11.62-2.05,2.77-4,5.4-5.83,7.87-1.99,2.67-4.09,5.41-6.21,8.16-4.15,5.45-8.62,11.06-13.42,16.66-9.45,11.09-20.23,22.2-33.18,31.64-12.52,9.13-26.27,15.7-41.22,18.6-7.39,1.4-15.05,1.87-22.92,1.35-3.93-.26-7.79-.85-11.75-1.65-3.93-.82-7.96-1.86-11.87-3.24,3.13,12.22,8.61,24.47,16.41,35.08l.84,1.18-37.39,27.21c-1.42-1.97-2.8-3.96-4.15-5.97-1.35-2-2.69-4-3.89-6.08-2.45-4.13-4.78-8.3-6.93-12.49-2.06-4.26-3.97-8.55-5.73-12.83-.91-2.12-1.65-4.32-2.41-6.48-.75-2.17-1.46-4.34-2.13-6.5-1.4-4.3-2.43-8.67-3.36-12.99-.92-4.32-1.74-8.57-2.19-12.85-.5-4.26-.88-8.45-1.05-12.57-.09-4.16-.04-8.23,.16-12.21-10.01-12.37-18.74-27.57-24.52-44.74-5.88-17.13-9.15-36.11-9.2-55.43Zm53.67-39.4c-1.17,2.93-2.24,5.94-3.21,9.02-.89,3.08-1.6,6.23-2.24,9.42-.32,1.6-.61,3.2-.87,4.82-.27,1.61-.4,3.23-.56,4.86-.29,3.25-.47,6.53-.53,9.81-.04,3.65,.21,7.2,.48,10.67,.15,1.74,.33,3.45,.54,5.15,.22,1.7,.56,3.38,.88,5.04,.67,3.33,1.47,6.58,2.4,9.78,1,3.2,2.22,6.33,3.53,9.42,2.41-3.4,4.95-6.57,7.62-9.51,2.74-2.94,5.64-5.65,8.61-8.12,2.98-2.47,6.07-4.72,9.24-6.73,3.19-2.01,6.57-3.79,9.96-5.36,13.64-6.26,28.43-8.9,43.93-8.89,15.75,.01,31.07,2.66,45.27,6.04,3.57,.85,6.97,1.76,10.47,2.68,3.47,.92,6.86,1.88,10.15,2.85,3.32,.96,6.44,1.96,9.64,2.92,3.19,.97,6.27,1.93,9.23,2.89,.74-1.51,1.34-2.99,1.8-4.45,.53-1.48,1.01-2.95,1.31-4.43,.15-.74,.27-1.48,.36-2.22,.15-.75,.27-1.5,.36-2.26,.2-1.52,.17-3.05,.2-4.63,.14-2.84-.34-5.71-.81-8.53-.14-.71-.31-1.42-.51-2.13-.2-.71-.45-1.42-.62-2.12-.4-1.41-.91-2.81-1.54-4.22-3.02,.98-6.16,1.96-9.38,2.95-3.46,1.06-6.7,2.05-9.73,2.97-6.62,1.97-13.63,3.88-20.67,5.61-14.2,3.42-29.52,6.07-45.53,6.09-15.5,.02-30.42-2.76-44.18-9.2-3.42-1.61-6.85-3.44-10.03-5.5-3.2-2.06-6.31-4.35-9.31-6.87-2.98-2.52-5.93-5.27-8.63-8.24-2.67-2.97-5.22-6.17-7.63-9.58Zm145.69-7.78c-1.44-1.69-2.95-3.4-4.54-5.11-.84-.88-1.65-1.74-2.44-2.57-.8-.84-1.62-1.69-2.46-2.53-3.35-3.37-6.99-6.73-10.91-9.97-3.95-3.25-8.03-6.33-12.47-9.2-4.43-2.86-9.15-5.49-14.19-7.73-5.04-2.24-10.16-3.99-15.36-5.17-5.19-1.18-10.49-1.81-15.71-1.77-5.24,.03-10.51,.69-15.78,2-1.32,.33-2.63,.69-3.95,1.1-1.29,.42-2.57,.88-3.84,1.38-2.56,1-5.1,2.17-7.62,3.5,2.31,5.26,5.35,10.08,8.75,14.34,3.41,4.26,7.15,7.95,11.44,11.15,8.49,6.38,18.32,10.56,29.09,12.92,10.78,2.36,21.47,2.78,31.52,2.14,4.98-.34,10.02-.89,14.75-1.66,4.76-.77,9.24-1.75,13.7-2.81Zm-110.08,127.94c5.11,2.85,10.26,5.02,15.47,6.47,5.31,1.42,10.61,2.17,15.88,2.27,10.49,.23,21.01-2.22,31.11-6.63,10.12-4.42,18.91-10.32,26.79-16.79,3.92-3.23,7.56-6.59,10.89-9.98,3.43-3.43,6.62-6.9,9.46-10.34-2.23-.51-4.37-1.02-6.64-1.48-2.26-.46-4.58-.88-6.95-1.26-2.37-.38-4.82-.7-7.26-.98-2.42-.29-4.9-.52-7.41-.68-10.06-.66-20.77-.31-31.56,1.98-10.79,2.29-20.64,6.38-29.17,12.61-2.13,1.56-4.18,3.25-6.14,5.07-1.94,1.82-3.74,3.75-5.46,5.82-1.72,2.07-3.34,4.27-4.85,6.59-1.5,2.32-2.96,4.79-4.15,7.33ZM319.49,99.82c18.58-6.02,37.73-8.75,55.83-8.44,18.13,.35,35.13,3.92,49.85,9.57,14.74-5.65,31.75-9.22,49.88-9.57,18.1-.32,37.26,2.41,55.84,8.43l-14.28,43.98c-3.29-1.16-6.65-1.94-9.98-2.64-1.66-.35-3.32-.66-4.98-.93-1.65-.28-3.3-.53-4.96-.66-6.62-.61-13.09-.82-19.41-.25,5.03,6.55,8.95,13.69,11.85,20.85,2.92,7.1,4.74,14.61,5.63,22.01,.89,7.44,.85,14.83-.06,22.3-.91,7.47-2.63,14.9-5.03,22.27-2.43,7.49-5.46,14.65-8.82,21.47-3.35,6.83-7.07,13.45-10.86,19.7-1.9,3.13-3.82,6.18-5.75,9.14-1.92,2.93-3.88,5.95-5.81,8.79-1.93,2.86-3.84,5.62-5.72,8.28-1.76,2.5-3.62,5.14-5.57,7.92,4.85,4.48,9.48,7.39,15.11,9.14l-13.79,42.48c-4.02-1.28-7.57-3.71-11.29-7.38-3.72-3.61-7.63-8.24-11.99-14.16-4.36,5.92-8.27,10.55-11.99,14.16-3.71,3.67-7.27,6.11-11.29,7.38-.98,.39-2.04,.53-3.08,.74-1.03,.23-2.11,.34-3.24,.33-1.09,.09-2.23,.11-3.44,0-.3-.02-.61-.08-.91-.09-.3-.01-.6-.03-.9-.05-.61-.05-1.24-.12-1.88-.23-.64-.09-1.32-.25-1.98-.36-.65-.09-1.32-.21-2.01-.35-1.37-.26-2.86-.71-4.31-1.01-1.47-.35-3.02-.79-4.65-1.3-1.57-.41-3.21-.9-4.94-1.46-.03,1.7-.06,3.43-.1,5.2-.03,1.69-.2,3.18-.25,4.79-.08,1.56-.22,3.02-.42,4.39-.12,1.46-.3,2.81-.56,4.06-.9,5.17-2.41,9.32-4.95,12.78l-36.11-26.28,.34-.48,.59-.88c.21-.28,.42-.57,.62-.86,.4-.58,.78-1.18,1.14-1.79,.36-.62,.69-1.25,1-1.9,.3-.66,.67-1.26,.97-1.92,.62-1.3,1.14-2.67,1.58-4.11,.51-1.37,.94-2.81,1.28-4.31-3.03-1-6.16-2.05-9.36-3.16-3.13-1.05-6.33-2.15-9.6-3.31-3.25-1.15-6.62-2.42-9.93-3.66-3.31-1.25-6.67-2.57-10.05-3.98-6.75-2.8-13.67-5.98-20.41-9.54-6.75-3.57-13.46-7.62-19.93-12.33-6.27-4.56-12.04-9.6-17.16-15.19-5.14-5.59-9.52-11.64-13.17-18.29-3.64-6.63-6.54-13.85-8.36-21.4-.93-3.79-1.64-7.71-2.12-11.74-.45-4.01-.59-8.05-.53-12.22-10.82,6.57-20.48,15.78-28.34,26.33l-.84,1.18-37.39-27.21c11.45-15.72,25.25-29.11,40.04-39.45,3.73-2.55,7.49-4.95,11.25-7.2,3.84-2.16,7.7-4.15,11.54-5.98,3.8-1.88,7.77-3.37,11.63-4.81,3.87-1.41,7.69-2.69,11.59-3.64,2.16-3.33,4.49-6.65,6.99-9.95,2.57-3.21,5.31-6.39,8.2-9.54,2.86-3.2,6.03-6.13,9.29-9.1,1.64-1.48,3.31-2.94,5.02-4.39,1.71-1.44,3.51-2.78,5.32-4.15,1.81-1.36,3.66-2.7,5.53-4.02,.94-.65,1.89-1.31,2.84-1.97,.96-.64,1.94-1.24,2.93-1.86,3.95-2.44,8-4.81,12.19-7.04,4.23-2.13,8.56-4.16,12.99-6.07,4.43-1.89,9.03-3.48,13.65-5.04Zm54.21,38.85c-12.64-1.05-25.94,.72-38.53,4.66-3.49,1.16-6.85,2.4-10.09,3.74-3.24,1.35-6.3,2.96-9.29,4.58-1.49,.82-2.95,1.66-4.39,2.54-1.43,.88-2.81,1.86-4.18,2.83-2.73,1.95-5.37,4.02-7.91,6.2,4,1.27,7.83,2.73,11.46,4.38,3.64,1.66,7.07,3.45,10.38,5.58,6.59,4.18,12.4,9.02,17.47,14.47,10.22,11.08,17.31,24.37,22.09,39.12,4.85,14.99,7.06,30.34,8.24,44.82,.62,7.35,.98,14.51,1.18,21.32,.08,3.16,.17,6.54,.27,10.13,.03,3.03,.07,6.23,.1,9.6,1.64,.2,3.27,.4,4.81,.41,.77,.01,1.53,0,2.28-.06,.76-.03,1.53-.04,2.27-.1,1.5-.11,2.95-.41,4.41-.72,1.48-.26,2.94-.65,4.4-1.16,.65-.26,1.32-.46,1.99-.68,.66-.23,1.31-.49,1.96-.78,1.29-.58,2.53-1.29,3.8-1.92,1.25-.68,2.47-1.47,3.66-2.38,1.2-.84,2.39-1.71,3.54-2.73-2-2.84-3.89-5.53-5.68-8.07-1.91-2.69-3.84-5.47-5.79-8.34-1.95-2.85-3.93-5.87-5.86-8.81-1.94-2.96-3.88-6-5.78-9.13-3.81-6.24-7.54-12.86-10.91-19.72-3.37-6.85-6.42-14.07-8.89-21.68-2.4-7.37-4.1-14.84-4.97-22.38-.87-7.53-.85-15.01,.1-22.53,.96-7.51,2.86-15.06,5.85-22.23,1.49-3.62,3.23-7.2,5.22-10.74,1.99-3.55,4.27-6.86,6.79-10.2Zm52.24,136.22c2.35-3.74,4.65-7.79,6.84-12.11,2.18-4.3,4.24-8.69,6.11-13.41,3.73-9.4,6.69-19.73,7.83-30.68,1.14-11,.26-21.59-3.05-31.6-1.65-4.97-3.9-9.89-6.77-14.43-2.86-4.51-6.34-8.81-10.41-12.82-4.27,3.91-7.9,8.28-10.89,12.77-2.99,4.46-5.34,9.35-7.06,14.35-3.46,10.01-4.42,20.62-3.36,31.6,1.06,10.98,3.95,21.31,7.66,30.7,1.86,4.7,3.93,9.12,6.14,13.49,2.21,4.34,4.55,8.31,6.96,12.14Zm-155.69-65.09c-.57,2.85-1.03,5.59-1.21,8.43-.2,2.81-.24,5.58-.11,8.3,.26,5.44,1.13,10.63,2.72,15.73,3.12,10.14,8.61,19.29,15.94,27.55,7.32,8.25,15.73,14.88,24.24,20.27,4.23,2.66,8.62,5.16,12.91,7.32,2.15,1.08,4.29,2.09,6.4,3.03,2.1,.91,4.27,1.89,6.36,2.72-.73-8.97-2.05-18.43-4.59-28.3-2.52-9.8-6.11-19.77-11.65-29.34-5.51-9.53-12.53-17.72-21.08-23.86-8.49-6.07-18.69-10.34-29.92-11.86Zm431.63,14.24c1.42,1.97,2.8,3.96,4.15,5.97,1.35,2.01,2.69,4,3.89,6.08,2.45,4.13,4.78,8.3,6.94,12.5,2.06,4.26,3.97,8.55,5.73,12.83,.91,2.12,1.65,4.32,2.41,6.49,.75,2.17,1.46,4.34,2.13,6.5,1.4,4.3,2.43,8.67,3.36,12.99,.92,4.32,1.74,8.57,2.19,12.85,.5,4.26,.88,8.45,1.05,12.57,.09,4.15,.04,8.23-.16,12.2,10.01,12.38,18.74,27.59,24.53,44.76,5.88,17.13,9.15,36.11,9.2,55.43h-46.24c-.06-3.46-.27-6.88-.61-10.24-.17-1.68-.37-3.34-.61-4.99-.29-1.65-.61-3.28-.96-4.9-.7-3.23-1.51-6.39-2.4-9.48-1-3.08-2.11-6.09-3.28-9.01-2.41,3.4-4.95,6.58-7.62,9.52-2.74,2.94-5.64,5.65-8.61,8.13-2.98,2.48-6.07,4.72-9.24,6.73-3.19,2.01-6.57,3.8-9.96,5.36-13.64,6.26-28.43,8.9-43.93,8.89-15.75-.01-31.07-2.66-45.27-6.04-3.57-.85-6.97-1.76-10.47-2.68-3.47-.92-6.86-1.88-10.15-2.85-3.32-.96-6.44-1.96-9.64-2.92-3.19-.97-6.27-1.93-9.23-2.89-.74,1.51-1.34,2.97-1.81,4.4-.53,1.44-1.01,2.87-1.31,4.29-.16,.71-.28,1.42-.37,2.13-.1,.71-.26,1.43-.34,2.16-.18,1.45-.23,2.91-.17,4.41h-44.66c-.07-4.43,1.13-8.64,3.47-13.3,2.41-4.66,5.57-9.68,9.84-15.5-1.73-.55-3.35-1.1-4.85-1.67-1.59-.54-3.13-1.08-4.52-1.64-1.35-.59-2.79-1.11-4.07-1.68-1.29-.57-2.41-1.19-3.63-1.76-.58-.29-1.14-.6-1.66-.91-.54-.31-.99-.66-1.54-.96-1.05-.62-1.99-1.29-2.81-2.03-.92-.68-1.76-1.4-2.46-2.2-.33-.42-.74-.78-1.1-1.19-.36-.4-.69-.82-.99-1.27-2.54-3.47-4.06-7.61-4.96-12.79-.26-1.26-.44-2.61-.56-4.06-.2-1.37-.34-2.82-.42-4.39-.04-1.61-.21-3.1-.25-4.79-.03-1.77-.06-3.51-.09-5.2-1.73,.56-3.38,1.05-4.95,1.46-1.63,.51-3.18,.95-4.65,1.3-1.44,.3-2.94,.75-4.31,1.01-.69,.14-1.36,.26-2.01,.35-.66,.11-1.34,.27-1.98,.36-.64,.1-1.27,.18-1.88,.23-.3,.02-.6,.04-.9,.05-.3,.02-.61,.07-.91,.09-1.21,.12-2.34,.1-3.44,0-1.14,.01-2.21-.09-3.24-.33-1.04-.21-2.1-.35-3.08-.74l13.79-42.48,.55,.19c5.35,1.64,10.99,2.48,17.11,1.86,.04-3.44,.07-6.71,.11-9.79,.09-3.64,.17-7.05,.24-10.24,.18-6.85,.51-14.02,1.12-21.38,1.15-14.49,3.35-29.84,8.29-45.08,4.77-14.75,12.03-28.12,22.46-39.26,5.16-5.47,11.09-10.34,17.78-14.53,.84-.52,1.68-1.04,2.54-1.54,.85-.48,1.71-.95,2.58-1.41,1.75-.92,3.54-1.79,5.37-2.61,3.67-1.64,7.53-3.12,11.53-4.35-2.43-2.03-4.99-3.92-7.64-5.77-1.32-.92-2.67-1.82-4.04-2.7-1.37-.87-2.8-1.64-4.23-2.43-2.86-1.56-5.8-3.03-8.8-4.4-3.02-1.29-6.13-2.43-9.25-3.49l-1.38-.46,14.28-43.98c4.62,1.57,9.21,3.15,13.65,5.04,4.42,1.91,8.76,3.94,12.98,6.07,4.18,2.23,8.24,4.61,12.18,7.04,.98,.62,1.97,1.21,2.93,1.86,.95,.66,1.9,1.31,2.84,1.97,1.88,1.32,3.72,2.66,5.53,4.02,1.81,1.37,3.6,2.71,5.32,4.15,1.71,1.45,3.38,2.91,5.02,4.39,3.26,2.97,6.43,5.9,9.29,9.1,2.9,3.15,5.63,6.34,8.2,9.54,2.5,3.3,4.84,6.63,7,9.96,3.89,.95,7.71,2.22,11.58,3.64,3.85,1.44,7.82,2.93,11.62,4.81,3.84,1.83,7.69,3.82,11.54,5.98,3.76,2.24,7.52,4.65,11.25,7.2,14.79,10.34,28.6,23.74,40.05,39.46Zm-20.12,63.49c-3.13-12.22-8.61-24.47-16.41-35.08-1.07-1.49-2.14-2.95-3.23-4.36-1.13-1.38-2.28-2.73-3.44-4.04-2.33-2.61-4.64-5.14-7.15-7.43-2.52-2.28-5.09-4.43-7.75-6.46l-2-1.5c-.68-.48-1.39-.94-2.09-1.4-1.4-.91-2.83-1.8-4.28-2.65,.04,4.17-.08,8.17-.58,12.17-.49,4-1.21,7.87-2.15,11.62-1.83,7.46-4.77,14.58-8.4,21.09-7.24,13.03-17.78,23.97-30.32,33.08-6.37,4.64-13.02,8.65-19.75,12.2-6.72,3.55-13.62,6.73-20.36,9.55-3.38,1.41-6.73,2.75-10.03,4-3.29,1.25-6.65,2.52-9.88,3.68-3.24,1.17-6.42,2.27-9.5,3.31-3.14,1.08-6.22,2.14-9.19,3.1,1.31,6.51,3.59,11.85,7.28,16.88,3.39,4.52,7.5,8.51,12.79,11.61,2.05-2.77,4-5.4,5.83-7.87,1.99-2.67,4.09-5.41,6.21-8.16,4.15-5.45,8.62-11.06,13.42-16.66,9.45-11.09,20.23-22.2,33.17-31.64,12.52-9.13,26.27-15.7,41.23-18.59,7.39-1.39,15.05-1.87,22.93-1.35,3.93,.26,7.8,.85,11.76,1.65,3.93,.82,7.96,1.86,11.87,3.24Zm-113.34,91.9c2.23,.5,4.37,1.02,6.64,1.48,2.26,.46,4.58,.88,6.95,1.25,2.37,.38,4.82,.7,7.26,.98,2.42,.29,4.9,.52,7.41,.68,10.06,.66,20.77,.31,31.56-1.97,10.79-2.29,20.64-6.38,29.17-12.62,2.13-1.56,4.18-3.25,6.14-5.07,1.94-1.82,3.74-3.75,5.46-5.82,1.72-2.07,3.34-4.26,4.85-6.59,1.5-2.32,2.96-4.78,4.15-7.32-5.11-2.85-10.26-5.02-15.47-6.48-5.31-1.43-10.61-2.17-15.88-2.28-10.49-.23-21.01,2.21-31.11,6.62-10.12,4.42-18.91,10.32-26.79,16.8-3.92,3.23-7.55,6.59-10.89,9.98-3.43,3.43-6.62,6.9-9.46,10.34Zm13.83-168.12c-5.8,.7-11.22,1.96-16.31,3.86-5.13,1.96-9.85,4.47-14.17,7.47-8.62,5.96-15.72,14.15-21.3,23.63-5.61,9.54-9.25,19.43-11.84,29.31-1.28,4.92-2.25,9.78-2.96,14.49-.74,4.76-1.29,9.48-1.57,13.93,2.1-.89,4.16-1.75,6.26-2.7,2.1-.95,4.23-1.97,6.37-3.06,2.14-1.08,4.32-2.27,6.46-3.47,2.13-1.19,4.27-2.46,6.41-3.8,8.53-5.38,16.99-11.97,24.37-20.16,7.38-8.2,12.94-17.3,16.17-27.35,.81-2.51,1.47-5.08,1.99-7.7,.51-2.62,.82-5.23,1.01-7.92,.18-2.68,.2-5.41,.06-8.18-.14-2.76-.42-5.6-.94-8.35Z"/><rect class="b" x="0" y="0" width="850.39" height="850.39"/></svg>