<?xml version="1.0" encoding="UTF-8"?><svg id="a" xmlns="http://www.w3.org/2000/svg" viewBox="0 0 850.39 850.39"><defs><style>.b{fill:none;}</style></defs><path d="M766.44,423.01c-.69-1.53-1.4-4.91-1.97-9.73-.32-2.41-.44-5.18-.79-8.26-.34-3.07-.64-6.46-.88-10.11-1.31-16.65-3.62-33.35-7.65-49.72-.48-2.05-.89-4.12-1.44-6.16l-1.7-6.1-1.71-6.1-.86-3.05-1.01-3.01c-1.34-4.01-2.68-8.03-4.03-12.05-1.53-3.95-3.07-7.91-4.6-11.87-1.44-3.95-3.27-7.75-4.96-11.6-1.71-3.84-3.38-7.72-5.36-11.44-1.92-3.75-3.76-7.55-5.76-11.26l-6.26-11.01c-8.67-14.49-18.36-28.42-29.1-41.56-10.83-12.96-22.49-25.27-34.98-36.72-12.51-11.43-26.04-21.73-40.16-31.06-14.12-9.41-29.21-17.22-44.61-24.1l-5.8-2.53c-1.93-.85-3.86-1.71-5.85-2.41l-11.82-4.49c-3.96-1.42-8-2.65-11.99-3.99-2.01-.63-3.98-1.37-6.01-1.92l-6.08-1.69c-8.12-2.46-16.41-4.23-24.64-6.2-8.33-1.52-16.61-3.32-25.01-4.29-8.36-1.33-16.79-1.86-25.19-2.59-4.21-.19-8.42-.29-12.63-.42-2.1-.04-4.21-.17-6.31-.12l-6.3,.16-6.3,.18c-2.1,.05-4.2,.12-6.29,.33l-12.54,1.08c-4.18,.39-8.32,1.12-12.47,1.66l-6.22,.89-6.17,1.2c-16.5,2.96-32.67,7.48-48.54,12.77l-5.95,2.02c-1.99,.66-3.98,1.32-5.91,2.12l-11.73,4.53c-3.88,1.59-7.69,3.34-11.55,5-3.88,1.61-7.62,3.51-11.38,5.38-7.61,3.58-14.86,7.83-22.18,11.95l-10.66,6.73-2.66,1.69-2.57,1.82-5.13,3.65c-13.59,9.84-26.57,20.56-38.44,32.41-3.08,2.85-5.93,5.93-8.8,8.98-2.86,3.06-5.82,6.04-8.49,9.28-2.72,3.19-5.49,6.34-8.17,9.56l-7.74,9.91c-10.04,13.42-19.12,27.54-27.01,42.29-7.79,14.81-14.54,30.12-20.35,45.81-5.59,15.77-9.9,31.93-13.12,48.3-3.01,16.41-4.8,33-5.76,49.64-.59,16.63-.3,33.28,1.33,49.81,1.82,16.5,4.53,32.9,8.66,48.97,4.24,16.07,9.3,31.94,15.6,47.35,6.43,15.34,13.91,30.24,22.52,44.43,8.79,14.11,18.49,27.67,29.05,40.53,10.6,12.84,22.32,24.71,34.71,35.73,3.17,2.68,6.33,5.37,9.5,8.04l9.89,7.5,2.48,1.86c.84,.6,1.7,1.17,2.56,1.75l5.13,3.47,5.13,3.46c1.72,1.14,3.51,2.16,5.27,3.24,13.95,8.78,28.67,16.22,43.7,23.01l5.66,2.51,2.83,1.26c.95,.4,1.92,.75,2.88,1.13l11.54,4.46c3.88,1.39,7.82,2.62,11.73,3.93,1.97,.62,3.9,1.35,5.89,1.88l5.96,1.65c7.9,2.37,15.98,4.01,24.02,5.82,4.05,.76,8.12,1.4,12.17,2.11,2.03,.32,4.05,.76,6.1,.97l6.13,.73,6.13,.74,3.07,.38,3.09,.23c4.11,.32,8.23,.64,12.36,.95,4.13,.26,8.27,.28,12.4,.45l6.21,.19,6.21-.11c16.57-.02,33.13-1.69,49.34-4.52,16.24-2.73,31.99-7.36,47.36-12.75,15.41-5.33,30.23-12.19,44.78-19.64,3.59-1.94,7.28-3.72,10.8-5.79l10.57-6.22c3.51-2.1,6.86-4.44,10.3-6.64,1.7-1.13,3.44-2.2,5.11-3.39l4.96-3.6c6.72-4.66,13-9.89,19.38-14.99,6.11-5.42,12.33-10.71,18.04-16.54l4.37-4.27c1.47-1.42,2.81-2.96,4.22-4.43,2.77-3,5.66-5.9,8.36-8.97l8.03-9.3c2.67-3.11,5.1-6.42,7.67-9.61,1.25-1.62,2.56-3.2,3.77-4.86l3.56-5.02c2.33-3.37,4.85-6.61,6.96-10.12,2.19-3.46,4.37-6.91,6.56-10.37,2-3.56,3.99-7.12,5.98-10.67,2.05-3.5,3.71-7.21,5.52-10.83,1.78-3.64,3.59-7.25,5.1-11,1.56-3.72,3.19-7.42,4.69-11.16l4.16-11.35,1.04-2.84,.9-2.89,1.79-5.77,1.8-5.76c.6-1.92,1.03-3.89,1.56-5.84,.99-3.91,2.08-7.78,2.99-11.71,.83-3.94,1.66-7.89,2.5-11.84,.56-2.39,.95-4.74,1.33-7.03,.41-2.28,.81-4.49,1.19-6.63,.38-2.14,.85-4.2,1.16-6.22,.31-2.02,.62-3.97,.91-5.86,.59-3.77,1.3-7.26,1.83-10.52,.47-3.26,.96-6.27,1.47-9.02,.48-2.75,1.09-5.25,1.51-7.51,.41-2.26,.85-4.28,1.3-6.06,.9-3.55,1.85-6.15,2.8-7.81,2.04-3.58,3.89-2.48,5.22,4.92,.33,1.85,.64,4.09,.9,6.75,.12,1.33,.28,2.77,.34,4.31,.02,1.54,.04,3.19,.06,4.94,0,3.51-.05,7.46-.17,11.87-.34,4.39-.78,9.24-1.32,14.56-2.18,17.1-5.06,33.96-9.47,50.55-4.47,16.55-10.08,32.91-17.31,48.92-7.38,15.89-16.05,31.3-25.84,46.02l-7.58,10.89c-2.63,3.55-5.38,7.03-8.06,10.55-2.63,3.57-5.6,6.86-8.43,10.26l-4.29,5.07c-1.45,1.67-2.99,3.26-4.49,4.89l-4.51,4.85c-1.5,1.62-2.99,3.25-4.6,4.76l-9.52,9.24c-6.61,5.89-13.18,11.84-20.23,17.24-13.93,10.97-28.61,21.1-44.13,29.78-15.44,8.71-31.4,16.5-47.98,22.89-16.6,6.3-33.69,11.4-51.15,15.16-17.47,3.55-35.19,5.8-53,6.87-17.82,.9-35.7,.38-53.49-1.32-17.77-1.87-35.4-5.06-52.77-9.39l-12.95-3.56c-4.28-1.31-8.51-2.77-12.77-4.16-4.28-1.32-8.42-3.04-12.6-4.65l-6.25-2.45c-2.1-.79-4.1-1.8-6.15-2.7-16.44-7.12-32.14-15.88-47.11-25.64-14.98-9.77-29.27-20.59-42.54-32.53-13.33-11.91-25.94-24.65-37.4-38.39-11.4-13.77-21.8-28.37-31-43.66-18.21-30.82-31.41-64.39-39.29-99.06l-1.48-6.53-.74-3.27-.58-3.3-2.33-13.19c-1.12-8.85-2.47-17.68-2.96-26.58-.87-8.88-.87-17.78-1.12-26.67,.26-8.89,.25-17.78,1.14-26.62,.55-9.22,1.92-18.37,3.16-27.52l2.45-13.64c.36-2.28,.94-4.52,1.45-6.78l1.57-6.75c4.38-17.95,10.02-35.61,17.22-52.63,14.51-33.96,34.13-65.81,58.58-93.48,12.19-13.85,25.5-26.65,39.89-38.07,14.37-11.45,29.57-21.76,45.35-31.15l11.96-6.87,12.25-6.37c2.02-1.11,4.12-2.06,6.21-3.03l6.27-2.92c2.1-.95,4.16-2,6.29-2.87l6.4-2.62c17.06-6.99,34.69-12.78,52.72-16.49,18.02-3.77,36.31-6.28,54.68-7.16,18.37-.79,36.76-.27,55.02,1.59l12.05,1.63c2,.3,4.02,.5,6.01,.89l5.97,1.14c3.97,.81,7.98,1.44,11.92,2.42l11.82,2.93,2.95,.74,2.92,.88,5.84,1.75c3.89,1.17,7.8,2.28,11.61,3.71,3.84,1.35,7.68,2.69,11.52,4.04,3.78,1.52,7.56,3.04,11.35,4.56,14.94,6.25,29.54,13.4,43.34,21.9l5.22,3.1,5.07,3.34c3.36,2.26,6.81,4.39,10.1,6.75l9.84,7.14c1.66,1.16,3.25,2.42,4.83,3.69l4.76,3.78,4.78,3.77c1.58,1.27,3.09,2.63,4.64,3.94,3.07,2.66,6.22,5.23,9.27,7.93l8.99,8.29,2.25,2.07,2.16,2.17,4.31,4.34c2.88,2.89,5.78,5.77,8.45,8.86,2.72,3.04,5.47,6.06,8.13,9.14,5.1,6.36,10.31,12.62,14.83,19.36,4.82,6.58,8.92,13.6,13.17,20.48,1.94,3.55,3.88,7.09,5.81,10.64,.94,1.79,1.97,3.52,2.82,5.34l2.61,5.45,2.61,5.44c.89,1.8,1.74,3.62,2.48,5.49l4.69,11.1c1.55,3.7,2.83,7.51,4.27,11.26l2.11,5.63c.66,1.89,1.25,3.81,1.88,5.72,5.34,15.32,9.19,31.14,12.32,46.98,.68,3.98,1.37,7.96,2.05,11.93,.63,3.98,1,7.99,1.49,11.97l.69,5.98c.19,1.99,.27,4,.41,5.99,.24,3.99,.48,7.97,.71,11.94,.11,15.34-1.21,19.75-2.59,16.69Zm-20.68,73.41l-1.36,5.71c-.43,1.91-.9,3.81-1.49,5.68l-3.28,11.28c-1.12,3.75-2.51,7.42-3.75,11.13l-1.91,5.55-2.19,5.45c-5.59,14.64-12.56,28.72-20.31,42.31-7.66,13.64-16.7,26.43-26.36,38.66-9.6,12.29-20.35,23.64-31.58,34.46-11.17,10.88-23.25,20.88-35.84,30.16-12.54,9.36-25.96,17.55-39.82,24.72-13.82,7.27-28.28,13.25-43.01,18.4-14.7,5.27-29.9,9.01-45.2,11.98l-11.52,1.96c-3.86,.48-7.74,.88-11.6,1.31-1.93,.19-3.86,.46-5.8,.59l-5.82,.32c-3.88,.17-7.75,.51-11.63,.54-7.77,0-15.52,.19-23.28-.32-7.76-.16-15.48-1.03-23.22-1.62-3.86-.37-7.7-.98-11.56-1.45l-5.78-.75-5.73-1.04c-3.81-.72-7.65-1.32-11.45-2.13l-11.34-2.64-2.84-.66-2.8-.79-5.6-1.6c-3.73-1.07-7.48-2.07-11.13-3.41l-11.01-3.76-10.81-4.31c-28.68-11.84-55.68-27.8-79.78-47.34-24.13-19.54-44.88-42.87-62.38-68.32-17.51-25.43-32.71-53.05-42.21-82.63-4.65-14.78-8.62-29.81-11.05-45.13l-1.02-5.72-.72-5.77c-.45-3.85-1.02-7.68-1.39-11.54-.53-7.73-1.3-15.45-1.29-23.2-.37-8.45,.13-16.89,.4-25.32,.75-8.4,1.31-16.81,2.66-25.13,2.4-16.66,5.88-33.17,10.84-49.26,4.88-16.11,10.93-31.86,18.25-47.01,7.42-15.1,15.95-29.63,25.47-43.49,9.46-13.92,20.29-26.87,31.84-39.09,11.6-12.17,24.04-23.58,37.48-33.7,13.39-10.19,27.59-19.3,42.37-27.3,14.86-7.88,30.31-14.56,46.12-20.19,15.8-5.73,32.11-9.96,48.61-13.1,8.23-1.72,16.59-2.66,24.92-3.79l12.58-1.03,3.14-.26c1.05-.06,2.1-.07,3.15-.11l6.31-.18,6.31-.18c2.11-.06,4.21,.07,6.32,.1,4.21,.13,8.43,.12,12.63,.36l12.6,.94c2.1,.11,4.19,.41,6.28,.67l6.26,.79c2.09,.27,4.18,.5,6.26,.8l6.22,1.1,6.22,1.09,3.11,.55,3.08,.7,12.31,2.8,12.15,3.4c16.13,4.83,31.92,10.68,47.22,17.69,15.23,7.16,29.92,15.49,43.88,25,14.01,9.46,27.13,20.18,39.43,31.76l4.63,4.33c1.52,1.47,2.95,3.02,4.43,4.53l4.42,4.55,2.21,2.27c.72,.77,1.4,1.58,2.11,2.37l8.39,9.51,7.92,9.91c10.32,13.43,19.58,27.68,27.75,42.55,8.12,14.89,14.9,30.48,20.69,46.39,4.39,12.08,6.8,17.01,7.77,15.58,.45-.71,.45-2.99-.12-6.7-.75-3.65-2.15-8.71-4.29-14.98-5.53-14.58-11.85-28.86-19.27-42.57-1.81-3.45-3.87-6.76-5.8-10.15l-2.93-5.06-3.17-4.91c-2.14-3.25-4.15-6.6-6.4-9.78l-6.79-9.52c-1.1-1.61-2.31-3.14-3.52-4.66l-3.6-4.6-3.6-4.61c-1.22-1.51-2.53-2.96-3.79-4.45-2.56-2.94-5.03-5.95-7.65-8.84l-8.01-8.51-2-2.13-2.1-2.03-4.21-4.06-4.21-4.06c-1.39-1.37-2.91-2.59-4.36-3.89-2.94-2.56-5.85-5.16-8.83-7.68l-9.19-7.25c-24.82-18.97-52.71-33.69-81.74-44.86-1.81-.71-3.61-1.47-5.43-2.13l-5.52-1.9c-3.69-1.23-7.32-2.65-11.05-3.74l-11.19-3.31c-1.86-.59-3.74-1.06-5.64-1.5l-5.67-1.39c-7.53-2.03-15.23-3.21-22.88-4.74l-11.59-1.59c-1.93-.24-3.86-.56-5.8-.74l-5.83-.47c-15.54-1.51-31.19-1.49-46.77-.87l-11.68,.79c-1.95,.09-3.89,.34-5.83,.58l-5.82,.69c-7.78,.74-15.44,2.36-23.16,3.62-15.29,3.25-30.43,7.51-45.1,13.01-3.69,1.3-7.27,2.92-10.91,4.35l-5.44,2.21c-1.79,.79-3.55,1.64-5.33,2.45-3.54,1.66-7.13,3.22-10.63,4.94l-10.43,5.33c-27.6,14.52-53.33,32.72-75.85,54.45-11.18,10.91-21.99,22.23-31.62,34.55-9.7,12.24-18.8,25.04-26.49,38.73l-2.96,5.09-2.7,5.24c-1.77,3.51-3.67,6.95-5.31,10.52l-4.85,10.76c-.84,1.78-1.57,3.6-2.27,5.44l-2.15,5.49-2.15,5.49c-.73,1.83-1.28,3.72-1.93,5.57l-3.75,11.18c-2.09,7.58-4.49,15.07-6.13,22.75l-1.36,5.73-.68,2.86-.54,2.89-2.14,11.58c-.7,3.86-1.09,7.78-1.65,11.66l-.78,5.84c-.25,1.95-.34,3.91-.52,5.87l-.97,11.75-.37,11.78c-.05,1.96-.15,3.93-.16,5.89l.11,5.9c.1,3.93,.08,7.86,.28,11.79,.58,7.85,.95,15.74,2.12,23.55l.75,5.87,.38,2.94,.53,2.92,2.11,11.66c.73,3.88,1.75,7.71,2.61,11.56l1.34,5.77,1.6,5.7c1.1,3.79,2.1,7.61,3.26,11.38l3.73,11.23c10.31,29.72,24.43,58.19,42.81,83.96,9.19,12.84,19.17,25.19,30.23,36.54l4.08,4.32,4.28,4.12c2.88,2.72,5.64,5.57,8.62,8.18l8.93,7.84c2.97,2.63,6.15,4.98,9.21,7.49l4.63,3.71,4.79,3.51c3.21,2.31,6.35,4.72,9.62,6.95l9.9,6.55,2.48,1.63,2.55,1.52,5.1,3.04,5.1,3.04c1.69,1.03,3.48,1.88,5.22,2.84l10.51,5.55c7.19,3.33,14.31,6.88,21.74,9.7,7.31,3.14,14.86,5.61,22.33,8.29,3.77,1.23,7.59,2.31,11.39,3.47,1.9,.56,3.8,1.17,5.71,1.7l5.78,1.44c15.36,4.09,31.11,6.64,46.97,8.33l11.94,.98c3.99,.26,7.99,.27,11.99,.41l6,.16c2,.02,4-.08,6-.12l12-.31,11.97-.92c1.99-.17,3.99-.26,5.98-.5l5.95-.75c3.96-.54,7.95-.9,11.89-1.58l11.81-2.04,2.95-.51,2.92-.64,5.85-1.27c3.9-.84,7.82-1.6,11.65-2.69l11.57-3.01,11.42-3.54c15.14-4.96,30.1-10.75,44.33-18.21l5.38-2.73,5.23-3.02c3.46-2.06,7-4,10.38-6.2l10.08-6.69c1.7-1.09,3.32-2.29,4.93-3.5l4.86-3.6,4.86-3.6c1.59-1.23,3.13-2.54,4.7-3.8,3.1-2.57,6.28-5.04,9.33-7.67,3.01-2.66,6.02-5.33,9.03-7.99l2.26-1.99,2.17-2.08,4.35-4.14,4.37-4.12c1.45-1.38,2.8-2.86,4.21-4.28,2.77-2.89,5.61-5.71,8.34-8.64l7.97-8.98,1.99-2.24,1.89-2.33,3.77-4.67c5.16-6.13,9.69-12.74,14.42-19.21,4.36-6.72,8.91-13.34,12.79-20.37,4.17-6.88,7.72-14.09,11.49-21.2l5.11-10.92c.83-1.83,1.75-3.62,2.5-5.49l2.28-5.58,2.28-5.58,1.14-2.79,1.01-2.84,3.99-11.39c1.3-3.81,2.31-7.71,3.47-11.56l1.67-5.8c.49-1.95,.92-3.92,1.38-5.88,.51-2.29,1.02-4.52,1.51-6.7,.47-2.18,.97-4.31,1.25-6.42,.65-4.2,1.21-8.17,1.69-11.91,.11-.93,.23-1.85,.34-2.76,.06-.91,.12-1.8,.18-2.68,.1-1.76,.19-3.45,.28-5.08,.16-3.25,.25-6.24,.28-8.95-.41-10.88-1.55-17.17-3.07-17.91-1.46-.74-3.44,4.15-5.38,13.77-.43,2.41-1.07,5.1-1.72,8.07-.64,2.97-1.28,6.23-1.92,9.77-.68,3.53-1.63,7.29-2.44,11.34-.42,2.02-.84,4.11-1.28,6.26-.52,2.13-1.06,4.33-1.62,6.59Zm-474.31,184.98c3.12,2.2,7.87,5.25,14.15,8.92,3.22,1.73,6.81,3.65,10.78,5.78,4.03,2,8.53,4.01,13.38,6.25,5.06,2.08,10.24,4.16,15.7,6.2,2.76,.93,5.58,1.89,8.47,2.86,1.45,.49,2.91,.98,4.4,1.48,1.51,.43,3.04,.86,4.59,1.3,3.08,.87,6.24,1.75,9.45,2.65,3.25,.75,6.57,1.51,9.94,2.29,1.68,.38,3.37,.77,5.09,1.16,1.74,.31,3.49,.61,5.28,.93,3.58,.59,7.27,1.34,11.17,1.83,15.23,2.09,30.64,2.68,46.02,2.65,15.75-.12,32.72-1.61,49.44-4.4,2.1-.37,4.2-.75,6.31-1.12,2.11-.36,4.22-.74,6.31-1.26,4.38-1.03,8.75-1.95,13.04-3.08,4.18-1.2,8.37-2.4,12.57-3.61,4.15-1.36,8.28-2.81,12.43-4.22,1.83-.58,3.63-1.31,5.42-2.02,1.79-.7,3.58-1.4,5.36-2.1,1.77-.69,3.53-1.37,5.24-2.04,1.69-.74,3.35-1.47,4.96-2.18,3.26-1.46,6.64-2.77,9.96-4.36,3.33-1.59,6.71-3.21,10.16-4.86,3.43-1.67,6.81-3.61,10.33-5.47,3.54-1.83,6.99-3.98,10.53-6.17,1.79-1.11,3.59-2.23,5.38-3.34,1.76-1.15,3.45-2.39,5.16-3.57,3.37-2.43,6.8-4.66,9.82-7.17,12.63-9.53,22.9-19.54,31.92-28.28,2.45-2.52,4.87-5.02,7.27-7.49,2.4-2.47,4.56-5.1,6.81-7.59,4.55-4.95,8.47-10.2,12.48-15.13,15.46-20.19,26.38-39.78,33.86-55.66,.92-1.99,1.81-3.92,2.67-5.78,.43-.93,.84-1.84,1.25-2.74,.37-.91,.73-1.81,1.09-2.68,1.31-3.16,2.52-6.1,3.63-8.78,1.21-2.72,1.98-5.24,2.8-7.38,.78-2.15,1.44-3.96,1.97-5.42,1.21-3.12,2.13-6.34,3.11-9.52,.95-3.19,2.01-6.34,2.82-9.53,.78-3.21,1.56-6.37,2.32-9.52,.36-1.59,.8-3.17,1.07-4.67,.27-1.5,.53-2.89,.74-4.07,.91-5.15,1.97-10.14,2.5-14.95,.32-2.4,.62-4.73,.92-6.99,.15-1.13,.29-2.24,.43-3.33,.09-1.1,.17-2.17,.25-3.23,.32-4.25,.58-8.11,.78-11.51,.12-3.41,.04-6.36,0-8.79-.1-4.86-.36-7.62-.75-7.79-.39-.17-.86,1.9-1.41,5.92-.28,2.01-.57,4.51-.88,7.46-.13,1.48-.34,3.06-.62,4.75-.25,1.69-.51,3.49-.78,5.39-.26,1.92-.54,3.96-.84,6.12-.29,2.16-.78,4.42-1.18,6.83-.41,2.4-.85,4.93-1.31,7.6-.42,2.67-1.13,5.44-1.71,8.37-.55,2.62-1.11,5.31-1.69,8.07-.71,2.73-1.44,5.53-2.19,8.4-1.36,5.73-3.41,11.72-5.4,18.26-.94,3.1-2.73,7.67-4.9,13.88-1.09,3.09-2.61,6.5-4.11,10.32-.71,1.75-1.39,3.6-2.22,5.47-.85,1.86-1.73,3.8-2.64,5.8-7.24,16.01-18.03,35.72-33.23,56.15-1.97,2.51-3.97,5.05-6,7.63-1.03,1.28-2.01,2.61-3.09,3.87-1.09,1.26-2.19,2.52-3.29,3.8-2.23,2.52-4.38,5.18-6.77,7.68-2.38,2.5-4.79,5.03-7.23,7.58-10.88,10.93-21.84,20.92-33.09,29.67-2.88,2.18-5.73,4.19-8.54,6.22-1.42,1-2.8,2.04-4.26,2.99-1.47,.93-2.95,1.86-4.44,2.8-1.51,.94-3.03,1.89-4.58,2.86-1.54,.98-3.12,1.93-4.77,2.81-3.27,1.8-6.61,3.64-10.03,5.52-3.5,1.73-7.07,3.5-10.73,5.3-.91,.45-1.83,.91-2.75,1.36-.94,.42-1.89,.83-2.84,1.25-1.9,.85-3.82,1.7-5.76,2.57-1.93,.84-3.78,1.78-5.69,2.52-1.9,.76-3.78,1.52-5.65,2.27-1.86,.75-3.72,1.5-5.56,2.25-1.84,.77-3.74,1.35-5.6,2.03-2.06,.72-4.11,1.45-6.14,2.16l-3.05,1.07-3.08,.92c-4.1,1.19-8.14,2.45-12.17,3.53-4.01,.94-8.06,1.89-12.14,2.84-4.1,.87-8.28,1.51-12.46,2.28-16.72,2.69-32.91,3.87-49.19,3.92-16.48-.11-31.74-1.33-45.53-3.31-3.39-.62-6.8-1.24-10.2-1.87-1.69-.33-3.4-.59-5.07-.98-1.67-.4-3.33-.79-4.99-1.19-3.3-.81-6.58-1.51-9.74-2.38-3.15-.91-6.22-1.81-9.2-2.67-1.49-.45-2.99-.84-4.44-1.32-1.45-.5-2.88-.99-4.3-1.48-2.84-.97-5.61-1.92-8.31-2.85-5.31-2.05-10.28-4.02-14.77-5.83-4.51-2.03-8.77-3.95-12.74-5.73-3.89-1.95-7.5-3.76-10.78-5.4-1.66-.79-3.19-1.62-4.63-2.42-1.45-.78-2.8-1.51-4.07-2.18-2.53-1.35-4.73-2.44-6.52-3.33-3.51-1.89-5.53-2.7-5.8-2.27-.28,.43,1.19,1.84,4.24,4.16ZM474.82,115.18c-4.41-.66-9.87-1.6-16.34-2.32-6.49-.55-13.95-1.38-22.37-1.47-16.79-.49-37.38,.12-60.67,4.08-23.11,3.92-49.5,11.16-75.49,23.09-1.62,.73-3.25,1.46-4.89,2.2-.82,.37-1.65,.74-2.48,1.12-.81,.41-1.63,.82-2.45,1.24-3.28,1.66-6.61,3.34-10,5.06-3.36,1.78-6.68,3.75-10.11,5.68-3.45,1.88-6.81,4.05-10.23,6.24-3.35,2.14-6.98,4.4-10.43,6.98-1.75,1.26-3.51,2.53-5.25,3.78-1.74,1.25-3.46,2.5-5.06,3.83-3.16,2.56-6.35,5.14-9.57,7.74-3.09,2.75-6.2,5.52-9.33,8.3-1.53,1.32-2.98,2.72-4.41,4.13-1.44,1.4-2.87,2.78-4.3,4.17l-4.26,4.11-4.42,4.63c-2.96,3.12-6.01,6.21-8.8,9.57-1.43,1.65-2.86,3.3-4.29,4.96-1.45,1.65-2.88,3.32-4.21,5.08-11.16,13.68-21.33,28.7-30.23,44.79l-1.71,3-1.58,3.08c-1.05,2.06-2.1,4.12-3.16,6.18-2.2,4.09-4,8.39-5.94,12.65-.94,2.16-1.99,4.28-2.82,6.41-.85,2.12-1.67,4.18-2.42,6.07-.81,1.99-1.63,4-2.46,6.04-.82,2.05-1.52,4.17-2.31,6.29-1.5,4.27-3.25,8.59-4.57,13.19-.71,2.29-1.42,4.61-2.15,6.96-.36,1.18-.72,2.36-1.09,3.56-.3,1.21-.61,2.43-.92,3.66-2.58,9.71-4.72,20.78-5.93,30.86-.28,2.54-.55,5.05-.82,7.52-.28,2.47-.53,4.91-.62,7.34-.24,4.84-.59,9.56-.74,14.18-.08,4.62-.15,9.14-.23,13.52-.02,4.46,.16,9.47,.22,14.24,.36,9.81,1.03,19.65,2.32,29.44l.28,2.36c.16,1.42,.38,3.3,.73,5.17,.63,3.74,1.27,7.49,1.27,7.49,.83,5.31,1.8,9.31,2.82,14.09,3.64,16.62,8.64,34.41,16.21,52.22,7.2,17.17,16.04,32.97,25.45,47.52,1.13,1.73,2.28,3.72,3.66,5.62,1.36,1.92,2.75,3.89,4.08,5.76,1.36,1.89,2.68,3.79,4.05,5.64,1.43,1.8,2.84,3.59,4.24,5.36,1.41,1.77,2.8,3.52,4.18,5.26,1.38,1.74,2.89,3.35,4.32,5.01,1.44,1.65,2.87,3.28,4.29,4.9,.71,.81,1.42,1.61,2.12,2.41,.74,.77,1.47,1.54,2.2,2.3,2.94,3.07,5.76,6.03,8.64,9.04,3.16,3.04,6.3,6.07,9.44,9.1,6.48,5.83,12.99,11.57,19.83,16.82,13.59,10.6,27.82,20.01,42.45,28.19,14.7,8.01,29.64,14.82,45.54,20.42,15.6,5.61,30.64,9.2,45.24,12.15,3.8,.69,7.57,1.37,11.32,2.05,3.78,.5,7.53,.99,11.25,1.48,3.72,.56,7.44,.82,11.13,1.11,3.69,.26,7.35,.68,11,.78,7.24,.2,14.74,.54,20.76,.31,3.21-.04,6.46-.08,9.73-.11,3.27-.19,6.58-.37,9.93-.56,6.71-.23,13.47-1.18,20.43-1.91,3.37-.39,6.96-1.1,10.47-1.67,3.5-.61,6.92-1.14,9.81-1.86,6.14-1.41,12.2-2.62,17.96-4.35,2.9-.81,5.76-1.61,8.59-2.39,2.8-.86,5.54-1.82,8.25-2.7,2.7-.92,5.4-1.75,8.01-2.72,2.59-1,5.14-1.99,7.66-2.97l3.77-1.47c1.4-.53,2.76-1.1,4.09-1.72,2.65-1.21,5.21-2.38,7.71-3.52,19.74-9.38,33.32-18.45,43.68-25.1,5.02-3.56,9.88-6.76,14.07-9.85,4.15-3.14,7.83-5.93,10.83-8.2,3.05-2.55,6.16-5.15,9.33-7.8,1.6-1.3,3.14-2.71,4.66-4.15,1.53-1.44,3.08-2.89,4.63-4.35,1.55-1.5,3.17-2.94,4.65-4.5,1.48-1.56,2.95-3.12,4.39-4.65,2.88-3.07,5.69-6.04,8.07-9,2.46-2.97,4.81-5.81,7.08-8.55,2.13-2.84,4.18-5.56,6.14-8.18,.98-1.31,1.94-2.59,2.88-3.85,.89-1.3,1.76-2.57,2.61-3.81,1.71-2.48,3.36-4.86,4.94-7.15,14.04-20.55,24.62-42.24,31.24-59.04,6.38-15.5,10.79-30.58,13.42-40.97,2.32-10.61,3.22-16.36,2.74-16.39-.32-.02-1.87,5.21-4.54,14.36-.61,2.32-1.54,4.83-2.48,7.64-.94,2.8-1.98,5.89-3.12,9.27-2.6,6.67-5.45,14.61-9.55,24.01-1.75,4.51-4,8.94-6.16,13.6-2.09,4.7-4.72,9.33-7.27,14.25-.65,1.22-1.31,2.46-1.97,3.71-.72,1.22-1.44,2.45-2.18,3.7-1.47,2.49-2.97,5.03-4.5,7.64-1.53,2.61-3.31,5.14-5.01,7.81-.87,1.32-1.74,2.67-2.63,4.02-.87,1.37-1.79,2.72-2.78,4.06-2.1,2.97-4.19,5.92-6.25,8.84-2.06,2.92-4.3,5.67-6.4,8.47-1.06,1.39-2.12,2.77-3.16,4.15-1.05,1.37-2.19,2.65-3.28,3.96-2.19,2.6-4.35,5.17-6.47,7.69-2.24,2.48-4.44,4.79-6.59,7.08-2.16,2.29-4.29,4.55-6.67,6.71-2.38,2.21-4.85,4.51-7.42,6.9-2.62,2.33-5.46,4.61-8.34,7.04-1.4,1.14-2.92,2.49-4.74,3.88-1.83,1.38-3.86,2.92-6.12,4.63-4.43,3.52-10.07,7.28-16.65,11.94-13.42,8.97-29.04,18.48-45.7,26.23-2.17,1-4.15,1.91-6.23,2.86-2.08,.94-4.34,1.76-6.96,2.8-2.49,.97-5.02,1.96-7.58,2.96-2.59,.94-5.25,1.79-7.93,2.7-2.69,.88-5.39,1.86-8.18,2.69-2.8,.79-5.63,1.59-8.5,2.4-5.71,1.74-11.72,2.9-17.8,4.34-2.85,.72-5.8,1.12-8.76,1.67-2.83,.48-5.78,.98-8.78,1.48-3.04,.35-6.17,.71-9.38,1.07-3.22,.34-6.52,.78-9.94,.92-3.42,.21-6.93,.42-10.54,.64-3.61,.22-7.33,.15-11.16,.26l-5.81,.12h-.83c-.5,0-1.17-.02-1.84-.03-1.33-.03-2.67-.07-2.67-.07-3.56-.09-7.15-.18-10.76-.28-3.61-.22-7.25-.53-10.91-.8-1.83-.14-3.67-.29-5.51-.43-1.84-.23-3.68-.47-5.53-.7-3.69-.5-7.43-.88-11.16-1.49-3.72-.66-7.46-1.33-11.23-2.01-15.66-3.17-31.04-7.18-45.8-12.44-14.4-5.2-29.66-12.16-44.12-20.15-14.56-8.01-28.57-17.54-42.01-28.09l-5.04-3.97c-1.65-1.36-3.25-2.8-4.88-4.2-3.22-2.85-6.57-5.56-9.64-8.62-3.02-2.94-6.33-5.91-9.46-9.18-3.11-3.28-6.33-6.54-9.39-9.83-2.89-3.28-5.79-6.56-8.7-9.85-2.8-3.38-5.52-6.84-8.28-10.27-1.4-1.69-2.63-3.43-3.86-5.14-1.23-1.71-2.45-3.41-3.67-5.12-2.52-3.38-4.79-7.04-7.34-11.01-9.76-15.29-18.1-31.02-24.8-47.01-6.45-15.38-11.43-32.39-15.44-50.65-.53-2.52-1.21-5.08-1.65-7.62l-1.25-7.11s-.61-3.59-1.21-7.17c-.44-3.61-.88-7.22-.88-7.22l-.87-7.35c-.23-2.45-.36-4.91-.54-7.37l-.5-7.36c-.2-2.45-.14-4.9-.21-7.35-.07-4.94-.32-9.9-.1-15.29,.15-5.24,.02-10.35,.42-15.3,.14-2.48,.27-4.92,.41-7.34,.07-1.21,.13-2.41,.2-3.6,.12-1.19,.24-2.37,.36-3.55,.53-4.69,.92-9.3,1.58-13.77,2.44-17.47,7.37-34.48,14.05-52.65,1.55-4.57,3.51-9.1,5.38-13.77,.97-2.32,1.74-4.54,2.72-6.62,.95-2.09,1.88-4.15,2.85-6.29,.96-2.09,1.91-4.18,2.87-6.26,1.05-2.04,2.09-4.07,3.14-6.1,1.05-2.03,2.09-4.05,3.13-6.07,1.05-2.01,2.24-3.94,3.36-5.91,8.95-15.71,19.1-30.34,30.15-43.67,2.8-3.3,5.66-6.52,8.47-9.75,1.38-1.64,2.87-3.16,4.34-4.69,1.47-1.53,2.94-3.06,4.4-4.58,2.91-3.14,6.18-6.14,9.34-9.19,1.58-1.52,3.16-3.03,4.71-4.52,1.61-1.42,3.2-2.82,4.75-4.19,6.01-5.5,12.35-10.43,18.56-15.32,3.14-2.25,6.15-4.4,9.15-6.55l2.27-1.6c.78-.5,1.56-1,2.35-1.5,1.57-1,3.16-2,4.78-3.03l4.77-3.01c1.6-.98,3.26-1.86,4.88-2.79,3.27-1.82,6.48-3.71,9.77-5.43,3.32-1.66,6.63-3.32,9.92-4.97l2.47-1.23,2.52-1.12c1.68-.75,3.35-1.49,5.02-2.23,6.55-3.1,13.19-5.46,19.55-8.01,3.22-1.16,6.44-2.2,9.59-3.28,1.58-.53,3.14-1.06,4.7-1.59,1.56-.52,3.14-.92,4.7-1.37,3.12-.89,6.19-1.76,9.22-2.62,3.03-.85,6.08-1.45,9.06-2.18,2.99-.66,5.91-1.44,8.85-1.96,2.93-.52,5.82-1.04,8.67-1.55,22.76-3.91,42.89-4.66,59.38-4.48,8.26-.05,15.62,.56,22.04,.89,1.61,.06,3.15,.2,4.62,.37l4.25,.43c2.72,.26,5.19,.49,7.4,.7,8.83,1.08,13.61,1.62,13.82,1.11,.21-.46-4.32-1.74-13.09-3.46Zm231.07,184.69c-1.37-3.2-2.93-7.22-5.25-11.55-2.25-4.36-4.67-9.33-7.78-14.4-1.51-2.56-3.07-5.2-4.66-7.91-1.71-2.64-3.45-5.34-5.23-8.08-.87-1.35-1.75-2.74-2.66-4.16-.97-1.39-1.96-2.81-2.98-4.28-2.08-2.91-4.11-6.13-6.57-9.35-2.44-3.22-5.03-6.64-7.78-10.26-2.91-3.49-5.98-7.21-9.31-11.08-3.5-3.71-7.12-7.76-11.18-11.73-1.83-1.74-3.69-3.49-5.56-5.27-1.88-1.77-3.74-3.6-5.78-5.29-15.85-13.97-34.33-27.5-56.18-39.35-2.66-1.51-5.45-2.78-8.18-4.18-2.77-1.33-5.46-2.83-8.3-4.03-5.67-2.44-11.25-5.13-17.1-7.25-12.44-5.14-25.74-8.76-38.2-11.85-3.21-.68-6.36-1.34-9.47-2-1.56-.32-3.1-.69-4.65-.98l-4.66-.78c-3.1-.54-6.2-1.08-9.34-1.63-3.15-.43-6.34-.86-9.59-1.3-6.5-1.04-13.28-1.43-20.26-2.1-3.49-.26-7.06-.3-10.67-.46-1.81-.06-3.63-.12-5.47-.18-1.84-.03-3.69,.05-5.56,.08-3.81,.1-7.59,.17-11.32,.36-3.72,.33-7.41,.66-11.05,.99-3.64,.26-7.21,.87-10.72,1.38-1.76,.26-3.5,.52-5.24,.78-1.73,.24-3.45,.51-5.14,.87-3.39,.66-6.75,1.32-10.06,1.97-3.33,.56-6.53,1.5-9.73,2.2l-4.93,1.14-2.51,.57-2.5,.69c-3.35,.93-6.73,1.86-10.1,2.8-3.08,.81-6.09,1.94-9.17,2.91-3.05,1.05-6.2,1.92-9.23,3.16-3.06,1.18-6.14,2.37-9.24,3.56-1.56,.57-3.09,1.23-4.62,1.93-1.53,.68-3.06,1.37-4.6,2.06-6.23,2.65-12.1,5.85-17.93,8.86-2.91,1.51-5.67,3.26-8.47,4.85-2.78,1.65-5.59,3.19-8.21,4.97-2.66,1.73-5.3,3.44-7.91,5.14-2.64,1.66-5.07,3.57-7.59,5.32-2.47,1.81-4.9,3.4-7.19,5.18-2.3,1.77-4.59,3.54-7.01,5.4-1.19,.91-2.39,1.83-3.59,2.76-1.16,.98-2.34,1.96-3.52,2.95-2.36,1.98-4.75,3.99-7.18,6.02-2.33,2.15-4.69,4.33-7.09,6.54-1.19,1.11-2.39,2.24-3.61,3.37-1.15,1.19-2.32,2.39-3.49,3.59-2.33,2.45-4.62,4.85-6.87,7.22-2.13,2.48-4.22,4.92-6.28,7.32-1.03,1.2-2.04,2.4-3.05,3.58-.95,1.23-1.9,2.46-2.83,3.67-1.87,2.43-3.71,4.82-5.52,7.18-1.77,2.39-3.39,4.83-5.06,7.19-1.62,2.39-3.35,4.66-4.82,7.06-1.51,2.37-3,4.71-4.47,7.03-.74,1.15-1.48,2.3-2.21,3.44-.69,1.17-1.37,2.33-2.05,3.48-2.73,4.75-5.66,9.46-8.15,14.47-1.3,2.48-2.61,4.97-3.92,7.47-1.24,2.54-2.4,5.13-3.6,7.71-1.16,2.6-2.47,5.16-3.5,7.84-1.06,2.67-2.12,5.35-3.17,8.01-.49,1.25-.98,2.5-1.47,3.74-.46,1.25-.87,2.52-1.3,3.77-.85,2.51-1.69,5-2.53,7.48-6.43,19.98-10.42,38.79-12.5,57.79-.62,4.44-.81,8.82-1.12,13.08-.14,2.13-.28,4.23-.42,6.31-.1,2.08-.09,4.13-.14,6.16-.04,3.97-.2,7.67-.16,11.3,.09,3.63,.18,7.19,.28,10.9,.01,3.6,.38,7.06,.61,10.41,.28,3.34,.44,6.56,.79,9.64,.39,3.07,.76,6.01,1.11,8.81,.36,2.8,.65,5.48,1.15,7.98,.92,5.01,1.63,9.49,2.44,13.32,.99,4.18,1.8,7.64,2.44,10.35,.63,2.86,1.48,5.57,2.26,8.22,.78,2.65,1.55,5.22,2.29,7.73,1.59,4.98,3.32,9.63,4.84,14.12,1.65,4.49,3.35,8.54,4.89,12.6,.75,2.04,1.62,4.01,2.5,6,.87,2,1.75,4.02,2.66,6.11,1.69,4.13,3.81,8.12,5.78,12.17,1.03,2.01,1.96,4.07,3.08,6.03,1.11,1.96,2.23,3.92,3.33,5.87,1.12,1.93,2.24,3.87,3.35,5.79,1.21,1.85,2.41,3.68,3.57,5.44,2.27,3.37,4.32,6.6,6.56,9.42,2.19,2.85,4.24,5.51,6.14,7.98,1.96,2.43,3.9,4.56,5.63,6.55,1.75,1.97,3.34,3.77,4.81,5.35,1.54,1.52,2.92,2.87,4.13,4.07,4.86,4.72,7.28,6.62,7.08,5.81-.25-.77-2.99-4.28-7.78-9.91-4.68-5.71-11.11-13.83-18.1-24.13-1.73-2.58-3.4-5.36-5.17-8.19-.84-1.36-1.68-2.74-2.54-4.15-.86-1.41-1.62-2.94-2.48-4.49-1.65-3.13-3.49-6.4-5.27-10.01-1.71-3.64-3.54-7.52-5.51-11.69-1.76-4.16-3.74-8.85-5.81-13.74-1.82-5-3.93-10.12-5.74-15.23-3.58-10.31-6.94-20.78-9.39-30.99-.56-2.35-1.26-5.29-2.08-8.77-.76-3.79-1.51-8.21-2.42-13.16-.51-2.47-.75-5.13-1.14-7.9-.36-2.77-.74-5.68-1.14-8.72-.25-3.05-.51-6.24-.78-9.55-.13-1.66-.26-3.34-.4-5.06-.14-1.72-.12-3.47-.19-5.26-.1-3.46-.21-7.31-.32-11.31,.06-4.01,.12-8.17,.19-12.25-.01-2.01,.1-4.04,.24-6.1,.13-2.06,.26-4.14,.39-6.26,.15-2.11,.22-4.26,.45-6.41,.24-2.15,.49-4.34,.74-6.54,.25-2.14,.5-4.29,.74-6.45,.26-2.16,.7-4.3,1.04-6.45,.82-4.54,1.49-9.21,2.65-13.87,1.1-4.71,2.03-9.56,3.48-14.36,1.37-4.82,2.61-9.77,4.35-14.65,.81-2.45,1.63-4.91,2.46-7.39,.8-2.49,1.86-4.91,2.79-7.4,.9-2.31,1.83-4.67,2.76-7.06,1-2.37,2.12-4.74,3.21-7.16,1.12-2.42,2.19-4.9,3.41-7.37,1.26-2.44,2.55-4.92,3.85-7.45,2.5-5.1,5.6-10.07,8.56-15.33,12.55-21.12,26.95-40.42,42.6-56.48,1.93-2.1,4.08-4.05,6.23-6.08,2.16-2.02,4.37-4.07,6.61-6.16,2.34-1.98,4.72-4,7.14-6.05,1.21-1.03,2.43-2.06,3.66-3.1,1.28-.99,2.56-1.99,3.86-2.99,10.47-8.45,21.34-15.82,31.97-22.63,5.49-3.19,10.79-6.61,16.38-9.4,2.77-1.45,5.52-2.88,8.26-4.32,2.81-1.29,5.62-2.58,8.41-3.86,1.41-.64,2.82-1.28,4.24-1.93,1.45-.58,2.9-1.16,4.36-1.74,2.92-1.15,5.87-2.3,8.83-3.46,2.99-1.08,6.05-2.05,9.1-3.09,3.05-1.04,6.12-2.08,9.27-2.91,3.5-.99,6.95-1.97,10.44-2.97,3.54-.84,7.11-1.69,10.82-2.56,3.63-.96,7.26-1.56,10.81-2.29,3.56-.66,7.03-1.52,10.52-1.95,3.49-.52,6.91-1.04,10.29-1.55,3.38-.51,6.75-.71,10.06-1.05,6.63-.76,13.16-.83,19.63-.97,3.29-.15,6.59,.12,9.92,.2,3.33,.16,6.68,.17,10.04,.49,6.72,.65,13.56,1.11,20.45,2.21,1.74,.24,3.48,.48,5.22,.72l2.62,.35,2.6,.47c3.47,.61,6.93,1.22,10.36,1.82,3.43,.57,6.77,1.45,10.09,2.12,3.31,.73,6.57,1.36,9.68,2.26,3.16,.84,6.27,1.68,9.34,2.5,3.07,.81,6.02,1.89,8.96,2.81,2.99,1.02,5.84,1.81,8.59,2.93,2.76,1.09,5.54,2.18,8.58,3.37,3,1.11,5.86,2.46,8.72,3.74,2.85,1.3,5.7,2.52,8.48,3.84,2.74,1.39,5.45,2.76,8.13,4.12,1.34,.68,2.68,1.36,4,2.03,1.3,.73,2.58,1.46,3.86,2.19,20.29,11.32,38.57,24.9,53.85,38.62,3.82,3.42,7.37,6.98,10.94,10.34,3.11,3.12,6.08,6.4,9.09,9.63,6.09,6.94,11.65,13.68,16.51,20.29,2.66,3.36,5.06,6.89,7.46,10.32,1.21,1.71,2.41,3.4,3.59,5.06,1.12,1.71,2.22,3.39,3.31,5.04,2.11,3.28,4.27,6.25,6.02,9.2,1.8,2.93,3.47,5.65,5.03,8.19,1.63,2.5,2.9,4.97,4.19,7.21,1.28,2.25,2.46,4.33,3.55,6.25,2.16,3.86,3.74,7.18,5.19,9.84,2.89,5.28,4.37,8.35,4.91,8.24,.49-.07-.31-3.62-3.07-10.06Zm-279.25,415.03c3.91,.24,8.79,.12,14.56,.11,.72,0,1.46-.01,2.21-.02,.75-.05,1.51-.09,2.28-.14,1.55-.1,3.15-.2,4.81-.31,1.66-.11,3.37-.23,5.13-.35,.88-.06,1.78-.13,2.68-.19,.9-.11,1.82-.22,2.75-.33,3.82-.48,7.7-.97,11.67-1.47,3.93-.7,7.95-1.42,12.05-2.15,8.16-1.68,16.68-3.59,25.51-6.21,4.5-1.17,8.81-2.69,13.27-4.17,4.49-1.39,8.97-3.18,13.8-5.05,9.73-3.81,18.88-8.31,27.6-12.89,7.83-4.22,15.27-8.52,21.97-12.76,1.7-1.05,3.41-2.1,5.13-3.15,1.67-1.12,3.35-2.24,5.04-3.37,3.38-2.24,6.82-4.45,10.1-6.93,6.72-4.73,13.27-9.95,19.75-15.46,3.15-2.85,6.39-5.76,9.48-8.67,2.78-2.83,5.49-5.59,8.11-8.27,2.63-2.66,4.91-5.46,7.23-8.02,1.14-1.3,2.27-2.57,3.36-3.81,1.06-1.27,2.05-2.55,3.04-3.78,1.97-2.47,3.84-4.81,5.6-7.02,1.71-2.25,3.22-4.43,4.68-6.42,1.44-1.98,2.78-3.83,4.01-5.54,1.15-1.76,2.21-3.37,3.16-4.83,2.06-3.18,3.66-5.64,4.73-7.3,2.05-3.61,4.01-7.05,5.86-10.31,1.85-3.25,3.27-6.5,4.74-9.44,2.98-5.88,4.89-11.23,6.59-15.47,.4-1.07,.79-2.08,1.15-3.03,.3-.97,.58-1.88,.85-2.73,.51-1.7,.91-3.15,1.2-4.34,.58-2.37,.7-3.68,.32-3.78-.38-.1-1.28,1.11-2.57,3.42-1.32,2.3-2.88,5.77-5.16,9.97-1.1,2.11-2.27,4.43-3.5,6.92-1.19,2.51-2.73,5.06-4.18,7.82-2.83,5.56-6.42,11.42-10.02,17.7-.88,1.47-2.3,3.61-4.07,6.4-.98,1.53-2.07,3.23-3.25,5.08-1.2,1.84-2.63,3.75-4.07,5.83-1.43,2.02-2.95,4.18-4.56,6.46-1.72,2.2-3.53,4.53-5.42,6.96-.95,1.22-1.92,2.46-2.9,3.74-1.05,1.22-2.12,2.47-3.21,3.74-2.2,2.52-4.39,5.22-6.82,7.85-2.41,2.53-4.89,5.13-7.43,7.81-2.33,2.45-5.02,4.8-7.72,7.36-1.38,1.26-2.74,2.59-4.21,3.85-1.49,1.24-3.01,2.51-4.56,3.8-1.55,1.29-3.12,2.6-4.73,3.93-1.61,1.33-3.35,2.55-5.06,3.86-3.45,2.59-6.94,5.34-10.75,7.86-3.77,2.58-7.56,5.36-11.65,7.86-4.04,2.59-7.95,5.22-11.97,7.49-3.97,2.35-7.82,4.75-11.78,6.77-4.32,2.33-8.55,4.66-12.86,6.56-4.27,1.99-8.43,3.96-12.63,5.48-4.26,1.62-8.63,3.38-13.11,4.72-4.46,1.41-8.84,2.94-13.18,3.99-17.28,4.74-34.11,7.6-47.52,8.78-1.71,.17-3.39,.4-5.05,.52-1.66,.1-3.29,.19-4.88,.29-3.18,.2-6.23,.4-9.12,.58-5.79,.08-10.94,.27-15.27,.45-8.67,0-13.62,.5-13.49,1.52,.14,1.03,4.48,1.66,12.28,2.2Zm290.27-329.05c-.03-.99-.09-2.21-.19-3.68-.09-1.46-.23-3.16-.54-5.07-.28-1.91-.6-4.05-.95-6.4-.41-2.35-.67-4.95-1.32-7.69-1.22-5.5-2.41-11.89-4.5-18.88-.99-3.51-1.93-7.24-3.28-11.03-1.26-3.66-2.33-7.35-3.8-11.31-1.57-4.06-3.1-8.34-4.87-12.7-1.91-4.3-3.77-8.83-5.92-13.4-1.18-2.35-2.38-4.76-3.63-7.24-.63-1.24-1.26-2.49-1.9-3.76-.67-1.25-1.41-2.49-2.13-3.76-1.49-2.56-3.01-5.19-4.54-7.84-1.58-2.61-3.33-5.13-4.97-7.64-3.23-5.1-6.93-9.81-10.42-14.56-1.7-2.41-3.68-4.59-5.49-6.88-1.86-2.24-3.63-4.55-5.52-6.72-1.8-2.04-3.78-4.3-5.86-6.66-1.05-1.17-2.06-2.42-3.19-3.59-1.13-1.17-2.27-2.35-3.41-3.54-2.3-2.34-4.52-4.8-6.95-7.09-2.43-2.29-4.88-4.61-7.36-6.94-1.22-1.19-2.51-2.3-3.82-3.41-1.3-1.12-2.61-2.24-3.92-3.36-1.31-1.13-2.63-2.26-3.96-3.39-1.33-1.12-2.75-2.16-4.13-3.25l-4.13-3.21c-1.21-.94-2.42-1.89-3.68-2.87-2.56-1.86-5.21-3.79-7.96-5.8-10.98-7.81-24.06-16.49-39.61-23.85-14.9-6.97-29.64-11.92-44-16.02-3.47-.91-7.16-2.03-11.02-2.97-3.87-.87-7.84-1.76-11.75-2.64-7.93-1.46-15.93-2.93-24.08-3.76-16.07-1.87-33.39-2.55-49.96-1.58-4.15,.28-8.29,.68-12.41,1l-3.09,.25-3.07,.41c-2.04,.27-4.08,.53-6.12,.8-1.88,.24-3.79,.48-5.72,.72-1.92,.32-3.85,.65-5.81,.97-3.92,.68-7.96,1.17-12.01,2.11-2.04,.42-4.1,.85-6.19,1.29-2.09,.44-4.21,.83-6.31,1.43-4.22,1.14-8.58,2.2-12.99,3.54-2.19,.73-4.41,1.47-6.65,2.21,0,0-1.54,.52-3.07,1.04-.77,.26-1.54,.52-2.11,.71-.58,.18-.95,.35-.95,.35l-11.98,4.71c-28.62,12.12-55.47,28.61-78.56,48.93-1.38,1.2-2.92,2.53-4.5,3.91-1.54,1.42-3.07,2.93-4.54,4.35-2.96,2.9-5.9,5.65-8.51,8.61-2.64,2.92-5.31,5.68-7.73,8.54-2.4,2.88-4.74,5.68-7.02,8.42-2.32,2.82-4.29,5.56-6.39,8.2-1.04,1.33-2.08,2.66-3.15,4.03-1.01,1.41-2.04,2.85-3.11,4.35-1.05,1.46-2.1,2.92-3.15,4.39-1.06,1.46-2.13,2.93-3.1,4.47-1.99,3.05-3.99,6.11-6.01,9.2-3.76,6.34-7.68,12.72-11.03,19.52-.89,1.73-1.76,3.41-2.61,5.07-.85,1.66-1.54,3.36-2.3,5-1.46,3.32-3,6.53-4.37,9.87-5.49,13.26-9.78,26.72-13.3,40.07-.71,3.02-1.43,6.06-2.16,9.15-.36,1.54-.77,3.08-1.11,4.65-.31,1.57-.61,3.16-.92,4.75-.61,3.19-1.29,6.41-1.88,9.7-.48,3.3-.96,6.65-1.45,10.05-.55,3.35-.83,6.87-1.12,10.4-.15,1.76-.29,3.53-.44,5.28-.15,1.75-.29,3.48-.3,5.18-.12,6.44-.48,12.78-.18,19.03,.08,3.12,.17,6.22,.25,9.3,.23,3.07,.46,6.11,.69,9.13,.32,6.05,1.31,11.92,1.98,17.72,.17,1.57,.42,3.11,.72,4.63,.28,1.52,.55,3.03,.83,4.52,.58,2.98,1.03,5.92,1.7,8.76,.68,2.83,1.35,5.59,2.01,8.29,.33,1.35,.65,2.68,.97,4,.34,1.31,.75,2.58,1.12,3.85,1.55,5.06,2.79,9.95,4.46,14.45,1.61,4.49,2.84,8.8,4.77,13.47,1.8,4.51,3.36,8.99,5.33,13.14,.94,2.1,1.86,4.16,2.76,6.19,.46,1.02,.91,2.02,1.36,3.02,.49,.98,.98,1.95,1.47,2.91,1.98,3.82,3.75,7.6,5.71,11.1,1.98,3.49,3.89,6.85,5.72,10.07,4.31,6.82,8.15,12.88,11.93,17.86,1.86,2.51,3.5,4.93,5.19,7.03,1.69,2.1,3.25,4.04,4.68,5.82,1.45,1.77,2.69,3.44,3.95,4.84,1.24,1.41,2.35,2.68,3.34,3.8,2.12,2.36,3.99,4.67,6.11,6.91,2.26,2.39,4.5,4.75,6.72,7.09,2.17,2.39,4.56,4.5,6.81,6.71,2.31,2.15,4.46,4.41,6.82,6.39,4.62,3.98,9.13,8.08,13.83,11.61,2.32,1.8,4.55,3.63,6.81,5.3,2.29,1.62,4.52,3.2,6.66,4.72,17.5,12.3,35.06,21.83,50.92,28.38,.97,.42,1.93,.83,2.87,1.23,.96,.36,1.9,.7,2.83,1.05,1.85,.68,3.64,1.34,5.35,1.97,1.72,.62,3.37,1.23,4.96,1.8,1.62,.49,3.17,.97,4.66,1.42,2.98,.89,5.7,1.71,8.18,2.45,2.49,.7,4.79,1.18,6.84,1.69,4.08,.93,7.21,1.75,9.4,2.03,2.18,.32,3.35,.4,3.43,.22,.08-.18-.99-.64-3.15-1.33-2.17-.67-5.35-1.87-9.59-3.2-8.42-2.64-20.76-7.01-34.59-13.22-13.66-6.18-30.12-15.17-48.38-28.29-2.31-1.68-4.61-3.35-6.91-5.02-2.29-1.69-4.46-3.54-6.71-5.32-4.56-3.5-8.88-7.45-13.48-11.48-2.33-1.94-4.42-4.19-6.68-6.31-2.2-2.19-4.56-4.26-6.67-6.62-2.17-2.3-4.37-4.63-6.58-6.98-2.36-2.5-4.64-5.3-6.96-7.88-1.08-1.26-2.35-2.62-3.64-4.19-1.27-1.58-2.66-3.31-4.14-5.15-1.46-1.86-3.12-3.77-4.7-5.91-1.57-2.15-3.23-4.41-4.95-6.77-.86-1.19-1.76-2.38-2.63-3.63-.83-1.27-1.68-2.57-2.54-3.88-1.7-2.65-3.54-5.34-5.28-8.22-1.82-3.19-3.73-6.51-5.7-9.96-1.93-3.48-3.71-7.21-5.68-10.99-3.75-7.67-7.46-16.02-10.86-25.04-.42-1.08-.86-2.22-1.32-3.39-.41-1.19-.82-2.42-1.25-3.68-.87-2.5-1.76-5.08-2.63-7.6-1.69-5.1-3.11-10.28-4.69-15.4-1.25-5.24-2.67-10.37-3.74-15.57-.5-2.61-.99-5.23-1.49-7.86-.25-1.32-.49-2.64-.74-3.96-.22-1.33-.36-2.68-.55-4.02-.38-2.87-.76-5.77-1.14-8.69-.44-2.92-.53-5.9-.81-8.89-.21-2.99-.56-6.01-.66-9.06-.09-3.05-.18-6.13-.27-9.23-.03-1.55-.12-3.11-.11-4.67,.03-1.56,.07-3.13,.1-4.7,.07-3.15,.13-6.32,.2-9.51,.22-2.84,.45-5.76,.68-8.75,.25-2.99,.45-6.07,.95-9.19,.43-3.09,.88-6.3,1.34-9.59,.49-3.29,1.24-6.63,1.86-10.06,.32-1.71,.65-3.44,.98-5.19,.41-1.73,.82-3.47,1.23-5.22,.86-3.49,1.55-7.08,2.53-10.61,3.38-13.27,7.95-26.51,13.34-39.66,1.45-3.28,2.9-6.54,4.33-9.76,1.43-3.22,3.13-6.28,4.66-9.35,.8-1.55,1.6-3.12,2.41-4.69,.89-1.53,1.78-3.07,2.68-4.63,.9-1.55,1.8-3.11,2.72-4.68,.89-1.58,1.83-3.15,2.85-4.68,1.99-3.09,4.01-6.21,6.05-9.37,2.18-3.07,4.38-6.17,6.61-9.3,1.1-1.61,2.31-3.18,3.54-4.75,1.22-1.58,2.44-3.18,3.67-4.77,2.37-3.24,4.97-6.26,7.37-9.17l3.52-4.27c1.17-1.42,2.46-2.75,3.69-4.13,2.52-2.71,4.91-5.56,7.54-8.18,2.61-2.58,5.03-4.97,7.51-7.41,2.52-2.4,5.25-4.67,8.22-7.3,11.56-9.89,23.92-18.95,36.96-27.03,13.11-7.96,26.86-14.91,41.05-20.75l5.91-2.36c2.93-1.24,5.96-2.22,5.96-2.22,4.08-1.38,7.41-2.57,11.32-3.77,3.85-1.03,7.75-2.08,11.73-3.14,3.99-.98,8.11-1.74,12.26-2.65,1.03-.22,2.07-.44,3.12-.66l3.2-.52c2.15-.36,4.32-.72,6.51-1.08,4.35-.84,8.8-1.26,13.1-1.86,2.11-.26,4.2-.59,6.29-.8,2.1-.17,4.19-.35,6.28-.52,4.17-.35,8.3-.76,12.43-.8l6.15-.21c2.04-.06,4.08-.17,6.11-.09l12.13,.25c4.02,.24,8.03,.57,12.05,.85l3.02,.22,3.01,.37c2.01,.25,4.02,.5,6.03,.75,2,.26,4,.47,5.98,.76,1.97,.35,3.95,.69,5.91,1.04,3.93,.71,7.87,1.29,11.72,2.26,3.86,.92,7.73,1.68,11.53,2.71,3.88,1.08,7.98,2.22,11.85,3.3,15.5,4.69,29.54,10.11,42.11,16.22,2.97,1.55,5.97,3.12,9.01,4.71,3,1.64,5.92,3.52,8.92,5.32,1.49,.92,3.01,1.81,4.5,2.77,1.47,1,2.95,2,4.44,3.02,1.49,1.01,2.99,2.03,4.5,3.05,.76,.51,1.51,1.02,2.28,1.54,.74,.55,1.48,1.1,2.22,1.66,2.92,2.15,6.07,4.46,9.14,6.72,3,2.36,5.92,4.67,8.48,6.69l2.02,1.59,1.94,1.67c1.29,1.11,2.57,2.23,3.85,3.33,2.56,2.21,5.12,4.37,7.48,6.71,2.4,2.29,4.79,4.56,7.15,6.81,2.25,2.36,4.48,4.69,6.69,7.01,1.1,1.16,2.22,2.29,3.28,3.47,1.04,1.2,2.07,2.39,3.1,3.57,2.07,2.43,4.46,5.04,6.49,7.53,4.07,5.13,8.1,9.84,11.49,14.66,1.73,2.38,3.49,4.65,5.08,6.94,1.55,2.33,3.05,4.6,4.52,6.81,3.05,4.4,5.36,8.71,7.86,12.98,.62,1.08,1.23,2.16,1.85,3.23,.56,1.1,1.12,2.21,1.67,3.3,1.1,2.2,2.2,4.38,3.29,6.55,1.13,2.15,2.08,4.36,3.03,6.54,.96,2.18,1.91,4.34,2.85,6.48,.99,2.12,1.78,4.29,2.61,6.42,.83,2.13,1.64,4.23,2.45,6.31,.4,1.03,.83,2.05,1.19,3.09,.35,1.04,.7,2.08,1.05,3.1,.7,2.05,1.39,4.05,2.05,5.97,1.38,3.69,2.37,7.31,3.39,10.72,2.18,6.79,3.54,13,4.95,18.37,.75,2.67,1.16,5.21,1.67,7.5,.5,2.3,.95,4.39,1.36,6.27,.21,.94,.42,1.82,.6,2.65,.16,.83,.3,1.61,.44,2.34,.28,1.44,.53,2.66,.76,3.65,.46,1.97,.82,3,1.08,3.02,.26,.03,.36-.98,.31-2.95ZM187.22,563.18c.71,1.63,1.6,3.74,2.87,6.2,1.32,2.43,2.91,5.28,4.76,8.53,3.79,6.43,9.11,14.45,16.04,23.31,1.52,2.04,3.32,4,5.07,6.14,1.81,2.09,3.57,4.37,5.61,6.55,4.07,4.36,8.35,9.14,13.38,13.79,10.17,9.76,21.26,18.71,33.85,27.12,3.07,2.24,6.44,4.14,9.72,6.25,1.66,1.02,3.3,2.11,5.01,3.09,1.73,.96,3.46,1.93,5.21,2.91,1.93,1.07,3.84,2.12,5.73,3.16,1.93,.97,3.86,1.86,5.76,2.77,1.9,.9,3.78,1.79,5.64,2.67,1.85,.9,3.77,1.58,5.62,2.37,7.39,3.19,14.76,5.72,21.78,8.32,3.75,1.25,7.58,2.53,11.5,3.84,3.96,1.16,8.01,2.34,12.11,3.54,4.09,1.16,8.39,2.06,12.71,3.14,2.15,.57,4.36,.95,6.56,1.35,2.2,.41,4.41,.81,6.62,1.22,1.03,.19,2.06,.38,3.1,.57,1.04,.14,2.09,.28,3.14,.42,2.1,.29,4.21,.59,6.34,.89,4.24,.71,8.58,1,12.96,1.44,1.98,.19,3.98,.37,5.99,.56,2.01,.09,4.04,.18,6.08,.26,4.08,.16,8.21,.44,12.4,.28,2.11-.03,4.22-.06,6.32-.1,2.1-.03,4.19-.05,6.26-.25,4.15-.32,8.26-.58,12.3-.95,3.94-.51,7.87-1.01,11.79-1.52,3.91-.53,7.76-1.36,11.62-2.01,3.79-.58,7.44-1.54,11.06-2.33,1.92-.43,3.83-.86,5.73-1.28,1.9-.46,3.76-1.03,5.63-1.54,7.81-2.04,15.12-4.65,22.14-7.13,3.46-1.38,6.84-2.72,10.14-4.04,3.31-1.31,6.42-2.87,9.54-4.21,1.52-.68,3.04-1.35,4.56-2.03,1.48-.74,2.96-1.48,4.44-2.22,2.94-1.5,5.94-2.87,8.83-4.43,2.88-1.58,5.75-3.17,8.62-4.75l2.16-1.18,2.09-1.29,4.19-2.57c5.65-3.29,10.89-7.15,16.22-10.77,2.71-2.08,5.02-3.86,7.2-5.54,1.09-.84,2.15-1.65,3.21-2.46,1.06-.82,2.05-1.72,3.12-2.6,2.13-1.78,4.21-3.52,6.24-5.22,2.07-1.66,3.88-3.51,5.76-5.19,1.85-1.71,3.65-3.36,5.4-4.97,1.67-1.69,3.29-3.33,4.86-4.91,1.62-1.65,3.2-3.26,4.74-4.83,1.46-1.64,2.87-3.24,4.24-4.79,2.73-3.09,5.29-5.94,7.34-8.69,2.1-2.68,3.93-5.02,5.51-7.03,1.51-2.06,2.7-3.83,3.69-5.22,4.26-5.84,7.65-11.52,10.94-16.76,1.62-2.63,3-5.29,4.44-7.8,1.4-2.54,2.88-4.95,4.06-7.45,2.71-5.42,5.28-10.39,7.19-15.15,1-2.35,1.96-4.6,2.86-6.73,.85-2.16,1.56-4.25,2.27-6.21,5.62-15.63,7.38-24.97,6.68-25.31-.75-.38-3.98,9.03-10.66,24.38-.85,1.9-1.62,3.95-2.62,5.98-.98,2.05-2.01,4.17-3.06,6.37-1.99,4.45-4.56,8.96-7.09,13.73-5.81,10.3-12.7,22.13-20.57,32.87-.92,1.25-1.94,2.92-3.39,4.71-1.41,1.82-3.04,3.93-4.88,6.3-.91,1.13-1.8,2.39-2.86,3.6-1.06,1.22-2.18,2.5-3.35,3.85-2.36,2.69-4.88,5.7-7.96,8.74-3.01,3.08-6.19,6.5-9.95,9.86-1.84,1.72-3.74,3.5-5.72,5.34-2.06,1.75-4.18,3.56-6.38,5.43-1.08,.92-2.2,1.88-3.34,2.86-1.15,.97-2.38,1.87-3.56,2.81-2.38,1.86-4.73,3.7-6.81,5.34-2.28,1.68-4.7,3.32-7.16,5.05-1.23,.86-2.49,1.73-3.75,2.62-1.28,.87-2.63,1.66-3.97,2.52-10.58,6.94-23.26,13.65-36.97,20.04-13.53,6.23-27.27,11.63-41.24,15.38-3.63,1.14-7.39,1.89-11.12,2.79-1.94,.46-3.88,.92-5.81,1.38-1.95,.37-3.9,.73-5.84,1.09-7.58,1.59-15.35,2.57-23.16,3.53-3.86,.33-7.68,.65-11.49,.97-3.81,.2-7.62,.23-11.43,.34-3.84,.18-7.72-.08-11.64-.18-1.96-.06-3.93-.13-5.91-.2-1.97-.16-3.95-.33-5.94-.5-4.39-.38-8.85-.67-13.28-1.37-4.44-.63-8.93-1.07-13.36-1.97-8.27-1.34-16.58-3.31-24.91-5.55-4.14-1.26-8.33-2.33-12.45-3.72-4.1-1.45-8.3-2.74-12.47-4.28-4.22-1.66-8.35-3.1-12.28-4.66-3.9-1.64-7.67-3.22-11.32-4.76-3.57-1.72-7.03-3.39-10.38-5-3.35-1.63-6.44-3.51-9.5-5.21-3.38-1.84-6.56-3.94-9.72-5.96-1.58-1.01-3.16-2.01-4.72-3.01-1.55-1.01-3.02-2.12-4.52-3.17-1.49-1.06-2.98-2.11-4.45-3.15-1.48-1.03-2.94-2.06-4.31-3.18-2.79-2.18-5.52-4.32-8.19-6.41-2.6-2.17-5.07-4.37-7.49-6.47-1.2-1.07-2.42-2.07-3.53-3.14-1.11-1.09-2.2-2.15-3.26-3.2-8.92-8.41-16.37-17.32-23.19-25.39-2.95-3.85-5.72-7.46-8.3-10.83-2.41-3.49-4.65-6.72-6.7-9.7-2.02-2.99-3.69-5.82-5.29-8.23-1.59-2.43-3-4.53-4.08-6.35-2.25-3.59-3.82-5.7-4.59-6.04-.76-.33-.42,1.19,.96,4.47Zm522.72-148.1c.02-1.47,.05-3.1,.08-4.91,0-1.81-.15-3.77-.25-5.91-.25-4.26-.4-9.19-1.16-14.66-.32-2.74-.67-5.63-1.02-8.66-.52-3.01-1.07-6.16-1.64-9.44-.3-1.62-.55-3.35-.93-5.12-.41-1.76-.84-3.59-1.27-5.45-.9-3.71-1.7-7.6-2.89-11.3-4.21-15.14-10.37-31.09-17.59-46.53-1.86-4.06-4.05-8.23-6.21-12.68-2.32-4.36-4.87-8.88-7.57-13.58-1.44-2.27-2.93-4.63-4.45-7.03-.77-1.2-1.54-2.4-2.32-3.62-.84-1.17-1.69-2.35-2.54-3.54-1.71-2.35-3.44-4.71-5.14-7.05-1.77-2.29-3.63-4.47-5.39-6.62-3.48-4.42-7.33-8.4-10.97-12.45-1.79-2.05-3.76-3.91-5.64-5.83-1.88-1.91-3.76-3.81-5.62-5.7-1.88-1.77-3.77-3.55-5.69-5.35-1.93-1.79-3.76-3.74-5.84-5.5-4.1-3.59-8.2-7.53-12.98-11.28-9.02-7.65-20.33-15.61-32.11-22.21-2.9-1.58-5.74-3.16-8.56-4.63-2.88-1.37-5.7-2.71-8.49-4.04-1.4-.64-2.75-1.36-4.16-1.93-1.4-.59-2.79-1.17-4.17-1.74-2.75-1.16-5.47-2.31-8.16-3.45-2.66-1.02-5.37-2.06-8.12-3.11-1.37-.54-2.76-1.09-4.16-1.64-1.42-.49-2.85-.98-4.3-1.47-2.88-1-5.81-2.02-8.77-3.06-3.01-.89-6.06-1.8-9.14-2.71-1.55-.45-3.08-.95-4.66-1.36-1.58-.38-3.17-.77-4.76-1.16-3.2-.74-6.4-1.63-9.68-2.26l-9.92-1.81-2.5-.45-2.53-.31c-1.69-.2-3.38-.41-5.08-.61-5.99-.86-11.94-1.12-17.77-1.53-2.91-.26-5.82-.23-8.69-.29-2.87-.05-5.72-.11-8.54-.16-2.8,.07-5.58,.15-8.36,.22l-4.17,.09c-1.39,0-2.78,.06-4.17,.18-2.78,.19-5.57,.37-8.39,.56-1.41,.1-2.83,.16-4.25,.29l-4.28,.49c-2.83,.32-5.71,.65-8.61,.98-2.9,.39-5.8,.94-8.73,1.41-5.88,.85-11.69,2.31-17.45,3.61-2.8,.57-5.51,1.49-8.25,2.22-2.73,.79-5.48,1.5-8.17,2.36-2.68,.9-5.35,1.81-8.01,2.71l-3.99,1.34-3.91,1.53c-20.84,8.05-40.32,18.08-57.67,29.79-8.36,5.74-17.56,12.55-25.07,19.3-1.91,1.69-3.8,3.35-5.65,4.98-1.81,1.68-3.52,3.4-5.24,5.05-1.71,1.66-3.39,3.29-5.05,4.9-1.58,1.68-3.13,3.32-4.65,4.93-1.57,1.64-3.05,3.2-4.49,4.7-1.37,1.56-2.7,3.07-4,4.55-2.68,3.02-5.48,6.03-8.07,9.3-2.62,3.24-5.45,6.4-7.94,9.89-1.29,1.72-2.58,3.45-3.89,5.19-.65,.88-1.3,1.75-1.96,2.64-.61,.91-1.22,1.83-1.84,2.75-1.21,1.83-2.45,3.71-3.69,5.58-.62,.94-1.23,1.88-1.84,2.81-.56,.96-1.12,1.92-1.67,2.87-2.04,3.6-4.12,7-5.89,10.4-1.69,3.34-3.33,6.58-4.92,9.74-1.55,3.17-2.86,6.34-4.23,9.35-.66,1.49-1.31,2.93-1.93,4.34-.56,1.43-1.1,2.82-1.63,4.18-1.07,2.71-2.08,5.28-3.06,7.78-1.79,5.05-3.39,9.79-4.99,14.63-1.3,4.61-2.43,8.65-3.41,12.12-.86,3.5-1.47,6.44-2.01,8.77-1.23,4.97-1.97,9.72-2.78,14.32-.91,4.59-1.4,9.11-1.99,13.66-.27,2.32-.66,4.59-.81,6.86-.17,2.27-.34,4.51-.51,6.72-.16,2.21-.32,4.39-.48,6.55-.05,2.16-.1,4.29-.14,6.38-.09,4.19-.26,8.26-.05,12.19,.15,3.93,.18,7.73,.41,11.38,.64,7.06,.93,13.27,1.85,19.23,.39,2.96,.72,5.8,1.12,8.5,.5,2.68,.97,5.22,1.41,7.61,.47,2.38,.83,4.63,1.32,6.67,.52,2.03,1,3.89,1.42,5.57,.9,3.36,1.58,5.94,2.2,7.66,.65,1.71,1.09,2.59,1.3,2.6,.42,0-.2-3.35-1.05-9.51-.24-1.54-.52-3.26-.82-5.15-.35-1.88-.6-3.96-.85-6.23-.49-4.53-1.36-9.74-1.74-15.8-.22-2.99-.61-6.24-.81-9.67-.17-3.44-.35-7.05-.54-10.75-.14-1.79-.13-3.63-.13-5.5-.01-1.87-.02-3.77-.04-5.71,0-1.94-.07-3.91-.02-5.91,.08-2,.17-4.03,.25-6.1,.08-2.06,.16-4.16,.24-6.29,.07-2.13,.35-4.27,.52-6.45,.41-4.35,.67-8.84,1.4-13.39,.65-4.62,1.19-9.53,2.19-14.44,.44-2.46,.88-4.95,1.31-7.43,.47-2.47,1.09-4.91,1.62-7.33,.55-2.27,1.07-5.14,1.98-8.46,.92-3.33,1.99-7.17,3.19-11.5,1.32-3.87,2.91-8.85,4.87-14.32,2.15-5.4,4.3-11.44,7.01-17.29,2.43-5.89,5.6-11.91,8.79-18.36,1.73-3.05,3.5-6.15,5.28-9.3,1.54-2.87,3.58-5.69,5.57-8.79,1.02-1.53,2.07-3.11,3.14-4.74,1.16-1.57,2.36-3.17,3.58-4.83,1.23-1.65,2.48-3.35,3.78-5.09,1.31-1.73,2.77-3.41,4.2-5.2,1.44-1.77,2.91-3.6,4.43-5.46,1.59-1.81,3.21-3.66,4.88-5.56,1.73-1.93,3.31-3.91,5.04-5.72,1.72-1.82,3.41-3.62,5.08-5.4,6.74-7.19,13.82-13.87,21.07-20.21,3.62-3.17,7.44-6.07,11.14-9.07,3.75-2.78,8.18-5.92,12.37-8.83,17.25-11.54,36.52-21.55,57.18-29.52,2.56-1.06,5.23-1.84,7.85-2.79,2.64-.88,5.25-1.89,7.94-2.67,2.69-.78,5.39-1.56,8.09-2.34,1.35-.38,2.7-.81,4.06-1.16l4.12-.97c2.62-.61,5.26-1.23,7.93-1.85,2.67-.58,5.41-.98,8.15-1.48,2.75-.43,5.5-1.06,8.33-1.35,2.82-.34,5.67-.68,8.55-1.03,2.85-.41,5.77-.6,8.72-.8l8.93-.67c3-.09,6.02-.18,9.02-.26,1.5-.05,3-.11,4.5-.16,1.5-.05,2.99,.02,4.47,.02,2.97,.03,5.91,.06,8.82,.09,2.92,0,5.8,.3,8.68,.43,2.87,.2,5.73,.26,8.55,.57,2.82,.32,5.62,.64,8.4,.95,1.53,.18,3.06,.32,4.58,.55l4.54,.79c3.02,.54,6.05,1.05,9.08,1.64,3,.71,6.02,1.43,9.06,2.15,1.52,.38,3.06,.7,4.57,1.13,1.51,.45,3.04,.9,4.57,1.35,12.2,3.35,24.47,8.1,36.9,13.14,3.01,1.27,5.95,2.52,8.85,3.75,2.84,1.35,5.62,2.68,8.35,3.98,1.37,.65,2.72,1.3,4.07,1.94,1.31,.71,2.6,1.41,3.89,2.11,2.57,1.41,5.09,2.8,7.57,4.16,9.47,5.76,18.61,12.08,27.52,19.65,1.12,.93,2.25,1.86,3.38,2.8,1.15,.92,2.27,1.88,3.35,2.91,2.21,2,4.44,4.01,6.71,6.06,1.15,1,2.28,2.06,3.38,3.16l3.36,3.25c2.23,2.17,4.54,4.23,6.54,6.4,2.08,2.14,4.13,4.24,6.15,6.3,2.04,2.04,3.83,4.23,5.72,6.27,1.83,2.09,3.75,4.04,5.42,6.14,1.69,2.08,3.35,4.11,4.97,6.11,.82,1.01,1.62,2,2.42,2.98,.74,1.02,1.47,2.03,2.2,3.03,1.44,2,2.85,3.97,4.24,5.92,1.43,1.92,2.65,3.97,3.92,5.98,1.26,2.02,2.52,4.05,3.8,6.11,2.45,4.13,4.66,8.4,7.01,12.61,2.12,4.33,4.24,8.68,6.39,13.05,8.38,18.35,14.34,34.48,18.21,48.66,1.07,3.56,1.74,6.94,2.57,10.16,.39,1.62,.78,3.21,1.16,4.79,.3,1.6,.6,3.2,.9,4.81,.6,3.19,1.18,6.25,1.73,9.17,.41,2.95,.81,5.75,1.18,8.42,.88,5.32,1.21,10.12,1.67,14.28,.21,2.08,.46,4.01,.61,5.78,.13,1.78,.24,3.39,.34,4.84,.47,5.79,.96,8.92,1.47,9,.51,.08,.82-2.99,.96-8.85Zm22.43-64.31c-.39-1.85-.74-3.91-1.33-6.09-.61-2.18-1.26-4.52-1.96-7.02-.74-2.48-1.43-5.14-2.35-7.86-.96-2.71-1.96-5.55-2.99-8.49-.52-1.46-1.05-2.95-1.59-4.47-.57-1.51-1.22-3.02-1.85-4.57-1.27-3.1-2.59-6.3-3.95-9.6-1.42-3.1-2.89-6.29-4.41-9.6-.77-1.65-1.5-3.36-2.33-5.06-.86-1.69-1.73-3.41-2.62-5.17-3.42-7.07-7.54-14.31-11.88-21.85-2.27-3.63-4.69-7.47-7.09-11.31-2.53-3.75-5.16-7.42-7.57-10.88-9.28-12.69-19.42-24.76-29.88-35.48-2.65-2.71-5.39-5.25-8.02-7.82-1.48-1.4-2.88-2.83-4.36-4.12-1.49-1.29-2.95-2.55-4.39-3.79-5.66-5.05-11.28-9.21-16.32-13.08-5.1-3.79-9.87-6.92-13.97-9.84-4.24-2.71-7.92-5.07-11.03-7.06-6.51-4.05-11.66-6.95-14.24-8.53-2.77-1.55-5.58-2.97-8.29-4.39-2.74-1.38-5.35-2.85-8-3.97-2.63-1.15-5.16-2.26-7.53-3.3-2.38-1.03-4.62-1.98-6.75-2.67-8.46-2.96-13.46-4.19-13.58-3.32-.08,.73,3.9,3.13,10.38,6.4,3.3,1.56,7.2,3.71,11.91,6.13,4.77,2.31,10.11,5.37,16.36,8.67,1.5,.74,3.68,2.02,6.54,3.69,1.44,.83,3.05,1.75,4.82,2.77,1.77,1.02,3.74,2.09,5.77,3.42,8.48,5.25,18.48,11.5,28.24,18.82,2.44,1.84,4.99,3.61,7.43,5.58,2.42,1.99,4.86,4,7.31,6.01,1.22,1.03,2.48,2.01,3.65,3.09,1.17,1.08,2.35,2.17,3.53,3.26,2.6,2.47,5.35,4.87,7.94,7.5,10.59,10.4,20.82,22.21,30.21,34.56,10.3,13.42,18.18,27.38,25.23,41.8,3.6,7.06,6.6,14.51,9.62,21.4,2.6,6.87,5.26,13.22,7.13,19.23,1.01,2.98,1.97,5.81,2.89,8.49,.8,2.71,1.55,5.27,2.25,7.66,.72,2.39,1.4,4.61,2.01,6.65,.56,2.06,1.07,3.95,1.53,5.64,1.91,6.77,3.36,10.48,4.31,10.43,1.1-.08,.68-4.47-.79-11.88Z"/><rect class="b" x="0" y="0" width="850.39" height="850.39"/></svg>