<?xml version="1.0" encoding="UTF-8"?><svg id="a" xmlns="http://www.w3.org/2000/svg" viewBox="0 0 850.39 850.39"><defs><style>.b{fill:none;}</style></defs><rect class="b" x="0" y="0" width="850.39" height="850.39"/><g><path d="M841.26,351.38c1.63,1.63,3.8,2.54,6.1,2.54h3.03v-2.16h-3.03c-1.73,0-3.35-.68-4.57-1.91-1.22-1.22-1.89-2.85-1.89-4.58l.24-135.97c0-1.73,.68-3.35,1.9-4.57,1.22-1.22,2.84-1.89,4.57-1.89h2.78v-2.16h-2.78c-2.3,0-4.47,.89-6.1,2.51-1.63,1.63-2.54,3.8-2.54,6.1l-.24,135.97c0,2.31,.89,4.48,2.52,6.11Z"/><path d="M848.69,231.23c0-.38,.78-1.4,1.71-2.37v-4.32c-.97-.97-1.82-2-1.82-2.38,0,.83-3.66,4.59-4.48,4.6,.83,0,4.59,3.66,4.6,4.48Z"/><path d="M848.92,207.07h-.65c-.09,0-.12,.06-.14,.13l-1.6,9.52c-.02,.13-.04,.27-.14,.35l-.49,.4c-.05,.04-.12,.1-.12,.14s.03,.08,.1,.08h2.02c.09,0,.12-.04,.12-.08s-.11-.1-.18-.17l-.39-.33c-.07-.07-.11-.16-.09-.26l.26-1.56c.02-.06,.05-.1,.1-.1h1.3c.09,0,.14,.06,.16,.13l.26,1.49c.02,.13-.02,.23-.09,.28l-.48,.38c-.05,.04-.12,.09-.12,.13s.03,.08,.12,.08h1.49v-2.99l-1.31-7.48c-.02-.08-.07-.16-.16-.16Zm.04,7.38h-1.11s-.07-.03-.05-.08l.58-3.49h.04l.61,3.47c.02,.06-.02,.1-.07,.1Z"/><path d="M805.55,200.81l-84.71-.15h-.02c-2.3,0-4.47,.89-6.1,2.52-1.64,1.63-2.54,3.8-2.54,6.1l-.24,135.97c0,4.76,3.86,8.65,8.62,8.65l84.71,.15h.02c2.3,0,4.47-.89,6.1-2.52,1.63-1.63,2.54-3.8,2.54-6.11l.24-135.97c0-4.76-3.86-8.65-8.62-8.65Zm6.22,144.62c0,1.73-.68,3.35-1.9,4.57-1.22,1.22-2.84,1.89-4.57,1.89h-.01l-84.71-.15c-3.57,0-6.47-2.91-6.46-6.48l.24-135.97c0-1.73,.68-3.35,1.9-4.57,1.22-1.22,2.84-1.89,4.57-1.89h.01l84.71,.15c3.57,0,6.47,2.92,6.46,6.48l-.24,135.97Z"/><path d="M724.42,217.49l-.51-.37c-.12-.09-.18-.24-.19-.38l-1.67-9.51c-.02-.08-.07-.16-.16-.16h-.65c-.09,0-.12,.06-.14,.13l-1.6,9.52c-.02,.13-.03,.27-.14,.35l-.49,.4c-.05,.04-.12,.1-.12,.14s.04,.08,.11,.08h2.02c.09,0,.12-.04,.12-.08s-.1-.1-.18-.17l-.39-.33c-.07-.07-.11-.16-.09-.26l.26-1.56c.02-.06,.05-.1,.1-.1h1.3c.09,0,.14,.06,.16,.13l.26,1.49c.02,.13-.02,.23-.09,.28l-.47,.38c-.05,.04-.12,.09-.12,.13s.04,.08,.12,.08h2.53c.09,0,.12-.04,.12-.08s-.05-.08-.11-.13Zm-2.5-3.03h-1.11s-.07-.03-.05-.08l.58-3.49h.04l.62,3.47c.02,.06-.02,.1-.07,.1Z"/><path d="M807.6,335.62h-2.02c-.09,0-.12,.04-.12,.08s.11,.1,.18,.17l.39,.32c.07,.07,.11,.16,.09,.26l-.26,1.56c-.02,.06-.05,.1-.1,.1h-1.3c-.09,0-.14-.06-.16-.13l-.26-1.49c-.02-.13,.02-.23,.09-.28l.48-.38c.05-.04,.12-.09,.12-.13s-.03-.08-.12-.08h-2.53c-.09,0-.12,.04-.12,.08s.05,.08,.11,.13l.51,.37c.12,.09,.18,.24,.19,.38l1.67,9.51c.02,.08,.07,.16,.16,.16h.65c.09,0,.12-.06,.14-.13l1.6-9.52c.02-.13,.04-.27,.14-.35l.49-.4c.05-.04,.12-.1,.12-.14s-.03-.08-.1-.08Zm-2.5,6.81h-.04l-.62-3.47c-.02-.06,.02-.1,.07-.1h1.11s.07,.03,.05,.08l-.58,3.49Z"/><path d="M775.34,270.68c-3.12,0-5.81,1.83-7.07,4.46-.99,1.18-2.53,1.7-4.08,2.04,.35-1.9,.79-3.98,2.26-5.21,2.64-1.27,4.46-3.95,4.46-7.07,0-4.33-3.51-7.85-7.85-7.85s-7.85,3.51-7.85,7.85c0,3.12,1.83,5.81,4.46,7.07,1.28,.93,1.85,3.23,2.25,5.21-1.55-.34-3.08-.85-4.07-2.03-1.26-2.64-3.95-4.46-7.07-4.46-4.33,0-7.85,3.51-7.85,7.85s3.51,7.85,7.85,7.85c3.12,0,6.1-2.12,7.36-4.75,1.09-1.21,2.49-1.5,4.11-1.8,.16,2.22,.08,4.62-.26,6.02-1.59,4.56-5.6,10-7.74,11.85,2.91-2.5,14.71-2.5,17.62,0-2.14-1.84-6.44-7.58-7.74-11.85-.41-1.71-.36-4.9-.33-6.04,1.65,.31,3.07,.59,4.18,1.82,1.27,2.64,4.24,4.75,7.36,4.75,4.33,0,7.85-3.51,7.85-7.85s-3.51-7.85-7.85-7.85Z"/><path d="M805.55,26.24l-84.71-.15h-.02c-4.76,0-8.63,3.87-8.64,8.62l-.24,135.97c0,4.76,3.86,8.65,8.62,8.65l84.71,.15h.02c2.3,0,4.47-.89,6.1-2.52,1.63-1.63,2.54-3.8,2.54-6.11l.24-135.97c0-4.76-3.86-8.65-8.62-8.65Zm6.22,144.62c0,1.73-.68,3.35-1.9,4.57-1.22,1.22-2.84,1.89-4.57,1.89h-.01l-84.71-.15c-3.57,0-6.47-2.92-6.46-6.48l.24-135.97c0-3.56,2.91-6.46,6.47-6.46h.01l84.71,.15c3.57,0,6.47,2.92,6.46,6.48l-.24,135.97Z"/><path d="M721.42,49.24c-1.21-2.29-4.38-1.44-4.4,.82-.03,2.53,3.23,3.86,4.32,6.23l.02,.03,.02-.03c1.13-2.35,4.41-3.61,4.44-6.14,.02-2.26-3.12-3.18-4.39-.91Z"/><path d="M804.58,147.66l-.02-.03-.02,.03c-1.1,2.36-4.36,3.67-4.35,6.21,0,2.26,3.17,3.13,4.4,.85,1.25,2.28,4.4,1.38,4.39-.88-.01-2.53-3.29-3.81-4.4-6.17Z"/><path d="M718.84,43.12h2.02c.09,0,.12-.04,.12-.08s-.1-.1-.18-.17l-.39-.32c-.07-.07-.11-.16-.09-.26l.26-1.56c.02-.06,.05-.1,.1-.1h1.3c.09,0,.14,.06,.16,.13l.26,1.49c.02,.13-.02,.23-.09,.28l-.47,.38c-.05,.04-.12,.09-.12,.13s.04,.08,.12,.08h2.53c.09,0,.12-.04,.12-.08s-.05-.08-.11-.13l-.51-.37c-.12-.09-.18-.24-.19-.38l-1.67-9.51c-.02-.08-.07-.16-.16-.16h-.65c-.09,0-.12,.06-.14,.13l-1.6,9.52c-.02,.13-.03,.27-.14,.35l-.49,.4c-.05,.04-.12,.1-.12,.14s.04,.08,.11,.08Zm2.5-6.81h.04l.62,3.47c.02,.06-.02,.1-.07,.1h-1.11s-.07-.03-.05-.08l.58-3.49Z"/><path d="M807.6,161.05h-2.02c-.09,0-.12,.04-.12,.08s.11,.1,.18,.17l.39,.33c.07,.07,.11,.16,.09,.26l-.26,1.56c-.02,.06-.05,.1-.1,.1h-1.3c-.09,0-.14-.06-.16-.13l-.26-1.49c-.02-.13,.02-.23,.09-.28l.48-.38c.05-.04,.12-.09,.12-.13s-.03-.08-.12-.08h-2.53c-.09,0-.12,.04-.12,.08s.05,.08,.11,.13l.51,.37c.12,.09,.18,.24,.19,.38l1.67,9.51c.02,.08,.07,.16,.16,.16h.65c.09,0,.12-.06,.14-.13l1.6-9.52c.02-.13,.04-.27,.14-.35l.49-.4c.05-.04,.12-.1,.12-.14s-.03-.08-.1-.08Zm-2.5,6.81h-.04l-.62-3.47c-.02-.06,.02-.1,.07-.1h1.11s.07,.03,.05,.08l-.58,3.49Z"/><path d="M763.06,93.1c-4.48-8.26-15.92-5.06-15.92,3.13,0,9.18,11.85,12.42,15.85,20.96l.06,.12,.06-.12c4-8.54,15.85-11.79,15.85-20.96,0-8.19-11.43-11.39-15.92-3.13Z"/><path d="M847.61,26.09c-2.3,0-4.47,.89-6.1,2.52-1.63,1.63-2.54,3.8-2.54,6.1l-.24,135.97c0,2.31,.89,4.48,2.52,6.11,1.63,1.63,3.8,2.54,6.1,2.54h3.03v-2.16h-3.03c-1.73,0-3.35-.68-4.57-1.91-1.22-1.22-1.89-2.85-1.89-4.58l.24-135.97c0-1.73,.68-3.35,1.9-4.57,1.22-1.22,2.84-1.89,4.57-1.89h2.78v-2.16h-2.78Z"/><path d="M845.77,58.94c.73-.63,3.47-.69,4.62-.2v-.15c-.62-.69-1.48-1.94-1.81-2.93-.08-.33-.13-.66-.15-.99,.51,.74,1.24,1.07,1.96,1.09v-6.08c-.83-.79-1.66-1.59-2.12-2.58l-.02-.03-.02,.03c-1.14,2.44-4.53,3.78-4.53,6.4,0,2.19,2.9,3.04,4.31,1.21,.03-.09,0,.58-.1,.96-.34,1.12-1.56,2.76-2.15,3.27Z"/><path d="M848.92,32.5h-.65c-.09,0-.12,.06-.14,.13l-1.6,9.52c-.02,.13-.04,.27-.14,.35l-.49,.4c-.05,.04-.12,.1-.12,.14s.03,.08,.1,.08h2.02c.09,0,.12-.04,.12-.08s-.11-.1-.18-.17l-.39-.32c-.07-.07-.11-.16-.09-.26l.26-1.56c.02-.06,.05-.1,.1-.1h1.3c.09,0,.14,.06,.16,.13l.26,1.49c.02,.13-.02,.23-.09,.28l-.48,.38c-.05,.04-.12,.09-.12,.13s.03,.08,.12,.08h1.49v-2.99l-1.31-7.48c-.02-.08-.07-.16-.16-.16Zm.04,7.38h-1.11s-.07-.03-.05-.08l.58-3.49h.04l.61,3.47c.02,.06-.02,.1-.07,.1Z"/><path d="M841.26,722.05c1.63,1.63,3.8,2.54,6.1,2.54h3.03v-2.16h-3.03c-1.73,0-3.35-.68-4.57-1.91-1.22-1.22-1.89-2.85-1.89-4.58l.24-135.97c0-1.73,.68-3.35,1.9-4.57,1.22-1.22,2.84-1.89,4.57-1.89h2.78v-2.16h-2.78c-2.3,0-4.47,.89-6.1,2.51-1.63,1.63-2.54,3.8-2.54,6.11l-.24,135.97c0,2.31,.89,4.48,2.52,6.11Z"/><path d="M848.69,601.9c0-.38,.78-1.4,1.71-2.37v-4.32c-.97-.97-1.82-1.99-1.82-2.38,0,.83-3.66,4.59-4.48,4.6,.83,0,4.59,3.66,4.6,4.48Z"/><path d="M848.92,577.74h-.65c-.09,0-.12,.06-.14,.13l-1.6,9.52c-.02,.13-.04,.27-.14,.35l-.49,.4c-.05,.04-.12,.1-.12,.14s.03,.08,.1,.08h2.02c.09,0,.12-.04,.12-.08s-.11-.1-.18-.17l-.39-.33c-.07-.07-.11-.16-.09-.25l.26-1.56c.02-.06,.05-.1,.1-.1h1.3c.09,0,.14,.06,.16,.13l.26,1.49c.02,.13-.02,.23-.09,.28l-.48,.38c-.05,.04-.12,.09-.12,.13s.03,.08,.12,.08h1.49v-2.99l-1.31-7.48c-.02-.08-.07-.16-.16-.16Zm.04,7.38h-1.11s-.07-.03-.05-.08l.58-3.49h.04l.61,3.47c.02,.06-.02,.1-.07,.1Z"/><path d="M805.55,571.48l-84.71-.15h-.02c-2.3,0-4.47,.89-6.1,2.52-1.64,1.63-2.54,3.8-2.54,6.11l-.24,135.97c0,4.76,3.86,8.65,8.62,8.65l84.71,.15h.02c2.3,0,4.47-.89,6.1-2.52,1.63-1.63,2.54-3.8,2.54-6.1l.24-135.97c0-4.76-3.86-8.65-8.62-8.65Zm6.22,144.62c0,1.73-.68,3.35-1.9,4.57-1.22,1.22-2.84,1.89-4.57,1.89h-.01l-84.71-.15c-3.57,0-6.47-2.91-6.46-6.48l.24-135.97c0-1.73,.68-3.35,1.9-4.57,1.22-1.22,2.84-1.89,4.57-1.89h.01l84.71,.15c3.57,0,6.47,2.92,6.46,6.48l-.24,135.97Z"/><path d="M724.42,588.16l-.51-.37c-.12-.08-.18-.24-.19-.38l-1.67-9.51c-.02-.08-.07-.16-.16-.16h-.65c-.09,0-.12,.06-.14,.13l-1.6,9.52c-.02,.13-.03,.27-.14,.35l-.49,.4c-.05,.04-.12,.1-.12,.14s.04,.08,.11,.08h2.02c.09,0,.12-.04,.12-.08s-.1-.1-.18-.17l-.39-.33c-.07-.07-.11-.16-.09-.25l.26-1.56c.02-.06,.05-.1,.1-.1h1.3c.09,0,.14,.06,.16,.13l.26,1.49c.02,.13-.02,.23-.09,.28l-.47,.38c-.05,.04-.12,.09-.12,.13s.04,.08,.12,.08h2.53c.09,0,.12-.04,.12-.08s-.05-.08-.11-.13Zm-2.5-3.03h-1.11s-.07-.03-.05-.08l.58-3.49h.04l.62,3.47c.02,.06-.02,.1-.07,.1Z"/><path d="M807.6,706.29h-2.02c-.09,0-.12,.04-.12,.08s.11,.1,.18,.17l.39,.32c.07,.07,.11,.16,.09,.26l-.26,1.56c-.02,.06-.05,.1-.1,.1h-1.3c-.09,0-.14-.06-.16-.13l-.26-1.49c-.02-.13,.02-.23,.09-.28l.48-.38c.05-.04,.12-.09,.12-.13s-.03-.08-.12-.08h-2.53c-.09,0-.12,.04-.12,.08s.05,.08,.11,.13l.51,.37c.12,.09,.18,.24,.19,.38l1.67,9.51c.02,.08,.07,.16,.16,.16h.65c.09,0,.12-.06,.14-.13l1.6-9.52c.02-.13,.04-.27,.14-.35l.49-.4c.05-.04,.12-.1,.12-.14s-.03-.08-.1-.08Zm-2.5,6.82h-.04l-.62-3.47c-.02-.06,.02-.1,.07-.1h1.11s.07,.03,.05,.08l-.58,3.49Z"/><path d="M775.34,641.35c-3.12,0-5.81,1.83-7.07,4.46-.99,1.18-2.53,1.7-4.08,2.04,.35-1.9,.79-3.98,2.26-5.21,2.64-1.27,4.46-3.95,4.46-7.07,0-4.33-3.51-7.85-7.85-7.85s-7.85,3.51-7.85,7.85c0,3.12,1.83,5.81,4.46,7.07,1.28,.93,1.85,3.23,2.25,5.21-1.55-.34-3.08-.85-4.07-2.03-1.26-2.64-3.95-4.46-7.07-4.46-4.33,0-7.85,3.51-7.85,7.85s3.51,7.85,7.85,7.85c3.12,0,6.1-2.12,7.36-4.75,1.09-1.21,2.49-1.5,4.11-1.8,.16,2.22,.08,4.62-.26,6.02-1.59,4.56-5.6,10-7.74,11.85,2.91-2.5,14.71-2.5,17.62,0-2.14-1.84-6.44-7.58-7.74-11.85-.41-1.71-.36-4.9-.33-6.04,1.65,.31,3.07,.59,4.18,1.82,1.27,2.64,4.24,4.75,7.36,4.75,4.33,0,7.85-3.51,7.85-7.85s-3.51-7.85-7.85-7.85Z"/><path d="M805.55,396.91l-84.71-.15h-.02c-4.76,0-8.63,3.87-8.64,8.62l-.24,135.97c0,4.76,3.86,8.65,8.62,8.65l84.71,.15h.02c2.3,0,4.47-.89,6.1-2.52,1.63-1.63,2.54-3.8,2.54-6.11l.24-135.97c0-4.76-3.86-8.65-8.62-8.65Zm6.22,144.62c0,1.73-.68,3.35-1.9,4.57-1.22,1.22-2.84,1.89-4.57,1.89h-.01l-84.71-.15c-3.57,0-6.47-2.92-6.46-6.48l.24-135.97c0-3.57,2.91-6.46,6.47-6.46h.01l84.71,.15c3.57,0,6.47,2.92,6.46,6.48l-.24,135.97Z"/><path d="M721.42,419.91c-1.21-2.29-4.38-1.44-4.4,.82-.03,2.53,3.23,3.86,4.32,6.23l.02,.03,.02-.03c1.13-2.35,4.41-3.61,4.44-6.14,.02-2.26-3.12-3.18-4.39-.91Z"/><path d="M804.58,518.33l-.02-.03-.02,.03c-1.1,2.36-4.36,3.67-4.35,6.21,0,2.26,3.17,3.13,4.4,.85,1.25,2.28,4.4,1.38,4.39-.88-.01-2.53-3.29-3.81-4.4-6.17Z"/><path d="M718.84,413.79h2.02c.09,0,.12-.04,.12-.08s-.1-.1-.18-.17l-.39-.33c-.07-.07-.11-.16-.09-.26l.26-1.56c.02-.06,.05-.1,.1-.1h1.3c.09,0,.14,.06,.16,.13l.26,1.49c.02,.13-.02,.23-.09,.28l-.47,.38c-.05,.04-.12,.09-.12,.13s.04,.08,.12,.08h2.53c.09,0,.12-.04,.12-.08s-.05-.08-.11-.13l-.51-.37c-.12-.09-.18-.24-.19-.38l-1.67-9.51c-.02-.08-.07-.16-.16-.16h-.65c-.09,0-.12,.06-.14,.13l-1.6,9.52c-.02,.13-.03,.27-.14,.35l-.49,.4c-.05,.04-.12,.1-.12,.14s.04,.08,.11,.08Zm2.5-6.81h.04l.62,3.47c.02,.06-.02,.1-.07,.1h-1.11s-.07-.03-.05-.08l.58-3.49Z"/><path d="M807.6,531.72h-2.02c-.09,0-.12,.04-.12,.08s.11,.1,.18,.17l.39,.33c.07,.07,.11,.16,.09,.26l-.26,1.56c-.02,.06-.05,.1-.1,.1h-1.3c-.09,0-.14-.06-.16-.13l-.26-1.49c-.02-.13,.02-.23,.09-.28l.48-.38c.05-.04,.12-.09,.12-.13s-.03-.08-.12-.08h-2.53c-.09,0-.12,.04-.12,.08s.05,.08,.11,.13l.51,.37c.12,.09,.18,.24,.19,.38l1.67,9.51c.02,.08,.07,.16,.16,.16h.65c.09,0,.12-.06,.14-.13l1.6-9.52c.02-.13,.04-.27,.14-.35l.49-.4c.05-.04,.12-.1,.12-.14s-.03-.08-.1-.08Zm-2.5,6.81h-.04l-.62-3.47c-.02-.06,.02-.1,.07-.1h1.11s.07,.03,.05,.08l-.58,3.49Z"/><path d="M763.06,463.77c-4.48-8.26-15.92-5.06-15.92,3.13,0,9.18,11.85,12.42,15.85,20.96l.06,.12,.06-.12c4-8.54,15.85-11.79,15.85-20.96,0-8.19-11.43-11.39-15.92-3.13Z"/><path d="M841.26,547.47c1.63,1.63,3.8,2.54,6.1,2.54h3.03v-2.16h-3.03c-1.73,0-3.35-.68-4.57-1.91-1.22-1.22-1.89-2.85-1.89-4.58l.24-135.97c0-1.73,.68-3.35,1.9-4.57,1.22-1.22,2.84-1.89,4.57-1.89h2.78v-2.16h-2.78c-2.3,0-4.47,.89-6.1,2.51-1.63,1.63-2.54,3.8-2.54,6.1l-.24,135.97c0,2.31,.89,4.48,2.52,6.11Z"/><path d="M845.77,429.61c.73-.63,3.47-.69,4.62-.2v-.15c-.62-.69-1.48-1.94-1.81-2.93-.08-.33-.13-.66-.15-.99,.51,.74,1.24,1.07,1.96,1.09v-6.08c-.83-.79-1.66-1.59-2.12-2.58l-.02-.03-.02,.03c-1.14,2.44-4.53,3.78-4.53,6.4,0,2.19,2.9,3.04,4.31,1.21,.03-.09,0,.58-.1,.96-.34,1.13-1.56,2.76-2.15,3.27Z"/><path d="M848.92,403.17h-.65c-.09,0-.12,.06-.14,.13l-1.6,9.52c-.02,.13-.04,.27-.14,.35l-.49,.4c-.05,.04-.12,.1-.12,.14s.03,.08,.1,.08h2.02c.09,0,.12-.04,.12-.08s-.11-.1-.18-.17l-.39-.33c-.07-.07-.11-.16-.09-.26l.26-1.56c.02-.06,.05-.1,.1-.1h1.3c.09,0,.14,.06,.16,.13l.26,1.49c.02,.13-.02,.23-.09,.28l-.48,.38c-.05,.04-.12,.09-.12,.13s.03,.08,.12,.08h1.49v-2.99l-1.31-7.48c-.02-.08-.07-.16-.16-.16Zm.04,7.38h-1.11s-.07-.03-.05-.08l.58-3.49h.04l.61,3.47c.02,.06-.02,.1-.07,.1Z"/><path d="M805.55,767.58l-84.71-.15h-.02c-4.76,0-8.63,3.87-8.64,8.62l-.13,74.34h2.17l.13-74.33c0-3.56,2.91-6.46,6.47-6.46h.01l84.71,.15c3.57,0,6.47,2.92,6.46,6.48l-.13,74.17h2.17l.13-74.16c0-4.76-3.86-8.65-8.62-8.65Z"/><path d="M717.02,791.4c-.03,2.53,3.23,3.86,4.32,6.23l.02,.03,.02-.03c1.13-2.35,4.41-3.61,4.44-6.14,.02-2.26-3.12-3.18-4.39-.91-1.21-2.29-4.38-1.44-4.4,.82Z"/><path d="M721.87,784.25c-.05,.04-.12,.09-.12,.13s.04,.08,.12,.08h2.53c.09,0,.12-.04,.12-.08s-.05-.08-.11-.13l-.51-.37c-.12-.09-.18-.24-.19-.38l-1.67-9.51c-.02-.08-.07-.16-.16-.16h-.65c-.09,0-.12,.06-.14,.13l-1.6,9.52c-.02,.13-.03,.27-.14,.35l-.49,.4c-.05,.04-.12,.1-.12,.14s.04,.08,.11,.08h2.02c.09,0,.12-.04,.12-.08s-.1-.1-.18-.17l-.39-.32c-.07-.07-.11-.16-.09-.26l.26-1.56c.02-.06,.05-.1,.1-.1h1.3c.09,0,.14,.06,.16,.13l.26,1.49c.02,.13-.02,.23-.09,.28l-.47,.38Zm.05-3.03h-1.11s-.07-.03-.05-.08l.58-3.49h.04l.62,3.47c.02,.06-.02,.1-.07,.1Z"/><path d="M778.97,837.57c0-8.19-11.43-11.39-15.92-3.13-4.48-8.26-15.92-5.06-15.92,3.13,0,5.65,4.49,9.05,8.88,12.83h14.07c4.39-3.77,8.88-7.18,8.88-12.83Z"/><path d="M841.14,776.06c0-1.73,.68-3.35,1.9-4.57,1.22-1.22,2.84-1.89,4.57-1.89h2.78v-2.16h-2.78c-2.3,0-4.47,.89-6.1,2.51-1.63,1.63-2.54,3.8-2.54,6.1l-.13,74.34h2.17l.13-74.33Z"/><path d="M843.71,794.83c0,2.19,2.9,3.04,4.31,1.21,.03-.09,0,.58-.1,.96-.34,1.13-1.56,2.76-2.15,3.27,.73-.63,3.47-.69,4.62-.2v-.15c-.62-.69-1.48-1.94-1.81-2.93-.08-.33-.13-.66-.15-.99,.51,.74,1.24,1.07,1.96,1.09v-6.08c-.83-.79-1.66-1.59-2.12-2.58l-.02-.03-.02,.03c-1.14,2.44-4.53,3.78-4.53,6.4Z"/><path d="M848.92,773.84h-.65c-.09,0-.12,.06-.14,.13l-1.6,9.52c-.02,.13-.04,.27-.14,.35l-.49,.4c-.05,.04-.12,.1-.12,.14s.03,.08,.1,.08h2.02c.09,0,.12-.04,.12-.08s-.11-.1-.18-.17l-.39-.32c-.07-.07-.11-.16-.09-.26l.26-1.56c.02-.06,.05-.1,.1-.1h1.3c.09,0,.14,.06,.16,.13l.26,1.49c.02,.13-.02,.23-.09,.28l-.48,.38c-.05,.04-.12,.09-.12,.13s.03,.08,.12,.08h1.49v-2.99l-1.31-7.48c-.02-.08-.07-.16-.16-.16Zm.04,7.38h-1.11s-.07-.03-.05-.08l.58-3.49h.04l.61,3.47c.02,.06-.02,.1-.07,.1Z"/><path d="M673.51,200.81l-84.71-.15h-.02c-2.3,0-4.47,.89-6.1,2.52-1.64,1.63-2.54,3.8-2.54,6.1l-.24,135.97c0,2.31,.89,4.48,2.52,6.11,1.63,1.63,3.8,2.54,6.1,2.54l84.71,.15h.02c2.3,0,4.47-.89,6.1-2.52,1.63-1.63,2.54-3.8,2.54-6.11l.24-135.97c0-4.76-3.86-8.65-8.62-8.66Zm6.22,144.62c0,1.73-.68,3.35-1.9,4.57-1.22,1.22-2.84,1.89-4.57,1.89h-.01l-84.71-.15c-1.73,0-3.35-.68-4.57-1.9-1.22-1.22-1.89-2.85-1.89-4.58l.24-135.97c0-1.73,.68-3.35,1.9-4.57,1.22-1.22,2.84-1.89,4.57-1.89h.01l84.71,.15c3.57,0,6.47,2.92,6.46,6.48l-.24,135.97Z"/><path d="M589.74,222.16c0,.83-3.66,4.59-4.48,4.6,.83,0,4.59,3.66,4.6,4.48-.01-.83,3.66-4.59,4.48-4.6-.83,0-4.59-3.66-4.6-4.48Z"/><path d="M672.96,319.7c0,.83-3.7,4.55-4.52,4.55,.82,0,4.55,3.7,4.55,4.53,0-.83,3.7-4.55,4.52-4.55-.83,0-4.55-3.7-4.55-4.52Z"/><path d="M587.05,217.7h2.02c.09,0,.12-.04,.12-.08s-.11-.1-.18-.17l-.39-.33c-.07-.07-.11-.16-.09-.26l.26-1.56c.02-.06,.05-.1,.1-.1h1.3c.09,0,.14,.06,.16,.13l.26,1.49c.02,.13-.02,.23-.09,.28l-.48,.38c-.05,.04-.12,.09-.12,.13s.04,.08,.12,.08h2.53c.09,0,.12-.04,.12-.08s-.05-.08-.11-.13l-.51-.37c-.12-.09-.18-.24-.19-.38l-1.67-9.51c-.02-.08-.07-.16-.16-.16h-.65c-.09,0-.12,.06-.14,.13l-1.6,9.52c-.02,.13-.04,.27-.14,.35l-.49,.4c-.05,.04-.12,.1-.12,.14s.03,.08,.1,.08Zm2.5-6.81h.04l.62,3.47c.02,.06-.02,.1-.07,.1h-1.11s-.07-.03-.05-.08l.58-3.49Z"/><path d="M675.8,335.62h-2.02c-.09,0-.12,.04-.12,.08s.1,.1,.18,.17l.39,.32c.07,.07,.1,.16,.09,.26l-.26,1.56c-.02,.06-.05,.1-.1,.1h-1.3c-.09,0-.14-.06-.16-.13l-.26-1.49c-.02-.13,.02-.23,.09-.28l.47-.38c.05-.04,.12-.09,.12-.13s-.04-.08-.12-.08h-2.53c-.09,0-.12,.04-.12,.08s.05,.08,.11,.13l.51,.37c.12,.09,.18,.24,.19,.38l1.67,9.51c.02,.08,.07,.16,.16,.16h.65c.09,0,.12-.06,.14-.13l1.6-9.52c.02-.13,.04-.27,.14-.35l.49-.4c.05-.04,.12-.1,.12-.14s-.04-.08-.11-.08Zm-2.5,6.81h-.03l-.62-3.47c-.02-.06,.02-.1,.07-.1h1.11s.07,.03,.05,.08l-.58,3.49Z"/><path d="M631.02,259.95c0,3.17-14.25,17.42-17.42,17.42,3.17,0,17.42,14.25,17.42,17.42,0-3.17,14.25-17.42,17.42-17.42-3.17,0-17.42-14.25-17.42-17.42Z"/><path d="M546.72,200.81l-84.71-.15h-.02c-2.3,0-4.47,.89-6.1,2.52-1.63,1.63-2.54,3.8-2.54,6.1l-.24,135.97c0,4.76,3.86,8.65,8.62,8.65l84.71,.15h.02c2.3,0,4.46-.89,6.1-2.52,1.63-1.63,2.54-3.8,2.54-6.11l.24-135.97c0-4.76-3.86-8.65-8.62-8.65Zm6.22,144.62c0,1.73-.68,3.35-1.9,4.57-1.22,1.22-2.84,1.89-4.57,1.89h-.01l-84.71-.15c-3.57,0-6.47-2.91-6.46-6.48l.24-135.97c0-1.73,.68-3.35,1.9-4.57,1.22-1.22,2.84-1.89,4.57-1.89h.01l84.71,.15c3.57,0,6.47,2.92,6.46,6.48l-.24,135.97Z"/><path d="M465.59,217.49l-.51-.37c-.12-.09-.18-.24-.19-.38l-1.67-9.51c-.02-.08-.07-.16-.16-.16h-.65c-.09,0-.12,.06-.14,.13l-1.6,9.52c-.02,.13-.04,.27-.14,.35l-.49,.4c-.05,.04-.12,.1-.12,.14s.04,.08,.11,.08h2.02c.09,0,.12-.04,.12-.08s-.11-.1-.18-.17l-.39-.33c-.07-.07-.1-.16-.09-.26l.26-1.56c.02-.06,.05-.1,.1-.1h1.3c.09,0,.14,.06,.16,.13l.26,1.49c.02,.13-.02,.23-.09,.28l-.47,.38c-.05,.04-.12,.09-.12,.13s.04,.08,.12,.08h2.53c.09,0,.12-.04,.12-.08s-.05-.08-.11-.13Zm-2.5-3.03h-1.11s-.07-.03-.05-.08l.58-3.49h.04l.62,3.47c.02,.06-.02,.1-.07,.1Z"/><path d="M548.77,335.62h-2.02c-.09,0-.12,.04-.12,.08s.11,.1,.18,.17l.39,.32c.07,.07,.11,.16,.09,.26l-.26,1.56c-.02,.06-.05,.1-.1,.1h-1.3c-.09,0-.14-.06-.16-.13l-.26-1.49c-.02-.13,.02-.23,.09-.28l.48-.38c.05-.04,.12-.09,.12-.13s-.03-.08-.12-.08h-2.53c-.09,0-.12,.04-.12,.08s.05,.08,.11,.13l.51,.37c.12,.09,.18,.24,.19,.38l1.67,9.51c.02,.08,.07,.16,.16,.16h.65c.09,0,.12-.06,.14-.13l1.6-9.52c.02-.13,.04-.27,.14-.35l.49-.4c.05-.04,.12-.1,.12-.14s-.03-.08-.1-.08Zm-2.5,6.81h-.04l-.61-3.47c-.02-.06,.02-.1,.07-.1h1.11s.07,.03,.05,.08l-.58,3.49Z"/><path d="M516.51,270.68c-3.12,0-5.81,1.83-7.07,4.46-.99,1.18-2.53,1.7-4.08,2.04,.35-1.9,.79-3.98,2.26-5.21,2.64-1.27,4.46-3.95,4.46-7.07,0-4.33-3.51-7.85-7.85-7.85s-7.85,3.51-7.85,7.85c0,3.12,1.83,5.81,4.46,7.07,1.28,.93,1.85,3.23,2.25,5.21-1.55-.34-3.08-.85-4.07-2.03-1.27-2.64-3.95-4.46-7.07-4.46-4.33,0-7.85,3.51-7.85,7.85s3.51,7.85,7.85,7.85c3.12,0,6.1-2.12,7.36-4.75,1.09-1.21,2.49-1.5,4.11-1.8,.16,2.22,.08,4.62-.26,6.02-1.59,4.56-5.6,10-7.74,11.85,2.91-2.5,14.71-2.5,17.62,0-2.14-1.84-6.44-7.58-7.74-11.85-.41-1.71-.36-4.9-.33-6.04,1.65,.31,3.07,.59,4.18,1.82,1.26,2.64,4.24,4.75,7.36,4.75,4.33,0,7.85-3.51,7.85-7.85s-3.51-7.85-7.85-7.85Z"/><path d="M546.72,26.24l-84.71-.15h-.02c-4.76,0-8.63,3.87-8.64,8.62l-.24,135.97c0,4.76,3.86,8.65,8.62,8.65l84.71,.15h.02c2.3,0,4.46-.89,6.1-2.52,1.63-1.63,2.54-3.8,2.54-6.11l.24-135.97c0-4.76-3.86-8.65-8.62-8.65Zm6.22,144.62c0,1.73-.68,3.35-1.9,4.57-1.22,1.22-2.84,1.89-4.57,1.89h-.01l-84.71-.15c-3.57,0-6.47-2.92-6.46-6.48l.24-135.97c0-3.56,2.91-6.46,6.47-6.46h.01l84.71,.15c3.57,0,6.47,2.92,6.46,6.48l-.24,135.97Z"/><path d="M462.6,49.24c-1.22-2.29-4.38-1.44-4.4,.82-.02,2.53,3.23,3.86,4.32,6.23l.02,.03,.02-.03c1.13-2.35,4.41-3.61,4.44-6.14,.02-2.26-3.12-3.18-4.39-.91Z"/><path d="M545.75,147.66l-.02-.03-.02,.03c-1.09,2.36-4.36,3.67-4.35,6.21,0,2.26,3.17,3.13,4.4,.85,1.25,2.28,4.4,1.38,4.39-.88-.01-2.53-3.29-3.81-4.4-6.17Z"/><path d="M460.02,43.12h2.02c.09,0,.12-.04,.12-.08s-.11-.1-.18-.17l-.39-.32c-.07-.07-.1-.16-.09-.26l.26-1.56c.02-.06,.05-.1,.1-.1h1.3c.09,0,.14,.06,.16,.13l.26,1.49c.02,.13-.02,.23-.09,.28l-.47,.38c-.05,.04-.12,.09-.12,.13s.04,.08,.12,.08h2.53c.09,0,.12-.04,.12-.08s-.05-.08-.11-.13l-.51-.37c-.12-.09-.18-.24-.19-.38l-1.67-9.51c-.02-.08-.07-.16-.16-.16h-.65c-.09,0-.12,.06-.14,.13l-1.6,9.52c-.02,.13-.04,.27-.14,.35l-.49,.4c-.05,.04-.12,.1-.12,.14s.04,.08,.11,.08Zm2.5-6.81h.04l.62,3.47c.02,.06-.02,.1-.07,.1h-1.11s-.07-.03-.05-.08l.58-3.49Z"/><path d="M548.77,161.05h-2.02c-.09,0-.12,.04-.12,.08s.11,.1,.18,.17l.39,.33c.07,.07,.11,.16,.09,.26l-.26,1.56c-.02,.06-.05,.1-.1,.1h-1.3c-.09,0-.14-.06-.16-.13l-.26-1.49c-.02-.13,.02-.23,.09-.28l.48-.38c.05-.04,.12-.09,.12-.13s-.03-.08-.12-.08h-2.53c-.09,0-.12,.04-.12,.08s.05,.08,.11,.13l.51,.37c.12,.09,.18,.24,.19,.38l1.67,9.51c.02,.08,.07,.16,.16,.16h.65c.09,0,.12-.06,.14-.13l1.6-9.52c.02-.13,.04-.27,.14-.35l.49-.4c.05-.04,.12-.1,.12-.14s-.03-.08-.1-.08Zm-2.5,6.81h-.04l-.61-3.47c-.02-.06,.02-.1,.07-.1h1.11s.07,.03,.05,.08l-.58,3.49Z"/><path d="M504.23,93.1c-4.48-8.26-15.92-5.06-15.92,3.13,0,9.18,11.85,12.42,15.85,20.96l.06,.12,.06-.12c4-8.54,15.85-11.79,15.85-20.96,0-8.19-11.43-11.39-15.92-3.13Z"/><path d="M673.51,26.24l-84.71-.15h-.02c-2.3,0-4.47,.89-6.1,2.52-1.64,1.63-2.54,3.8-2.54,6.1l-.24,135.97c0,2.31,.89,4.48,2.52,6.11,1.63,1.63,3.8,2.54,6.1,2.54l84.71,.15h.02c2.3,0,4.47-.89,6.1-2.52,1.63-1.63,2.54-3.8,2.54-6.11l.24-135.97c0-4.76-3.86-8.65-8.62-8.65Zm6.22,144.62c0,1.73-.68,3.35-1.9,4.57-1.22,1.22-2.84,1.89-4.57,1.89h-.01l-84.71-.15c-1.73,0-3.35-.68-4.57-1.9-1.22-1.22-1.89-2.85-1.89-4.58l.24-135.97c0-1.73,.68-3.35,1.9-4.57,1.22-1.22,2.84-1.89,4.57-1.89h.01l84.71,.15c3.57,0,6.47,2.92,6.46,6.48l-.24,135.97Z"/><path d="M589.45,47.1l-.02-.03-.02,.03c-1.14,2.44-4.53,3.78-4.53,6.4,0,2.19,2.9,3.04,4.31,1.21,.03-.09,0,.58-.1,.96-.34,1.12-1.56,2.76-2.15,3.27,.82-.7,4.14-.7,4.96,0-.59-.51-1.75-2.09-2.15-3.27-.08-.33-.13-.66-.15-.99,1.38,1.99,4.37,1.06,4.37-1.18,0-2.62-3.38-3.96-4.53-6.4Z"/><path d="M673.54,149.63c.02-.33,.07-.66,.15-.99,.4-1.18,1.56-2.77,2.15-3.28-.82,.71-4.14,.71-4.96,0,.59,.51,1.81,2.15,2.15,3.27,.09,.38,.13,1.06,.1,.96-1.41-1.83-4.31-.99-4.31,1.21,0,2.62,3.39,3.96,4.53,6.4l.02,.03,.02-.03c1.14-2.44,4.53-3.78,4.53-6.4,0-2.24-2.99-3.17-4.37-1.18Z"/><path d="M587.05,43.12h2.02c.09,0,.12-.04,.12-.08s-.11-.1-.18-.17l-.39-.32c-.07-.07-.11-.16-.09-.26l.26-1.56c.02-.06,.05-.1,.1-.1h1.3c.09,0,.14,.06,.16,.13l.26,1.49c.02,.13-.02,.23-.09,.28l-.48,.38c-.05,.04-.12,.09-.12,.13s.04,.08,.12,.08h2.53c.09,0,.12-.04,.12-.08s-.05-.08-.11-.13l-.51-.37c-.12-.09-.18-.24-.19-.38l-1.67-9.51c-.02-.08-.07-.16-.16-.16h-.65c-.09,0-.12,.06-.14,.13l-1.6,9.52c-.02,.13-.04,.27-.14,.35l-.49,.4c-.05,.04-.12,.1-.12,.14s.03,.08,.1,.08Zm2.5-6.81h.04l.62,3.47c.02,.06-.02,.1-.07,.1h-1.11s-.07-.03-.05-.08l.58-3.49Z"/><path d="M675.8,161.05h-2.02c-.09,0-.12,.04-.12,.08s.1,.1,.18,.17l.39,.33c.07,.07,.1,.16,.09,.26l-.26,1.56c-.02,.06-.05,.1-.1,.1h-1.3c-.09,0-.14-.06-.16-.13l-.26-1.49c-.02-.13,.02-.23,.09-.28l.47-.38c.05-.04,.12-.09,.12-.13s-.04-.08-.12-.08h-2.53c-.09,0-.12,.04-.12,.08s.05,.08,.11,.13l.51,.37c.12,.09,.18,.24,.19,.38l1.67,9.51c.02,.08,.07,.16,.16,.16h.65c.09,0,.12-.06,.14-.13l1.6-9.52c.02-.13,.04-.27,.14-.35l.49-.4c.05-.04,.12-.1,.12-.14s-.04-.08-.11-.08Zm-2.5,6.81h-.03l-.62-3.47c-.02-.06,.02-.1,.07-.1h1.11s.07,.03,.05,.08l-.58,3.49Z"/><path d="M631.08,82.59l-.06-.12-.06,.12c-3.91,8.35-15.5,12.93-15.5,21.9,0,7.5,9.92,10.4,14.76,4.12,.1-.32,0,2-.34,3.3-1.16,3.85-5.34,9.46-7.36,11.21,2.81-2.41,14.18-2.41,16.99,0-2.03-1.74-6-7.16-7.37-11.21-.28-1.12-.45-2.25-.52-3.38,4.72,6.81,14.95,3.62,14.95-4.04,0-8.97-11.58-13.55-15.5-21.9Z"/><path d="M673.51,571.48l-84.71-.15h-.02c-2.3,0-4.47,.89-6.1,2.52-1.64,1.63-2.54,3.8-2.54,6.11l-.24,135.97c0,2.31,.89,4.48,2.52,6.11,1.63,1.63,3.8,2.54,6.1,2.54l84.71,.15h.02c2.3,0,4.47-.89,6.1-2.52,1.63-1.63,2.54-3.8,2.54-6.1l.24-135.97c0-4.76-3.86-8.65-8.62-8.65Zm6.22,144.62c0,1.73-.68,3.35-1.9,4.57-1.22,1.22-2.84,1.89-4.57,1.89h-.01l-84.71-.15c-1.73,0-3.35-.68-4.57-1.9-1.22-1.22-1.89-2.85-1.89-4.58l.24-135.97c0-1.73,.68-3.35,1.9-4.57,1.22-1.22,2.84-1.89,4.57-1.89h.01l84.71,.15c3.57,0,6.47,2.92,6.46,6.48l-.24,135.97Z"/><path d="M589.74,592.83c0,.83-3.66,4.59-4.48,4.6,.83,0,4.59,3.66,4.6,4.48-.01-.83,3.66-4.59,4.48-4.6-.83,.01-4.59-3.66-4.6-4.48Z"/><path d="M672.96,690.37c0,.83-3.7,4.55-4.52,4.55,.82,0,4.55,3.7,4.55,4.53,0-.83,3.7-4.55,4.52-4.55-.83,0-4.55-3.7-4.55-4.52Z"/><path d="M587.05,588.37h2.02c.09,0,.12-.04,.12-.08s-.11-.1-.18-.17l-.39-.33c-.07-.07-.11-.16-.09-.25l.26-1.56c.02-.06,.05-.1,.1-.1h1.3c.09,0,.14,.06,.16,.13l.26,1.49c.02,.13-.02,.23-.09,.28l-.48,.38c-.05,.04-.12,.09-.12,.13s.04,.08,.12,.08h2.53c.09,0,.12-.04,.12-.08s-.05-.08-.11-.13l-.51-.37c-.12-.08-.18-.24-.19-.38l-1.67-9.51c-.02-.08-.07-.16-.16-.16h-.65c-.09,0-.12,.06-.14,.13l-1.6,9.52c-.02,.13-.04,.27-.14,.35l-.49,.4c-.05,.04-.12,.1-.12,.14s.03,.08,.1,.08Zm2.5-6.81h.04l.62,3.47c.02,.06-.02,.1-.07,.1h-1.11s-.07-.03-.05-.08l.58-3.49Z"/><path d="M675.8,706.29h-2.02c-.09,0-.12,.04-.12,.08s.1,.1,.18,.17l.39,.32c.07,.07,.1,.16,.09,.26l-.26,1.56c-.02,.06-.05,.1-.1,.1h-1.3c-.09,0-.14-.06-.16-.13l-.26-1.49c-.02-.13,.02-.23,.09-.28l.47-.38c.05-.04,.12-.09,.12-.13s-.04-.08-.12-.08h-2.53c-.09,0-.12,.04-.12,.08s.05,.08,.11,.13l.51,.37c.12,.09,.18,.24,.19,.38l1.67,9.51c.02,.08,.07,.16,.16,.16h.65c.09,0,.12-.06,.14-.13l1.6-9.52c.02-.13,.04-.27,.14-.35l.49-.4c.05-.04,.12-.1,.12-.14s-.04-.08-.11-.08Zm-2.5,6.82h-.03l-.62-3.47c-.02-.06,.02-.1,.07-.1h1.11s.07,.03,.05,.08l-.58,3.49Z"/><path d="M631.02,630.62c0,3.17-14.25,17.42-17.42,17.42,3.17,0,17.42,14.25,17.42,17.42,0-3.17,14.25-17.42,17.42-17.42-3.17,0-17.42-14.25-17.42-17.42Z"/><path d="M546.72,571.48l-84.71-.15h-.02c-2.3,0-4.47,.89-6.1,2.52-1.63,1.63-2.54,3.8-2.54,6.11l-.24,135.97c0,4.76,3.86,8.65,8.62,8.65l84.71,.15h.02c2.3,0,4.46-.89,6.1-2.52,1.63-1.63,2.54-3.8,2.54-6.1l.24-135.97c0-4.76-3.86-8.65-8.62-8.65Zm6.22,144.62c0,1.73-.68,3.35-1.9,4.57-1.22,1.22-2.84,1.89-4.57,1.89h-.01l-84.71-.15c-3.57,0-6.47-2.91-6.46-6.48l.24-135.97c0-1.73,.68-3.35,1.9-4.57,1.22-1.22,2.84-1.89,4.57-1.89h.01l84.71,.15c3.57,0,6.47,2.92,6.46,6.48l-.24,135.97Z"/><path d="M465.59,588.16l-.51-.37c-.12-.08-.18-.24-.19-.38l-1.67-9.51c-.02-.08-.07-.16-.16-.16h-.65c-.09,0-.12,.06-.14,.13l-1.6,9.52c-.02,.13-.04,.27-.14,.35l-.49,.4c-.05,.04-.12,.1-.12,.14s.04,.08,.11,.08h2.02c.09,0,.12-.04,.12-.08s-.11-.1-.18-.17l-.39-.33c-.07-.07-.1-.16-.09-.25l.26-1.56c.02-.06,.05-.1,.1-.1h1.3c.09,0,.14,.06,.16,.13l.26,1.49c.02,.13-.02,.23-.09,.28l-.47,.38c-.05,.04-.12,.09-.12,.13s.04,.08,.12,.08h2.53c.09,0,.12-.04,.12-.08s-.05-.08-.11-.13Zm-2.5-3.03h-1.11s-.07-.03-.05-.08l.58-3.49h.04l.62,3.47c.02,.06-.02,.1-.07,.1Z"/><path d="M548.77,706.29h-2.02c-.09,0-.12,.04-.12,.08s.11,.1,.18,.17l.39,.32c.07,.07,.11,.16,.09,.26l-.26,1.56c-.02,.06-.05,.1-.1,.1h-1.3c-.09,0-.14-.06-.16-.13l-.26-1.49c-.02-.13,.02-.23,.09-.28l.48-.38c.05-.04,.12-.09,.12-.13s-.03-.08-.12-.08h-2.53c-.09,0-.12,.04-.12,.08s.05,.08,.11,.13l.51,.37c.12,.09,.18,.24,.19,.38l1.67,9.51c.02,.08,.07,.16,.16,.16h.65c.09,0,.12-.06,.14-.13l1.6-9.52c.02-.13,.04-.27,.14-.35l.49-.4c.05-.04,.12-.1,.12-.14s-.03-.08-.1-.08Zm-2.5,6.82h-.04l-.61-3.47c-.02-.06,.02-.1,.07-.1h1.11s.07,.03,.05,.08l-.58,3.49Z"/><path d="M516.51,641.35c-3.12,0-5.81,1.83-7.07,4.46-.99,1.18-2.53,1.7-4.08,2.04,.35-1.9,.79-3.98,2.26-5.21,2.64-1.27,4.46-3.95,4.46-7.07,0-4.33-3.51-7.85-7.85-7.85s-7.85,3.51-7.85,7.85c0,3.12,1.83,5.81,4.46,7.07,1.28,.93,1.85,3.23,2.25,5.21-1.55-.34-3.08-.85-4.07-2.03-1.27-2.64-3.95-4.46-7.07-4.46-4.33,0-7.85,3.51-7.85,7.85s3.51,7.85,7.85,7.85c3.12,0,6.1-2.12,7.36-4.75,1.09-1.21,2.49-1.5,4.11-1.8,.16,2.22,.08,4.62-.26,6.02-1.59,4.56-5.6,10-7.74,11.85,2.91-2.5,14.71-2.5,17.62,0-2.14-1.84-6.44-7.58-7.74-11.85-.41-1.71-.36-4.9-.33-6.04,1.65,.31,3.07,.59,4.18,1.82,1.26,2.64,4.24,4.75,7.36,4.75,4.33,0,7.85-3.51,7.85-7.85s-3.51-7.85-7.85-7.85Z"/><path d="M546.72,396.91l-84.71-.15h-.02c-4.76,0-8.63,3.87-8.64,8.62l-.24,135.97c0,4.76,3.86,8.65,8.62,8.65l84.71,.15h.02c2.3,0,4.46-.89,6.1-2.52,1.63-1.63,2.54-3.8,2.54-6.11l.24-135.97c0-4.76-3.86-8.65-8.62-8.65Zm6.22,144.62c0,1.73-.68,3.35-1.9,4.57-1.22,1.22-2.84,1.89-4.57,1.89h-.01l-84.71-.15c-3.57,0-6.47-2.92-6.46-6.48l.24-135.97c0-3.57,2.91-6.46,6.47-6.46h.01l84.71,.15c3.57,0,6.47,2.92,6.46,6.48l-.24,135.97Z"/><path d="M462.6,419.91c-1.22-2.29-4.38-1.44-4.4,.82-.02,2.53,3.23,3.86,4.32,6.23l.02,.03,.02-.03c1.13-2.35,4.41-3.61,4.44-6.14,.02-2.26-3.12-3.18-4.39-.91Z"/><path d="M545.75,518.33l-.02-.03-.02,.03c-1.09,2.36-4.36,3.67-4.35,6.21,0,2.26,3.17,3.13,4.4,.85,1.25,2.28,4.4,1.38,4.39-.88-.01-2.53-3.29-3.81-4.4-6.17Z"/><path d="M460.02,413.79h2.02c.09,0,.12-.04,.12-.08s-.11-.1-.18-.17l-.39-.33c-.07-.07-.1-.16-.09-.26l.26-1.56c.02-.06,.05-.1,.1-.1h1.3c.09,0,.14,.06,.16,.13l.26,1.49c.02,.13-.02,.23-.09,.28l-.47,.38c-.05,.04-.12,.09-.12,.13s.04,.08,.12,.08h2.53c.09,0,.12-.04,.12-.08s-.05-.08-.11-.13l-.51-.37c-.12-.09-.18-.24-.19-.38l-1.67-9.51c-.02-.08-.07-.16-.16-.16h-.65c-.09,0-.12,.06-.14,.13l-1.6,9.52c-.02,.13-.04,.27-.14,.35l-.49,.4c-.05,.04-.12,.1-.12,.14s.04,.08,.11,.08Zm2.5-6.81h.04l.62,3.47c.02,.06-.02,.1-.07,.1h-1.11s-.07-.03-.05-.08l.58-3.49Z"/><path d="M548.77,531.72h-2.02c-.09,0-.12,.04-.12,.08s.11,.1,.18,.17l.39,.33c.07,.07,.11,.16,.09,.26l-.26,1.56c-.02,.06-.05,.1-.1,.1h-1.3c-.09,0-.14-.06-.16-.13l-.26-1.49c-.02-.13,.02-.23,.09-.28l.48-.38c.05-.04,.12-.09,.12-.13s-.03-.08-.12-.08h-2.53c-.09,0-.12,.04-.12,.08s.05,.08,.11,.13l.51,.37c.12,.09,.18,.24,.19,.38l1.67,9.51c.02,.08,.07,.16,.16,.16h.65c.09,0,.12-.06,.14-.13l1.6-9.52c.02-.13,.04-.27,.14-.35l.49-.4c.05-.04,.12-.1,.12-.14s-.03-.08-.1-.08Zm-2.5,6.81h-.04l-.61-3.47c-.02-.06,.02-.1,.07-.1h1.11s.07,.03,.05,.08l-.58,3.49Z"/><path d="M504.23,463.77c-4.48-8.26-15.92-5.06-15.92,3.13,0,9.18,11.85,12.42,15.85,20.96l.06,.12,.06-.12c4-8.54,15.85-11.79,15.85-20.96,0-8.19-11.43-11.39-15.92-3.13Z"/><path d="M673.51,396.91l-84.71-.15h-.02c-2.3,0-4.47,.89-6.1,2.52-1.64,1.63-2.54,3.8-2.54,6.1l-.24,135.97c0,2.31,.89,4.48,2.52,6.11,1.63,1.63,3.8,2.54,6.1,2.54l84.71,.15h.02c2.3,0,4.47-.89,6.1-2.52,1.63-1.63,2.54-3.8,2.54-6.11l.24-135.97c0-4.76-3.86-8.65-8.62-8.65Zm6.22,144.62c0,1.73-.68,3.35-1.9,4.57-1.22,1.22-2.84,1.89-4.57,1.89h-.01l-84.71-.15c-1.73,0-3.35-.68-4.57-1.9-1.22-1.22-1.89-2.85-1.89-4.58l.24-135.97c0-1.73,.68-3.35,1.9-4.57,1.22-1.22,2.84-1.89,4.57-1.89h.01l84.71,.15c3.57,0,6.47,2.92,6.46,6.48l-.24,135.97Z"/><path d="M589.45,417.77l-.02-.03-.02,.03c-1.14,2.44-4.53,3.78-4.53,6.4,0,2.19,2.9,3.04,4.31,1.21,.03-.09,0,.58-.1,.96-.34,1.13-1.56,2.76-2.15,3.27,.82-.7,4.14-.7,4.96,0-.59-.51-1.75-2.09-2.15-3.27-.08-.33-.13-.66-.15-.99,1.38,1.99,4.37,1.06,4.37-1.18,0-2.62-3.38-3.96-4.53-6.4Z"/><path d="M673.54,520.3c.02-.33,.07-.66,.15-.99,.4-1.18,1.56-2.77,2.15-3.27-.82,.71-4.14,.71-4.96,0,.59,.51,1.81,2.15,2.15,3.27,.09,.38,.13,1.06,.1,.96-1.41-1.83-4.31-.99-4.31,1.21,0,2.62,3.39,3.96,4.53,6.4l.02,.03,.02-.03c1.14-2.44,4.53-3.78,4.53-6.4,0-2.24-2.99-3.17-4.37-1.18Z"/><path d="M587.05,413.79h2.02c.09,0,.12-.04,.12-.08s-.11-.1-.18-.17l-.39-.33c-.07-.07-.11-.16-.09-.26l.26-1.56c.02-.06,.05-.1,.1-.1h1.3c.09,0,.14,.06,.16,.13l.26,1.49c.02,.13-.02,.23-.09,.28l-.48,.38c-.05,.04-.12,.09-.12,.13s.04,.08,.12,.08h2.53c.09,0,.12-.04,.12-.08s-.05-.08-.11-.13l-.51-.37c-.12-.09-.18-.24-.19-.38l-1.67-9.51c-.02-.08-.07-.16-.16-.16h-.65c-.09,0-.12,.06-.14,.13l-1.6,9.52c-.02,.13-.04,.27-.14,.35l-.49,.4c-.05,.04-.12,.1-.12,.14s.03,.08,.1,.08Zm2.5-6.81h.04l.62,3.47c.02,.06-.02,.1-.07,.1h-1.11s-.07-.03-.05-.08l.58-3.49Z"/><path d="M675.8,531.72h-2.02c-.09,0-.12,.04-.12,.08s.1,.1,.18,.17l.39,.33c.07,.07,.1,.16,.09,.26l-.26,1.56c-.02,.06-.05,.1-.1,.1h-1.3c-.09,0-.14-.06-.16-.13l-.26-1.49c-.02-.13,.02-.23,.09-.28l.47-.38c.05-.04,.12-.09,.12-.13s-.04-.08-.12-.08h-2.53c-.09,0-.12,.04-.12,.08s.05,.08,.11,.13l.51,.37c.12,.09,.18,.24,.19,.38l1.67,9.51c.02,.08,.07,.16,.16,.16h.65c.09,0,.12-.06,.14-.13l1.6-9.52c.02-.13,.04-.27,.14-.35l.49-.4c.05-.04,.12-.1,.12-.14s-.04-.08-.11-.08Zm-2.5,6.81h-.03l-.62-3.47c-.02-.06,.02-.1,.07-.1h1.11s.07,.03,.05,.08l-.58,3.49Z"/><path d="M631.08,453.26l-.06-.12-.06,.12c-3.91,8.35-15.5,12.93-15.5,21.9,0,7.5,9.92,10.4,14.76,4.12,.1-.32,0,2-.34,3.3-1.16,3.85-5.34,9.46-7.36,11.21,2.81-2.41,14.18-2.41,16.99,0-2.03-1.74-6-7.16-7.37-11.21-.28-1.12-.45-2.25-.52-3.38,4.72,6.81,14.95,3.62,14.95-4.04,0-8.97-11.58-13.55-15.5-21.9Z"/><path d="M546.72,767.58l-84.71-.15h-.02c-4.76,0-8.63,3.87-8.64,8.62l-.13,74.34h2.17l.13-74.33c0-3.56,2.91-6.46,6.47-6.46h.01l84.71,.15c3.57,0,6.47,2.92,6.46,6.48l-.13,74.17h2.17l.13-74.16c0-4.76-3.86-8.65-8.62-8.65Z"/><path d="M458.19,791.4c-.02,2.53,3.23,3.86,4.32,6.23l.02,.03,.02-.03c1.13-2.35,4.41-3.61,4.44-6.14,.02-2.26-3.12-3.18-4.39-.91-1.22-2.29-4.38-1.44-4.4,.82Z"/><path d="M463.04,784.25c-.05,.04-.12,.09-.12,.13s.04,.08,.12,.08h2.53c.09,0,.12-.04,.12-.08s-.05-.08-.11-.13l-.51-.37c-.12-.09-.18-.24-.19-.38l-1.67-9.51c-.02-.08-.07-.16-.16-.16h-.65c-.09,0-.12,.06-.14,.13l-1.6,9.52c-.02,.13-.04,.27-.14,.35l-.49,.4c-.05,.04-.12,.1-.12,.14s.04,.08,.11,.08h2.02c.09,0,.12-.04,.12-.08s-.11-.1-.18-.17l-.39-.32c-.07-.07-.1-.16-.09-.26l.26-1.56c.02-.06,.05-.1,.1-.1h1.3c.09,0,.14,.06,.16,.13l.26,1.49c.02,.13-.02,.23-.09,.28l-.47,.38Zm.05-3.03h-1.11s-.07-.03-.05-.08l.58-3.49h.04l.62,3.47c.02,.06-.02,.1-.07,.1Z"/><path d="M520.15,837.57c0-8.19-11.43-11.39-15.92-3.13-4.48-8.26-15.92-5.06-15.92,3.13,0,5.65,4.49,9.05,8.88,12.83h14.07c4.39-3.77,8.88-7.18,8.88-12.83Z"/><path d="M673.51,767.58l-84.71-.15h-.02c-2.3,0-4.47,.89-6.1,2.52-1.64,1.63-2.54,3.8-2.54,6.1l-.13,74.34h2.17l.13-74.33c0-1.73,.68-3.35,1.9-4.57,1.22-1.22,2.84-1.89,4.57-1.89h.01l84.71,.15c3.57,0,6.47,2.91,6.46,6.48l-.13,74.17h2.17l.13-74.16c0-4.76-3.86-8.65-8.62-8.66Z"/><path d="M584.88,794.83c0,2.19,2.9,3.04,4.31,1.21,.03-.09,0,.58-.1,.96-.34,1.13-1.56,2.76-2.15,3.27,.82-.7,4.14-.7,4.96,0-.59-.51-1.75-2.09-2.15-3.28-.08-.33-.13-.66-.15-.99,1.38,1.99,4.37,1.06,4.37-1.18,0-2.62-3.38-3.96-4.53-6.4l-.02-.03-.02,.03c-1.14,2.44-4.53,3.78-4.53,6.4Z"/><path d="M590.08,784.25c-.05,.04-.12,.09-.12,.13s.04,.08,.12,.08h2.53c.09,0,.12-.04,.12-.08s-.05-.08-.11-.13l-.51-.37c-.12-.09-.18-.24-.19-.38l-1.67-9.51c-.02-.08-.07-.16-.16-.16h-.65c-.09,0-.12,.06-.14,.13l-1.6,9.52c-.02,.13-.04,.27-.14,.35l-.49,.4c-.05,.04-.12,.1-.12,.14s.03,.08,.1,.08h2.02c.09,0,.12-.04,.12-.08s-.11-.1-.18-.17l-.39-.32c-.07-.07-.11-.16-.09-.26l.26-1.56c.02-.06,.05-.1,.1-.1h1.3c.09,0,.14,.06,.16,.13l.26,1.49c.02,.13-.02,.23-.09,.28l-.48,.38Zm.05-3.03h-1.11s-.07-.03-.05-.08l.58-3.49h.04l.62,3.47c.02,.06-.02,.1-.07,.1Z"/><path d="M630.23,849.95c.03-.11,.04,.09,.03,.45h1.43c-.02-.18-.05-.36-.06-.53,.13,.19,.26,.36,.4,.53h13.06c.92-1.23,1.48-2.78,1.48-4.57,0-8.97-11.58-13.55-15.5-21.9l-.06-.12-.06,.12c-3.91,8.35-15.5,12.93-15.5,21.9,0,1.81,.58,3.36,1.53,4.57h12.86c.13-.14,.25-.29,.37-.45Z"/><path d="M414.68,200.81l-84.71-.15h-.02c-2.3,0-4.47,.89-6.1,2.52-1.63,1.63-2.54,3.8-2.54,6.1l-.24,135.97c0,2.31,.89,4.48,2.52,6.11,1.63,1.63,3.8,2.54,6.1,2.54l84.71,.15h.02c2.3,0,4.46-.89,6.1-2.52,1.63-1.63,2.54-3.8,2.54-6.11l.24-135.97c0-4.76-3.86-8.65-8.62-8.66Zm6.22,144.62c0,1.73-.68,3.35-1.9,4.57-1.22,1.22-2.84,1.89-4.57,1.89h-.01l-84.71-.15c-1.73,0-3.35-.68-4.57-1.9-1.22-1.22-1.89-2.85-1.89-4.58l.24-135.97c0-1.73,.68-3.35,1.9-4.57,1.22-1.22,2.84-1.89,4.57-1.89h.01l84.71,.15c3.57,0,6.47,2.92,6.46,6.48l-.24,135.97Z"/><path d="M330.92,222.16c0,.83-3.66,4.59-4.48,4.6,.83,0,4.59,3.66,4.6,4.48-.01-.83,3.66-4.59,4.48-4.6-.83,0-4.59-3.66-4.6-4.48Z"/><path d="M414.14,319.7c0,.83-3.7,4.55-4.53,4.55,.82,0,4.55,3.7,4.55,4.53,0-.83,3.7-4.55,4.52-4.55-.82,0-4.55-3.7-4.55-4.52Z"/><path d="M328.22,217.7h2.02c.09,0,.12-.04,.12-.08s-.11-.1-.18-.17l-.39-.33c-.07-.07-.11-.16-.09-.26l.26-1.56c.02-.06,.05-.1,.11-.1h1.3c.09,0,.14,.06,.16,.13l.26,1.49c.02,.13-.02,.23-.09,.28l-.48,.38c-.05,.04-.12,.09-.12,.13s.03,.08,.12,.08h2.53c.09,0,.12-.04,.12-.08s-.05-.08-.11-.13l-.51-.37c-.12-.09-.18-.24-.19-.38l-1.67-9.51c-.02-.08-.07-.16-.16-.16h-.65c-.09,0-.12,.06-.14,.13l-1.6,9.52c-.02,.13-.04,.27-.14,.35l-.49,.4c-.05,.04-.12,.1-.12,.14s.03,.08,.1,.08Zm2.5-6.81h.04l.61,3.47c.02,.06-.02,.1-.07,.1h-1.11s-.07-.03-.05-.08l.58-3.49Z"/><path d="M416.98,335.62h-2.02c-.09,0-.12,.04-.12,.08s.1,.1,.18,.17l.39,.32c.07,.07,.1,.16,.09,.26l-.26,1.56c-.02,.06-.05,.1-.1,.1h-1.3c-.09,0-.14-.06-.16-.13l-.26-1.49c-.02-.13,.02-.23,.09-.28l.48-.38c.05-.04,.12-.09,.12-.13s-.04-.08-.12-.08h-2.53c-.09,0-.12,.04-.12,.08s.05,.08,.11,.13l.51,.37c.12,.09,.18,.24,.19,.38l1.67,9.51c.02,.08,.07,.16,.16,.16h.65c.09,0,.12-.06,.14-.13l1.6-9.52c.02-.13,.03-.27,.14-.35l.49-.4c.05-.04,.12-.1,.12-.14s-.04-.08-.11-.08Zm-2.5,6.81h-.03l-.62-3.47c-.02-.06,.02-.1,.07-.1h1.11s.07,.03,.05,.08l-.58,3.49Z"/><path d="M372.2,259.95c0,3.17-14.25,17.42-17.42,17.42,3.17,0,17.42,14.25,17.42,17.42,0-3.17,14.25-17.42,17.42-17.42-3.17,0-17.42-14.25-17.42-17.42Z"/><path d="M287.89,200.81l-84.71-.15h-.02c-2.3,0-4.47,.89-6.1,2.52-1.64,1.63-2.54,3.8-2.54,6.1l-.24,135.97c0,4.76,3.86,8.65,8.62,8.65l84.71,.15h.02c2.3,0,4.47-.89,6.1-2.52,1.64-1.63,2.54-3.8,2.54-6.11l.24-135.97c0-4.76-3.86-8.65-8.62-8.65Zm6.22,144.62c0,1.73-.68,3.35-1.9,4.57-1.22,1.22-2.84,1.89-4.57,1.89h-.01l-84.71-.15c-3.57,0-6.47-2.91-6.46-6.48l.24-135.97c0-1.73,.68-3.35,1.9-4.57,1.22-1.22,2.84-1.89,4.57-1.89h.01l84.71,.15c3.57,0,6.47,2.92,6.46,6.48l-.24,135.97Z"/><path d="M206.76,217.49l-.51-.37c-.12-.09-.18-.24-.19-.38l-1.67-9.51c-.02-.08-.07-.16-.16-.16h-.65c-.09,0-.12,.06-.14,.13l-1.6,9.52c-.02,.13-.03,.27-.14,.35l-.49,.4c-.05,.04-.12,.1-.12,.14s.04,.08,.11,.08h2.02c.09,0,.12-.04,.12-.08s-.11-.1-.18-.17l-.39-.33c-.07-.07-.11-.16-.09-.26l.26-1.56c.02-.06,.05-.1,.1-.1h1.3c.09,0,.14,.06,.16,.13l.26,1.49c.02,.13-.02,.23-.09,.28l-.47,.38c-.05,.04-.12,.09-.12,.13s.04,.08,.12,.08h2.53c.09,0,.12-.04,.12-.08s-.05-.08-.11-.13Zm-2.5-3.03h-1.11s-.07-.03-.05-.08l.58-3.49h.04l.62,3.47c.02,.06-.02,.1-.07,.1Z"/><path d="M289.94,335.62h-2.02c-.09,0-.12,.04-.12,.08s.11,.1,.18,.17l.39,.32c.07,.07,.11,.16,.09,.26l-.26,1.56c-.02,.06-.05,.1-.11,.1h-1.3c-.09,0-.14-.06-.16-.13l-.26-1.49c-.02-.13,.02-.23,.09-.28l.47-.38c.05-.04,.12-.09,.12-.13s-.04-.08-.12-.08h-2.53c-.09,0-.12,.04-.12,.08s.05,.08,.11,.13l.51,.37c.12,.09,.18,.24,.19,.38l1.67,9.51c.02,.08,.07,.16,.16,.16h.65c.09,0,.12-.06,.14-.13l1.6-9.52c.02-.13,.04-.27,.14-.35l.49-.4c.05-.04,.12-.1,.12-.14s-.03-.08-.1-.08Zm-2.5,6.81h-.04l-.61-3.47c-.02-.06,.02-.1,.07-.1h1.11s.07,.03,.05,.08l-.58,3.49Z"/><path d="M257.69,270.68c-3.12,0-5.81,1.83-7.07,4.46-.99,1.18-2.53,1.7-4.08,2.04,.35-1.9,.79-3.98,2.26-5.21,2.64-1.27,4.46-3.95,4.46-7.07,0-4.33-3.51-7.85-7.85-7.85s-7.85,3.51-7.85,7.85c0,3.12,1.83,5.81,4.46,7.07,1.28,.93,1.85,3.23,2.25,5.21-1.55-.34-3.08-.85-4.07-2.03-1.26-2.64-3.95-4.46-7.07-4.46-4.33,0-7.85,3.51-7.85,7.85s3.51,7.85,7.85,7.85c3.12,0,6.1-2.12,7.36-4.75,1.09-1.21,2.49-1.5,4.11-1.8,.16,2.22,.08,4.62-.26,6.02-1.59,4.56-5.6,10-7.74,11.85,2.91-2.5,14.71-2.5,17.62,0-2.14-1.84-6.44-7.58-7.74-11.85-.41-1.71-.36-4.9-.33-6.04,1.65,.31,3.07,.59,4.18,1.82,1.27,2.64,4.24,4.75,7.36,4.75,4.33,0,7.85-3.51,7.85-7.85s-3.51-7.85-7.85-7.85Z"/><path d="M287.89,26.24l-84.71-.15h-.02c-4.76,0-8.63,3.87-8.64,8.62l-.24,135.97c0,4.76,3.86,8.65,8.62,8.65l84.71,.15h.02c2.3,0,4.47-.89,6.1-2.52,1.64-1.63,2.54-3.8,2.54-6.11l.24-135.97c0-4.76-3.86-8.65-8.62-8.65Zm6.22,144.62c0,1.73-.68,3.35-1.9,4.57-1.22,1.22-2.84,1.89-4.57,1.89h-.01l-84.71-.15c-3.57,0-6.47-2.92-6.46-6.48l.24-135.97c0-3.56,2.91-6.46,6.47-6.46h.01l84.71,.15c3.57,0,6.47,2.92,6.46,6.48l-.24,135.97Z"/><path d="M203.77,49.24c-1.22-2.29-4.38-1.44-4.4,.82-.03,2.53,3.23,3.86,4.32,6.23l.02,.03,.02-.03c1.13-2.35,4.41-3.61,4.44-6.14,.02-2.26-3.12-3.18-4.39-.91Z"/><path d="M286.92,147.66l-.02-.03-.02,.03c-1.1,2.36-4.36,3.67-4.35,6.21,0,2.26,3.17,3.13,4.4,.85,1.25,2.28,4.4,1.38,4.39-.88-.01-2.53-3.29-3.81-4.4-6.17Z"/><path d="M201.19,43.12h2.02c.09,0,.12-.04,.12-.08s-.11-.1-.18-.17l-.39-.32c-.07-.07-.11-.16-.09-.26l.26-1.56c.02-.06,.05-.1,.1-.1h1.3c.09,0,.14,.06,.16,.13l.26,1.49c.02,.13-.02,.23-.09,.28l-.47,.38c-.05,.04-.12,.09-.12,.13s.04,.08,.12,.08h2.53c.09,0,.12-.04,.12-.08s-.05-.08-.11-.13l-.51-.37c-.12-.09-.18-.24-.19-.38l-1.67-9.51c-.02-.08-.07-.16-.16-.16h-.65c-.09,0-.12,.06-.14,.13l-1.6,9.52c-.02,.13-.03,.27-.14,.35l-.49,.4c-.05,.04-.12,.1-.12,.14s.04,.08,.11,.08Zm2.5-6.81h.04l.62,3.47c.02,.06-.02,.1-.07,.1h-1.11s-.07-.03-.05-.08l.58-3.49Z"/><path d="M289.94,161.05h-2.02c-.09,0-.12,.04-.12,.08s.11,.1,.18,.17l.39,.33c.07,.07,.11,.16,.09,.26l-.26,1.56c-.02,.06-.05,.1-.11,.1h-1.3c-.09,0-.14-.06-.16-.13l-.26-1.49c-.02-.13,.02-.23,.09-.28l.47-.38c.05-.04,.12-.09,.12-.13s-.04-.08-.12-.08h-2.53c-.09,0-.12,.04-.12,.08s.05,.08,.11,.13l.51,.37c.12,.09,.18,.24,.19,.38l1.67,9.51c.02,.08,.07,.16,.16,.16h.65c.09,0,.12-.06,.14-.13l1.6-9.52c.02-.13,.04-.27,.14-.35l.49-.4c.05-.04,.12-.1,.12-.14s-.03-.08-.1-.08Zm-2.5,6.81h-.04l-.61-3.47c-.02-.06,.02-.1,.07-.1h1.11s.07,.03,.05,.08l-.58,3.49Z"/><path d="M245.4,93.1c-4.48-8.26-15.92-5.06-15.92,3.13,0,9.18,11.85,12.42,15.85,20.96l.06,.12,.06-.12c4-8.54,15.85-11.79,15.85-20.96,0-8.19-11.43-11.39-15.92-3.13Z"/><path d="M414.68,26.24l-84.71-.15h-.02c-2.3,0-4.47,.89-6.1,2.52-1.63,1.63-2.54,3.8-2.54,6.1l-.24,135.97c0,2.31,.89,4.48,2.52,6.11,1.63,1.63,3.8,2.54,6.1,2.54l84.71,.15h.02c2.3,0,4.46-.89,6.1-2.52,1.63-1.63,2.54-3.8,2.54-6.11l.24-135.97c0-4.76-3.86-8.65-8.62-8.65Zm6.22,144.62c0,1.73-.68,3.35-1.9,4.57-1.22,1.22-2.84,1.89-4.57,1.89h-.01l-84.71-.15c-1.73,0-3.35-.68-4.57-1.9-1.22-1.22-1.89-2.85-1.89-4.58l.24-135.97c0-1.73,.68-3.35,1.9-4.57,1.22-1.22,2.84-1.89,4.57-1.89h.01l84.71,.15c3.57,0,6.47,2.92,6.46,6.48l-.24,135.97Z"/><path d="M330.62,47.1l-.02-.03-.02,.03c-1.14,2.44-4.53,3.78-4.53,6.4,0,2.19,2.9,3.04,4.31,1.21,.03-.09,0,.58-.1,.96-.34,1.12-1.56,2.76-2.15,3.27,.82-.7,4.14-.7,4.96,0-.59-.51-1.75-2.09-2.15-3.27-.08-.33-.13-.66-.15-.99,1.38,1.99,4.37,1.06,4.37-1.18,0-2.62-3.38-3.96-4.53-6.4Z"/><path d="M414.71,149.63c.02-.33,.07-.66,.15-.99,.4-1.18,1.56-2.77,2.15-3.28-.82,.71-4.14,.71-4.96,0,.59,.51,1.81,2.15,2.15,3.27,.09,.38,.13,1.06,.1,.96-1.41-1.83-4.31-.99-4.31,1.21,0,2.62,3.39,3.96,4.53,6.4l.02,.03,.02-.03c1.14-2.44,4.53-3.78,4.53-6.4,0-2.24-2.99-3.17-4.37-1.18Z"/><path d="M328.22,43.12h2.02c.09,0,.12-.04,.12-.08s-.11-.1-.18-.17l-.39-.32c-.07-.07-.11-.16-.09-.26l.26-1.56c.02-.06,.05-.1,.11-.1h1.3c.09,0,.14,.06,.16,.13l.26,1.49c.02,.13-.02,.23-.09,.28l-.48,.38c-.05,.04-.12,.09-.12,.13s.03,.08,.12,.08h2.53c.09,0,.12-.04,.12-.08s-.05-.08-.11-.13l-.51-.37c-.12-.09-.18-.24-.19-.38l-1.67-9.51c-.02-.08-.07-.16-.16-.16h-.65c-.09,0-.12,.06-.14,.13l-1.6,9.52c-.02,.13-.04,.27-.14,.35l-.49,.4c-.05,.04-.12,.1-.12,.14s.03,.08,.1,.08Zm2.5-6.81h.04l.61,3.47c.02,.06-.02,.1-.07,.1h-1.11s-.07-.03-.05-.08l.58-3.49Z"/><path d="M416.98,161.05h-2.02c-.09,0-.12,.04-.12,.08s.1,.1,.18,.17l.39,.33c.07,.07,.1,.16,.09,.26l-.26,1.56c-.02,.06-.05,.1-.1,.1h-1.3c-.09,0-.14-.06-.16-.13l-.26-1.49c-.02-.13,.02-.23,.09-.28l.48-.38c.05-.04,.12-.09,.12-.13s-.04-.08-.12-.08h-2.53c-.09,0-.12,.04-.12,.08s.05,.08,.11,.13l.51,.37c.12,.09,.18,.24,.19,.38l1.67,9.51c.02,.08,.07,.16,.16,.16h.65c.09,0,.12-.06,.14-.13l1.6-9.52c.02-.13,.03-.27,.14-.35l.49-.4c.05-.04,.12-.1,.12-.14s-.04-.08-.11-.08Zm-2.5,6.81h-.03l-.62-3.47c-.02-.06,.02-.1,.07-.1h1.11s.07,.03,.05,.08l-.58,3.49Z"/><path d="M372.26,82.59l-.06-.12-.06,.12c-3.91,8.35-15.5,12.93-15.5,21.9,0,7.5,9.92,10.4,14.76,4.12,.1-.32,0,2-.34,3.3-1.16,3.85-5.34,9.46-7.36,11.21,2.81-2.41,14.18-2.41,16.99,0-2.03-1.74-6-7.16-7.37-11.21-.28-1.12-.45-2.25-.52-3.38,4.72,6.81,14.95,3.62,14.95-4.04,0-8.97-11.58-13.55-15.5-21.9Z"/><path d="M414.68,571.48l-84.71-.15h-.02c-2.3,0-4.47,.89-6.1,2.52-1.63,1.63-2.54,3.8-2.54,6.11l-.24,135.97c0,2.31,.89,4.48,2.52,6.11,1.63,1.63,3.8,2.54,6.1,2.54l84.71,.15h.02c2.3,0,4.46-.89,6.1-2.52,1.63-1.63,2.54-3.8,2.54-6.1l.24-135.97c0-4.76-3.86-8.65-8.62-8.65Zm6.22,144.62c0,1.73-.68,3.35-1.9,4.57-1.22,1.22-2.84,1.89-4.57,1.89h-.01l-84.71-.15c-1.73,0-3.35-.68-4.57-1.9-1.22-1.22-1.89-2.85-1.89-4.58l.24-135.97c0-1.73,.68-3.35,1.9-4.57,1.22-1.22,2.84-1.89,4.57-1.89h.01l84.71,.15c3.57,0,6.47,2.92,6.46,6.48l-.24,135.97Z"/><path d="M330.92,592.83c0,.83-3.66,4.59-4.48,4.6,.83,0,4.59,3.66,4.6,4.48-.01-.83,3.66-4.59,4.48-4.6-.83,.01-4.59-3.66-4.6-4.48Z"/><path d="M414.14,690.37c0,.83-3.7,4.55-4.53,4.55,.82,0,4.55,3.7,4.55,4.53,0-.83,3.7-4.55,4.52-4.55-.82,0-4.55-3.7-4.55-4.52Z"/><path d="M328.22,588.37h2.02c.09,0,.12-.04,.12-.08s-.11-.1-.18-.17l-.39-.33c-.07-.07-.11-.16-.09-.25l.26-1.56c.02-.06,.05-.1,.11-.1h1.3c.09,0,.14,.06,.16,.13l.26,1.49c.02,.13-.02,.23-.09,.28l-.48,.38c-.05,.04-.12,.09-.12,.13s.03,.08,.12,.08h2.53c.09,0,.12-.04,.12-.08s-.05-.08-.11-.13l-.51-.37c-.12-.08-.18-.24-.19-.38l-1.67-9.51c-.02-.08-.07-.16-.16-.16h-.65c-.09,0-.12,.06-.14,.13l-1.6,9.52c-.02,.13-.04,.27-.14,.35l-.49,.4c-.05,.04-.12,.1-.12,.14s.03,.08,.1,.08Zm2.5-6.81h.04l.61,3.47c.02,.06-.02,.1-.07,.1h-1.11s-.07-.03-.05-.08l.58-3.49Z"/><path d="M416.98,706.29h-2.02c-.09,0-.12,.04-.12,.08s.1,.1,.18,.17l.39,.32c.07,.07,.1,.16,.09,.26l-.26,1.56c-.02,.06-.05,.1-.1,.1h-1.3c-.09,0-.14-.06-.16-.13l-.26-1.49c-.02-.13,.02-.23,.09-.28l.48-.38c.05-.04,.12-.09,.12-.13s-.04-.08-.12-.08h-2.53c-.09,0-.12,.04-.12,.08s.05,.08,.11,.13l.51,.37c.12,.09,.18,.24,.19,.38l1.67,9.51c.02,.08,.07,.16,.16,.16h.65c.09,0,.12-.06,.14-.13l1.6-9.52c.02-.13,.03-.27,.14-.35l.49-.4c.05-.04,.12-.1,.12-.14s-.04-.08-.11-.08Zm-2.5,6.82h-.03l-.62-3.47c-.02-.06,.02-.1,.07-.1h1.11s.07,.03,.05,.08l-.58,3.49Z"/><path d="M372.2,630.62c0,3.17-14.25,17.42-17.42,17.42,3.17,0,17.42,14.25,17.42,17.42,0-3.17,14.25-17.42,17.42-17.42-3.17,0-17.42-14.25-17.42-17.42Z"/><path d="M287.89,571.48l-84.71-.15h-.02c-2.3,0-4.47,.89-6.1,2.52-1.64,1.63-2.54,3.8-2.54,6.11l-.24,135.97c0,4.76,3.86,8.65,8.62,8.65l84.71,.15h.02c2.3,0,4.47-.89,6.1-2.52,1.64-1.63,2.54-3.8,2.54-6.1l.24-135.97c0-4.76-3.86-8.65-8.62-8.65Zm6.22,144.62c0,1.73-.68,3.35-1.9,4.57-1.22,1.22-2.84,1.89-4.57,1.89h-.01l-84.71-.15c-3.57,0-6.47-2.91-6.46-6.48l.24-135.97c0-1.73,.68-3.35,1.9-4.57,1.22-1.22,2.84-1.89,4.57-1.89h.01l84.71,.15c3.57,0,6.47,2.92,6.46,6.48l-.24,135.97Z"/><path d="M206.76,588.16l-.51-.37c-.12-.08-.18-.24-.19-.38l-1.67-9.51c-.02-.08-.07-.16-.16-.16h-.65c-.09,0-.12,.06-.14,.13l-1.6,9.52c-.02,.13-.03,.27-.14,.35l-.49,.4c-.05,.04-.12,.1-.12,.14s.04,.08,.11,.08h2.02c.09,0,.12-.04,.12-.08s-.11-.1-.18-.17l-.39-.33c-.07-.07-.11-.16-.09-.25l.26-1.56c.02-.06,.05-.1,.1-.1h1.3c.09,0,.14,.06,.16,.13l.26,1.49c.02,.13-.02,.23-.09,.28l-.47,.38c-.05,.04-.12,.09-.12,.13s.04,.08,.12,.08h2.53c.09,0,.12-.04,.12-.08s-.05-.08-.11-.13Zm-2.5-3.03h-1.11s-.07-.03-.05-.08l.58-3.49h.04l.62,3.47c.02,.06-.02,.1-.07,.1Z"/><path d="M289.94,706.29h-2.02c-.09,0-.12,.04-.12,.08s.11,.1,.18,.17l.39,.32c.07,.07,.11,.16,.09,.26l-.26,1.56c-.02,.06-.05,.1-.11,.1h-1.3c-.09,0-.14-.06-.16-.13l-.26-1.49c-.02-.13,.02-.23,.09-.28l.47-.38c.05-.04,.12-.09,.12-.13s-.04-.08-.12-.08h-2.53c-.09,0-.12,.04-.12,.08s.05,.08,.11,.13l.51,.37c.12,.09,.18,.24,.19,.38l1.67,9.51c.02,.08,.07,.16,.16,.16h.65c.09,0,.12-.06,.14-.13l1.6-9.52c.02-.13,.04-.27,.14-.35l.49-.4c.05-.04,.12-.1,.12-.14s-.03-.08-.1-.08Zm-2.5,6.82h-.04l-.61-3.47c-.02-.06,.02-.1,.07-.1h1.11s.07,.03,.05,.08l-.58,3.49Z"/><path d="M257.69,641.35c-3.12,0-5.81,1.83-7.07,4.46-.99,1.18-2.53,1.7-4.08,2.04,.35-1.9,.79-3.98,2.26-5.21,2.64-1.27,4.46-3.95,4.46-7.07,0-4.33-3.51-7.85-7.85-7.85s-7.85,3.51-7.85,7.85c0,3.12,1.83,5.81,4.46,7.07,1.28,.93,1.85,3.23,2.25,5.21-1.55-.34-3.08-.85-4.07-2.03-1.26-2.64-3.95-4.46-7.07-4.46-4.33,0-7.85,3.51-7.85,7.85s3.51,7.85,7.85,7.85c3.12,0,6.1-2.12,7.36-4.75,1.09-1.21,2.49-1.5,4.11-1.8,.16,2.22,.08,4.62-.26,6.02-1.59,4.56-5.6,10-7.74,11.85,2.91-2.5,14.71-2.5,17.62,0-2.14-1.84-6.44-7.58-7.74-11.85-.41-1.71-.36-4.9-.33-6.04,1.65,.31,3.07,.59,4.18,1.82,1.27,2.64,4.24,4.75,7.36,4.75,4.33,0,7.85-3.51,7.85-7.85s-3.51-7.85-7.85-7.85Z"/><path d="M287.89,396.91l-84.71-.15h-.02c-4.76,0-8.63,3.87-8.64,8.62l-.24,135.97c0,4.76,3.86,8.65,8.62,8.65l84.71,.15h.02c2.3,0,4.47-.89,6.1-2.52,1.64-1.63,2.54-3.8,2.54-6.11l.24-135.97c0-4.76-3.86-8.65-8.62-8.65Zm6.22,144.62c0,1.73-.68,3.35-1.9,4.57-1.22,1.22-2.84,1.89-4.57,1.89h-.01l-84.71-.15c-3.57,0-6.47-2.92-6.46-6.48l.24-135.97c0-3.57,2.91-6.46,6.47-6.46h.01l84.71,.15c3.57,0,6.47,2.92,6.46,6.48l-.24,135.97Z"/><path d="M203.77,419.91c-1.22-2.29-4.38-1.44-4.4,.82-.03,2.53,3.23,3.86,4.32,6.23l.02,.03,.02-.03c1.13-2.35,4.41-3.61,4.44-6.14,.02-2.26-3.12-3.18-4.39-.91Z"/><path d="M286.92,518.33l-.02-.03-.02,.03c-1.1,2.36-4.36,3.67-4.35,6.21,0,2.26,3.17,3.13,4.4,.85,1.25,2.28,4.4,1.38,4.39-.88-.01-2.53-3.29-3.81-4.4-6.17Z"/><path d="M201.19,413.79h2.02c.09,0,.12-.04,.12-.08s-.11-.1-.18-.17l-.39-.33c-.07-.07-.11-.16-.09-.26l.26-1.56c.02-.06,.05-.1,.1-.1h1.3c.09,0,.14,.06,.16,.13l.26,1.49c.02,.13-.02,.23-.09,.28l-.47,.38c-.05,.04-.12,.09-.12,.13s.04,.08,.12,.08h2.53c.09,0,.12-.04,.12-.08s-.05-.08-.11-.13l-.51-.37c-.12-.09-.18-.24-.19-.38l-1.67-9.51c-.02-.08-.07-.16-.16-.16h-.65c-.09,0-.12,.06-.14,.13l-1.6,9.52c-.02,.13-.03,.27-.14,.35l-.49,.4c-.05,.04-.12,.1-.12,.14s.04,.08,.11,.08Zm2.5-6.81h.04l.62,3.47c.02,.06-.02,.1-.07,.1h-1.11s-.07-.03-.05-.08l.58-3.49Z"/><path d="M289.94,531.72h-2.02c-.09,0-.12,.04-.12,.08s.11,.1,.18,.17l.39,.33c.07,.07,.11,.16,.09,.26l-.26,1.56c-.02,.06-.05,.1-.11,.1h-1.3c-.09,0-.14-.06-.16-.13l-.26-1.49c-.02-.13,.02-.23,.09-.28l.47-.38c.05-.04,.12-.09,.12-.13s-.04-.08-.12-.08h-2.53c-.09,0-.12,.04-.12,.08s.05,.08,.11,.13l.51,.37c.12,.09,.18,.24,.19,.38l1.67,9.51c.02,.08,.07,.16,.16,.16h.65c.09,0,.12-.06,.14-.13l1.6-9.52c.02-.13,.04-.27,.14-.35l.49-.4c.05-.04,.12-.1,.12-.14s-.03-.08-.1-.08Zm-2.5,6.81h-.04l-.61-3.47c-.02-.06,.02-.1,.07-.1h1.11s.07,.03,.05,.08l-.58,3.49Z"/><path d="M245.4,463.77c-4.48-8.26-15.92-5.06-15.92,3.13,0,9.18,11.85,12.42,15.85,20.96l.06,.12,.06-.12c4-8.54,15.85-11.79,15.85-20.96,0-8.19-11.43-11.39-15.92-3.13Z"/><path d="M414.68,396.91l-84.71-.15h-.02c-2.3,0-4.47,.89-6.1,2.52-1.63,1.63-2.54,3.8-2.54,6.1l-.24,135.97c0,2.31,.89,4.48,2.52,6.11,1.63,1.63,3.8,2.54,6.1,2.54l84.71,.15h.02c2.3,0,4.46-.89,6.1-2.52,1.63-1.63,2.54-3.8,2.54-6.11l.24-135.97c0-4.76-3.86-8.65-8.62-8.65Zm6.22,144.62c0,1.73-.68,3.35-1.9,4.57-1.22,1.22-2.84,1.89-4.57,1.89h-.01l-84.71-.15c-1.73,0-3.35-.68-4.57-1.9-1.22-1.22-1.89-2.85-1.89-4.58l.24-135.97c0-1.73,.68-3.35,1.9-4.57,1.22-1.22,2.84-1.89,4.57-1.89h.01l84.71,.15c3.57,0,6.47,2.92,6.46,6.48l-.24,135.97Z"/><path d="M330.62,417.77l-.02-.03-.02,.03c-1.14,2.44-4.53,3.78-4.53,6.4,0,2.19,2.9,3.04,4.31,1.21,.03-.09,0,.58-.1,.96-.34,1.13-1.56,2.76-2.15,3.27,.82-.7,4.14-.7,4.96,0-.59-.51-1.75-2.09-2.15-3.27-.08-.33-.13-.66-.15-.99,1.38,1.99,4.37,1.06,4.37-1.18,0-2.62-3.38-3.96-4.53-6.4Z"/><path d="M414.71,520.3c.02-.33,.07-.66,.15-.99,.4-1.18,1.56-2.77,2.15-3.27-.82,.71-4.14,.71-4.96,0,.59,.51,1.81,2.15,2.15,3.27,.09,.38,.13,1.06,.1,.96-1.41-1.83-4.31-.99-4.31,1.21,0,2.62,3.39,3.96,4.53,6.4l.02,.03,.02-.03c1.14-2.44,4.53-3.78,4.53-6.4,0-2.24-2.99-3.17-4.37-1.18Z"/><path d="M328.22,413.79h2.02c.09,0,.12-.04,.12-.08s-.11-.1-.18-.17l-.39-.33c-.07-.07-.11-.16-.09-.26l.26-1.56c.02-.06,.05-.1,.11-.1h1.3c.09,0,.14,.06,.16,.13l.26,1.49c.02,.13-.02,.23-.09,.28l-.48,.38c-.05,.04-.12,.09-.12,.13s.03,.08,.12,.08h2.53c.09,0,.12-.04,.12-.08s-.05-.08-.11-.13l-.51-.37c-.12-.09-.18-.24-.19-.38l-1.67-9.51c-.02-.08-.07-.16-.16-.16h-.65c-.09,0-.12,.06-.14,.13l-1.6,9.52c-.02,.13-.04,.27-.14,.35l-.49,.4c-.05,.04-.12,.1-.12,.14s.03,.08,.1,.08Zm2.5-6.81h.04l.61,3.47c.02,.06-.02,.1-.07,.1h-1.11s-.07-.03-.05-.08l.58-3.49Z"/><path d="M416.98,531.72h-2.02c-.09,0-.12,.04-.12,.08s.1,.1,.18,.17l.39,.33c.07,.07,.1,.16,.09,.26l-.26,1.56c-.02,.06-.05,.1-.1,.1h-1.3c-.09,0-.14-.06-.16-.13l-.26-1.49c-.02-.13,.02-.23,.09-.28l.48-.38c.05-.04,.12-.09,.12-.13s-.04-.08-.12-.08h-2.53c-.09,0-.12,.04-.12,.08s.05,.08,.11,.13l.51,.37c.12,.09,.18,.24,.19,.38l1.67,9.51c.02,.08,.07,.16,.16,.16h.65c.09,0,.12-.06,.14-.13l1.6-9.52c.02-.13,.03-.27,.14-.35l.49-.4c.05-.04,.12-.1,.12-.14s-.04-.08-.11-.08Zm-2.5,6.81h-.03l-.62-3.47c-.02-.06,.02-.1,.07-.1h1.11s.07,.03,.05,.08l-.58,3.49Z"/><path d="M372.26,453.26l-.06-.12-.06,.12c-3.91,8.35-15.5,12.93-15.5,21.9,0,7.5,9.92,10.4,14.76,4.12,.1-.32,0,2-.34,3.3-1.16,3.85-5.34,9.46-7.36,11.21,2.81-2.41,14.18-2.41,16.99,0-2.03-1.74-6-7.16-7.37-11.21-.28-1.12-.45-2.25-.52-3.38,4.72,6.81,14.95,3.62,14.95-4.04,0-8.97-11.58-13.55-15.5-21.9Z"/><path d="M287.89,767.58l-84.71-.15h-.02c-4.76,0-8.63,3.87-8.64,8.62l-.13,74.34h2.17l.13-74.33c0-3.56,2.91-6.46,6.47-6.46h.01l84.71,.15c3.57,0,6.47,2.92,6.46,6.48l-.13,74.17h2.17l.13-74.16c0-4.76-3.86-8.65-8.62-8.65Z"/><path d="M199.37,791.4c-.03,2.53,3.23,3.86,4.32,6.23l.02,.03,.02-.03c1.13-2.35,4.41-3.61,4.44-6.14,.02-2.26-3.12-3.18-4.39-.91-1.22-2.29-4.38-1.44-4.4,.82Z"/><path d="M204.22,784.25c-.05,.04-.12,.09-.12,.13s.04,.08,.12,.08h2.53c.09,0,.12-.04,.12-.08s-.05-.08-.11-.13l-.51-.37c-.12-.09-.18-.24-.19-.38l-1.67-9.51c-.02-.08-.07-.16-.16-.16h-.65c-.09,0-.12,.06-.14,.13l-1.6,9.52c-.02,.13-.03,.27-.14,.35l-.49,.4c-.05,.04-.12,.1-.12,.14s.04,.08,.11,.08h2.02c.09,0,.12-.04,.12-.08s-.11-.1-.18-.17l-.39-.32c-.07-.07-.11-.16-.09-.26l.26-1.56c.02-.06,.05-.1,.1-.1h1.3c.09,0,.14,.06,.16,.13l.26,1.49c.02,.13-.02,.23-.09,.28l-.47,.38Zm.05-3.03h-1.11s-.07-.03-.05-.08l.58-3.49h.04l.62,3.47c.02,.06-.02,.1-.07,.1Z"/><path d="M261.32,837.57c0-8.19-11.43-11.39-15.92-3.13-4.48-8.26-15.92-5.06-15.92,3.13,0,5.65,4.49,9.05,8.88,12.83h14.07c4.39-3.77,8.88-7.18,8.88-12.83Z"/><path d="M414.68,767.58l-84.71-.15h-.02c-2.3,0-4.47,.89-6.1,2.52-1.63,1.63-2.54,3.8-2.54,6.1l-.13,74.34h2.17l.13-74.33c0-1.73,.68-3.35,1.9-4.57,1.22-1.22,2.84-1.89,4.57-1.89h.01l84.71,.15c3.57,0,6.47,2.91,6.46,6.48l-.13,74.17h2.17l.13-74.16c0-4.76-3.86-8.65-8.62-8.66Z"/><path d="M326.05,794.83c0,2.19,2.9,3.04,4.31,1.21,.03-.09,0,.58-.1,.96-.34,1.13-1.56,2.76-2.15,3.27,.82-.7,4.14-.7,4.96,0-.59-.51-1.75-2.09-2.15-3.28-.08-.33-.13-.66-.15-.99,1.38,1.99,4.37,1.06,4.37-1.18,0-2.62-3.38-3.96-4.53-6.4l-.02-.03-.02,.03c-1.14,2.44-4.53,3.78-4.53,6.4Z"/><path d="M331.25,784.25c-.05,.04-.12,.09-.12,.13s.03,.08,.12,.08h2.53c.09,0,.12-.04,.12-.08s-.05-.08-.11-.13l-.51-.37c-.12-.09-.18-.24-.19-.38l-1.67-9.51c-.02-.08-.07-.16-.16-.16h-.65c-.09,0-.12,.06-.14,.13l-1.6,9.52c-.02,.13-.04,.27-.14,.35l-.49,.4c-.05,.04-.12,.1-.12,.14s.03,.08,.1,.08h2.02c.09,0,.12-.04,.12-.08s-.11-.1-.18-.17l-.39-.32c-.07-.07-.11-.16-.09-.26l.26-1.56c.02-.06,.05-.1,.11-.1h1.3c.09,0,.14,.06,.16,.13l.26,1.49c.02,.13-.02,.23-.09,.28l-.48,.38Zm.05-3.03h-1.11s-.07-.03-.05-.08l.58-3.49h.04l.61,3.47c.02,.06-.02,.1-.07,.1Z"/><path d="M371.4,849.95c.03-.11,.04,.09,.03,.45h1.43c-.02-.18-.05-.36-.06-.53,.13,.19,.26,.36,.4,.53h13.06c.92-1.23,1.48-2.78,1.48-4.57,0-8.97-11.58-13.55-15.5-21.9l-.06-.12-.06,.12c-3.91,8.35-15.5,12.93-15.5,21.9,0,1.81,.58,3.36,1.53,4.57h12.86c.13-.14,.25-.29,.37-.45Z"/><path d="M155.86,200.81l-84.71-.15h-.02c-2.3,0-4.47,.89-6.1,2.52-1.64,1.63-2.54,3.8-2.54,6.1l-.24,135.97c0,2.31,.89,4.48,2.52,6.11,1.63,1.63,3.8,2.54,6.1,2.54l84.71,.15h.02c2.3,0,4.47-.89,6.1-2.52,1.63-1.63,2.54-3.8,2.54-6.11l.24-135.97c0-4.76-3.86-8.65-8.62-8.66Zm6.22,144.62c0,1.73-.68,3.35-1.9,4.57-1.22,1.22-2.84,1.89-4.57,1.89h-.01l-84.71-.15c-1.73,0-3.35-.68-4.57-1.9-1.22-1.22-1.89-2.85-1.89-4.58l.24-135.97c0-1.73,.68-3.35,1.9-4.57,1.22-1.22,2.84-1.89,4.57-1.89h.01l84.71,.15c3.57,0,6.47,2.92,6.46,6.48l-.24,135.97Z"/><path d="M72.09,222.16c0,.83-3.66,4.59-4.48,4.6,.83,0,4.59,3.66,4.6,4.48-.01-.83,3.66-4.59,4.48-4.6-.83,0-4.59-3.66-4.6-4.48Z"/><path d="M155.31,319.7c0,.83-3.7,4.55-4.53,4.55,.82,0,4.55,3.7,4.55,4.53,0-.83,3.7-4.55,4.52-4.55-.82,0-4.55-3.7-4.55-4.52Z"/><path d="M69.4,217.7h2.02c.09,0,.12-.04,.12-.08s-.11-.1-.18-.17l-.39-.33c-.07-.07-.11-.16-.09-.26l.26-1.56c.02-.06,.05-.1,.1-.1h1.3c.09,0,.14,.06,.16,.13l.26,1.49c.02,.13-.02,.23-.09,.28l-.48,.38c-.05,.04-.12,.09-.12,.13s.03,.08,.12,.08h2.53c.09,0,.12-.04,.12-.08s-.05-.08-.11-.13l-.51-.37c-.12-.09-.18-.24-.19-.38l-1.67-9.51c-.02-.08-.07-.16-.16-.16h-.65c-.09,0-.12,.06-.14,.13l-1.6,9.52c-.02,.13-.04,.27-.14,.35l-.49,.4c-.05,.04-.12,.1-.12,.14s.03,.08,.1,.08Zm2.5-6.81h.04l.61,3.47c.02,.06-.02,.1-.07,.1h-1.11s-.07-.03-.05-.08l.58-3.49Z"/><path d="M158.15,335.62h-2.02c-.09,0-.12,.04-.12,.08s.1,.1,.18,.17l.39,.32c.07,.07,.1,.16,.09,.26l-.26,1.56c-.02,.06-.05,.1-.1,.1h-1.3c-.09,0-.14-.06-.16-.13l-.26-1.49c-.02-.13,.02-.23,.09-.28l.47-.38c.05-.04,.12-.09,.12-.13s-.04-.08-.12-.08h-2.53c-.09,0-.12,.04-.12,.08s.05,.08,.11,.13l.51,.37c.12,.09,.18,.24,.19,.38l1.67,9.51c.02,.08,.07,.16,.16,.16h.65c.09,0,.12-.06,.14-.13l1.6-9.52c.02-.13,.04-.27,.14-.35l.49-.4c.05-.04,.12-.1,.12-.14s-.04-.08-.11-.08Zm-2.5,6.81h-.03l-.62-3.47c-.02-.06,.02-.1,.07-.1h1.11s.07,.03,.05,.08l-.58,3.49Z"/><path d="M113.37,259.95c0,3.17-14.25,17.42-17.42,17.42,3.17,0,17.42,14.25,17.42,17.42,0-3.17,14.25-17.42,17.42-17.42-3.17,0-17.42-14.25-17.42-17.42Z"/><path d="M29.07,200.81L0,200.76v2.17l29.06,.05c3.57,0,6.47,2.92,6.46,6.48l-.24,135.97c0,1.73-.68,3.35-1.9,4.57-1.22,1.22-2.84,1.89-4.57,1.89h-.01L0,351.85v2.17l28.8,.05h.02c2.3,0,4.47-.89,6.1-2.52,1.63-1.63,2.54-3.8,2.54-6.11l.24-135.97c0-4.76-3.86-8.65-8.62-8.65Z"/><path d="M28.09,335.83c.05-.04,.12-.09,.12-.13s-.03-.08-.12-.08h-2.53c-.09,0-.12,.04-.12,.08s.05,.08,.11,.13l.51,.37c.12,.09,.18,.24,.19,.38l1.67,9.51c.02,.08,.07,.16,.16,.16h.65c.09,0,.12-.06,.14-.13l1.6-9.52c.02-.13,.04-.27,.14-.35l.49-.4c.05-.04,.12-.1,.12-.14s-.03-.08-.1-.08h-2.02c-.09,0-.12,.04-.12,.08s.11,.1,.18,.17l.39,.32c.07,.07,.11,.16,.09,.26l-.26,1.56c-.02,.06-.05,.1-.1,.1h-1.3c-.09,0-.14-.06-.16-.13l-.26-1.49c-.02-.13,.02-.23,.09-.28l.48-.38Zm-.05,3.03h1.11s.07,.03,.05,.08l-.58,3.49h-.04l-.61-3.47c-.02-.06,.02-.1,.07-.1Z"/><path d="M6.71,278.53c0-3.95-2.92-7.2-6.71-7.76v15.51c3.79-.55,6.71-3.81,6.71-7.76Z"/><path d="M29.07,26.24L0,26.19v2.17l29.06,.05c3.57,0,6.47,2.92,6.46,6.48l-.24,135.97c0,1.73-.68,3.35-1.9,4.57-1.22,1.22-2.84,1.89-4.57,1.89h-.01L0,177.27v2.17l28.8,.05h.02c2.3,0,4.47-.89,6.1-2.52,1.63-1.63,2.54-3.8,2.54-6.11l.24-135.97c0-4.76-3.86-8.65-8.62-8.65Z"/><path d="M32.5,153.83c-.01-2.53-3.29-3.81-4.4-6.17l-.02-.03-.02,.03c-1.09,2.36-4.36,3.67-4.35,6.21,0,2.26,3.17,3.13,4.4,.85,1.25,2.28,4.4,1.38,4.39-.88Z"/><path d="M28.09,161.26c.05-.04,.12-.09,.12-.13s-.03-.08-.12-.08h-2.53c-.09,0-.12,.04-.12,.08s.05,.08,.11,.13l.51,.37c.12,.09,.18,.24,.19,.38l1.67,9.51c.02,.08,.07,.16,.16,.16h.65c.09,0,.12-.06,.14-.13l1.6-9.52c.02-.13,.04-.27,.14-.35l.49-.4c.05-.04,.12-.1,.12-.14s-.03-.08-.1-.08h-2.02c-.09,0-.12,.04-.12,.08s.11,.1,.18,.17l.39,.33c.07,.07,.11,.16,.09,.26l-.26,1.56c-.02,.06-.05,.1-.1,.1h-1.3c-.09,0-.14-.06-.16-.13l-.26-1.49c-.02-.13,.02-.23,.09-.28l.48-.38Zm-.05,3.03h1.11s.07,.03,.05,.08l-.58,3.49h-.04l-.61-3.47c-.02-.06,.02-.1,.07-.1Z"/><path d="M0,90.47v12.49c1.5-1.93,2.49-4.08,2.49-6.73C2.49,93.82,1.5,91.86,0,90.47Z"/><path d="M155.86,26.24l-84.71-.15h-.02c-2.3,0-4.47,.89-6.1,2.52-1.64,1.63-2.54,3.8-2.54,6.1l-.24,135.97c0,2.31,.89,4.48,2.52,6.11,1.63,1.63,3.8,2.54,6.1,2.54l84.71,.15h.02c2.3,0,4.47-.89,6.1-2.52,1.63-1.63,2.54-3.8,2.54-6.11l.24-135.97c0-4.76-3.86-8.65-8.62-8.65Zm6.22,144.62c0,1.73-.68,3.35-1.9,4.57-1.22,1.22-2.84,1.89-4.57,1.89h-.01l-84.71-.15c-1.73,0-3.35-.68-4.57-1.9-1.22-1.22-1.89-2.85-1.89-4.58l.24-135.97c0-1.73,.68-3.35,1.9-4.57,1.22-1.22,2.84-1.89,4.57-1.89h.01l84.71,.15c3.57,0,6.47,2.92,6.46,6.48l-.24,135.97Z"/><path d="M71.79,47.1l-.02-.03-.02,.03c-1.14,2.44-4.53,3.78-4.53,6.4,0,2.19,2.9,3.04,4.31,1.21,.03-.09,0,.58-.1,.96-.34,1.12-1.56,2.76-2.15,3.27,.82-.7,4.14-.7,4.96,0-.59-.51-1.75-2.09-2.15-3.27-.08-.33-.13-.66-.15-.99,1.38,1.99,4.37,1.06,4.37-1.18,0-2.62-3.38-3.96-4.52-6.4Z"/><path d="M155.88,149.63c.02-.33,.07-.66,.15-.99,.4-1.18,1.56-2.77,2.15-3.28-.82,.71-4.14,.71-4.96,0,.59,.51,1.81,2.15,2.15,3.27,.09,.38,.13,1.06,.1,.96-1.41-1.83-4.31-.99-4.31,1.21,0,2.62,3.39,3.96,4.53,6.4l.02,.03,.02-.03c1.14-2.44,4.53-3.78,4.53-6.4,0-2.24-2.99-3.17-4.37-1.18Z"/><path d="M69.4,43.12h2.02c.09,0,.12-.04,.12-.08s-.11-.1-.18-.17l-.39-.32c-.07-.07-.11-.16-.09-.26l.26-1.56c.02-.06,.05-.1,.1-.1h1.3c.09,0,.14,.06,.16,.13l.26,1.49c.02,.13-.02,.23-.09,.28l-.48,.38c-.05,.04-.12,.09-.12,.13s.03,.08,.12,.08h2.53c.09,0,.12-.04,.12-.08s-.05-.08-.11-.13l-.51-.37c-.12-.09-.18-.24-.19-.38l-1.67-9.51c-.02-.08-.07-.16-.16-.16h-.65c-.09,0-.12,.06-.14,.13l-1.6,9.52c-.02,.13-.04,.27-.14,.35l-.49,.4c-.05,.04-.12,.1-.12,.14s.03,.08,.1,.08Zm2.5-6.81h.04l.61,3.47c.02,.06-.02,.1-.07,.1h-1.11s-.07-.03-.05-.08l.58-3.49Z"/><path d="M158.15,161.05h-2.02c-.09,0-.12,.04-.12,.08s.1,.1,.18,.17l.39,.33c.07,.07,.1,.16,.09,.26l-.26,1.56c-.02,.06-.05,.1-.1,.1h-1.3c-.09,0-.14-.06-.16-.13l-.26-1.49c-.02-.13,.02-.23,.09-.28l.47-.38c.05-.04,.12-.09,.12-.13s-.04-.08-.12-.08h-2.53c-.09,0-.12,.04-.12,.08s.05,.08,.11,.13l.51,.37c.12,.09,.18,.24,.19,.38l1.67,9.51c.02,.08,.07,.16,.16,.16h.65c.09,0,.12-.06,.14-.13l1.6-9.52c.02-.13,.04-.27,.14-.35l.49-.4c.05-.04,.12-.1,.12-.14s-.04-.08-.11-.08Zm-2.5,6.81h-.03l-.62-3.47c-.02-.06,.02-.1,.07-.1h1.11s.07,.03,.05,.08l-.58,3.49Z"/><path d="M113.43,82.59l-.06-.12-.06,.12c-3.91,8.35-15.5,12.93-15.5,21.9,0,7.5,9.92,10.4,14.76,4.12,.1-.32-.01,2-.34,3.3-1.16,3.85-5.34,9.46-7.36,11.21,2.81-2.41,14.18-2.41,16.99,0-2.03-1.74-6-7.16-7.37-11.21-.28-1.12-.45-2.25-.52-3.38,4.72,6.81,14.95,3.62,14.95-4.04,0-8.97-11.58-13.55-15.5-21.9Z"/><path d="M155.86,571.48l-84.71-.15h-.02c-2.3,0-4.47,.89-6.1,2.52-1.64,1.63-2.54,3.8-2.54,6.11l-.24,135.97c0,2.31,.89,4.48,2.52,6.11,1.63,1.63,3.8,2.54,6.1,2.54l84.71,.15h.02c2.3,0,4.47-.89,6.1-2.52,1.63-1.63,2.54-3.8,2.54-6.1l.24-135.97c0-4.76-3.86-8.65-8.62-8.65Zm6.22,144.62c0,1.73-.68,3.35-1.9,4.57-1.22,1.22-2.84,1.89-4.57,1.89h-.01l-84.71-.15c-1.73,0-3.35-.68-4.57-1.9-1.22-1.22-1.89-2.85-1.89-4.58l.24-135.97c0-1.73,.68-3.35,1.9-4.57,1.22-1.22,2.84-1.89,4.57-1.89h.01l84.71,.15c3.57,0,6.47,2.92,6.46,6.48l-.24,135.97Z"/><path d="M72.09,592.83c0,.83-3.66,4.59-4.48,4.6,.83,0,4.59,3.66,4.6,4.48-.01-.83,3.66-4.59,4.48-4.6-.83,.01-4.59-3.66-4.6-4.48Z"/><path d="M155.31,690.37c0,.83-3.7,4.55-4.53,4.55,.82,0,4.55,3.7,4.55,4.53,0-.83,3.7-4.55,4.52-4.55-.82,0-4.55-3.7-4.55-4.52Z"/><path d="M69.4,588.37h2.02c.09,0,.12-.04,.12-.08s-.11-.1-.18-.17l-.39-.33c-.07-.07-.11-.16-.09-.25l.26-1.56c.02-.06,.05-.1,.1-.1h1.3c.09,0,.14,.06,.16,.13l.26,1.49c.02,.13-.02,.23-.09,.28l-.48,.38c-.05,.04-.12,.09-.12,.13s.03,.08,.12,.08h2.53c.09,0,.12-.04,.12-.08s-.05-.08-.11-.13l-.51-.37c-.12-.08-.18-.24-.19-.38l-1.67-9.51c-.02-.08-.07-.16-.16-.16h-.65c-.09,0-.12,.06-.14,.13l-1.6,9.52c-.02,.13-.04,.27-.14,.35l-.49,.4c-.05,.04-.12,.1-.12,.14s.03,.08,.1,.08Zm2.5-6.81h.04l.61,3.47c.02,.06-.02,.1-.07,.1h-1.11s-.07-.03-.05-.08l.58-3.49Z"/><path d="M158.15,706.29h-2.02c-.09,0-.12,.04-.12,.08s.1,.1,.18,.17l.39,.32c.07,.07,.1,.16,.09,.26l-.26,1.56c-.02,.06-.05,.1-.1,.1h-1.3c-.09,0-.14-.06-.16-.13l-.26-1.49c-.02-.13,.02-.23,.09-.28l.47-.38c.05-.04,.12-.09,.12-.13s-.04-.08-.12-.08h-2.53c-.09,0-.12,.04-.12,.08s.05,.08,.11,.13l.51,.37c.12,.09,.18,.24,.19,.38l1.67,9.51c.02,.08,.07,.16,.16,.16h.65c.09,0,.12-.06,.14-.13l1.6-9.52c.02-.13,.04-.27,.14-.35l.49-.4c.05-.04,.12-.1,.12-.14s-.04-.08-.11-.08Zm-2.5,6.82h-.03l-.62-3.47c-.02-.06,.02-.1,.07-.1h1.11s.07,.03,.05,.08l-.58,3.49Z"/><path d="M113.37,630.62c0,3.17-14.25,17.42-17.42,17.42,3.17,0,17.42,14.25,17.42,17.42,0-3.17,14.25-17.42,17.42-17.42-3.17,0-17.42-14.25-17.42-17.42Z"/><path d="M28.82,724.74c2.3,0,4.47-.89,6.1-2.52,1.63-1.63,2.54-3.8,2.54-6.1l.24-135.97c0-4.76-3.86-8.65-8.62-8.65L0,571.43v2.17l29.06,.05c3.57,0,6.47,2.92,6.46,6.48l-.24,135.97c0,1.73-.68,3.35-1.9,4.57-1.22,1.22-2.84,1.89-4.57,1.89h-.01L0,722.52v2.17l28.8,.05h.02Z"/><path d="M28.09,706.5c.05-.04,.12-.09,.12-.13s-.03-.08-.12-.08h-2.53c-.09,0-.12,.04-.12,.08s.05,.08,.11,.13l.51,.37c.12,.09,.18,.24,.19,.38l1.67,9.51c.02,.08,.07,.16,.16,.16h.65c.09,0,.12-.06,.14-.13l1.6-9.52c.02-.13,.04-.27,.14-.35l.49-.4c.05-.04,.12-.1,.12-.14s-.03-.08-.1-.08h-2.02c-.09,0-.12,.04-.12,.08s.11,.1,.18,.17l.39,.32c.07,.07,.11,.16,.09,.26l-.26,1.56c-.02,.06-.05,.1-.1,.1h-1.3c-.09,0-.14-.06-.16-.13l-.26-1.49c-.02-.13,.02-.23,.09-.28l.48-.38Zm-.05,3.03h1.11s.07,.03,.05,.08l-.58,3.49h-.04l-.61-3.47c-.02-.06,.02-.1,.07-.1Z"/><path d="M6.71,649.2c0-3.95-2.92-7.2-6.71-7.75v15.51c3.79-.55,6.71-3.81,6.71-7.76Z"/><path d="M29.07,396.91L0,396.86v2.17l29.06,.05c3.57,0,6.47,2.92,6.46,6.48l-.24,135.97c0,1.73-.68,3.35-1.9,4.57-1.22,1.22-2.84,1.89-4.57,1.89h-.01L0,547.94v2.17l28.8,.05h.02c2.3,0,4.47-.89,6.1-2.52,1.63-1.63,2.54-3.8,2.54-6.11l.24-135.97c0-4.76-3.86-8.65-8.62-8.65Z"/><path d="M32.5,524.5c-.01-2.53-3.29-3.81-4.4-6.17l-.02-.03-.02,.03c-1.09,2.36-4.36,3.67-4.35,6.21,0,2.26,3.17,3.13,4.4,.85,1.25,2.28,4.4,1.38,4.39-.88Z"/><path d="M28.09,531.93c.05-.04,.12-.09,.12-.13s-.03-.08-.12-.08h-2.53c-.09,0-.12,.04-.12,.08s.05,.08,.11,.13l.51,.37c.12,.09,.18,.24,.19,.38l1.67,9.51c.02,.08,.07,.16,.16,.16h.65c.09,0,.12-.06,.14-.13l1.6-9.52c.02-.13,.04-.27,.14-.35l.49-.4c.05-.04,.12-.1,.12-.14s-.03-.08-.1-.08h-2.02c-.09,0-.12,.04-.12,.08s.11,.1,.18,.17l.39,.33c.07,.07,.11,.16,.09,.26l-.26,1.56c-.02,.06-.05,.1-.1,.1h-1.3c-.09,0-.14-.06-.16-.13l-.26-1.49c-.02-.13,.02-.23,.09-.28l.48-.38Zm-.05,3.03h1.11s.07,.03,.05,.08l-.58,3.49h-.04l-.61-3.47c-.02-.06,.02-.1,.07-.1Z"/><path d="M0,461.14v12.49c1.5-1.93,2.49-4.08,2.49-6.73,0-2.4-.99-4.37-2.49-5.75Z"/><path d="M155.86,396.91l-84.71-.15h-.02c-2.3,0-4.47,.89-6.1,2.52-1.64,1.63-2.54,3.8-2.54,6.1l-.24,135.97c0,2.31,.89,4.48,2.52,6.11,1.63,1.63,3.8,2.54,6.1,2.54l84.71,.15h.02c2.3,0,4.47-.89,6.1-2.52,1.63-1.63,2.54-3.8,2.54-6.11l.24-135.97c0-4.76-3.86-8.65-8.62-8.65Zm6.22,144.62c0,1.73-.68,3.35-1.9,4.57-1.22,1.22-2.84,1.89-4.57,1.89h-.01l-84.71-.15c-1.73,0-3.35-.68-4.57-1.9-1.22-1.22-1.89-2.85-1.89-4.58l.24-135.97c0-1.73,.68-3.35,1.9-4.57,1.22-1.22,2.84-1.89,4.57-1.89h.01l84.71,.15c3.57,0,6.47,2.92,6.46,6.48l-.24,135.97Z"/><path d="M71.79,417.77l-.02-.03-.02,.03c-1.14,2.44-4.53,3.78-4.53,6.4,0,2.19,2.9,3.04,4.31,1.21,.03-.09,0,.58-.1,.96-.34,1.13-1.56,2.76-2.15,3.27,.82-.7,4.14-.7,4.96,0-.59-.51-1.75-2.09-2.15-3.27-.08-.33-.13-.66-.15-.99,1.38,1.99,4.37,1.06,4.37-1.18,0-2.62-3.38-3.96-4.52-6.4Z"/><path d="M155.88,520.3c.02-.33,.07-.66,.15-.99,.4-1.18,1.56-2.77,2.15-3.27-.82,.71-4.14,.71-4.96,0,.59,.51,1.81,2.15,2.15,3.27,.09,.38,.13,1.06,.1,.96-1.41-1.83-4.31-.99-4.31,1.21,0,2.62,3.39,3.96,4.53,6.4l.02,.03,.02-.03c1.14-2.44,4.53-3.78,4.53-6.4,0-2.24-2.99-3.17-4.37-1.18Z"/><path d="M69.4,413.79h2.02c.09,0,.12-.04,.12-.08s-.11-.1-.18-.17l-.39-.33c-.07-.07-.11-.16-.09-.26l.26-1.56c.02-.06,.05-.1,.1-.1h1.3c.09,0,.14,.06,.16,.13l.26,1.49c.02,.13-.02,.23-.09,.28l-.48,.38c-.05,.04-.12,.09-.12,.13s.03,.08,.12,.08h2.53c.09,0,.12-.04,.12-.08s-.05-.08-.11-.13l-.51-.37c-.12-.09-.18-.24-.19-.38l-1.67-9.51c-.02-.08-.07-.16-.16-.16h-.65c-.09,0-.12,.06-.14,.13l-1.6,9.52c-.02,.13-.04,.27-.14,.35l-.49,.4c-.05,.04-.12,.1-.12,.14s.03,.08,.1,.08Zm2.5-6.81h.04l.61,3.47c.02,.06-.02,.1-.07,.1h-1.11s-.07-.03-.05-.08l.58-3.49Z"/><path d="M158.15,531.72h-2.02c-.09,0-.12,.04-.12,.08s.1,.1,.18,.17l.39,.33c.07,.07,.1,.16,.09,.26l-.26,1.56c-.02,.06-.05,.1-.1,.1h-1.3c-.09,0-.14-.06-.16-.13l-.26-1.49c-.02-.13,.02-.23,.09-.28l.47-.38c.05-.04,.12-.09,.12-.13s-.04-.08-.12-.08h-2.53c-.09,0-.12,.04-.12,.08s.05,.08,.11,.13l.51,.37c.12,.09,.18,.24,.19,.38l1.67,9.51c.02,.08,.07,.16,.16,.16h.65c.09,0,.12-.06,.14-.13l1.6-9.52c.02-.13,.04-.27,.14-.35l.49-.4c.05-.04,.12-.1,.12-.14s-.04-.08-.11-.08Zm-2.5,6.81h-.03l-.62-3.47c-.02-.06,.02-.1,.07-.1h1.11s.07,.03,.05,.08l-.58,3.49Z"/><path d="M113.43,453.26l-.06-.12-.06,.12c-3.91,8.35-15.5,12.93-15.5,21.9,0,7.5,9.92,10.4,14.76,4.12,.1-.32-.01,2-.34,3.3-1.16,3.85-5.34,9.46-7.36,11.21,2.81-2.41,14.18-2.41,16.99,0-2.03-1.74-6-7.16-7.37-11.21-.28-1.12-.45-2.25-.52-3.38,4.72,6.81,14.95,3.62,14.95-4.04,0-8.97-11.58-13.55-15.5-21.9Z"/><path d="M29.07,767.58L0,767.53v2.17l29.06,.05c3.57,0,6.47,2.92,6.46,6.48l-.13,74.17h2.17l.13-74.16c0-4.76-3.86-8.65-8.62-8.65Z"/><path d="M0,831.81v12.49c1.5-1.93,2.49-4.08,2.49-6.73,0-2.4-.99-4.37-2.49-5.75Z"/><path d="M155.86,767.58l-84.71-.15h-.02c-2.3,0-4.47,.89-6.1,2.52-1.64,1.63-2.54,3.8-2.54,6.1l-.13,74.34h2.17l.13-74.33c0-1.73,.68-3.35,1.9-4.57,1.22-1.22,2.84-1.89,4.57-1.89h.01l84.71,.15c3.57,0,6.47,2.91,6.46,6.48l-.13,74.17h2.17l.13-74.16c0-4.76-3.86-8.65-8.62-8.66Z"/><path d="M67.23,794.83c0,2.19,2.9,3.04,4.31,1.21,.03-.09,0,.58-.1,.96-.34,1.13-1.56,2.76-2.15,3.27,.82-.7,4.14-.7,4.96,0-.59-.51-1.75-2.09-2.15-3.28-.08-.33-.13-.66-.15-.99,1.38,1.99,4.37,1.06,4.37-1.18,0-2.62-3.38-3.96-4.52-6.4l-.02-.03-.02,.03c-1.14,2.44-4.53,3.78-4.53,6.4Z"/><path d="M72.42,784.25c-.05,.04-.12,.09-.12,.13s.03,.08,.12,.08h2.53c.09,0,.12-.04,.12-.08s-.05-.08-.11-.13l-.51-.37c-.12-.09-.18-.24-.19-.38l-1.67-9.51c-.02-.08-.07-.16-.16-.16h-.65c-.09,0-.12,.06-.14,.13l-1.6,9.52c-.02,.13-.04,.27-.14,.35l-.49,.4c-.05,.04-.12,.1-.12,.14s.03,.08,.1,.08h2.02c.09,0,.12-.04,.12-.08s-.11-.1-.18-.17l-.39-.32c-.07-.07-.11-.16-.09-.26l.26-1.56c.02-.06,.05-.1,.1-.1h1.3c.09,0,.14,.06,.16,.13l.26,1.49c.02,.13-.02,.23-.09,.28l-.48,.38Zm.05-3.03h-1.11s-.07-.03-.05-.08l.58-3.49h.04l.61,3.47c.02,.06-.02,.1-.07,.1Z"/><path d="M112.57,849.95c.03-.11,.04,.09,.03,.45h1.43c-.02-.18-.05-.36-.06-.53,.13,.19,.26,.36,.4,.53h13.06c.92-1.23,1.48-2.78,1.48-4.57,0-8.97-11.58-13.55-15.5-21.9l-.06-.12-.06,.12c-3.91,8.35-15.5,12.93-15.5,21.9,0,1.81,.58,3.36,1.53,4.57h12.86c.13-.14,.25-.29,.37-.45Z"/></g></svg>