<?xml version="1.0"?>
<!DOCTYPE svg PUBLIC "-//W3C//DTD SVG 1.1//EN" "http://www.w3.org/Graphics/SVG/1.1/DTD/svg11.dtd">

<svg width="100%" height="100%" viewBox="0 0 850 850" fill="blue" xmlns="http://www.w3.org/2000/svg" version="1.1">

    <g>
        <defs>
            <g id='seal'>
                <path
                    d="M425.21,102.84l34.12-64.28,20.96,69.7,46.01-56.38,6.95,72.46,56.13-46.33-7.31,72.41,64.07-34.47-21.3,69.59,69.58-21.31-34.46,64.09,72.41-7.31-46.33,56.13,72.46,6.95-56.4,46.01,69.7,20.95-64.27,34.13,64.27,34.14-69.7,20.93,56.4,46.03-72.46,6.93,46.33,56.14-72.41-7.32,34.46,64.1-69.58-21.31,21.3,69.59-64.07-34.49,7.31,72.41-56.13-46.32-6.95,72.45-46.01-56.37-20.96,69.7-34.12-64.28-34.14,64.28-20.94-69.7-46.04,56.37-6.92-72.45-56.15,46.32,7.34-72.41-64.1,34.49,21.3-69.59-69.58,21.31,34.49-64.1-72.41,7.32,46.31-56.14-72.43-6.93,56.37-46.03-69.7-20.93,64.27-34.14-64.27-34.13,69.7-20.95-56.37-46.01,72.43-6.95-46.31-56.13,72.41,7.31-34.49-64.09,69.58,21.31-21.3-69.59,64.1,34.47-7.34-72.41,56.15,46.33,6.92-72.46,46.04,56.38,20.94-69.7,34.14,64.28Z" />
            </g>

            <path id='red1'
                d="M425.21,102.84l34.12-64.28,20.96,69.7,46.01-56.38,6.95,72.46,56.13-46.33-7.31,72.41,64.07-34.47-21.3,69.59,69.58-21.31-34.46,64.09,72.41-7.31-46.33,56.13,72.46,6.95-56.4,46.01,69.7,20.95-64.27,34.13,64.27,34.14-69.7,20.93,56.4,46.03-72.46,6.93,46.33,56.14-72.41-7.32,34.46,64.1-69.58-21.31,21.3,69.59-64.07-34.49,7.31,72.41-56.13-46.32-6.95,72.45-46.01-56.37-20.96,69.7-34.12-64.28-34.14,64.28-20.94-69.7-46.04,56.37-6.92-72.45-56.15,46.32,7.34-72.41-64.1,34.49,21.3-69.59-69.58,21.31,34.49-64.1-72.41,7.32,46.31-56.14-72.43-6.93,56.37-46.03-69.7-20.93,64.27-34.14-64.27-34.13,69.7-20.95-56.37-46.01,72.43-6.95-46.31-56.13,72.41,7.31-34.49-64.09,69.58,21.31-21.3-69.59,64.1,34.47-7.34-72.41,56.15,46.33,6.92-72.46,46.04,56.38,20.94-69.7,34.14,64.28Z" />

            <g id='red' transform='rotate(-1)' transform-origin='center'>
                <use href='#seal' fill='#ff88cc' transform='rotate(1 60 20)' transform-origin='center' />
            </g>
            <g id='blue' transform='rotate(1)' transform-origin='center'>
                <use href='#seal' fill='#0000cc' transform='rotate(1 60 20)' transform-origin='center' />
            </g>

            <filter id="composite" x="0" y="0">
                <feImage href="#red" result="R" />
                <feImage href="#blue" result="B" />
                <feComposite operator="over" in="R" in2="B" />
            </filter>

        </defs>

        <g filter="url(#composite)" class='seal'>
            <rect x="0" y="0" width="850.39" height="850.39" fill="white" />
        </g>
    </g>

</svg>